<svg width="603" height="603" viewBox="0 0 603 603" fill="none" xmlns="http://www.w3.org/2000/svg">
<path d="M463.582 139.747L530.581 301.5L463.582 463.252L301.829 530.251L140.076 463.252L73.0771 301.5L140.076 139.747L301.829 72.7476L463.582 139.747Z" fill="#FF0E1F" stroke="#FF0E1F" stroke-width="2.37973"/>
<path d="M212.415 230.979C212.019 230.979 211.698 230.856 211.451 230.609C211.204 230.362 211.081 230.041 211.081 229.645L211.081 193.405L197.37 193.405C196.975 193.405 196.654 193.282 196.407 193.035C196.16 192.788 196.036 192.466 196.036 192.071L196.036 183.771C196.036 183.351 196.16 183.03 196.407 182.807C196.654 182.56 196.975 182.437 197.37 182.437L236.501 182.437C236.921 182.437 237.242 182.56 237.464 182.807C237.711 183.03 237.835 183.351 237.835 183.771L237.835 192.071C237.835 192.466 237.711 192.788 237.464 193.035C237.242 193.282 236.921 193.405 236.501 193.405L222.79 193.405L222.79 229.645C222.79 230.041 222.667 230.362 222.42 230.609C222.197 230.856 221.876 230.979 221.456 230.979L212.415 230.979ZM249.541 231.572C246.108 231.572 243.057 230.807 240.389 229.275C237.721 227.719 235.633 225.582 234.126 222.864C232.644 220.147 231.903 217.071 231.903 213.637C231.903 210.352 232.669 207.338 234.2 204.596C235.732 201.854 237.832 199.692 240.5 198.111C243.193 196.505 246.182 195.703 249.467 195.703C252.802 195.703 255.754 196.419 258.324 197.852C260.893 199.26 262.881 201.249 264.29 203.818C265.722 206.362 266.439 209.29 266.439 212.6C266.439 212.97 266.426 213.255 266.402 213.452L266.365 214.453C266.34 214.848 266.204 215.157 265.957 215.379C265.71 215.601 265.376 215.713 264.957 215.713L241.76 215.713C242.13 217.985 243.044 219.727 244.502 220.937C245.959 222.148 247.738 222.753 249.838 222.753C251.295 222.753 252.506 222.531 253.469 222.086C254.457 221.641 255.248 220.974 255.841 220.085C256.063 219.739 256.298 219.492 256.545 219.344C256.792 219.196 257.101 219.122 257.471 219.122L264.734 219.122C265.179 219.122 265.512 219.233 265.735 219.455C265.982 219.653 266.068 219.937 265.994 220.307C265.525 222.506 264.549 224.458 263.067 226.162C261.584 227.867 259.682 229.201 257.36 230.164C255.038 231.103 252.432 231.572 249.541 231.572ZM256.286 209.339C255.915 207.709 255.124 206.461 253.914 205.596C252.728 204.732 251.221 204.299 249.393 204.299C247.639 204.299 246.157 204.732 244.946 205.596C243.736 206.461 242.871 207.709 242.353 209.339L256.286 209.339ZM275.149 230.979C274.754 230.979 274.433 230.856 274.186 230.609C273.939 230.362 273.815 230.041 273.815 229.645L273.815 197.629C273.815 197.209 273.939 196.888 274.186 196.666C274.433 196.419 274.754 196.295 275.149 196.295L282.264 196.295C282.684 196.295 283.005 196.419 283.227 196.666C283.474 196.888 283.598 197.209 283.598 197.629L283.598 200.223C284.635 198.815 285.969 197.716 287.6 196.925C289.23 196.11 291.058 195.703 293.084 195.703C295.283 195.703 297.197 196.147 298.828 197.037C300.458 197.901 301.78 199.161 302.793 200.816C303.904 199.136 305.362 197.864 307.165 197C308.969 196.135 311.068 195.703 313.465 195.703C317.59 195.703 320.69 196.925 322.766 199.371C324.865 201.792 325.915 205.411 325.915 210.228L325.915 229.645C325.915 230.041 325.792 230.362 325.545 230.609C325.322 230.856 325.001 230.979 324.581 230.979L316.874 230.979C316.478 230.979 316.157 230.856 315.91 230.609C315.663 230.362 315.54 230.041 315.54 229.645L315.54 212.303C315.54 210.13 315.157 208.487 314.391 207.375C313.65 206.263 312.427 205.708 310.722 205.708C308.919 205.708 307.523 206.3 306.535 207.486C305.572 208.647 305.09 210.278 305.09 212.378L305.09 229.645C305.09 230.041 304.967 230.362 304.719 230.609C304.497 230.856 304.176 230.979 303.756 230.979L295.974 230.979C295.579 230.979 295.258 230.856 295.011 230.609C294.764 230.362 294.64 230.041 294.64 229.645L294.64 212.303C294.64 210.105 294.27 208.462 293.529 207.375C292.788 206.263 291.577 205.708 289.897 205.708C288.069 205.708 286.661 206.3 285.673 207.486C284.685 208.647 284.191 210.278 284.191 212.378L284.191 229.645C284.191 230.041 284.067 230.362 283.82 230.609C283.598 230.856 283.277 230.979 282.857 230.979L275.149 230.979ZM351.047 231.572C347.663 231.572 344.612 230.807 341.894 229.275C339.177 227.719 337.04 225.582 335.484 222.864C333.952 220.122 333.186 217.047 333.186 213.637C333.186 210.302 333.964 207.276 335.521 204.559C337.102 201.817 339.251 199.655 341.968 198.074C344.711 196.493 347.737 195.703 351.047 195.703C354.456 195.703 357.532 196.481 360.274 198.037C363.016 199.569 365.165 201.706 366.722 204.448C368.278 207.165 369.056 210.228 369.056 213.637C369.056 216.972 368.266 220.011 366.685 222.753C365.103 225.471 362.93 227.62 360.163 229.201C357.421 230.782 354.382 231.572 351.047 231.572ZM343.562 213.637C343.562 215.219 343.883 216.614 344.525 217.825C345.192 219.035 346.094 219.974 347.23 220.641C348.367 221.308 349.639 221.641 351.047 221.641C352.43 221.641 353.703 221.296 354.864 220.604C356.025 219.912 356.939 218.961 357.606 217.751C358.273 216.515 358.606 215.144 358.606 213.637C358.606 212.056 358.273 210.661 357.606 209.45C356.964 208.24 356.062 207.301 354.901 206.634C353.764 205.967 352.48 205.633 351.047 205.633C349.688 205.633 348.428 205.979 347.267 206.671C346.131 207.363 345.229 208.326 344.562 209.561C343.895 210.772 343.562 212.131 343.562 213.637ZM391.075 231.572C386.876 231.572 383.368 230.634 380.551 228.756C377.735 226.879 375.907 224.26 375.067 220.9C375.042 220.802 375.03 220.666 375.03 220.493C375.03 220.147 375.141 219.888 375.364 219.715C375.586 219.517 375.882 219.418 376.253 219.418L383.812 219.418C384.158 219.418 384.455 219.505 384.702 219.678C384.949 219.85 385.171 220.11 385.369 220.456C386.431 222.333 388.383 223.272 391.223 223.272C392.903 223.272 394.138 223.087 394.929 222.716C395.72 222.346 396.115 221.691 396.115 220.752C396.115 220.085 395.831 219.542 395.262 219.122C394.719 218.702 393.879 218.344 392.743 218.047C391.606 217.751 390.013 217.442 387.963 217.121C383.689 216.404 380.502 215.206 378.402 213.526C376.327 211.822 375.29 209.463 375.29 206.449C375.29 204.102 375.932 202.126 377.216 200.52C378.526 198.914 380.292 197.716 382.515 196.925C384.763 196.11 387.296 195.703 390.112 195.703C394.262 195.703 397.659 196.604 400.302 198.408C402.97 200.186 404.761 202.694 405.675 205.93C405.7 206.029 405.712 206.165 405.712 206.338C405.712 206.659 405.601 206.918 405.379 207.116C405.156 207.313 404.86 207.412 404.489 207.412L397.226 207.412C396.881 207.412 396.584 207.326 396.337 207.153C396.09 206.98 395.868 206.72 395.67 206.375C395.225 205.51 394.583 204.855 393.743 204.411C392.928 203.941 391.792 203.707 390.334 203.707C387.271 203.707 385.739 204.571 385.739 206.3C385.739 207.066 386.283 207.672 387.37 208.116C388.481 208.561 390.112 208.919 392.261 209.191C395.497 209.635 398.153 210.278 400.228 211.118C402.303 211.933 403.872 213.094 404.934 214.601C406.021 216.083 406.564 218.035 406.564 220.456C406.564 222.679 405.935 224.631 404.675 226.31C403.415 227.99 401.611 229.287 399.264 230.201C396.942 231.115 394.213 231.572 391.075 231.572Z" fill="black"/>
<path d="M173.598 302.236C170.634 302.236 167.929 301.458 165.483 299.902C163.062 298.346 161.148 296.209 159.74 293.491C158.356 290.749 157.665 287.686 157.665 284.302C157.665 280.991 158.381 277.965 159.814 275.223C161.247 272.481 163.186 270.319 165.631 268.738C168.102 267.157 170.807 266.367 173.747 266.367C175.748 266.367 177.514 266.7 179.046 267.367C180.602 268.034 181.874 268.961 182.862 270.146L182.862 254.435C182.862 254.015 182.986 253.694 183.233 253.471C183.48 253.224 183.801 253.101 184.196 253.101L191.978 253.101C192.398 253.101 192.719 253.224 192.941 253.471C193.188 253.694 193.312 254.015 193.312 254.435L193.312 300.31C193.312 300.705 193.188 301.026 192.941 301.273C192.719 301.52 192.398 301.644 191.978 301.644L184.715 301.644C184.32 301.644 183.999 301.52 183.752 301.273C183.505 301.026 183.381 300.705 183.381 300.31L183.381 297.79C182.467 299.124 181.182 300.198 179.527 301.014C177.872 301.829 175.896 302.236 173.598 302.236ZM168.04 284.302C168.04 285.833 168.374 287.217 169.041 288.452C169.732 289.662 170.646 290.613 171.783 291.305C172.919 291.972 174.167 292.306 175.525 292.306C176.958 292.306 178.243 291.984 179.379 291.342C180.54 290.675 181.442 289.749 182.084 288.563C182.751 287.352 183.085 285.932 183.085 284.302C183.085 282.696 182.751 281.288 182.084 280.077C181.442 278.867 180.54 277.94 179.379 277.298C178.243 276.631 176.958 276.298 175.525 276.298C174.191 276.298 172.956 276.631 171.82 277.298C170.683 277.94 169.769 278.867 169.078 280.077C168.386 281.288 168.04 282.696 168.04 284.302ZM218.345 302.236C214.912 302.236 211.861 301.471 209.193 299.939C206.525 298.383 204.437 296.246 202.93 293.528C201.448 290.811 200.707 287.735 200.707 284.302C200.707 281.016 201.473 278.002 203.004 275.26C204.536 272.518 206.636 270.356 209.304 268.775C211.996 267.17 214.986 266.367 218.271 266.367C221.606 266.367 224.558 267.083 227.128 268.516C229.697 269.924 231.685 271.913 233.093 274.482C234.526 277.026 235.243 279.954 235.243 283.264C235.243 283.635 235.23 283.919 235.206 284.116L235.169 285.117C235.144 285.512 235.008 285.821 234.761 286.043C234.514 286.265 234.18 286.377 233.76 286.377L210.564 286.377C210.934 288.649 211.848 290.391 213.306 291.601C214.763 292.812 216.542 293.417 218.642 293.417C220.099 293.417 221.31 293.195 222.273 292.75C223.261 292.306 224.052 291.639 224.645 290.749C224.867 290.403 225.102 290.156 225.349 290.008C225.596 289.86 225.905 289.786 226.275 289.786L233.538 289.786C233.983 289.786 234.316 289.897 234.539 290.119C234.786 290.317 234.872 290.601 234.798 290.972C234.329 293.17 233.353 295.122 231.871 296.826C230.388 298.531 228.486 299.865 226.164 300.828C223.842 301.767 221.236 302.236 218.345 302.236ZM225.089 280.003C224.719 278.373 223.928 277.125 222.718 276.26C221.532 275.396 220.025 274.964 218.197 274.964C216.443 274.964 214.961 275.396 213.75 276.26C212.54 277.125 211.675 278.373 211.157 280.003L225.089 280.003ZM257.293 302.236C253.093 302.236 249.586 301.298 246.769 299.42C243.953 297.543 242.125 294.924 241.285 291.564C241.26 291.466 241.248 291.33 241.248 291.157C241.248 290.811 241.359 290.552 241.582 290.379C241.804 290.181 242.1 290.082 242.471 290.082L250.03 290.082C250.376 290.082 250.672 290.169 250.92 290.342C251.167 290.515 251.389 290.774 251.587 291.12C252.649 292.997 254.6 293.936 257.441 293.936C259.121 293.936 260.356 293.751 261.147 293.38C261.937 293.01 262.333 292.355 262.333 291.416C262.333 290.749 262.049 290.206 261.48 289.786C260.937 289.366 260.097 289.008 258.961 288.711C257.824 288.415 256.231 288.106 254.18 287.785C249.907 287.068 246.72 285.87 244.62 284.19C242.545 282.486 241.507 280.127 241.507 277.113C241.507 274.766 242.15 272.79 243.434 271.184C244.744 269.578 246.51 268.38 248.733 267.589C250.981 266.774 253.513 266.367 256.33 266.367C260.48 266.367 263.877 267.268 266.52 269.072C269.188 270.85 270.979 273.358 271.893 276.594C271.918 276.693 271.93 276.829 271.93 277.002C271.93 277.323 271.819 277.582 271.597 277.78C271.374 277.977 271.078 278.076 270.707 278.076L263.444 278.076C263.098 278.076 262.802 277.99 262.555 277.817C262.308 277.644 262.086 277.384 261.888 277.039C261.443 276.174 260.801 275.519 259.961 275.075C259.146 274.605 258.009 274.371 256.552 274.371C253.489 274.371 251.957 275.235 251.957 276.965C251.957 277.73 252.501 278.336 253.588 278.78C254.699 279.225 256.33 279.583 258.479 279.855C261.715 280.3 264.371 280.942 266.446 281.782C268.521 282.597 270.09 283.758 271.152 285.265C272.239 286.747 272.782 288.699 272.782 291.12C272.782 293.343 272.152 295.295 270.892 296.975C269.633 298.654 267.829 299.951 265.482 300.865C263.16 301.779 260.43 302.236 257.293 302.236ZM294.766 302.236C291.777 302.236 289.06 301.458 286.614 299.902C284.168 298.346 282.241 296.209 280.833 293.491C279.45 290.749 278.758 287.686 278.758 284.302C278.758 280.967 279.475 277.94 280.907 275.223C282.365 272.481 284.329 270.319 286.799 268.738C289.27 267.157 291.975 266.367 294.914 266.367C297.014 266.367 298.879 266.75 300.51 267.515C302.14 268.281 303.462 269.306 304.475 270.591L304.475 268.294C304.475 267.874 304.598 267.552 304.845 267.33C305.092 267.083 305.413 266.96 305.809 266.96L313.072 266.96C313.492 266.96 313.813 267.083 314.035 267.33C314.282 267.552 314.406 267.874 314.406 268.294L314.406 300.31C314.406 300.705 314.282 301.026 314.035 301.273C313.813 301.52 313.492 301.644 313.072 301.644L305.809 301.644C305.413 301.644 305.092 301.52 304.845 301.273C304.598 301.026 304.475 300.705 304.475 300.31L304.475 297.864C303.487 299.223 302.177 300.297 300.547 301.088C298.941 301.854 297.014 302.236 294.766 302.236ZM289.134 284.302C289.134 285.833 289.467 287.217 290.134 288.452C290.826 289.662 291.74 290.613 292.876 291.305C294.013 291.972 295.26 292.306 296.619 292.306C298.052 292.306 299.336 291.984 300.473 291.342C301.634 290.675 302.535 289.749 303.178 288.563C303.845 287.352 304.178 285.932 304.178 284.302C304.178 282.696 303.845 281.288 303.178 280.077C302.535 278.867 301.634 277.94 300.473 277.298C299.336 276.631 298.052 276.298 296.619 276.298C295.285 276.298 294.05 276.631 292.913 277.298C291.777 277.94 290.863 278.867 290.171 280.077C289.48 281.288 289.134 282.696 289.134 284.302ZM328.471 301.644C328.075 301.644 327.754 301.52 327.507 301.273C327.26 301.026 327.137 300.705 327.137 300.31L327.137 276.372L322.468 276.372C322.072 276.372 321.751 276.248 321.504 276.001C321.257 275.754 321.134 275.433 321.134 275.038L321.134 268.294C321.134 267.874 321.257 267.552 321.504 267.33C321.751 267.083 322.072 266.96 322.468 266.96L327.137 266.96L327.137 264.959C327.137 262.463 327.631 260.277 328.619 258.4C329.607 256.522 331.015 255.077 332.843 254.064C334.671 253.027 336.796 252.508 339.217 252.508C340.896 252.508 342.502 252.73 344.034 253.175C345.565 253.62 346.899 254.212 348.036 254.954C348.481 255.25 348.703 255.621 348.703 256.065C348.703 256.312 348.653 256.535 348.555 256.732L346.257 261.994C346.035 262.513 345.714 262.772 345.294 262.772C345.096 262.772 344.824 262.686 344.479 262.513C343.54 262.118 342.576 261.92 341.588 261.92C340.279 261.92 339.266 262.229 338.55 262.846C337.858 263.464 337.512 264.366 337.512 265.551L337.512 266.96L345.664 266.96C346.084 266.96 346.405 267.083 346.628 267.33C346.875 267.552 346.998 267.874 346.998 268.294L346.998 275.038C346.998 275.433 346.875 275.754 346.628 276.001C346.405 276.248 346.084 276.372 345.664 276.372L337.512 276.372L337.512 300.31C337.512 300.705 337.389 301.026 337.142 301.273C336.919 301.52 336.598 301.644 336.178 301.644L328.471 301.644ZM355.855 301.644C355.46 301.644 355.139 301.52 354.892 301.273C354.645 301.026 354.521 300.705 354.521 300.31L354.521 268.294C354.521 267.874 354.645 267.552 354.892 267.33C355.139 267.083 355.46 266.96 355.855 266.96L363.563 266.96C363.983 266.96 364.304 267.083 364.526 267.33C364.773 267.552 364.897 267.874 364.897 268.294L364.897 300.31C364.897 300.705 364.773 301.026 364.526 301.273C364.304 301.52 363.983 301.644 363.563 301.644L355.855 301.644ZM359.709 263.773C357.856 263.773 356.337 263.205 355.151 262.068C353.99 260.932 353.409 259.474 353.409 257.696C353.409 256.535 353.669 255.509 354.188 254.62C354.731 253.706 355.485 252.99 356.448 252.471C357.411 251.952 358.498 251.693 359.709 251.693C360.919 251.693 362.006 251.952 362.97 252.471C363.933 252.99 364.674 253.706 365.193 254.62C365.737 255.509 366.008 256.535 366.008 257.696C366.008 259.474 365.416 260.932 364.23 262.068C363.069 263.205 361.562 263.773 359.709 263.773ZM390.138 302.236C386.754 302.236 383.703 301.471 380.985 299.939C378.268 298.383 376.131 296.246 374.575 293.528C373.043 290.786 372.277 287.711 372.277 284.302C372.277 280.967 373.055 277.94 374.612 275.223C376.193 272.481 378.342 270.319 381.059 268.738C383.801 267.157 386.828 266.367 390.138 266.367C393.547 266.367 396.623 267.145 399.365 268.701C402.107 270.233 404.256 272.37 405.812 275.112C407.369 277.829 408.147 280.892 408.147 284.302C408.147 287.637 407.356 290.675 405.775 293.417C404.194 296.135 402.02 298.284 399.254 299.865C396.512 301.446 393.473 302.236 390.138 302.236ZM382.653 284.302C382.653 285.883 382.974 287.278 383.616 288.489C384.283 289.699 385.185 290.638 386.321 291.305C387.458 291.972 388.73 292.306 390.138 292.306C391.521 292.306 392.794 291.96 393.955 291.268C395.116 290.576 396.03 289.625 396.697 288.415C397.364 287.18 397.697 285.808 397.697 284.302C397.697 282.721 397.364 281.325 396.697 280.114C396.054 278.904 395.153 277.965 393.992 277.298C392.855 276.631 391.571 276.298 390.138 276.298C388.779 276.298 387.519 276.643 386.358 277.335C385.222 278.027 384.32 278.99 383.653 280.225C382.986 281.436 382.653 282.795 382.653 284.302ZM430.166 302.236C425.966 302.236 422.459 301.298 419.642 299.42C416.826 297.543 414.998 294.924 414.158 291.564C414.133 291.466 414.121 291.33 414.121 291.157C414.121 290.811 414.232 290.552 414.455 290.379C414.677 290.181 414.973 290.082 415.344 290.082L422.903 290.082C423.249 290.082 423.545 290.169 423.793 290.342C424.04 290.515 424.262 290.774 424.46 291.12C425.522 292.997 427.473 293.936 430.314 293.936C431.994 293.936 433.229 293.751 434.02 293.38C434.81 293.01 435.206 292.355 435.206 291.416C435.206 290.749 434.922 290.206 434.353 289.786C433.81 289.366 432.97 289.008 431.834 288.711C430.697 288.415 429.104 288.106 427.053 287.785C422.78 287.068 419.593 285.87 417.493 284.19C415.418 282.486 414.38 280.127 414.38 277.113C414.38 274.766 415.023 272.79 416.307 271.184C417.617 269.578 419.383 268.38 421.606 267.589C423.854 266.774 426.386 266.367 429.203 266.367C433.353 266.367 436.75 267.268 439.393 269.072C442.061 270.85 443.852 273.358 444.766 276.594C444.791 276.693 444.803 276.829 444.803 277.002C444.803 277.323 444.692 277.582 444.47 277.78C444.247 277.977 443.951 278.076 443.58 278.076L436.317 278.076C435.971 278.076 435.675 277.99 435.428 277.817C435.181 277.644 434.959 277.384 434.761 277.039C434.316 276.174 433.674 275.519 432.834 275.075C432.019 274.605 430.883 274.371 429.425 274.371C426.362 274.371 424.83 275.235 424.83 276.965C424.83 277.73 425.374 278.336 426.461 278.78C427.572 279.225 429.203 279.583 431.352 279.855C434.588 280.3 437.244 280.942 439.319 281.782C441.394 282.597 442.963 283.758 444.025 285.265C445.112 286.747 445.655 288.699 445.655 291.12C445.655 293.343 445.025 295.295 443.765 296.975C442.506 298.654 440.702 299.951 438.355 300.865C436.033 301.779 433.303 302.236 430.166 302.236Z" fill="white"/>
<path d="M139.782 387.399C139.387 387.399 139.066 387.275 138.819 387.028C138.572 386.806 138.448 386.485 138.448 386.065L138.448 339.819C138.448 339.399 138.572 339.078 138.819 338.856C139.066 338.609 139.387 338.485 139.782 338.485L146.971 338.485C147.391 338.485 147.712 338.609 147.934 338.856C148.182 339.078 148.305 339.399 148.305 339.819L148.305 342.413C149.293 341.055 150.59 339.968 152.196 339.152C153.802 338.312 155.766 337.893 158.088 337.893C161.077 337.893 163.794 338.683 166.24 340.264C168.686 341.82 170.6 343.97 171.984 346.712C173.392 349.429 174.096 352.468 174.096 355.827C174.096 359.138 173.367 362.164 171.909 364.906C170.477 367.648 168.525 369.81 166.055 371.391C163.584 372.972 160.879 373.762 157.939 373.762C155.963 373.762 154.197 373.429 152.641 372.762C151.109 372.095 149.837 371.193 148.824 370.057L148.824 386.065C148.824 386.485 148.7 386.806 148.453 387.028C148.231 387.275 147.91 387.399 147.49 387.399L139.782 387.399ZM148.676 355.827C148.676 357.433 148.997 358.841 149.639 360.052C150.306 361.262 151.208 362.201 152.344 362.868C153.48 363.51 154.753 363.831 156.161 363.831C157.47 363.831 158.693 363.498 159.829 362.831C160.99 362.164 161.917 361.225 162.608 360.015C163.3 358.804 163.646 357.408 163.646 355.827C163.646 354.271 163.313 352.888 162.646 351.677C161.979 350.467 161.077 349.528 159.94 348.861C158.804 348.169 157.544 347.823 156.161 347.823C154.728 347.823 153.443 348.157 152.307 348.824C151.171 349.466 150.281 350.393 149.639 351.603C148.997 352.814 148.676 354.222 148.676 355.827ZM196.241 373.762C193.251 373.762 190.534 372.984 188.088 371.428C185.643 369.871 183.716 367.735 182.308 365.017C180.924 362.275 180.232 359.212 180.232 355.827C180.232 352.492 180.949 349.466 182.382 346.749C183.839 344.007 185.803 341.845 188.274 340.264C190.744 338.683 193.449 337.893 196.389 337.893C198.489 337.893 200.354 338.275 201.984 339.041C203.615 339.807 204.936 340.832 205.949 342.117L205.949 339.819C205.949 339.399 206.073 339.078 206.32 338.856C206.567 338.609 206.888 338.485 207.283 338.485L214.546 338.485C214.966 338.485 215.287 338.609 215.509 338.856C215.756 339.078 215.88 339.399 215.88 339.819L215.88 371.835C215.88 372.231 215.756 372.552 215.509 372.799C215.287 373.046 214.966 373.169 214.546 373.169L207.283 373.169C206.888 373.169 206.567 373.046 206.32 372.799C206.073 372.552 205.949 372.231 205.949 371.835L205.949 369.39C204.961 370.748 203.652 371.823 202.021 372.614C200.415 373.379 198.489 373.762 196.241 373.762ZM190.608 355.827C190.608 357.359 190.942 358.742 191.609 359.978C192.3 361.188 193.214 362.139 194.351 362.831C195.487 363.498 196.735 363.831 198.093 363.831C199.526 363.831 200.811 363.51 201.947 362.868C203.108 362.201 204.01 361.275 204.652 360.089C205.319 358.878 205.653 357.458 205.653 355.827C205.653 354.222 205.319 352.814 204.652 351.603C204.01 350.393 203.108 349.466 201.947 348.824C200.811 348.157 199.526 347.823 198.093 347.823C196.759 347.823 195.524 348.157 194.388 348.824C193.251 349.466 192.337 350.393 191.646 351.603C190.954 352.814 190.608 354.222 190.608 355.827ZM225.795 373.169C225.399 373.169 225.078 373.046 224.831 372.799C224.584 372.552 224.461 372.231 224.461 371.835L224.461 339.819C224.461 339.399 224.584 339.078 224.831 338.856C225.078 338.609 225.399 338.485 225.795 338.485L232.909 338.485C233.329 338.485 233.65 338.609 233.873 338.856C234.12 339.078 234.243 339.399 234.243 339.819L234.243 342.413C235.231 341.005 236.454 339.906 237.912 339.115C239.369 338.3 240.938 337.893 242.618 337.893C243.408 337.893 244.298 337.942 245.286 338.041C246.076 338.189 246.472 338.683 246.472 339.523L246.472 347.305C246.472 347.749 246.336 348.083 246.064 348.305C245.817 348.503 245.459 348.565 244.989 348.49C244.125 348.293 243.211 348.194 242.247 348.194C239.826 348.194 237.986 348.737 236.726 349.824C235.466 350.911 234.836 352.492 234.836 354.568L234.836 371.835C234.836 372.231 234.713 372.552 234.466 372.799C234.243 373.046 233.922 373.169 233.502 373.169L225.795 373.169ZM267.344 373.762C264.355 373.762 261.637 372.984 259.192 371.428C256.746 369.871 254.819 367.735 253.411 365.017C252.027 362.275 251.336 359.212 251.336 355.827C251.336 352.492 252.052 349.466 253.485 346.749C254.943 344.007 256.906 341.845 259.377 340.264C261.847 338.683 264.552 337.893 267.492 337.893C269.592 337.893 271.457 338.275 273.087 339.041C274.718 339.807 276.04 340.832 277.052 342.117L277.052 339.819C277.052 339.399 277.176 339.078 277.423 338.856C277.67 338.609 277.991 338.485 278.386 338.485L285.649 338.485C286.069 338.485 286.39 338.609 286.613 338.856C286.86 339.078 286.983 339.399 286.983 339.819L286.983 371.835C286.983 372.231 286.86 372.552 286.613 372.799C286.39 373.046 286.069 373.169 285.649 373.169L278.386 373.169C277.991 373.169 277.67 373.046 277.423 372.799C277.176 372.552 277.052 372.231 277.052 371.835L277.052 369.39C276.064 370.748 274.755 371.823 273.124 372.614C271.519 373.379 269.592 373.762 267.344 373.762ZM261.711 355.827C261.711 357.359 262.045 358.742 262.712 359.978C263.404 361.188 264.318 362.139 265.454 362.831C266.59 363.498 267.838 363.831 269.197 363.831C270.629 363.831 271.914 363.51 273.05 362.868C274.211 362.201 275.113 361.275 275.755 360.089C276.422 358.878 276.756 357.458 276.756 355.827C276.756 354.222 276.422 352.814 275.755 351.603C275.113 350.393 274.211 349.466 273.05 348.824C271.914 348.157 270.629 347.823 269.197 347.823C267.863 347.823 266.627 348.157 265.491 348.824C264.355 349.466 263.441 350.393 262.749 351.603C262.057 352.814 261.711 354.222 261.711 355.827ZM322.045 373.169C321.28 373.169 320.761 372.824 320.489 372.132L307.001 340.042C306.902 339.745 306.853 339.548 306.853 339.449C306.853 339.152 306.951 338.918 307.149 338.745C307.371 338.572 307.668 338.485 308.038 338.485L317.673 338.485C318.439 338.485 318.933 338.831 319.155 339.523L326.788 360.052L334.348 339.523C334.57 338.831 335.064 338.485 335.83 338.485L345.242 338.485C345.613 338.485 345.897 338.572 346.094 338.745C346.317 338.918 346.428 339.152 346.428 339.449C346.428 339.548 346.379 339.745 346.28 340.042L332.792 372.132C332.52 372.824 332.001 373.169 331.235 373.169L322.045 373.169ZM366.841 373.762C363.457 373.762 360.406 372.997 357.688 371.465C354.971 369.909 352.834 367.772 351.278 365.054C349.746 362.312 348.98 359.237 348.98 355.827C348.98 352.492 349.758 349.466 351.315 346.749C352.896 344.007 355.045 341.845 357.762 340.264C360.504 338.683 363.531 337.893 366.841 337.893C370.25 337.893 373.326 338.671 376.068 340.227C378.81 341.759 380.959 343.896 382.515 346.638C384.072 349.355 384.85 352.418 384.85 355.827C384.85 359.162 384.059 362.201 382.478 364.943C380.897 367.661 378.723 369.81 375.957 371.391C373.215 372.972 370.176 373.762 366.841 373.762ZM359.356 355.827C359.356 357.408 359.677 358.804 360.319 360.015C360.986 361.225 361.888 362.164 363.024 362.831C364.161 363.498 365.433 363.831 366.841 363.831C368.224 363.831 369.497 363.486 370.658 362.794C371.819 362.102 372.733 361.151 373.4 359.941C374.067 358.705 374.4 357.334 374.4 355.827C374.4 354.246 374.067 352.851 373.4 351.64C372.757 350.43 371.856 349.491 370.695 348.824C369.558 348.157 368.274 347.823 366.841 347.823C365.482 347.823 364.222 348.169 363.061 348.861C361.925 349.553 361.023 350.516 360.356 351.751C359.689 352.962 359.356 354.32 359.356 355.827ZM408.648 373.762C405.239 373.762 402.188 372.997 399.495 371.465C396.827 369.909 394.74 367.772 393.233 365.054C391.75 362.337 391.009 359.261 391.009 355.827C391.009 352.517 391.775 349.503 393.307 346.786C394.838 344.044 396.938 341.882 399.606 340.301C402.274 338.695 405.263 337.893 408.574 337.893C411.34 337.893 413.885 338.411 416.207 339.449C418.529 340.486 420.444 341.956 421.951 343.858C423.458 345.761 424.433 347.972 424.878 350.491C424.903 350.59 424.915 350.714 424.915 350.862C424.915 351.183 424.804 351.443 424.582 351.64C424.359 351.813 424.063 351.9 423.692 351.9L415.837 351.9C415.491 351.9 415.194 351.813 414.947 351.64C414.7 351.467 414.478 351.208 414.28 350.862C413.267 348.836 411.365 347.823 408.574 347.823C407.19 347.823 405.955 348.157 404.868 348.824C403.781 349.491 402.929 350.43 402.311 351.64C401.694 352.851 401.385 354.246 401.385 355.827C401.385 357.458 401.694 358.878 402.311 360.089C402.929 361.299 403.781 362.226 404.868 362.868C405.98 363.51 407.24 363.831 408.648 363.831C411.439 363.831 413.391 362.769 414.503 360.645C414.7 360.299 414.923 360.039 415.17 359.866C415.417 359.694 415.713 359.607 416.059 359.607L423.841 359.607C424.285 359.607 424.619 359.718 424.841 359.941C425.088 360.163 425.175 360.472 425.1 360.867C424.68 363.362 423.717 365.585 422.21 367.537C420.703 369.489 418.776 371.02 416.429 372.132C414.083 373.219 411.489 373.762 408.648 373.762ZM448.578 373.762C445.144 373.762 442.093 372.997 439.425 371.465C436.757 369.909 434.67 367.772 433.163 365.054C431.681 362.337 430.94 359.261 430.94 355.827C430.94 352.542 431.705 349.528 433.237 346.786C434.769 344.044 436.868 341.882 439.536 340.301C442.229 338.695 445.218 337.893 448.504 337.893C451.839 337.893 454.791 338.609 457.36 340.042C459.929 341.45 461.918 343.438 463.326 346.008C464.759 348.552 465.475 351.48 465.475 354.79C465.475 355.16 465.463 355.445 465.438 355.642L465.401 356.643C465.377 357.038 465.241 357.347 464.994 357.569C464.747 357.791 464.413 357.903 463.993 357.903L440.796 357.903C441.167 360.175 442.081 361.917 443.539 363.127C444.996 364.338 446.775 364.943 448.875 364.943C450.332 364.943 451.543 364.721 452.506 364.276C453.494 363.831 454.285 363.164 454.878 362.275C455.1 361.929 455.335 361.682 455.582 361.534C455.829 361.386 456.137 361.312 456.508 361.312L463.771 361.312C464.216 361.312 464.549 361.423 464.771 361.645C465.018 361.843 465.105 362.127 465.031 362.497C464.561 364.696 463.586 366.648 462.103 368.352C460.621 370.057 458.719 371.391 456.397 372.354C454.075 373.293 451.468 373.762 448.578 373.762ZM455.322 351.529C454.952 349.899 454.161 348.651 452.951 347.786C451.765 346.922 450.258 346.489 448.43 346.489C446.676 346.489 445.194 346.922 443.983 347.786C442.773 348.651 441.908 349.899 441.389 351.529L455.322 351.529ZM436.127 334.632C435.782 334.632 435.51 334.57 435.312 334.446C435.115 334.298 435.016 334.1 435.016 333.853C435.016 333.656 435.139 333.372 435.386 333.001L442.427 324.33C442.649 324.034 442.872 323.836 443.094 323.737C443.341 323.638 443.637 323.589 443.983 323.589L453.099 323.589C453.469 323.589 453.778 323.651 454.025 323.774C454.272 323.873 454.507 324.058 454.729 324.33L461.77 333.001C462.017 333.372 462.14 333.656 462.14 333.853C462.14 334.1 462.042 334.298 461.844 334.446C461.646 334.57 461.375 334.632 461.029 334.632L453.914 334.632C453.544 334.632 453.235 334.582 452.988 334.483C452.741 334.36 452.506 334.162 452.284 333.891L448.504 329.37L444.798 333.891C444.576 334.162 444.341 334.36 444.094 334.483C443.847 334.582 443.539 334.632 443.168 334.632L436.127 334.632Z" fill="black"/>
<path opacity="0.03" d="M509.06 94.2676L594.898 301.5L509.06 508.731L301.828 594.57L94.5957 508.731L8.75684 301.5L94.5957 94.2676L301.828 8.42871L509.06 94.2676Z" stroke="white" stroke-width="0.793243"/>
<path opacity="0.2" d="M513.782 89.2168L601.711 301.5L513.782 513.782L301.5 601.711L89.2168 513.782L1.28809 301.5L89.2168 89.2168L301.5 1.28809L513.782 89.2168Z" stroke="#FF0E1F" stroke-opacity="0.25" stroke-width="2.37973"/>
<path opacity="0.6" d="M498.519 105.48L579.711 301.5L498.519 497.519L302.5 578.711L106.48 497.519L25.2881 301.5L106.48 105.48L302.5 24.2881L498.519 105.48Z" stroke="#FF0E1F" stroke-opacity="0.4" stroke-width="2.37973"/>
<path opacity="0.8" d="M479.986 123.158L553.712 301.499L479.986 479.841L302 553.712L124.013 479.841L50.2871 301.5L124.013 123.158L302 49.2871L479.986 123.158Z" stroke="#FF0E1F" stroke-opacity="0.6" stroke-width="2.37973"/>
</svg>
