<svg width="333" height="248" viewBox="0 0 333 248" fill="none" xmlns="http://www.w3.org/2000/svg">
<path opacity="0.3" d="M18.8242 76.9795C18.429 76.9795 18.1078 76.856 17.8608 76.6089C17.6138 76.3619 17.4902 76.0408 17.4902 75.6455L17.4902 39.4051L3.77967 39.4051C3.38441 39.4051 3.06326 39.2816 2.81622 39.0346C2.56919 38.7875 2.44567 38.4664 2.44567 38.0711L2.44567 29.7707C2.44567 29.3507 2.56919 29.0296 2.81622 28.8072C3.06326 28.5602 3.38441 28.4367 3.77967 28.4367L42.9104 28.4367C43.3303 28.4367 43.6515 28.5602 43.8738 28.8072C44.1209 29.0296 44.2444 29.3507 44.2444 29.7707L44.2444 38.0711C44.2444 38.4664 44.1209 38.7875 43.8738 39.0346C43.6515 39.2816 43.3303 39.4051 42.9104 39.4051L29.1998 39.4051L29.1998 75.6455C29.1998 76.0408 29.0763 76.3619 28.8292 76.6089C28.6069 76.856 28.2858 76.9795 27.8658 76.9795L18.8242 76.9795ZM55.951 77.5724C52.5172 77.5724 49.4663 76.8066 46.7983 75.2749C44.1303 73.7186 42.0428 71.5817 40.5359 68.8643C39.0537 66.1469 38.3126 63.0713 38.3126 59.6375C38.3126 56.3519 39.0784 53.338 40.61 50.5959C42.1417 47.8538 44.2415 45.6922 46.9095 44.1112C49.6022 42.5054 52.5913 41.7026 55.8769 41.7026C59.2119 41.7026 62.164 42.419 64.7332 43.8518C67.3024 45.2599 69.2911 47.2486 70.6992 49.8177C72.132 52.3622 72.8484 55.2896 72.8484 58.5999C72.8484 58.9705 72.836 59.2546 72.8113 59.4522L72.7743 60.4527C72.7496 60.848 72.6137 61.1568 72.3667 61.3791C72.1196 61.6014 71.7861 61.7126 71.3662 61.7126L48.1694 61.7126C48.5399 63.9853 49.454 65.7269 50.9115 66.9374C52.369 68.1479 54.1477 68.7532 56.2475 68.7532C57.705 68.7532 58.9155 68.5308 59.8789 68.0862C60.8671 67.6415 61.6576 66.9745 62.2505 66.0851C62.4728 65.7393 62.7075 65.4923 62.9545 65.344C63.2016 65.1958 63.5104 65.1217 63.8809 65.1217L71.1438 65.1217C71.5885 65.1217 71.922 65.2329 72.1443 65.4552C72.3914 65.6528 72.4778 65.9369 72.4037 66.3075C71.9344 68.5061 70.9586 70.4577 69.4763 72.1623C67.9941 73.8668 66.0919 75.2008 63.7698 76.1643C61.4476 77.103 58.8414 77.5724 55.951 77.5724ZM62.6952 55.339C62.3246 53.7086 61.5341 52.461 60.3236 51.5964C59.1378 50.7318 57.6309 50.2995 55.8028 50.2995C54.0489 50.2995 52.5666 50.7318 51.3562 51.5964C50.1457 52.461 49.281 53.7086 48.7623 55.339L62.6952 55.339ZM81.5588 76.9795C81.1635 76.9795 80.8424 76.856 80.5953 76.6089C80.3483 76.3619 80.2248 76.0408 80.2248 75.6455L80.2248 43.6295C80.2248 43.2095 80.3483 42.8883 80.5953 42.666C80.8424 42.419 81.1635 42.2955 81.5588 42.2955L88.6734 42.2955C89.0934 42.2955 89.4146 42.419 89.6369 42.666C89.8839 42.8883 90.0074 43.2095 90.0074 43.6295L90.0074 46.2234C91.045 44.8152 92.379 43.7159 94.0094 42.9254C95.6399 42.1102 97.468 41.7026 99.4937 41.7026C101.692 41.7026 103.607 42.1472 105.237 43.0366C106.868 43.9012 108.189 45.1611 109.202 46.8162C110.314 45.1364 111.771 43.8641 113.575 42.9995C115.378 42.1349 117.478 41.7026 119.874 41.7026C124 41.7026 127.1 42.9254 129.175 45.3711C131.275 47.792 132.325 51.4111 132.325 56.2284L132.325 75.6455C132.325 76.0408 132.201 76.3619 131.954 76.6089C131.732 76.856 131.411 76.9795 130.991 76.9795L123.283 76.9795C122.888 76.9795 122.567 76.856 122.32 76.6089C122.073 76.3619 121.949 76.0408 121.949 75.6455L121.949 58.3035C121.949 56.1295 121.566 54.4867 120.801 53.3751C120.06 52.2634 118.837 51.7076 117.132 51.7076C115.329 51.7076 113.933 52.3005 112.945 53.4862C111.981 54.6473 111.5 56.2778 111.5 58.3776L111.5 75.6455C111.5 76.0408 111.376 76.3619 111.129 76.6089C110.907 76.856 110.586 76.9795 110.166 76.9795L102.384 76.9795C101.989 76.9795 101.668 76.856 101.421 76.6089C101.174 76.3619 101.05 76.0408 101.05 75.6455L101.05 58.3035C101.05 56.1048 100.679 54.462 99.9383 53.3751C99.1972 52.2634 97.9867 51.7076 96.3069 51.7076C94.4788 51.7076 93.0707 52.3005 92.0826 53.4862C91.0944 54.6473 90.6003 56.2778 90.6003 58.3776L90.6003 75.6455C90.6003 76.0408 90.4768 76.3619 90.2298 76.6089C90.0074 76.856 89.6863 76.9795 89.2663 76.9795L81.5588 76.9795ZM157.457 77.5724C154.072 77.5724 151.021 76.8066 148.304 75.2749C145.587 73.7186 143.45 71.5817 141.893 68.8643C140.362 66.1222 139.596 63.0466 139.596 59.6375C139.596 56.3025 140.374 53.2763 141.93 50.5589C143.511 47.8167 145.661 45.6552 148.378 44.0741C151.12 42.4931 154.146 41.7026 157.457 41.7026C160.866 41.7026 163.941 42.4807 166.684 44.0371C169.426 45.5687 171.575 47.7056 173.131 50.4477C174.688 53.1651 175.466 56.2284 175.466 59.6375C175.466 62.9725 174.675 66.011 173.094 68.7532C171.513 71.4706 169.339 73.6198 166.572 75.2008C163.83 76.7819 160.792 77.5724 157.457 77.5724ZM149.971 59.6375C149.971 61.2185 150.293 62.6143 150.935 63.8248C151.602 65.0352 152.504 65.974 153.64 66.641C154.776 67.308 156.049 67.6415 157.457 67.6415C158.84 67.6415 160.112 67.2956 161.273 66.6039C162.435 65.9122 163.349 64.9611 164.016 63.7506C164.683 62.5155 165.016 61.1444 165.016 59.6375C165.016 58.0564 164.683 56.6607 164.016 55.4502C163.373 54.2397 162.472 53.301 161.311 52.634C160.174 51.967 158.89 51.6335 157.457 51.6335C156.098 51.6335 154.838 51.9793 153.677 52.671C152.541 53.3627 151.639 54.3262 150.972 55.5614C150.305 56.7718 149.971 58.1305 149.971 59.6375ZM197.485 77.5724C193.285 77.5724 189.777 76.6336 186.961 74.7562C184.145 72.8787 182.317 70.2601 181.477 66.9004C181.452 66.8016 181.44 66.6657 181.44 66.4928C181.44 66.1469 181.551 65.8875 181.773 65.7146C181.996 65.517 182.292 65.4181 182.663 65.4181L190.222 65.4181C190.568 65.4181 190.864 65.5046 191.111 65.6775C191.358 65.8505 191.581 66.1099 191.778 66.4557C192.841 68.3332 194.792 69.2719 197.633 69.2719C199.313 69.2719 200.548 69.0867 201.339 68.7161C202.129 68.3455 202.524 67.6909 202.524 66.7521C202.524 66.0851 202.24 65.5417 201.672 65.1217C201.129 64.7017 200.289 64.3435 199.152 64.0471C198.016 63.7506 196.423 63.4418 194.372 63.1207C190.098 62.4043 186.912 61.2062 184.812 59.5263C182.737 57.8218 181.699 55.4625 181.699 52.4487C181.699 50.1018 182.341 48.1255 183.626 46.5198C184.935 44.9141 186.702 43.7159 188.925 42.9254C191.173 42.1102 193.705 41.7026 196.521 41.7026C200.672 41.7026 204.068 42.6043 206.712 44.4076C209.38 46.1863 211.171 48.6937 212.085 51.9299C212.109 52.0287 212.122 52.1646 212.122 52.3375C212.122 52.6587 212.011 52.9181 211.788 53.1157C211.566 53.3133 211.27 53.4121 210.899 53.4121L203.636 53.4121C203.29 53.4121 202.994 53.3257 202.747 53.1527C202.5 52.9798 202.277 52.7204 202.08 52.3746C201.635 51.5099 200.993 50.8553 200.153 50.4106C199.338 49.9413 198.201 49.7066 196.744 49.7066C193.68 49.7066 192.149 50.5712 192.149 52.3005C192.149 53.0663 192.692 53.6715 193.779 54.1162C194.891 54.5609 196.521 54.9191 198.671 55.1908C201.907 55.6355 204.562 56.2778 206.638 57.1177C208.713 57.9329 210.281 59.094 211.344 60.6009C212.431 62.0831 212.974 64.0347 212.974 66.4557C212.974 68.679 212.344 70.6306 211.084 72.3105C209.824 73.9903 208.021 75.2873 205.674 76.2013C203.352 77.1154 200.622 77.5724 197.485 77.5724Z" fill="white"/>
<path opacity="0.6" d="M17.9349 148.236C14.9705 148.236 12.2654 147.458 9.81973 145.902C7.39877 144.346 5.48423 142.209 4.07612 139.491C2.69271 136.749 2.001 133.686 2.001 130.302C2.001 126.991 2.71741 123.965 4.15023 121.223C5.58304 118.481 7.52228 116.319 9.96795 114.738C12.4383 113.157 15.1434 112.367 18.0831 112.367C20.0841 112.367 21.8504 112.7 23.3821 113.367C24.9384 114.034 26.2107 114.961 27.1988 116.146L27.1988 100.435C27.1988 100.015 27.3223 99.6936 27.5694 99.4713C27.8164 99.2243 28.1375 99.1007 28.5328 99.1007L36.3145 99.1007C36.7344 99.1007 37.0556 99.2243 37.2779 99.4713C37.525 99.6936 37.6485 100.015 37.6485 100.435L37.6485 146.31C37.6485 146.705 37.525 147.026 37.2779 147.273C37.0556 147.52 36.7344 147.644 36.3145 147.644L29.0516 147.644C28.6563 147.644 28.3352 147.52 28.0881 147.273C27.8411 147.026 27.7176 146.705 27.7176 146.31L27.7176 143.79C26.8035 145.124 25.5189 146.198 23.8638 147.014C22.2087 147.829 20.2324 148.236 17.9349 148.236ZM12.3766 130.302C12.3766 131.833 12.7101 133.217 13.3771 134.452C14.0688 135.662 14.9828 136.613 16.1192 137.305C17.2556 137.972 18.5031 138.306 19.8618 138.306C21.2946 138.306 22.5792 137.984 23.7156 137.342C24.8767 136.675 25.7783 135.749 26.4206 134.563C27.0876 133.352 27.4211 131.932 27.4211 130.302C27.4211 128.696 27.0876 127.288 26.4206 126.077C25.7783 124.867 24.8767 123.94 23.7156 123.298C22.5792 122.631 21.2946 122.298 19.8618 122.298C18.5278 122.298 17.2926 122.631 16.1562 123.298C15.0199 123.94 14.1058 124.867 13.4141 126.077C12.7224 127.288 12.3766 128.696 12.3766 130.302ZM62.6818 148.236C59.248 148.236 56.1971 147.471 53.5291 145.939C50.8611 144.383 48.7736 142.246 47.2667 139.528C45.7845 136.811 45.0434 133.735 45.0434 130.302C45.0434 127.016 45.8092 124.002 47.3408 121.26C48.8725 118.518 50.9723 116.356 53.6403 114.775C56.333 113.17 59.3221 112.367 62.6077 112.367C65.9427 112.367 68.8948 113.083 71.464 114.516C74.0332 115.924 76.0219 117.913 77.43 120.482C78.8628 123.026 79.5792 125.954 79.5792 129.264C79.5792 129.635 79.5668 129.919 79.5421 130.116L79.5051 131.117C79.4804 131.512 79.3445 131.821 79.0975 132.043C78.8504 132.265 78.5169 132.377 78.097 132.377L54.9002 132.377C55.2707 134.649 56.1848 136.391 57.6423 137.601C59.0998 138.812 60.8785 139.417 62.9783 139.417C64.4358 139.417 65.6463 139.195 66.6097 138.75C67.5979 138.306 68.3884 137.639 68.9813 136.749C69.2036 136.403 69.4383 136.156 69.6854 136.008C69.9324 135.86 70.2412 135.786 70.6117 135.786L77.8746 135.786C78.3193 135.786 78.6528 135.897 78.8751 136.119C79.1222 136.317 79.2086 136.601 79.1345 136.972C78.6652 139.17 77.6894 141.122 76.2071 142.826C74.7249 144.531 72.8227 145.865 70.5006 146.828C68.1784 147.767 65.5722 148.236 62.6818 148.236ZM69.426 126.003C69.0554 124.373 68.2649 123.125 67.0544 122.26C65.8686 121.396 64.3617 120.964 62.5336 120.964C60.7797 120.964 59.2974 121.396 58.087 122.26C56.8765 123.125 56.0118 124.373 55.4931 126.003L69.426 126.003ZM101.63 148.236C97.4299 148.236 93.922 147.298 91.1058 145.42C88.2896 143.543 86.4615 140.924 85.6216 137.564C85.5969 137.466 85.5845 137.33 85.5845 137.157C85.5845 136.811 85.6957 136.552 85.918 136.379C86.1403 136.181 86.4368 136.082 86.8073 136.082L94.3667 136.082C94.7125 136.082 95.009 136.169 95.256 136.342C95.5031 136.515 95.7254 136.774 95.923 137.12C96.9853 138.997 98.9369 139.936 101.778 139.936C103.458 139.936 104.693 139.751 105.483 139.38C106.274 139.01 106.669 138.355 106.669 137.416C106.669 136.749 106.385 136.206 105.817 135.786C105.273 135.366 104.433 135.008 103.297 134.711C102.161 134.415 100.567 134.106 98.5169 133.785C94.2432 133.068 91.0564 131.87 88.9566 130.19C86.8815 128.486 85.8439 126.127 85.8439 123.113C85.8439 120.766 86.4862 118.79 87.7708 117.184C89.0801 115.578 90.8464 114.38 93.0697 113.589C95.3178 112.774 97.8499 112.367 100.666 112.367C104.816 112.367 108.213 113.268 110.856 115.072C113.524 116.85 115.315 119.358 116.229 122.594C116.254 122.693 116.267 122.829 116.267 123.002C116.267 123.323 116.155 123.582 115.933 123.78C115.711 123.977 115.414 124.076 115.044 124.076L107.781 124.076C107.435 124.076 107.139 123.99 106.891 123.817C106.644 123.644 106.422 123.384 106.224 123.039C105.78 122.174 105.138 121.519 104.298 121.075C103.482 120.605 102.346 120.371 100.888 120.371C97.8252 120.371 96.2936 121.235 96.2936 122.965C96.2936 123.73 96.8371 124.336 97.924 124.78C99.0357 125.225 100.666 125.583 102.815 125.855C106.052 126.3 108.707 126.942 110.782 127.782C112.857 128.597 114.426 129.758 115.488 131.265C116.575 132.747 117.119 134.699 117.119 137.12C117.119 139.343 116.489 141.295 115.229 142.975C113.969 144.654 112.166 145.951 109.819 146.865C107.497 147.779 104.767 148.236 101.63 148.236ZM139.103 148.236C136.113 148.236 133.396 147.458 130.95 145.902C128.505 144.346 126.578 142.209 125.17 139.491C123.786 136.749 123.095 133.686 123.095 130.302C123.095 126.967 123.811 123.94 125.244 121.223C126.701 118.481 128.665 116.319 131.136 114.738C133.606 113.157 136.311 112.367 139.251 112.367C141.351 112.367 143.216 112.75 144.846 113.515C146.477 114.281 147.798 115.306 148.811 116.591L148.811 114.294C148.811 113.874 148.935 113.552 149.182 113.33C149.429 113.083 149.75 112.96 150.145 112.96L157.408 112.96C157.828 112.96 158.149 113.083 158.372 113.33C158.619 113.552 158.742 113.874 158.742 114.294L158.742 146.31C158.742 146.705 158.619 147.026 158.372 147.273C158.149 147.52 157.828 147.644 157.408 147.644L150.145 147.644C149.75 147.644 149.429 147.52 149.182 147.273C148.935 147.026 148.811 146.705 148.811 146.31L148.811 143.864C147.823 145.223 146.514 146.297 144.883 147.088C143.278 147.854 141.351 148.236 139.103 148.236ZM133.47 130.302C133.47 131.833 133.804 133.217 134.471 134.452C135.162 135.662 136.076 136.613 137.213 137.305C138.349 137.972 139.597 138.306 140.955 138.306C142.388 138.306 143.673 137.984 144.809 137.342C145.97 136.675 146.872 135.749 147.514 134.563C148.181 133.352 148.515 131.932 148.515 130.302C148.515 128.696 148.181 127.288 147.514 126.077C146.872 124.867 145.97 123.94 144.809 123.298C143.673 122.631 142.388 122.298 140.955 122.298C139.621 122.298 138.386 122.631 137.25 123.298C136.113 123.94 135.199 124.867 134.508 126.077C133.816 127.288 133.47 128.696 133.47 130.302ZM172.807 147.644C172.412 147.644 172.091 147.52 171.844 147.273C171.597 147.026 171.473 146.705 171.473 146.31L171.473 122.372L166.804 122.372C166.409 122.372 166.088 122.248 165.841 122.001C165.594 121.754 165.47 121.433 165.47 121.038L165.47 114.294C165.47 113.874 165.594 113.552 165.841 113.33C166.088 113.083 166.409 112.96 166.804 112.96L171.473 112.96L171.473 110.959C171.473 108.463 171.967 106.277 172.955 104.4C173.943 102.522 175.351 101.077 177.18 100.064C179.008 99.0266 181.132 98.5078 183.553 98.5078C185.233 98.5078 186.839 98.7302 188.37 99.1748C189.902 99.6195 191.236 100.212 192.372 100.954C192.817 101.25 193.039 101.621 193.039 102.065C193.039 102.312 192.99 102.535 192.891 102.732L190.594 107.994C190.371 108.513 190.05 108.772 189.63 108.772C189.433 108.772 189.161 108.686 188.815 108.513C187.876 108.118 186.913 107.92 185.925 107.92C184.615 107.92 183.603 108.229 182.886 108.846C182.194 109.464 181.849 110.366 181.849 111.551L181.849 112.96L190.001 112.96C190.421 112.96 190.742 113.083 190.964 113.33C191.211 113.552 191.335 113.874 191.335 114.294L191.335 121.038C191.335 121.433 191.211 121.754 190.964 122.001C190.742 122.248 190.421 122.372 190.001 122.372L181.849 122.372L181.849 146.31C181.849 146.705 181.725 147.026 181.478 147.273C181.256 147.52 180.935 147.644 180.515 147.644L172.807 147.644ZM200.192 147.644C199.796 147.644 199.475 147.52 199.228 147.273C198.981 147.026 198.858 146.705 198.858 146.31L198.858 114.294C198.858 113.874 198.981 113.552 199.228 113.33C199.475 113.083 199.796 112.96 200.192 112.96L207.899 112.96C208.319 112.96 208.64 113.083 208.863 113.33C209.11 113.552 209.233 113.874 209.233 114.294L209.233 146.31C209.233 146.705 209.11 147.026 208.863 147.273C208.64 147.52 208.319 147.644 207.899 147.644L200.192 147.644ZM204.045 109.773C202.193 109.773 200.673 109.205 199.488 108.068C198.327 106.932 197.746 105.474 197.746 103.696C197.746 102.535 198.005 101.509 198.524 100.62C199.068 99.706 199.821 98.9896 200.785 98.4708C201.748 97.952 202.835 97.6926 204.045 97.6926C205.256 97.6926 206.343 97.952 207.306 98.4708C208.27 98.9896 209.011 99.706 209.53 100.62C210.073 101.509 210.345 102.535 210.345 103.696C210.345 105.474 209.752 106.932 208.566 108.068C207.405 109.205 205.898 109.773 204.045 109.773ZM234.474 148.236C231.09 148.236 228.039 147.471 225.322 145.939C222.604 144.383 220.467 142.246 218.911 139.528C217.379 136.786 216.614 133.711 216.614 130.302C216.614 126.967 217.392 123.94 218.948 121.223C220.529 118.481 222.678 116.319 225.396 114.738C228.138 113.157 231.164 112.367 234.474 112.367C237.884 112.367 240.959 113.145 243.701 114.701C246.443 116.233 248.593 118.37 250.149 121.112C251.705 123.829 252.483 126.892 252.483 130.302C252.483 133.637 251.693 136.675 250.112 139.417C248.531 142.135 246.357 144.284 243.59 145.865C240.848 147.446 237.809 148.236 234.474 148.236ZM226.989 130.302C226.989 131.883 227.31 133.278 227.953 134.489C228.62 135.699 229.521 136.638 230.658 137.305C231.794 137.972 233.066 138.306 234.474 138.306C235.858 138.306 237.13 137.96 238.291 137.268C239.452 136.576 240.366 135.625 241.033 134.415C241.7 133.18 242.034 131.808 242.034 130.302C242.034 128.721 241.7 127.325 241.033 126.114C240.391 124.904 239.489 123.965 238.328 123.298C237.192 122.631 235.907 122.298 234.474 122.298C233.116 122.298 231.856 122.643 230.695 123.335C229.558 124.027 228.657 124.99 227.99 126.225C227.323 127.436 226.989 128.795 226.989 130.302ZM274.503 148.236C270.303 148.236 266.795 147.298 263.979 145.42C261.163 143.543 259.334 140.924 258.495 137.564C258.47 137.466 258.458 137.33 258.458 137.157C258.458 136.811 258.569 136.552 258.791 136.379C259.013 136.181 259.31 136.082 259.68 136.082L267.24 136.082C267.586 136.082 267.882 136.169 268.129 136.342C268.376 136.515 268.598 136.774 268.796 137.12C269.858 138.997 271.81 139.936 274.651 139.936C276.331 139.936 277.566 139.751 278.356 139.38C279.147 139.01 279.542 138.355 279.542 137.416C279.542 136.749 279.258 136.206 278.69 135.786C278.146 135.366 277.306 135.008 276.17 134.711C275.034 134.415 273.44 134.106 271.39 133.785C267.116 133.068 263.929 131.87 261.83 130.19C259.754 128.486 258.717 126.127 258.717 123.113C258.717 120.766 259.359 118.79 260.644 117.184C261.953 115.578 263.719 114.38 265.943 113.589C268.191 112.774 270.723 112.367 273.539 112.367C277.689 112.367 281.086 113.268 283.729 115.072C286.397 116.85 288.188 119.358 289.102 122.594C289.127 122.693 289.14 122.829 289.14 123.002C289.14 123.323 289.028 123.582 288.806 123.78C288.584 123.977 288.287 124.076 287.917 124.076L280.654 124.076C280.308 124.076 280.012 123.99 279.764 123.817C279.517 123.644 279.295 123.384 279.097 123.039C278.653 122.174 278.011 121.519 277.171 121.075C276.355 120.605 275.219 120.371 273.761 120.371C270.698 120.371 269.167 121.235 269.167 122.965C269.167 123.73 269.71 124.336 270.797 124.78C271.909 125.225 273.539 125.583 275.688 125.855C278.925 126.3 281.58 126.942 283.655 127.782C285.73 128.597 287.299 129.758 288.361 131.265C289.448 132.747 289.992 134.699 289.992 137.12C289.992 139.343 289.362 141.295 288.102 142.975C286.842 144.654 285.039 145.951 282.692 146.865C280.37 147.779 277.64 148.236 274.503 148.236Z" fill="white"/>
<path d="M4.52078 233.399C4.12552 233.399 3.80437 233.276 3.55734 233.029C3.3103 232.806 3.18678 232.485 3.18678 232.065L3.18678 185.82C3.18678 185.4 3.3103 185.079 3.55734 184.856C3.80437 184.609 4.12552 184.486 4.52078 184.486L11.7096 184.486C12.1295 184.486 12.4507 184.609 12.673 184.856C12.92 185.079 13.0436 185.4 13.0436 185.82L13.0436 188.414C14.0317 187.055 15.3287 185.968 16.9344 185.153C18.5401 184.313 20.5041 183.893 22.8262 183.893C25.8154 183.893 28.5328 184.684 30.9785 186.265C33.4241 187.821 35.3387 189.97 36.7221 192.712C38.1302 195.43 38.8343 198.468 38.8343 201.828C38.8343 205.138 38.1055 208.164 36.648 210.907C35.2152 213.649 33.2636 215.81 30.7932 217.391C28.3228 218.972 25.6178 219.763 22.678 219.763C20.7017 219.763 18.9354 219.429 17.3791 218.762C15.8474 218.095 14.5752 217.194 13.5623 216.057L13.5623 232.065C13.5623 232.485 13.4388 232.806 13.1918 233.029C12.9695 233.276 12.6483 233.399 12.2283 233.399L4.52078 233.399ZM13.4141 201.828C13.4141 203.434 13.7353 204.842 14.3776 206.052C15.0446 207.263 15.9463 208.201 17.0826 208.868C18.219 209.511 19.4912 209.832 20.8994 209.832C22.2087 209.832 23.4315 209.498 24.5679 208.831C25.7289 208.164 26.6553 207.226 27.347 206.015C28.0387 204.805 28.3846 203.409 28.3846 201.828C28.3846 200.272 28.0511 198.888 27.3841 197.678C26.7171 196.467 25.8154 195.528 24.679 194.861C23.5427 194.17 22.2828 193.824 20.8994 193.824C19.4665 193.824 18.1819 194.157 17.0456 194.824C15.9092 195.467 15.0199 196.393 14.3776 197.604C13.7353 198.814 13.4141 200.222 13.4141 201.828ZM60.979 219.763C57.9899 219.763 55.2725 218.985 52.8268 217.428C50.3811 215.872 48.4542 213.735 47.0461 211.018C45.6627 208.276 44.971 205.212 44.971 201.828C44.971 198.493 45.6874 195.467 47.1202 192.749C48.5778 190.007 50.5417 187.846 53.0121 186.265C55.4824 184.684 58.1875 183.893 61.1272 183.893C63.2271 183.893 65.0922 184.276 66.7226 185.042C68.3531 185.808 69.6747 186.833 70.6876 188.117L70.6876 185.82C70.6876 185.4 70.8111 185.079 71.0581 184.856C71.3052 184.609 71.6263 184.486 72.0216 184.486L79.2845 184.486C79.7044 184.486 80.0256 184.609 80.2479 184.856C80.495 185.079 80.6185 185.4 80.6185 185.82L80.6185 217.836C80.6185 218.231 80.495 218.552 80.2479 218.799C80.0256 219.046 79.7044 219.17 79.2845 219.17L72.0216 219.17C71.6263 219.17 71.3052 219.046 71.0581 218.799C70.8111 218.552 70.6876 218.231 70.6876 217.836L70.6876 215.39C69.6994 216.749 68.3901 217.824 66.7597 218.614C65.154 219.38 63.2271 219.763 60.979 219.763ZM55.3466 201.828C55.3466 203.36 55.6801 204.743 56.3471 205.978C57.0388 207.189 57.9528 208.14 59.0892 208.831C60.2256 209.498 61.4731 209.832 62.8318 209.832C64.2646 209.832 65.5492 209.511 66.6856 208.868C67.8467 208.201 68.7483 207.275 69.3906 206.089C70.0576 204.879 70.3911 203.458 70.3911 201.828C70.3911 200.222 70.0576 198.814 69.3906 197.604C68.7483 196.393 67.8467 195.467 66.6856 194.824C65.5492 194.157 64.2646 193.824 62.8318 193.824C61.4978 193.824 60.2626 194.157 59.1262 194.824C57.9899 195.467 57.0758 196.393 56.3841 197.604C55.6924 198.814 55.3466 200.222 55.3466 201.828ZM90.5332 219.17C90.1379 219.17 89.8168 219.046 89.5697 218.799C89.3227 218.552 89.1992 218.231 89.1992 217.836L89.1992 185.82C89.1992 185.4 89.3227 185.079 89.5697 184.856C89.8168 184.609 90.1379 184.486 90.5332 184.486L97.6478 184.486C98.0678 184.486 98.389 184.609 98.6113 184.856C98.8583 185.079 98.9818 185.4 98.9818 185.82L98.9818 188.414C99.97 187.006 101.193 185.906 102.65 185.116C104.108 184.301 105.677 183.893 107.356 183.893C108.147 183.893 109.036 183.942 110.024 184.041C110.815 184.189 111.21 184.684 111.21 185.523L111.21 193.305C111.21 193.75 111.074 194.083 110.803 194.306C110.556 194.503 110.197 194.565 109.728 194.491C108.863 194.293 107.949 194.194 106.986 194.194C104.565 194.194 102.724 194.738 101.465 195.825C100.205 196.912 99.5747 198.493 99.5747 200.568L99.5747 217.836C99.5747 218.231 99.4512 218.552 99.2042 218.799C98.9818 219.046 98.6607 219.17 98.2407 219.17L90.5332 219.17ZM132.082 219.763C129.093 219.763 126.376 218.985 123.93 217.428C121.484 215.872 119.558 213.735 118.149 211.018C116.766 208.276 116.074 205.212 116.074 201.828C116.074 198.493 116.791 195.467 118.224 192.749C119.681 190.007 121.645 187.846 124.115 186.265C126.586 184.684 129.291 183.893 132.231 183.893C134.33 183.893 136.195 184.276 137.826 185.042C139.456 185.808 140.778 186.833 141.791 188.117L141.791 185.82C141.791 185.4 141.914 185.079 142.161 184.856C142.408 184.609 142.73 184.486 143.125 184.486L150.388 184.486C150.808 184.486 151.129 184.609 151.351 184.856C151.598 185.079 151.722 185.4 151.722 185.82L151.722 217.836C151.722 218.231 151.598 218.552 151.351 218.799C151.129 219.046 150.808 219.17 150.388 219.17L143.125 219.17C142.73 219.17 142.408 219.046 142.161 218.799C141.914 218.552 141.791 218.231 141.791 217.836L141.791 215.39C140.803 216.749 139.493 217.824 137.863 218.614C136.257 219.38 134.33 219.763 132.082 219.763ZM126.45 201.828C126.45 203.36 126.783 204.743 127.45 205.978C128.142 207.189 129.056 208.14 130.192 208.831C131.329 209.498 132.576 209.832 133.935 209.832C135.368 209.832 136.653 209.511 137.789 208.868C138.95 208.201 139.852 207.275 140.494 206.089C141.161 204.879 141.494 203.458 141.494 201.828C141.494 200.222 141.161 198.814 140.494 197.604C139.852 196.393 138.95 195.467 137.789 194.824C136.653 194.157 135.368 193.824 133.935 193.824C132.601 193.824 131.366 194.157 130.23 194.824C129.093 195.467 128.179 196.393 127.487 197.604C126.796 198.814 126.45 200.222 126.45 201.828ZM186.784 219.17C186.018 219.17 185.499 218.824 185.228 218.132L171.739 186.042C171.641 185.746 171.591 185.548 171.591 185.449C171.591 185.153 171.69 184.918 171.888 184.745C172.11 184.572 172.406 184.486 172.777 184.486L182.411 184.486C183.177 184.486 183.671 184.832 183.894 185.523L191.527 206.052L199.086 185.523C199.309 184.832 199.803 184.486 200.569 184.486L209.981 184.486C210.351 184.486 210.635 184.572 210.833 184.745C211.055 184.918 211.166 185.153 211.166 185.449C211.166 185.548 211.117 185.746 211.018 186.042L197.53 218.132C197.258 218.824 196.74 219.17 195.974 219.17L186.784 219.17ZM231.579 219.763C228.195 219.763 225.144 218.997 222.427 217.465C219.709 215.909 217.572 213.772 216.016 211.055C214.484 208.313 213.719 205.237 213.719 201.828C213.719 198.493 214.497 195.467 216.053 192.749C217.634 190.007 219.783 187.846 222.501 186.265C225.243 184.684 228.269 183.893 231.579 183.893C234.989 183.893 238.064 184.671 240.806 186.228C243.548 187.759 245.698 189.896 247.254 192.638C248.81 195.356 249.588 198.419 249.588 201.828C249.588 205.163 248.798 208.201 247.217 210.944C245.636 213.661 243.462 215.81 240.695 217.391C237.953 218.972 234.914 219.763 231.579 219.763ZM224.094 201.828C224.094 203.409 224.415 204.805 225.058 206.015C225.725 207.226 226.626 208.164 227.763 208.831C228.899 209.498 230.171 209.832 231.579 209.832C232.963 209.832 234.235 209.486 235.396 208.794C236.557 208.103 237.471 207.152 238.138 205.941C238.805 204.706 239.139 203.335 239.139 201.828C239.139 200.247 238.805 198.851 238.138 197.641C237.496 196.43 236.594 195.491 235.433 194.824C234.297 194.157 233.012 193.824 231.579 193.824C230.221 193.824 228.961 194.17 227.8 194.861C226.663 195.553 225.762 196.517 225.095 197.752C224.428 198.962 224.094 200.321 224.094 201.828ZM273.386 219.763C269.977 219.763 266.926 218.997 264.234 217.465C261.566 215.909 259.478 213.772 257.971 211.055C256.489 208.337 255.748 205.262 255.748 201.828C255.748 198.518 256.514 195.504 258.045 192.786C259.577 190.044 261.677 187.883 264.345 186.302C267.013 184.696 270.002 183.893 273.312 183.893C276.079 183.893 278.623 184.412 280.946 185.449C283.268 186.487 285.182 187.957 286.689 189.859C288.196 191.761 289.172 193.972 289.617 196.492C289.641 196.591 289.654 196.714 289.654 196.862C289.654 197.184 289.543 197.443 289.32 197.641C289.098 197.814 288.801 197.9 288.431 197.9L280.575 197.9C280.229 197.9 279.933 197.814 279.686 197.641C279.439 197.468 279.216 197.208 279.019 196.862C278.006 194.837 276.104 193.824 273.312 193.824C271.929 193.824 270.694 194.157 269.607 194.824C268.52 195.491 267.667 196.43 267.05 197.641C266.432 198.851 266.123 200.247 266.123 201.828C266.123 203.458 266.432 204.879 267.05 206.089C267.667 207.3 268.52 208.226 269.607 208.868C270.718 209.511 271.978 209.832 273.386 209.832C276.178 209.832 278.129 208.77 279.241 206.645C279.439 206.299 279.661 206.04 279.908 205.867C280.155 205.694 280.452 205.608 280.797 205.608L288.579 205.608C289.024 205.608 289.357 205.719 289.58 205.941C289.827 206.163 289.913 206.472 289.839 206.867C289.419 209.363 288.456 211.586 286.949 213.537C285.442 215.489 283.515 217.021 281.168 218.132C278.821 219.219 276.227 219.763 273.386 219.763ZM313.317 219.763C309.883 219.763 306.832 218.997 304.164 217.465C301.496 215.909 299.408 213.772 297.901 211.055C296.419 208.337 295.678 205.262 295.678 201.828C295.678 198.542 296.444 195.528 297.976 192.786C299.507 190.044 301.607 187.883 304.275 186.302C306.968 184.696 309.957 183.893 313.242 183.893C316.577 183.893 319.53 184.609 322.099 186.042C324.668 187.45 326.657 189.439 328.065 192.008C329.498 194.553 330.214 197.48 330.214 200.79C330.214 201.161 330.202 201.445 330.177 201.643L330.14 202.643C330.115 203.038 329.979 203.347 329.732 203.57C329.485 203.792 329.152 203.903 328.732 203.903L305.535 203.903C305.905 206.176 306.82 207.917 308.277 209.128C309.735 210.338 311.513 210.944 313.613 210.944C315.071 210.944 316.281 210.721 317.244 210.277C318.233 209.832 319.023 209.165 319.616 208.276C319.838 207.93 320.073 207.683 320.32 207.534C320.567 207.386 320.876 207.312 321.246 207.312L328.509 207.312C328.954 207.312 329.288 207.423 329.51 207.646C329.757 207.843 329.843 208.127 329.769 208.498C329.3 210.697 328.324 212.648 326.842 214.353C325.36 216.057 323.457 217.391 321.135 218.355C318.813 219.293 316.207 219.763 313.317 219.763ZM320.061 197.529C319.69 195.899 318.9 194.651 317.689 193.787C316.503 192.922 314.996 192.49 313.168 192.49C311.414 192.49 309.932 192.922 308.722 193.787C307.511 194.651 306.647 195.899 306.128 197.529L320.061 197.529ZM300.866 180.632C300.52 180.632 300.248 180.57 300.051 180.447C299.853 180.299 299.754 180.101 299.754 179.854C299.754 179.656 299.878 179.372 300.125 179.002L307.165 170.331C307.388 170.034 307.61 169.837 307.832 169.738C308.079 169.639 308.376 169.59 308.722 169.59L317.837 169.59C318.208 169.59 318.517 169.651 318.764 169.775C319.011 169.874 319.245 170.059 319.468 170.331L326.508 179.002C326.755 179.372 326.879 179.656 326.879 179.854C326.879 180.101 326.78 180.299 326.582 180.447C326.385 180.57 326.113 180.632 325.767 180.632L318.653 180.632C318.282 180.632 317.973 180.583 317.726 180.484C317.479 180.36 317.244 180.163 317.022 179.891L313.242 175.37L309.537 179.891C309.315 180.163 309.08 180.36 308.833 180.484C308.586 180.583 308.277 180.632 307.906 180.632L300.866 180.632Z" fill="white"/>
</svg>
