<svg width="1920" height="228" viewBox="0 0 1920 228" fill="none" xmlns="http://www.w3.org/2000/svg">
<rect x="-13.5508" y="51.2051" width="1974.42" height="176.431" transform="rotate(-1.48608 -13.5508 51.2051)" fill="#05A6FF"/>
<path d="M721.277 144.132C720.417 144.155 719.805 143.769 719.44 142.975L696.909 90.2221C696.785 89.8812 696.722 89.6534 696.719 89.5388C696.71 89.1949 696.818 88.9197 697.042 88.7131C697.294 88.5058 697.636 88.3966 698.065 88.3854L710.359 88.0665C711.248 88.0435 711.831 88.4298 712.11 89.2255L727.215 127.633L740.566 88.4873C740.803 87.6782 741.366 87.2621 742.255 87.2391L754.376 86.9246C754.806 86.9134 755.138 87.0052 755.373 87.1998C755.636 87.3937 755.772 87.6626 755.781 88.0065C755.784 88.1211 755.733 88.3519 755.627 88.6988L735.861 142.549C735.538 143.361 734.946 143.778 734.087 143.8L721.277 144.132ZM773.393 143.468C769.41 143.572 765.848 142.775 762.707 141.079C759.565 139.354 757.079 136.938 755.249 133.831C753.448 130.723 752.496 127.178 752.392 123.194C752.294 119.383 753.091 115.864 754.785 112.637C756.48 109.41 758.85 106.839 761.898 104.925C764.973 102.981 768.416 101.96 772.228 101.861C776.097 101.76 779.543 102.502 782.566 104.087C785.589 105.643 787.955 107.89 789.666 110.828C791.405 113.737 792.324 117.111 792.424 120.951C792.435 121.381 792.429 121.711 792.406 121.941L792.394 123.103C792.377 123.562 792.228 123.924 791.949 124.19C791.669 124.455 791.285 124.594 790.798 124.607L763.889 125.305C764.387 127.93 765.5 129.923 767.227 131.283C768.954 132.644 771.036 133.292 773.472 133.229C775.163 133.185 776.56 132.891 777.664 132.346C778.797 131.8 779.694 131.003 780.355 129.953C780.603 129.545 780.867 129.252 781.15 129.072C781.432 128.893 781.788 128.798 782.217 128.787L790.643 128.568C791.158 128.555 791.549 128.674 791.813 128.925C792.106 129.147 792.215 129.474 792.14 129.906C791.662 132.47 790.588 134.764 788.92 136.785C787.252 138.807 785.086 140.412 782.421 141.6C779.755 142.759 776.746 143.381 773.393 143.468ZM780.548 117.474C780.069 115.594 779.114 114.171 777.684 113.204C776.282 112.237 774.521 111.781 772.401 111.836C770.366 111.888 768.66 112.434 767.281 113.474C765.903 114.513 764.938 115.986 764.385 117.893L780.548 117.474ZM800.502 142.077C800.043 142.089 799.667 141.955 799.373 141.676C799.079 141.397 798.926 141.028 798.914 140.57L797.951 103.43C797.938 102.943 798.072 102.567 798.352 102.301C798.631 102.007 799 101.854 799.458 101.842L807.711 101.628C808.199 101.616 808.575 101.749 808.84 102.029C809.133 102.28 809.286 102.649 809.299 103.136L809.377 106.145C810.538 104.48 812.053 103.165 813.92 102.199C815.787 101.204 817.895 100.676 820.245 100.615C822.796 100.549 825.03 101.007 826.948 101.99C828.866 102.944 830.437 104.365 831.661 106.255C832.9 104.273 834.553 102.753 836.619 101.696C838.685 100.638 841.108 100.074 843.887 100.002C848.673 99.8775 852.306 101.203 854.787 103.977C857.296 106.722 858.623 110.889 858.768 116.477L859.352 139.002C859.364 139.46 859.23 139.836 858.951 140.13C858.701 140.424 858.332 140.577 857.845 140.589L848.904 140.821C848.445 140.833 848.069 140.7 847.775 140.42C847.481 140.141 847.328 139.772 847.316 139.314L846.794 119.197C846.729 116.675 846.235 114.781 845.313 113.514C844.42 112.247 842.985 111.639 841.008 111.69C838.916 111.744 837.314 112.474 836.204 113.88C835.121 115.255 834.611 117.161 834.674 119.597L835.194 139.628C835.206 140.087 835.072 140.463 834.793 140.757C834.543 141.05 834.174 141.203 833.687 141.216L824.66 141.45C824.201 141.462 823.825 141.328 823.531 141.049C823.237 140.77 823.084 140.401 823.072 139.943L822.55 119.826C822.484 117.275 822.005 115.381 821.112 114.142C820.219 112.875 818.798 112.266 816.85 112.317C814.729 112.372 813.113 113.102 812.003 114.507C810.892 115.884 810.367 117.79 810.431 120.226L810.95 140.257C810.962 140.716 810.829 141.092 810.549 141.386C810.299 141.679 809.93 141.832 809.443 141.845L800.502 142.077ZM883.207 156.449C882.749 156.461 882.372 156.327 882.078 156.048C881.785 155.798 881.632 155.429 881.62 154.942L880.228 101.296C880.215 100.808 880.349 100.432 880.629 100.167C880.908 99.8728 881.277 99.7199 881.735 99.708L890.074 99.4916C890.562 99.479 890.938 99.6126 891.203 99.8925C891.496 100.143 891.649 100.512 891.662 100.999L891.74 104.008C892.845 102.402 894.317 101.102 896.155 100.108C897.993 99.0855 900.258 98.5392 902.952 98.4693C906.42 98.3793 909.596 99.2146 912.48 100.975C915.364 102.707 917.65 105.142 919.337 108.282C921.052 111.392 921.961 114.895 922.062 118.793C922.161 122.633 921.407 126.165 919.799 129.39C918.219 132.614 916.02 135.18 913.202 137.088C910.384 138.997 907.27 139.995 903.86 140.084C901.567 140.143 899.508 139.81 897.683 139.083C895.886 138.355 894.383 137.347 893.174 136.06L893.656 154.629C893.668 155.116 893.535 155.493 893.255 155.758C893.004 156.051 892.635 156.204 892.148 156.217L883.207 156.449ZM892.574 119.558C892.622 121.42 893.037 123.044 893.818 124.429C894.629 125.813 895.703 126.875 897.041 127.614C898.379 128.325 899.864 128.66 901.498 128.617C903.016 128.578 904.425 128.154 905.723 127.346C907.05 126.537 908.096 125.421 908.862 123.996C909.628 122.571 909.987 120.941 909.94 119.107C909.893 117.302 909.464 115.707 908.654 114.323C907.844 112.939 906.77 111.877 905.432 111.137C904.093 110.369 902.621 110.006 901.016 110.047C899.354 110.091 897.874 110.516 896.575 111.324C895.277 112.103 894.273 113.205 893.564 114.628C892.855 116.052 892.525 117.695 892.574 119.558ZM930.046 138.716C929.588 138.728 929.212 138.594 928.918 138.315C928.624 138.036 928.471 137.667 928.459 137.209L927.495 100.069C927.483 99.5822 927.616 99.2059 927.896 98.9406C928.175 98.6466 928.544 98.4936 929.003 98.4817L937.256 98.2676C937.743 98.255 938.119 98.3886 938.384 98.6685C938.678 98.9189 938.831 99.2878 938.843 99.7749L938.921 102.784C940.025 101.121 941.411 99.8087 943.078 98.8478C944.744 97.8583 946.551 97.3382 948.5 97.2877C949.417 97.2639 950.45 97.2944 951.6 97.3793C952.521 97.5275 952.994 98.0887 953.02 99.0631L953.254 108.09C953.267 108.606 953.12 108.997 952.811 109.263C952.53 109.5 952.117 109.582 951.57 109.51C950.561 109.307 949.498 109.22 948.38 109.249C945.572 109.322 943.453 110.007 942.024 111.306C940.596 112.605 939.913 114.458 939.975 116.865L940.495 136.897C940.507 137.355 940.373 137.731 940.094 138.025C939.843 138.319 939.474 138.472 938.987 138.484L930.046 138.716ZM975.683 138.22C972.216 138.31 969.04 137.49 966.156 135.758C963.272 134.026 960.973 131.605 959.257 128.495C957.57 125.356 956.676 121.823 956.574 117.897C956.473 114.029 957.213 110.496 958.794 107.301C960.402 104.076 962.615 101.51 965.433 99.6013C968.251 97.6929 971.365 96.6945 974.776 96.606C977.212 96.5428 979.387 96.9309 981.301 97.7702C983.215 98.6095 984.779 99.759 985.993 101.219L985.924 98.5535C985.911 98.0664 986.045 97.6901 986.325 97.4248C986.604 97.1308 986.973 96.9778 987.431 96.9659L995.856 96.7473C996.344 96.7347 996.72 96.8683 996.985 97.1482C997.278 97.3987 997.431 97.7675 997.444 98.2547L998.408 135.394C998.419 135.853 998.286 136.229 998.007 136.523C997.756 136.816 997.387 136.969 996.9 136.982L988.475 137.2C988.017 137.212 987.64 137.079 987.346 136.8C987.052 136.52 986.899 136.152 986.887 135.693L986.814 132.856C985.708 134.462 984.222 135.748 982.354 136.714C980.515 137.651 978.291 138.153 975.683 138.22ZM968.61 117.585C968.656 119.362 969.084 120.956 969.895 122.369C970.734 123.753 971.823 124.828 973.162 125.597C974.5 126.336 975.957 126.685 977.534 126.645C979.196 126.601 980.676 126.19 981.975 125.411C983.302 124.602 984.32 123.501 985.029 122.106C985.767 120.681 986.111 119.024 986.062 117.132C986.013 115.27 985.584 113.646 984.774 112.262C983.993 110.877 982.919 109.83 981.552 109.119C980.214 108.38 978.714 108.032 977.052 108.075C975.504 108.115 974.082 108.539 972.783 109.347C971.485 110.126 970.452 111.228 969.686 112.653C968.92 114.078 968.561 115.722 968.61 117.585ZM1047.79 136.35C1042.54 136.486 1037.74 135.392 1033.38 133.067C1029.02 130.743 1025.53 127.421 1022.93 123.101C1020.35 118.781 1018.99 113.812 1018.84 108.195C1018.7 102.779 1019.83 97.8459 1022.24 93.396C1024.68 88.9453 1028.06 85.4165 1032.38 82.8096C1036.69 80.174 1041.51 78.7874 1046.81 78.6499C1051.16 78.5369 1055.18 79.2069 1058.86 80.66C1062.54 82.1131 1065.59 84.1846 1068.01 86.8748C1070.46 89.5355 1072.09 92.5903 1072.89 96.0392C1072.99 96.5528 1072.9 96.9566 1072.62 97.2506C1072.37 97.5439 1071.99 97.6972 1071.48 97.7106L1060.99 97.9827C1060.56 97.9938 1060.2 97.9171 1059.91 97.7526C1059.64 97.5587 1059.39 97.2498 1059.15 96.8259C1057.03 92.5221 1053.02 90.4467 1047.12 90.5999C1044.22 90.675 1041.63 91.4447 1039.35 92.9091C1037.06 94.3449 1035.28 96.3555 1034 98.9409C1032.75 101.526 1032.16 104.494 1032.25 107.847C1032.34 111.2 1033.06 114.121 1034.41 116.609C1035.8 119.068 1037.68 120.955 1040.07 122.269C1042.48 123.583 1045.24 124.2 1048.33 124.12C1051.68 124.033 1054.42 123.259 1056.53 121.799C1058.64 120.311 1060.05 118.252 1060.76 115.625L1048.89 115.932C1048.43 115.944 1048.06 115.811 1047.76 115.532C1047.47 115.252 1047.32 114.884 1047.3 114.425L1047.1 106.688C1047.09 106.2 1047.22 105.824 1047.5 105.559C1047.78 105.265 1048.15 105.112 1048.61 105.1L1072.68 104.476C1073.17 104.463 1073.55 104.582 1073.81 104.833C1074.1 105.084 1074.26 105.438 1074.27 105.897C1074.35 106.64 1074.4 107.786 1074.44 109.333C1074.58 114.434 1073.53 119.007 1071.32 123.05C1069.1 127.094 1065.94 130.287 1061.84 132.63C1057.77 134.972 1053.09 136.212 1047.79 136.35ZM1083.18 134.743C1082.72 134.755 1082.35 134.622 1082.05 134.343C1081.76 134.063 1081.61 133.695 1081.59 133.236L1080.21 80.02C1080.2 79.5328 1080.34 79.1566 1080.61 78.8912C1080.89 78.5972 1081.26 78.4443 1081.72 78.4324L1090.66 78.2004C1091.15 78.1878 1091.53 78.3214 1091.79 78.6013C1092.08 78.8517 1092.24 79.2206 1092.25 79.7077L1093.63 132.924C1093.64 133.382 1093.51 133.759 1093.23 134.053C1092.98 134.346 1092.61 134.499 1092.12 134.511L1083.18 134.743ZM1120.39 134.466C1116.46 134.568 1112.9 133.772 1109.7 132.077C1106.5 130.353 1103.96 127.939 1102.07 124.833C1100.21 121.698 1099.23 118.154 1099.13 114.199C1099.03 110.33 1099.84 106.796 1101.57 103.597C1103.32 100.369 1105.75 97.7965 1108.85 95.8807C1111.98 93.9641 1115.47 92.956 1119.31 92.8564C1123.27 92.7538 1126.86 93.5639 1130.08 95.2868C1133.31 96.981 1135.87 99.3952 1137.76 102.529C1139.64 105.635 1140.64 109.165 1140.74 113.119C1140.84 116.988 1140.02 120.537 1138.26 123.765C1136.51 126.965 1134.06 129.524 1130.89 131.441C1127.76 133.358 1124.26 134.366 1120.39 134.466ZM1111.17 113.887C1111.21 115.721 1111.63 117.33 1112.41 118.715C1113.22 120.099 1114.3 121.161 1115.63 121.901C1116.97 122.64 1118.46 122.989 1120.09 122.946C1121.7 122.905 1123.16 122.465 1124.49 121.628C1125.81 120.79 1126.85 119.66 1127.58 118.235C1128.32 116.782 1128.66 115.182 1128.62 113.434C1128.57 111.6 1128.14 109.991 1127.33 108.607C1126.55 107.222 1125.48 106.16 1124.11 105.421C1122.77 104.682 1121.27 104.333 1119.61 104.377C1118.03 104.417 1116.58 104.857 1115.26 105.694C1113.96 106.53 1112.94 107.675 1112.21 109.128C1111.47 110.552 1111.12 112.139 1111.17 113.887ZM1169.83 133.184C1167.31 133.249 1165.09 132.862 1163.18 132.023C1161.26 131.155 1159.71 129.976 1158.53 128.487L1158.6 131.238C1158.61 131.697 1158.48 132.073 1158.2 132.367C1157.95 132.66 1157.58 132.813 1157.09 132.826L1148.75 133.042C1148.29 133.054 1147.92 132.921 1147.62 132.641C1147.33 132.362 1147.18 131.994 1147.16 131.535L1145.78 78.3189C1145.77 77.8318 1145.9 77.4555 1146.18 77.1902C1146.46 76.8961 1146.83 76.7432 1147.29 76.7313L1156.23 76.4993C1156.72 76.4867 1157.1 76.6203 1157.36 76.9002C1157.65 77.1507 1157.81 77.5195 1157.82 78.0067L1158.29 96.3185C1159.41 94.9132 1160.84 93.7864 1162.59 92.9379C1164.38 92.0886 1166.49 91.6324 1168.93 91.5692C1172.39 91.4793 1175.57 92.3145 1178.45 94.075C1181.34 95.8068 1183.62 98.2423 1185.31 101.382C1187.03 104.492 1187.93 107.995 1188.03 111.892C1188.13 115.733 1187.38 119.265 1185.77 122.49C1184.19 125.714 1181.99 128.28 1179.18 130.188C1176.36 132.097 1173.24 133.095 1169.83 133.184ZM1158.55 112.657C1158.59 114.52 1159.01 116.144 1159.79 117.529C1160.6 118.913 1161.68 119.975 1163.01 120.714C1164.35 121.425 1165.84 121.759 1167.47 121.717C1168.99 121.678 1170.4 121.254 1171.7 120.446C1173.02 119.637 1174.07 118.521 1174.84 117.096C1175.6 115.671 1175.96 114.041 1175.91 112.207C1175.87 110.402 1175.44 108.807 1174.63 107.423C1173.82 106.039 1172.74 104.977 1171.4 104.237C1170.07 103.469 1168.59 103.106 1166.99 103.147C1165.33 103.19 1163.85 103.616 1162.55 104.424C1161.25 105.203 1160.25 106.305 1159.54 107.728C1158.83 109.152 1158.5 110.795 1158.55 112.657ZM1213.83 132.042C1209.91 132.144 1206.34 131.348 1203.15 129.653C1199.95 127.929 1197.4 125.514 1195.52 122.409C1193.66 119.274 1192.68 115.729 1192.57 111.775C1192.47 107.906 1193.29 104.372 1195.01 101.173C1196.76 97.9445 1199.19 95.3723 1202.29 93.4565C1205.43 91.5399 1208.91 90.5318 1212.75 90.4322C1216.71 90.3296 1220.3 91.1397 1223.53 92.8626C1226.75 94.5568 1229.31 96.971 1231.2 100.105C1233.09 103.211 1234.08 106.741 1234.18 110.695C1234.28 114.564 1233.46 118.113 1231.71 121.341C1229.96 124.541 1227.5 127.099 1224.34 129.017C1221.2 130.933 1217.7 131.942 1213.83 132.042ZM1204.61 111.462C1204.66 113.297 1205.07 114.906 1205.85 116.291C1206.66 117.675 1207.74 118.737 1209.08 119.476C1210.41 120.216 1211.9 120.564 1213.53 120.522C1215.14 120.48 1216.6 120.041 1217.93 119.204C1219.26 118.366 1220.29 117.235 1221.03 115.811C1221.76 114.358 1222.11 112.758 1222.06 111.01C1222.01 109.176 1221.59 107.567 1220.78 106.182C1219.99 104.798 1218.92 103.736 1217.55 102.997C1216.21 102.257 1214.71 101.909 1213.05 101.952C1211.48 101.993 1210.03 102.432 1208.7 103.27C1207.4 104.106 1206.38 105.251 1205.65 106.704C1204.91 108.128 1204.56 109.714 1204.61 111.462Z" fill="white"/>
<path d="M-8.40664 161.197C-9.26635 161.219 -9.87855 160.833 -10.2433 160.04L-32.7749 107.287C-32.8985 106.946 -32.9618 106.718 -32.9647 106.603C-32.9736 106.259 -32.8661 105.984 -32.642 105.778C-32.3893 105.57 -32.048 105.461 -31.6182 105.45L-19.3243 105.131C-18.4359 105.108 -17.8524 105.494 -17.5737 106.29L-2.46854 144.697L10.8828 105.552C11.1199 104.743 11.6826 104.327 12.571 104.304L24.6929 103.989C25.1227 103.978 25.4549 104.07 25.6893 104.264C25.9525 104.458 26.0885 104.727 26.0974 105.071C26.1004 105.186 26.049 105.416 25.9433 105.763L6.17722 159.614C5.85415 160.425 5.26277 160.842 4.40306 160.864L-8.40664 161.197ZM43.7097 160.533C39.7264 160.636 36.1642 159.84 33.0231 158.143C29.8813 156.418 27.3955 154.002 25.5656 150.895C23.7644 147.788 22.8122 144.242 22.7088 140.259C22.6099 136.447 23.4076 132.928 25.1018 129.701C26.796 126.474 29.1668 123.903 32.2142 121.989C35.2895 120.045 38.7328 119.024 42.5442 118.925C46.4129 118.825 49.859 119.567 52.8825 121.152C55.9052 122.708 58.2719 124.955 59.9827 127.893C61.7213 130.801 62.6405 134.176 62.7401 138.016C62.7513 138.446 62.7455 138.776 62.7228 139.006L62.7099 140.167C62.6931 140.627 62.5448 140.989 62.2649 141.254C61.9851 141.52 61.6015 141.659 61.1144 141.671L34.2054 142.369C34.7037 144.995 35.8164 146.987 37.5436 148.348C39.2708 149.708 41.3523 150.357 43.7882 150.293C45.4789 150.25 46.8764 149.955 47.9807 149.41C49.1136 148.865 50.0105 148.067 50.6715 147.018C50.919 146.61 51.1838 146.316 51.4659 146.137C51.7481 145.958 52.104 145.862 52.5339 145.851L60.9591 145.633C61.4749 145.619 61.8651 145.738 62.1297 145.989C62.4222 146.211 62.5311 146.538 62.4562 146.97C61.9779 149.535 60.9047 151.828 59.2366 153.85C57.5685 155.872 55.402 157.477 52.7373 158.664C50.0717 159.823 47.0625 160.446 43.7097 160.533ZM50.8639 134.539C50.385 132.658 49.4305 131.235 48.0002 130.268C46.5987 129.301 44.8376 128.845 42.717 128.9C40.6823 128.953 38.9759 129.499 37.5977 130.538C36.2196 131.578 35.2541 133.051 34.7014 134.958L50.8639 134.539ZM70.8184 159.141C70.3599 159.153 69.9836 159.02 69.6896 158.741C69.3956 158.461 69.2427 158.093 69.2308 157.634L68.2673 120.495C68.2546 120.007 68.3883 119.631 68.6681 119.366C68.9473 119.072 69.3161 118.919 69.7746 118.907L78.0278 118.693C78.515 118.68 78.8913 118.814 79.1566 119.094C79.4499 119.344 79.6028 119.713 79.6155 120.2L79.6935 123.209C80.8547 121.544 82.3691 120.229 84.2367 119.263C86.1035 118.268 88.2119 117.74 90.5618 117.679C93.1122 117.613 95.3465 118.071 97.2647 119.054C99.182 120.008 100.753 121.43 101.978 123.319C103.217 121.337 104.869 119.817 106.935 118.76C109.001 117.703 111.424 117.138 114.204 117.066C118.99 116.942 122.623 118.267 125.104 121.042C127.612 123.787 128.939 127.954 129.084 133.542L129.668 156.066C129.68 156.525 129.547 156.901 129.268 157.195C129.017 157.488 128.648 157.641 128.161 157.654L119.22 157.886C118.762 157.898 118.385 157.764 118.091 157.485C117.797 157.206 117.644 156.837 117.632 156.378L117.111 136.261C117.045 133.739 116.552 131.845 115.63 130.579C114.737 129.311 113.301 128.703 111.324 128.755C109.232 128.809 107.631 129.539 106.52 130.944C105.437 132.32 104.928 134.226 104.991 136.662L105.511 156.693C105.522 157.151 105.389 157.528 105.11 157.822C104.859 158.115 104.49 158.268 104.003 158.28L94.9763 158.515C94.5178 158.527 94.1415 158.393 93.8475 158.114C93.5535 157.835 93.4005 157.466 93.3886 157.007L92.8667 136.89C92.8006 134.34 92.3213 132.445 91.4289 131.206C90.5357 129.939 89.1148 129.331 87.1661 129.381C85.0455 129.436 83.4299 130.167 82.3193 131.572C81.2079 132.948 80.6839 134.855 80.7471 137.291L81.2667 157.322C81.2786 157.78 81.145 158.157 80.8659 158.451C80.6154 158.744 80.2466 158.897 79.7594 158.909L70.8184 159.141ZM153.524 173.513C153.065 173.525 152.689 173.392 152.395 173.112C152.102 172.862 151.949 172.493 151.936 172.006L150.544 118.36C150.532 117.873 150.665 117.497 150.945 117.231C151.224 116.937 151.593 116.784 152.052 116.772L160.391 116.556C160.878 116.543 161.254 116.677 161.52 116.957C161.813 117.207 161.966 117.576 161.978 118.063L162.056 121.072C163.162 119.467 164.634 118.167 166.472 117.173C168.309 116.15 170.575 115.604 173.269 115.534C176.736 115.444 179.912 116.279 182.797 118.039C185.681 119.771 187.966 122.207 189.654 125.346C191.369 128.456 192.277 131.96 192.378 135.857C192.478 139.697 191.723 143.229 190.115 146.454C188.536 149.678 186.337 152.245 183.519 154.153C180.7 156.061 177.586 157.06 174.176 157.148C171.884 157.208 169.825 156.874 167.999 156.147C166.202 155.419 164.699 154.412 163.49 153.124L163.972 171.694C163.985 172.181 163.851 172.557 163.571 172.823C163.321 173.116 162.952 173.269 162.465 173.281L153.524 173.513ZM162.89 136.622C162.938 138.485 163.353 140.108 164.135 141.493C164.945 142.877 166.019 143.939 167.357 144.679C168.695 145.39 170.181 145.724 171.814 145.682C173.333 145.642 174.741 145.219 176.039 144.411C177.366 143.602 178.413 142.485 179.179 141.06C179.945 139.635 180.304 138.006 180.256 136.171C180.209 134.366 179.781 132.771 178.971 131.387C178.161 130.003 177.086 128.941 175.748 128.202C174.409 127.434 172.937 127.07 171.332 127.112C169.67 127.155 168.19 127.581 166.892 128.388C165.593 129.168 164.589 130.269 163.881 131.693C163.172 133.116 162.842 134.759 162.89 136.622ZM200.363 155.781C199.904 155.793 199.528 155.659 199.234 155.38C198.94 155.101 198.787 154.732 198.775 154.273L197.812 117.134C197.799 116.647 197.933 116.27 198.212 116.005C198.492 115.711 198.86 115.558 199.319 115.546L207.572 115.332C208.059 115.319 208.436 115.453 208.701 115.733C208.994 115.983 209.147 116.352 209.16 116.839L209.238 119.848C210.342 118.185 211.727 116.873 213.394 115.912C215.06 114.923 216.868 114.403 218.816 114.352C219.734 114.328 220.767 114.359 221.916 114.444C222.837 114.592 223.311 115.153 223.336 116.128L223.57 125.154C223.584 125.67 223.436 126.061 223.128 126.327C222.847 126.564 222.433 126.646 221.887 126.575C220.878 126.371 219.814 126.284 218.697 126.313C215.888 126.386 213.77 127.072 212.341 128.371C210.912 129.67 210.229 131.523 210.291 133.93L210.811 153.961C210.823 154.42 210.689 154.796 210.41 155.09C210.16 155.383 209.791 155.536 209.304 155.549L200.363 155.781ZM246 155.285C242.532 155.375 239.356 154.554 236.473 152.822C233.589 151.09 231.289 148.67 229.574 145.56C227.887 142.42 226.992 138.888 226.89 134.962C226.79 131.093 227.53 127.561 229.11 124.366C230.718 121.141 232.931 118.574 235.75 116.666C238.568 114.757 241.682 113.759 245.092 113.67C247.528 113.607 249.703 113.995 251.617 114.835C253.532 115.674 255.096 116.823 256.309 118.283L256.24 115.618C256.228 115.131 256.361 114.755 256.641 114.489C256.92 114.195 257.289 114.042 257.748 114.03L266.173 113.812C266.66 113.799 267.036 113.933 267.302 114.213C267.595 114.463 267.748 114.832 267.76 115.319L268.724 152.459C268.736 152.917 268.602 153.293 268.323 153.587C268.073 153.881 267.704 154.034 267.217 154.046L258.791 154.265C258.333 154.277 257.957 154.143 257.663 153.864C257.369 153.585 257.216 153.216 257.204 152.757L257.13 149.92C256.025 151.526 254.538 152.812 252.671 153.778C250.831 154.715 248.607 155.217 246 155.285ZM238.926 134.649C238.972 136.426 239.401 138.021 240.212 139.434C241.05 140.817 242.139 141.893 243.478 142.661C244.817 143.401 246.274 143.75 247.85 143.709C249.512 143.666 250.993 143.255 252.292 142.475C253.618 141.667 254.636 140.565 255.346 139.17C256.083 137.746 256.427 136.088 256.378 134.197C256.33 132.334 255.901 130.711 255.09 129.326C254.309 127.942 253.235 126.894 251.869 126.184C250.531 125.444 249.03 125.096 247.368 125.139C245.821 125.179 244.398 125.603 243.1 126.411C241.801 127.191 240.769 128.293 240.003 129.718C239.237 131.143 238.878 132.787 238.926 134.649ZM318.104 153.414C312.86 153.55 308.057 152.456 303.695 150.132C299.333 147.808 295.849 144.485 293.242 140.166C290.664 135.845 289.302 130.876 289.156 125.26C289.015 119.843 290.149 114.91 292.557 110.46C294.994 106.01 298.372 102.481 302.692 99.874C307.011 97.2385 311.822 95.8519 317.123 95.7144C321.479 95.6014 325.497 96.2714 329.176 97.7245C332.856 99.1775 335.906 101.249 338.328 103.939C340.777 106.6 342.404 109.655 343.211 113.104C343.31 113.617 343.22 114.021 342.941 114.315C342.691 114.608 342.308 114.762 341.792 114.775L331.303 115.047C330.873 115.058 330.513 114.982 330.222 114.817C329.959 114.623 329.707 114.314 329.467 113.89C327.348 109.587 323.336 107.511 317.433 107.664C314.539 107.739 311.949 108.509 309.664 109.974C307.379 111.409 305.596 113.42 304.315 116.005C303.063 118.59 302.48 121.559 302.567 124.912C302.654 128.265 303.375 131.185 304.73 133.674C306.113 136.132 307.998 138.019 310.383 139.334C312.797 140.648 315.552 141.264 318.647 141.184C322 141.097 324.733 140.324 326.845 138.864C328.958 137.375 330.367 135.317 331.073 132.689L319.209 132.997C318.75 133.009 318.374 132.875 318.08 132.596C317.786 132.317 317.633 131.948 317.621 131.489L317.42 123.752C317.408 123.265 317.541 122.889 317.821 122.623C318.1 122.329 318.469 122.176 318.928 122.164L343 121.54C343.487 121.527 343.863 121.647 344.127 121.898C344.42 122.148 344.573 122.503 344.585 122.961C344.662 123.705 344.72 124.85 344.76 126.398C344.892 131.499 343.85 136.071 341.632 140.115C339.414 144.158 336.256 147.352 332.159 149.695C328.09 152.037 323.405 153.277 318.104 153.414ZM353.499 151.808C353.04 151.82 352.664 151.686 352.37 151.407C352.076 151.128 351.923 150.759 351.911 150.301L350.53 97.0844C350.518 96.5973 350.651 96.221 350.931 95.9557C351.21 95.6617 351.579 95.5087 352.038 95.4968L360.979 95.2649C361.466 95.2522 361.842 95.3858 362.108 95.6657C362.401 95.9162 362.554 96.285 362.566 96.7722L363.947 149.988C363.959 150.447 363.825 150.823 363.546 151.117C363.296 151.41 362.927 151.563 362.44 151.576L353.499 151.808ZM390.706 151.531C386.78 151.633 383.218 150.836 380.02 149.141C376.821 147.418 374.278 145.003 372.39 141.898C370.531 138.763 369.55 135.218 369.448 131.263C369.347 127.395 370.159 123.861 371.883 120.662C373.634 117.433 376.062 114.861 379.167 112.945C382.3 111.029 385.787 110.02 389.627 109.921C393.582 109.818 397.173 110.628 400.401 112.351C403.628 114.045 406.185 116.46 408.073 119.594C409.96 122.699 410.955 126.229 411.058 130.184C411.158 134.053 410.332 137.601 408.581 140.83C406.829 144.03 404.371 146.588 401.209 148.505C398.076 150.422 394.575 151.43 390.706 151.531ZM381.484 130.951C381.531 132.785 381.946 134.395 382.727 135.779C383.537 137.164 384.612 138.225 385.95 138.965C387.288 139.704 388.774 140.053 390.408 140.011C392.012 139.969 393.478 139.53 394.804 138.692C396.13 137.855 397.162 136.724 397.899 135.3C398.635 133.847 398.981 132.246 398.936 130.498C398.888 128.664 398.459 127.055 397.649 125.671C396.868 124.286 395.793 123.224 394.426 122.486C393.088 121.746 391.588 121.398 389.926 121.441C388.35 121.482 386.899 121.921 385.572 122.758C384.275 123.595 383.258 124.74 382.522 126.193C381.784 127.617 381.438 129.203 381.484 130.951ZM440.149 150.248C437.627 150.314 435.409 149.927 433.495 149.087C431.58 148.219 430.029 147.041 428.844 145.552L428.915 148.303C428.927 148.761 428.793 149.138 428.514 149.432C428.264 149.725 427.895 149.878 427.408 149.89L419.068 150.107C418.61 150.119 418.234 149.985 417.94 149.706C417.646 149.427 417.493 149.058 417.481 148.599L416.1 95.3834C416.088 94.8962 416.221 94.52 416.501 94.2546C416.78 93.9606 417.149 93.8076 417.608 93.7958L426.549 93.5638C427.036 93.5512 427.412 93.6848 427.677 93.9647C427.971 94.2151 428.124 94.584 428.136 95.0711L428.611 113.383C429.722 111.978 431.155 110.851 432.911 110.002C434.696 109.153 436.806 108.697 439.242 108.634C442.709 108.544 445.885 109.379 448.77 111.139C451.654 112.871 453.939 115.307 455.627 118.446C457.342 121.556 458.25 125.06 458.351 128.957C458.451 132.797 457.696 136.329 456.088 139.554C454.509 142.778 452.31 145.344 449.492 147.253C446.674 149.161 443.559 150.16 440.149 150.248ZM428.863 129.722C428.911 131.585 429.326 133.208 430.108 134.593C430.918 135.977 431.992 137.039 433.33 137.779C434.668 138.49 436.154 138.824 437.787 138.782C439.306 138.742 440.714 138.318 442.012 137.511C443.339 136.702 444.386 135.585 445.152 134.16C445.918 132.735 446.277 131.105 446.229 129.271C446.182 127.466 445.754 125.871 444.944 124.487C444.134 123.103 443.059 122.041 441.721 121.302C440.382 120.533 438.91 120.17 437.305 120.212C435.643 120.255 434.163 120.68 432.865 121.488C431.566 122.268 430.562 123.369 429.854 124.793C429.145 126.216 428.815 127.859 428.863 129.722ZM484.15 149.107C480.224 149.209 476.661 148.412 473.463 146.717C470.264 144.993 467.721 142.579 465.834 139.473C463.974 136.339 462.993 132.794 462.891 128.839C462.79 124.97 463.602 121.437 465.326 118.237C467.077 115.009 469.505 112.437 472.61 110.521C475.743 108.604 479.23 107.596 483.07 107.497C487.025 107.394 490.616 108.204 493.844 109.927C497.071 111.621 499.628 114.035 501.516 117.17C503.403 120.275 504.398 123.805 504.501 127.76C504.601 131.628 503.776 135.177 502.024 138.406C500.272 141.605 497.815 144.164 494.653 146.081C491.519 147.998 488.018 149.006 484.15 149.107ZM474.927 128.527C474.974 130.361 475.389 131.97 476.17 133.355C476.981 134.739 478.055 135.801 479.393 136.541C480.731 137.28 482.217 137.629 483.851 137.587C485.455 137.545 486.921 137.105 488.247 136.268C489.573 135.431 490.605 134.3 491.342 132.876C492.079 131.423 492.424 129.822 492.379 128.074C492.331 126.24 491.902 124.631 491.092 123.247C490.311 121.862 489.237 120.8 487.87 120.061C486.531 119.322 485.031 118.974 483.369 119.017C481.793 119.058 480.342 119.497 479.016 120.334C477.718 121.171 476.701 122.315 475.965 123.768C475.227 125.193 474.881 126.779 474.927 128.527Z" fill="white"/>
<path d="M1430.6 127.067C1429.74 127.089 1429.13 126.704 1428.76 125.91L1406.23 73.1566C1406.11 72.8157 1406.04 72.588 1406.04 72.4733C1406.03 72.1294 1406.14 71.8542 1406.36 71.6477C1406.61 71.4404 1406.96 71.3312 1407.39 71.32L1419.68 71.0011C1420.57 70.978 1421.15 71.3644 1421.43 72.1601L1436.54 110.567L1449.89 71.4218C1450.12 70.6127 1450.69 70.1967 1451.57 70.1736L1463.7 69.8592C1464.13 69.848 1464.46 69.9398 1464.69 70.1344C1464.96 70.3283 1465.09 70.5972 1465.1 70.9411C1465.1 71.0557 1465.05 71.2865 1464.95 71.6333L1445.18 125.484C1444.86 126.295 1444.27 126.712 1443.41 126.734L1430.6 127.067ZM1482.71 126.403C1478.73 126.506 1475.17 125.71 1472.03 124.013C1468.89 122.288 1466.4 119.872 1464.57 116.765C1462.77 113.658 1461.82 110.112 1461.71 106.129C1461.61 102.317 1462.41 98.7982 1464.11 95.5712C1465.8 92.3442 1468.17 89.7735 1471.22 87.8592C1474.29 85.9154 1477.74 84.8941 1481.55 84.7952C1485.42 84.6949 1488.86 85.4371 1491.89 87.0219C1494.91 88.578 1497.28 90.825 1498.99 93.763C1500.73 96.6715 1501.64 100.046 1501.74 103.886C1501.76 104.316 1501.75 104.646 1501.73 104.876L1501.71 106.037C1501.7 106.497 1501.55 106.859 1501.27 107.124C1500.99 107.39 1500.61 107.529 1500.12 107.541L1473.21 108.239C1473.71 110.865 1474.82 112.857 1476.55 114.218C1478.27 115.578 1480.36 116.227 1482.79 116.164C1484.48 116.12 1485.88 115.825 1486.98 115.28C1488.12 114.735 1489.01 113.937 1489.68 112.888C1489.92 112.48 1490.19 112.186 1490.47 112.007C1490.75 111.828 1491.11 111.732 1491.54 111.721L1499.96 111.503C1500.48 111.489 1500.87 111.608 1501.13 111.859C1501.43 112.081 1501.53 112.408 1501.46 112.84C1500.98 115.405 1499.91 117.698 1498.24 119.72C1496.57 121.742 1494.41 123.347 1491.74 124.534C1489.08 125.693 1486.07 126.316 1482.71 126.403ZM1489.87 100.409C1489.39 98.5285 1488.43 97.1051 1487 96.1385C1485.6 95.1712 1483.84 94.7151 1481.72 94.7701C1479.69 94.8229 1477.98 95.369 1476.6 96.4084C1475.22 97.4478 1474.26 98.921 1473.71 100.828L1489.87 100.409ZM1509.82 125.011C1509.36 125.023 1508.99 124.89 1508.69 124.611C1508.4 124.331 1508.25 123.963 1508.23 123.504L1507.27 86.3646C1507.26 85.8775 1507.39 85.5012 1507.67 85.2359C1507.95 84.9419 1508.32 84.7889 1508.78 84.777L1517.03 84.5629C1517.52 84.5503 1517.9 84.6839 1518.16 84.9638C1518.45 85.2142 1518.61 85.5831 1518.62 86.0702L1518.7 89.0792C1519.86 87.4146 1521.37 86.0992 1523.24 85.1331C1525.11 84.1383 1527.22 83.6105 1529.57 83.5495C1532.12 83.4833 1534.35 83.9416 1536.27 84.9241C1538.19 85.8781 1539.76 87.2998 1540.98 89.1893C1542.22 87.2072 1543.87 85.6875 1545.94 84.6302C1548.01 83.573 1550.43 83.0083 1553.21 82.9362C1557.99 82.812 1561.63 84.1372 1564.11 86.9118C1566.62 89.657 1567.94 93.8237 1568.09 99.4118L1568.67 121.936C1568.68 122.395 1568.55 122.771 1568.27 123.065C1568.02 123.358 1567.65 123.511 1567.17 123.524L1558.22 123.756C1557.77 123.768 1557.39 123.634 1557.1 123.355C1556.8 123.076 1556.65 122.707 1556.64 122.248L1556.11 102.131C1556.05 99.6094 1555.56 97.7153 1554.63 96.4487C1553.74 95.1815 1552.31 94.5735 1550.33 94.6248C1548.24 94.6791 1546.63 95.4088 1545.52 96.8141C1544.44 98.19 1543.93 100.096 1543.99 102.532L1544.51 122.563C1544.53 123.021 1544.39 123.398 1544.11 123.692C1543.86 123.985 1543.49 124.138 1543.01 124.151L1533.98 124.385C1533.52 124.397 1533.15 124.263 1532.85 123.984C1532.56 123.705 1532.4 123.336 1532.39 122.877L1531.87 102.76C1531.8 100.21 1531.33 98.3152 1530.43 97.0766C1529.54 95.8093 1528.12 95.201 1526.17 95.2515C1524.05 95.3065 1522.43 96.0367 1521.32 97.4419C1520.21 98.8186 1519.69 100.725 1519.75 103.161L1520.27 123.192C1520.28 123.65 1520.15 124.027 1519.87 124.321C1519.62 124.614 1519.25 124.767 1518.76 124.78L1509.82 125.011ZM1592.53 139.383C1592.07 139.395 1591.69 139.262 1591.4 138.983C1591.11 138.732 1590.95 138.363 1590.94 137.876L1589.55 84.2302C1589.54 83.743 1589.67 83.3667 1589.95 83.1014C1590.23 82.8074 1590.6 82.6544 1591.06 82.6425L1599.39 82.4262C1599.88 82.4136 1600.26 82.5472 1600.52 82.827C1600.82 83.0775 1600.97 83.4464 1600.98 83.9335L1601.06 86.9425C1602.17 85.3366 1603.64 84.0367 1605.48 83.0427C1607.31 82.02 1609.58 81.4738 1612.27 81.4039C1615.74 81.3139 1618.92 82.1492 1621.8 83.9096C1624.68 85.6414 1626.97 88.0769 1628.66 91.2162C1630.37 94.3261 1631.28 97.8298 1631.38 101.727C1631.48 105.567 1630.73 109.1 1629.12 112.324C1627.54 115.548 1625.34 118.115 1622.52 120.023C1619.7 121.931 1616.59 122.93 1613.18 123.018C1610.89 123.078 1608.83 122.744 1607 122.017C1605.21 121.29 1603.7 120.282 1602.49 118.994L1602.98 137.564C1602.99 138.051 1602.85 138.427 1602.57 138.693C1602.32 138.986 1601.96 139.139 1601.47 139.151L1592.53 139.383ZM1601.89 102.492C1601.94 104.355 1602.36 105.979 1603.14 107.363C1603.95 108.748 1605.02 109.809 1606.36 110.549C1607.7 111.26 1609.18 111.594 1610.82 111.552C1612.34 111.512 1613.75 111.089 1615.04 110.281C1616.37 109.472 1617.42 108.355 1618.18 106.93C1618.95 105.505 1619.31 103.876 1619.26 102.042C1619.21 100.236 1618.78 98.6414 1617.97 97.2573C1617.16 95.8732 1616.09 94.8114 1614.75 94.0718C1613.41 93.3036 1611.94 92.9404 1610.34 92.982C1608.67 93.0251 1607.19 93.4506 1605.9 94.2586C1604.6 95.0379 1603.59 96.1393 1602.88 97.5628C1602.18 98.9863 1601.85 100.629 1601.89 102.492ZM1639.37 121.651C1638.91 121.663 1638.53 121.529 1638.24 121.25C1637.94 120.971 1637.79 120.602 1637.78 120.143L1636.82 83.0039C1636.8 82.5167 1636.94 82.1405 1637.22 81.8751C1637.5 81.5811 1637.86 81.4282 1638.32 81.4163L1646.58 81.2022C1647.06 81.1895 1647.44 81.3232 1647.7 81.603C1648 81.8535 1648.15 82.2223 1648.16 82.7095L1648.24 85.7185C1649.35 84.0553 1650.73 82.7433 1652.4 81.7824C1654.06 80.7928 1655.87 80.2728 1657.82 80.2222C1658.74 80.1984 1659.77 80.229 1660.92 80.3139C1661.84 80.462 1662.31 81.0233 1662.34 81.9976L1662.57 91.0246C1662.59 91.5404 1662.44 91.9314 1662.13 92.1975C1661.85 92.4342 1661.44 92.5166 1660.89 92.4447C1659.88 92.2415 1658.82 92.1544 1657.7 92.1834C1654.89 92.2562 1652.77 92.9421 1651.34 94.2409C1649.92 95.5397 1649.23 97.3927 1649.3 99.7999L1649.81 119.831C1649.83 120.29 1649.69 120.666 1649.41 120.96C1649.16 121.253 1648.79 121.406 1648.31 121.419L1639.37 121.651ZM1685 121.155C1681.54 121.245 1678.36 120.424 1675.48 118.692C1672.59 116.96 1670.29 114.54 1668.58 111.43C1666.89 108.29 1666 104.758 1665.89 100.832C1665.79 96.9631 1666.53 93.431 1668.11 90.2356C1669.72 87.0109 1671.94 84.4443 1674.75 82.5359C1677.57 80.6275 1680.69 79.629 1684.1 79.5406C1686.53 79.4774 1688.71 79.8654 1690.62 80.7047C1692.54 81.544 1694.1 82.6935 1695.31 84.1532L1695.24 81.4881C1695.23 81.0009 1695.37 80.6247 1695.65 80.3593C1695.92 80.0653 1696.29 79.9124 1696.75 79.9005L1705.18 79.6819C1705.66 79.6693 1706.04 79.8029 1706.31 80.0828C1706.6 80.3333 1706.75 80.7021 1706.76 81.1892L1707.73 118.329C1707.74 118.787 1707.61 119.164 1707.33 119.458C1707.08 119.751 1706.71 119.904 1706.22 119.916L1697.8 120.135C1697.34 120.147 1696.96 120.013 1696.67 119.734C1696.37 119.455 1696.22 119.086 1696.21 118.628L1696.13 115.791C1695.03 117.396 1693.54 118.682 1691.67 119.649C1689.84 120.585 1687.61 121.087 1685 121.155ZM1677.93 100.52C1677.98 102.296 1678.4 103.891 1679.22 105.304C1680.05 106.687 1681.14 107.763 1682.48 108.531C1683.82 109.271 1685.28 109.62 1686.85 109.579C1688.52 109.536 1690 109.125 1691.3 108.346C1692.62 107.537 1693.64 106.435 1694.35 105.04C1695.09 103.616 1695.43 101.958 1695.38 100.067C1695.33 98.2041 1694.9 96.5807 1694.09 95.1965C1693.31 93.8117 1692.24 92.7642 1690.87 92.054C1689.53 91.3145 1688.03 90.9663 1686.37 91.0094C1684.82 91.0495 1683.4 91.4736 1682.1 92.2815C1680.8 93.0608 1679.77 94.163 1679.01 95.588C1678.24 97.013 1677.88 98.6568 1677.93 100.52ZM1757.11 119.284C1751.86 119.421 1747.06 118.326 1742.7 116.002C1738.34 113.678 1734.85 110.356 1732.25 106.036C1729.67 101.715 1728.31 96.7465 1728.16 91.1297C1728.02 85.7135 1729.15 80.7805 1731.56 76.3305C1734 71.8798 1737.38 68.351 1741.7 65.7441C1746.02 63.1086 1750.83 61.722 1756.13 61.5845C1760.48 61.4715 1764.5 62.1415 1768.18 63.5946C1771.86 65.0476 1774.91 67.1192 1777.33 69.8093C1779.78 72.47 1781.41 75.5249 1782.21 78.9738C1782.31 79.4874 1782.22 79.8912 1781.95 80.1852C1781.69 80.4784 1781.31 80.6318 1780.8 80.6451L1770.31 80.9172C1769.88 80.9284 1769.52 80.8517 1769.23 80.6872C1768.96 80.4933 1768.71 80.1844 1768.47 79.7605C1766.35 75.4567 1762.34 73.3813 1756.44 73.5345C1753.54 73.6095 1750.95 74.3793 1748.67 75.8437C1746.38 77.2795 1744.6 79.2901 1743.32 81.8755C1742.07 84.4601 1741.48 87.4289 1741.57 90.7818C1741.66 94.1347 1742.38 97.0553 1743.73 99.5436C1745.12 102.003 1747 103.889 1749.39 105.204C1751.8 106.518 1754.56 107.135 1757.65 107.054C1761 106.967 1763.74 106.194 1765.85 104.734C1767.96 103.245 1769.37 101.187 1770.08 98.5591L1758.21 98.8669C1757.75 98.8788 1757.38 98.7452 1757.08 98.4661C1756.79 98.1869 1756.64 97.8181 1756.62 97.3596L1756.42 89.6222C1756.41 89.135 1756.55 88.7588 1756.83 88.4934C1757.1 88.1994 1757.47 88.0465 1757.93 88.0346L1782 87.4101C1782.49 87.3974 1782.87 87.5167 1783.13 87.768C1783.42 88.0184 1783.58 88.3729 1783.59 88.8314C1783.67 89.575 1783.72 90.7206 1783.76 92.2681C1783.9 97.369 1782.85 101.941 1780.64 105.985C1778.42 110.028 1775.26 113.222 1771.16 115.565C1767.09 117.907 1762.41 119.147 1757.11 119.284ZM1792.5 117.678C1792.04 117.69 1791.67 117.556 1791.37 117.277C1791.08 116.998 1790.93 116.629 1790.91 116.171L1789.53 62.9546C1789.52 62.4674 1789.66 62.0911 1789.94 61.8258C1790.21 61.5318 1790.58 61.3788 1791.04 61.3669L1799.98 61.135C1800.47 61.1223 1800.85 61.256 1801.11 61.5358C1801.4 61.7863 1801.56 62.1551 1801.57 62.6423L1802.95 115.858C1802.96 116.317 1802.83 116.693 1802.55 116.987C1802.3 117.28 1801.93 117.433 1801.44 117.446L1792.5 117.678ZM1829.71 117.401C1825.78 117.503 1822.22 116.706 1819.02 115.011C1815.82 113.288 1813.28 110.873 1811.39 107.768C1809.54 104.633 1808.55 101.088 1808.45 97.1335C1808.35 93.2648 1809.16 89.7309 1810.89 86.5317C1812.64 83.3032 1815.07 80.7311 1818.17 78.8152C1821.3 76.8987 1824.79 75.8906 1828.63 75.7909C1832.59 75.6884 1836.18 76.4985 1839.4 78.2214C1842.63 79.9156 1845.19 82.3297 1847.08 85.4638C1848.96 88.5693 1849.96 92.0993 1850.06 96.054C1850.16 99.9227 1849.34 103.471 1847.58 106.7C1845.83 109.9 1843.38 112.458 1840.21 114.376C1837.08 116.292 1833.58 117.301 1829.71 117.401ZM1820.49 96.8212C1820.54 98.6553 1820.95 100.265 1821.73 101.65C1822.54 103.034 1823.62 104.096 1824.95 104.835C1826.29 105.575 1827.78 105.923 1829.41 105.881C1831.02 105.839 1832.48 105.4 1833.81 104.562C1835.13 103.725 1836.17 102.594 1836.9 101.17C1837.64 99.717 1837.98 98.1165 1837.94 96.3685C1837.89 94.5344 1837.46 92.9253 1836.65 91.5412C1835.87 90.1563 1834.8 89.0945 1833.43 88.3557C1832.09 87.6162 1830.59 87.268 1828.93 87.3111C1827.35 87.352 1825.9 87.7911 1824.58 88.6284C1823.28 89.465 1822.26 90.6098 1821.53 92.0627C1820.79 93.487 1820.44 95.0731 1820.49 96.8212ZM1879.15 116.118C1876.63 116.184 1874.41 115.797 1872.5 114.957C1870.58 114.089 1869.03 112.911 1867.85 111.422L1867.92 114.173C1867.93 114.631 1867.8 115.008 1867.52 115.302C1867.27 115.595 1866.9 115.748 1866.41 115.761L1858.07 115.977C1857.61 115.989 1857.24 115.855 1856.94 115.576C1856.65 115.297 1856.5 114.928 1856.48 114.47L1855.1 61.2535C1855.09 60.7663 1855.23 60.3901 1855.5 60.1247C1855.78 59.8307 1856.15 59.6778 1856.61 59.6659L1865.55 59.4339C1866.04 59.4213 1866.42 59.5549 1866.68 59.8348C1866.97 60.0853 1867.13 60.4541 1867.14 60.9413L1867.62 79.2531C1868.73 77.8478 1870.16 76.7209 1871.91 75.8724C1873.7 75.0232 1875.81 74.567 1878.25 74.5038C1881.71 74.4138 1884.89 75.2491 1887.77 77.0095C1890.66 78.7413 1892.94 81.1769 1894.63 84.3162C1896.35 87.4261 1897.25 90.9297 1897.36 94.8271C1897.45 98.6671 1896.7 102.2 1895.09 105.424C1893.51 108.648 1891.31 111.215 1888.5 113.123C1885.68 115.031 1882.56 116.03 1879.15 116.118ZM1867.87 95.5921C1867.92 97.4548 1868.33 99.0785 1869.11 100.463C1869.92 101.848 1871 102.909 1872.33 103.649C1873.67 104.36 1875.16 104.694 1876.79 104.652C1878.31 104.612 1879.72 104.189 1881.02 103.381C1882.34 102.572 1883.39 101.455 1884.16 100.03C1884.92 98.6051 1885.28 96.9756 1885.23 95.1415C1885.19 93.3361 1884.76 91.7414 1883.95 90.3573C1883.14 88.9731 1882.06 87.9113 1880.72 87.1718C1879.39 86.4036 1877.91 86.0403 1876.31 86.0819C1874.65 86.125 1873.17 86.5506 1871.87 87.3585C1870.57 88.1378 1869.57 89.2392 1868.86 90.6627C1868.15 92.0862 1867.82 93.7293 1867.87 95.5921ZM1923.15 114.977C1919.23 115.079 1915.67 114.282 1912.47 112.587C1909.27 110.864 1906.72 108.449 1904.84 105.344C1902.98 102.209 1902 98.664 1901.89 94.7093C1901.79 90.8406 1902.61 87.3067 1904.33 84.1076C1906.08 80.8791 1908.51 78.3069 1911.61 76.3911C1914.75 74.4745 1918.23 73.4664 1922.07 73.3668C1926.03 73.2642 1929.62 74.0743 1932.85 75.7972C1936.07 77.4914 1938.63 79.9056 1940.52 83.0396C1942.41 86.1451 1943.4 89.6751 1943.5 93.6298C1943.61 97.4985 1942.78 101.047 1941.03 104.276C1939.28 107.475 1936.82 110.034 1933.66 111.951C1930.52 113.868 1927.02 114.876 1923.15 114.977ZM1913.93 94.397C1913.98 96.2311 1914.39 97.8405 1915.17 99.2254C1915.98 100.61 1917.06 101.671 1918.4 102.411C1919.74 103.15 1921.22 103.499 1922.85 103.457C1924.46 103.415 1925.92 102.976 1927.25 102.138C1928.58 101.301 1929.61 100.17 1930.35 98.7458C1931.08 97.2929 1931.43 95.6924 1931.38 93.9443C1931.34 92.1102 1930.91 90.5011 1930.1 89.117C1929.31 87.7322 1928.24 86.6703 1926.87 85.9315C1925.54 85.192 1924.03 84.8438 1922.37 84.8869C1920.8 84.9278 1919.35 85.3669 1918.02 86.2042C1916.72 87.0408 1915.71 88.1856 1914.97 89.6385C1914.23 91.0628 1913.89 92.649 1913.93 94.397Z" fill="white"/>
<path d="M596.618 100.518L598.095 116.789C598.17 117.62 598.982 118.178 599.786 117.951L615.507 113.506L600.489 119.939C599.722 120.267 599.441 121.212 599.906 121.906L608.991 135.484L598.233 123.189C597.683 122.561 596.698 122.586 596.182 123.242L586.075 136.079L594.445 122.048C594.872 121.331 594.543 120.402 593.76 120.113L578.429 114.468L594.359 118.092C595.173 118.277 595.955 117.677 595.988 116.843L596.618 100.518Z" fill="white"/>
<path d="M1325.4 83.0636L1326.87 99.3345C1326.95 100.166 1327.76 100.724 1328.56 100.497L1344.28 96.0523L1329.27 102.484C1328.5 102.813 1328.22 103.758 1328.68 104.452L1337.77 118.03L1327.01 105.735C1326.46 105.107 1325.48 105.132 1324.96 105.788L1314.85 118.625L1323.22 104.594C1323.65 103.877 1323.32 102.947 1322.54 102.659L1307.21 97.0142L1323.14 100.638C1323.95 100.823 1324.73 100.223 1324.76 99.3892L1325.4 83.0636Z" fill="white"/>
</svg>
