<svg width="1920" height="232" viewBox="0 0 1920 232" fill="none" xmlns="http://www.w3.org/2000/svg">
<rect x="-13.5508" y="53.2046" width="1974.42" height="176.431" transform="rotate(-1.48608 -13.5508 53.2046)" fill="#FF0E1F"/>
<path d="M721.277 146.131C720.417 146.154 719.805 145.768 719.44 144.974L696.909 92.2211C696.785 91.8802 696.722 91.6524 696.719 91.5378C696.71 91.1939 696.818 90.9187 697.042 90.7121C697.294 90.5048 697.636 90.3956 698.065 90.3845L710.359 90.0655C711.248 90.0425 711.831 90.4288 712.11 91.2245L727.215 129.632L740.566 90.4863C740.803 89.6772 741.366 89.2611 742.255 89.2381L754.376 88.9236C754.806 88.9125 755.138 89.0042 755.373 89.1989C755.636 89.3928 755.772 89.6617 755.781 90.0055C755.784 90.1202 755.733 90.3509 755.627 90.6978L735.861 144.549C735.538 145.36 734.946 145.777 734.087 145.799L721.277 146.131ZM773.393 145.467C769.41 145.571 765.848 144.774 762.707 143.078C759.565 141.353 757.079 138.937 755.249 135.83C753.448 132.722 752.496 129.177 752.392 125.193C752.294 121.382 753.091 117.863 754.785 114.636C756.48 111.409 758.85 108.838 761.898 106.924C764.973 104.98 768.416 103.959 772.228 103.86C776.097 103.759 779.543 104.502 782.566 106.086C785.589 107.642 787.955 109.889 789.666 112.827C791.405 115.736 792.324 119.11 792.424 122.95C792.435 123.38 792.429 123.71 792.406 123.94L792.394 125.102C792.377 125.561 792.228 125.923 791.949 126.189C791.669 126.454 791.285 126.593 790.798 126.606L763.889 127.304C764.387 129.929 765.5 131.922 767.227 133.282C768.954 134.643 771.036 135.291 773.472 135.228C775.163 135.184 776.56 134.89 777.664 134.345C778.797 133.799 779.694 133.002 780.355 131.952C780.603 131.544 780.867 131.251 781.15 131.071C781.432 130.892 781.788 130.797 782.217 130.786L790.643 130.567C791.158 130.554 791.549 130.673 791.813 130.924C792.106 131.146 792.215 131.473 792.14 131.905C791.662 134.469 790.588 136.763 788.92 138.785C787.252 140.806 785.086 142.411 782.421 143.599C779.755 144.758 776.746 145.38 773.393 145.467ZM780.548 119.473C780.069 117.593 779.114 116.17 777.684 115.203C776.282 114.236 774.521 113.78 772.401 113.835C770.366 113.887 768.66 114.433 767.281 115.473C765.903 116.512 764.938 117.985 764.385 119.892L780.548 119.473ZM800.502 144.076C800.043 144.088 799.667 143.954 799.373 143.675C799.079 143.396 798.926 143.027 798.914 142.569L797.951 105.429C797.938 104.942 798.072 104.566 798.352 104.3C798.631 104.006 799 103.853 799.458 103.841L807.711 103.627C808.199 103.615 808.575 103.748 808.84 104.028C809.133 104.279 809.286 104.648 809.299 105.135L809.377 108.144C810.538 106.479 812.053 105.164 813.92 104.198C815.787 103.203 817.895 102.675 820.245 102.614C822.796 102.548 825.03 103.006 826.948 103.989C828.866 104.943 830.437 106.364 831.661 108.254C832.9 106.272 834.553 104.752 836.619 103.695C838.685 102.637 841.108 102.073 843.887 102.001C848.673 101.876 852.306 103.202 854.787 105.976C857.296 108.721 858.623 112.888 858.768 118.476L859.352 141.001C859.364 141.459 859.23 141.835 858.951 142.129C858.701 142.423 858.332 142.576 857.845 142.588L848.904 142.82C848.445 142.832 848.069 142.699 847.775 142.419C847.481 142.14 847.328 141.771 847.316 141.313L846.794 121.196C846.729 118.674 846.235 116.78 845.313 115.513C844.42 114.246 842.985 113.638 841.008 113.689C838.916 113.744 837.314 114.473 836.204 115.879C835.121 117.254 834.611 119.16 834.674 121.596L835.194 141.627C835.206 142.086 835.072 142.462 834.793 142.756C834.543 143.049 834.174 143.202 833.687 143.215L824.66 143.449C824.201 143.461 823.825 143.327 823.531 143.048C823.237 142.769 823.084 142.4 823.072 141.942L822.55 121.825C822.484 119.274 822.005 117.38 821.112 116.141C820.219 114.874 818.798 114.265 816.85 114.316C814.729 114.371 813.113 115.101 812.003 116.506C810.892 117.883 810.367 119.789 810.431 122.225L810.95 142.256C810.962 142.715 810.829 143.091 810.549 143.385C810.299 143.678 809.93 143.831 809.443 143.844L800.502 144.076ZM883.207 158.448C882.749 158.46 882.372 158.326 882.078 158.047C881.785 157.797 881.632 157.428 881.62 156.941L880.228 103.295C880.215 102.807 880.349 102.431 880.629 102.166C880.908 101.872 881.277 101.719 881.735 101.707L890.074 101.491C890.562 101.478 890.938 101.612 891.203 101.892C891.496 102.142 891.649 102.511 891.662 102.998L891.74 106.007C892.845 104.401 894.317 103.101 896.155 102.107C897.993 101.084 900.258 100.538 902.952 100.468C906.42 100.378 909.596 101.214 912.48 102.974C915.364 104.706 917.65 107.141 919.337 110.281C921.052 113.391 921.961 116.894 922.062 120.792C922.161 124.632 921.407 128.164 919.799 131.389C918.219 134.613 916.02 137.179 913.202 139.087C910.384 140.996 907.27 141.994 903.86 142.083C901.567 142.142 899.508 141.809 897.683 141.082C895.886 140.354 894.383 139.346 893.174 138.059L893.656 156.628C893.668 157.115 893.535 157.492 893.255 157.757C893.004 158.05 892.635 158.203 892.148 158.216L883.207 158.448ZM892.574 121.557C892.622 123.419 893.037 125.043 893.818 126.428C894.629 127.812 895.703 128.874 897.041 129.613C898.379 130.324 899.864 130.659 901.498 130.616C903.016 130.577 904.425 130.153 905.723 129.345C907.05 128.536 908.096 127.42 908.862 125.995C909.628 124.57 909.987 122.94 909.94 121.106C909.893 119.301 909.464 117.706 908.654 116.322C907.844 114.938 906.77 113.876 905.432 113.136C904.093 112.368 902.621 112.005 901.016 112.046C899.354 112.09 897.874 112.515 896.575 113.323C895.277 114.102 894.273 115.204 893.564 116.627C892.855 118.051 892.525 119.694 892.574 121.557ZM930.046 140.715C929.588 140.727 929.212 140.593 928.918 140.314C928.624 140.035 928.471 139.666 928.459 139.208L927.495 102.068C927.483 101.581 927.616 101.205 927.896 100.94C928.175 100.646 928.544 100.493 929.003 100.481L937.256 100.267C937.743 100.254 938.119 100.388 938.384 100.667C938.678 100.918 938.831 101.287 938.843 101.774L938.921 104.783C940.025 103.12 941.411 101.808 943.078 100.847C944.744 99.8573 946.551 99.3372 948.5 99.2867C949.417 99.2629 950.45 99.2934 951.6 99.3783C952.521 99.5265 952.994 100.088 953.02 101.062L953.254 110.089C953.267 110.605 953.12 110.996 952.811 111.262C952.53 111.499 952.117 111.581 951.57 111.509C950.561 111.306 949.498 111.219 948.38 111.248C945.572 111.321 943.453 112.007 942.024 113.305C940.596 114.604 939.913 116.457 939.975 118.864L940.495 138.896C940.507 139.354 940.373 139.73 940.094 140.024C939.843 140.318 939.474 140.471 938.987 140.483L930.046 140.715ZM975.683 140.219C972.216 140.309 969.04 139.489 966.156 137.757C963.272 136.025 960.973 133.604 959.257 130.494C957.57 127.355 956.676 123.822 956.574 119.896C956.473 116.028 957.213 112.495 958.794 109.3C960.402 106.075 962.615 103.509 965.433 101.6C968.251 99.6919 971.365 98.6935 974.776 98.605C977.212 98.5418 979.387 98.9299 981.301 99.7692C983.215 100.608 984.779 101.758 985.993 103.218L985.924 100.553C985.911 100.065 986.045 99.6891 986.325 99.4238C986.604 99.1298 986.973 98.9768 987.431 98.9649L995.856 98.7464C996.344 98.7337 996.72 98.8673 996.985 99.1472C997.278 99.3977 997.431 99.7665 997.444 100.254L998.408 137.393C998.419 137.852 998.286 138.228 998.007 138.522C997.756 138.815 997.387 138.968 996.9 138.981L988.475 139.199C988.017 139.211 987.64 139.078 987.346 138.799C987.052 138.519 986.899 138.151 986.887 137.692L986.814 134.855C985.708 136.461 984.222 137.747 982.354 138.713C980.515 139.65 978.291 140.152 975.683 140.219ZM968.61 119.584C968.656 121.361 969.084 122.955 969.895 124.368C970.734 125.752 971.823 126.827 973.162 127.596C974.5 128.335 975.957 128.684 977.534 128.644C979.196 128.6 980.676 128.189 981.975 127.41C983.302 126.601 984.32 125.5 985.029 124.105C985.767 122.68 986.111 121.023 986.062 119.131C986.013 117.269 985.584 115.645 984.774 114.261C983.993 112.876 982.919 111.829 981.552 111.118C980.214 110.379 978.714 110.031 977.052 110.074C975.504 110.114 974.082 110.538 972.783 111.346C971.485 112.125 970.452 113.227 969.686 114.652C968.92 116.077 968.561 117.721 968.61 119.584ZM1047.79 138.349C1042.54 138.485 1037.74 137.391 1033.38 135.066C1029.02 132.742 1025.53 129.42 1022.93 125.1C1020.35 120.78 1018.99 115.811 1018.84 110.194C1018.7 104.778 1019.83 99.8449 1022.24 95.395C1024.68 90.9443 1028.06 87.4155 1032.38 84.8086C1036.69 82.173 1041.51 80.7865 1046.81 80.6489C1051.16 80.5359 1055.18 81.206 1058.86 82.659C1062.54 84.1121 1065.59 86.1837 1068.01 88.8738C1070.46 91.5345 1072.09 94.5893 1072.89 98.0382C1072.99 98.5518 1072.9 98.9556 1072.62 99.2496C1072.37 99.5429 1071.99 99.6962 1071.48 99.7096L1060.99 99.9817C1060.56 99.9928 1060.2 99.9162 1059.91 99.7517C1059.64 99.5577 1059.39 99.2488 1059.15 98.8249C1057.03 94.5211 1053.02 92.4458 1047.12 92.5989C1044.22 92.674 1041.63 93.4438 1039.35 94.9082C1037.06 96.3439 1035.28 98.3545 1034 100.94C1032.75 103.525 1032.16 106.493 1032.25 109.846C1032.34 113.199 1033.06 116.12 1034.41 118.608C1035.8 121.067 1037.68 122.954 1040.07 124.268C1042.48 125.582 1045.24 126.199 1048.33 126.119C1051.68 126.032 1054.42 125.258 1056.53 123.798C1058.64 122.31 1060.05 120.251 1060.76 117.624L1048.89 117.931C1048.43 117.943 1048.06 117.81 1047.76 117.531C1047.47 117.251 1047.32 116.883 1047.3 116.424L1047.1 108.687C1047.09 108.199 1047.22 107.823 1047.5 107.558C1047.78 107.264 1048.15 107.111 1048.61 107.099L1072.68 106.475C1073.17 106.462 1073.55 106.581 1073.81 106.832C1074.1 107.083 1074.26 107.437 1074.27 107.896C1074.35 108.639 1074.4 109.785 1074.44 111.333C1074.58 116.433 1073.53 121.006 1071.32 125.049C1069.1 129.093 1065.94 132.286 1061.84 134.629C1057.77 136.971 1053.09 138.211 1047.79 138.349ZM1083.18 136.742C1082.72 136.754 1082.35 136.621 1082.05 136.342C1081.76 136.062 1081.61 135.694 1081.59 135.235L1080.21 82.019C1080.2 81.5318 1080.34 81.1556 1080.61 80.8902C1080.89 80.5962 1081.26 80.4433 1081.72 80.4314L1090.66 80.1994C1091.15 80.1868 1091.53 80.3204 1091.79 80.6003C1092.08 80.8508 1092.24 81.2196 1092.25 81.7068L1093.63 134.923C1093.64 135.381 1093.51 135.758 1093.23 136.052C1092.98 136.345 1092.61 136.498 1092.12 136.51L1083.18 136.742ZM1120.39 136.465C1116.46 136.567 1112.9 135.771 1109.7 134.076C1106.5 132.352 1103.96 129.938 1102.07 126.832C1100.21 123.697 1099.23 120.153 1099.13 116.198C1099.03 112.329 1099.84 108.795 1101.57 105.596C1103.32 102.368 1105.75 99.7955 1108.85 97.8797C1111.98 95.9631 1115.47 94.955 1119.31 94.8554C1123.27 94.7528 1126.86 95.5629 1130.08 97.2858C1133.31 98.98 1135.87 101.394 1137.76 104.528C1139.64 107.634 1140.64 111.164 1140.74 115.118C1140.84 118.987 1140.02 122.536 1138.26 125.764C1136.51 128.964 1134.06 131.523 1130.89 133.44C1127.76 135.357 1124.26 136.365 1120.39 136.465ZM1111.17 115.886C1111.21 117.72 1111.63 119.329 1112.41 120.714C1113.22 122.098 1114.3 123.16 1115.63 123.9C1116.97 124.639 1118.46 124.988 1120.09 124.945C1121.7 124.904 1123.16 124.464 1124.49 123.627C1125.81 122.789 1126.85 121.659 1127.58 120.234C1128.32 118.781 1128.66 117.181 1128.62 115.433C1128.57 113.599 1128.14 111.99 1127.33 110.606C1126.55 109.221 1125.48 108.159 1124.11 107.42C1122.77 106.681 1121.27 106.332 1119.61 106.376C1118.03 106.416 1116.58 106.856 1115.26 107.693C1113.96 108.529 1112.94 109.674 1112.21 111.127C1111.47 112.551 1111.12 114.138 1111.17 115.886ZM1169.83 135.183C1167.31 135.248 1165.09 134.861 1163.18 134.022C1161.26 133.154 1159.71 131.975 1158.53 130.486L1158.6 133.237C1158.61 133.696 1158.48 134.072 1158.2 134.366C1157.95 134.659 1157.58 134.812 1157.09 134.825L1148.75 135.041C1148.29 135.053 1147.92 134.92 1147.62 134.641C1147.33 134.361 1147.18 133.993 1147.16 133.534L1145.78 80.318C1145.77 79.8308 1145.9 79.4545 1146.18 79.1892C1146.46 78.8952 1146.83 78.7422 1147.29 78.7303L1156.23 78.4984C1156.72 78.4857 1157.1 78.6194 1157.36 78.8992C1157.65 79.1497 1157.81 79.5185 1157.82 80.0057L1158.29 98.3175C1159.41 96.9123 1160.84 95.7854 1162.59 94.9369C1164.38 94.0877 1166.49 93.6315 1168.93 93.5683C1172.39 93.4783 1175.57 94.3135 1178.45 96.074C1181.34 97.8058 1183.62 100.241 1185.31 103.381C1187.03 106.491 1187.93 109.994 1188.03 113.892C1188.13 117.732 1187.38 121.264 1185.77 124.489C1184.19 127.713 1181.99 130.279 1179.18 132.187C1176.36 134.096 1173.24 135.094 1169.83 135.183ZM1158.55 114.657C1158.59 116.519 1159.01 118.143 1159.79 119.528C1160.6 120.912 1161.68 121.974 1163.01 122.713C1164.35 123.424 1165.84 123.758 1167.47 123.716C1168.99 123.677 1170.4 123.253 1171.7 122.445C1173.02 121.636 1174.07 120.52 1174.84 119.095C1175.6 117.67 1175.96 116.04 1175.91 114.206C1175.87 112.401 1175.44 110.806 1174.63 109.422C1173.82 108.038 1172.74 106.976 1171.4 106.236C1170.07 105.468 1168.59 105.105 1166.99 105.146C1165.33 105.189 1163.85 105.615 1162.55 106.423C1161.25 107.202 1160.25 108.304 1159.54 109.727C1158.83 111.151 1158.5 112.794 1158.55 114.657ZM1213.83 134.041C1209.91 134.143 1206.34 133.347 1203.15 131.652C1199.95 129.928 1197.4 127.513 1195.52 124.408C1193.66 121.273 1192.68 117.728 1192.57 113.774C1192.47 109.905 1193.29 106.371 1195.01 103.172C1196.76 99.9435 1199.19 97.3713 1202.29 95.4555C1205.43 93.5389 1208.91 92.5308 1212.75 92.4312C1216.71 92.3286 1220.3 93.1388 1223.53 94.8616C1226.75 96.5559 1229.31 98.97 1231.2 102.104C1233.09 105.21 1234.08 108.74 1234.18 112.694C1234.28 116.563 1233.46 120.112 1231.71 123.34C1229.96 126.54 1227.5 129.099 1224.34 131.016C1221.2 132.932 1217.7 133.941 1213.83 134.041ZM1204.61 113.461C1204.66 115.296 1205.07 116.905 1205.85 118.29C1206.66 119.674 1207.74 120.736 1209.08 121.475C1210.41 122.215 1211.9 122.563 1213.53 122.521C1215.14 122.479 1216.6 122.04 1217.93 121.203C1219.26 120.365 1220.29 119.235 1221.03 117.81C1221.76 116.357 1222.11 114.757 1222.06 113.009C1222.01 111.175 1221.59 109.566 1220.78 108.181C1219.99 106.797 1218.92 105.735 1217.55 104.996C1216.21 104.256 1214.71 103.908 1213.05 103.951C1211.48 103.992 1210.03 104.431 1208.7 105.269C1207.4 106.105 1206.38 107.25 1205.65 108.703C1204.91 110.127 1204.56 111.713 1204.61 113.461Z" fill="white"/>
<path d="M-8.40664 163.197C-9.26635 163.219 -9.87855 162.833 -10.2433 162.04L-32.7749 109.287C-32.8985 108.946 -32.9618 108.718 -32.9647 108.603C-32.9736 108.259 -32.8661 107.984 -32.642 107.778C-32.3893 107.57 -32.048 107.461 -31.6182 107.45L-19.3243 107.131C-18.4359 107.108 -17.8524 107.494 -17.5737 108.29L-2.46854 146.697L10.8828 107.552C11.1199 106.743 11.6826 106.327 12.571 106.304L24.6929 105.989C25.1227 105.978 25.4549 106.07 25.6893 106.264C25.9525 106.458 26.0885 106.727 26.0974 107.071C26.1004 107.186 26.049 107.416 25.9433 107.763L6.17722 161.614C5.85415 162.425 5.26277 162.842 4.40306 162.864L-8.40664 163.197ZM43.7097 162.533C39.7264 162.636 36.1642 161.84 33.0231 160.143C29.8813 158.418 27.3955 156.002 25.5656 152.895C23.7644 149.788 22.8122 146.242 22.7088 142.259C22.6099 138.447 23.4076 134.928 25.1018 131.701C26.796 128.474 29.1668 125.903 32.2142 123.989C35.2895 122.045 38.7328 121.024 42.5442 120.925C46.4129 120.825 49.859 121.567 52.8825 123.152C55.9052 124.708 58.2719 126.955 59.9827 129.893C61.7213 132.801 62.6405 136.176 62.7401 140.016C62.7513 140.446 62.7455 140.776 62.7228 141.006L62.7099 142.167C62.6931 142.627 62.5448 142.989 62.2649 143.254C61.9851 143.52 61.6015 143.659 61.1144 143.671L34.2054 144.369C34.7037 146.995 35.8164 148.987 37.5436 150.348C39.2708 151.708 41.3523 152.357 43.7882 152.293C45.4789 152.25 46.8764 151.955 47.9807 151.41C49.1136 150.865 50.0105 150.067 50.6715 149.018C50.919 148.61 51.1838 148.316 51.4659 148.137C51.7481 147.958 52.104 147.862 52.5339 147.851L60.9591 147.633C61.4749 147.619 61.8651 147.738 62.1297 147.989C62.4222 148.211 62.5311 148.538 62.4562 148.97C61.9779 151.535 60.9047 153.828 59.2366 155.85C57.5685 157.872 55.402 159.477 52.7373 160.664C50.0717 161.823 47.0625 162.446 43.7097 162.533ZM50.8639 136.539C50.385 134.658 49.4305 133.235 48.0002 132.268C46.5987 131.301 44.8376 130.845 42.717 130.9C40.6823 130.953 38.9759 131.499 37.5977 132.538C36.2196 133.578 35.2541 135.051 34.7014 136.958L50.8639 136.539ZM70.8184 161.141C70.3599 161.153 69.9836 161.02 69.6896 160.741C69.3956 160.461 69.2427 160.093 69.2308 159.634L68.2673 122.495C68.2546 122.007 68.3883 121.631 68.6681 121.366C68.9473 121.072 69.3161 120.919 69.7746 120.907L78.0278 120.693C78.515 120.68 78.8913 120.814 79.1566 121.094C79.4499 121.344 79.6028 121.713 79.6155 122.2L79.6935 125.209C80.8547 123.544 82.3691 122.229 84.2367 121.263C86.1035 120.268 88.2119 119.74 90.5618 119.679C93.1122 119.613 95.3465 120.071 97.2647 121.054C99.182 122.008 100.753 123.43 101.978 125.319C103.217 123.337 104.869 121.817 106.935 120.76C109.001 119.703 111.424 119.138 114.204 119.066C118.99 118.942 122.623 120.267 125.104 123.042C127.612 125.787 128.939 129.954 129.084 135.542L129.668 158.066C129.68 158.525 129.547 158.901 129.268 159.195C129.017 159.488 128.648 159.641 128.161 159.654L119.22 159.886C118.762 159.898 118.385 159.764 118.091 159.485C117.797 159.206 117.644 158.837 117.632 158.378L117.111 138.261C117.045 135.739 116.552 133.845 115.63 132.579C114.737 131.311 113.301 130.703 111.324 130.755C109.232 130.809 107.631 131.539 106.52 132.944C105.437 134.32 104.928 136.226 104.991 138.662L105.511 158.693C105.522 159.151 105.389 159.528 105.11 159.822C104.859 160.115 104.49 160.268 104.003 160.28L94.9763 160.515C94.5178 160.527 94.1415 160.393 93.8475 160.114C93.5535 159.835 93.4005 159.466 93.3886 159.007L92.8667 138.89C92.8006 136.34 92.3213 134.445 91.4289 133.206C90.5357 131.939 89.1148 131.331 87.1661 131.381C85.0455 131.436 83.4299 132.167 82.3193 133.572C81.2079 134.948 80.6839 136.855 80.7471 139.291L81.2667 159.322C81.2786 159.78 81.145 160.157 80.8659 160.451C80.6154 160.744 80.2466 160.897 79.7594 160.909L70.8184 161.141ZM153.524 175.513C153.065 175.525 152.689 175.392 152.395 175.112C152.102 174.862 151.949 174.493 151.936 174.006L150.544 120.36C150.532 119.873 150.665 119.497 150.945 119.231C151.224 118.937 151.593 118.784 152.052 118.772L160.391 118.556C160.878 118.543 161.254 118.677 161.52 118.957C161.813 119.207 161.966 119.576 161.978 120.063L162.056 123.072C163.162 121.467 164.634 120.167 166.472 119.173C168.309 118.15 170.575 117.604 173.269 117.534C176.736 117.444 179.912 118.279 182.797 120.039C185.681 121.771 187.966 124.207 189.654 127.346C191.369 130.456 192.277 133.96 192.378 137.857C192.478 141.697 191.723 145.229 190.115 148.454C188.536 151.678 186.337 154.245 183.519 156.153C180.7 158.061 177.586 159.06 174.176 159.148C171.884 159.208 169.825 158.874 167.999 158.147C166.202 157.419 164.699 156.412 163.49 155.124L163.972 173.694C163.985 174.181 163.851 174.557 163.571 174.823C163.321 175.116 162.952 175.269 162.465 175.281L153.524 175.513ZM162.89 138.622C162.938 140.485 163.353 142.108 164.135 143.493C164.945 144.877 166.019 145.939 167.357 146.679C168.695 147.39 170.181 147.724 171.814 147.682C173.333 147.642 174.741 147.219 176.039 146.411C177.366 145.602 178.413 144.485 179.179 143.06C179.945 141.635 180.304 140.006 180.256 138.171C180.209 136.366 179.781 134.771 178.971 133.387C178.161 132.003 177.086 130.941 175.748 130.202C174.409 129.434 172.937 129.07 171.332 129.112C169.67 129.155 168.19 129.581 166.892 130.388C165.593 131.168 164.589 132.269 163.881 133.693C163.172 135.116 162.842 136.759 162.89 138.622ZM200.363 157.781C199.904 157.793 199.528 157.659 199.234 157.38C198.94 157.101 198.787 156.732 198.775 156.273L197.812 119.134C197.799 118.647 197.933 118.27 198.212 118.005C198.492 117.711 198.86 117.558 199.319 117.546L207.572 117.332C208.059 117.319 208.436 117.453 208.701 117.733C208.994 117.983 209.147 118.352 209.16 118.839L209.238 121.848C210.342 120.185 211.727 118.873 213.394 117.912C215.06 116.923 216.868 116.403 218.816 116.352C219.734 116.328 220.767 116.359 221.916 116.444C222.837 116.592 223.311 117.153 223.336 118.128L223.57 127.154C223.584 127.67 223.436 128.061 223.128 128.327C222.847 128.564 222.433 128.646 221.887 128.575C220.878 128.371 219.814 128.284 218.697 128.313C215.888 128.386 213.77 129.072 212.341 130.371C210.912 131.67 210.229 133.523 210.291 135.93L210.811 155.961C210.823 156.42 210.689 156.796 210.41 157.09C210.16 157.383 209.791 157.536 209.304 157.549L200.363 157.781ZM246 157.285C242.532 157.375 239.356 156.554 236.473 154.822C233.589 153.09 231.289 150.67 229.574 147.56C227.887 144.42 226.992 140.888 226.89 136.962C226.79 133.093 227.53 129.561 229.11 126.366C230.718 123.141 232.931 120.574 235.75 118.666C238.568 116.757 241.682 115.759 245.092 115.67C247.528 115.607 249.703 115.995 251.617 116.835C253.532 117.674 255.096 118.823 256.309 120.283L256.24 117.618C256.228 117.131 256.361 116.755 256.641 116.489C256.92 116.195 257.289 116.042 257.748 116.03L266.173 115.812C266.66 115.799 267.036 115.933 267.302 116.213C267.595 116.463 267.748 116.832 267.76 117.319L268.724 154.459C268.736 154.917 268.602 155.293 268.323 155.587C268.073 155.881 267.704 156.034 267.217 156.046L258.791 156.265C258.333 156.277 257.957 156.143 257.663 155.864C257.369 155.585 257.216 155.216 257.204 154.757L257.13 151.92C256.025 153.526 254.538 154.812 252.671 155.778C250.831 156.715 248.607 157.217 246 157.285ZM238.926 136.649C238.972 138.426 239.401 140.021 240.212 141.434C241.05 142.817 242.139 143.893 243.478 144.661C244.817 145.401 246.274 145.75 247.85 145.709C249.512 145.666 250.993 145.255 252.292 144.475C253.618 143.667 254.636 142.565 255.346 141.17C256.083 139.746 256.427 138.088 256.378 136.197C256.33 134.334 255.901 132.711 255.09 131.326C254.309 129.942 253.235 128.894 251.869 128.184C250.531 127.444 249.03 127.096 247.368 127.139C245.821 127.179 244.398 127.603 243.1 128.411C241.801 129.191 240.769 130.293 240.003 131.718C239.237 133.143 238.878 134.787 238.926 136.649ZM318.104 155.414C312.86 155.55 308.057 154.456 303.695 152.132C299.333 149.808 295.849 146.485 293.242 142.166C290.664 137.845 289.302 132.876 289.156 127.26C289.015 121.843 290.149 116.91 292.557 112.46C294.994 108.01 298.372 104.481 302.692 101.874C307.011 99.2385 311.822 97.8519 317.123 97.7144C321.479 97.6014 325.497 98.2714 329.176 99.7245C332.856 101.178 335.906 103.249 338.328 105.939C340.777 108.6 342.404 111.655 343.211 115.104C343.31 115.617 343.22 116.021 342.941 116.315C342.691 116.608 342.308 116.762 341.792 116.775L331.303 117.047C330.873 117.058 330.513 116.982 330.222 116.817C329.959 116.623 329.707 116.314 329.467 115.89C327.348 111.587 323.336 109.511 317.433 109.664C314.539 109.739 311.949 110.509 309.664 111.974C307.379 113.409 305.596 115.42 304.315 118.005C303.063 120.59 302.48 123.559 302.567 126.912C302.654 130.265 303.375 133.185 304.73 135.674C306.113 138.132 307.998 140.019 310.383 141.334C312.797 142.648 315.552 143.264 318.647 143.184C322 143.097 324.733 142.324 326.845 140.864C328.958 139.375 330.367 137.317 331.073 134.689L319.209 134.997C318.75 135.009 318.374 134.875 318.08 134.596C317.786 134.317 317.633 133.948 317.621 133.489L317.42 125.752C317.408 125.265 317.541 124.889 317.821 124.623C318.1 124.329 318.469 124.176 318.928 124.164L343 123.54C343.487 123.527 343.863 123.647 344.127 123.898C344.42 124.148 344.573 124.503 344.585 124.961C344.662 125.705 344.72 126.85 344.76 128.398C344.892 133.499 343.85 138.071 341.632 142.115C339.414 146.158 336.256 149.352 332.159 151.695C328.09 154.037 323.405 155.277 318.104 155.414ZM353.499 153.808C353.04 153.82 352.664 153.686 352.37 153.407C352.076 153.128 351.923 152.759 351.911 152.301L350.53 99.0844C350.518 98.5973 350.651 98.221 350.931 97.9557C351.21 97.6617 351.579 97.5087 352.038 97.4968L360.979 97.2649C361.466 97.2522 361.842 97.3858 362.108 97.6657C362.401 97.9162 362.554 98.285 362.566 98.7722L363.947 151.988C363.959 152.447 363.825 152.823 363.546 153.117C363.296 153.41 362.927 153.563 362.44 153.576L353.499 153.808ZM390.706 153.531C386.78 153.633 383.218 152.836 380.02 151.141C376.821 149.418 374.278 147.003 372.39 143.898C370.531 140.763 369.55 137.218 369.448 133.263C369.347 129.395 370.159 125.861 371.883 122.662C373.634 119.433 376.062 116.861 379.167 114.945C382.3 113.029 385.787 112.02 389.627 111.921C393.582 111.818 397.173 112.628 400.401 114.351C403.628 116.045 406.185 118.46 408.073 121.594C409.96 124.699 410.955 128.229 411.058 132.184C411.158 136.053 410.332 139.601 408.581 142.83C406.829 146.03 404.371 148.588 401.209 150.505C398.076 152.422 394.575 153.43 390.706 153.531ZM381.484 132.951C381.531 134.785 381.946 136.395 382.727 137.779C383.537 139.164 384.612 140.225 385.95 140.965C387.288 141.704 388.774 142.053 390.408 142.011C392.012 141.969 393.478 141.53 394.804 140.692C396.13 139.855 397.162 138.724 397.899 137.3C398.635 135.847 398.981 134.246 398.936 132.498C398.888 130.664 398.459 129.055 397.649 127.671C396.868 126.286 395.793 125.224 394.426 124.486C393.088 123.746 391.588 123.398 389.926 123.441C388.35 123.482 386.899 123.921 385.572 124.758C384.275 125.595 383.258 126.74 382.522 128.193C381.784 129.617 381.438 131.203 381.484 132.951ZM440.149 152.248C437.627 152.314 435.409 151.927 433.495 151.087C431.58 150.219 430.029 149.041 428.844 147.552L428.915 150.303C428.927 150.761 428.793 151.138 428.514 151.432C428.264 151.725 427.895 151.878 427.408 151.89L419.068 152.107C418.61 152.119 418.234 151.985 417.94 151.706C417.646 151.427 417.493 151.058 417.481 150.599L416.1 97.3834C416.088 96.8962 416.221 96.52 416.501 96.2546C416.78 95.9606 417.149 95.8076 417.608 95.7958L426.549 95.5638C427.036 95.5512 427.412 95.6848 427.677 95.9647C427.971 96.2151 428.124 96.584 428.136 97.0711L428.611 115.383C429.722 113.978 431.155 112.851 432.911 112.002C434.696 111.153 436.806 110.697 439.242 110.634C442.709 110.544 445.885 111.379 448.77 113.139C451.654 114.871 453.939 117.307 455.627 120.446C457.342 123.556 458.25 127.06 458.351 130.957C458.451 134.797 457.696 138.329 456.088 141.554C454.509 144.778 452.31 147.344 449.492 149.253C446.674 151.161 443.559 152.16 440.149 152.248ZM428.863 131.722C428.911 133.585 429.326 135.208 430.108 136.593C430.918 137.977 431.992 139.039 433.33 139.779C434.668 140.49 436.154 140.824 437.787 140.782C439.306 140.742 440.714 140.318 442.012 139.511C443.339 138.702 444.386 137.585 445.152 136.16C445.918 134.735 446.277 133.105 446.229 131.271C446.182 129.466 445.754 127.871 444.944 126.487C444.134 125.103 443.059 124.041 441.721 123.302C440.382 122.533 438.91 122.17 437.305 122.212C435.643 122.255 434.163 122.68 432.865 123.488C431.566 124.268 430.562 125.369 429.854 126.793C429.145 128.216 428.815 129.859 428.863 131.722ZM484.15 151.107C480.224 151.209 476.661 150.412 473.463 148.717C470.264 146.993 467.721 144.579 465.834 141.473C463.974 138.339 462.993 134.794 462.891 130.839C462.79 126.97 463.602 123.437 465.326 120.237C467.077 117.009 469.505 114.437 472.61 112.521C475.743 110.604 479.23 109.596 483.07 109.497C487.025 109.394 490.616 110.204 493.844 111.927C497.071 113.621 499.628 116.035 501.516 119.17C503.403 122.275 504.398 125.805 504.501 129.76C504.601 133.628 503.776 137.177 502.024 140.406C500.272 143.605 497.815 146.164 494.653 148.081C491.519 149.998 488.018 151.006 484.15 151.107ZM474.927 130.527C474.974 132.361 475.389 133.97 476.17 135.355C476.981 136.739 478.055 137.801 479.393 138.541C480.731 139.28 482.217 139.629 483.851 139.587C485.455 139.545 486.921 139.105 488.247 138.268C489.573 137.431 490.605 136.3 491.342 134.876C492.079 133.423 492.424 131.822 492.379 130.074C492.331 128.24 491.902 126.631 491.092 125.247C490.311 123.862 489.237 122.8 487.87 122.061C486.531 121.322 485.031 120.974 483.369 121.017C481.793 121.058 480.342 121.497 479.016 122.334C477.718 123.171 476.701 124.315 475.965 125.768C475.227 127.193 474.881 128.779 474.927 130.527Z" fill="black"/>
<path d="M1430.6 129.066C1429.74 129.089 1429.13 128.703 1428.76 127.91L1406.23 75.1561C1406.11 74.8152 1406.04 74.5875 1406.04 74.4728C1406.03 74.129 1406.14 73.8537 1406.36 73.6472C1406.61 73.4399 1406.96 73.3307 1407.39 73.3195L1419.68 73.0006C1420.57 72.9775 1421.15 73.3639 1421.43 74.1596L1436.54 112.567L1449.89 73.4213C1450.12 72.6123 1450.69 72.1962 1451.57 72.1731L1463.7 71.8587C1464.13 71.8475 1464.46 71.9393 1464.69 72.1339C1464.96 72.3278 1465.09 72.5967 1465.1 72.9406C1465.1 73.0552 1465.05 73.286 1464.95 73.6328L1445.18 127.484C1444.86 128.295 1444.27 128.712 1443.41 128.734L1430.6 129.066ZM1482.71 128.403C1478.73 128.506 1475.17 127.709 1472.03 126.013C1468.89 124.288 1466.4 121.872 1464.57 118.765C1462.77 115.657 1461.82 112.112 1461.71 108.128C1461.61 104.317 1462.41 100.798 1464.11 97.5707C1465.8 94.3437 1468.17 91.773 1471.22 89.8587C1474.29 87.9149 1477.74 86.8936 1481.55 86.7947C1485.42 86.6944 1488.86 87.4366 1491.89 89.0214C1494.91 90.5775 1497.28 92.8245 1498.99 95.7625C1500.73 98.6711 1501.64 102.045 1501.74 105.885C1501.76 106.315 1501.75 106.645 1501.73 106.875L1501.71 108.037C1501.7 108.496 1501.55 108.858 1501.27 109.124C1500.99 109.389 1500.61 109.528 1500.12 109.541L1473.21 110.239C1473.71 112.864 1474.82 114.857 1476.55 116.217C1478.27 117.578 1480.36 118.226 1482.79 118.163C1484.48 118.119 1485.88 117.825 1486.98 117.28C1488.12 116.734 1489.01 115.937 1489.68 114.887C1489.92 114.48 1490.19 114.186 1490.47 114.007C1490.75 113.827 1491.11 113.732 1491.54 113.721L1499.96 113.502C1500.48 113.489 1500.87 113.608 1501.13 113.859C1501.43 114.081 1501.53 114.408 1501.46 114.84C1500.98 117.404 1499.91 119.698 1498.24 121.72C1496.57 123.742 1494.41 125.346 1491.74 126.534C1489.08 127.693 1486.07 128.316 1482.71 128.403ZM1489.87 102.408C1489.39 100.528 1488.43 99.1046 1487 98.1381C1485.6 97.1707 1483.84 96.7146 1481.72 96.7696C1479.69 96.8224 1477.98 97.3685 1476.6 98.4079C1475.22 99.4473 1474.26 100.921 1473.71 102.828L1489.87 102.408ZM1509.82 127.011C1509.36 127.023 1508.99 126.889 1508.69 126.61C1508.4 126.331 1508.25 125.962 1508.23 125.504L1507.27 88.3642C1507.26 87.877 1507.39 87.5007 1507.67 87.2354C1507.95 86.9414 1508.32 86.7884 1508.78 86.7765L1517.03 86.5624C1517.52 86.5498 1517.9 86.6834 1518.16 86.9633C1518.45 87.2138 1518.61 87.5826 1518.62 88.0698L1518.7 91.0787C1519.86 89.4141 1521.37 88.0987 1523.24 87.1326C1525.11 86.1378 1527.22 85.61 1529.57 85.549C1532.12 85.4829 1534.35 85.9411 1536.27 86.9237C1538.19 87.8776 1539.76 89.2993 1540.98 91.1889C1542.22 89.2067 1543.87 87.687 1545.94 86.6298C1548.01 85.5725 1550.43 85.0078 1553.21 84.9357C1557.99 84.8115 1561.63 86.1368 1564.11 88.9113C1566.62 91.6565 1567.94 95.8232 1568.09 101.411L1568.67 123.936C1568.68 124.394 1568.55 124.771 1568.27 125.065C1568.02 125.358 1567.65 125.511 1567.17 125.523L1558.22 125.755C1557.77 125.767 1557.39 125.634 1557.1 125.354C1556.8 125.075 1556.65 124.707 1556.64 124.248L1556.11 104.131C1556.05 101.609 1555.56 99.7148 1554.63 98.4483C1553.74 97.181 1552.31 96.573 1550.33 96.6243C1548.24 96.6786 1546.63 97.4083 1545.52 98.8136C1544.44 100.189 1543.93 102.095 1543.99 104.531L1544.51 124.562C1544.53 125.021 1544.39 125.397 1544.11 125.691C1543.86 125.985 1543.49 126.137 1543.01 126.15L1533.98 126.384C1533.52 126.396 1533.15 126.263 1532.85 125.983C1532.56 125.704 1532.4 125.335 1532.39 124.877L1531.87 104.76C1531.8 102.209 1531.33 100.315 1530.43 99.0761C1529.54 97.8088 1528.12 97.2005 1526.17 97.251C1524.05 97.306 1522.43 98.0362 1521.32 99.4415C1520.21 100.818 1519.69 102.724 1519.75 105.16L1520.27 125.191C1520.28 125.65 1520.15 126.026 1519.87 126.32C1519.62 126.613 1519.25 126.766 1518.76 126.779L1509.82 127.011ZM1592.53 141.383C1592.07 141.395 1591.69 141.261 1591.4 140.982C1591.11 140.732 1590.95 140.363 1590.94 139.876L1589.55 86.2297C1589.54 85.7425 1589.67 85.3662 1589.95 85.1009C1590.23 84.8069 1590.6 84.6539 1591.06 84.642L1599.39 84.4257C1599.88 84.4131 1600.26 84.5467 1600.52 84.8266C1600.82 85.077 1600.97 85.4459 1600.98 85.933L1601.06 88.942C1602.17 87.3361 1603.64 86.0362 1605.48 85.0422C1607.31 84.0195 1609.58 83.4733 1612.27 83.4034C1615.74 83.3134 1618.92 84.1487 1621.8 85.9091C1624.68 87.6409 1626.97 90.0765 1628.66 93.2158C1630.37 96.3257 1631.28 99.8293 1631.38 103.727C1631.48 107.567 1630.73 111.099 1629.12 114.324C1627.54 117.548 1625.34 120.114 1622.52 122.023C1619.7 123.931 1616.59 124.929 1613.18 125.018C1610.89 125.077 1608.83 124.744 1607 124.017C1605.21 123.289 1603.7 122.281 1602.49 120.994L1602.98 139.563C1602.99 140.051 1602.85 140.427 1602.57 140.692C1602.32 140.985 1601.96 141.138 1601.47 141.151L1592.53 141.383ZM1601.89 104.492C1601.94 106.354 1602.36 107.978 1603.14 109.363C1603.95 110.747 1605.02 111.809 1606.36 112.548C1607.7 113.259 1609.18 113.594 1610.82 113.551C1612.34 113.512 1613.75 113.088 1615.04 112.28C1616.37 111.472 1617.42 110.355 1618.18 108.93C1618.95 107.505 1619.31 105.875 1619.26 104.041C1619.21 102.236 1618.78 100.641 1617.97 99.2568C1617.16 97.8727 1616.09 96.8109 1614.75 96.0713C1613.41 95.3031 1611.94 94.9399 1610.34 94.9815C1608.67 95.0246 1607.19 95.4501 1605.9 96.2581C1604.6 97.0374 1603.59 98.1388 1602.88 99.5623C1602.18 100.986 1601.85 102.629 1601.89 104.492ZM1639.37 123.65C1638.91 123.662 1638.53 123.529 1638.24 123.249C1637.94 122.97 1637.79 122.601 1637.78 122.143L1636.82 85.0034C1636.8 84.5163 1636.94 84.14 1637.22 83.8746C1637.5 83.5806 1637.86 83.4277 1638.32 83.4158L1646.58 83.2017C1647.06 83.189 1647.44 83.3227 1647.7 83.6025C1648 83.853 1648.15 84.2219 1648.16 84.709L1648.24 87.718C1649.35 86.0548 1650.73 84.7428 1652.4 83.7819C1654.06 82.7924 1655.87 82.2723 1657.82 82.2217C1658.74 82.198 1659.77 82.2285 1660.92 82.3134C1661.84 82.4615 1662.31 83.0228 1662.34 83.9971L1662.57 93.0241C1662.59 93.5399 1662.44 93.9309 1662.13 94.197C1661.85 94.4337 1661.44 94.5161 1660.89 94.4442C1659.88 94.241 1658.82 94.1539 1657.7 94.1829C1654.89 94.2557 1652.77 94.9416 1651.34 96.2404C1649.92 97.5392 1649.23 99.3922 1649.3 101.799L1649.81 121.831C1649.83 122.289 1649.69 122.665 1649.41 122.959C1649.16 123.253 1648.79 123.406 1648.31 123.418L1639.37 123.65ZM1685 123.155C1681.54 123.245 1678.36 122.424 1675.48 120.692C1672.59 118.96 1670.29 116.539 1668.58 113.429C1666.89 110.29 1666 106.757 1665.89 102.831C1665.79 98.9626 1666.53 95.4306 1668.11 92.2352C1669.72 89.0104 1671.94 86.4438 1674.75 84.5354C1677.57 82.627 1680.69 81.6286 1684.1 81.5401C1686.53 81.4769 1688.71 81.8649 1690.62 82.7042C1692.54 83.5435 1694.1 84.693 1695.31 86.1527L1695.24 83.4876C1695.23 83.0005 1695.37 82.6242 1695.65 82.3588C1695.92 82.0648 1696.29 81.9119 1696.75 81.9L1705.18 81.6814C1705.66 81.6688 1706.04 81.8024 1706.31 82.0823C1706.6 82.3328 1706.75 82.7016 1706.76 83.1888L1707.73 120.328C1707.74 120.787 1707.61 121.163 1707.33 121.457C1707.08 121.75 1706.71 121.903 1706.22 121.916L1697.8 122.134C1697.34 122.146 1696.96 122.013 1696.67 121.734C1696.37 121.454 1696.22 121.086 1696.21 120.627L1696.13 117.79C1695.03 119.396 1693.54 120.682 1691.67 121.648C1689.84 122.585 1687.61 123.087 1685 123.155ZM1677.93 102.519C1677.98 104.296 1678.4 105.891 1679.22 107.303C1680.05 108.687 1681.14 109.762 1682.48 110.531C1683.82 111.27 1685.28 111.62 1686.85 111.579C1688.52 111.536 1690 111.124 1691.3 110.345C1692.62 109.536 1693.64 108.435 1694.35 107.04C1695.09 105.615 1695.43 103.958 1695.38 102.066C1695.33 100.204 1694.9 98.5802 1694.09 97.1961C1693.31 95.8112 1692.24 94.7637 1690.87 94.0535C1689.53 93.314 1688.03 92.9658 1686.37 93.0089C1684.82 93.0491 1683.4 93.4731 1682.1 94.281C1680.8 95.0603 1679.77 96.1625 1679.01 97.5875C1678.24 99.0125 1677.88 100.656 1677.93 102.519ZM1757.11 121.284C1751.86 121.42 1747.06 120.326 1742.7 118.002C1738.34 115.677 1734.85 112.355 1732.25 108.035C1729.67 103.715 1728.31 98.746 1728.16 93.1292C1728.02 87.7131 1729.15 82.78 1731.56 78.33C1734 73.8794 1737.38 70.3506 1741.7 67.7436C1746.02 65.1081 1750.83 63.7215 1756.13 63.584C1760.48 63.471 1764.5 64.141 1768.18 65.5941C1771.86 67.0471 1774.91 69.1187 1777.33 71.8088C1779.78 74.4696 1781.41 77.5244 1782.21 80.9733C1782.31 81.4869 1782.22 81.8907 1781.95 82.1847C1781.69 82.4779 1781.31 82.6313 1780.8 82.6446L1770.31 82.9167C1769.88 82.9279 1769.52 82.8512 1769.23 82.6867C1768.96 82.4928 1768.71 82.1839 1768.47 81.76C1766.35 77.4562 1762.34 75.3808 1756.44 75.534C1753.54 75.6091 1750.95 76.3788 1748.67 77.8432C1746.38 79.279 1744.6 81.2896 1743.32 83.875C1742.07 86.4597 1741.48 89.4284 1741.57 92.7813C1741.66 96.1342 1742.38 99.0548 1743.73 101.543C1745.12 104.002 1747 105.889 1749.39 107.203C1751.8 108.517 1754.56 109.134 1757.65 109.054C1761 108.967 1763.74 108.193 1765.85 106.733C1767.96 105.245 1769.37 103.187 1770.08 100.559L1758.21 100.866C1757.75 100.878 1757.38 100.745 1757.08 100.466C1756.79 100.186 1756.64 99.8176 1756.62 99.3591L1756.42 91.6217C1756.41 91.1345 1756.55 90.7583 1756.83 90.4929C1757.1 90.1989 1757.47 90.046 1757.93 90.0341L1782 89.4096C1782.49 89.397 1782.87 89.5163 1783.13 89.7675C1783.42 90.018 1783.58 90.3724 1783.59 90.831C1783.67 91.5746 1783.72 92.7201 1783.76 94.2676C1783.9 99.3685 1782.85 103.941 1780.64 107.984C1778.42 112.028 1775.26 115.221 1771.16 117.564C1767.09 119.907 1762.41 121.146 1757.11 121.284ZM1792.5 119.677C1792.04 119.689 1791.67 119.556 1791.37 119.277C1791.08 118.998 1790.93 118.629 1790.91 118.17L1789.53 64.9541C1789.52 64.4669 1789.66 64.0906 1789.94 63.8253C1790.21 63.5313 1790.58 63.3783 1791.04 63.3664L1799.98 63.1345C1800.47 63.1218 1800.85 63.2555 1801.11 63.5353C1801.4 63.7858 1801.56 64.1547 1801.57 64.6418L1802.95 117.858C1802.96 118.316 1802.83 118.693 1802.55 118.987C1802.3 119.28 1801.93 119.433 1801.44 119.446L1792.5 119.677ZM1829.71 119.4C1825.78 119.502 1822.22 118.706 1819.02 117.011C1815.82 115.287 1813.28 112.873 1811.39 109.767C1809.54 106.632 1808.55 103.088 1808.45 99.133C1808.35 95.2643 1809.16 91.7304 1810.89 88.5313C1812.64 85.3027 1815.07 82.7306 1818.17 80.8147C1821.3 78.8982 1824.79 77.8901 1828.63 77.7905C1832.59 77.6879 1836.18 78.498 1839.4 80.2209C1842.63 81.9151 1845.19 84.3292 1847.08 87.4633C1848.96 90.5688 1849.96 94.0988 1850.06 98.0535C1850.16 101.922 1849.34 105.471 1847.58 108.699C1845.83 111.899 1843.38 114.458 1840.21 116.375C1837.08 118.292 1833.58 119.3 1829.71 119.4ZM1820.49 98.8207C1820.54 100.655 1820.95 102.264 1821.73 103.649C1822.54 105.033 1823.62 106.095 1824.95 106.835C1826.29 107.574 1827.78 107.923 1829.41 107.88C1831.02 107.839 1832.48 107.399 1833.81 106.562C1835.13 105.725 1836.17 104.594 1836.9 103.169C1837.64 101.717 1837.98 100.116 1837.94 98.368C1837.89 96.5339 1837.46 94.9248 1836.65 93.5407C1835.87 92.1558 1834.8 91.094 1833.43 90.3552C1832.09 89.6157 1830.59 89.2675 1828.93 89.3106C1827.35 89.3515 1825.9 89.7906 1824.58 90.6279C1823.28 91.4645 1822.26 92.6093 1821.53 94.0622C1820.79 95.4865 1820.44 97.0726 1820.49 98.8207ZM1879.15 118.118C1876.63 118.183 1874.41 117.796 1872.5 116.957C1870.58 116.089 1869.03 114.91 1867.85 113.421L1867.92 116.172C1867.93 116.631 1867.8 117.007 1867.52 117.301C1867.27 117.595 1866.9 117.747 1866.41 117.76L1858.07 117.976C1857.61 117.988 1857.24 117.855 1856.94 117.576C1856.65 117.296 1856.5 116.928 1856.48 116.469L1855.1 63.253C1855.09 62.7658 1855.23 62.3896 1855.5 62.1242C1855.78 61.8302 1856.15 61.6773 1856.61 61.6654L1865.55 61.4334C1866.04 61.4208 1866.42 61.5544 1866.68 61.8343C1866.97 62.0848 1867.13 62.4536 1867.14 62.9408L1867.62 81.2526C1868.73 79.8473 1870.16 78.7204 1871.91 77.872C1873.7 77.0227 1875.81 76.5665 1878.25 76.5033C1881.71 76.4134 1884.89 77.2486 1887.77 79.0091C1890.66 80.7408 1892.94 83.1764 1894.63 86.3157C1896.35 89.4256 1897.25 92.9292 1897.36 96.8266C1897.45 100.667 1896.7 104.199 1895.09 107.424C1893.51 110.648 1891.31 113.214 1888.5 115.122C1885.68 117.031 1882.56 118.029 1879.15 118.118ZM1867.87 97.5916C1867.92 99.4543 1868.33 101.078 1869.11 102.463C1869.92 103.847 1871 104.909 1872.33 105.648C1873.67 106.359 1875.16 106.694 1876.79 106.651C1878.31 106.612 1879.72 106.188 1881.02 105.38C1882.34 104.571 1883.39 103.455 1884.16 102.03C1884.92 100.605 1885.28 98.9751 1885.23 97.141C1885.19 95.3356 1884.76 93.7409 1883.95 92.3568C1883.14 90.9727 1882.06 89.9108 1880.72 89.1713C1879.39 88.4031 1877.91 88.0398 1876.31 88.0814C1874.65 88.1245 1873.17 88.5501 1871.87 89.358C1870.57 90.1373 1869.57 91.2387 1868.86 92.6622C1868.15 94.0857 1867.82 95.7289 1867.87 97.5916ZM1923.15 116.976C1919.23 117.078 1915.67 116.282 1912.47 114.587C1909.27 112.863 1906.72 110.448 1904.84 107.343C1902.98 104.208 1902 100.663 1901.89 96.7088C1901.79 92.8401 1902.61 89.3062 1904.33 86.1071C1906.08 82.8786 1908.51 80.3064 1911.61 78.3906C1914.75 76.474 1918.23 75.4659 1922.07 75.3663C1926.03 75.2637 1929.62 76.0738 1932.85 77.7967C1936.07 79.4909 1938.63 81.9051 1940.52 85.0392C1942.41 88.1446 1943.4 91.6746 1943.5 95.6293C1943.61 99.498 1942.78 103.047 1941.03 106.275C1939.28 109.475 1936.82 112.034 1933.66 113.951C1930.52 115.867 1927.02 116.876 1923.15 116.976ZM1913.93 96.3965C1913.98 98.2306 1914.39 99.8401 1915.17 101.225C1915.98 102.609 1917.06 103.671 1918.4 104.41C1919.74 105.15 1921.22 105.499 1922.85 105.456C1924.46 105.415 1925.92 104.975 1927.25 104.138C1928.58 103.3 1929.61 102.17 1930.35 100.745C1931.08 99.2924 1931.43 97.6919 1931.38 95.9438C1931.34 94.1097 1930.91 92.5007 1930.1 91.1165C1929.31 89.7317 1928.24 88.6698 1926.87 87.931C1925.54 87.1915 1924.03 86.8433 1922.37 86.8864C1920.8 86.9273 1919.35 87.3664 1918.02 88.2038C1916.72 89.0403 1915.71 90.1851 1914.97 91.638C1914.23 93.0623 1913.89 94.6485 1913.93 96.3965Z" fill="black"/>
<path d="M596.618 102.517L598.095 118.788C598.17 119.619 598.982 120.178 599.786 119.951L615.507 115.506L600.489 121.938C599.722 122.267 599.441 123.212 599.906 123.906L608.991 137.484L598.233 125.188C597.683 124.56 596.698 124.586 596.182 125.242L586.075 138.078L594.445 124.047C594.872 123.33 594.543 122.401 593.76 122.113L578.429 116.468L594.359 120.092C595.173 120.277 595.955 119.677 595.988 118.843L596.618 102.517Z" fill="white"/>
<path d="M1325.4 85.0631L1326.87 101.334C1326.95 102.165 1327.76 102.724 1328.56 102.497L1344.28 98.0518L1329.27 104.484C1328.5 104.813 1328.22 105.758 1328.68 106.451L1337.77 120.03L1327.01 107.734C1326.46 107.106 1325.48 107.132 1324.96 107.788L1314.85 120.624L1323.22 106.593C1323.65 105.876 1323.32 104.947 1322.54 104.659L1307.21 99.0137L1323.14 102.637C1323.95 102.823 1324.73 102.223 1324.76 101.389L1325.4 85.0631Z" fill="white"/>
</svg>
