<svg width="204" height="185" viewBox="0 0 204 185" fill="none" xmlns="http://www.w3.org/2000/svg">
<path d="M63.2281 141.966L20.2807 158.055L0 184.913H204L156.281 151.175L102.596 125.264L63.2281 141.966Z" fill="black"/>
<path d="M100.925 12.6887H94.8555V158.348H100.925V12.6887Z" fill="#607DB9"/>
<path d="M102.578 158.35H93.75V11.5872H102.578V158.35ZM96.3869 156.788H99.9983V13.1832H96.3869V156.788Z" fill="#371A45"/>
<path d="M104.277 9.09399C105.082 5.68366 102.97 2.26623 99.5599 1.46095C96.1495 0.655678 92.7321 2.76749 91.9268 6.17783C91.1216 9.58816 93.2334 13.0056 96.6437 13.8109C100.054 14.6161 103.471 12.5043 104.277 9.09399Z" fill="white"/>
<path d="M102.091 7.61708C102.091 9.82404 100.27 11.6448 98.0628 11.6448C95.8559 11.6448 94.0352 9.82404 94.0352 7.61708C94.0352 7.06534 94.1455 6.51361 94.3662 6.07222C94.9179 7.23087 96.0766 8.05848 97.4559 8.05848C99.2767 8.05848 100.766 6.62396 100.877 4.80322C101.649 5.52048 102.091 6.5136 102.091 7.61708Z" fill="#CCCCCC"/>
<path d="M98.0632 15.228C93.87 15.228 90.4492 11.8072 90.4492 7.614C90.4492 3.42078 93.87 0 98.0632 0C102.256 0 105.677 3.42078 105.677 7.614C105.677 11.8072 102.256 15.228 98.0632 15.228ZM98.0632 2.48283C95.2493 2.48283 92.9872 4.74497 92.9872 7.55884C92.9872 10.3727 95.2493 12.6348 98.0632 12.6348C100.877 12.6348 103.139 10.3727 103.139 7.55884C103.139 4.74497 100.877 2.48283 98.0632 2.48283Z" fill="#371A45"/>
<path d="M95.084 12.8566C95.084 12.8566 100.601 11.4773 106.946 14.1256C114.671 17.3257 118.864 21.7948 130.395 21.0224C140.658 20.3603 149.21 18.8154 163.445 22.181C171.059 24.0018 182.424 30.2364 182.424 30.2364L180.273 84.031C180.273 84.031 173.21 85.1345 163.61 80.9413C156.934 78.017 149.706 73.8238 135.361 77.1894C123.664 79.9481 112.409 75.6997 106.671 74.3204C100.932 72.941 95.0288 73.7686 95.0288 73.7686C95.0288 73.7686 93.7598 70.2375 95.0288 68.3616C95.0288 68.3616 100.877 67.0926 105.015 67.5892C105.015 67.5892 105.457 55.5612 105.291 46.1817C105.181 37.078 105.126 20.8568 105.126 20.8568C105.126 20.8568 102.919 18.3188 95.0288 19.2016C95.084 19.312 93.9254 15.1739 95.084 12.8566Z" fill="#FF0C1F"/>
<path d="M177.897 85.4618C174.917 85.4618 169.565 84.9652 163.11 82.0962C162.558 81.8203 161.951 81.5996 161.344 81.3237C155.275 78.565 148.323 75.4201 135.633 78.4547C125.481 80.8272 115.881 78.1788 109.481 76.4133C108.267 76.0822 107.274 75.8064 106.336 75.5856C100.929 74.3167 95.1909 75.0339 95.1357 75.0891C94.5288 75.1443 93.977 74.8132 93.7564 74.2615C93.5908 73.8201 92.3218 70.0683 93.8667 67.7509C94.0322 67.4751 94.3081 67.3096 94.6391 67.1992C94.8598 67.144 99.6048 66.1509 103.632 66.3164C103.743 62.9508 103.964 53.7368 103.853 46.2883C103.743 38.2881 103.688 24.5498 103.688 21.5152C102.915 21.0186 100.488 19.9152 95.0253 20.5221C94.4184 20.5772 93.8667 20.191 93.646 19.6393C93.5357 19.1427 92.377 14.9495 93.7564 12.3011C93.9219 11.9701 94.1977 11.7494 94.584 11.6391C94.8047 11.5839 100.543 10.2045 107.219 12.9632C109.205 13.7908 110.971 14.7288 112.681 15.5564C117.591 18.0944 121.84 20.3014 130.116 19.7496C131.716 19.6393 133.261 19.5289 134.751 19.4186C143.247 18.7565 151.303 18.0944 163.496 20.9635C171.165 22.7842 182.311 28.9085 182.807 29.1292C183.248 29.3499 183.469 29.7913 183.469 30.2878L181.317 84.0824C181.317 84.6894 180.876 85.1859 180.269 85.2963C180.379 85.2963 179.441 85.4618 177.897 85.4618ZM145.344 74.7029C152.848 74.7029 158.034 77.0202 162.393 79.0064C163 79.2823 163.551 79.503 164.103 79.7789C171.11 82.8686 176.793 82.979 179 82.8686L181.042 30.9499C178.504 29.5706 169.345 24.8808 163.055 23.3911C151.192 20.5772 143.358 21.2393 135.082 21.9014C133.537 22.0118 131.992 22.1773 130.392 22.2325C121.454 22.8394 116.654 20.3566 111.633 17.7634C109.978 16.9358 108.267 16.053 106.336 15.2254C101.646 13.2943 97.3978 13.6805 95.9082 13.9012C95.5771 15.0599 95.7426 16.7151 95.9633 17.8737C103.412 17.2668 105.784 19.7496 106.005 20.0807C106.226 20.3014 106.281 20.5772 106.281 20.9083C106.281 21.0738 106.336 37.2398 106.446 46.2331C106.557 55.5023 106.17 67.5303 106.17 67.6958C106.17 68.0268 106.005 68.3579 105.729 68.5786C105.453 68.7993 105.122 68.9096 104.791 68.8544C101.646 68.4682 97.3427 69.1855 95.7978 69.4613C95.5219 70.289 95.6874 71.4476 95.853 72.3856C97.8944 72.22 102.419 71.9993 106.888 73.0476C107.826 73.2683 108.874 73.5442 110.088 73.8753C116.212 75.5856 125.481 78.1236 134.971 75.8615C138.944 75.0891 142.365 74.7029 145.344 74.7029Z" fill="#371A45"/>
<path d="M139.387 69.2985C137.953 69.2985 136.904 68.195 136.794 66.6501C136.684 64.8845 136.629 63.119 136.518 61.3534L136.463 60.1948H136.408C135.249 60.1948 134.587 59.4775 134.091 58.9257C133.815 58.5395 133.539 58.2085 133.263 57.8223C132.987 57.9878 132.766 58.2085 132.491 58.374C132.049 58.705 131.497 58.8706 130.946 58.8706C130.449 58.8706 130.008 58.7602 129.566 58.4844C128.573 57.8774 128.077 56.7188 128.408 55.6153C128.573 55.0636 128.904 54.567 129.346 54.1256C129.566 53.9049 129.787 53.7394 130.008 53.5739C129.842 53.4084 129.732 53.1877 129.622 53.0221L129.566 52.9118C129.566 52.8566 129.511 52.8566 129.511 52.8014C128.684 51.9187 128.353 50.9255 128.573 49.9324L122.67 48.0013C121.676 47.6703 121.014 47.0082 120.794 46.1254C120.573 45.2978 120.794 44.3598 121.456 43.5874C123.001 41.7115 125.097 39.3942 127.856 37.6838C130.339 36.1389 132.766 35.3665 135.249 35.3665C135.415 35.3665 135.635 35.3665 135.801 35.3665C136.904 35.4217 137.898 35.6424 138.78 35.9734L139.167 35.5872C139.994 34.8147 140.822 33.9871 141.76 33.2699C144.794 30.787 148.436 29.4077 152.795 29.0767C153.512 29.0215 154.229 28.9663 155.002 28.9663C157.264 28.9663 159.581 29.2422 161.898 29.8491C162.229 29.9594 162.56 30.0698 162.836 30.1801C162.947 30.2353 163.057 30.2905 163.167 30.2905C163.388 30.3457 163.609 30.5112 163.774 30.7319C163.829 30.8422 164.05 31.1181 164.105 31.1733C164.216 31.3388 164.326 31.5595 164.381 31.725C164.657 33.2147 164.491 34.5941 164.326 35.9734V36.1941C163.885 40.0011 162.726 43.477 160.85 46.5116C159.36 48.9393 157.429 50.8704 155.167 52.36C154.67 52.6911 154.174 53.0221 153.622 53.298C153.291 53.4635 153.015 53.6842 152.684 53.8498C153.015 56.9395 152.077 59.7533 149.815 62.512C148.27 64.388 146.284 65.988 143.746 67.3674C142.863 67.8639 141.87 68.3605 140.822 68.857C140.27 69.1881 139.829 69.2985 139.387 69.2985ZM141.87 62.4017C143.029 61.6844 143.967 60.9672 144.794 60.1948C145.953 59.0361 146.725 57.9326 147.112 56.7188L141.705 58.8154C141.76 59.9741 141.815 61.1879 141.87 62.4017ZM143.249 44.1943C143.856 44.1943 144.408 44.415 144.905 44.8012C145.567 45.2978 145.898 46.0702 145.898 46.8978C145.898 47.7254 145.456 48.4979 144.794 48.9944C143.305 50.0979 141.87 51.2566 140.38 52.36C139.442 53.0773 138.56 53.7946 137.622 54.4567C142.753 52.8566 146.615 51.3117 150.036 49.3807C151.746 48.4427 153.015 47.5048 154.119 46.4564C155.443 45.1874 156.491 43.6426 157.429 41.6563C157.209 41.3804 156.988 41.0494 156.767 40.7735L156.326 40.2218C154.891 38.3459 153.457 36.4148 151.967 34.5389C150.753 34.7044 149.539 35.0354 148.381 35.4768C146.615 36.1389 144.96 37.2976 143.084 39.1183C141.318 40.8287 139.718 42.6494 138.339 44.5805C137.125 46.2909 135.911 48.1117 134.753 49.822L134.532 50.0979L136.849 48.2772C138.449 47.0634 139.994 45.8495 141.594 44.6357C142.036 44.415 142.643 44.1943 143.249 44.1943ZM131.222 45.2978C132.38 43.7529 133.484 42.208 134.587 40.7183C134.201 40.7735 133.87 40.8287 133.484 40.8839C131.277 41.4908 129.511 42.7598 127.966 44.2495L131.222 45.2978ZM158.864 35.9182C158.919 35.532 158.974 35.1458 158.974 34.7596L157.871 34.6492L158.864 35.9182Z" fill="white"/>
<path d="M162.892 36.1381C163.058 34.8139 163.223 33.4346 162.947 32.1104C162.837 31.9449 162.727 31.8345 162.616 31.669C162.23 31.5035 161.844 31.338 161.458 31.2276C158.644 30.5104 155.72 30.1793 152.795 30.4552C148.988 30.7863 145.457 31.9449 142.478 34.3725C141.374 35.2553 140.381 36.2485 139.388 37.1864C139.112 37.4623 138.892 37.5726 138.505 37.4071C137.623 37.0209 136.629 36.8002 135.636 36.745C132.988 36.6347 130.616 37.4623 128.409 38.8416C126.036 40.3313 124.105 42.3728 122.284 44.5246C121.512 45.4625 121.843 46.4556 122.946 46.8419C123.664 47.0626 124.381 47.2833 125.098 47.5591C126.809 48.1109 128.519 48.6626 130.229 49.2143C130.229 49.2695 130.229 49.2695 130.229 49.3247C130.229 49.3799 130.174 49.3799 130.174 49.435C129.457 50.373 129.622 51.2006 130.395 51.973C130.45 52.0834 130.56 52.1937 130.616 52.2489C131.002 52.7455 131.388 53.2972 131.829 53.849C131.278 54.2903 130.726 54.6766 130.229 55.1179C129.953 55.3386 129.733 55.6697 129.678 56.0007C129.512 56.5525 129.788 57.049 130.284 57.3249C130.781 57.6008 131.278 57.6008 131.774 57.2697C132.381 56.8283 132.933 56.3869 133.54 55.9456C134.091 56.718 134.643 57.3801 135.195 58.0973C135.802 58.8698 136.243 59.0353 137.181 58.7594C137.347 58.7043 137.512 58.6491 137.733 58.5939C137.733 58.8146 137.788 58.9801 137.788 59.0905C137.898 61.5733 138.009 64.0561 138.174 66.4838C138.23 67.6424 139.167 68.1942 140.216 67.6976C141.154 67.2562 142.147 66.7597 143.085 66.2631C145.237 65.1044 147.223 63.6699 148.768 61.7388C150.754 59.3112 151.802 56.6628 151.306 53.4627C151.306 53.3524 151.361 53.1317 151.471 53.0765C152.409 52.4696 153.402 51.8627 154.395 51.2558C156.547 49.8212 158.313 48.0005 159.692 45.7936C161.458 42.9245 162.506 39.6141 162.892 36.1381ZM131.719 46.8419C129.733 46.1798 127.691 45.5177 125.595 44.8556C127.802 42.5383 130.064 40.4969 133.209 39.6692C134.533 39.283 136.078 39.3382 137.016 39.7244C135.25 42.0417 133.485 44.4142 131.719 46.8419ZM148.382 57.049C147.885 58.6491 146.892 59.9732 145.733 61.1319C144.243 62.5664 142.533 63.6147 140.712 64.6079C140.602 62.3457 140.492 60.0836 140.381 57.9318C143.195 56.8283 145.899 55.78 148.657 54.7317C148.713 55.449 148.602 56.2214 148.382 57.049ZM158.699 41.821C157.816 43.9728 156.602 45.9039 154.947 47.504C153.623 48.7178 152.189 49.7109 150.644 50.5937C146.45 52.9662 141.926 54.6214 137.292 56.0007C137.071 56.0559 136.905 56.0559 136.795 55.8352C136.464 55.3938 136.133 54.9524 135.747 54.511C135.747 54.511 135.692 54.4559 135.692 54.3455C135.802 54.2352 135.912 54.18 136.078 54.0696C138.726 52.0282 141.374 50.0419 143.968 48.0005C144.74 47.4488 144.74 46.4556 144.078 45.8487C143.581 45.4625 142.919 45.4625 142.368 45.9039C140.767 47.1177 139.223 48.3316 137.623 49.5454C136.464 50.4282 135.25 51.3661 134.036 52.3041C133.595 51.7523 133.209 51.2558 132.822 50.704C132.767 50.5937 132.822 50.373 132.933 50.2626C134.312 48.166 135.747 46.0694 137.181 44.028C138.616 41.9865 140.271 40.1106 142.092 38.3451C143.802 36.6899 145.623 35.2553 147.83 34.4277C149.264 33.876 150.699 33.4898 152.244 33.3242C152.354 33.3242 152.575 33.4346 152.685 33.5449C154.23 35.5312 155.775 37.5175 157.265 39.5589C157.706 40.1658 158.202 40.7727 158.644 41.3245C158.754 41.4348 158.809 41.6003 158.699 41.821ZM159.637 39.0072C158.092 37.0209 156.602 35.0898 155.113 33.1036C155.113 33.0484 155.113 32.9932 155.113 32.938C156.823 33.1587 158.589 33.3794 160.354 33.5449C160.354 35.476 160.078 37.2416 159.637 39.0072Z" fill="#371A45"/>
<path d="M158.644 41.2719C158.147 40.665 157.706 40.0581 157.264 39.5064C155.72 37.5201 154.23 35.5338 152.685 33.4924C152.575 33.3821 152.409 33.2165 152.244 33.2717C150.699 33.4372 149.264 33.8234 147.83 34.3752C145.623 35.258 143.747 36.6925 142.092 38.2925C140.271 40.0029 138.616 41.934 137.181 43.9755C135.747 46.0169 134.312 48.1687 132.933 50.2101C132.822 50.3204 132.767 50.5411 132.822 50.6515C133.209 51.2032 133.595 51.6998 134.036 52.2515C135.25 51.3136 136.409 50.4308 137.623 49.4928C139.223 48.279 140.767 47.0652 142.368 45.8514C142.919 45.41 143.581 45.41 144.078 45.7962C144.795 46.3479 144.74 47.3411 143.968 47.948C141.319 49.9894 138.671 51.9757 136.078 54.0171C135.967 54.1274 135.802 54.1826 135.691 54.293C135.747 54.3481 135.747 54.4033 135.747 54.4585C136.078 54.8999 136.464 55.3413 136.795 55.7827C136.96 56.0034 137.071 56.0034 137.292 55.9482C141.926 54.5688 146.395 52.9136 150.644 50.5411C152.188 49.6584 153.678 48.6652 154.947 47.4514C156.658 45.8514 157.816 43.9203 158.699 41.7685C158.809 41.603 158.754 41.4374 158.644 41.2719ZM154.009 44.3065C151.968 45.8514 149.154 45.4651 147.609 43.4789C146.064 41.4926 146.45 38.6236 148.492 37.1339C150.478 35.6442 153.292 36.0304 154.837 38.0167C156.327 39.9477 155.995 42.8168 154.009 44.3065Z" fill="white"/>
<path d="M159.634 39.0091C158.089 37.0228 156.599 35.0917 155.109 33.1055C155.109 33.0503 155.109 32.9951 155.109 32.9399C156.82 33.1606 158.585 33.3813 160.351 33.5468C160.351 35.4779 160.075 37.2435 159.634 39.0091Z" fill="#E84343"/>
<path d="M136.96 39.671C135.194 42.0435 133.484 44.4159 131.718 46.8436C129.732 46.1815 127.69 45.5194 125.594 44.8573C127.801 42.54 130.063 40.4986 133.208 39.671C134.477 39.2848 136.022 39.3399 136.96 39.671Z" fill="#E84343"/>
<path d="M145.731 61.1314C144.241 62.5659 142.531 63.6142 140.71 64.6073C140.6 62.3452 140.489 60.0831 140.379 57.9313C143.193 56.8278 145.896 55.7795 148.655 54.7312C148.765 55.5036 148.655 56.2761 148.379 57.1037C147.883 58.6485 146.889 59.9175 145.731 61.1314Z" fill="#E84343"/>
<path d="M154.836 37.9585C153.291 35.9722 150.478 35.586 148.491 37.0757C146.505 38.6206 146.119 41.4345 147.608 43.4207C149.098 45.407 151.967 45.7932 154.009 44.2483C155.995 42.8138 156.326 39.9448 154.836 37.9585ZM152.629 42.6483C151.636 43.4207 150.091 43.2 149.319 42.2069C148.491 41.1586 148.712 39.6137 149.815 38.7861C150.809 38.0137 152.353 38.2344 153.126 39.2827C153.953 40.331 153.733 41.8207 152.629 42.6483Z" fill="#371A45"/>
<path d="M152.628 42.6538C151.634 43.4262 150.09 43.2056 149.317 42.2124C148.49 41.1641 148.71 39.6192 149.814 38.7916C150.862 38.0192 152.352 38.2399 153.124 39.2882C153.952 40.3365 153.731 41.8262 152.628 42.6538Z" fill="#495685"/>
<path d="M77.2031 159.729C77.2031 159.729 82.4998 155.26 89.0104 154.101C94.0312 153.219 97.5071 155.37 97.5071 155.37C97.5071 155.37 101.259 152.06 108.376 153.384C114.004 154.432 119.797 160.115 119.797 160.115C119.797 160.115 113.177 163.205 98.5002 163.205C83.824 163.26 77.2031 159.729 77.2031 159.729Z" fill="#FF0C1F"/>
<path d="M76.8216 159.236C77.4837 158.519 78.201 157.912 78.9734 157.36C79.6906 156.753 80.5183 156.256 81.2907 155.76C82.8907 154.767 84.6563 153.939 86.5322 153.387C87.4702 153.112 88.4081 152.891 89.4012 152.725C90.3944 152.56 91.3875 152.505 92.3806 152.615C93.3738 152.67 94.3669 152.836 95.36 153.112C95.8566 153.277 96.298 153.443 96.7946 153.608C97.0153 153.718 97.2911 153.829 97.5118 153.939L97.8429 154.105C97.9532 154.16 98.0635 154.215 98.2291 154.325L96.7394 154.436C96.9049 154.27 97.0152 154.215 97.1256 154.105C97.2359 153.994 97.3463 153.939 97.5118 153.829C97.7325 153.663 98.0084 153.498 98.2843 153.387C98.7808 153.112 99.3326 152.891 99.8291 152.67C100.877 152.229 102.036 152.008 103.14 151.843C103.691 151.732 104.243 151.732 104.85 151.732C105.402 151.732 105.953 151.732 106.505 151.787L107.333 151.843L108.16 151.953C108.712 152.008 109.264 152.174 109.816 152.284C110.919 152.615 111.967 153.001 112.905 153.553C113.898 154.049 114.836 154.601 115.664 155.263C116.547 155.87 117.374 156.532 118.147 157.305C118.919 158.022 119.637 158.794 120.299 159.677C120.519 159.953 120.464 160.339 120.133 160.56C119.912 160.726 119.637 160.726 119.416 160.56C117.705 159.457 116.05 158.298 114.34 157.305C112.629 156.256 110.864 155.429 109.098 154.932C108.657 154.822 108.216 154.712 107.719 154.656L107.002 154.546L106.284 154.491C105.788 154.436 105.347 154.436 104.85 154.436C104.409 154.491 103.912 154.491 103.471 154.546C102.533 154.656 101.65 154.822 100.767 155.153C100.326 155.318 99.8843 155.484 99.4981 155.705C99.2774 155.815 99.1119 155.925 98.8912 156.036C98.7808 156.091 98.7256 156.146 98.6153 156.201L98.3946 156.367L98.1739 156.532C97.7877 156.808 97.2911 156.753 96.9049 156.532L96.6842 156.422L96.4083 156.312C96.2428 156.256 96.0221 156.146 95.8566 156.091C95.4704 155.981 95.0842 155.815 94.698 155.76C93.9255 155.539 93.0979 155.429 92.2703 155.374C90.6151 155.263 88.9599 155.539 87.3046 155.925C85.6494 156.367 83.9942 157.029 82.3942 157.746C80.7941 158.463 79.1941 159.346 77.7044 160.284H77.6492C77.3733 160.45 76.9871 160.394 76.7664 160.063C76.6009 159.788 76.6009 159.457 76.8216 159.236Z" fill="#371A45"/>
<path d="M92.3783 159.728C92.9852 158.79 93.7024 157.852 94.4197 156.969C94.7508 156.528 95.137 156.086 95.5232 155.645C95.9094 155.203 96.2956 154.817 96.737 154.376C97.2336 153.879 98.006 153.879 98.5026 154.376C98.9991 154.872 98.9991 155.645 98.5026 156.141C98.4474 156.197 98.3922 156.252 98.337 156.307C97.9508 156.583 97.4543 156.914 97.068 157.245C96.6267 157.576 96.2404 157.907 95.7991 158.293C94.9714 159.01 94.199 159.728 93.4266 160.5C93.2059 160.776 92.7645 160.776 92.5438 160.5C92.2679 160.335 92.2127 160.004 92.3783 159.728Z" fill="#371A45"/>
</svg>
