<svg width="92" height="107" viewBox="0 0 92 107" fill="none" xmlns="http://www.w3.org/2000/svg">
<path d="M71.1094 54.8779C71.281 55.6763 71.1877 56.5603 70.9854 57.3887C71.0576 58.308 71.0138 59.2361 70.8438 60.1426C70.6518 61.1641 70.4083 62.1955 70.4404 63.2422C70.4965 65.078 71.5132 67.1152 72.2559 68.7686C72.4513 69.2043 72.6563 69.6394 72.8711 70.0723C74.4356 73.2238 76.5353 76.2441 79.4941 78.1826C80.2398 78.67 81.0664 79.0954 81.9561 79.1377C82.0144 79.1405 82.0727 79.1402 82.1309 79.1396C82.072 79.1402 82.0131 79.1405 81.9541 79.1377C81.0643 79.0954 80.2369 78.6701 79.4912 78.1826C76.5325 76.244 74.4336 73.2237 72.8691 70.0723C72.6543 69.6394 72.4493 69.2043 72.2539 68.7686C71.5112 67.1152 70.4946 65.078 70.4385 63.2422C70.4064 62.1955 70.6499 61.1641 70.8418 60.1426C71.0118 59.236 71.0556 58.308 70.9834 57.3887C70.9798 57.4034 70.9763 57.4184 70.9727 57.4326C70.9379 57.5722 70.9003 57.7101 70.8604 57.8457C70.7845 58.1015 70.7001 58.3556 70.6113 58.6074C70.6102 58.6753 70.6067 58.7432 70.6006 58.8105C70.5264 59.6093 70.1628 60.3476 69.8936 61.1035C69.4453 62.3633 69.3128 63.6448 69.3555 64.9297C69.4149 66.7157 69.8126 68.5096 70.1719 70.2686C71.2185 75.3913 74.0465 80.1977 78.373 83.1816C78.5135 83.22 78.6542 83.2566 78.7949 83.291C79.8482 83.5463 80.8988 83.6719 81.8516 83.5986C81.9942 83.5873 82.1338 83.5709 82.2715 83.5508C82.8055 83.4726 83.3033 83.3258 83.7432 83.0928C84.1926 82.8552 84.5376 82.5118 84.8027 82.1045C84.9178 81.9284 85.018 81.7397 85.1035 81.541C85.5246 80.5617 85.6071 79.3531 85.5273 78.2676C85.5106 78.0415 85.4877 77.8159 85.4648 77.5908C85.4555 77.4986 85.448 77.4062 85.4375 77.3145L85.4385 77.3125C84.4431 68.495 78.7459 60.5508 71.7324 55.3262C71.5468 55.1879 71.3356 55.0334 71.1094 54.8779ZM70.6094 58.6074C69.9151 60.5756 68.8262 62.4046 67.4277 63.9541C67.2207 64.9382 66.9822 65.9168 66.707 66.8867C67.4774 68.2203 68.1903 69.5874 68.834 70.9863C68.8579 71.0383 68.8825 71.0906 68.9062 71.1426C69.6712 72.8204 70.343 74.5414 70.917 76.293C71.3945 77.751 71.5219 79.2642 72.6426 80.3232C72.723 80.3994 72.8073 80.4736 72.8984 80.5449C73.667 81.1446 74.7454 81.7773 75.9521 82.3125C76.7212 82.6533 77.5423 82.9544 78.3701 83.1816C74.0437 80.1977 71.2165 75.3912 70.1699 70.2686C69.8106 68.5096 69.4129 66.7157 69.3535 64.9297C69.3109 63.6448 69.4433 62.3633 69.8916 61.1035C70.1608 60.3476 70.5245 59.6093 70.5986 58.8105C70.6048 58.7432 70.6082 58.6753 70.6094 58.6074ZM83.9736 78.6143C83.7508 78.7382 83.518 78.8434 83.2793 78.9277C83.5187 78.8432 83.7521 78.7376 83.9756 78.6133L83.9736 78.6143Z" fill="#01A7FF"/>
<path d="M83.2773 70.0798C79.4566 70.2869 71.9618 71.2712 70.0646 73.2136" stroke="#086CFF" stroke-width="0.677587" stroke-linecap="round"/>
<path d="M79.4922 63.4734C76.4149 63.4734 71.0507 63.5299 67.6628 68.2729" stroke="#086CFF" stroke-width="0.677587" stroke-linecap="round"/>
<path d="M68.4463 52.5448C69.397 52.5331 70.3547 52.9091 70.9355 53.6542C71.2199 54.0197 71.3953 54.4361 71.4902 54.8778C71.6294 55.5221 71.5946 56.222 71.4697 56.9042C71.4643 56.9327 71.4585 56.9626 71.4531 56.9911C71.3996 57.0181 71.346 57.0423 71.292 57.0594C71.0607 57.1325 70.6678 57.1997 70.29 57.1903C70.6683 57.1999 71.0624 57.1326 71.2939 57.0594C71.3479 57.0422 71.4016 57.0181 71.4551 56.9911C71.3985 57.2818 71.3263 57.5687 71.2441 57.8456C71.2063 57.9744 71.1653 58.1025 71.124 58.2303C70.3955 60.4768 69.156 62.5557 67.5273 64.2655C67.8254 62.8996 68.0584 61.5212 68.2236 60.1366C68.3441 59.1322 68.4249 58.1235 68.4736 57.1132C68.5322 55.9075 68.5404 54.6992 68.4961 53.493C68.4848 53.1877 68.4674 52.8828 68.4492 52.578C68.4529 52.5716 68.4558 52.5649 68.459 52.5585V52.5575C68.4556 52.5643 68.4521 52.5712 68.4482 52.578C68.4482 52.5673 68.4473 52.556 68.4463 52.5448Z" fill="#086CFF"/>
<path d="M20.7412 54.8779C20.5696 55.6763 20.6639 56.5603 20.8662 57.3887C20.794 58.308 20.8378 59.236 21.0078 60.1426C21.1997 61.1641 21.4422 62.1956 21.4102 63.2422C21.3541 65.078 20.3384 67.1153 19.5957 68.7686C19.4003 69.2044 19.1953 69.6394 18.9805 70.0723C17.4159 73.2239 15.3164 76.244 12.3574 78.1826C11.6117 78.6701 10.7853 79.0954 9.89551 79.1377C9.83716 79.1405 9.77886 79.1401 9.7207 79.1396C9.77951 79.1402 9.83846 79.1405 9.89746 79.1377C10.7873 79.0954 11.6136 78.6701 12.3594 78.1826C15.3184 76.244 17.4179 73.2239 18.9824 70.0723C19.1972 69.6394 19.4022 69.2044 19.5977 68.7686C20.3403 67.1153 21.356 65.0779 21.4121 63.2422C21.4442 62.1956 21.2017 61.1641 21.0098 60.1426C20.8397 59.236 20.7959 58.3081 20.8682 57.3887C20.8718 57.4034 20.8752 57.4184 20.8789 57.4326C20.9136 57.5721 20.9504 57.7101 20.9902 57.8457C21.0661 58.1014 21.1505 58.3557 21.2393 58.6074C21.2404 58.6752 21.2439 58.7433 21.25 58.8105C21.3242 59.6094 21.6878 60.3484 21.957 61.1045C22.4052 62.3642 22.5378 63.6449 22.4951 64.9297C22.4357 66.7157 22.038 68.5096 21.6787 70.2686C20.6321 75.3913 17.805 80.1977 13.4785 83.1816C13.338 83.22 13.1974 83.2566 13.0566 83.291C12.0033 83.5463 10.9519 83.6729 9.99902 83.5996C9.85636 83.5883 9.71676 83.5709 9.5791 83.5508C9.04495 83.4726 8.54739 83.3259 8.10742 83.0928C7.65796 82.8552 7.31299 82.5118 7.04785 82.1045C6.93287 81.9285 6.83255 81.7405 6.74707 81.542C6.3259 80.5626 6.24448 79.3532 6.32422 78.2676C6.34093 78.0415 6.36289 77.8159 6.38574 77.5908C6.39507 77.4985 6.40358 77.4063 6.41406 77.3145L6.41309 77.3125C7.40843 68.495 13.1056 60.5508 20.1191 55.3262C20.3047 55.188 20.5151 55.0333 20.7412 54.8779ZM21.2412 58.6074C21.9354 60.5756 23.0243 62.4046 24.4229 63.9541C24.6299 64.9383 24.8684 65.9168 25.1436 66.8867C24.3733 68.2202 23.6612 69.5874 23.0176 70.9863C22.9936 71.0383 22.9691 71.0906 22.9453 71.1426C22.1804 72.8205 21.5075 74.5413 20.9336 76.293C20.4561 77.751 20.3296 79.2642 19.209 80.3232C19.1285 80.3995 19.0434 80.4736 18.9521 80.5449C18.1836 81.1444 17.1059 81.7774 15.8994 82.3125C15.1303 82.6534 14.3085 82.9544 13.4805 83.1816C17.807 80.1977 20.634 75.3913 21.6807 70.2686C22.04 68.5096 22.4377 66.7157 22.4971 64.9297C22.5397 63.6448 22.4073 62.3633 21.959 61.1035C21.6898 60.3476 21.3261 59.6092 21.252 58.8105C21.2458 58.7432 21.2423 58.6752 21.2412 58.6074ZM9.24707 79.1006C9.33518 79.1143 9.42372 79.1242 9.5127 79.1309C9.42371 79.1243 9.33519 79.1142 9.24707 79.1006ZM8.78711 78.9971C8.83866 79.0121 8.89034 79.0263 8.94238 79.0391C8.89033 79.0263 8.83868 79.0121 8.78711 78.9971Z" fill="#01A7FF"/>
<path d="M23.5195 53.3093C23.161 54.1918 22.9119 55.1183 22.7842 56.0623C22.755 56.2776 22.7296 56.5004 22.623 56.6902C22.5475 56.8245 22.4201 56.9516 22.2666 57.0632C21.9424 57.2983 21.501 57.464 21.1855 57.4812H21.1885C21.5039 57.4639 21.9445 57.2982 22.2686 57.0632C22.422 56.9516 22.5495 56.8244 22.625 56.6902C22.7316 56.5004 22.7569 56.2776 22.7861 56.0623C22.9139 55.1184 23.163 54.1917 23.5215 53.3093C23.5167 53.4239 23.5163 53.5385 23.5127 53.6531C23.441 55.8165 23.532 57.9849 23.7891 60.1365C23.8533 60.6736 23.9313 61.2092 24.0156 61.7439C24.132 62.4831 24.2672 63.2195 24.4219 63.9529C23.0235 62.4034 21.9344 60.5752 21.2402 58.6072C21.1514 58.3553 21.0671 58.1013 20.9912 57.8455C20.9513 57.7097 20.9146 57.571 20.8799 57.4314H20.8779C20.8743 57.4173 20.8698 57.403 20.8662 57.3884C20.6639 56.56 20.5706 55.6761 20.7422 54.8777C20.8373 54.4355 21.0123 54.0195 21.2969 53.6541C21.8317 52.9675 22.6878 52.5944 23.5625 52.5486C23.5473 52.8024 23.5299 53.0555 23.5195 53.3093Z" fill="#086CFF"/>
<path d="M52.1675 79.743C45.9026 80.5197 39.4984 80.0367 33.4188 78.3361C32.0749 77.9603 30.7493 77.522 29.4453 77.0277C29.5066 77.1334 29.5704 77.2382 29.6326 77.343C33.4511 78.7651 37.4569 79.6859 41.5106 80.0947C47.8495 80.7347 54.3083 80.0903 60.3972 78.2146C61.0126 78.0253 61.6221 77.8191 62.2281 77.6047C62.2896 77.5028 62.3521 77.402 62.4126 77.2997C59.1035 78.494 55.6567 79.3106 52.1675 79.743Z" fill="#243F7C"/>
<path d="M68.4629 52.8751C68.4639 52.8988 68.4648 52.9228 68.4648 52.9454C68.4747 53.2898 68.4808 53.6342 68.4893 53.9786C68.4927 53.9765 68.4965 53.9749 68.5 53.9728C68.5443 55.6204 68.537 57.2701 68.4785 58.9171C68.4779 58.9182 68.4762 58.919 68.4756 58.92C68.4269 60.2993 68.346 61.6767 68.2256 63.048C68.0603 64.9395 67.8273 66.8226 67.5293 68.6886C67.3571 69.7657 67.1603 70.8374 66.9443 71.9025C65.9167 76.9743 64.3974 81.8912 62.4111 86.4952C62.3264 86.537 62.2402 86.5762 62.1553 86.6173C61.5536 87.9786 60.9164 89.3158 60.2324 90.6163C59.8684 91.3091 59.1361 91.9088 58.1406 92.4161C52.7038 95.1839 39.3179 95.1843 33.8789 92.4171C32.8823 91.9098 32.1497 91.3098 31.7852 90.6163C31.0396 89.1987 30.3456 87.7398 29.6973 86.2501C29.6134 86.2074 29.528 86.1675 29.4443 86.1241C27.583 81.7385 26.1412 77.075 25.1436 72.2687C24.8684 70.9436 24.6299 69.6064 24.4229 68.2618C24.2682 67.2601 24.133 66.2541 24.0166 65.2443C26.2157 67.6064 28.4669 69.8783 30.915 71.7169C32.7932 73.1271 34.8783 74.3108 37.0674 75.2189C34.8789 74.311 32.7947 73.1267 30.917 71.7169C28.4689 69.8783 26.2176 67.6063 24.0186 65.2443C23.9342 64.5139 23.8562 63.7817 23.792 63.048C23.5349 60.1086 23.444 57.146 23.5156 54.1906L23.5176 54.1915C23.528 53.7555 23.5412 53.3204 23.5537 52.8839C23.5702 52.3011 23.5871 51.7167 23.6094 51.1339C30.8277 52.6069 61.1892 52.6069 68.4082 51.1339C68.4299 51.7136 68.4467 52.2945 68.4629 52.8751ZM40.5967 76.4132C42.6802 76.9632 44.8069 77.2566 46.9004 77.2472C44.8069 77.2565 42.6802 76.9632 40.5967 76.4132ZM54.7832 75.4738C54.3606 75.7274 53.9398 75.9364 53.5234 76.0909C53.4983 76.1003 53.4724 76.1091 53.4473 76.1183C53.472 76.1093 53.4969 76.1011 53.5215 76.0919C53.9384 75.9372 54.36 75.7278 54.7832 75.4738ZM37.9141 75.5538C38.3496 75.7182 38.7885 75.8719 39.2305 76.0138C38.7885 75.8719 38.3496 75.7182 37.9141 75.5538Z" fill="#086CFF"/>
<path d="M62.3711 64.4832C62.3718 64.4967 62.3721 64.5102 62.3721 64.5232C62.3792 64.7222 62.3835 64.9217 62.3896 65.1208C62.3915 65.12 62.3937 65.1198 62.3955 65.1189C62.4278 66.0743 62.4225 67.0311 62.3799 67.9861C61.166 69.6721 59.8226 71.2485 58.3652 72.6882C56.5462 74.4849 53.9082 77.2274 51.4805 77.9441C51.4149 77.9636 51.3482 77.982 51.2822 78.0007C50.2539 78.2888 49.1811 78.4698 48.0859 78.5554C49.1825 78.4699 50.2566 78.2892 51.2861 78.0007C51.3519 77.9821 51.418 77.9635 51.4834 77.9441C53.9111 77.2275 56.5491 74.4849 58.3682 72.6882C59.8255 71.2485 61.1689 69.6721 62.3828 67.9861C62.3473 68.7864 62.288 69.5859 62.2002 70.3816C62.0797 71.4783 61.9096 72.5702 61.6924 73.6521C61.5669 74.2766 61.424 74.8979 61.2666 75.5154C60.5177 78.456 59.4105 81.3069 57.9629 83.9763C57.9016 84.0004 57.8388 84.022 57.7773 84.0457C57.3386 84.8354 56.8738 85.6115 56.375 86.366C56.1097 86.7676 55.5761 87.1148 54.8506 87.4089C50.8881 89.0138 41.1318 89.0145 37.168 87.4099C36.4418 87.1158 35.9083 86.768 35.6426 86.366C35.0993 85.5442 34.5935 84.6983 34.1211 83.8347C34.0595 83.8098 33.997 83.7858 33.9355 83.7605C32.5791 81.2177 31.5288 78.514 30.8018 75.7273C30.6013 74.9592 30.4273 74.1845 30.2764 73.405C30.1637 72.8245 30.0643 72.2412 29.9795 71.656C29.9787 71.6553 29.9773 71.6547 29.9766 71.6541C29.9151 71.2306 29.8593 70.806 29.8125 70.3806C29.6252 68.6764 29.5581 66.9585 29.6104 65.2449C29.6114 65.2453 29.6132 65.2454 29.6143 65.2458C29.6219 64.9932 29.6315 64.741 29.6406 64.488C29.6526 64.1501 29.6654 63.8113 29.6816 63.4734C34.9429 64.3274 57.0698 64.3274 62.3311 63.4734C62.3468 63.8095 62.3593 64.1464 62.3711 64.4832Z" fill="#01A7FF"/>
<path d="M72.3243 86.3045C71.9679 85.7005 68.6312 79.915 70.6677 77.1124C71.4308 76.062 72.4067 76.1761 78.4247 75.3296C84.2292 74.5132 85.3181 74.1263 86.2008 75.0214C88.0967 76.9443 86.2113 81.9111 85.9051 82.6952L72.3243 86.3045Z" fill="#086CFF"/>
<path d="M86.7442 80.0408L70.7731 82.2046L70.7664 82.2337L70.751 82.2074C70.0127 82.6672 63.2566 86.9948 63.5365 92.6827C63.573 93.4245 63.7385 96.7874 66.0687 97.6882C67.651 98.2996 69.3526 97.4367 69.8463 97.1649C70.6656 102.936 73.5177 107.834 81.244 106.312C84.5494 105.66 87.0336 103.769 88.262 102.364C92.2561 97.7964 91.9654 88.5137 86.7442 80.0408Z" fill="#DF0025"/>
<path d="M19.7303 86.7568C20.0868 86.1528 23.4235 80.3673 21.387 77.5647C20.6239 76.5143 19.648 76.6283 13.6299 75.7819C7.82547 74.9654 6.73656 74.5786 5.85384 75.4737C3.95795 77.3966 5.84339 82.3634 6.14961 83.1475L19.7303 86.7568Z" fill="#086CFF"/>
<path d="M5.31444 80.2108L21.2855 82.3746L21.2922 82.4037L21.3076 82.3774C22.0459 82.8372 28.802 87.1648 28.5221 92.8528C28.4856 93.5945 28.32 96.9575 25.9899 97.8582C24.4075 98.4697 22.706 97.6067 22.2123 97.335C21.393 103.106 18.5409 108.004 10.8146 106.482C7.50923 105.83 5.02504 103.939 3.79664 102.534C-0.197553 97.9664 0.0932189 88.6837 5.31444 80.2108Z" fill="#DF0025"/>
<path d="M73.3867 22.5414C74.6079 22.806 75.6506 23.137 76.0703 23.4877C76.7274 24.0366 77.1622 24.7578 77.5557 25.4769C79.0083 28.1317 79.8898 30.8745 80.2627 33.642L80.2607 33.6429C80.3979 34.6625 80.4678 35.6854 80.4688 36.7084C80.727 40.4999 80.0688 44.3521 78.3369 48.1136C77.9941 48.8584 77.6105 49.6083 76.9932 50.2015C76.573 50.6049 75.448 51.0338 74.1475 51.3978C74.842 49.9374 75.3765 48.4282 75.7646 47.0209C76.6963 43.641 77.0117 40.0822 76.8125 36.5306C76.693 34.4052 76.3902 32.2822 75.9229 30.2025C76.1609 30.5508 76.3925 30.7986 76.541 31.2162C76.906 32.2418 77.2131 33.2765 77.5879 34.2943C77.7024 34.6055 77.8234 34.9148 77.9541 35.222L77.9561 35.2201C77.8256 34.9134 77.7042 34.6049 77.5898 34.2943C77.215 33.2766 76.9089 32.2417 76.5439 31.2162C76.3954 30.7986 76.1629 30.5508 75.9248 30.2025C75.3709 27.7367 74.5887 25.3315 73.6113 23.0531C73.538 22.8814 73.463 22.7106 73.3867 22.5414Z" fill="#5B00C4"/>
<path d="M18.5781 23.0527C17.9246 24.5771 17.3602 26.159 16.8906 27.7764C16.8895 27.779 16.8878 27.7815 16.8867 27.7842C15.9604 30.9782 15.4149 34.3156 15.3301 37.6426C15.2492 40.8226 15.5876 43.9934 16.4219 47.0205C16.8098 48.4278 17.3453 49.937 18.04 51.3975C16.7392 51.0335 15.6144 50.6045 15.1943 50.2012C14.5774 49.608 14.1933 48.8589 13.8506 48.1143C12.1187 44.3526 11.4593 40.4997 11.7178 36.708C11.7186 36.1234 11.7443 35.5383 11.7891 34.9541L11.8428 34.3516C12.1525 31.3438 13.058 28.3593 14.6348 25.4775C15.0284 24.7585 15.4627 24.0372 16.1191 23.4883C16.5386 23.1375 17.5804 22.8071 18.8008 22.542C18.726 22.7122 18.6513 22.8825 18.5781 23.0527ZM14.0342 36.1104C13.9681 36.1254 13.8991 36.129 13.8301 36.1211V36.1221C13.8529 36.1247 13.8758 36.126 13.8984 36.126C13.9444 36.126 13.99 36.1205 14.0342 36.1104ZM13.625 36.0605C13.6471 36.0717 13.6698 36.0807 13.6924 36.0889L13.625 36.0596C13.4655 35.9789 13.3076 35.8953 13.1514 35.8086L13.625 36.0605ZM14.4355 35.8086C14.4174 35.8412 14.3973 35.8722 14.374 35.9004C14.3972 35.8722 14.4174 35.8412 14.4355 35.8086Z" fill="#5B00C4"/>
<path d="M65.8834 49.8972C65.2907 50.2469 55.539 50.4176 46.0077 50.4093C36.4769 50.4176 26.7251 50.2469 26.1325 49.8972C25.1072 49.2912 23.7477 46.3431 22.9688 42.5048C23.0583 44.3165 23.3769 46.1193 23.9072 47.8179C24.5227 49.7875 25.2102 50.882 27.2743 51.0512C29.7583 51.2549 64.3309 52.4005 66.8343 51.2032C69.0661 50.1358 70.0868 41.696 69.9476 38.1026C69.9122 37.1906 69.8103 36.2826 69.6451 35.3937C69.9161 42.2558 67.489 48.9483 65.8834 49.8972Z" fill="black"/>
<path d="M69.6232 36.1123C69.5544 34.3673 69.3193 32.6124 68.8695 30.9289C68.1919 28.3938 67.026 26.0197 65.1929 24.0865C64.6305 23.4939 54.4879 23.2807 44.5781 23.3313C34.6689 23.2807 24.5259 23.4939 23.9638 24.0865C21.7898 26.3788 20.5529 29.2902 19.9586 32.356C19.2171 36.1801 19.4763 40.2434 20.1671 43.6469C20.9925 47.7139 22.4329 50.8374 23.5193 51.4796C24.1472 51.8501 34.4797 52.031 44.5781 52.0222C54.677 52.031 65.0095 51.8501 65.6375 51.4796C67.3387 50.4742 69.9104 43.3831 69.6232 36.1123Z" fill="black"/>
<path d="M52.7647 35.9817L59.9584 33.6573C60.1962 34.6429 59.1404 36.1328 58.0084 36.7488C56.1249 37.6506 53.7278 36.6132 52.7647 35.9817Z" fill="#FF2C1B"/>
<path d="M8.57812 70.0798C12.3989 70.2869 19.8936 71.2712 21.7908 73.2136" stroke="#086CFF" stroke-width="0.677587" stroke-linecap="round"/>
<path d="M12.3633 63.4734C15.4406 63.4734 20.8047 63.5299 24.1926 68.2729" stroke="#086CFF" stroke-width="0.677587" stroke-linecap="round"/>
<path opacity="0.3" d="M4.23047 97.2397C5.83971 99.9218 10.3456 104.75 15.4952 102.604" stroke="white" stroke-width="0.677587" stroke-linecap="round"/>
<path opacity="0.3" d="M88.707 97.2397C87.0978 99.9218 82.5919 104.75 77.4423 102.604" stroke="white" stroke-width="0.677587" stroke-linecap="round"/>
<path d="M46.0685 10.9462C40.3539 10.9462 35.5718 13.4623 34.3594 16.8325H57.7775C56.5652 13.4623 51.7831 10.9462 46.0685 10.9462Z" fill="#5B00C4"/>
<path d="M22.6543 17.1573C26.231 14.4234 65.3825 14.5124 69.4014 17.1573C71.5286 18.5573 72.6948 20.7459 73.6885 23.006C73.7632 23.176 73.837 23.3467 73.9102 23.5167C74.5636 25.041 75.1291 26.6231 75.5986 28.2404C76.5252 31.4331 77.0721 34.7696 77.1579 38.0955C77.1581 38.1026 77.1556 38.1096 77.1509 38.1149C77.1461 38.1202 77.1437 38.1271 77.1438 38.1342C77.222 41.3051 76.8817 44.4671 76.0498 47.4855C75.6619 48.8926 75.1273 50.4022 74.4326 51.8624C73.3447 54.1491 71.8602 56.3152 69.9072 57.7716C69.7703 57.8734 69.2412 57.9654 68.3975 58.048C61.1824 58.7528 30.8408 58.7528 23.625 58.048C22.7822 57.9655 22.2534 57.8733 22.1162 57.7716C20.1631 56.3152 18.6789 54.149 17.5908 51.8624C16.8964 50.4022 16.3608 48.8926 15.9727 47.4855C15.0546 44.1551 14.735 40.6504 14.9164 37.1506C14.9192 37.0971 14.9891 37.0744 15.0225 37.1163C14.9736 37.036 14.9442 36.9436 14.9499 36.8497C15.0749 34.773 15.3755 32.6993 15.832 30.6671C16.3859 28.2013 17.1681 25.7952 18.1455 23.5167C18.2187 23.3453 18.294 23.175 18.3701 23.006C19.3765 20.765 20.6317 18.7034 22.6543 17.1573ZM46.0283 23.795C36.6763 23.7473 27.1042 23.9487 26.5723 24.5079C24.8511 26.3231 23.7521 28.55 23.1112 30.9289C23.1048 30.9529 23.096 30.9762 23.0854 30.9986C23.0748 31.0211 23.0661 31.0444 23.0599 31.0685C22.675 32.5418 22.4614 34.0714 22.3857 35.5964C22.377 35.7702 22.3575 35.9433 22.328 36.1149C22.1897 36.9213 22.1033 37.7425 22.0713 38.5665C21.9322 42.1599 22.9532 50.5987 25.1846 51.6671C25.8752 51.9969 29.0003 52.1465 33.2178 52.1885C34.8138 52.2043 36.1084 50.9077 36.1084 49.3116C36.1084 47.7152 37.4026 46.421 38.999 46.421H53.2532C54.7303 46.421 55.9277 47.6185 55.9277 49.0956C55.9277 50.6042 57.1755 51.8148 58.6833 51.7646C61.8875 51.658 64.1713 51.5618 64.7451 51.5148C66.8086 51.3455 67.4969 50.2514 68.1123 48.2823C68.616 46.6692 68.9287 44.9612 69.0356 43.2415C69.0468 43.0601 69.0693 42.8796 69.1039 42.7012C69.7155 39.545 69.9274 35.8219 69.2471 32.3126C69.4843 33.0134 69.6906 33.725 69.8623 34.4435C70.152 35.6538 70.2765 36.9073 70.3867 38.1447C70.4911 39.3173 70.2753 40.6894 71.374 41.4484C71.7251 41.6908 72.0692 41.7837 72.4033 41.7745C72.0744 41.7802 71.7359 41.6867 71.3906 41.4484C70.2919 40.6894 70.5078 39.3173 70.4033 38.1447C70.2931 36.9073 70.1676 35.6538 69.8779 34.4435C69.7062 33.7251 69.5009 33.0133 69.2637 32.3126C68.7028 29.4194 67.535 26.6713 65.4834 24.5079C64.9529 23.9486 55.3804 23.7473 46.0283 23.795ZM19.6172 40.4982C19.7444 40.5551 19.8759 40.5844 20.0049 40.59C19.8812 40.5827 19.7556 40.5526 19.6338 40.4982C19.5963 40.4814 19.5573 40.4679 19.5205 40.4532C19.5527 40.4679 19.5849 40.4837 19.6172 40.4982Z" fill="url(#paint0_linear_3119_2852)"/>
<path opacity="0.2" d="M42.2891 49.7239V54.5234" stroke="black" stroke-width="0.903449" stroke-linecap="round"/>
<path opacity="0.2" d="M45.9062 49.7239V54.5234" stroke="black" stroke-width="0.903449" stroke-linecap="round"/>
<path opacity="0.2" d="M49.5156 49.7239V54.5234" stroke="black" stroke-width="0.903449" stroke-linecap="round"/>
<path d="M46.6107 83.6598L31.9727 79.0862H60.4873L46.6107 83.6598Z" fill="#086CFF"/>
<path d="M46.518 76.6016L34.3438 72.8749H58.0589L46.518 76.6016Z" fill="#086CFF"/>
<path d="M46.4945 69.3175L36.3203 66.212H56.1394L46.4945 69.3175Z" fill="#086CFF"/>
<path d="M32.7461 51.2481L40.5664 23.8627C40.1429 23.778 34.4965 23.8627 33.8189 23.8627L26.2809 50.9375L32.7461 51.2481Z" fill="#D9D9D9" fill-opacity="0.1"/>
<path d="M43.448 46.3074L49.3203 23.8627C48.8968 23.778 45.9042 23.8627 45.2266 23.8627L38.9873 46.3074H43.448Z" fill="#D9D9D9" fill-opacity="0.1"/>
<path d="M38.9874 35.9814L31.8499 33.657C31.614 34.6425 32.6616 36.1324 33.7847 36.7484C35.6534 37.6503 38.0318 36.6128 38.9874 35.9814Z" fill="#FF2C1B"/>
<path d="M39.6133 13.5054H52.7695V11.3033H39.6133V13.5054Z" fill="#2D2C2C"/>
<path d="M41.4727 11.3032H50.6764V4.64199C50.6764 2.17736 48.681 0.17969 46.22 0.17969H45.9288C43.4678 0.17969 41.4727 2.17736 41.4727 4.64199V11.3032Z" fill="#DF0025"/>
<path d="M50.6805 11.3032V4.64199C50.6805 2.17736 48.6871 0.17969 46.2284 0.17969H45.9375V11.3032H50.6805Z" fill="#DF0025"/>
<path d="M45.7109 0.57492H45.8551C48.3017 0.57492 50.2846 2.49809 50.2846 4.87114V10.5127H49.4903V4.87114C49.4903 2.71343 47.8476 0.932135 45.7109 0.62629V0.57492Z" fill="white"/>
<defs>
<linearGradient id="paint0_linear_3119_2852" x1="14.4801" y1="40.3725" x2="77.1466" y2="40.3725" gradientUnits="userSpaceOnUse">
<stop stop-color="#8700F8"/>
<stop offset="1" stop-color="#01A7FF"/>
</linearGradient>
</defs>
</svg>
