<svg width="573" height="208" viewBox="0 0 573 208" fill="none" xmlns="http://www.w3.org/2000/svg">
<g filter="url(#filter0_d_3352_2116)">
<rect x="56" y="56" width="453" height="88" rx="8" fill="url(#paint0_linear_3352_2116)" shape-rendering="crispEdges"/>
<path d="M84.08 120C83.76 120 83.5 119.9 83.3 119.7C83.1 119.5 83 119.24 83 118.92L83 81.78C83 81.44 83.1 81.18 83.3 81C83.5 80.8 83.76 80.7 84.08 80.7L91.46 80.7C91.8 80.7 92.06 80.8 92.24 81C92.44 81.18 92.54 81.44 92.54 81.78L92.54 95.34L107.66 95.34L107.66 81.78C107.66 81.44 107.76 81.18 107.96 81C108.16 80.8 108.42 80.7 108.74 80.7L116.12 80.7C116.46 80.7 116.72 80.8 116.9 81C117.1 81.18 117.2 81.44 117.2 81.78L117.2 118.92C117.2 119.24 117.1 119.5 116.9 119.7C116.72 119.9 116.46 120 116.12 120L108.74 120C108.42 120 108.16 119.9 107.96 119.7C107.76 119.5 107.66 119.24 107.66 118.92L107.66 104.22L92.54 104.22L92.54 118.92C92.54 119.24 92.44 119.5 92.24 119.7C92.06 119.9 91.8 120 91.46 120L84.08 120ZM136.575 120.48C134.155 120.48 131.955 119.85 129.975 118.59C127.995 117.33 126.435 115.6 125.295 113.4C124.175 111.18 123.615 108.7 123.615 105.96C123.615 103.26 124.195 100.81 125.355 98.61C126.535 96.39 128.125 94.64 130.125 93.36C132.125 92.08 134.315 91.44 136.695 91.44C138.395 91.44 139.905 91.75 141.225 92.37C142.545 92.99 143.615 93.82 144.435 94.86L144.435 93C144.435 92.66 144.535 92.4 144.735 92.22C144.935 92.02 145.195 91.92 145.515 91.92L151.395 91.92C151.735 91.92 151.995 92.02 152.175 92.22C152.375 92.4 152.475 92.66 152.475 93L152.475 118.92C152.475 119.24 152.375 119.5 152.175 119.7C151.995 119.9 151.735 120 151.395 120L145.515 120C145.195 120 144.935 119.9 144.735 119.7C144.535 119.5 144.435 119.24 144.435 118.92L144.435 116.94C143.635 118.04 142.575 118.91 141.255 119.55C139.955 120.17 138.395 120.48 136.575 120.48ZM132.015 105.96C132.015 107.2 132.285 108.32 132.825 109.32C133.385 110.3 134.125 111.07 135.045 111.63C135.965 112.17 136.975 112.44 138.075 112.44C139.235 112.44 140.275 112.18 141.195 111.66C142.135 111.12 142.865 110.37 143.385 109.41C143.925 108.43 144.195 107.28 144.195 105.96C144.195 104.66 143.925 103.52 143.385 102.54C142.865 101.56 142.135 100.81 141.195 100.29C140.275 99.75 139.235 99.48 138.075 99.48C136.995 99.48 135.995 99.75 135.075 100.29C134.155 100.81 133.415 101.56 132.855 102.54C132.295 103.52 132.015 104.66 132.015 105.96ZM172.742 120.48C169.982 120.48 167.512 119.86 165.332 118.62C163.172 117.36 161.482 115.63 160.262 113.43C159.062 111.23 158.462 108.74 158.462 105.96C158.462 103.28 159.082 100.84 160.322 98.64C161.562 96.42 163.262 94.67 165.422 93.39C167.582 92.09 170.002 91.44 172.682 91.44C174.922 91.44 176.982 91.86 178.862 92.7C180.742 93.54 182.292 94.73 183.512 96.27C184.732 97.81 185.522 99.6 185.882 101.64C185.902 101.72 185.912 101.82 185.912 101.94C185.912 102.2 185.822 102.41 185.642 102.57C185.462 102.71 185.222 102.78 184.922 102.78L178.562 102.78C178.282 102.78 178.042 102.71 177.842 102.57C177.642 102.43 177.462 102.22 177.302 101.94C176.482 100.3 174.942 99.48 172.682 99.48C171.562 99.48 170.562 99.75 169.682 100.29C168.802 100.83 168.112 101.59 167.612 102.57C167.112 103.55 166.862 104.68 166.862 105.96C166.862 107.28 167.112 108.43 167.612 109.41C168.112 110.39 168.802 111.14 169.682 111.66C170.582 112.18 171.602 112.44 172.742 112.44C175.002 112.44 176.582 111.58 177.482 109.86C177.642 109.58 177.822 109.37 178.022 109.23C178.222 109.09 178.462 109.02 178.742 109.02L185.042 109.02C185.402 109.02 185.672 109.11 185.852 109.29C186.052 109.47 186.122 109.72 186.062 110.04C185.722 112.06 184.942 113.86 183.722 115.44C182.502 117.02 180.942 118.26 179.042 119.16C177.142 120.04 175.042 120.48 172.742 120.48ZM193.181 120C192.861 120 192.601 119.9 192.401 119.7C192.201 119.5 192.101 119.24 192.101 118.92L192.101 81.78C192.101 81.44 192.201 81.18 192.401 81C192.601 80.8 192.861 80.7 193.181 80.7L199.421 80.7C199.761 80.7 200.021 80.8 200.201 81C200.401 81.18 200.501 81.44 200.501 81.78L200.501 101.82L209.861 92.46C210.221 92.1 210.661 91.92 211.181 91.92L219.701 91.92C220.001 91.92 220.231 91.98 220.391 92.1C220.551 92.2 220.631 92.33 220.631 92.49C220.631 92.73 220.501 92.98 220.241 93.24L210.041 103.08L221.441 118.68C221.621 118.92 221.711 119.14 221.711 119.34C221.711 119.54 221.631 119.7 221.471 119.82C221.311 119.94 221.081 120 220.781 120L212.861 120C212.261 120 211.821 119.78 211.541 119.34L204.221 108.72L200.501 112.32L200.501 118.92C200.501 119.24 200.401 119.5 200.201 119.7C200.021 119.9 199.761 120 199.421 120L193.181 120ZM239.385 120.48C237.425 120.48 235.705 120.05 234.225 119.19C232.745 118.33 231.605 117.11 230.805 115.53C230.005 113.93 229.605 112.06 229.605 109.92L229.605 99.54L225.825 99.54C225.505 99.54 225.245 99.44 225.045 99.24C224.845 99.04 224.745 98.78 224.745 98.46L224.745 93C224.745 92.66 224.845 92.4 225.045 92.22C225.245 92.02 225.505 91.92 225.825 91.92L229.605 91.92L229.605 85.98C229.605 85.64 229.705 85.38 229.905 85.2C230.105 85 230.365 84.9 230.685 84.9L236.925 84.9C237.265 84.9 237.525 85 237.705 85.2C237.905 85.38 238.005 85.64 238.005 85.98L238.005 91.92L244.605 91.92C244.945 91.92 245.205 92.02 245.385 92.22C245.585 92.4 245.685 92.66 245.685 93L245.685 98.46C245.685 98.78 245.585 99.04 245.385 99.24C245.205 99.44 244.945 99.54 244.605 99.54L238.005 99.54L238.005 109.14C238.005 110.2 238.295 111.04 238.875 111.66C239.455 112.26 240.265 112.56 241.305 112.56C242.085 112.56 242.825 112.4 243.525 112.08C243.765 111.98 243.955 111.93 244.095 111.93C244.435 111.93 244.705 112.14 244.905 112.56L246.885 117.12C247.005 117.38 247.065 117.62 247.065 117.84C247.065 118.08 246.985 118.26 246.825 118.38C245.945 119 244.855 119.51 243.555 119.91C242.255 120.29 240.865 120.48 239.385 120.48ZM264.338 120.48C261.598 120.48 259.128 119.86 256.928 118.62C254.728 117.36 252.998 115.63 251.738 113.43C250.498 111.21 249.878 108.72 249.878 105.96C249.878 103.26 250.508 100.81 251.768 98.61C253.048 96.39 254.788 94.64 256.988 93.36C259.208 92.08 261.658 91.44 264.338 91.44C267.098 91.44 269.588 92.07 271.808 93.33C274.028 94.57 275.768 96.3 277.028 98.52C278.288 100.72 278.918 103.2 278.918 105.96C278.918 108.66 278.278 111.12 276.998 113.34C275.718 115.54 273.958 117.28 271.718 118.56C269.498 119.84 267.038 120.48 264.338 120.48ZM258.278 105.96C258.278 107.24 258.538 108.37 259.058 109.35C259.598 110.33 260.328 111.09 261.248 111.63C262.168 112.17 263.198 112.44 264.338 112.44C265.458 112.44 266.488 112.16 267.428 111.6C268.368 111.04 269.108 110.27 269.648 109.29C270.188 108.29 270.458 107.18 270.458 105.96C270.458 104.68 270.188 103.55 269.648 102.57C269.128 101.59 268.398 100.83 267.458 100.29C266.538 99.75 265.498 99.48 264.338 99.48C263.238 99.48 262.218 99.76 261.278 100.32C260.358 100.88 259.628 101.66 259.088 102.66C258.548 103.64 258.278 104.74 258.278 105.96ZM300.644 120.48C298.884 120.48 297.344 120.17 296.024 119.55C294.704 118.91 293.644 118.06 292.844 117L292.844 118.92C292.844 119.24 292.744 119.5 292.544 119.7C292.364 119.9 292.104 120 291.764 120L285.944 120C285.624 120 285.364 119.9 285.164 119.7C284.964 119.5 284.864 119.24 284.864 118.92L284.864 81.78C284.864 81.44 284.964 81.18 285.164 81C285.364 80.8 285.624 80.7 285.944 80.7L292.184 80.7C292.524 80.7 292.784 80.8 292.964 81C293.164 81.18 293.264 81.44 293.264 81.78L293.264 94.56C294.064 93.6 295.084 92.84 296.324 92.28C297.584 91.72 299.064 91.44 300.764 91.44C303.184 91.44 305.384 92.08 307.364 93.36C309.344 94.62 310.894 96.36 312.014 98.58C313.154 100.78 313.724 103.24 313.724 105.96C313.724 108.64 313.134 111.09 311.954 113.31C310.794 115.53 309.214 117.28 307.214 118.56C305.214 119.84 303.024 120.48 300.644 120.48ZM293.144 105.96C293.144 107.26 293.404 108.4 293.924 109.38C294.464 110.36 295.194 111.12 296.114 111.66C297.034 112.18 298.064 112.44 299.204 112.44C300.264 112.44 301.254 112.17 302.174 111.63C303.114 111.09 303.864 110.33 304.424 109.35C304.984 108.37 305.264 107.24 305.264 105.96C305.264 104.7 304.994 103.58 304.454 102.6C303.914 101.62 303.184 100.86 302.264 100.32C301.344 99.76 300.324 99.48 299.204 99.48C298.044 99.48 297.004 99.75 296.084 100.29C295.164 100.81 294.444 101.56 293.924 102.54C293.404 103.52 293.144 104.66 293.144 105.96ZM332.973 120.48C330.193 120.48 327.723 119.86 325.563 118.62C323.403 117.36 321.713 115.63 320.493 113.43C319.293 111.23 318.693 108.74 318.693 105.96C318.693 103.3 319.313 100.86 320.553 98.64C321.793 96.42 323.493 94.67 325.653 93.39C327.833 92.09 330.253 91.44 332.913 91.44C335.613 91.44 338.003 92.02 340.083 93.18C342.163 94.32 343.773 95.93 344.913 98.01C346.073 100.07 346.653 102.44 346.653 105.12C346.653 105.42 346.643 105.65 346.623 105.81L346.593 106.62C346.573 106.94 346.463 107.19 346.263 107.37C346.063 107.55 345.793 107.64 345.453 107.64L326.673 107.64C326.973 109.48 327.713 110.89 328.893 111.87C330.073 112.85 331.513 113.34 333.213 113.34C334.393 113.34 335.373 113.16 336.153 112.8C336.953 112.44 337.593 111.9 338.073 111.18C338.253 110.9 338.443 110.7 338.643 110.58C338.843 110.46 339.093 110.4 339.393 110.4L345.273 110.4C345.633 110.4 345.903 110.49 346.083 110.67C346.283 110.83 346.353 111.06 346.293 111.36C345.913 113.14 345.123 114.72 343.923 116.1C342.723 117.48 341.183 118.56 339.303 119.34C337.423 120.1 335.313 120.48 332.973 120.48ZM338.433 102.48C338.133 101.16 337.493 100.15 336.513 99.45C335.553 98.75 334.333 98.4 332.853 98.4C331.433 98.4 330.233 98.75 329.253 99.45C328.273 100.15 327.573 101.16 327.153 102.48L338.433 102.48ZM353.705 120C353.385 120 353.125 119.9 352.925 119.7C352.725 119.5 352.625 119.24 352.625 118.92L352.625 93C352.625 92.66 352.725 92.4 352.925 92.22C353.125 92.02 353.385 91.92 353.705 91.92L359.465 91.92C359.805 91.92 360.065 92.02 360.245 92.22C360.445 92.4 360.545 92.66 360.545 93L360.545 95.1C361.345 93.96 362.335 93.07 363.515 92.43C364.695 91.77 365.965 91.44 367.325 91.44C367.965 91.44 368.685 91.48 369.485 91.56C370.125 91.68 370.445 92.08 370.445 92.76L370.445 99.06C370.445 99.42 370.335 99.69 370.115 99.87C369.915 100.03 369.625 100.08 369.245 100.02C368.545 99.86 367.805 99.78 367.025 99.78C365.065 99.78 363.575 100.22 362.555 101.1C361.535 101.98 361.025 103.26 361.025 104.94L361.025 118.92C361.025 119.24 360.925 119.5 360.725 119.7C360.545 119.9 360.285 120 359.945 120L353.705 120ZM381.072 120C380.752 120 380.492 119.9 380.292 119.7C380.092 119.5 379.992 119.24 379.992 118.92L379.992 99.54L376.212 99.54C375.892 99.54 375.632 99.44 375.432 99.24C375.232 99.04 375.132 98.78 375.132 98.46L375.132 93C375.132 92.66 375.232 92.4 375.432 92.22C375.632 92.02 375.892 91.92 376.212 91.92L379.992 91.92L379.992 90.3C379.992 88.28 380.392 86.51 381.192 84.99C381.992 83.47 383.132 82.3 384.612 81.48C386.092 80.64 387.812 80.22 389.772 80.22C391.132 80.22 392.432 80.4 393.672 80.76C394.912 81.12 395.992 81.6 396.912 82.2C397.272 82.44 397.452 82.74 397.452 83.1C397.452 83.3 397.412 83.48 397.332 83.64L395.472 87.9C395.292 88.32 395.032 88.53 394.692 88.53C394.532 88.53 394.312 88.46 394.032 88.32C393.272 88 392.492 87.84 391.692 87.84C390.632 87.84 389.812 88.09 389.232 88.59C388.672 89.09 388.392 89.82 388.392 90.78L388.392 91.92L394.992 91.92C395.332 91.92 395.592 92.02 395.772 92.22C395.972 92.4 396.072 92.66 396.072 93L396.072 98.46C396.072 98.78 395.972 99.04 395.772 99.24C395.592 99.44 395.332 99.54 394.992 99.54L388.392 99.54L388.392 118.92C388.392 119.24 388.292 119.5 388.092 119.7C387.912 119.9 387.652 120 387.312 120L381.072 120ZM414.076 120.48C411.296 120.48 408.826 119.86 406.666 118.62C404.506 117.36 402.816 115.63 401.596 113.43C400.396 111.23 399.796 108.74 399.796 105.96C399.796 103.3 400.416 100.86 401.656 98.64C402.896 96.42 404.596 94.67 406.756 93.39C408.936 92.09 411.356 91.44 414.016 91.44C416.716 91.44 419.106 92.02 421.186 93.18C423.266 94.32 424.876 95.93 426.016 98.01C427.176 100.07 427.756 102.44 427.756 105.12C427.756 105.42 427.746 105.65 427.726 105.81L427.696 106.62C427.676 106.94 427.566 107.19 427.366 107.37C427.166 107.55 426.896 107.64 426.556 107.64L407.776 107.64C408.076 109.48 408.816 110.89 409.996 111.87C411.176 112.85 412.616 113.34 414.316 113.34C415.496 113.34 416.476 113.16 417.256 112.8C418.056 112.44 418.696 111.9 419.176 111.18C419.356 110.9 419.546 110.7 419.746 110.58C419.946 110.46 420.196 110.4 420.496 110.4L426.376 110.4C426.736 110.4 427.006 110.49 427.186 110.67C427.386 110.83 427.456 111.06 427.396 111.36C427.016 113.14 426.226 114.72 425.026 116.1C423.826 117.48 422.286 118.56 420.406 119.34C418.526 120.1 416.416 120.48 414.076 120.48ZM419.536 102.48C419.236 101.16 418.596 100.15 417.616 99.45C416.656 98.75 415.436 98.4 413.956 98.4C412.536 98.4 411.336 98.75 410.356 99.45C409.376 100.15 408.676 101.16 408.256 102.48L419.536 102.48ZM445.608 120.48C442.208 120.48 439.368 119.72 437.088 118.2C434.808 116.68 433.328 114.56 432.648 111.84C432.628 111.76 432.618 111.65 432.618 111.51C432.618 111.23 432.708 111.02 432.888 110.88C433.068 110.72 433.308 110.64 433.608 110.64L439.728 110.64C440.008 110.64 440.248 110.71 440.448 110.85C440.648 110.99 440.828 111.2 440.988 111.48C441.848 113 443.428 113.76 445.728 113.76C447.088 113.76 448.088 113.61 448.728 113.31C449.368 113.01 449.688 112.48 449.688 111.72C449.688 111.18 449.458 110.74 448.998 110.4C448.558 110.06 447.878 109.77 446.958 109.53C446.038 109.29 444.748 109.04 443.088 108.78C439.628 108.2 437.048 107.23 435.348 105.87C433.668 104.49 432.828 102.58 432.828 100.14C432.828 98.24 433.348 96.64 434.388 95.34C435.448 94.04 436.878 93.07 438.678 92.43C440.498 91.77 442.548 91.44 444.828 91.44C448.188 91.44 450.938 92.17 453.078 93.63C455.238 95.07 456.688 97.1 457.428 99.72C457.448 99.8 457.458 99.91 457.458 100.05C457.458 100.31 457.368 100.52 457.188 100.68C457.008 100.84 456.768 100.92 456.468 100.92L450.588 100.92C450.308 100.92 450.068 100.85 449.868 100.71C449.668 100.57 449.488 100.36 449.328 100.08C448.968 99.38 448.448 98.85 447.768 98.49C447.108 98.11 446.188 97.92 445.008 97.92C442.528 97.92 441.288 98.62 441.288 100.02C441.288 100.64 441.728 101.13 442.608 101.49C443.508 101.85 444.828 102.14 446.568 102.36C449.188 102.72 451.338 103.24 453.018 103.92C454.698 104.58 455.968 105.52 456.828 106.74C457.708 107.94 458.148 109.52 458.148 111.48C458.148 113.28 457.638 114.86 456.618 116.22C455.598 117.58 454.138 118.63 452.238 119.37C450.358 120.11 448.148 120.48 445.608 120.48ZM476.5 120.48C474.54 120.48 472.82 120.05 471.34 119.19C469.86 118.33 468.72 117.11 467.92 115.53C467.12 113.93 466.72 112.06 466.72 109.92L466.72 99.54L462.94 99.54C462.62 99.54 462.36 99.44 462.16 99.24C461.96 99.04 461.86 98.78 461.86 98.46L461.86 93C461.86 92.66 461.96 92.4 462.16 92.22C462.36 92.02 462.62 91.92 462.94 91.92L466.72 91.92L466.72 85.98C466.72 85.64 466.82 85.38 467.02 85.2C467.22 85 467.48 84.9 467.8 84.9L474.04 84.9C474.38 84.9 474.64 85 474.82 85.2C475.02 85.38 475.12 85.64 475.12 85.98L475.12 91.92L481.72 91.92C482.06 91.92 482.32 92.02 482.5 92.22C482.7 92.4 482.8 92.66 482.8 93L482.8 98.46C482.8 98.78 482.7 99.04 482.5 99.24C482.32 99.44 482.06 99.54 481.72 99.54L475.12 99.54L475.12 109.14C475.12 110.2 475.41 111.04 475.99 111.66C476.57 112.26 477.38 112.56 478.42 112.56C479.2 112.56 479.94 112.4 480.64 112.08C480.88 111.98 481.07 111.93 481.21 111.93C481.55 111.93 481.82 112.14 482.02 112.56L484 117.12C484.12 117.38 484.18 117.62 484.18 117.84C484.18 118.08 484.1 118.26 483.94 118.38C483.06 119 481.97 119.51 480.67 119.91C479.37 120.29 477.98 120.48 476.5 120.48Z" fill="white"/>
</g>
<rect width="107.477" height="55.7706" rx="8" transform="matrix(0.987376 -0.158395 0.108304 0.994118 226 141.611)" fill="#8208F8"/>
<path d="M240.734 180.602C240.523 180.636 240.345 180.597 240.199 180.486C240.053 180.374 239.968 180.213 239.945 180.001L239.551 176.382C239.532 176.21 239.542 176.053 239.58 175.912C239.631 175.769 239.721 175.613 239.85 175.444L247.919 165.774C248.843 164.668 249.484 163.723 249.84 162.937C250.197 162.152 250.335 161.395 250.256 160.666C250.152 159.711 249.793 159 249.179 158.532C248.566 158.064 247.798 157.904 246.877 158.052C244.902 158.369 243.814 159.568 243.612 161.65C243.542 162.12 243.304 162.388 242.896 162.453L238.433 163.169C238.196 163.207 238.011 163.169 237.878 163.056C237.758 162.94 237.705 162.76 237.718 162.515C237.835 159.893 238.645 157.74 240.149 156.056C241.665 154.356 243.746 153.294 246.392 152.87C248.051 152.604 249.577 152.656 250.97 153.025C252.377 153.393 253.533 154.105 254.438 155.16C255.356 156.213 255.908 157.588 256.093 159.284C256.276 160.968 256.074 162.49 255.485 163.852C254.909 165.199 253.985 166.622 252.715 168.12L247.517 174.254L256.996 172.734C257.219 172.698 257.398 172.737 257.531 172.85C257.675 172.948 257.76 173.11 257.784 173.336L258.192 177.073C258.215 177.285 258.168 177.468 258.05 177.622C257.946 177.774 257.782 177.867 257.559 177.903L240.734 180.602ZM272.381 175.849C270.195 176.2 268.235 175.975 266.501 175.174C264.777 174.358 263.372 173.019 262.285 171.157C261.21 169.279 260.522 166.962 260.222 164.205C259.93 161.528 260.11 159.118 260.761 156.978C261.423 154.821 262.498 153.071 263.986 151.726C265.486 150.366 267.315 149.513 269.474 149.167C271.673 148.814 273.633 149.046 275.356 149.862C277.091 150.663 278.503 152.001 279.591 153.876C280.678 155.738 281.372 158.048 281.672 160.805C281.965 163.495 281.78 165.912 281.116 168.055C280.465 170.196 279.39 171.946 277.891 173.306C276.39 174.653 274.553 175.501 272.381 175.849ZM266.186 163.248C266.365 164.892 266.708 166.26 267.216 167.352C267.735 168.428 268.382 169.208 269.158 169.69C269.933 170.159 270.8 170.317 271.761 170.163C273.262 169.922 274.362 169.078 275.062 167.631C275.76 166.17 275.976 164.213 275.708 161.761C275.529 160.118 275.18 158.758 274.661 157.681C274.141 156.591 273.486 155.813 272.699 155.346C271.923 154.863 271.054 154.699 270.093 154.853C268.606 155.092 267.513 155.942 266.815 157.402C266.128 158.848 265.919 160.796 266.186 163.248ZM287.034 173.175C286.823 173.209 286.645 173.17 286.499 173.058C286.353 172.947 286.268 172.785 286.245 172.573L285.851 168.954C285.832 168.782 285.842 168.625 285.88 168.484C285.931 168.341 286.022 168.185 286.151 168.016L294.219 158.347C295.143 157.241 295.784 156.295 296.14 155.51C296.497 154.724 296.635 153.967 296.556 153.238C296.452 152.284 296.093 151.573 295.48 151.105C294.866 150.637 294.098 150.476 293.177 150.624C291.202 150.941 290.114 152.141 289.912 154.223C289.843 154.693 289.604 154.96 289.196 155.026L284.733 155.742C284.496 155.78 284.311 155.742 284.178 155.628C284.058 155.513 284.005 155.332 284.019 155.087C284.135 152.466 284.945 150.313 286.449 148.629C287.965 146.929 290.047 145.867 292.693 145.442C294.351 145.176 295.877 145.228 297.271 145.598C298.677 145.966 299.833 146.677 300.738 147.732C301.657 148.785 302.208 150.16 302.393 151.857C302.576 153.54 302.374 155.063 301.786 156.425C301.209 157.772 300.286 159.194 299.016 160.693L293.817 166.827L303.296 165.306C303.52 165.27 303.698 165.309 303.831 165.423C303.975 165.521 304.06 165.683 304.085 165.908L304.492 169.646C304.515 169.858 304.468 170.041 304.351 170.195C304.247 170.346 304.083 170.44 303.859 170.476L287.034 173.175ZM318.042 168.524C315.58 168.919 313.449 168.661 311.648 167.749C309.861 166.836 308.594 165.292 307.849 163.119C307.83 163.068 307.815 162.997 307.805 162.904C307.785 162.718 307.829 162.57 307.937 162.458C308.044 162.333 308.196 162.254 308.394 162.223L312.896 161.5C313.265 161.441 313.55 161.598 313.751 161.97C314.459 163.178 315.622 163.653 317.242 163.393C318.282 163.226 319.056 162.771 319.564 162.029C320.085 161.271 320.283 160.329 320.161 159.202C320.036 158.062 319.609 157.214 318.879 156.657C318.148 156.099 317.217 155.912 316.085 156.093C315.413 156.201 314.829 156.376 314.333 156.617C313.849 156.843 313.414 157.156 313.029 157.555C312.802 157.807 312.511 157.961 312.155 158.018L308.403 158.62C308.193 158.654 308.014 158.615 307.868 158.504C307.722 158.392 307.637 158.231 307.614 158.019L306.124 144.339C306.1 144.114 306.147 143.931 306.265 143.791C306.382 143.637 306.546 143.543 306.757 143.51L321.884 141.083C322.107 141.047 322.286 141.086 322.419 141.2C322.563 141.298 322.648 141.459 322.673 141.685L323.08 145.423C323.103 145.635 323.056 145.818 322.939 145.971C322.835 146.123 322.671 146.217 322.447 146.252L311.862 147.95L312.447 153.319C313.674 152.286 315.117 151.636 316.776 151.37C318.461 151.1 319.972 151.201 321.31 151.674C322.647 152.148 323.726 152.952 324.546 154.089C325.365 155.211 325.865 156.601 326.045 158.258C326.237 160.021 326.031 161.632 325.427 163.091C324.834 164.535 323.899 165.73 322.622 166.677C321.359 167.621 319.832 168.237 318.042 168.524Z" fill="white"/>
<defs>
<filter id="filter0_d_3352_2116" x="0" y="0" width="573" height="208" filterUnits="userSpaceOnUse" color-interpolation-filters="sRGB">
<feFlood flood-opacity="0" result="BackgroundImageFix"/>
<feColorMatrix in="SourceAlpha" type="matrix" values="0 0 0 0 0 0 0 0 0 0 0 0 0 0 0 0 0 0 127 0" result="hardAlpha"/>
<feOffset dx="4" dy="4"/>
<feGaussianBlur stdDeviation="30"/>
<feComposite in2="hardAlpha" operator="out"/>
<feColorMatrix type="matrix" values="0 0 0 0 0 0 0 0 0 0.548934 0 0 0 0 1 0 0 0 0.4 0"/>
<feBlend mode="normal" in2="BackgroundImageFix" result="effect1_dropShadow_3352_2116"/>
<feBlend mode="normal" in="SourceGraphic" in2="effect1_dropShadow_3352_2116" result="shape"/>
</filter>
<linearGradient id="paint0_linear_3352_2116" x1="56" y1="100" x2="509" y2="100" gradientUnits="userSpaceOnUse">
<stop stop-color="#07A3FF"/>
<stop offset="1" stop-color="#8405F8"/>
</linearGradient>
</defs>
</svg>
