<svg width="219" height="65" viewBox="0 0 219 65" fill="none" xmlns="http://www.w3.org/2000/svg">
<rect width="219" height="42" rx="4" fill="url(#paint0_linear_3352_2134)"/>
<path d="M10.04 31C9.88 31 9.75 30.95 9.65 30.85C9.55 30.75 9.5 30.62 9.5 30.46L9.5 11.89C9.5 11.72 9.55 11.59 9.65 11.5C9.75 11.4 9.88 11.35 10.04 11.35L13.73 11.35C13.9 11.35 14.03 11.4 14.12 11.5C14.22 11.59 14.27 11.72 14.27 11.89L14.27 18.67L21.83 18.67L21.83 11.89C21.83 11.72 21.88 11.59 21.98 11.5C22.08 11.4 22.21 11.35 22.37 11.35L26.06 11.35C26.23 11.35 26.36 11.4 26.45 11.5C26.55 11.59 26.6 11.72 26.6 11.89L26.6 30.46C26.6 30.62 26.55 30.75 26.45 30.85C26.36 30.95 26.23 31 26.06 31L22.37 31C22.21 31 22.08 30.95 21.98 30.85C21.88 30.75 21.83 30.62 21.83 30.46L21.83 23.11L14.27 23.11L14.27 30.46C14.27 30.62 14.22 30.75 14.12 30.85C14.03 30.95 13.9 31 13.73 31L10.04 31ZM36.2877 31.24C35.0777 31.24 33.9777 30.925 32.9877 30.295C31.9977 29.665 31.2177 28.8 30.6477 27.7C30.0877 26.59 29.8077 25.35 29.8077 23.98C29.8077 22.63 30.0977 21.405 30.6777 20.305C31.2677 19.195 32.0627 18.32 33.0627 17.68C34.0627 17.04 35.1577 16.72 36.3477 16.72C37.1977 16.72 37.9527 16.875 38.6127 17.185C39.2727 17.495 39.8077 17.91 40.2177 18.43L40.2177 17.5C40.2177 17.33 40.2677 17.2 40.3677 17.11C40.4677 17.01 40.5977 16.96 40.7577 16.96L43.6977 16.96C43.8677 16.96 43.9977 17.01 44.0877 17.11C44.1877 17.2 44.2377 17.33 44.2377 17.5L44.2377 30.46C44.2377 30.62 44.1877 30.75 44.0877 30.85C43.9977 30.95 43.8677 31 43.6977 31L40.7577 31C40.5977 31 40.4677 30.95 40.3677 30.85C40.2677 30.75 40.2177 30.62 40.2177 30.46L40.2177 29.47C39.8177 30.02 39.2877 30.455 38.6277 30.775C37.9777 31.085 37.1977 31.24 36.2877 31.24ZM34.0077 23.98C34.0077 24.6 34.1427 25.16 34.4127 25.66C34.6927 26.15 35.0627 26.535 35.5227 26.815C35.9827 27.085 36.4877 27.22 37.0377 27.22C37.6177 27.22 38.1377 27.09 38.5977 26.83C39.0677 26.56 39.4327 26.185 39.6927 25.705C39.9627 25.215 40.0977 24.64 40.0977 23.98C40.0977 23.33 39.9627 22.76 39.6927 22.27C39.4327 21.78 39.0677 21.405 38.5977 21.145C38.1377 20.875 37.6177 20.74 37.0377 20.74C36.4977 20.74 35.9977 20.875 35.5377 21.145C35.0777 21.405 34.7077 21.78 34.4277 22.27C34.1477 22.76 34.0077 23.33 34.0077 23.98ZM54.3711 31.24C52.9911 31.24 51.7561 30.93 50.6661 30.31C49.5861 29.68 48.7411 28.815 48.1311 27.715C47.5311 26.615 47.2311 25.37 47.2311 23.98C47.2311 22.64 47.5411 21.42 48.1611 20.32C48.7811 19.21 49.6311 18.335 50.7111 17.695C51.7911 17.045 53.0011 16.72 54.3411 16.72C55.4611 16.72 56.4911 16.93 57.4311 17.35C58.3711 17.77 59.1461 18.365 59.7561 19.135C60.3661 19.905 60.7611 20.8 60.9411 21.82C60.9511 21.86 60.9561 21.91 60.9561 21.97C60.9561 22.1 60.9111 22.205 60.8211 22.285C60.7311 22.355 60.6111 22.39 60.4611 22.39L57.2811 22.39C57.1411 22.39 57.0211 22.355 56.9211 22.285C56.8211 22.215 56.7311 22.11 56.6511 21.97C56.2411 21.15 55.4711 20.74 54.3411 20.74C53.7811 20.74 53.2811 20.875 52.8411 21.145C52.4011 21.415 52.0561 21.795 51.8061 22.285C51.5561 22.775 51.4311 23.34 51.4311 23.98C51.4311 24.64 51.5561 25.215 51.8061 25.705C52.0561 26.195 52.4011 26.57 52.8411 26.83C53.2911 27.09 53.8011 27.22 54.3711 27.22C55.5011 27.22 56.2911 26.79 56.7411 25.93C56.8211 25.79 56.9111 25.685 57.0111 25.615C57.1111 25.545 57.2311 25.51 57.3711 25.51L60.5211 25.51C60.7011 25.51 60.8361 25.555 60.9261 25.645C61.0261 25.735 61.0611 25.86 61.0311 26.02C60.8611 27.03 60.4711 27.93 59.8611 28.72C59.2511 29.51 58.4711 30.13 57.5211 30.58C56.5711 31.02 55.5211 31.24 54.3711 31.24ZM64.5905 31C64.4305 31 64.3005 30.95 64.2005 30.85C64.1005 30.75 64.0505 30.62 64.0505 30.46L64.0505 11.89C64.0505 11.72 64.1005 11.59 64.2005 11.5C64.3005 11.4 64.4305 11.35 64.5905 11.35L67.7105 11.35C67.8805 11.35 68.0105 11.4 68.1005 11.5C68.2005 11.59 68.2505 11.72 68.2505 11.89L68.2505 21.91L72.9305 17.23C73.1105 17.05 73.3305 16.96 73.5905 16.96L77.8505 16.96C78.0005 16.96 78.1155 16.99 78.1955 17.05C78.2755 17.1 78.3155 17.165 78.3155 17.245C78.3155 17.365 78.2505 17.49 78.1205 17.62L73.0205 22.54L78.7205 30.34C78.8105 30.46 78.8555 30.57 78.8555 30.67C78.8555 30.77 78.8155 30.85 78.7355 30.91C78.6555 30.97 78.5405 31 78.3905 31L74.4305 31C74.1305 31 73.9105 30.89 73.7705 30.67L70.1105 25.36L68.2505 27.16L68.2505 30.46C68.2505 30.62 68.2005 30.75 68.1005 30.85C68.0105 30.95 67.8805 31 67.7105 31L64.5905 31ZM87.6924 31.24C86.7124 31.24 85.8524 31.025 85.1124 30.595C84.3724 30.165 83.8024 29.555 83.4024 28.765C83.0024 27.965 82.8024 27.03 82.8024 25.96L82.8024 20.77L80.9124 20.77C80.7524 20.77 80.6224 20.72 80.5224 20.62C80.4224 20.52 80.3724 20.39 80.3724 20.23L80.3724 17.5C80.3724 17.33 80.4224 17.2 80.5224 17.11C80.6224 17.01 80.7524 16.96 80.9124 16.96L82.8024 16.96L82.8024 13.99C82.8024 13.82 82.8524 13.69 82.9524 13.6C83.0524 13.5 83.1824 13.45 83.3424 13.45L86.4624 13.45C86.6324 13.45 86.7624 13.5 86.8524 13.6C86.9524 13.69 87.0024 13.82 87.0024 13.99L87.0024 16.96L90.3024 16.96C90.4724 16.96 90.6024 17.01 90.6924 17.11C90.7924 17.2 90.8424 17.33 90.8424 17.5L90.8424 20.23C90.8424 20.39 90.7924 20.52 90.6924 20.62C90.6024 20.72 90.4724 20.77 90.3024 20.77L87.0024 20.77L87.0024 25.57C87.0024 26.1 87.1474 26.52 87.4374 26.83C87.7274 27.13 88.1324 27.28 88.6524 27.28C89.0424 27.28 89.4124 27.2 89.7624 27.04C89.8824 26.99 89.9774 26.965 90.0474 26.965C90.2174 26.965 90.3524 27.07 90.4524 27.28L91.4424 29.56C91.5024 29.69 91.5324 29.81 91.5324 29.92C91.5324 30.04 91.4924 30.13 91.4124 30.19C90.9724 30.5 90.4274 30.755 89.7774 30.955C89.1274 31.145 88.4324 31.24 87.6924 31.24ZM100.169 31.24C98.7989 31.24 97.5639 30.93 96.4639 30.31C95.3639 29.68 94.4989 28.815 93.8689 27.715C93.2489 26.605 92.9389 25.36 92.9389 23.98C92.9389 22.63 93.2539 21.405 93.8839 20.305C94.5239 19.195 95.3939 18.32 96.4939 17.68C97.6039 17.04 98.8289 16.72 100.169 16.72C101.549 16.72 102.794 17.035 103.904 17.665C105.014 18.285 105.884 19.15 106.514 20.26C107.144 21.36 107.459 22.6 107.459 23.98C107.459 25.33 107.139 26.56 106.499 27.67C105.859 28.77 104.979 29.64 103.859 30.28C102.749 30.92 101.519 31.24 100.169 31.24ZM97.1389 23.98C97.1389 24.62 97.2689 25.185 97.5289 25.675C97.7989 26.165 98.1639 26.545 98.6239 26.815C99.0839 27.085 99.5989 27.22 100.169 27.22C100.729 27.22 101.244 27.08 101.714 26.8C102.184 26.52 102.554 26.135 102.824 25.645C103.094 25.145 103.229 24.59 103.229 23.98C103.229 23.34 103.094 22.775 102.824 22.285C102.564 21.795 102.199 21.415 101.729 21.145C101.269 20.875 100.749 20.74 100.169 20.74C99.6189 20.74 99.1089 20.88 98.6389 21.16C98.1789 21.44 97.8139 21.83 97.5439 22.33C97.2739 22.82 97.1389 23.37 97.1389 23.98ZM118.322 31.24C117.442 31.24 116.672 31.085 116.012 30.775C115.352 30.455 114.822 30.03 114.422 29.5L114.422 30.46C114.422 30.62 114.372 30.75 114.272 30.85C114.182 30.95 114.052 31 113.882 31L110.972 31C110.812 31 110.682 30.95 110.582 30.85C110.482 30.75 110.432 30.62 110.432 30.46L110.432 11.89C110.432 11.72 110.482 11.59 110.582 11.5C110.682 11.4 110.812 11.35 110.972 11.35L114.092 11.35C114.262 11.35 114.392 11.4 114.482 11.5C114.582 11.59 114.632 11.72 114.632 11.89L114.632 18.28C115.032 17.8 115.542 17.42 116.162 17.14C116.792 16.86 117.532 16.72 118.382 16.72C119.592 16.72 120.692 17.04 121.682 17.68C122.672 18.31 123.447 19.18 124.007 20.29C124.577 21.39 124.862 22.62 124.862 23.98C124.862 25.32 124.567 26.545 123.977 27.655C123.397 28.765 122.607 29.64 121.607 30.28C120.607 30.92 119.512 31.24 118.322 31.24ZM114.572 23.98C114.572 24.63 114.702 25.2 114.962 25.69C115.232 26.18 115.597 26.56 116.057 26.83C116.517 27.09 117.032 27.22 117.602 27.22C118.132 27.22 118.627 27.085 119.087 26.815C119.557 26.545 119.932 26.165 120.212 25.675C120.492 25.185 120.632 24.62 120.632 23.98C120.632 23.35 120.497 22.79 120.227 22.3C119.957 21.81 119.592 21.43 119.132 21.16C118.672 20.88 118.162 20.74 117.602 20.74C117.022 20.74 116.502 20.875 116.042 21.145C115.582 21.405 115.222 21.78 114.962 22.27C114.702 22.76 114.572 23.33 114.572 23.98ZM134.486 31.24C133.096 31.24 131.861 30.93 130.781 30.31C129.701 29.68 128.856 28.815 128.246 27.715C127.646 26.615 127.346 25.37 127.346 23.98C127.346 22.65 127.656 21.43 128.276 20.32C128.896 19.21 129.746 18.335 130.826 17.695C131.916 17.045 133.126 16.72 134.456 16.72C135.806 16.72 137.001 17.01 138.041 17.59C139.081 18.16 139.886 18.965 140.456 20.005C141.036 21.035 141.326 22.22 141.326 23.56C141.326 23.71 141.321 23.825 141.311 23.905L141.296 24.31C141.286 24.47 141.231 24.595 141.131 24.685C141.031 24.775 140.896 24.82 140.726 24.82L131.336 24.82C131.486 25.74 131.856 26.445 132.446 26.935C133.036 27.425 133.756 27.67 134.606 27.67C135.196 27.67 135.686 27.58 136.076 27.4C136.476 27.22 136.796 26.95 137.036 26.59C137.126 26.45 137.221 26.35 137.321 26.29C137.421 26.23 137.546 26.2 137.696 26.2L140.636 26.2C140.816 26.2 140.951 26.245 141.041 26.335C141.141 26.415 141.176 26.53 141.146 26.68C140.956 27.57 140.561 28.36 139.961 29.05C139.361 29.74 138.591 30.28 137.651 30.67C136.711 31.05 135.656 31.24 134.486 31.24ZM137.216 22.24C137.066 21.58 136.746 21.075 136.256 20.725C135.776 20.375 135.166 20.2 134.426 20.2C133.716 20.2 133.116 20.375 132.626 20.725C132.136 21.075 131.786 21.58 131.576 22.24L137.216 22.24ZM144.852 31C144.692 31 144.562 30.95 144.462 30.85C144.362 30.75 144.312 30.62 144.312 30.46L144.312 17.5C144.312 17.33 144.362 17.2 144.462 17.11C144.562 17.01 144.692 16.96 144.852 16.96L147.732 16.96C147.902 16.96 148.032 17.01 148.122 17.11C148.222 17.2 148.272 17.33 148.272 17.5L148.272 18.55C148.672 17.98 149.167 17.535 149.757 17.215C150.347 16.885 150.982 16.72 151.662 16.72C151.982 16.72 152.342 16.74 152.742 16.78C153.062 16.84 153.222 17.04 153.222 17.38L153.222 20.53C153.222 20.71 153.167 20.845 153.057 20.935C152.957 21.015 152.812 21.04 152.622 21.01C152.272 20.93 151.902 20.89 151.512 20.89C150.532 20.89 149.787 21.11 149.277 21.55C148.767 21.99 148.512 22.63 148.512 23.47L148.512 30.46C148.512 30.62 148.462 30.75 148.362 30.85C148.272 30.95 148.142 31 147.972 31L144.852 31ZM158.536 31C158.376 31 158.246 30.95 158.146 30.85C158.046 30.75 157.996 30.62 157.996 30.46L157.996 20.77L156.106 20.77C155.946 20.77 155.816 20.72 155.716 20.62C155.616 20.52 155.566 20.39 155.566 20.23L155.566 17.5C155.566 17.33 155.616 17.2 155.716 17.11C155.816 17.01 155.946 16.96 156.106 16.96L157.996 16.96L157.996 16.15C157.996 15.14 158.196 14.255 158.596 13.495C158.996 12.735 159.566 12.15 160.306 11.74C161.046 11.32 161.906 11.11 162.886 11.11C163.566 11.11 164.216 11.2 164.836 11.38C165.456 11.56 165.996 11.8 166.456 12.1C166.636 12.22 166.726 12.37 166.726 12.55C166.726 12.65 166.706 12.74 166.666 12.82L165.736 14.95C165.646 15.16 165.516 15.265 165.346 15.265C165.266 15.265 165.156 15.23 165.016 15.16C164.636 15 164.246 14.92 163.846 14.92C163.316 14.92 162.906 15.045 162.616 15.295C162.336 15.545 162.196 15.91 162.196 16.39L162.196 16.96L165.496 16.96C165.666 16.96 165.796 17.01 165.886 17.11C165.986 17.2 166.036 17.33 166.036 17.5L166.036 20.23C166.036 20.39 165.986 20.52 165.886 20.62C165.796 20.72 165.666 20.77 165.496 20.77L162.196 20.77L162.196 30.46C162.196 30.62 162.146 30.75 162.046 30.85C161.956 30.95 161.826 31 161.656 31L158.536 31ZM175.038 31.24C173.648 31.24 172.413 30.93 171.333 30.31C170.253 29.68 169.408 28.815 168.798 27.715C168.198 26.615 167.898 25.37 167.898 23.98C167.898 22.65 168.208 21.43 168.828 20.32C169.448 19.21 170.298 18.335 171.378 17.695C172.468 17.045 173.678 16.72 175.008 16.72C176.358 16.72 177.553 17.01 178.593 17.59C179.633 18.16 180.438 18.965 181.008 20.005C181.588 21.035 181.878 22.22 181.878 23.56C181.878 23.71 181.873 23.825 181.863 23.905L181.848 24.31C181.838 24.47 181.783 24.595 181.683 24.685C181.583 24.775 181.448 24.82 181.278 24.82L171.888 24.82C172.038 25.74 172.408 26.445 172.998 26.935C173.588 27.425 174.308 27.67 175.158 27.67C175.748 27.67 176.238 27.58 176.628 27.4C177.028 27.22 177.348 26.95 177.588 26.59C177.678 26.45 177.773 26.35 177.873 26.29C177.973 26.23 178.098 26.2 178.248 26.2L181.188 26.2C181.368 26.2 181.503 26.245 181.593 26.335C181.693 26.415 181.728 26.53 181.698 26.68C181.508 27.57 181.113 28.36 180.513 29.05C179.913 29.74 179.143 30.28 178.203 30.67C177.263 31.05 176.208 31.24 175.038 31.24ZM177.768 22.24C177.618 21.58 177.298 21.075 176.808 20.725C176.328 20.375 175.718 20.2 174.978 20.2C174.268 20.2 173.668 20.375 173.178 20.725C172.688 21.075 172.338 21.58 172.128 22.24L177.768 22.24ZM190.804 31.24C189.104 31.24 187.684 30.86 186.544 30.1C185.404 29.34 184.664 28.28 184.324 26.92C184.314 26.88 184.309 26.825 184.309 26.755C184.309 26.615 184.354 26.51 184.444 26.44C184.534 26.36 184.654 26.32 184.804 26.32L187.864 26.32C188.004 26.32 188.124 26.355 188.224 26.425C188.324 26.495 188.414 26.6 188.494 26.74C188.924 27.5 189.714 27.88 190.864 27.88C191.544 27.88 192.044 27.805 192.364 27.655C192.684 27.505 192.844 27.24 192.844 26.86C192.844 26.59 192.729 26.37 192.499 26.2C192.279 26.03 191.939 25.885 191.479 25.765C191.019 25.645 190.374 25.52 189.544 25.39C187.814 25.1 186.524 24.615 185.674 23.935C184.834 23.245 184.414 22.29 184.414 21.07C184.414 20.12 184.674 19.32 185.194 18.67C185.724 18.02 186.439 17.535 187.339 17.215C188.249 16.885 189.274 16.72 190.414 16.72C192.094 16.72 193.469 17.085 194.539 17.815C195.619 18.535 196.344 19.55 196.714 20.86C196.724 20.9 196.729 20.955 196.729 21.025C196.729 21.155 196.684 21.26 196.594 21.34C196.504 21.42 196.384 21.46 196.234 21.46L193.294 21.46C193.154 21.46 193.034 21.425 192.934 21.355C192.834 21.285 192.744 21.18 192.664 21.04C192.484 20.69 192.224 20.425 191.884 20.245C191.554 20.055 191.094 19.96 190.504 19.96C189.264 19.96 188.644 20.31 188.644 21.01C188.644 21.32 188.864 21.565 189.304 21.745C189.754 21.925 190.414 22.07 191.284 22.18C192.594 22.36 193.669 22.62 194.509 22.96C195.349 23.29 195.984 23.76 196.414 24.37C196.854 24.97 197.074 25.76 197.074 26.74C197.074 27.64 196.819 28.43 196.309 29.11C195.799 29.79 195.069 30.315 194.119 30.685C193.179 31.055 192.074 31.24 190.804 31.24ZM206.25 31.24C205.27 31.24 204.41 31.025 203.67 30.595C202.93 30.165 202.36 29.555 201.96 28.765C201.56 27.965 201.36 27.03 201.36 25.96L201.36 20.77L199.47 20.77C199.31 20.77 199.18 20.72 199.08 20.62C198.98 20.52 198.93 20.39 198.93 20.23L198.93 17.5C198.93 17.33 198.98 17.2 199.08 17.11C199.18 17.01 199.31 16.96 199.47 16.96L201.36 16.96L201.36 13.99C201.36 13.82 201.41 13.69 201.51 13.6C201.61 13.5 201.74 13.45 201.9 13.45L205.02 13.45C205.19 13.45 205.32 13.5 205.41 13.6C205.51 13.69 205.56 13.82 205.56 13.99L205.56 16.96L208.86 16.96C209.03 16.96 209.16 17.01 209.25 17.11C209.35 17.2 209.4 17.33 209.4 17.5L209.4 20.23C209.4 20.39 209.35 20.52 209.25 20.62C209.16 20.72 209.03 20.77 208.86 20.77L205.56 20.77L205.56 25.57C205.56 26.1 205.705 26.52 205.995 26.83C206.285 27.13 206.69 27.28 207.21 27.28C207.6 27.28 207.97 27.2 208.32 27.04C208.44 26.99 208.535 26.965 208.605 26.965C208.775 26.965 208.91 27.07 209.01 27.28L210 29.56C210.06 29.69 210.09 29.81 210.09 29.92C210.09 30.04 210.05 30.13 209.97 30.19C209.53 30.5 208.985 30.755 208.335 30.955C207.685 31.145 206.99 31.24 206.25 31.24Z" fill="white"/>
<rect width="69" height="22" rx="4" transform="matrix(0.99468 -0.103012 0.0526224 0.998614 75 42.1079)" fill="#8208F8"/>
<path d="M92.6313 56.3471C92.5465 56.3559 92.4761 56.3364 92.4202 56.2887C92.3644 56.2409 92.3342 56.1744 92.3297 56.0892L92.2531 54.6352C92.2494 54.566 92.2568 54.5036 92.2752 54.4482C92.299 54.3922 92.3385 54.3319 92.3937 54.2672L95.8321 50.5857C96.226 50.1647 96.5029 49.8013 96.6628 49.4956C96.8227 49.1899 96.8949 48.8905 96.8795 48.5976C96.8593 48.2141 96.7319 47.9221 96.4973 47.7215C96.2627 47.5209 95.9597 47.4398 95.5884 47.4782C94.7926 47.5607 94.3312 48.0154 94.2041 48.8425C94.1659 49.0286 94.0646 49.1301 93.9001 49.1471L92.1017 49.3334C92.0062 49.3433 91.9332 49.3241 91.8827 49.2757C91.8374 49.2269 91.8202 49.1537 91.8311 49.0562C91.9361 48.0118 92.3078 47.17 92.9462 46.5309C93.5896 45.886 94.4444 45.5083 95.5107 45.3978C96.1792 45.3286 96.7874 45.3834 97.3356 45.5623C97.8891 45.7406 98.3348 46.0505 98.6727 46.4921C99.016 46.9332 99.2056 47.4945 99.2415 48.1763C99.2772 48.8527 99.1623 49.4563 98.8969 49.9871C98.6365 50.5121 98.236 51.0597 97.6953 51.6297L95.4821 53.9635L99.3016 53.5679C99.3918 53.5586 99.4622 53.578 99.5127 53.6264C99.5683 53.6688 99.5985 53.7353 99.6032 53.8258L99.6824 55.3277C99.6869 55.413 99.664 55.4849 99.6138 55.5437C99.5688 55.6019 99.5013 55.6357 99.4111 55.645L92.6313 56.3471ZM105.377 55.1557C104.496 55.2469 103.718 55.1133 103.043 54.7548C102.373 54.3904 101.842 53.8242 101.45 53.0563C101.062 52.2825 100.839 51.3416 100.781 50.2338C100.724 49.158 100.85 48.1998 101.157 47.3594C101.47 46.513 101.939 45.838 102.563 45.3342C103.192 44.8246 103.942 44.5247 104.812 44.4346C105.698 44.3429 106.475 44.4792 107.145 44.8435C107.82 45.202 108.354 45.7679 108.747 46.5412C109.14 47.3092 109.365 48.2471 109.423 49.3549C109.48 50.436 109.352 51.3971 109.039 52.2381C108.731 53.0786 108.263 53.7537 107.634 54.2633C107.004 54.7676 106.252 55.0651 105.377 55.1557ZM103.184 49.985C103.219 50.6454 103.325 51.1993 103.503 51.6467C103.687 52.0883 103.928 52.4141 104.227 52.6241C104.526 52.8287 104.869 52.911 105.256 52.8709C105.861 52.8083 106.319 52.4957 106.631 51.9333C106.942 51.3656 107.072 50.589 107.02 49.6037C106.985 48.9433 106.876 48.3923 106.693 47.9508C106.51 47.5039 106.266 47.1784 105.962 46.9743C105.662 46.7643 105.319 46.6793 104.932 46.7194C104.333 46.7815 103.877 47.0964 103.566 47.6642C103.259 48.2261 103.132 48.9997 103.184 49.985ZM111.288 54.415C111.204 54.4238 111.133 54.4043 111.077 54.3565C111.021 54.3087 110.991 54.2422 110.987 54.157L110.91 52.703C110.907 52.6338 110.914 52.5715 110.932 52.516C110.956 52.46 110.996 52.3997 111.051 52.3351L114.489 48.6535C114.883 48.2325 115.16 47.8691 115.32 47.5634C115.48 47.2577 115.552 46.9584 115.537 46.6654C115.516 46.282 115.389 45.9899 115.154 45.7893C114.92 45.5887 114.617 45.5076 114.245 45.5461C113.45 45.6285 112.988 46.0832 112.861 46.9104C112.823 47.0964 112.722 47.1979 112.557 47.215L110.759 47.4012C110.663 47.4111 110.59 47.3919 110.54 47.3436C110.495 47.2947 110.477 47.2215 110.488 47.124C110.593 46.0796 110.965 45.2379 111.603 44.5988C112.247 43.9538 113.102 43.5761 114.168 43.4657C114.836 43.3964 115.445 43.4512 115.993 43.6301C116.546 43.8084 116.992 44.1183 117.33 44.5599C117.673 45.001 117.863 45.5624 117.899 46.2441C117.934 46.9205 117.819 47.5241 117.554 48.055C117.294 48.5799 116.893 49.1275 116.352 49.6976L114.139 52.0313L117.959 51.6357C118.049 51.6264 118.119 51.6459 118.17 51.6942C118.225 51.7366 118.256 51.8031 118.26 51.8937L118.339 53.3956C118.344 53.4808 118.321 53.5528 118.271 53.6115C118.226 53.6697 118.158 53.7035 118.068 53.7128L111.288 54.415ZM123.776 53.2502C122.784 53.353 121.939 53.2022 121.24 52.798C120.547 52.3932 120.075 51.7485 119.826 50.864C119.819 50.8433 119.815 50.8142 119.813 50.777C119.809 50.7024 119.83 50.644 119.876 50.6018C119.922 50.5542 119.984 50.5263 120.064 50.5181L121.878 50.3302C122.027 50.3148 122.137 50.3837 122.209 50.5369C122.465 51.0352 122.919 51.2506 123.571 51.183C123.99 51.1396 124.31 50.9753 124.529 50.6902C124.754 50.3992 124.854 50.0273 124.83 49.5746C124.806 49.1166 124.655 48.7681 124.375 48.5293C124.096 48.2905 123.728 48.1947 123.272 48.2419C123.002 48.27 122.765 48.3266 122.561 48.412C122.362 48.4914 122.182 48.6065 122.019 48.7573C121.923 48.8529 121.803 48.9082 121.66 48.923L120.148 49.0796C120.063 49.0884 119.993 49.0689 119.937 49.0211C119.881 48.9733 119.851 48.9069 119.846 48.8216L119.557 43.3253C119.552 43.2347 119.575 43.1627 119.625 43.1093C119.676 43.0506 119.743 43.0168 119.828 43.008L125.923 42.3767C126.014 42.3674 126.084 42.3869 126.134 42.4352C126.19 42.4776 126.22 42.5441 126.225 42.6347L126.304 44.1366C126.309 44.2218 126.286 44.2938 126.235 44.3525C126.191 44.4107 126.123 44.4445 126.033 44.4539L121.768 44.8956L121.881 47.0526C122.394 46.6674 122.985 46.4402 123.654 46.371C124.333 46.3007 124.934 46.375 125.458 46.5939C125.981 46.8127 126.394 47.1582 126.696 47.6303C126.998 48.097 127.167 48.6633 127.202 49.329C127.239 50.0374 127.121 50.6762 126.847 51.2454C126.578 51.8088 126.178 52.2652 125.647 52.6147C125.121 52.9637 124.498 53.1755 123.776 53.2502Z" fill="white"/>
<defs>
<linearGradient id="paint0_linear_3352_2134" x1="0" y1="21" x2="219" y2="21" gradientUnits="userSpaceOnUse">
<stop stop-color="#07A3FF"/>
<stop offset="1" stop-color="#8405F8"/>
</linearGradient>
</defs>
</svg>
