<svg width="167" height="122" viewBox="0 0 167 122" fill="none" xmlns="http://www.w3.org/2000/svg">
<path d="M1.08984 68.1758H166.09V113.176C166.09 117.594 162.508 121.176 158.09 121.176H9.08985C4.67157 121.176 1.08984 117.594 1.08984 113.176V68.1758Z" fill="#800BF8"/>
<path d="M1 8.17578C1 3.7575 4.58172 0.175781 9 0.175781H158C162.418 0.175781 166 3.7575 166 8.17578V68.1758H1V8.17578Z" fill="#CDD3D3"/>
<path d="M31.5923 90.2928C30.7513 90.2928 29.9779 90.0825 29.2723 89.662C28.5666 89.2415 28.0059 88.6615 27.5903 87.922C27.1746 87.1777 26.9668 86.3439 26.9668 85.4208C26.9668 84.5169 27.1746 83.6953 27.5903 82.9558C28.0108 82.2114 28.5739 81.6266 29.2795 81.2013C29.99 80.7759 30.7609 80.5633 31.5923 80.5633C32.2641 80.5633 32.8804 80.6913 33.441 80.9475C34.0017 81.2037 34.4681 81.5493 34.8403 81.9843C35.2173 82.4193 35.4734 82.8978 35.6088 83.4198C35.6184 83.4584 35.6233 83.485 35.6233 83.4995C35.6233 83.5527 35.6039 83.5962 35.5653 83.63C35.5266 83.6638 35.4734 83.6808 35.4058 83.6808H34.3328C34.2023 83.6808 34.1153 83.6179 34.0718 83.4923C33.8929 83.0186 33.5933 82.6416 33.1728 82.3613C32.7571 82.0809 32.2158 81.9408 31.5488 81.9408C30.9688 81.9408 30.4371 82.0906 29.9538 82.3903C29.4753 82.6899 29.0959 83.1056 28.8155 83.6373C28.54 84.1689 28.4023 84.7634 28.4023 85.4208C28.4023 86.0781 28.54 86.675 28.8155 87.2115C29.0959 87.7432 29.4753 88.1613 29.9538 88.4658C30.4371 88.7654 30.9688 88.9153 31.5488 88.9153C32.2496 88.9153 32.8151 88.7727 33.2453 88.4875C33.6803 88.1975 33.9944 87.7988 34.1878 87.2913C34.2313 87.1656 34.3183 87.1028 34.4488 87.1028H35.5218C35.6039 87.1028 35.6644 87.1197 35.703 87.1535C35.7417 87.1873 35.7538 87.2333 35.7393 87.2913C35.6088 87.8374 35.355 88.3401 34.978 88.7993C34.6059 89.2536 34.1274 89.6161 33.5425 89.8868C32.9625 90.1574 32.3124 90.2928 31.5923 90.2928ZM40.0564 90.2928C39.4039 90.2928 38.8215 90.1453 38.3092 89.8505C37.7968 89.5508 37.3957 89.1376 37.1057 88.6108C36.8205 88.0791 36.6779 87.4798 36.6779 86.8128C36.6779 86.1603 36.8229 85.5682 37.1129 85.0365C37.4078 84.5048 37.8113 84.0892 38.3237 83.7895C38.8408 83.485 39.4184 83.3328 40.0564 83.3328C40.7041 83.3328 41.2841 83.4826 41.7964 83.7823C42.3088 84.0771 42.7075 84.4903 42.9927 85.022C43.2778 85.5488 43.4204 86.1458 43.4204 86.8128C43.4204 87.4653 43.273 88.0573 42.9782 88.589C42.6882 89.1207 42.287 89.5388 41.7747 89.8433C41.2623 90.1429 40.6896 90.2928 40.0564 90.2928ZM37.9829 86.8128C37.9829 87.2381 38.0723 87.6223 38.2512 87.9655C38.4348 88.3087 38.6838 88.5793 38.9979 88.7775C39.3121 88.9757 39.6649 89.0748 40.0564 89.0748C40.4431 89.0748 40.7935 88.9781 41.1077 88.7848C41.4218 88.5866 41.6683 88.3159 41.8472 87.9728C42.026 87.6296 42.1154 87.2429 42.1154 86.8128C42.1154 86.3826 42.026 85.9959 41.8472 85.6528C41.6683 85.3096 41.4218 85.0413 41.1077 84.848C40.7935 84.6498 40.4431 84.5508 40.0564 84.5508C39.6649 84.5508 39.3097 84.6498 38.9907 84.848C38.6765 85.0413 38.43 85.3096 38.2512 85.6528C38.0723 85.9959 37.9829 86.3826 37.9829 86.8128ZM44.7601 90.1768C44.6876 90.1768 44.6296 90.1574 44.5861 90.1188C44.5474 90.0753 44.5281 90.0173 44.5281 89.9448V83.6808C44.5281 83.6083 44.5474 83.5527 44.5861 83.514C44.6296 83.4705 44.6876 83.4488 44.7601 83.4488H45.5866C45.6591 83.4488 45.7147 83.4705 45.7533 83.514C45.7968 83.5527 45.8186 83.6083 45.8186 83.6808V84.2463C46.0603 83.9466 46.3406 83.7194 46.6596 83.5648C46.9834 83.4101 47.3411 83.3328 47.7326 83.3328C48.5639 83.3328 49.2068 83.5793 49.6611 84.0723C50.1154 84.5653 50.3426 85.2661 50.3426 86.1748V89.9448C50.3426 90.0173 50.3208 90.0753 50.2773 90.1188C50.2387 90.1574 50.1831 90.1768 50.1106 90.1768H49.2696C49.1971 90.1768 49.1391 90.1574 49.0956 90.1188C49.0569 90.0753 49.0376 90.0173 49.0376 89.9448V86.2763C49.0376 85.7204 48.9047 85.2927 48.6388 84.993C48.3778 84.6885 48.0081 84.5363 47.5296 84.5363C47.0028 84.5363 46.5871 84.6982 46.2826 85.022C45.9829 85.3458 45.8331 85.7881 45.8331 86.3488V89.9448C45.8331 90.0173 45.8113 90.0753 45.7678 90.1188C45.7292 90.1574 45.6736 90.1768 45.6011 90.1768H44.7601ZM54.5692 90.2928C54.1632 90.2928 53.8007 90.2009 53.4817 90.0173C53.1676 89.8336 52.9211 89.5774 52.7422 89.2488C52.5682 88.9201 52.4812 88.5479 52.4812 88.1323V84.6523H51.3067C51.2342 84.6523 51.1762 84.6329 51.1327 84.5943C51.0941 84.5508 51.0747 84.4928 51.0747 84.4203V83.6808C51.0747 83.6083 51.0941 83.5527 51.1327 83.514C51.1762 83.4705 51.2342 83.4488 51.3067 83.4488H52.4812V81.8828C52.4812 81.8103 52.5006 81.7547 52.5392 81.716C52.5827 81.6725 52.6407 81.6508 52.7132 81.6508H53.5542C53.6267 81.6508 53.6823 81.6725 53.721 81.716C53.7645 81.7547 53.7862 81.8103 53.7862 81.8828V83.4488H55.7002C55.7727 83.4488 55.8283 83.4705 55.867 83.514C55.9105 83.5527 55.9322 83.6083 55.9322 83.6808V84.4203C55.9322 84.4928 55.9105 84.5508 55.867 84.5943C55.8283 84.6329 55.7727 84.6523 55.7002 84.6523H53.7862V88.0308C53.7862 88.3643 53.8708 88.6228 54.04 88.8065C54.2091 88.9853 54.4484 89.0748 54.7577 89.0748C54.8979 89.0748 55.0284 89.053 55.1492 89.0095C55.2749 88.966 55.4006 88.9008 55.5262 88.8138C55.5746 88.7799 55.6229 88.763 55.6712 88.763C55.7389 88.763 55.7969 88.7993 55.8452 88.8718L56.2077 89.4083C56.2561 89.4904 56.2802 89.5484 56.2802 89.5823C56.2802 89.6161 56.2657 89.6451 56.2367 89.6693C56.0386 89.8433 55.7945 89.9907 55.5045 90.1115C55.2193 90.2323 54.9076 90.2928 54.5692 90.2928ZM57.3485 90.1768C57.276 90.1768 57.218 90.1574 57.1745 90.1188C57.1358 90.0753 57.1165 90.0173 57.1165 89.9448V83.6808C57.1165 83.6083 57.1358 83.5527 57.1745 83.514C57.218 83.4705 57.276 83.4488 57.3485 83.4488H58.175C58.2475 83.4488 58.303 83.4705 58.3417 83.514C58.3852 83.5527 58.407 83.6083 58.407 83.6808V84.2318C58.6293 83.9369 58.883 83.7146 59.1682 83.5648C59.4534 83.4101 59.7506 83.3328 60.06 83.3328C60.3065 83.3328 60.5433 83.3569 60.7705 83.4053C60.8961 83.4343 60.959 83.5213 60.959 83.6663V84.4638C60.959 84.5266 60.942 84.5773 60.9082 84.616C60.8792 84.6498 60.8381 84.6668 60.785 84.6668C60.7656 84.6668 60.7366 84.6619 60.698 84.6523C60.5046 84.6039 60.2871 84.5798 60.0455 84.5798C59.538 84.5798 59.1392 84.7393 58.8492 85.0583C58.564 85.3724 58.4215 85.8074 58.4215 86.3633V89.9448C58.4215 90.0173 58.3997 90.0753 58.3562 90.1188C58.3175 90.1574 58.262 90.1768 58.1895 90.1768H57.3485ZM62.3187 90.1768C62.2462 90.1768 62.1882 90.1574 62.1447 90.1188C62.106 90.0753 62.0867 90.0173 62.0867 89.9448V83.6808C62.0867 83.6083 62.106 83.5527 62.1447 83.514C62.1882 83.4705 62.2462 83.4488 62.3187 83.4488H63.1597C63.2322 83.4488 63.2878 83.4705 63.3264 83.514C63.3699 83.5527 63.3917 83.6083 63.3917 83.6808V89.9448C63.3917 90.0173 63.3699 90.0753 63.3264 90.1188C63.2878 90.1574 63.2322 90.1768 63.1597 90.1768H62.3187ZM62.7392 82.3178C62.483 82.3178 62.2703 82.2356 62.1012 82.0713C61.9368 81.9021 61.8547 81.6943 61.8547 81.4478C61.8547 81.1964 61.9368 80.9886 62.1012 80.8243C62.2703 80.6599 62.483 80.5778 62.7392 80.5778C63.0002 80.5778 63.2128 80.6599 63.3772 80.8243C63.5415 80.9886 63.6237 81.1964 63.6237 81.4478C63.6237 81.6943 63.5415 81.9021 63.3772 82.0713C63.2128 82.2356 63.0002 82.3178 62.7392 82.3178ZM68.1425 90.2928C67.6688 90.2928 67.2483 90.213 66.881 90.0535C66.5136 89.8892 66.2236 89.6644 66.011 89.3793V89.9448C66.011 90.0173 65.9892 90.0753 65.9457 90.1188C65.9071 90.1574 65.8515 90.1768 65.779 90.1768H64.9525C64.88 90.1768 64.822 90.1574 64.7785 90.1188C64.7398 90.0753 64.7205 90.0173 64.7205 89.9448V80.9113C64.7205 80.8388 64.7398 80.7832 64.7785 80.7445C64.822 80.701 64.88 80.6793 64.9525 80.6793H65.7935C65.866 80.6793 65.9216 80.701 65.9602 80.7445C66.0037 80.7832 66.0255 80.8388 66.0255 80.9113V84.3043C66.243 84.0046 66.533 83.7678 66.8955 83.5938C67.258 83.4198 67.6785 83.3328 68.157 83.3328C68.7611 83.3328 69.3121 83.4802 69.81 83.775C70.3126 84.065 70.709 84.4734 70.999 85.0003C71.289 85.5271 71.434 86.1313 71.434 86.8128C71.434 87.4798 71.2866 88.0791 70.9917 88.6108C70.6969 89.1376 70.2981 89.5508 69.7955 89.8505C69.2928 90.1453 68.7418 90.2928 68.1425 90.2928ZM65.9965 86.8128C65.9965 87.3009 66.0859 87.7142 66.2647 88.0525C66.4484 88.3908 66.6973 88.647 67.0115 88.821C67.3256 88.9902 67.6833 89.0748 68.0845 89.0748C68.4325 89.0748 68.7611 88.9878 69.0705 88.8138C69.3846 88.6398 69.6384 88.3836 69.8317 88.0453C70.0299 87.7021 70.129 87.2913 70.129 86.8128C70.129 86.3778 70.0396 85.9887 69.8607 85.6455C69.6819 85.2975 69.4354 85.0293 69.1212 84.8408C68.8119 84.6474 68.4663 84.5508 68.0845 84.5508C67.6881 84.5508 67.3305 84.6378 67.0115 84.8118C66.6973 84.9809 66.4484 85.2371 66.2647 85.5803C66.0859 85.9186 65.9965 86.3294 65.9965 86.8128ZM75.0454 90.2928C74.2237 90.2928 73.5905 90.0487 73.1459 89.5605C72.7012 89.0675 72.4789 88.3643 72.4789 87.4508V83.6808C72.4789 83.6083 72.4982 83.5527 72.5369 83.514C72.5804 83.4705 72.6384 83.4488 72.7109 83.4488H73.5519C73.6244 83.4488 73.68 83.4705 73.7186 83.514C73.7621 83.5527 73.7839 83.6083 73.7839 83.6808V87.3348C73.7839 87.6876 73.8443 87.9969 73.9651 88.2628C74.086 88.5238 74.2551 88.7243 74.4726 88.8645C74.695 89.0047 74.9535 89.0748 75.2484 89.0748C75.78 89.0748 76.1933 88.9153 76.4881 88.5963C76.783 88.2724 76.9304 87.8326 76.9304 87.2768V83.6808C76.9304 83.6083 76.9497 83.5527 76.9884 83.514C77.0319 83.4705 77.0899 83.4488 77.1624 83.4488H78.0034C78.0759 83.4488 78.1315 83.4705 78.1701 83.514C78.2136 83.5527 78.2354 83.6083 78.2354 83.6808V89.9448C78.2354 90.0173 78.2136 90.0753 78.1701 90.1188C78.1315 90.1574 78.0759 90.1768 78.0034 90.1768H77.1769C77.1044 90.1768 77.0464 90.1574 77.0029 90.1188C76.9642 90.0753 76.9449 90.0173 76.9449 89.9448V89.3793C76.7129 89.6789 76.435 89.9061 76.1111 90.0608C75.7921 90.2154 75.4369 90.2928 75.0454 90.2928ZM82.692 90.2928C82.0636 90.2928 81.4957 90.1478 80.9882 89.8578C80.4807 89.5629 80.0796 89.1521 79.7847 88.6253C79.4899 88.0984 79.3425 87.4943 79.3425 86.8128C79.3425 86.1458 79.4899 85.5488 79.7847 85.022C80.0844 84.4903 80.4904 84.0771 81.0027 83.7823C81.5151 83.4826 82.083 83.3328 82.7065 83.3328C83.1656 83.3328 83.5765 83.4149 83.939 83.5793C84.3015 83.7436 84.5915 83.9708 84.809 84.2608V83.6808C84.809 83.6083 84.8283 83.5527 84.867 83.514C84.9105 83.4705 84.9685 83.4488 85.041 83.4488H85.853C85.9255 83.4488 85.9811 83.4705 86.0197 83.514C86.0632 83.5527 86.085 83.6083 86.085 83.6808V89.9448C86.085 90.0173 86.0632 90.0753 86.0197 90.1188C85.9811 90.1574 85.9255 90.1768 85.853 90.1768H85.041C84.9685 90.1768 84.9105 90.1574 84.867 90.1188C84.8283 90.0753 84.809 90.0173 84.809 89.9448V89.3068C84.5963 89.6161 84.3063 89.8578 83.939 90.0318C83.5716 90.2058 83.156 90.2928 82.692 90.2928ZM80.6475 86.8128C80.6475 87.2478 80.7369 87.6393 80.9157 87.9873C81.0946 88.3304 81.3386 88.5987 81.648 88.792C81.9621 88.9805 82.3101 89.0748 82.692 89.0748C83.0883 89.0748 83.4436 88.9902 83.7577 88.821C84.0767 88.647 84.3256 88.3908 84.5045 88.0525C84.6881 87.7093 84.78 87.2961 84.78 86.8128C84.78 86.3246 84.6881 85.9113 84.5045 85.573C84.3256 85.2347 84.0791 84.9809 83.765 84.8118C83.4508 84.6378 83.0931 84.5508 82.692 84.5508C82.344 84.5508 82.0129 84.6378 81.6987 84.8118C81.3894 84.9858 81.1356 85.2443 80.9375 85.5875C80.7441 85.9258 80.6475 86.3343 80.6475 86.8128ZM93.0006 90.2928C92.3336 90.2928 91.7463 90.1478 91.2388 89.8578C90.7313 89.5629 90.3398 89.1521 90.0643 88.6253C89.7888 88.0984 89.6511 87.4943 89.6511 86.8128C89.6511 86.1699 89.7936 85.5851 90.0788 85.0583C90.364 84.5266 90.7627 84.1061 91.2751 83.7968C91.7874 83.4874 92.3722 83.3328 93.0296 83.3328C93.6627 83.3328 94.2137 83.4657 94.6826 83.7315C95.1562 83.9973 95.5211 84.3792 95.7773 84.877C96.0335 85.3748 96.1616 85.9621 96.1616 86.6388C96.1616 86.8224 96.1567 86.9578 96.1471 87.0448C96.1471 87.1898 96.0697 87.2623 95.9151 87.2623H90.9561C91.0431 87.8278 91.2775 88.2773 91.6593 88.6108C92.0411 88.9394 92.5172 89.1038 93.0876 89.1038C93.4597 89.1038 93.7763 89.0192 94.0373 88.85C94.3031 88.6808 94.5086 88.4658 94.6536 88.2048C94.6922 88.1419 94.7309 88.0984 94.7696 88.0743C94.8131 88.0453 94.8662 88.0308 94.9291 88.0308H95.8136C95.8812 88.0308 95.9344 88.0428 95.9731 88.067C96.0166 88.0912 96.0383 88.1274 96.0383 88.1758C96.0383 88.1999 96.0359 88.2193 96.0311 88.2338C95.9102 88.6349 95.7145 88.9902 95.4438 89.2995C95.1731 89.6088 94.83 89.8529 94.4143 90.0318C94.0035 90.2058 93.5322 90.2928 93.0006 90.2928ZM94.8421 86.0878C94.7647 85.5851 94.5617 85.1984 94.2331 84.9278C93.9092 84.6571 93.4984 84.5218 93.0006 84.5218C92.4931 84.5218 92.0629 84.6619 91.7101 84.9423C91.3621 85.2226 91.1301 85.6044 91.0141 86.0878H94.8421ZM102.668 93.0768C102.107 93.0768 101.605 93.0091 101.16 92.8738C100.715 92.7384 100.28 92.5403 99.8549 92.2793C99.7727 92.2406 99.7316 92.1778 99.7316 92.0908C99.7316 92.0424 99.7437 91.9989 99.7679 91.9603L100.116 91.3368C100.159 91.2498 100.22 91.2063 100.297 91.2063C100.341 91.2063 100.387 91.2208 100.435 91.2498C100.773 91.4479 101.121 91.5978 101.479 91.6993C101.841 91.8056 102.238 91.8588 102.668 91.8588C103.369 91.8588 103.915 91.6437 104.306 91.2135C104.703 90.7833 104.901 90.1526 104.901 89.3213V89.0893C104.688 89.4083 104.389 89.6596 104.002 89.8433C103.62 90.0269 103.19 90.1188 102.711 90.1188C102.117 90.1188 101.573 89.9762 101.08 89.691C100.592 89.4058 100.205 89.0071 99.9201 88.4948C99.635 87.9776 99.4924 87.3879 99.4924 86.7258C99.4924 86.0781 99.6398 85.4957 99.9346 84.9785C100.229 84.4613 100.628 84.0578 101.131 83.7678C101.634 83.4778 102.185 83.3328 102.784 83.3328C103.253 83.3328 103.671 83.4173 104.038 83.5865C104.405 83.7557 104.698 83.9853 104.915 84.2753V83.6808C104.915 83.6083 104.935 83.5527 104.973 83.514C105.017 83.4705 105.075 83.4488 105.147 83.4488H105.974C106.046 83.4488 106.102 83.4705 106.141 83.514C106.184 83.5527 106.206 83.6083 106.206 83.6808V89.0748C106.206 90.3991 105.901 91.3972 105.292 92.069C104.683 92.7408 103.809 93.0768 102.668 93.0768ZM100.797 86.7258C100.797 87.1463 100.884 87.5208 101.058 87.8495C101.232 88.1782 101.469 88.4368 101.769 88.6253C102.073 88.8089 102.412 88.9008 102.784 88.9008C103.195 88.9008 103.562 88.821 103.886 88.6615C104.21 88.4972 104.463 88.2531 104.647 87.9293C104.836 87.6006 104.93 87.1994 104.93 86.7258C104.93 86.2666 104.838 85.8727 104.654 85.544C104.476 85.2153 104.227 84.9688 103.908 84.8045C103.593 84.6353 103.238 84.5508 102.842 84.5508C102.494 84.5508 102.163 84.6353 101.849 84.8045C101.539 84.9688 101.286 85.2153 101.087 85.544C100.894 85.8727 100.797 86.2666 100.797 86.7258ZM110.658 90.2928C110.03 90.2928 109.462 90.1478 108.955 89.8578C108.447 89.5629 108.046 89.1521 107.751 88.6253C107.456 88.0984 107.309 87.4943 107.309 86.8128C107.309 86.1458 107.456 85.5488 107.751 85.022C108.051 84.4903 108.457 84.0771 108.969 83.7823C109.481 83.4826 110.049 83.3328 110.673 83.3328C111.132 83.3328 111.543 83.4149 111.905 83.5793C112.268 83.7436 112.558 83.9708 112.775 84.2608V83.6808C112.775 83.6083 112.795 83.5527 112.833 83.514C112.877 83.4705 112.935 83.4488 113.007 83.4488H113.819C113.892 83.4488 113.947 83.4705 113.986 83.514C114.03 83.5527 114.051 83.6083 114.051 83.6808V89.9448C114.051 90.0173 114.03 90.0753 113.986 90.1188C113.947 90.1574 113.892 90.1768 113.819 90.1768H113.007C112.935 90.1768 112.877 90.1574 112.833 90.1188C112.795 90.0753 112.775 90.0173 112.775 89.9448V89.3068C112.563 89.6161 112.273 89.8578 111.905 90.0318C111.538 90.2058 111.122 90.2928 110.658 90.2928ZM108.614 86.8128C108.614 87.2478 108.703 87.6393 108.882 87.9873C109.061 88.3304 109.305 88.5987 109.614 88.792C109.928 88.9805 110.276 89.0748 110.658 89.0748C111.055 89.0748 111.41 88.9902 111.724 88.821C112.043 88.647 112.292 88.3908 112.471 88.0525C112.654 87.7093 112.746 87.2961 112.746 86.8128C112.746 86.3246 112.654 85.9113 112.471 85.573C112.292 85.2347 112.045 84.9809 111.731 84.8118C111.417 84.6378 111.059 84.5508 110.658 84.5508C110.31 84.5508 109.979 84.6378 109.665 84.8118C109.356 84.9858 109.102 85.2443 108.904 85.5875C108.71 85.9258 108.614 86.3343 108.614 86.8128ZM115.618 90.1768C115.545 90.1768 115.487 90.1574 115.444 90.1188C115.405 90.0753 115.386 90.0173 115.386 89.9448V83.6808C115.386 83.6083 115.405 83.5527 115.444 83.514C115.487 83.4705 115.545 83.4488 115.618 83.4488H116.444C116.517 83.4488 116.572 83.4705 116.611 83.514C116.654 83.5527 116.676 83.6083 116.676 83.6808V84.2463C116.918 83.9466 117.198 83.7194 117.517 83.5648C117.841 83.4101 118.199 83.3328 118.59 83.3328C119.421 83.3328 120.064 83.5793 120.519 84.0723C120.973 84.5653 121.2 85.2661 121.2 86.1748V89.9448C121.2 90.0173 121.178 90.0753 121.135 90.1188C121.096 90.1574 121.041 90.1768 120.968 90.1768H120.127C120.055 90.1768 119.997 90.1574 119.953 90.1188C119.914 90.0753 119.895 90.0173 119.895 89.9448V86.2763C119.895 85.7204 119.762 85.2927 119.496 84.993C119.235 84.6885 118.866 84.5363 118.387 84.5363C117.86 84.5363 117.445 84.6982 117.14 85.022C116.84 85.3458 116.691 85.7881 116.691 86.3488V89.9448C116.691 90.0173 116.669 90.0753 116.625 90.1188C116.587 90.1574 116.531 90.1768 116.459 90.1768H115.618ZM122.712 90.1768C122.639 90.1768 122.581 90.1574 122.538 90.1188C122.499 90.0753 122.48 90.0173 122.48 89.9448V80.9113C122.48 80.8388 122.499 80.7832 122.538 80.7445C122.581 80.701 122.639 80.6793 122.712 80.6793H123.553C123.625 80.6793 123.681 80.701 123.719 80.7445C123.763 80.7832 123.785 80.8388 123.785 80.9113V84.2173C124.273 83.6276 124.906 83.3328 125.684 83.3328C126.516 83.3328 127.158 83.5793 127.613 84.0723C128.067 84.5653 128.294 85.2661 128.294 86.1748V89.9448C128.294 90.0173 128.272 90.0753 128.229 90.1188C128.19 90.1574 128.135 90.1768 128.062 90.1768H127.221C127.149 90.1768 127.091 90.1574 127.047 90.1188C127.009 90.0753 126.989 90.0173 126.989 89.9448V86.2763C126.989 85.7204 126.856 85.2927 126.59 84.993C126.329 84.6885 125.96 84.5363 125.481 84.5363C124.954 84.5363 124.539 84.6982 124.234 85.022C123.935 85.3458 123.785 85.7881 123.785 86.3488V89.9448C123.785 90.0173 123.763 90.0753 123.719 90.1188C123.681 90.1574 123.625 90.1768 123.553 90.1768H122.712ZM132.691 90.2928C132.024 90.2928 131.437 90.1478 130.93 89.8578C130.422 89.5629 130.031 89.1521 129.755 88.6253C129.48 88.0984 129.342 87.4943 129.342 86.8128C129.342 86.1699 129.485 85.5851 129.77 85.0583C130.055 84.5266 130.454 84.1061 130.966 83.7968C131.478 83.4874 132.063 83.3328 132.72 83.3328C133.354 83.3328 133.905 83.4657 134.373 83.7315C134.847 83.9973 135.212 84.3792 135.468 84.877C135.724 85.3748 135.852 85.9621 135.852 86.6388C135.852 86.8224 135.848 86.9578 135.838 87.0448C135.838 87.1898 135.761 87.2623 135.606 87.2623H130.647C130.734 87.8278 130.968 88.2773 131.35 88.6108C131.732 88.9394 132.208 89.1038 132.778 89.1038C133.151 89.1038 133.467 89.0192 133.728 88.85C133.994 88.6808 134.199 88.4658 134.344 88.2048C134.383 88.1419 134.422 88.0984 134.46 88.0743C134.504 88.0453 134.557 88.0308 134.62 88.0308H135.504C135.572 88.0308 135.625 88.0428 135.664 88.067C135.707 88.0912 135.729 88.1274 135.729 88.1758C135.729 88.1999 135.727 88.2193 135.722 88.2338C135.601 88.6349 135.405 88.9902 135.135 89.2995C134.864 89.6088 134.521 89.8529 134.105 90.0318C133.694 90.2058 133.223 90.2928 132.691 90.2928ZM134.533 86.0878C134.456 85.5851 134.253 85.1984 133.924 84.9278C133.6 84.6571 133.189 84.5218 132.691 84.5218C132.184 84.5218 131.754 84.6619 131.401 84.9423C131.053 85.2226 130.821 85.6044 130.705 86.0878H134.533ZM25.5748 107.177C25.5023 107.177 25.4443 107.157 25.4008 107.119C25.3622 107.075 25.3428 107.017 25.3428 106.945V99.1148L23.1968 100.289C23.1485 100.313 23.1098 100.326 23.0808 100.326C23.0325 100.326 22.9938 100.306 22.9648 100.268C22.9358 100.229 22.9213 100.178 22.9213 100.115V99.2888C22.9213 99.1728 22.9745 99.0809 23.0808 99.0133L25.2558 97.7518C25.3283 97.7034 25.425 97.6793 25.5458 97.6793H26.4738C26.5463 97.6793 26.6019 97.701 26.6406 97.7445C26.6841 97.7832 26.7058 97.8388 26.7058 97.9113V106.945C26.7058 107.017 26.6841 107.075 26.6406 107.119C26.6019 107.157 26.5463 107.177 26.4738 107.177H25.5748ZM34.1587 107.293C33.4965 107.293 32.9093 107.148 32.397 106.858C31.8846 106.563 31.4859 106.155 31.2007 105.633C30.9204 105.106 30.7802 104.499 30.7802 103.813C30.7802 103.165 30.9252 102.575 31.2152 102.044C31.5052 101.512 31.9088 101.094 32.426 100.79C32.948 100.485 33.54 100.333 34.2022 100.333C34.9562 100.333 35.5918 100.519 36.109 100.891C36.6261 101.263 36.9765 101.783 37.1602 102.45C37.1699 102.488 37.1747 102.515 37.1747 102.53C37.1747 102.583 37.1554 102.626 37.1167 102.66C37.078 102.694 37.0249 102.711 36.9572 102.711H36.0872C35.9615 102.711 35.8697 102.648 35.8117 102.522C35.686 102.218 35.483 101.981 35.2027 101.812C34.9272 101.638 34.5937 101.551 34.2022 101.551C33.7865 101.551 33.4168 101.647 33.093 101.841C32.774 102.034 32.525 102.302 32.3462 102.646C32.1722 102.989 32.0852 103.378 32.0852 103.813C32.0852 104.238 32.1722 104.625 32.3462 104.973C32.5202 105.316 32.7643 105.587 33.0785 105.785C33.3975 105.978 33.7575 106.075 34.1587 106.075C34.5599 106.075 34.9055 105.988 35.1955 105.814C35.4903 105.635 35.7054 105.384 35.8407 105.06C35.8987 104.934 35.9905 104.871 36.1162 104.871H36.9862C37.0684 104.871 37.1288 104.891 37.1675 104.929C37.2061 104.968 37.2182 105.021 37.2037 105.089C37.0249 105.765 36.672 106.302 36.1452 106.698C35.6232 107.095 34.961 107.293 34.1587 107.293ZM41.2948 107.293C40.6664 107.293 40.0985 107.148 39.591 106.858C39.0835 106.563 38.6823 106.152 38.3875 105.625C38.0927 105.098 37.9453 104.494 37.9453 103.813C37.9453 103.146 38.0927 102.549 38.3875 102.022C38.6872 101.49 39.0932 101.077 39.6055 100.782C40.1178 100.483 40.6858 100.333 41.3093 100.333C41.7684 100.333 42.1793 100.415 42.5418 100.579C42.9043 100.744 43.1943 100.971 43.4118 101.261V100.681C43.4118 100.608 43.4311 100.553 43.4698 100.514C43.5133 100.471 43.5713 100.449 43.6438 100.449H44.4558C44.5283 100.449 44.5838 100.471 44.6225 100.514C44.666 100.553 44.6878 100.608 44.6878 100.681V106.945C44.6878 107.017 44.666 107.075 44.6225 107.119C44.5838 107.157 44.5283 107.177 44.4558 107.177H43.6438C43.5713 107.177 43.5133 107.157 43.4698 107.119C43.4311 107.075 43.4118 107.017 43.4118 106.945V106.307C43.1991 106.616 42.9091 106.858 42.5418 107.032C42.1744 107.206 41.7588 107.293 41.2948 107.293ZM39.2503 103.813C39.2503 104.248 39.3397 104.639 39.5185 104.987C39.6973 105.33 39.9414 105.599 40.2508 105.792C40.5649 105.981 40.9129 106.075 41.2948 106.075C41.6911 106.075 42.0463 105.99 42.3605 105.821C42.6795 105.647 42.9284 105.391 43.1073 105.053C43.2909 104.709 43.3828 104.296 43.3828 103.813C43.3828 103.325 43.2909 102.911 43.1073 102.573C42.9284 102.235 42.6819 101.981 42.3678 101.812C42.0536 101.638 41.6959 101.551 41.2948 101.551C40.9468 101.551 40.6157 101.638 40.3015 101.812C39.9922 101.986 39.7384 102.244 39.5403 102.588C39.3469 102.926 39.2503 103.334 39.2503 103.813ZM46.254 107.177C46.1815 107.177 46.1235 107.157 46.08 107.119C46.0413 107.075 46.022 107.017 46.022 106.945V100.681C46.022 100.608 46.0413 100.553 46.08 100.514C46.1235 100.471 46.1815 100.449 46.254 100.449H47.0805C47.153 100.449 47.2086 100.471 47.2472 100.514C47.2907 100.553 47.3125 100.608 47.3125 100.681V101.232C47.5493 100.937 47.8248 100.715 48.139 100.565C48.4531 100.41 48.7963 100.333 49.1685 100.333C49.6905 100.333 50.1376 100.432 50.5097 100.63C50.8819 100.828 51.1743 101.121 51.387 101.507C51.8703 100.724 52.6098 100.333 53.6055 100.333C54.4126 100.333 55.0361 100.582 55.476 101.08C55.9206 101.573 56.143 102.271 56.143 103.175V106.945C56.143 107.017 56.1212 107.075 56.0777 107.119C56.0391 107.157 55.9835 107.177 55.911 107.177H55.07C54.9975 107.177 54.9395 107.157 54.896 107.119C54.8573 107.075 54.838 107.017 54.838 106.945V103.276C54.838 102.716 54.7099 102.285 54.4537 101.986C54.2024 101.686 53.8423 101.536 53.3735 101.536C52.8563 101.536 52.4527 101.701 52.1627 102.029C51.8776 102.353 51.735 102.793 51.735 103.349V106.945C51.735 107.017 51.7132 107.075 51.6697 107.119C51.6311 107.157 51.5755 107.177 51.503 107.177H50.662C50.5895 107.177 50.5315 107.157 50.488 107.119C50.4493 107.075 50.43 107.017 50.43 106.945V103.276C50.43 102.725 50.3019 102.298 50.0457 101.993C49.7944 101.689 49.4343 101.536 48.9655 101.536C48.4483 101.536 48.0447 101.701 47.7547 102.029C47.4696 102.353 47.327 102.793 47.327 103.349V106.945C47.327 107.017 47.3052 107.075 47.2617 107.119C47.2231 107.157 47.1675 107.177 47.095 107.177H46.254ZM57.6529 107.177C57.5804 107.177 57.5224 107.157 57.4789 107.119C57.4402 107.075 57.4209 107.017 57.4209 106.945V100.681C57.4209 100.608 57.4402 100.553 57.4789 100.514C57.5224 100.471 57.5804 100.449 57.6529 100.449H58.4939C58.5664 100.449 58.622 100.471 58.6607 100.514C58.7042 100.553 58.7259 100.608 58.7259 100.681V106.945C58.7259 107.017 58.7042 107.075 58.6607 107.119C58.622 107.157 58.5664 107.177 58.4939 107.177H57.6529ZM58.0734 99.3178C57.8172 99.3178 57.6046 99.2356 57.4354 99.0713C57.2711 98.9021 57.1889 98.6943 57.1889 98.4478C57.1889 98.1964 57.2711 97.9886 57.4354 97.8243C57.6046 97.6599 57.8172 97.5778 58.0734 97.5778C58.3344 97.5778 58.5471 97.6599 58.7114 97.8243C58.8757 97.9886 58.9579 98.1964 58.9579 98.4478C58.9579 98.6943 58.8757 98.9021 58.7114 99.0713C58.5471 99.2356 58.3344 99.3178 58.0734 99.3178ZM62.8097 107.293C61.9784 107.293 61.3041 107.109 60.7869 106.742C60.2698 106.374 59.9339 105.857 59.7792 105.19C59.7647 105.118 59.7768 105.06 59.8154 105.016C59.8589 104.968 59.9194 104.944 59.9967 104.944H60.8377C60.9634 104.944 61.0552 105.007 61.1132 105.132C61.2534 105.475 61.4539 105.722 61.7149 105.872C61.9759 106.017 62.3505 106.089 62.8387 106.089C63.2544 106.089 63.5758 106.024 63.8029 105.894C64.0301 105.758 64.1437 105.562 64.1437 105.306C64.1437 105.113 64.0784 104.956 63.9479 104.835C63.8174 104.714 63.6265 104.618 63.3752 104.545C63.1239 104.473 62.7952 104.407 62.3892 104.349C61.524 104.228 60.8836 104.013 60.4679 103.704C60.0571 103.395 59.8517 102.948 59.8517 102.363C59.8517 101.976 59.9604 101.628 60.1779 101.319C60.4003 101.009 60.7072 100.768 61.0987 100.594C61.495 100.42 61.9445 100.333 62.4472 100.333C63.2205 100.333 63.8585 100.516 64.3612 100.884C64.8687 101.251 65.1925 101.754 65.3327 102.392C65.3472 102.469 65.3351 102.53 65.2964 102.573C65.2578 102.617 65.1974 102.638 65.1152 102.638H64.3032C64.2404 102.638 64.1872 102.624 64.1437 102.595C64.105 102.566 64.0712 102.517 64.0422 102.45C63.8924 102.116 63.6918 101.882 63.4404 101.747C63.1891 101.606 62.8387 101.536 62.3892 101.536C61.9784 101.536 61.6666 101.604 61.4539 101.739C61.2461 101.87 61.1422 102.063 61.1422 102.319C61.1422 102.556 61.2606 102.73 61.4974 102.841C61.7391 102.952 62.0799 103.044 62.5197 103.117C63.1722 103.228 63.699 103.351 64.1002 103.487C64.5062 103.622 64.8324 103.832 65.0789 104.117C65.3254 104.398 65.4487 104.779 65.4487 105.263C65.4487 105.654 65.3399 106.005 65.1224 106.314C64.9049 106.623 64.5956 106.865 64.1944 107.039C63.7933 107.208 63.3317 107.293 62.8097 107.293ZM69.7 107.293C69.033 107.293 68.4458 107.148 67.9383 106.858C67.4308 106.563 67.0393 106.152 66.7638 105.625C66.4883 105.098 66.3505 104.494 66.3505 103.813C66.3505 103.17 66.4931 102.585 66.7783 102.058C67.0634 101.527 67.4622 101.106 67.9745 100.797C68.4869 100.487 69.0717 100.333 69.729 100.333C70.3622 100.333 70.9132 100.466 71.382 100.732C71.8557 100.997 72.2206 101.379 72.4768 101.877C72.7329 102.375 72.861 102.962 72.861 103.639C72.861 103.822 72.8562 103.958 72.8465 104.045C72.8465 104.19 72.7692 104.262 72.6145 104.262H67.6555C67.7425 104.828 67.9769 105.277 68.3588 105.611C68.7406 105.939 69.2167 106.104 69.787 106.104C70.1592 106.104 70.4758 106.019 70.7368 105.85C71.0026 105.681 71.208 105.466 71.353 105.205C71.3917 105.142 71.4304 105.098 71.469 105.074C71.5125 105.045 71.5657 105.031 71.6285 105.031H72.513C72.5807 105.031 72.6339 105.043 72.6725 105.067C72.716 105.091 72.7378 105.127 72.7378 105.176C72.7378 105.2 72.7354 105.219 72.7305 105.234C72.6097 105.635 72.4139 105.99 72.1433 106.3C71.8726 106.609 71.5294 106.853 71.1138 107.032C70.7029 107.206 70.2317 107.293 69.7 107.293ZM71.5415 103.088C71.4642 102.585 71.2612 102.198 70.9325 101.928C70.6087 101.657 70.1979 101.522 69.7 101.522C69.1925 101.522 68.7624 101.662 68.4095 101.942C68.0615 102.223 67.8295 102.604 67.7135 103.088H71.5415ZM76.9069 107.293C76.5009 107.293 76.1384 107.201 75.8194 107.017C75.5052 106.834 75.2587 106.577 75.0799 106.249C74.9059 105.92 74.8189 105.548 74.8189 105.132V101.652H73.6444C73.5719 101.652 73.5139 101.633 73.4704 101.594C73.4317 101.551 73.4124 101.493 73.4124 101.42V100.681C73.4124 100.608 73.4317 100.553 73.4704 100.514C73.5139 100.471 73.5719 100.449 73.6444 100.449H74.8189V98.8828C74.8189 98.8103 74.8382 98.7547 74.8769 98.716C74.9204 98.6725 74.9784 98.6508 75.0509 98.6508H75.8919C75.9644 98.6508 76.02 98.6725 76.0586 98.716C76.1021 98.7547 76.1239 98.8103 76.1239 98.8828V100.449H78.0379C78.1104 100.449 78.166 100.471 78.2046 100.514C78.2481 100.553 78.2699 100.608 78.2699 100.681V101.42C78.2699 101.493 78.2481 101.551 78.2046 101.594C78.166 101.633 78.1104 101.652 78.0379 101.652H76.1239V105.031C76.1239 105.364 76.2085 105.623 76.3776 105.807C76.5468 105.985 76.786 106.075 77.0954 106.075C77.2355 106.075 77.366 106.053 77.4869 106.01C77.6125 105.966 77.7382 105.901 77.8639 105.814C77.9122 105.78 77.9605 105.763 78.0089 105.763C78.0765 105.763 78.1345 105.799 78.1829 105.872L78.5454 106.408C78.5937 106.49 78.6179 106.548 78.6179 106.582C78.6179 106.616 78.6034 106.645 78.5744 106.669C78.3762 106.843 78.1321 106.991 77.8421 107.112C77.557 107.232 77.2452 107.293 76.9069 107.293ZM82.161 107.293C81.5326 107.293 80.9647 107.148 80.4572 106.858C79.9497 106.563 79.5485 106.152 79.2537 105.625C78.9589 105.098 78.8115 104.494 78.8115 103.813C78.8115 103.146 78.9589 102.549 79.2537 102.022C79.5534 101.49 79.9594 101.077 80.4717 100.782C80.984 100.483 81.552 100.333 82.1755 100.333C82.6346 100.333 83.0455 100.415 83.408 100.579C83.7705 100.744 84.0605 100.971 84.278 101.261V100.681C84.278 100.608 84.2973 100.553 84.336 100.514C84.3795 100.471 84.4375 100.449 84.51 100.449H85.322C85.3945 100.449 85.45 100.471 85.4887 100.514C85.5322 100.553 85.554 100.608 85.554 100.681V106.945C85.554 107.017 85.5322 107.075 85.4887 107.119C85.45 107.157 85.3945 107.177 85.322 107.177H84.51C84.4375 107.177 84.3795 107.157 84.336 107.119C84.2973 107.075 84.278 107.017 84.278 106.945V106.307C84.0653 106.616 83.7753 106.858 83.408 107.032C83.0406 107.206 82.625 107.293 82.161 107.293ZM80.1165 103.813C80.1165 104.248 80.2059 104.639 80.3847 104.987C80.5635 105.33 80.8076 105.599 81.117 105.792C81.4311 105.981 81.7791 106.075 82.161 106.075C82.5573 106.075 82.9125 105.99 83.2267 105.821C83.5457 105.647 83.7946 105.391 83.9735 105.053C84.1571 104.709 84.249 104.296 84.249 103.813C84.249 103.325 84.1571 102.911 83.9735 102.573C83.7946 102.235 83.5481 101.981 83.234 101.812C82.9198 101.638 82.5621 101.551 82.161 101.551C81.813 101.551 81.4819 101.638 81.1677 101.812C80.8584 101.986 80.6046 102.244 80.4065 102.588C80.2131 102.926 80.1165 103.334 80.1165 103.813ZM92.4696 107.293C91.8026 107.293 91.2153 107.148 90.7078 106.858C90.2003 106.563 89.8088 106.152 89.5333 105.625C89.2578 105.098 89.1201 104.494 89.1201 103.813C89.1201 103.17 89.2626 102.585 89.5478 102.058C89.833 101.527 90.2317 101.106 90.7441 100.797C91.2564 100.487 91.8412 100.333 92.4986 100.333C93.1317 100.333 93.6827 100.466 94.1516 100.732C94.6252 100.997 94.9901 101.379 95.2463 101.877C95.5025 102.375 95.6306 102.962 95.6306 103.639C95.6306 103.822 95.6257 103.958 95.6161 104.045C95.6161 104.19 95.5387 104.262 95.3841 104.262H90.4251C90.5121 104.828 90.7465 105.277 91.1283 105.611C91.5101 105.939 91.9862 106.104 92.5566 106.104C92.9287 106.104 93.2453 106.019 93.5063 105.85C93.7721 105.681 93.9776 105.466 94.1226 105.205C94.1612 105.142 94.1999 105.098 94.2386 105.074C94.2821 105.045 94.3352 105.031 94.3981 105.031H95.2826C95.3502 105.031 95.4034 105.043 95.4421 105.067C95.4856 105.091 95.5073 105.127 95.5073 105.176C95.5073 105.2 95.5049 105.219 95.5001 105.234C95.3792 105.635 95.1835 105.99 94.9128 106.3C94.6421 106.609 94.299 106.853 93.8833 107.032C93.4725 107.206 93.0012 107.293 92.4696 107.293ZM94.3111 103.088C94.2337 102.585 94.0307 102.198 93.7021 101.928C93.3782 101.657 92.9674 101.522 92.4696 101.522C91.9621 101.522 91.5319 101.662 91.1791 101.942C90.8311 102.223 90.5991 102.604 90.4831 103.088H94.3111ZM96.0026 107.177C95.9397 107.177 95.889 107.165 95.8503 107.141C95.8165 107.112 95.7996 107.075 95.7996 107.032C95.7996 106.998 95.8189 106.954 95.8576 106.901L98.2066 103.668L96.0171 100.739C95.9784 100.695 95.9591 100.647 95.9591 100.594C95.9591 100.55 95.976 100.516 96.0098 100.492C96.0437 100.463 96.0896 100.449 96.1476 100.449H97.2496C97.3656 100.449 97.4574 100.497 97.5251 100.594L99.0331 102.74L100.527 100.594C100.594 100.497 100.686 100.449 100.802 100.449H101.861C101.923 100.449 101.972 100.463 102.006 100.492C102.044 100.516 102.064 100.55 102.064 100.594C102.064 100.628 102.044 100.671 102.006 100.724L99.8016 103.711L102.107 106.901C102.146 106.954 102.165 106.998 102.165 107.032C102.165 107.075 102.146 107.112 102.107 107.141C102.073 107.165 102.025 107.177 101.962 107.177H100.846C100.73 107.177 100.638 107.128 100.57 107.032L98.9461 104.697L97.3366 107.032C97.2689 107.128 97.1771 107.177 97.0611 107.177H96.0026ZM105.653 107.293C104.991 107.293 104.404 107.148 103.892 106.858C103.379 106.563 102.981 106.155 102.695 105.633C102.415 105.106 102.275 104.499 102.275 103.813C102.275 103.165 102.42 102.575 102.71 102.044C103 101.512 103.403 101.094 103.921 100.79C104.443 100.485 105.035 100.333 105.697 100.333C106.451 100.333 107.086 100.519 107.604 100.891C108.121 101.263 108.471 101.783 108.655 102.45C108.665 102.488 108.669 102.515 108.669 102.53C108.669 102.583 108.65 102.626 108.611 102.66C108.573 102.694 108.52 102.711 108.452 102.711H107.582C107.456 102.711 107.364 102.648 107.306 102.522C107.181 102.218 106.978 101.981 106.697 101.812C106.422 101.638 106.088 101.551 105.697 101.551C105.281 101.551 104.911 101.647 104.588 101.841C104.269 102.034 104.02 102.302 103.841 102.646C103.667 102.989 103.58 103.378 103.58 103.813C103.58 104.238 103.667 104.625 103.841 104.973C104.015 105.316 104.259 105.587 104.573 105.785C104.892 105.978 105.252 106.075 105.653 106.075C106.055 106.075 106.4 105.988 106.69 105.814C106.985 105.635 107.2 105.384 107.335 105.06C107.393 104.934 107.485 104.871 107.611 104.871H108.481C108.563 104.871 108.623 104.891 108.662 104.929C108.701 104.968 108.713 105.021 108.698 105.089C108.52 105.765 108.167 106.302 107.64 106.698C107.118 107.095 106.456 107.293 105.653 107.293ZM110.017 107.177C109.945 107.177 109.887 107.157 109.843 107.119C109.804 107.075 109.785 107.017 109.785 106.945V97.9113C109.785 97.8388 109.804 97.7832 109.843 97.7445C109.887 97.701 109.945 97.6793 110.017 97.6793H110.858C110.931 97.6793 110.986 97.701 111.025 97.7445C111.068 97.7832 111.09 97.8388 111.09 97.9113V106.945C111.09 107.017 111.068 107.075 111.025 107.119C110.986 107.157 110.931 107.177 110.858 107.177H110.017ZM114.927 107.293C114.106 107.293 113.473 107.049 113.028 106.561C112.583 106.068 112.361 105.364 112.361 104.451V100.681C112.361 100.608 112.38 100.553 112.419 100.514C112.462 100.471 112.52 100.449 112.593 100.449H113.434C113.506 100.449 113.562 100.471 113.601 100.514C113.644 100.553 113.666 100.608 113.666 100.681V104.335C113.666 104.688 113.726 104.997 113.847 105.263C113.968 105.524 114.137 105.724 114.355 105.865C114.577 106.005 114.836 106.075 115.13 106.075C115.662 106.075 116.075 105.915 116.37 105.596C116.665 105.272 116.812 104.833 116.812 104.277V100.681C116.812 100.608 116.832 100.553 116.87 100.514C116.914 100.471 116.972 100.449 117.044 100.449H117.885C117.958 100.449 118.014 100.471 118.052 100.514C118.096 100.553 118.117 100.608 118.117 100.681V106.945C118.117 107.017 118.096 107.075 118.052 107.119C118.014 107.157 117.958 107.177 117.885 107.177H117.059C116.986 107.177 116.928 107.157 116.885 107.119C116.846 107.075 116.827 107.017 116.827 106.945V106.379C116.595 106.679 116.317 106.906 115.993 107.061C115.674 107.215 115.319 107.293 114.927 107.293ZM122.212 107.293C121.38 107.293 120.706 107.109 120.189 106.742C119.672 106.374 119.336 105.857 119.181 105.19C119.167 105.118 119.179 105.06 119.217 105.016C119.261 104.968 119.321 104.944 119.399 104.944H120.24C120.365 104.944 120.457 105.007 120.515 105.132C120.655 105.475 120.856 105.722 121.117 105.872C121.378 106.017 121.752 106.089 122.241 106.089C122.656 106.089 122.978 106.024 123.205 105.894C123.432 105.758 123.546 105.562 123.546 105.306C123.546 105.113 123.48 104.956 123.35 104.835C123.219 104.714 123.028 104.618 122.777 104.545C122.526 104.473 122.197 104.407 121.791 104.349C120.926 104.228 120.285 104.013 119.87 103.704C119.459 103.395 119.254 102.948 119.254 102.363C119.254 101.976 119.362 101.628 119.58 101.319C119.802 101.009 120.109 100.768 120.501 100.594C120.897 100.42 121.346 100.333 121.849 100.333C122.622 100.333 123.26 100.516 123.763 100.884C124.271 101.251 124.594 101.754 124.735 102.392C124.749 102.469 124.737 102.53 124.698 102.573C124.66 102.617 124.599 102.638 124.517 102.638H123.705C123.642 102.638 123.589 102.624 123.546 102.595C123.507 102.566 123.473 102.517 123.444 102.45C123.294 102.116 123.094 101.882 122.842 101.747C122.591 101.606 122.241 101.536 121.791 101.536C121.38 101.536 121.068 101.604 120.856 101.739C120.648 101.87 120.544 102.063 120.544 102.319C120.544 102.556 120.662 102.73 120.899 102.841C121.141 102.952 121.482 103.044 121.922 103.117C122.574 103.228 123.101 103.351 123.502 103.487C123.908 103.622 124.234 103.832 124.481 104.117C124.727 104.398 124.851 104.779 124.851 105.263C124.851 105.654 124.742 106.005 124.524 106.314C124.307 106.623 123.997 106.865 123.596 107.039C123.195 107.208 122.734 107.293 122.212 107.293ZM126.216 107.177C126.144 107.177 126.086 107.157 126.042 107.119C126.004 107.075 125.984 107.017 125.984 106.945V100.681C125.984 100.608 126.004 100.553 126.042 100.514C126.086 100.471 126.144 100.449 126.216 100.449H127.057C127.13 100.449 127.185 100.471 127.224 100.514C127.268 100.553 127.289 100.608 127.289 100.681V106.945C127.289 107.017 127.268 107.075 127.224 107.119C127.185 107.157 127.13 107.177 127.057 107.177H126.216ZM126.637 99.3178C126.381 99.3178 126.168 99.2356 125.999 99.0713C125.835 98.9021 125.752 98.6943 125.752 98.4478C125.752 98.1964 125.835 97.9886 125.999 97.8243C126.168 97.6599 126.381 97.5778 126.637 97.5778C126.898 97.5778 127.111 97.6599 127.275 97.8243C127.439 97.9886 127.521 98.1964 127.521 98.4478C127.521 98.6943 127.439 98.9021 127.275 99.0713C127.111 99.2356 126.898 99.3178 126.637 99.3178ZM131.112 107.177C130.982 107.177 130.895 107.119 130.851 107.003L128.183 100.724C128.164 100.686 128.154 100.645 128.154 100.601C128.154 100.553 128.171 100.516 128.205 100.492C128.244 100.463 128.294 100.449 128.357 100.449H129.372C129.435 100.449 129.491 100.466 129.539 100.5C129.587 100.533 129.624 100.579 129.648 100.637L131.649 105.785L133.679 100.637C133.722 100.512 133.809 100.449 133.94 100.449H134.926C134.989 100.449 135.037 100.463 135.071 100.492C135.109 100.516 135.129 100.553 135.129 100.601C135.129 100.645 135.119 100.686 135.1 100.724L132.432 107.003C132.388 107.119 132.301 107.177 132.171 107.177H131.112ZM138.618 107.293C137.989 107.293 137.421 107.148 136.914 106.858C136.406 106.563 136.005 106.152 135.71 105.625C135.415 105.098 135.268 104.494 135.268 103.813C135.268 103.146 135.415 102.549 135.71 102.022C136.01 101.49 136.416 101.077 136.928 100.782C137.441 100.483 138.009 100.333 138.632 100.333C139.091 100.333 139.502 100.415 139.865 100.579C140.227 100.744 140.517 100.971 140.735 101.261V100.681C140.735 100.608 140.754 100.553 140.793 100.514C140.836 100.471 140.894 100.449 140.967 100.449H141.779C141.851 100.449 141.907 100.471 141.945 100.514C141.989 100.553 142.011 100.608 142.011 100.681V106.945C142.011 107.017 141.989 107.075 141.945 107.119C141.907 107.157 141.851 107.177 141.779 107.177H140.967C140.894 107.177 140.836 107.157 140.793 107.119C140.754 107.075 140.735 107.017 140.735 106.945V106.307C140.522 106.616 140.232 106.858 139.865 107.032C139.497 107.206 139.082 107.293 138.618 107.293ZM136.573 103.813C136.573 104.248 136.662 104.639 136.841 104.987C137.02 105.33 137.264 105.599 137.574 105.792C137.888 105.981 138.236 106.075 138.618 106.075C139.014 106.075 139.369 105.99 139.683 105.821C140.002 105.647 140.251 105.391 140.43 105.053C140.614 104.709 140.706 104.296 140.706 103.813C140.706 103.325 140.614 102.911 140.43 102.573C140.251 102.235 140.005 101.981 139.691 101.812C139.376 101.638 139.019 101.551 138.618 101.551C138.27 101.551 137.938 101.638 137.624 101.812C137.315 101.986 137.061 102.244 136.863 102.588C136.67 102.926 136.573 103.334 136.573 103.813Z" fill="white"/>
<path d="M89.5081 13.1254C89.5081 13.1254 87.2265 13.9375 83.6428 13.9375C80.0591 13.9375 77.7774 13.1254 77.7774 13.1254C77.4169 13.1254 77.0589 13.1872 76.7187 13.3081L61.207 18.8104L62.8727 27.7441L67.7685 28.3045C68.368 28.3733 68.9201 28.6681 69.3152 29.1303C69.7102 29.5926 69.9193 30.1886 69.9009 30.7998L69.2198 55.3573H98.0657L97.3846 30.7998C97.3662 30.1886 97.5753 29.5926 97.9703 29.1303C98.3654 28.6681 98.9175 28.3733 99.517 28.3045L104.413 27.7441L106.078 18.8104L90.5668 13.3081C90.2266 13.1872 89.8686 13.1254 89.5081 13.1254Z" fill="url(#paint0_linear_3352_1729)"/>
<path d="M91.2969 13.6527C90.848 15.4692 89.8541 17.0751 88.4699 18.2207C87.0856 19.3662 85.3886 19.9873 83.6426 19.9873C81.8966 19.9873 80.1996 19.3662 78.8153 18.2207C77.4311 17.0751 76.4372 15.4692 75.9883 13.6527" stroke="black" stroke-linecap="round" stroke-linejoin="round"/>
<defs>
<linearGradient id="paint0_linear_3352_1729" x1="61.2181" y1="27.3203" x2="106.09" y2="27.3203" gradientUnits="userSpaceOnUse">
<stop stop-color="#8800F8"/>
<stop offset="1" stop-color="#05A6FF"/>
</linearGradient>
</defs>
</svg>
