<svg width="167" height="122" viewBox="0 0 167 122" fill="none" xmlns="http://www.w3.org/2000/svg">
<rect x="1.09375" y="68.1262" width="165" height="53" fill="white"/>
<rect x="1" y="0.126099" width="165" height="68" fill="black"/>
<path d="M31.5962 90.2432C30.7552 90.2432 29.9818 90.0329 29.2762 89.6124C28.5705 89.1919 28.0098 88.6119 27.5942 87.8724C27.1785 87.1281 26.9707 86.2944 26.9707 85.3712C26.9707 84.4674 27.1785 83.6457 27.5942 82.9062C28.0147 82.1619 28.5778 81.577 29.2834 81.1517C29.9939 80.7264 30.7648 80.5137 31.5962 80.5137C32.268 80.5137 32.8843 80.6418 33.4449 80.8979C34.0056 81.1541 34.472 81.4997 34.8442 81.9347C35.2212 82.3697 35.4773 82.8482 35.6127 83.3702C35.6223 83.4089 35.6272 83.4354 35.6272 83.4499C35.6272 83.5031 35.6078 83.5466 35.5692 83.5804C35.5305 83.6143 35.4773 83.6312 35.4097 83.6312H34.3367C34.2062 83.6312 34.1192 83.5684 34.0757 83.4427C33.8968 82.969 33.5972 82.592 33.1767 82.3117C32.761 82.0314 32.2197 81.8912 31.5527 81.8912C30.9727 81.8912 30.441 82.041 29.9577 82.3407C29.4792 82.6404 29.0998 83.056 28.8194 83.5877C28.5439 84.1194 28.4062 84.7139 28.4062 85.3712C28.4062 86.0285 28.5439 86.6254 28.8194 87.1619C29.0998 87.6936 29.4792 88.1117 29.9577 88.4162C30.441 88.7159 30.9727 88.8657 31.5527 88.8657C32.2535 88.8657 32.819 88.7231 33.2492 88.4379C33.6842 88.1479 33.9983 87.7492 34.1917 87.2417C34.2352 87.116 34.3222 87.0532 34.4527 87.0532H35.5257C35.6078 87.0532 35.6683 87.0701 35.7069 87.1039C35.7456 87.1378 35.7577 87.1837 35.7432 87.2417C35.6127 87.7879 35.3589 88.2905 34.9819 88.7497C34.6098 89.204 34.1313 89.5665 33.5464 89.8372C32.9664 90.1079 32.3163 90.2432 31.5962 90.2432ZM40.0603 90.2432C39.4078 90.2432 38.8254 90.0958 38.3131 89.8009C37.8007 89.5013 37.3996 89.088 37.1096 88.5612C36.8244 88.0295 36.6818 87.4302 36.6818 86.7632C36.6818 86.1107 36.8268 85.5186 37.1168 84.9869C37.4117 84.4553 37.8152 84.0396 38.3276 83.7399C38.8447 83.4354 39.4223 83.2832 40.0603 83.2832C40.708 83.2832 41.288 83.433 41.8003 83.7327C42.3127 84.0275 42.7114 84.4408 42.9966 84.9724C43.2817 85.4993 43.4243 86.0962 43.4243 86.7632C43.4243 87.4157 43.2769 88.0078 42.9821 88.5394C42.6921 89.0711 42.2909 89.4892 41.7786 89.7937C41.2662 90.0934 40.6935 90.2432 40.0603 90.2432ZM37.9868 86.7632C37.9868 87.1885 38.0762 87.5728 38.2551 87.9159C38.4387 88.2591 38.6877 88.5298 39.0018 88.7279C39.316 88.9261 39.6688 89.0252 40.0603 89.0252C40.447 89.0252 40.7974 88.9285 41.1116 88.7352C41.4257 88.537 41.6722 88.2664 41.8511 87.9232C42.0299 87.58 42.1193 87.1934 42.1193 86.7632C42.1193 86.333 42.0299 85.9464 41.8511 85.6032C41.6722 85.26 41.4257 84.9918 41.1116 84.7984C40.7974 84.6003 40.447 84.5012 40.0603 84.5012C39.6688 84.5012 39.3136 84.6003 38.9946 84.7984C38.6804 84.9918 38.4339 85.26 38.2551 85.6032C38.0762 85.9464 37.9868 86.333 37.9868 86.7632ZM44.764 90.1272C44.6915 90.1272 44.6335 90.1079 44.59 90.0692C44.5513 90.0257 44.532 89.9677 44.532 89.8952V83.6312C44.532 83.5587 44.5513 83.5031 44.59 83.4644C44.6335 83.4209 44.6915 83.3992 44.764 83.3992H45.5905C45.663 83.3992 45.7186 83.4209 45.7572 83.4644C45.8007 83.5031 45.8225 83.5587 45.8225 83.6312V84.1967C46.0642 83.897 46.3445 83.6699 46.6635 83.5152C46.9873 83.3605 47.345 83.2832 47.7365 83.2832C48.5678 83.2832 49.2107 83.5297 49.665 84.0227C50.1193 84.5157 50.3465 85.2165 50.3465 86.1252V89.8952C50.3465 89.9677 50.3247 90.0257 50.2812 90.0692C50.2426 90.1079 50.187 90.1272 50.1145 90.1272H49.2735C49.201 90.1272 49.143 90.1079 49.0995 90.0692C49.0608 90.0257 49.0415 89.9677 49.0415 89.8952V86.2267C49.0415 85.6709 48.9086 85.2431 48.6427 84.9434C48.3817 84.6389 48.012 84.4867 47.5335 84.4867C47.0067 84.4867 46.591 84.6486 46.2865 84.9724C45.9868 85.2963 45.837 85.7385 45.837 86.2992V89.8952C45.837 89.9677 45.8152 90.0257 45.7717 90.0692C45.7331 90.1079 45.6775 90.1272 45.605 90.1272H44.764ZM54.5731 90.2432C54.1671 90.2432 53.8046 90.1514 53.4856 89.9677C53.1715 89.784 52.925 89.5279 52.7461 89.1992C52.5721 88.8705 52.4851 88.4984 52.4851 88.0827V84.6027H51.3106C51.2381 84.6027 51.1801 84.5834 51.1366 84.5447C51.098 84.5012 51.0786 84.4432 51.0786 84.3707V83.6312C51.0786 83.5587 51.098 83.5031 51.1366 83.4644C51.1801 83.4209 51.2381 83.3992 51.3106 83.3992H52.4851V81.8332C52.4851 81.7607 52.5045 81.7051 52.5431 81.6664C52.5866 81.6229 52.6446 81.6012 52.7171 81.6012H53.5581C53.6306 81.6012 53.6862 81.6229 53.7249 81.6664C53.7684 81.7051 53.7901 81.7607 53.7901 81.8332V83.3992H55.7041C55.7766 83.3992 55.8322 83.4209 55.8709 83.4644C55.9144 83.5031 55.9361 83.5587 55.9361 83.6312V84.3707C55.9361 84.4432 55.9144 84.5012 55.8709 84.5447C55.8322 84.5834 55.7766 84.6027 55.7041 84.6027H53.7901V87.9812C53.7901 88.3147 53.8747 88.5733 54.0439 88.7569C54.213 88.9358 54.4523 89.0252 54.7616 89.0252C54.9018 89.0252 55.0323 89.0034 55.1531 88.9599C55.2788 88.9164 55.4045 88.8512 55.5301 88.7642C55.5785 88.7304 55.6268 88.7134 55.6751 88.7134C55.7428 88.7134 55.8008 88.7497 55.8491 88.8222L56.2116 89.3587C56.26 89.4409 56.2841 89.4989 56.2841 89.5327C56.2841 89.5665 56.2696 89.5955 56.2406 89.6197C56.0425 89.7937 55.7984 89.9411 55.5084 90.0619C55.2232 90.1828 54.9115 90.2432 54.5731 90.2432ZM57.3524 90.1272C57.2799 90.1272 57.2219 90.1079 57.1784 90.0692C57.1397 90.0257 57.1204 89.9677 57.1204 89.8952V83.6312C57.1204 83.5587 57.1397 83.5031 57.1784 83.4644C57.2219 83.4209 57.2799 83.3992 57.3524 83.3992H58.1789C58.2514 83.3992 58.307 83.4209 58.3456 83.4644C58.3891 83.5031 58.4109 83.5587 58.4109 83.6312V84.1822C58.6332 83.8874 58.887 83.665 59.1721 83.5152C59.4573 83.3605 59.7545 83.2832 60.0639 83.2832C60.3104 83.2832 60.5472 83.3074 60.7744 83.3557C60.9 83.3847 60.9629 83.4717 60.9629 83.6167V84.4142C60.9629 84.477 60.946 84.5278 60.9121 84.5664C60.8831 84.6003 60.842 84.6172 60.7889 84.6172C60.7695 84.6172 60.7405 84.6124 60.7019 84.6027C60.5085 84.5544 60.291 84.5302 60.0494 84.5302C59.5419 84.5302 59.1431 84.6897 58.8531 85.0087C58.568 85.3229 58.4254 85.7579 58.4254 86.3137V89.8952C58.4254 89.9677 58.4036 90.0257 58.3601 90.0692C58.3215 90.1079 58.2659 90.1272 58.1934 90.1272H57.3524ZM62.3226 90.1272C62.2501 90.1272 62.1921 90.1079 62.1486 90.0692C62.1099 90.0257 62.0906 89.9677 62.0906 89.8952V83.6312C62.0906 83.5587 62.1099 83.5031 62.1486 83.4644C62.1921 83.4209 62.2501 83.3992 62.3226 83.3992H63.1636C63.2361 83.3992 63.2917 83.4209 63.3303 83.4644C63.3738 83.5031 63.3956 83.5587 63.3956 83.6312V89.8952C63.3956 89.9677 63.3738 90.0257 63.3303 90.0692C63.2917 90.1079 63.2361 90.1272 63.1636 90.1272H62.3226ZM62.7431 82.2682C62.4869 82.2682 62.2743 82.186 62.1051 82.0217C61.9408 81.8525 61.8586 81.6447 61.8586 81.3982C61.8586 81.1469 61.9408 80.939 62.1051 80.7747C62.2743 80.6104 62.4869 80.5282 62.7431 80.5282C63.0041 80.5282 63.2168 80.6104 63.3811 80.7747C63.5454 80.939 63.6276 81.1469 63.6276 81.3982C63.6276 81.6447 63.5454 81.8525 63.3811 82.0217C63.2168 82.186 63.0041 82.2682 62.7431 82.2682ZM68.1464 90.2432C67.6727 90.2432 67.2522 90.1634 66.8849 90.0039C66.5175 89.8396 66.2275 89.6149 66.0149 89.3297V89.8952C66.0149 89.9677 65.9931 90.0257 65.9496 90.0692C65.911 90.1079 65.8554 90.1272 65.7829 90.1272H64.9564C64.8839 90.1272 64.8259 90.1079 64.7824 90.0692C64.7437 90.0257 64.7244 89.9677 64.7244 89.8952V80.8617C64.7244 80.7892 64.7437 80.7336 64.7824 80.6949C64.8259 80.6514 64.8839 80.6297 64.9564 80.6297H65.7974C65.8699 80.6297 65.9255 80.6514 65.9641 80.6949C66.0076 80.7336 66.0294 80.7892 66.0294 80.8617V84.2547C66.2469 83.955 66.5369 83.7182 66.8994 83.5442C67.2619 83.3702 67.6824 83.2832 68.1609 83.2832C68.765 83.2832 69.316 83.4306 69.8139 83.7254C70.3165 84.0154 70.7129 84.4239 71.0029 84.9507C71.2929 85.4775 71.4379 86.0817 71.4379 86.7632C71.4379 87.4302 71.2905 88.0295 70.9956 88.5612C70.7008 89.088 70.302 89.5013 69.7994 89.8009C69.2967 90.0958 68.7457 90.2432 68.1464 90.2432ZM66.0004 86.7632C66.0004 87.2514 66.0898 87.6646 66.2686 88.0029C66.4523 88.3413 66.7012 88.5974 67.0154 88.7714C67.3295 88.9406 67.6872 89.0252 68.0884 89.0252C68.4364 89.0252 68.765 88.9382 69.0744 88.7642C69.3885 88.5902 69.6423 88.334 69.8356 87.9957C70.0338 87.6525 70.1329 87.2417 70.1329 86.7632C70.1329 86.3282 70.0435 85.9391 69.8646 85.5959C69.6858 85.2479 69.4393 84.9797 69.1251 84.7912C68.8158 84.5979 68.4702 84.5012 68.0884 84.5012C67.692 84.5012 67.3344 84.5882 67.0154 84.7622C66.7012 84.9314 66.4523 85.1875 66.2686 85.5307C66.0898 85.869 66.0004 86.2799 66.0004 86.7632ZM75.0493 90.2432C74.2276 90.2432 73.5944 89.9991 73.1498 89.5109C72.7051 89.0179 72.4828 88.3147 72.4828 87.4012V83.6312C72.4828 83.5587 72.5021 83.5031 72.5408 83.4644C72.5843 83.4209 72.6423 83.3992 72.7148 83.3992H73.5558C73.6283 83.3992 73.6839 83.4209 73.7225 83.4644C73.766 83.5031 73.7878 83.5587 73.7878 83.6312V87.2852C73.7878 87.638 73.8482 87.9474 73.969 88.2132C74.0899 88.4742 74.259 88.6748 74.4765 88.8149C74.6989 88.9551 74.9574 89.0252 75.2523 89.0252C75.7839 89.0252 76.1972 88.8657 76.492 88.5467C76.7869 88.2229 76.9343 87.783 76.9343 87.2272V83.6312C76.9343 83.5587 76.9536 83.5031 76.9923 83.4644C77.0358 83.4209 77.0938 83.3992 77.1663 83.3992H78.0073C78.0798 83.3992 78.1354 83.4209 78.174 83.4644C78.2175 83.5031 78.2393 83.5587 78.2393 83.6312V89.8952C78.2393 89.9677 78.2175 90.0257 78.174 90.0692C78.1354 90.1079 78.0798 90.1272 78.0073 90.1272H77.1808C77.1083 90.1272 77.0503 90.1079 77.0068 90.0692C76.9681 90.0257 76.9488 89.9677 76.9488 89.8952V89.3297C76.7168 89.6294 76.4389 89.8565 76.115 90.0112C75.796 90.1659 75.4408 90.2432 75.0493 90.2432ZM82.6959 90.2432C82.0675 90.2432 81.4996 90.0982 80.9921 89.8082C80.4846 89.5134 80.0835 89.1025 79.7886 88.5757C79.4938 88.0489 79.3464 87.4447 79.3464 86.7632C79.3464 86.0962 79.4938 85.4993 79.7886 84.9724C80.0883 84.4408 80.4943 84.0275 81.0066 83.7327C81.519 83.433 82.0869 83.2832 82.7104 83.2832C83.1695 83.2832 83.5804 83.3654 83.9429 83.5297C84.3054 83.694 84.5954 83.9212 84.8129 84.2112V83.6312C84.8129 83.5587 84.8322 83.5031 84.8709 83.4644C84.9144 83.4209 84.9724 83.3992 85.0449 83.3992H85.8569C85.9294 83.3992 85.985 83.4209 86.0236 83.4644C86.0671 83.5031 86.0889 83.5587 86.0889 83.6312V89.8952C86.0889 89.9677 86.0671 90.0257 86.0236 90.0692C85.985 90.1079 85.9294 90.1272 85.8569 90.1272H85.0449C84.9724 90.1272 84.9144 90.1079 84.8709 90.0692C84.8322 90.0257 84.8129 89.9677 84.8129 89.8952V89.2572C84.6002 89.5665 84.3102 89.8082 83.9429 89.9822C83.5755 90.1562 83.1599 90.2432 82.6959 90.2432ZM80.6514 86.7632C80.6514 87.1982 80.7408 87.5897 80.9196 87.9377C81.0985 88.2809 81.3425 88.5491 81.6519 88.7424C81.966 88.9309 82.314 89.0252 82.6959 89.0252C83.0922 89.0252 83.4475 88.9406 83.7616 88.7714C84.0806 88.5974 84.3295 88.3413 84.5084 88.0029C84.692 87.6598 84.7839 87.2465 84.7839 86.7632C84.7839 86.275 84.692 85.8618 84.5084 85.5234C84.3295 85.1851 84.083 84.9314 83.7689 84.7622C83.4547 84.5882 83.097 84.5012 82.6959 84.5012C82.3479 84.5012 82.0168 84.5882 81.7026 84.7622C81.3933 84.9362 81.1395 85.1948 80.9414 85.5379C80.748 85.8763 80.6514 86.2847 80.6514 86.7632ZM93.0045 90.2432C92.3375 90.2432 91.7502 90.0982 91.2427 89.8082C90.7352 89.5134 90.3437 89.1025 90.0682 88.5757C89.7927 88.0489 89.655 87.4447 89.655 86.7632C89.655 86.1204 89.7976 85.5355 90.0827 85.0087C90.3679 84.477 90.7666 84.0565 91.279 83.7472C91.7913 83.4379 92.3761 83.2832 93.0335 83.2832C93.6666 83.2832 94.2176 83.4161 94.6865 83.6819C95.1601 83.9478 95.5251 84.3296 95.7812 84.8274C96.0374 85.3253 96.1655 85.9125 96.1655 86.5892C96.1655 86.7729 96.1606 86.9082 96.151 86.9952C96.151 87.1402 96.0736 87.2127 95.919 87.2127H90.96C91.047 87.7782 91.2814 88.2277 91.6632 88.5612C92.0451 88.8899 92.5211 89.0542 93.0915 89.0542C93.4636 89.0542 93.7802 88.9696 94.0412 88.8004C94.3071 88.6313 94.5125 88.4162 94.6575 88.1552C94.6961 88.0924 94.7348 88.0489 94.7735 88.0247C94.817 87.9957 94.8701 87.9812 94.933 87.9812H95.8175C95.8851 87.9812 95.9383 87.9933 95.977 88.0174C96.0205 88.0416 96.0422 88.0779 96.0422 88.1262C96.0422 88.1504 96.0398 88.1697 96.035 88.1842C95.9141 88.5854 95.7184 88.9406 95.4477 89.2499C95.1771 89.5593 94.8339 89.8034 94.4182 89.9822C94.0074 90.1562 93.5361 90.2432 93.0045 90.2432ZM94.846 86.0382C94.7686 85.5355 94.5656 85.1489 94.237 84.8782C93.9131 84.6075 93.5023 84.4722 93.0045 84.4722C92.497 84.4722 92.0668 84.6124 91.714 84.8927C91.366 85.173 91.134 85.5549 91.018 86.0382H94.846ZM102.672 93.0272C102.111 93.0272 101.608 92.9595 101.164 92.8242C100.719 92.6889 100.284 92.4907 99.8588 92.2297C99.7766 92.191 99.7355 92.1282 99.7355 92.0412C99.7355 91.9929 99.7476 91.9494 99.7718 91.9107L100.12 91.2872C100.163 91.2002 100.224 91.1567 100.301 91.1567C100.345 91.1567 100.39 91.1712 100.439 91.2002C100.777 91.3984 101.125 91.5482 101.483 91.6497C101.845 91.756 102.242 91.8092 102.672 91.8092C103.373 91.8092 103.919 91.5941 104.31 91.1639C104.707 90.7338 104.905 90.103 104.905 89.2717V89.0397C104.692 89.3587 104.392 89.61 104.006 89.7937C103.624 89.9774 103.194 90.0692 102.715 90.0692C102.121 90.0692 101.577 89.9266 101.084 89.6414C100.596 89.3563 100.209 88.9575 99.924 88.4452C99.6389 87.928 99.4963 87.3384 99.4963 86.6762C99.4963 86.0285 99.6437 85.4461 99.9385 84.9289C100.233 84.4118 100.632 84.0082 101.135 83.7182C101.637 83.4282 102.188 83.2832 102.788 83.2832C103.257 83.2832 103.675 83.3678 104.042 83.5369C104.409 83.7061 104.702 83.9357 104.919 84.2257V83.6312C104.919 83.5587 104.939 83.5031 104.977 83.4644C105.021 83.4209 105.079 83.3992 105.151 83.3992H105.978C106.05 83.3992 106.106 83.4209 106.145 83.4644C106.188 83.5031 106.21 83.5587 106.21 83.6312V89.0252C106.21 90.3495 105.905 91.3476 105.296 92.0194C104.687 92.6913 103.812 93.0272 102.672 93.0272ZM100.801 86.6762C100.801 87.0967 100.888 87.4713 101.062 87.7999C101.236 88.1286 101.473 88.3872 101.773 88.5757C102.077 88.7594 102.416 88.8512 102.788 88.8512C103.199 88.8512 103.566 88.7714 103.89 88.6119C104.214 88.4476 104.467 88.2035 104.651 87.8797C104.84 87.551 104.934 87.1499 104.934 86.6762C104.934 86.217 104.842 85.8231 104.658 85.4944C104.479 85.1658 104.231 84.9193 103.912 84.7549C103.597 84.5858 103.242 84.5012 102.846 84.5012C102.498 84.5012 102.167 84.5858 101.853 84.7549C101.543 84.9193 101.289 85.1658 101.091 85.4944C100.898 85.8231 100.801 86.217 100.801 86.6762ZM110.662 90.2432C110.034 90.2432 109.466 90.0982 108.958 89.8082C108.451 89.5134 108.05 89.1025 107.755 88.5757C107.46 88.0489 107.313 87.4447 107.313 86.7632C107.313 86.0962 107.46 85.4993 107.755 84.9724C108.055 84.4408 108.461 84.0275 108.973 83.7327C109.485 83.433 110.053 83.2832 110.677 83.2832C111.136 83.2832 111.547 83.3654 111.909 83.5297C112.272 83.694 112.562 83.9212 112.779 84.2112V83.6312C112.779 83.5587 112.799 83.5031 112.837 83.4644C112.881 83.4209 112.939 83.3992 113.011 83.3992H113.823C113.896 83.3992 113.951 83.4209 113.99 83.4644C114.033 83.5031 114.055 83.5587 114.055 83.6312V89.8952C114.055 89.9677 114.033 90.0257 113.99 90.0692C113.951 90.1079 113.896 90.1272 113.823 90.1272H113.011C112.939 90.1272 112.881 90.1079 112.837 90.0692C112.799 90.0257 112.779 89.9677 112.779 89.8952V89.2572C112.567 89.5665 112.277 89.8082 111.909 89.9822C111.542 90.1562 111.126 90.2432 110.662 90.2432ZM108.618 86.7632C108.618 87.1982 108.707 87.5897 108.886 87.9377C109.065 88.2809 109.309 88.5491 109.618 88.7424C109.932 88.9309 110.28 89.0252 110.662 89.0252C111.059 89.0252 111.414 88.9406 111.728 88.7714C112.047 88.5974 112.296 88.3413 112.475 88.0029C112.658 87.6598 112.75 87.2465 112.75 86.7632C112.75 86.275 112.658 85.8618 112.475 85.5234C112.296 85.1851 112.049 84.9314 111.735 84.7622C111.421 84.5882 111.063 84.5012 110.662 84.5012C110.314 84.5012 109.983 84.5882 109.669 84.7622C109.36 84.9362 109.106 85.1948 108.908 85.5379C108.714 85.8763 108.618 86.2847 108.618 86.7632ZM115.621 90.1272C115.549 90.1272 115.491 90.1079 115.447 90.0692C115.409 90.0257 115.389 89.9677 115.389 89.8952V83.6312C115.389 83.5587 115.409 83.5031 115.447 83.4644C115.491 83.4209 115.549 83.3992 115.621 83.3992H116.448C116.52 83.3992 116.576 83.4209 116.615 83.4644C116.658 83.5031 116.68 83.5587 116.68 83.6312V84.1967C116.922 83.897 117.202 83.6699 117.521 83.5152C117.845 83.3605 118.202 83.2832 118.594 83.2832C119.425 83.2832 120.068 83.5297 120.522 84.0227C120.977 84.5157 121.204 85.2165 121.204 86.1252V89.8952C121.204 89.9677 121.182 90.0257 121.139 90.0692C121.1 90.1079 121.044 90.1272 120.972 90.1272H120.131C120.058 90.1272 120 90.1079 119.957 90.0692C119.918 90.0257 119.899 89.9677 119.899 89.8952V86.2267C119.899 85.6709 119.766 85.2431 119.5 84.9434C119.239 84.6389 118.869 84.4867 118.391 84.4867C117.864 84.4867 117.448 84.6486 117.144 84.9724C116.844 85.2963 116.694 85.7385 116.694 86.2992V89.8952C116.694 89.9677 116.673 90.0257 116.629 90.0692C116.59 90.1079 116.535 90.1272 116.462 90.1272H115.621ZM122.716 90.1272C122.643 90.1272 122.585 90.1079 122.542 90.0692C122.503 90.0257 122.484 89.9677 122.484 89.8952V80.8617C122.484 80.7892 122.503 80.7336 122.542 80.6949C122.585 80.6514 122.643 80.6297 122.716 80.6297H123.557C123.629 80.6297 123.685 80.6514 123.723 80.6949C123.767 80.7336 123.789 80.7892 123.789 80.8617V84.1677C124.277 83.578 124.91 83.2832 125.688 83.2832C126.519 83.2832 127.162 83.5297 127.617 84.0227C128.071 84.5157 128.298 85.2165 128.298 86.1252V89.8952C128.298 89.9677 128.276 90.0257 128.233 90.0692C128.194 90.1079 128.139 90.1272 128.066 90.1272H127.225C127.153 90.1272 127.095 90.1079 127.051 90.0692C127.012 90.0257 126.993 89.9677 126.993 89.8952V86.2267C126.993 85.6709 126.86 85.2431 126.594 84.9434C126.333 84.6389 125.964 84.4867 125.485 84.4867C124.958 84.4867 124.543 84.6486 124.238 84.9724C123.938 85.2963 123.789 85.7385 123.789 86.2992V89.8952C123.789 89.9677 123.767 90.0257 123.723 90.0692C123.685 90.1079 123.629 90.1272 123.557 90.1272H122.716ZM132.695 90.2432C132.028 90.2432 131.441 90.0982 130.934 89.8082C130.426 89.5134 130.035 89.1025 129.759 88.5757C129.484 88.0489 129.346 87.4447 129.346 86.7632C129.346 86.1204 129.488 85.5355 129.774 85.0087C130.059 84.477 130.458 84.0565 130.97 83.7472C131.482 83.4379 132.067 83.2832 132.724 83.2832C133.358 83.2832 133.909 83.4161 134.377 83.6819C134.851 83.9478 135.216 84.3296 135.472 84.8274C135.728 85.3253 135.856 85.9125 135.856 86.5892C135.856 86.7729 135.852 86.9082 135.842 86.9952C135.842 87.1402 135.765 87.2127 135.61 87.2127H130.651C130.738 87.7782 130.972 88.2277 131.354 88.5612C131.736 88.8899 132.212 89.0542 132.782 89.0542C133.155 89.0542 133.471 88.9696 133.732 88.8004C133.998 88.6313 134.203 88.4162 134.348 88.1552C134.387 88.0924 134.426 88.0489 134.464 88.0247C134.508 87.9957 134.561 87.9812 134.624 87.9812H135.508C135.576 87.9812 135.629 87.9933 135.668 88.0174C135.711 88.0416 135.733 88.0779 135.733 88.1262C135.733 88.1504 135.731 88.1697 135.726 88.1842C135.605 88.5854 135.409 88.9406 135.139 89.2499C134.868 89.5593 134.525 89.8034 134.109 89.9822C133.698 90.1562 133.227 90.2432 132.695 90.2432ZM134.537 86.0382C134.46 85.5355 134.257 85.1489 133.928 84.8782C133.604 84.6075 133.193 84.4722 132.695 84.4722C132.188 84.4722 131.758 84.6124 131.405 84.8927C131.057 85.173 130.825 85.5549 130.709 86.0382H134.537ZM25.5787 107.127C25.5062 107.127 25.4482 107.108 25.4047 107.069C25.3661 107.026 25.3467 106.968 25.3467 106.895V99.0652L23.2007 100.24C23.1524 100.264 23.1137 100.276 23.0847 100.276C23.0364 100.276 22.9977 100.257 22.9687 100.218C22.9397 100.179 22.9252 100.129 22.9252 100.066V99.2392C22.9252 99.1232 22.9784 99.0314 23.0847 98.9637L25.2597 97.7022C25.3322 97.6539 25.4289 97.6297 25.5497 97.6297H26.4777C26.5502 97.6297 26.6058 97.6514 26.6445 97.6949C26.688 97.7336 26.7097 97.7892 26.7097 97.8617V106.895C26.7097 106.968 26.688 107.026 26.6445 107.069C26.6058 107.108 26.5502 107.127 26.4777 107.127H25.5787ZM34.1626 107.243C33.5005 107.243 32.9132 107.098 32.4009 106.808C31.8885 106.513 31.4898 106.105 31.2046 105.583C30.9243 105.056 30.7841 104.45 30.7841 103.763C30.7841 103.116 30.9291 102.526 31.2191 101.994C31.5091 101.463 31.9127 101.044 32.4299 100.74C32.9519 100.435 33.544 100.283 34.2061 100.283C34.9601 100.283 35.5957 100.469 36.1129 100.841C36.63 101.214 36.9805 101.733 37.1641 102.4C37.1738 102.439 37.1786 102.465 37.1786 102.48C37.1786 102.533 37.1593 102.577 37.1206 102.61C37.082 102.644 37.0288 102.661 36.9611 102.661H36.0911C35.9655 102.661 35.8736 102.598 35.8156 102.473C35.69 102.168 35.487 101.931 35.2066 101.762C34.9311 101.588 34.5976 101.501 34.2061 101.501C33.7905 101.501 33.4207 101.598 33.0969 101.791C32.7779 101.985 32.529 102.253 32.3501 102.596C32.1761 102.939 32.0891 103.328 32.0891 103.763C32.0891 104.189 32.1761 104.575 32.3501 104.923C32.5241 105.266 32.7682 105.537 33.0824 105.735C33.4014 105.929 33.7615 106.025 34.1626 106.025C34.5638 106.025 34.9094 105.938 35.1994 105.764C35.4942 105.585 35.7093 105.334 35.8446 105.01C35.9026 104.885 35.9945 104.822 36.1201 104.822H36.9901C37.0723 104.822 37.1327 104.841 37.1714 104.88C37.21 104.918 37.2221 104.972 37.2076 105.039C37.0288 105.716 36.676 106.252 36.1491 106.649C35.6271 107.045 34.965 107.243 34.1626 107.243ZM41.2987 107.243C40.6703 107.243 40.1024 107.098 39.5949 106.808C39.0874 106.513 38.6862 106.103 38.3914 105.576C38.0966 105.049 37.9492 104.445 37.9492 103.763C37.9492 103.096 38.0966 102.499 38.3914 101.972C38.6911 101.441 39.0971 101.028 39.6094 100.733C40.1217 100.433 40.6897 100.283 41.3132 100.283C41.7723 100.283 42.1832 100.365 42.5457 100.53C42.9082 100.694 43.1982 100.921 43.4157 101.211V100.631C43.4157 100.559 43.435 100.503 43.4737 100.464C43.5172 100.421 43.5752 100.399 43.6477 100.399H44.4597C44.5322 100.399 44.5877 100.421 44.6264 100.464C44.6699 100.503 44.6917 100.559 44.6917 100.631V106.895C44.6917 106.968 44.6699 107.026 44.6264 107.069C44.5877 107.108 44.5322 107.127 44.4597 107.127H43.6477C43.5752 107.127 43.5172 107.108 43.4737 107.069C43.435 107.026 43.4157 106.968 43.4157 106.895V106.257C43.203 106.567 42.913 106.808 42.5457 106.982C42.1783 107.156 41.7627 107.243 41.2987 107.243ZM39.2542 103.763C39.2542 104.198 39.3436 104.59 39.5224 104.938C39.7012 105.281 39.9453 105.549 40.2547 105.742C40.5688 105.931 40.9168 106.025 41.2987 106.025C41.695 106.025 42.0502 105.941 42.3644 105.771C42.6834 105.597 42.9323 105.341 43.1112 105.003C43.2948 104.66 43.3867 104.247 43.3867 103.763C43.3867 103.275 43.2948 102.862 43.1112 102.523C42.9323 102.185 42.6858 101.931 42.3717 101.762C42.0575 101.588 41.6998 101.501 41.2987 101.501C40.9507 101.501 40.6196 101.588 40.3054 101.762C39.9961 101.936 39.7423 102.195 39.5442 102.538C39.3508 102.876 39.2542 103.285 39.2542 103.763ZM46.2579 107.127C46.1854 107.127 46.1274 107.108 46.0839 107.069C46.0452 107.026 46.0259 106.968 46.0259 106.895V100.631C46.0259 100.559 46.0452 100.503 46.0839 100.464C46.1274 100.421 46.1854 100.399 46.2579 100.399H47.0844C47.1569 100.399 47.2125 100.421 47.2511 100.464C47.2946 100.503 47.3164 100.559 47.3164 100.631V101.182C47.5532 100.887 47.8287 100.665 48.1429 100.515C48.4571 100.361 48.8002 100.283 49.1724 100.283C49.6944 100.283 50.1415 100.382 50.5136 100.58C50.8858 100.779 51.1782 101.071 51.3909 101.458C51.8742 100.675 52.6137 100.283 53.6094 100.283C54.4166 100.283 55.0401 100.532 55.4799 101.03C55.9246 101.523 56.1469 102.221 56.1469 103.125V106.895C56.1469 106.968 56.1251 107.026 56.0816 107.069C56.043 107.108 55.9874 107.127 55.9149 107.127H55.0739C55.0014 107.127 54.9434 107.108 54.8999 107.069C54.8612 107.026 54.8419 106.968 54.8419 106.895V103.227C54.8419 102.666 54.7138 102.236 54.4576 101.936C54.2063 101.637 53.8462 101.487 53.3774 101.487C52.8602 101.487 52.4566 101.651 52.1666 101.98C51.8815 102.304 51.7389 102.743 51.7389 103.299V106.895C51.7389 106.968 51.7171 107.026 51.6736 107.069C51.635 107.108 51.5794 107.127 51.5069 107.127H50.6659C50.5934 107.127 50.5354 107.108 50.4919 107.069C50.4532 107.026 50.4339 106.968 50.4339 106.895V103.227C50.4339 102.676 50.3058 102.248 50.0496 101.943C49.7983 101.639 49.4382 101.487 48.9694 101.487C48.4522 101.487 48.0486 101.651 47.7586 101.98C47.4735 102.304 47.3309 102.743 47.3309 103.299V106.895C47.3309 106.968 47.3091 107.026 47.2656 107.069C47.227 107.108 47.1714 107.127 47.0989 107.127H46.2579ZM57.6568 107.127C57.5843 107.127 57.5263 107.108 57.4828 107.069C57.4441 107.026 57.4248 106.968 57.4248 106.895V100.631C57.4248 100.559 57.4441 100.503 57.4828 100.464C57.5263 100.421 57.5843 100.399 57.6568 100.399H58.4978C58.5703 100.399 58.6259 100.421 58.6646 100.464C58.7081 100.503 58.7298 100.559 58.7298 100.631V106.895C58.7298 106.968 58.7081 107.026 58.6646 107.069C58.6259 107.108 58.5703 107.127 58.4978 107.127H57.6568ZM58.0773 99.2682C57.8211 99.2682 57.6085 99.186 57.4393 99.0217C57.275 98.8525 57.1928 98.6447 57.1928 98.3982C57.1928 98.1469 57.275 97.939 57.4393 97.7747C57.6085 97.6104 57.8211 97.5282 58.0773 97.5282C58.3383 97.5282 58.551 97.6104 58.7153 97.7747C58.8796 97.939 58.9618 98.1469 58.9618 98.3982C58.9618 98.6447 58.8796 98.8525 58.7153 99.0217C58.551 99.186 58.3383 99.2682 58.0773 99.2682ZM62.8136 107.243C61.9823 107.243 61.308 107.06 60.7909 106.692C60.2737 106.325 59.9378 105.808 59.7831 105.141C59.7686 105.068 59.7807 105.01 59.8194 104.967C59.8629 104.918 59.9233 104.894 60.0006 104.894H60.8416C60.9673 104.894 61.0591 104.957 61.1171 105.083C61.2573 105.426 61.4579 105.672 61.7189 105.822C61.9799 105.967 62.3544 106.04 62.8426 106.04C63.2583 106.04 63.5797 105.974 63.8069 105.844C64.034 105.709 64.1476 105.513 64.1476 105.257C64.1476 105.063 64.0824 104.906 63.9519 104.785C63.8214 104.665 63.6304 104.568 63.3791 104.495C63.1278 104.423 62.7991 104.358 62.3931 104.3C61.5279 104.179 60.8875 103.964 60.4719 103.654C60.061 103.345 59.8556 102.898 59.8556 102.313C59.8556 101.927 59.9644 101.579 60.1819 101.269C60.4042 100.96 60.7111 100.718 61.1026 100.544C61.4989 100.37 61.9484 100.283 62.4511 100.283C63.2244 100.283 63.8624 100.467 64.3651 100.834C64.8726 101.202 65.1964 101.704 65.3366 102.342C65.3511 102.42 65.339 102.48 65.3004 102.523C65.2617 102.567 65.2013 102.589 65.1191 102.589H64.3071C64.2443 102.589 64.1911 102.574 64.1476 102.545C64.1089 102.516 64.0751 102.468 64.0461 102.4C63.8963 102.067 63.6957 101.832 63.4444 101.697C63.193 101.557 62.8426 101.487 62.3931 101.487C61.9823 101.487 61.6705 101.554 61.4579 101.69C61.25 101.82 61.1461 102.014 61.1461 102.27C61.1461 102.507 61.2645 102.681 61.5014 102.792C61.743 102.903 62.0838 102.995 62.5236 103.067C63.1761 103.178 63.7029 103.302 64.1041 103.437C64.5101 103.572 64.8364 103.783 65.0829 104.068C65.3294 104.348 65.4526 104.73 65.4526 105.213C65.4526 105.605 65.3439 105.955 65.1264 106.264C64.9089 106.574 64.5995 106.815 64.1984 106.989C63.7972 107.159 63.3356 107.243 62.8136 107.243ZM69.7039 107.243C69.0369 107.243 68.4497 107.098 67.9422 106.808C67.4347 106.513 67.0432 106.103 66.7677 105.576C66.4922 105.049 66.3544 104.445 66.3544 103.763C66.3544 103.12 66.497 102.536 66.7822 102.009C67.0674 101.477 67.4661 101.057 67.9784 100.747C68.4908 100.438 69.0756 100.283 69.7329 100.283C70.3661 100.283 70.9171 100.416 71.3859 100.682C71.8596 100.948 72.2245 101.33 72.4807 101.827C72.7369 102.325 72.8649 102.913 72.8649 103.589C72.8649 103.773 72.8601 103.908 72.8504 103.995C72.8504 104.14 72.7731 104.213 72.6184 104.213H67.6594C67.7464 104.778 67.9809 105.228 68.3627 105.561C68.7445 105.89 69.2206 106.054 69.7909 106.054C70.1631 106.054 70.4797 105.97 70.7407 105.8C71.0065 105.631 71.2119 105.416 71.3569 105.155C71.3956 105.092 71.4343 105.049 71.4729 105.025C71.5164 104.996 71.5696 104.981 71.6324 104.981H72.5169C72.5846 104.981 72.6378 104.993 72.6764 105.017C72.7199 105.042 72.7417 105.078 72.7417 105.126C72.7417 105.15 72.7393 105.17 72.7344 105.184C72.6136 105.585 72.4179 105.941 72.1472 106.25C71.8765 106.559 71.5334 106.803 71.1177 106.982C70.7069 107.156 70.2356 107.243 69.7039 107.243ZM71.5454 103.038C71.4681 102.536 71.2651 102.149 70.9364 101.878C70.6126 101.608 70.2018 101.472 69.7039 101.472C69.1964 101.472 68.7663 101.612 68.4134 101.893C68.0654 102.173 67.8334 102.555 67.7174 103.038H71.5454ZM76.9108 107.243C76.5048 107.243 76.1423 107.151 75.8233 106.968C75.5091 106.784 75.2626 106.528 75.0838 106.199C74.9098 105.871 74.8228 105.498 74.8228 105.083V101.603H73.6483C73.5758 101.603 73.5178 101.583 73.4743 101.545C73.4356 101.501 73.4163 101.443 73.4163 101.371V100.631C73.4163 100.559 73.4356 100.503 73.4743 100.464C73.5178 100.421 73.5758 100.399 73.6483 100.399H74.8228V98.8332C74.8228 98.7607 74.8421 98.7051 74.8808 98.6664C74.9243 98.6229 74.9823 98.6012 75.0548 98.6012H75.8958C75.9683 98.6012 76.0239 98.6229 76.0625 98.6664C76.106 98.7051 76.1278 98.7607 76.1278 98.8332V100.399H78.0418C78.1143 100.399 78.1699 100.421 78.2085 100.464C78.252 100.503 78.2738 100.559 78.2738 100.631V101.371C78.2738 101.443 78.252 101.501 78.2085 101.545C78.1699 101.583 78.1143 101.603 78.0418 101.603H76.1278V104.981C76.1278 105.315 76.2124 105.573 76.3815 105.757C76.5507 105.936 76.7899 106.025 77.0993 106.025C77.2394 106.025 77.3699 106.003 77.4908 105.96C77.6164 105.916 77.7421 105.851 77.8678 105.764C77.9161 105.73 77.9644 105.713 78.0128 105.713C78.0804 105.713 78.1384 105.75 78.1868 105.822L78.5493 106.359C78.5976 106.441 78.6218 106.499 78.6218 106.533C78.6218 106.567 78.6073 106.596 78.5783 106.62C78.3801 106.794 78.136 106.941 77.846 107.062C77.5609 107.183 77.2491 107.243 76.9108 107.243ZM82.1649 107.243C81.5365 107.243 80.9686 107.098 80.4611 106.808C79.9536 106.513 79.5525 106.103 79.2576 105.576C78.9628 105.049 78.8154 104.445 78.8154 103.763C78.8154 103.096 78.9628 102.499 79.2576 101.972C79.5573 101.441 79.9633 101.028 80.4756 100.733C80.988 100.433 81.5559 100.283 82.1794 100.283C82.6385 100.283 83.0494 100.365 83.4119 100.53C83.7744 100.694 84.0644 100.921 84.2819 101.211V100.631C84.2819 100.559 84.3012 100.503 84.3399 100.464C84.3834 100.421 84.4414 100.399 84.5139 100.399H85.3259C85.3984 100.399 85.454 100.421 85.4926 100.464C85.5361 100.503 85.5579 100.559 85.5579 100.631V106.895C85.5579 106.968 85.5361 107.026 85.4926 107.069C85.454 107.108 85.3984 107.127 85.3259 107.127H84.5139C84.4414 107.127 84.3834 107.108 84.3399 107.069C84.3012 107.026 84.2819 106.968 84.2819 106.895V106.257C84.0692 106.567 83.7792 106.808 83.4119 106.982C83.0445 107.156 82.6289 107.243 82.1649 107.243ZM80.1204 103.763C80.1204 104.198 80.2098 104.59 80.3886 104.938C80.5675 105.281 80.8115 105.549 81.1209 105.742C81.435 105.931 81.783 106.025 82.1649 106.025C82.5612 106.025 82.9165 105.941 83.2306 105.771C83.5496 105.597 83.7985 105.341 83.9774 105.003C84.161 104.66 84.2529 104.247 84.2529 103.763C84.2529 103.275 84.161 102.862 83.9774 102.523C83.7985 102.185 83.552 101.931 83.2379 101.762C82.9237 101.588 82.566 101.501 82.1649 101.501C81.8169 101.501 81.4858 101.588 81.1716 101.762C80.8623 101.936 80.6085 102.195 80.4104 102.538C80.217 102.876 80.1204 103.285 80.1204 103.763ZM92.4735 107.243C91.8065 107.243 91.2192 107.098 90.7117 106.808C90.2042 106.513 89.8127 106.103 89.5372 105.576C89.2617 105.049 89.124 104.445 89.124 103.763C89.124 103.12 89.2665 102.536 89.5517 102.009C89.8369 101.477 90.2356 101.057 90.748 100.747C91.2603 100.438 91.8451 100.283 92.5025 100.283C93.1356 100.283 93.6866 100.416 94.1555 100.682C94.6291 100.948 94.994 101.33 95.2502 101.827C95.5064 102.325 95.6345 102.913 95.6345 103.589C95.6345 103.773 95.6296 103.908 95.62 103.995C95.62 104.14 95.5426 104.213 95.388 104.213H90.429C90.516 104.778 90.7504 105.228 91.1322 105.561C91.514 105.89 91.9901 106.054 92.5605 106.054C92.9326 106.054 93.2492 105.97 93.5102 105.8C93.776 105.631 93.9815 105.416 94.1265 105.155C94.1651 105.092 94.2038 105.049 94.2425 105.025C94.286 104.996 94.3391 104.981 94.402 104.981H95.2865C95.3541 104.981 95.4073 104.993 95.446 105.017C95.4895 105.042 95.5112 105.078 95.5112 105.126C95.5112 105.15 95.5088 105.17 95.504 105.184C95.3831 105.585 95.1874 105.941 94.9167 106.25C94.646 106.559 94.3029 106.803 93.8872 106.982C93.4764 107.156 93.0051 107.243 92.4735 107.243ZM94.315 103.038C94.2376 102.536 94.0346 102.149 93.706 101.878C93.3821 101.608 92.9713 101.472 92.4735 101.472C91.966 101.472 91.5358 101.612 91.183 101.893C90.835 102.173 90.603 102.555 90.487 103.038H94.315ZM96.0065 107.127C95.9436 107.127 95.8929 107.115 95.8542 107.091C95.8204 107.062 95.8035 107.026 95.8035 106.982C95.8035 106.948 95.8228 106.905 95.8615 106.852L98.2105 103.618L96.021 100.689C95.9823 100.646 95.963 100.597 95.963 100.544C95.963 100.501 95.9799 100.467 96.0137 100.443C96.0476 100.414 96.0935 100.399 96.1515 100.399H97.2535C97.3695 100.399 97.4613 100.448 97.529 100.544L99.037 102.69L100.53 100.544C100.598 100.448 100.69 100.399 100.806 100.399H101.864C101.927 100.399 101.976 100.414 102.009 100.443C102.048 100.467 102.067 100.501 102.067 100.544C102.067 100.578 102.048 100.622 102.009 100.675L99.8055 103.662L102.111 106.852C102.15 106.905 102.169 106.948 102.169 106.982C102.169 107.026 102.15 107.062 102.111 107.091C102.077 107.115 102.029 107.127 101.966 107.127H100.849C100.733 107.127 100.642 107.079 100.574 106.982L98.95 104.648L97.3405 106.982C97.2728 107.079 97.181 107.127 97.065 107.127H96.0065ZM105.657 107.243C104.995 107.243 104.408 107.098 103.896 106.808C103.383 106.513 102.984 106.105 102.699 105.583C102.419 105.056 102.279 104.45 102.279 103.763C102.279 103.116 102.424 102.526 102.714 101.994C103.004 101.463 103.407 101.044 103.925 100.74C104.447 100.435 105.039 100.283 105.701 100.283C106.455 100.283 107.09 100.469 107.608 100.841C108.125 101.214 108.475 101.733 108.659 102.4C108.668 102.439 108.673 102.465 108.673 102.48C108.673 102.533 108.654 102.577 108.615 102.61C108.577 102.644 108.523 102.661 108.456 102.661H107.586C107.46 102.661 107.368 102.598 107.31 102.473C107.185 102.168 106.982 101.931 106.701 101.762C106.426 101.588 106.092 101.501 105.701 101.501C105.285 101.501 104.915 101.598 104.592 101.791C104.273 101.985 104.024 102.253 103.845 102.596C103.671 102.939 103.584 103.328 103.584 103.763C103.584 104.189 103.671 104.575 103.845 104.923C104.019 105.266 104.263 105.537 104.577 105.735C104.896 105.929 105.256 106.025 105.657 106.025C106.058 106.025 106.404 105.938 106.694 105.764C106.989 105.585 107.204 105.334 107.339 105.01C107.397 104.885 107.489 104.822 107.615 104.822H108.485C108.567 104.822 108.627 104.841 108.666 104.88C108.705 104.918 108.717 104.972 108.702 105.039C108.523 105.716 108.171 106.252 107.644 106.649C107.122 107.045 106.46 107.243 105.657 107.243ZM110.021 107.127C109.949 107.127 109.891 107.108 109.847 107.069C109.808 107.026 109.789 106.968 109.789 106.895V97.8617C109.789 97.7892 109.808 97.7336 109.847 97.6949C109.891 97.6514 109.949 97.6297 110.021 97.6297H110.862C110.935 97.6297 110.99 97.6514 111.029 97.6949C111.072 97.7336 111.094 97.7892 111.094 97.8617V106.895C111.094 106.968 111.072 107.026 111.029 107.069C110.99 107.108 110.935 107.127 110.862 107.127H110.021ZM114.931 107.243C114.11 107.243 113.477 106.999 113.032 106.511C112.587 106.018 112.365 105.315 112.365 104.401V100.631C112.365 100.559 112.384 100.503 112.423 100.464C112.466 100.421 112.524 100.399 112.597 100.399H113.438C113.51 100.399 113.566 100.421 113.605 100.464C113.648 100.503 113.67 100.559 113.67 100.631V104.285C113.67 104.638 113.73 104.947 113.851 105.213C113.972 105.474 114.141 105.675 114.359 105.815C114.581 105.955 114.84 106.025 115.134 106.025C115.666 106.025 116.079 105.866 116.374 105.547C116.669 105.223 116.816 104.783 116.816 104.227V100.631C116.816 100.559 116.836 100.503 116.874 100.464C116.918 100.421 116.976 100.399 117.048 100.399H117.889C117.962 100.399 118.017 100.421 118.056 100.464C118.1 100.503 118.121 100.559 118.121 100.631V106.895C118.121 106.968 118.1 107.026 118.056 107.069C118.017 107.108 117.962 107.127 117.889 107.127H117.063C116.99 107.127 116.932 107.108 116.889 107.069C116.85 107.026 116.831 106.968 116.831 106.895V106.33C116.599 106.629 116.321 106.857 115.997 107.011C115.678 107.166 115.323 107.243 114.931 107.243ZM122.215 107.243C121.384 107.243 120.71 107.06 120.193 106.692C119.676 106.325 119.34 105.808 119.185 105.141C119.17 105.068 119.183 105.01 119.221 104.967C119.265 104.918 119.325 104.894 119.402 104.894H120.243C120.369 104.894 120.461 104.957 120.519 105.083C120.659 105.426 120.86 105.672 121.121 105.822C121.382 105.967 121.756 106.04 122.244 106.04C122.66 106.04 122.982 105.974 123.209 105.844C123.436 105.709 123.549 105.513 123.549 105.257C123.549 105.063 123.484 104.906 123.354 104.785C123.223 104.665 123.032 104.568 122.781 104.495C122.53 104.423 122.201 104.358 121.795 104.3C120.93 104.179 120.289 103.964 119.874 103.654C119.463 103.345 119.257 102.898 119.257 102.313C119.257 101.927 119.366 101.579 119.584 101.269C119.806 100.96 120.113 100.718 120.504 100.544C120.901 100.37 121.35 100.283 121.853 100.283C122.626 100.283 123.264 100.467 123.767 100.834C124.274 101.202 124.598 101.704 124.738 102.342C124.753 102.42 124.741 102.48 124.702 102.523C124.664 102.567 124.603 102.589 124.521 102.589H123.709C123.646 102.589 123.593 102.574 123.549 102.545C123.511 102.516 123.477 102.468 123.448 102.4C123.298 102.067 123.098 101.832 122.846 101.697C122.595 101.557 122.244 101.487 121.795 101.487C121.384 101.487 121.072 101.554 120.86 101.69C120.652 101.82 120.548 102.014 120.548 102.27C120.548 102.507 120.666 102.681 120.903 102.792C121.145 102.903 121.486 102.995 121.925 103.067C122.578 103.178 123.105 103.302 123.506 103.437C123.912 103.572 124.238 103.783 124.485 104.068C124.731 104.348 124.854 104.73 124.854 105.213C124.854 105.605 124.746 105.955 124.528 106.264C124.311 106.574 124.001 106.815 123.6 106.989C123.199 107.159 122.737 107.243 122.215 107.243ZM126.22 107.127C126.148 107.127 126.09 107.108 126.046 107.069C126.008 107.026 125.988 106.968 125.988 106.895V100.631C125.988 100.559 126.008 100.503 126.046 100.464C126.09 100.421 126.148 100.399 126.22 100.399H127.061C127.134 100.399 127.189 100.421 127.228 100.464C127.272 100.503 127.293 100.559 127.293 100.631V106.895C127.293 106.968 127.272 107.026 127.228 107.069C127.189 107.108 127.134 107.127 127.061 107.127H126.22ZM126.641 99.2682C126.385 99.2682 126.172 99.186 126.003 99.0217C125.838 98.8525 125.756 98.6447 125.756 98.3982C125.756 98.1469 125.838 97.939 126.003 97.7747C126.172 97.6104 126.385 97.5282 126.641 97.5282C126.902 97.5282 127.114 97.6104 127.279 97.7747C127.443 97.939 127.525 98.1469 127.525 98.3982C127.525 98.6447 127.443 98.8525 127.279 99.0217C127.114 99.186 126.902 99.2682 126.641 99.2682ZM131.116 107.127C130.986 107.127 130.899 107.069 130.855 106.953L128.187 100.675C128.168 100.636 128.158 100.595 128.158 100.551C128.158 100.503 128.175 100.467 128.209 100.443C128.247 100.414 128.298 100.399 128.361 100.399H129.376C129.439 100.399 129.494 100.416 129.543 100.45C129.591 100.484 129.627 100.53 129.652 100.588L131.653 105.735L133.683 100.588C133.726 100.462 133.813 100.399 133.944 100.399H134.93C134.992 100.399 135.041 100.414 135.075 100.443C135.113 100.467 135.133 100.503 135.133 100.551C135.133 100.595 135.123 100.636 135.104 100.675L132.436 106.953C132.392 107.069 132.305 107.127 132.175 107.127H131.116ZM138.621 107.243C137.993 107.243 137.425 107.098 136.918 106.808C136.41 106.513 136.009 106.103 135.714 105.576C135.419 105.049 135.272 104.445 135.272 103.763C135.272 103.096 135.419 102.499 135.714 101.972C136.014 101.441 136.42 101.028 136.932 100.733C137.444 100.433 138.012 100.283 138.636 100.283C139.095 100.283 139.506 100.365 139.868 100.53C140.231 100.694 140.521 100.921 140.738 101.211V100.631C140.738 100.559 140.758 100.503 140.796 100.464C140.84 100.421 140.898 100.399 140.97 100.399H141.782C141.855 100.399 141.91 100.421 141.949 100.464C141.993 100.503 142.014 100.559 142.014 100.631V106.895C142.014 106.968 141.993 107.026 141.949 107.069C141.91 107.108 141.855 107.127 141.782 107.127H140.97C140.898 107.127 140.84 107.108 140.796 107.069C140.758 107.026 140.738 106.968 140.738 106.895V106.257C140.526 106.567 140.236 106.808 139.868 106.982C139.501 107.156 139.085 107.243 138.621 107.243ZM136.577 103.763C136.577 104.198 136.666 104.59 136.845 104.938C137.024 105.281 137.268 105.549 137.577 105.742C137.892 105.931 138.24 106.025 138.621 106.025C139.018 106.025 139.373 105.941 139.687 105.771C140.006 105.597 140.255 105.341 140.434 105.003C140.618 104.66 140.709 104.247 140.709 103.763C140.709 103.275 140.618 102.862 140.434 102.523C140.255 102.185 140.009 101.931 139.694 101.762C139.38 101.588 139.023 101.501 138.621 101.501C138.273 101.501 137.942 101.588 137.628 101.762C137.319 101.936 137.065 102.195 136.867 102.538C136.674 102.876 136.577 103.285 136.577 103.763Z" fill="black"/>
<path d="M89.5081 13.0758C89.5081 13.0758 87.2265 13.888 83.6428 13.888C80.0591 13.888 77.7774 13.0758 77.7774 13.0758C77.4169 13.0758 77.0589 13.1376 76.7187 13.2585L61.207 18.7609L62.8727 27.6946L67.7685 28.2549C68.368 28.3237 68.9201 28.6185 69.3152 29.0808C69.7102 29.5431 69.9193 30.139 69.9009 30.7503L69.2198 55.3078H98.0657L97.3846 30.7503C97.3662 30.139 97.5753 29.5431 97.9703 29.0808C98.3654 28.6185 98.9175 28.3237 99.517 28.2549L104.413 27.6946L106.078 18.7609L90.5668 13.2585C90.2266 13.1376 89.8686 13.0758 89.5081 13.0758Z" fill="url(#paint0_linear_3118_1304)"/>
<path d="M91.2969 13.6034C90.848 15.4199 89.8541 17.0258 88.4699 18.1713C87.0856 19.3169 85.3886 19.938 83.6426 19.938C81.8966 19.938 80.1996 19.3169 78.8153 18.1713C77.4311 17.0258 76.4372 15.4199 75.9883 13.6034" stroke="black" stroke-linecap="round" stroke-linejoin="round"/>
<defs>
<linearGradient id="paint0_linear_3118_1304" x1="61.2181" y1="27.2707" x2="106.09" y2="27.2707" gradientUnits="userSpaceOnUse">
<stop stop-color="#8800F8"/>
<stop offset="1" stop-color="#05A6FF"/>
</linearGradient>
</defs>
</svg>
