<svg width="943" height="31" viewBox="0 0 943 31" fill="none" xmlns="http://www.w3.org/2000/svg">
<mask id="mask0_110_10934" style="mask-type:luminance" maskUnits="userSpaceOnUse" x="0" y="0" width="943" height="31">
<path d="M928.101 31H0L16.6515 0H943L928.101 31Z" fill="white"/>
</mask>
<g mask="url(#mask0_110_10934)">
<path d="M935.113 32.76L952.938 -2.22998" stroke="#7F00FA" stroke-width="3" stroke-miterlimit="10"/>
<path d="M920.214 32.76L938.04 -2.22998" stroke="#7F00FA" stroke-width="3" stroke-miterlimit="10"/>
<path d="M905.315 32.76L923.141 -2.22998" stroke="#7F00FA" stroke-width="3" stroke-miterlimit="10"/>
<path d="M890.416 32.76L908.242 -2.22998" stroke="#7F00FA" stroke-width="3" stroke-miterlimit="10"/>
<path d="M875.518 32.76L893.343 -2.22998" stroke="#7F00FA" stroke-width="3" stroke-miterlimit="10"/>
<path d="M860.619 32.76L878.445 -2.22998" stroke="#7F00FA" stroke-width="3" stroke-miterlimit="10"/>
<path d="M845.72 32.76L863.546 -2.22998" stroke="#7F00FA" stroke-width="3" stroke-miterlimit="10"/>
<path d="M830.822 32.76L848.647 -2.22998" stroke="#7F00FA" stroke-width="3" stroke-miterlimit="10"/>
<path d="M815.923 32.76L833.749 -2.22998" stroke="#7F00FA" stroke-width="3" stroke-miterlimit="10"/>
<path d="M801.024 32.76L818.85 -2.22998" stroke="#7F00FA" stroke-width="3" stroke-miterlimit="10"/>
<path d="M786.126 32.76L803.951 -2.22998" stroke="#7F00FA" stroke-width="3" stroke-miterlimit="10"/>
<path d="M771.227 32.76L789.053 -2.22998" stroke="#7F00FA" stroke-width="3" stroke-miterlimit="10"/>
<path d="M756.328 32.76L774.154 -2.22998" stroke="#7F00FA" stroke-width="3" stroke-miterlimit="10"/>
<path d="M741.429 32.76L759.255 -2.22998" stroke="#7F00FA" stroke-width="3" stroke-miterlimit="10"/>
<path d="M726.531 32.76L744.357 -2.22998" stroke="#7F00FA" stroke-width="3" stroke-miterlimit="10"/>
<path d="M711.632 32.76L729.458 -2.22998" stroke="#7F00FA" stroke-width="3" stroke-miterlimit="10"/>
<path d="M696.733 32.76L714.559 -2.22998" stroke="#7F00FA" stroke-width="3" stroke-miterlimit="10"/>
<path d="M681.835 32.76L699.661 -2.22998" stroke="#7F00FA" stroke-width="3" stroke-miterlimit="10"/>
<path d="M666.936 32.76L684.762 -2.22998" stroke="#7F00FA" stroke-width="3" stroke-miterlimit="10"/>
<path d="M652.037 32.76L669.863 -2.22998" stroke="#7F00FA" stroke-width="3" stroke-miterlimit="10"/>
<path d="M637.138 32.76L654.964 -2.22998" stroke="#7F00FA" stroke-width="3" stroke-miterlimit="10"/>
<path d="M622.24 32.76L640.066 -2.22998" stroke="#7F00FA" stroke-width="3" stroke-miterlimit="10"/>
<path d="M607.341 32.76L625.167 -2.22998" stroke="#7F00FA" stroke-width="3" stroke-miterlimit="10"/>
<path d="M592.442 32.76L610.268 -2.22998" stroke="#7F00FA" stroke-width="3" stroke-miterlimit="10"/>
<path d="M577.544 32.76L595.37 -2.22998" stroke="#7F00FA" stroke-width="3" stroke-miterlimit="10"/>
<path d="M562.645 32.76L580.471 -2.22998" stroke="#7F00FA" stroke-width="3" stroke-miterlimit="10"/>
<path d="M547.746 32.76L565.572 -2.22998" stroke="#7F00FA" stroke-width="3" stroke-miterlimit="10"/>
<path d="M532.848 32.76L550.673 -2.22998" stroke="#7F00FA" stroke-width="3" stroke-miterlimit="10"/>
<path d="M517.949 32.76L535.775 -2.22998" stroke="#7F00FA" stroke-width="3" stroke-miterlimit="10"/>
<path d="M503.05 32.76L520.876 -2.22998" stroke="#7F00FA" stroke-width="3" stroke-miterlimit="10"/>
<path d="M488.152 32.76L505.977 -2.22998" stroke="#7F00FA" stroke-width="3" stroke-miterlimit="10"/>
<path d="M473.253 32.76L491.079 -2.22998" stroke="#7F00FA" stroke-width="3" stroke-miterlimit="10"/>
<path d="M458.354 32.76L476.18 -2.22998" stroke="#7F00FA" stroke-width="3" stroke-miterlimit="10"/>
<path d="M443.456 32.76L461.281 -2.22998" stroke="#7F00FA" stroke-width="3" stroke-miterlimit="10"/>
<path d="M428.557 32.76L446.383 -2.22998" stroke="#7F00FA" stroke-width="3" stroke-miterlimit="10"/>
<path d="M413.658 32.76L431.484 -2.22998" stroke="#7F00FA" stroke-width="3" stroke-miterlimit="10"/>
<path d="M398.759 32.76L416.585 -2.22998" stroke="#7F00FA" stroke-width="3" stroke-miterlimit="10"/>
<path d="M383.861 32.76L401.686 -2.22998" stroke="#7F00FA" stroke-width="3" stroke-miterlimit="10"/>
<path d="M368.962 32.76L386.788 -2.22998" stroke="#7F00FA" stroke-width="3" stroke-miterlimit="10"/>
<path d="M354.063 32.76L371.889 -2.22998" stroke="#7F00FA" stroke-width="3" stroke-miterlimit="10"/>
<path d="M339.164 32.76L356.99 -2.22998" stroke="#7F00FA" stroke-width="3" stroke-miterlimit="10"/>
<path d="M324.266 32.76L342.092 -2.22998" stroke="#7F00FA" stroke-width="3" stroke-miterlimit="10"/>
<path d="M309.367 32.76L327.193 -2.22998" stroke="#7F00FA" stroke-width="3" stroke-miterlimit="10"/>
<path d="M294.468 32.76L312.294 -2.22998" stroke="#7F00FA" stroke-width="3" stroke-miterlimit="10"/>
<path d="M279.57 32.76L297.395 -2.22998" stroke="#7F00FA" stroke-width="3" stroke-miterlimit="10"/>
<path d="M264.671 32.76L282.497 -2.22998" stroke="#7F00FA" stroke-width="3" stroke-miterlimit="10"/>
<path d="M249.772 32.76L267.598 -2.22998" stroke="#7F00FA" stroke-width="3" stroke-miterlimit="10"/>
<path d="M234.874 32.76L252.699 -2.22998" stroke="#7F00FA" stroke-width="3" stroke-miterlimit="10"/>
<path d="M219.975 32.76L237.801 -2.22998" stroke="#7F00FA" stroke-width="3" stroke-miterlimit="10"/>
<path d="M205.076 32.76L222.902 -2.22998" stroke="#7F00FA" stroke-width="3" stroke-miterlimit="10"/>
<path d="M190.177 32.76L208.003 -2.22998" stroke="#7F00FA" stroke-width="3" stroke-miterlimit="10"/>
<path d="M175.279 32.76L193.105 -2.22998" stroke="#7F00FA" stroke-width="3" stroke-miterlimit="10"/>
<path d="M160.38 32.76L178.206 -2.22998" stroke="#7F00FA" stroke-width="3" stroke-miterlimit="10"/>
<path d="M145.481 32.76L163.307 -2.22998" stroke="#7F00FA" stroke-width="3" stroke-miterlimit="10"/>
<path d="M130.583 32.76L148.408 -2.22998" stroke="#7F00FA" stroke-width="3" stroke-miterlimit="10"/>
<path d="M115.684 32.76L133.51 -2.22998" stroke="#7F00FA" stroke-width="3" stroke-miterlimit="10"/>
<path d="M100.785 32.76L118.611 -2.22998" stroke="#7F00FA" stroke-width="3" stroke-miterlimit="10"/>
<path d="M85.8867 32.76L103.713 -2.22998" stroke="#7F00FA" stroke-width="3" stroke-miterlimit="10"/>
<path d="M70.9879 32.76L88.8137 -2.22998" stroke="#7F00FA" stroke-width="3" stroke-miterlimit="10"/>
<path d="M56.0892 32.76L73.9151 -2.22998" stroke="#7F00FA" stroke-width="3" stroke-miterlimit="10"/>
<path d="M41.1906 32.76L59.0165 -2.22998" stroke="#7F00FA" stroke-width="3" stroke-miterlimit="10"/>
<path d="M26.2917 32.76L44.1176 -2.22998" stroke="#7F00FA" stroke-width="3" stroke-miterlimit="10"/>
<path d="M11.3931 32.76L29.219 -2.22998" stroke="#7F00FA" stroke-width="3" stroke-miterlimit="10"/>
<path d="M-3.50555 32.76L14.3203 -2.22998" stroke="#7F00FA" stroke-width="3" stroke-miterlimit="10"/>
<path d="M-18.4042 32.76L-0.578382 -2.22998" stroke="#7F00FA" stroke-width="3" stroke-miterlimit="10"/>
</g>
</svg>
