<?xml version="1.0" encoding="UTF-8"?>
<svg fill="none" viewBox="0 0 48 124" xmlns="http://www.w3.org/2000/svg">
<path d="m12.53 122.39c3.2936 0 5.9635-2.673 5.9635-5.971 0-3.297-2.6699-5.97-5.9635-5.97-3.2936 0-5.9636 2.673-5.9636 5.97 0 3.298 2.67 5.971 5.9636 5.971z" fill="#FF0F1E" stroke="#17042B" stroke-miterlimit="10" stroke-width="2"/>
<path d="m12.53 105.51c3.2936 0 5.9635-2.673 5.9635-5.9702 0-3.2974-2.6699-5.9704-5.9635-5.9704-3.2936 0-5.9636 2.673-5.9636 5.9704 0 3.2972 2.67 5.9702 5.9636 5.9702z" fill="#2E3192" stroke="#17042B" stroke-miterlimit="10" stroke-width="2"/>
<path d="m12.53 88.627c3.2936 0 5.9635-2.673 5.9635-5.9704 0-3.2973-2.6699-5.9704-5.9635-5.9704-3.2936 0-5.9636 2.6731-5.9636 5.9704 0 3.2974 2.67 5.9704 5.9636 5.9704z" fill="#FF0F1E" stroke="#17042B" stroke-miterlimit="10" stroke-width="2"/>
<path d="m12.53 71.748c3.2936 0 5.9635-2.673 5.9635-5.9704s-2.6699-5.9704-5.9635-5.9704c-3.2936 0-5.9636 2.673-5.9636 5.9704s2.67 5.9704 5.9636 5.9704z" fill="#FFCE0B" stroke="#17042B" stroke-miterlimit="10" stroke-width="2"/>
<path d="m33.364 122.39c3.2936 0 5.9636-2.673 5.9636-5.971 0-3.297-2.67-5.97-5.9636-5.97s-5.9636 2.673-5.9636 5.97c0 3.298 2.67 5.971 5.9636 5.971z" fill="#FF0F1E" stroke="#17042B" stroke-miterlimit="10" stroke-width="2"/>
<path d="m33.364 105.51c3.2936 0 5.9636-2.673 5.9636-5.9702 0-3.2974-2.67-5.9704-5.9636-5.9704s-5.9636 2.673-5.9636 5.9704c0 3.2972 2.67 5.9702 5.9636 5.9702z" fill="#2E3192" stroke="#17042B" stroke-miterlimit="10" stroke-width="2"/>
<path d="m33.364 88.627c3.2936 0 5.9636-2.6731 5.9636-5.9704 0-3.2974-2.67-5.9704-5.9636-5.9704s-5.9636 2.673-5.9636 5.9704c0 3.2973 2.67 5.9704 5.9636 5.9704z" fill="#FF0F1E" stroke="#17042B" stroke-miterlimit="10" stroke-width="2"/>
<path d="m33.364 71.748c3.2936 0 5.9636-2.673 5.9636-5.9704s-2.67-5.9704-5.9636-5.9704-5.9636 2.673-5.9636 5.9704 2.67 5.9704 5.9636 5.9704z" fill="#FFCE0B" stroke="#17042B" stroke-miterlimit="10" stroke-width="2"/>
<path d="m23.78 0c-30.376 1.2918-31.714 44.14-3.6505 48.378 23.752 3.5917 37.371-26.024 20.086-42.171-4.8385-4.5211-9.976-5.9153-16.435-6.1988v-0.0078765z" clip-rule="evenodd" fill="#161E7F" fill-rule="evenodd"/>
<path d="m23.929 45.274c11.958 0 21.651-9.7047 21.651-21.676 0-11.971-9.6936-21.676-21.651-21.676-11.958 0-21.651 9.7048-21.651 21.676 0 11.972 9.6937 21.676 21.651 21.676z" fill="#FF0F1E"/>
<mask id="a" x="2" y="1" width="44" height="45" style="mask-type:luminance" maskUnits="userSpaceOnUse">
<path d="m23.929 45.274c11.958 0 21.651-9.7047 21.651-21.676 0-11.971-9.6936-21.676-21.651-21.676-11.958 0-21.651 9.7048-21.651 21.676 0 11.972 9.6937 21.676 21.651 21.676z" fill="#fff"/>
</mask>
<g mask="url(#a)">
<path d="m37.162 45.786-8.8116-19.132-8.0249-0.4253-14.445 26.355 30.125-5.356 1.1565-1.4414z" fill="#FFA72B"/>
<path d="m20.742 27.922 7.7259 21.408 8.5991-5.0961-10.023-21.282-4.3743 3.19" fill="#FF0F1E"/>
</g>
<path d="m23.929 45.274c11.958 0 21.651-9.7047 21.651-21.676 0-11.971-9.6936-21.676-21.651-21.676-11.958 0-21.651 9.7048-21.651 21.676 0 11.972 9.6937 21.676 21.651 21.676z" stroke="#17042B" stroke-miterlimit="10" stroke-width="3"/>
<path d="m23.93 30.404c3.7541 0 6.7974-3.0469 6.7974-6.8053 0-3.7585-3.0433-6.8054-6.7974-6.8054-3.7542 0-6.7976 3.0469-6.7976 6.8054 0 3.7584 3.0434 6.8053 6.7976 6.8053z" fill="#17042B"/>
</svg>
