<?xml version="1.0" encoding="UTF-8"?>
<svg fill="none" viewBox="0 0 42 42" xmlns="http://www.w3.org/2000/svg">
<g clip-path="url(#a)">
<path d="m42 21c0 4.1534-1.2316 8.2136-3.5391 11.667s-5.5873 6.1451-9.4245 7.7345c-3.8373 1.5894-8.0597 2.0053-12.133 1.195s-7.8154-2.8103-10.752-5.7472c-2.9369-2.9369-4.937-6.6788-5.7473-10.752-0.81029-4.0736-0.39442-8.296 1.195-12.133 1.5894-3.8373 4.2811-7.117 7.7345-9.4245 3.4535-2.3075 7.5136-3.5391 11.667-3.5391 2.7589-0.003937 5.4914 0.53656 8.041 1.5905 2.5496 1.054 4.8662 2.6006 6.817 4.5515 1.9508 1.9508 3.4975 4.2674 4.5515 6.817s1.5944 5.2822 1.5905 8.041z" fill="#6B6FDE"/>
<path d="m28.7 21.56v7.007c-0.799-2.046-2.3347-3.7191-4.305-4.69-0.049-0.021-0.098-0.049-0.147-0.07-1.018-0.4702-2.1266-0.7115-3.248-0.707-1.0662-0.0012-2.1215 0.2156-3.101 0.637-0.0503 0.0204-0.0994 0.0438-0.147 0.07-2.0389 0.9577-3.6325 2.6616-4.452 4.76v-7.007c0.6228-1.5728 1.6817-2.9352 3.052-3.927 0.0507-0.0436 0.1046-0.0833 0.161-0.119 1.343-0.9403 2.9475-1.4347 4.5867-1.4133 1.6393 0.0213 3.2304 0.5573 4.5483 1.5323 0.056 0.035 0.112 0.077 0.168 0.119 1.2872 0.986 2.2837 2.3018 2.884 3.808z" fill="#EAE9F0"/>
<path d="m12.816 30.8c-0.1393 0-0.2728-0.0554-0.3712-0.1538-0.0985-0.0985-0.1538-0.232-0.1538-0.3712v-9.1c0-0.1392 0.0553-0.2728 0.1537-0.3712 0.0985-0.0985 0.232-0.1538 0.3713-0.1538 0.1392 0 0.2727 0.0553 0.3712 0.1538 0.0985 0.0984 0.1538 0.232 0.1538 0.3712v9.1c-1e-4 0.1392-0.0554 0.2727-0.1538 0.3712-0.0985 0.0984-0.232 0.1538-0.3712 0.1538z" fill="#FDD303"/>
<path d="m29.178 30.8c-0.1392 0-0.2727-0.0554-0.3712-0.1538-0.0984-0.0985-0.1537-0.232-0.1538-0.3712v-9.1c0-0.1392 0.0553-0.2728 0.1538-0.3712 0.0984-0.0985 0.232-0.1538 0.3712-0.1538 0.1393 0 0.2728 0.0553 0.3713 0.1538 0.0984 0.0984 0.1537 0.232 0.1537 0.3712v9.1c0 0.1392-0.0553 0.2727-0.1538 0.3712-0.0984 0.0984-0.232 0.1538-0.3712 0.1538z" fill="#FDD303"/>
<path d="m25.648 17.633c-0.1633 2.1152-0.635 4.1952-1.4 6.174-1.018-0.4702-2.1267-0.7115-3.248-0.707-1.0663-0.0012-2.1216 0.2156-3.101 0.637-0.0504 0.0204-0.0995 0.0438-0.147 0.07-0.7651-1.9788-1.2368-4.0588-1.4-6.174 0.0506-0.0436 0.1045-0.0833 0.161-0.119 1.3429-0.9403 2.9474-1.4347 4.5866-1.4133 1.6393 0.0213 3.2304 0.5573 4.5484 1.5323z" fill="#E0DFE6"/>
<path d="m23.097 24.5s2.1-2.8 2.1-11.9-4.2-12.6-4.2-12.6-4.2 3.5-4.2 12.6 2.1 11.9 2.1 11.9h4.2z" fill="#F9553F"/>
<path d="m33.6 37.8c-3.635 2.7263-8.0562 4.2-12.6 4.2-4.5437 0-8.965-1.4737-12.6-4.2h0.7s1.4 0 2.1-2.1 2.1-2.1 4.9-2.1 4.9-7.7 4.9-7.7 2.1 7.7 4.9 7.7 4.2 0 4.9 2.1 2.1 2.1 2.1 2.1h0.7z" fill="#ECF1F2"/>
<path d="m24.294 5.887c-2.1814-0.38264-4.4127-0.38264-6.594 0 1.232-4.165 3.297-5.887 3.297-5.887s2.065 1.722 3.297 5.887z" fill="#3A4946"/>
<path d="m20.997 11.2c1.1598 0 2.1-0.9402 2.1-2.1s-0.9402-2.1-2.1-2.1-2.1 0.9402-2.1 2.1 0.9402 2.1 2.1 2.1z" fill="#FDD303"/>
<path d="m20.997 16.45c0.7732 0 1.4-0.6268 1.4-1.4s-0.6268-1.4-1.4-1.4-1.4 0.6268-1.4 1.4 0.6268 1.4 1.4 1.4z" fill="#FDD303"/>
<path d="m20.997 21c0.5799 0 1.05-0.4701 1.05-1.05s-0.4701-1.05-1.05-1.05-1.05 0.4701-1.05 1.05 0.4701 1.05 1.05 1.05z" fill="#FDD303"/>
<path d="m18.897 24.5h4.2v1.4c0 0.1857-0.0738 0.3637-0.205 0.495-0.1313 0.1313-0.3094 0.205-0.495 0.205h-2.8c-0.1857 0-0.3637-0.0737-0.495-0.205s-0.205-0.3093-0.205-0.495v-1.4z" fill="#3A4946"/>
<path d="m7 8.4c0.3866 0 0.7-0.3134 0.7-0.7s-0.3134-0.7-0.7-0.7-0.7 0.3134-0.7 0.7 0.3134 0.7 0.7 0.7z" fill="#BFC1EF"/>
<path d="m11.2 15.4c0.3866 0 0.7-0.3134 0.7-0.7s-0.3134-0.7-0.7-0.7-0.7 0.3134-0.7 0.7 0.3134 0.7 0.7 0.7z" fill="#BFC1EF"/>
<path d="m14 5.6002c0.3866 0 0.7-0.31341 0.7-0.7 0-0.3866-0.3134-0.7-0.7-0.7s-0.7 0.3134-0.7 0.7c0 0.38659 0.3134 0.7 0.7 0.7z" fill="#BFC1EF"/>
<path d="m29.4 8.4c0.3866 0 0.7-0.3134 0.7-0.7s-0.3134-0.7-0.7-0.7-0.7 0.3134-0.7 0.7 0.3134 0.7 0.7 0.7z" fill="#BFC1EF"/>
<path d="m30.8 16.8c0.3866 0 0.7-0.3134 0.7-0.7s-0.3134-0.7-0.7-0.7-0.7 0.3134-0.7 0.7 0.3134 0.7 0.7 0.7z" fill="#BFC1EF"/>
<path d="m35 23.8c0.3866 0 0.7-0.3134 0.7-0.7s-0.3134-0.7-0.7-0.7-0.7 0.3134-0.7 0.7 0.3134 0.7 0.7 0.7z" fill="#BFC1EF"/>
<path d="m7 22.4c0.3866 0 0.7-0.3134 0.7-0.7s-0.3134-0.7-0.7-0.7-0.7 0.3134-0.7 0.7 0.3134 0.7 0.7 0.7z" fill="#BFC1EF"/>
<path d="m21.161 0.15382c-0.613 1.7776-1.0376 3.6147-1.267 5.481-0.2936 2.0753-0.4364 4.1691-0.427 6.265-0.0575 4.2296 0.3343 8.4532 1.169 12.6h-1.169s-1.75-2.8-1.75-11.9c-0.0235-2.2606 0.2328-4.5154 0.763-6.713h-7e-3c6e-3 -0.03352 0.0154-0.06634 0.028-0.098 0-7e-3 7e-3 -0.021 7e-3 -0.028 0.028-0.126 0.056-0.238 0.091-0.357 0.056-0.196 0.105-0.385 0.161-0.574 0.035-0.105 0.07-0.217 0.105-0.322 0.077-0.259 0.168-0.511 0.252-0.749 0.035-0.084 0.07-0.161 0.105-0.245 0.063-0.168 0.126-0.329 0.189-0.49 0.035-0.084 0.07-0.161 0.105-0.245 0.091-0.182 0.168-0.364 0.252-0.532 0.021-0.049 0.049-0.098 0.077-0.154 0.077-0.147 0.154-0.294 0.224-0.427 0.035-0.056 0.07-0.112 0.098-0.168 0.07-0.119 0.133-0.231 0.196-0.329l0.063-0.105c0.077-0.126 0.154-0.238 0.224-0.343 0.028-0.035 0.049-0.063 0.07-0.091 0.056-0.077 0.098-0.14 0.147-0.203 0.014-0.021 0.035-0.049 0.049-0.07 0.056-0.07 0.105-0.133 0.147-0.182 0.0114-0.009851 0.0208-0.021715 0.028-0.035l0.028-0.028 0.042 0.042z" fill="#fff" opacity=".3"/>
</g>
<defs>
<clipPath id="a">
<rect width="42" height="42" fill="#fff"/>
</clipPath>
</defs>
</svg>
