<svg width="1440" height="146" viewBox="0 0 1440 146" fill="none" xmlns="http://www.w3.org/2000/svg">
<g clip-path="url(#clip0_121_30756)">
<mask id="mask0_121_30756" style="mask-type:alpha" maskUnits="userSpaceOnUse" x="-59" y="-25" width="1502" height="171">
<rect x="-58.625" y="-24.3203" width="1501.62" height="170.154" fill="#A84EFF"/>
</mask>
<g mask="url(#mask0_121_30756)">
<path d="M203.854 71.8203C61.9323 45.8776 -148.808 22.5554 -148.808 83.2656L-147.135 133.625H1475.81V79.3209C1475.81 44.3803 1300.55 81.6096 1213.77 94.3014C1133.19 112.195 943.281 138.119 828.322 98.6707C713.364 59.2222 566.284 69.3339 507.114 79.3209C454.143 92.0126 313.309 91.8282 203.854 71.8203Z" fill="#17042B"/>
<path d="M201.565 91.6588C93.3692 68.197 -72.1874 92.0666 -147.135 101.842V145.833H1671.91V121.018C1513.67 84.9228 1300.55 98.8344 1213.76 110.302C1133.18 126.47 943.275 149.894 828.317 114.25C713.359 78.6061 566.281 87.7427 507.111 96.7665C454.14 108.234 309.761 115.121 201.565 91.6588Z" fill="white"/>
<path d="M185.313 121.821C85.2044 103.545 -147.078 90.1138 -147.078 146.425H1351.42C1351.42 108.102 1252.09 101.422 1111.31 122.18C1036.75 134.774 867.896 154.563 761.718 126.09C652.224 96.7289 511.447 101.073 456.7 108.102C407.689 117.035 285.421 140.098 185.313 121.821Z" fill="white"/>
</g>
</g>
<defs>
<clipPath id="clip0_121_30756">
<rect width="1465" height="144.974" fill="white" transform="translate(-22 0.859375)"/>
</clipPath>
</defs>
</svg>

