<svg width="1920" height="154" viewBox="0 0 1920 154" fill="none" xmlns="http://www.w3.org/2000/svg">
<g clip-path="url(#clip0_121_60978)">
<mask id="mask0_121_60978" style="mask-type:alpha" maskUnits="userSpaceOnUse" x="-48" y="-33" width="1968" height="223">
<rect x="-48" y="-33" width="1968" height="223" fill="#A84EFF"/>
</mask>
<g mask="url(#mask0_121_60978)">
<path d="M296 93C110 59 -166.192 28.4344 -166.192 108L-164 174H1963V102.83C1963 57.0377 1733.31 105.83 1619.58 122.463C1513.97 145.914 1265.08 179.89 1114.42 128.19C963.753 76.4891 770.994 89.7413 693.447 102.83C624.024 119.464 439.45 119.222 296 93Z" fill="#17042B"/>
<path d="M293 119C151.201 88.2514 -65.7745 119.534 -164 132.346V190H2220V157.477C2012.62 110.172 1733.3 128.404 1619.57 143.434C1513.96 164.623 1265.07 195.322 1114.41 148.608C963.747 101.893 770.989 113.868 693.442 125.694C624.02 140.723 434.799 149.749 293 119Z" fill="white"/>
<path d="M271.7 158.53C140.5 134.577 -163.925 116.975 -163.925 190.775H1799.98C1799.98 140.55 1669.8 131.795 1485.3 159C1387.58 175.506 1166.28 201.44 1027.13 164.125C883.625 125.645 699.125 131.337 627.375 140.55C563.142 152.258 402.9 182.484 271.7 158.53Z" fill="white"/>
</g>
</g>
<defs>
<clipPath id="clip0_121_60978">
<rect width="1920" height="190" fill="white"/>
</clipPath>
</defs>
</svg>

