<svg width="38" height="244" viewBox="0 0 38 244" fill="none" xmlns="http://www.w3.org/2000/svg">
<path d="M38 0H0V244H38V0Z" fill="#17042B"/>
<path d="M19.5 125.305C20.7316 125.305 21.73 124.307 21.73 123.075C21.73 121.844 20.7316 120.845 19.5 120.845C18.2684 120.845 17.27 121.844 17.27 123.075C17.27 124.307 18.2684 125.305 19.5 125.305Z" fill="#FF0F1D"/>
<path d="M17.21 115.179H21.37C21.37 115.179 19.29 55.8089 19.29 57.1026C19.29 58.3963 17.21 115.179 17.21 115.179Z" fill="#341456"/>
<path d="M21.37 130.106H17.21C17.21 130.106 19.29 189.477 19.29 188.183C19.29 186.889 21.37 130.106 21.37 130.106Z" fill="#341456"/>
<path d="M26.89 57.2827H11.37V189.739H26.89V57.2827Z" stroke="#341456" stroke-miterlimit="10"/>
<path d="M11 48.3497H28" stroke="#495685" stroke-miterlimit="10"/>
<path d="M26.63 42.6345H12.37" stroke="#495685" stroke-miterlimit="10"/>
<path d="M25.25 36.9193H13.75" stroke="#495685" stroke-miterlimit="10"/>
<path d="M23.88 31.1959H15.12" stroke="#495685" stroke-miterlimit="10"/>
<path d="M22.51 25.4808H16.49" stroke="#495685" stroke-miterlimit="10"/>
<path d="M21.14 19.7656H17.86" stroke="#495685" stroke-miterlimit="10"/>
<path d="M19.76 14.0422H19.24" stroke="#495685" stroke-miterlimit="10"/>
<path d="M18.39 8.32709H20.61" stroke="#495685" stroke-miterlimit="10"/>
<path d="M28 193.767H11" stroke="#495685" stroke-miterlimit="10"/>
<path d="M12.37 199.49H26.63" stroke="#495685" stroke-miterlimit="10"/>
<path d="M13.75 205.206H25.25" stroke="#495685" stroke-miterlimit="10"/>
<path d="M15.12 210.921H23.88" stroke="#495685" stroke-miterlimit="10"/>
<path d="M16.49 216.644H22.51" stroke="#495685" stroke-miterlimit="10"/>
<path d="M17.86 222.359H21.14" stroke="#495685" stroke-miterlimit="10"/>
<path d="M19.24 228.075H19.76" stroke="#495685" stroke-miterlimit="10"/>
<path d="M20.61 233.798H18.39" stroke="#495685" stroke-miterlimit="10"/>
</svg>
