<?xml version="1.0" encoding="UTF-8"?>
<svg fill="none" viewBox="0 0 1614 686" xmlns="http://www.w3.org/2000/svg">
<g opacity=".03">
<mask id="a" x="0" y="0" width="1614" height="686" style="mask-type:alpha" maskUnits="userSpaceOnUse">
<rect width="1614" height="686" fill="#D9D9D9"/>
</mask>
<g mask="url(#a)">
<path d="m636.96 729.44c1.98-55.09-16.37-109.49-47.41-154.63-39.82-58.13-95.57-102.49-152.88-142.56-52.06-36.18-106.28-68.55-159.28-103.89-56.4-37.87-111.88-78.26-154.24-132.76l-2.12-3.63c-7.62-11-15.06-22.57-22.03-35.19-34.4-60.54-37.79-122.36-38.48-190.37-0.52-23.78-1.49-46.69-4.29-70.03-2.47-19.77-6.1-39.59-12.01-58.82-1.23-4.06-2.6-8.12-4.22-12.34l295.92 137.47c-4.17 1.27-8.09 2.69-11.85 4.12-33.29 12.87-66.56 32.1-92.76 55.32-16.63 15.29-30.79 31.2-33.97 53.03-1.49 13.28 0.34 25.34 3.44 39.48 2.29 9.72 5.43 19.92 9.1 30.31l-2.12-3.63c18.77 38.51 47.39 72.56 77.23 103.84 111.55 118.01 293.37 229.41 341.61 390.22 9.03 30.45 12.64 62.41 11.36 94.08l-1-0.03v0.01z" fill="#25114C"/>
<path d="m627.84 732.95c5.44-200.69-199.3-313.41-336.8-423.68-50.04-39.79-99.56-81.58-135.85-135.39-12.16-21.49-24.59-42.68-35.66-64.98-43.89-85.86-33.33-142.81-12.51-232.72l67.88 31.53c-17.91 22.43-32.31 47.37-40.81 74.71-12.48 38.5-5.94 77.64 10.5 114.98 8.45 20.41 22.42 47.47 30.64 64.78 49.46 79.08 126.65 136.5 197.94 195.25 117.17 94.91 262.73 209.36 254.67 375.52z" fill="#2F1F60"/>
<path d="m636 747.06c-17.29-70.67-36.37-141.3-63.35-208.96-5.61-14.35-12.27-29.54-18.7-43.58-23.79-52.1-54.64-98.47-82.82-149.03-9.1-16.39-17.75-33.08-25.67-50.06-24.24-51.16-42.03-104.73-57.73-159.09-8.19-27.39-17.01-55.38-23.7-83.46-7.21-29.54-12.64-58.29-16.12-89.15-2.33-20.74-3.52-42.19-3.23-64.84l131.4 27.38c-7.07 13.13-12.54 28.05-16.93 43.76-13.13 49.41-16.05 102.69-11.13 153.9 7.78 61.56 24.96 121.97 47.2 179.83 16.77 42.19 37.42 81.82 56.23 124.13 11.37 25.21 21.45 51.49 30.26 77.74 7.12 21.72 13.85 44.17 19.54 66.32 5.8 22.16 10.96 44.66 15.7 67.01 7.57 35.86 13.86 71.89 20.05 107.91l-0.98 0.2-0.02-0.01z" fill="#25114C"/>
<path d="m616.19 754.34c-0.45-55.48 9.73-111 3.65-166.38-14.77-154.34-80.91-296.48-107.34-449.22-15.09-85.97-15.01-172.66 13.11-256.61 8.25-24.97 18.82-49.63 30.98-73.1l4.66-9.03 194.41 172.92c-1.47 0.49-2.92 1.02-4.41 1.55-1.49 0.52-2.97 1.08-4.36 1.7l-4.3 1.84-1.07 0.48-1.03 0.52-2.07 1.04c-37.88 18.7-63.35 54.29-79.46 93.09-47.99 120.58-27.78 273.01-23.22 401.33 1.66 37.61 1.81 75.42 0.03 113.03-0.61 18.76-2.65 37.74-5.4 56.27-2.58 17.65-6.03 37.53-8.53 55.18-2.58 18.36-4.43 36.85-4.66 55.4h-1l0.01-0.01z" fill="#25114C"/>
<path d="m638.66 752.98c4.46-52.62 12.53-105.37 26.08-156.45 7.48-28.17 16.91-56.55 27.9-83.53 2.18-5.09 6.73-15.59 8.85-20.43 1.97-4.08 7.6-15.89 9.66-20.17 2.4-4.57 8.21-15.49 10.52-19.86 2.43-4.23 8.82-15.1 11.39-19.5 17.84-29.2 39.39-56.29 59.41-83.66 10.32-14.33 20.24-28.89 28.32-44.11 16.29-30.49 26.25-64.44 35.86-98.2 24.35-87.3 44.2-186.23 14.59-272.29l146.37-34c1.83 11.64 3.26 23.27 4.1 34.84 1.64 22.53 1.44 45.84-0.54 68.22-7.91 89.86-40.29 171.91-78.18 251.31-19.65 41.7-43.57 84.55-75.69 118.7-37 39.88-72.09 67.42-103 106.94-50.52 64.06-85.05 139.42-109.22 217.35-4.08 13.01-8.38 27.95-11.83 41.15l-3.62 13.85-0.99-0.16h0.02z" fill="#25114C"/>
<path d="m637.87 772.09c33.54-133.23 189.61-162.71 291.52-227.32 18.69-11.6 36.64-24.39 53.66-38.27 55.82-45.84 101.5-102.82 139.75-163.82 23.33-37.3 44.13-76.09 63.06-115.82 18.79-40.17 37.19-81.48 43.89-125.38 6.51-53.85 10.13-109.2 0.52-162.48l-0.85-4.04c-0.46-2.32-0.93-4.56-2.23-6.5-2.83-5.07-6.5-8.86-10.45-13.22-3.64-3.86-7.03-8.2-10.69-12.98-14.36-18.96-25.16-44.03-31.65-67.89l171.4-3.73c-6.16 4.45-9.9 8.1-11.11 16.66-1.18 8.86 0.67 21.89 1.47 31.3 0.83 9.23 1.39 19.09 1.11 28.51-0.2 9.04-1.33 18.11-2.71 26.98-0.94 7.15-2.28 14.53-3.62 21.53-8.43 43.38-20.98 85.88-34.07 127.34-2.94 9.44-6.12 19.17-9.35 28.54-3.55 9.88-7.66 19.71-11.99 29.1-22.44 47.69-50.28 91.84-76.38 136.84-33.32 55.22-70.47 108.46-113.82 156.34-43.24 47.84-93.22 90.15-149.76 121.4-66.82 37.58-141.7 58.06-206.12 99.83-31.78 20.53-60.57 47.38-77.5 81.66-5.67 11.35-10.03 23.33-13.1 35.64l-0.97-0.24-0.01 0.02z" fill="#25114C"/>
<path d="m638.14 772.16c25.4-105.64 137.19-147.44 225.81-188.7 43.38-19.66 85.17-42.92 122.54-72.52 92.28-73.27 158.08-173.89 211.38-277.75 17.12-33.61 33.92-68.28 44.97-104.15 3.19-10.35 5.78-20.82 7.64-31.45 8.8-50.67 14.88-102.63 11.64-153.86-0.11-1.51-0.19-3.03-0.32-4.53l-0.44-4.48c-1.68-20.88-13.32-36.56-22.88-55.28-7.21-13.69-12.81-30.38-15.8-46.09l74.83-1.63c-2.65 8.93-3.4 17.59-1.98 28.68 2.32 16.28 7.5 34.45 7.87 51.76 0.44 8.99-0.51 18.32-1.15 27.28-5.15 53.76-17.62 106.02-31.45 157.84-1.63 6.22-3.61 12.81-5.68 18.85-14.75 42.66-37.17 82.31-58.41 121.71-5.24 9.58-13.2 24.14-18.55 33.5-76.95 136.45-175.4 253.17-323.15 314.45-83.73 38.31-186.3 74.42-220.91 168.26-2.14 5.98-3.98 12.07-5.54 18.23l-0.42-0.1v-0.02z" fill="#2F1F60"/>
<path d="m664.47 752.84c27.33-106.77 175.91-158.58 271.8-184.26 44.9-11.75 90.63-20.66 136.65-26.87 10.19-1.58 20.34-3.98 30.33-6.75 168.22-48.45 296.74-195.31 346.17-360.31 19.43-63.41 35.59-127.18 56.73-190.69 9.62-28.13 20.27-56.4 35.59-82.32 14.56-24.85 36.21-49.02 64.65-62 4.47-2.08 9.3-3.99 14.47-5.67l34.17 168c1.69-0.97 3.08-1.94 4.18-2.9 1.09-0.97 1.89-1.89 2.44-2.72 1.11-1.7 1.14-3.04 0.65-3.92-1.08-1.77-4.34-1.77-8.07-0.58999-9.76 3.32-18.31 10.09-26.24 16.83-9.52 8.26-18.45 17.71-26.84 27.49-40.43 47.79-71.79 103.72-101.08 159.25-37.02 71.47-79.58 140.78-134.63 199.8-69.47 74.2-158.85 131.69-258.32 155.08-13.99 3.32-28.67 5.6-43.07 6.73-113.69 12.03-270.58 43.8-355.2 124.29-20.3 19.65-36.64 44.12-43.41 71.79l-0.97-0.24v-0.02z" fill="#25114C"/>
</g>
</g>
</svg>
