<svg width="1614" height="686" viewBox="0 0 1614 686" fill="none" xmlns="http://www.w3.org/2000/svg">
<g opacity="0.03">
<mask id="mask0_110_8821" style="mask-type:alpha" maskUnits="userSpaceOnUse" x="0" y="0" width="1614" height="686">
<rect width="1614" height="686" fill="#D9D9D9"/>
</mask>
<g mask="url(#mask0_110_8821)">
<path d="M636.96 729.44C638.94 674.35 620.59 619.95 589.55 574.81C549.73 516.68 493.98 472.32 436.67 432.25C384.61 396.07 330.39 363.7 277.39 328.36C220.99 290.49 165.51 250.1 123.15 195.6L121.03 191.97C113.41 180.97 105.97 169.4 99 156.78C64.6 96.24 61.21 34.42 60.52 -33.59C60 -57.37 59.03 -80.28 56.23 -103.62C53.76 -123.39 50.13 -143.21 44.22 -162.44C42.99 -166.5 41.62 -170.56 40 -174.78L335.92 -37.31C331.75 -36.04 327.83 -34.62 324.07 -33.19C290.78 -20.32 257.51 -1.09003 231.31 22.13C214.68 37.42 200.52 53.33 197.34 75.16C195.85 88.44 197.68 100.5 200.78 114.64C203.07 124.36 206.21 134.56 209.88 144.95L207.76 141.32C226.53 179.83 255.15 213.88 284.99 245.16C396.54 363.17 578.36 474.57 626.6 635.38C635.63 665.83 639.24 697.79 637.96 729.46L636.96 729.43V729.44Z" fill="#25114C"/>
<path d="M627.84 732.95C633.28 532.26 428.54 419.54 291.04 309.27C241 269.48 191.48 227.69 155.19 173.88C143.03 152.39 130.6 131.2 119.53 108.9C75.64 23.04 86.2 -33.91 107.02 -123.82L174.9 -92.29C156.99 -69.86 142.59 -44.92 134.09 -17.58C121.61 20.92 128.15 60.06 144.59 97.4C153.04 117.81 167.01 144.87 175.23 162.18C224.69 241.26 301.88 298.68 373.17 357.43C490.34 452.34 635.9 566.79 627.84 732.95Z" fill="#2F1F60"/>
<path d="M636 747.06C618.71 676.39 599.63 605.76 572.65 538.1C567.04 523.75 560.38 508.56 553.95 494.52C530.16 442.42 499.31 396.05 471.13 345.49C462.03 329.1 453.38 312.41 445.46 295.43C421.22 244.27 403.43 190.7 387.73 136.34C379.54 108.95 370.72 80.96 364.03 52.88C356.82 23.34 351.39 -5.40999 347.91 -36.27C345.58 -57.01 344.39 -78.46 344.68 -101.11L476.08 -73.73C469.01 -60.6 463.54 -45.68 459.15 -29.97C446.02 19.44 443.1 72.72 448.02 123.93C455.8 185.49 472.98 245.9 495.22 303.76C511.99 345.95 532.64 385.58 551.45 427.89C562.82 453.1 572.9 479.38 581.71 505.63C588.83 527.35 595.56 549.8 601.25 571.95C607.05 594.11 612.21 616.61 616.95 638.96C624.52 674.82 630.81 710.85 637 746.87L636.02 747.07L636 747.06Z" fill="#25114C"/>
<path d="M616.19 754.34C615.74 698.86 625.92 643.34 619.84 587.96C605.07 433.62 538.93 291.48 512.5 138.74C497.41 52.77 497.49 -33.92 525.61 -117.87C533.86 -142.84 544.43 -167.5 556.59 -190.97L561.25 -200L755.66 -27.08C754.19 -26.59 752.74 -26.06 751.25 -25.53C749.76 -25.01 748.28 -24.45 746.89 -23.83L742.59 -21.99L741.52 -21.51L740.49 -20.99L738.42 -19.95C700.54 -1.25 675.07 34.34 658.96 73.14C610.97 193.72 631.18 346.15 635.74 474.47C637.4 512.08 637.55 549.89 635.77 587.5C635.16 606.26 633.12 625.24 630.37 643.77C627.79 661.42 624.34 681.3 621.84 698.95C619.26 717.31 617.41 735.8 617.18 754.35H616.18L616.19 754.34Z" fill="#25114C"/>
<path d="M638.66 752.98C643.12 700.36 651.19 647.61 664.74 596.53C672.22 568.36 681.65 539.98 692.64 513C694.82 507.91 699.37 497.41 701.49 492.57C703.46 488.49 709.09 476.68 711.15 472.4C713.55 467.83 719.36 456.91 721.67 452.54C724.1 448.31 730.49 437.44 733.06 433.04C750.9 403.84 772.45 376.75 792.47 349.38C802.79 335.05 812.71 320.49 820.79 305.27C837.08 274.78 847.04 240.83 856.65 207.07C881 119.77 900.85 20.84 871.24 -65.22L1017.61 -99.22C1019.44 -87.58 1020.87 -75.95 1021.71 -64.38C1023.35 -41.85 1023.15 -18.54 1021.17 3.84C1013.26 93.7 980.88 175.75 942.99 255.15C923.34 296.85 899.42 339.7 867.3 373.85C830.3 413.73 795.21 441.27 764.3 480.79C713.78 544.85 679.25 620.21 655.08 698.14C651 711.15 646.7 726.09 643.25 739.29L639.63 753.14L638.64 752.98H638.66Z" fill="#25114C"/>
<path d="M637.87 772.09C671.41 638.86 827.48 609.38 929.39 544.77C948.08 533.17 966.03 520.38 983.05 506.5C1038.87 460.66 1084.55 403.68 1122.8 342.68C1146.13 305.38 1166.93 266.59 1185.86 226.86C1204.65 186.69 1223.05 145.38 1229.75 101.48C1236.26 47.63 1239.88 -7.71999 1230.27 -61L1229.42 -65.04C1228.96 -67.36 1228.49 -69.6 1227.19 -71.54C1224.36 -76.61 1220.69 -80.4 1216.74 -84.76C1213.1 -88.62 1209.71 -92.96 1206.05 -97.74C1191.69 -116.7 1180.89 -141.77 1174.4 -165.63L1345.8 -169.36C1339.64 -164.91 1335.9 -161.26 1334.69 -152.7C1333.51 -143.84 1335.36 -130.81 1336.16 -121.4C1336.99 -112.17 1337.55 -102.31 1337.27 -92.89C1337.07 -83.85 1335.94 -74.78 1334.56 -65.91C1333.62 -58.76 1332.28 -51.38 1330.94 -44.38C1322.51 -0.999985 1309.96 41.5 1296.87 82.96C1293.93 92.4 1290.75 102.13 1287.52 111.5C1283.97 121.38 1279.86 131.21 1275.53 140.6C1253.09 188.29 1225.25 232.44 1199.15 277.44C1165.83 332.66 1128.68 385.9 1085.33 433.78C1042.09 481.62 992.11 523.93 935.57 555.18C868.75 592.76 793.87 613.24 729.45 655.01C697.67 675.54 668.88 702.39 651.95 736.67C646.28 748.02 641.92 760 638.85 772.31L637.88 772.07L637.87 772.09Z" fill="#25114C"/>
<path d="M638.14 772.16C663.54 666.52 775.33 624.72 863.95 583.46C907.33 563.8 949.12 540.54 986.49 510.94C1078.77 437.67 1144.57 337.05 1197.87 233.19C1214.99 199.58 1231.79 164.91 1242.84 129.04C1246.03 118.69 1248.62 108.22 1250.48 97.59C1259.28 46.92 1265.36 -5.04001 1262.12 -56.27C1262.01 -57.78 1261.93 -59.3 1261.8 -60.8L1261.36 -65.28C1259.68 -86.16 1248.04 -101.84 1238.48 -120.56C1231.27 -134.25 1225.67 -150.94 1222.68 -166.65L1297.51 -168.28C1294.86 -159.35 1294.11 -150.69 1295.53 -139.6C1297.85 -123.32 1303.03 -105.15 1303.4 -87.84C1303.84 -78.85 1302.89 -69.52 1302.25 -60.56C1297.1 -6.8 1284.63 45.46 1270.8 97.28C1269.17 103.5 1267.19 110.09 1265.12 116.13C1250.37 158.79 1227.95 198.44 1206.71 237.84C1201.47 247.42 1193.51 261.98 1188.16 271.34C1111.21 407.79 1012.76 524.51 865.01 585.79C781.28 624.1 678.71 660.21 644.1 754.05C641.96 760.03 640.12 766.12 638.56 772.28L638.14 772.18V772.16Z" fill="#2F1F60"/>
<path d="M664.47 752.84C691.8 646.07 840.38 594.26 936.27 568.58C981.17 556.83 1026.9 547.92 1072.92 541.71C1083.11 540.13 1093.26 537.73 1103.25 534.96C1271.47 486.51 1399.99 339.65 1449.42 174.65C1468.85 111.24 1485.01 47.47 1506.15 -16.04C1515.77 -44.17 1526.42 -72.44 1541.74 -98.36C1556.3 -123.21 1577.95 -147.38 1606.39 -160.36C1610.86 -162.44 1615.69 -164.35 1620.86 -166.03L1655.03 1.97C1656.72 1 1658.11 0.030014 1659.21 -0.929993C1660.3 -1.89999 1661.1 -2.81999 1661.65 -3.64999C1662.76 -5.34999 1662.79 -6.69 1662.3 -7.57001C1661.22 -9.34001 1657.96 -9.34 1654.23 -8.16C1644.47 -4.84 1635.92 1.92999 1627.99 8.67C1618.47 16.93 1609.54 26.38 1601.15 36.16C1560.72 83.95 1529.36 139.88 1500.07 195.41C1463.05 266.88 1420.49 336.19 1365.44 395.21C1295.97 469.41 1206.59 526.9 1107.12 550.29C1093.13 553.61 1078.45 555.89 1064.05 557.02C950.36 569.05 793.47 600.82 708.85 681.31C688.55 700.96 672.21 725.43 665.44 753.1L664.47 752.86V752.84Z" fill="#25114C"/>
</g>
</g>
</svg>
