<?xml version="1.0" encoding="UTF-8"?>
<svg fill="none" viewBox="0 0 1920 481" xmlns="http://www.w3.org/2000/svg">
<mask id="a" x="-304" y="0" width="2398" height="481" style="mask-type:alpha" maskUnits="userSpaceOnUse">
<rect x="-304" width="2398" height="481" fill="#D9D9D9"/>
</mask>
<g mask="url(#a)">
<path d="m116.15 586.07 935.42-500.1 18.47-4.6066-1374 511.75c55.917 0.095 364.24-7.299 420.15-7.048z" fill="#7F00FA"/>
<path d="m315.16 591.46c9.237-11.283 20.127-19.084 32.67-23.415 11.547-8.232 24.002-12.384 37.365-12.432 7.191-2.381 14.382-3.446 21.573-3.219l650.58-451.78 8.4-18.462-1242.2 511.32c48.88 0.191 374.68 27.065 462.74 31.121 7.946-13.09 17.556-24.146 28.829-33.132z" fill="#6B02D1"/>
<path d="m315.16 591.46c9.237-11.284 20.127-19.085 32.67-23.416 11.547-8.232 24.002-12.384 37.365-12.432 13.123-4.332 26.246-4.332 39.358 0 19.7 1.101 38.055 8.304 55.052 21.609 6.436 6.114 12.86 12.228 19.296 18.331l560.75-486.82 1.63-25.654-1110.7 511c30.645 0.167 208.61 5.336 351.7 9.321 4.027-4.32 8.307-8.304 12.882-11.953l-0.011 0.012z" fill="#A84EFF"/>
<path d="m315.16 591.46c9.237-11.283 20.127-19.084 32.67-23.415 11.547-8.232 24.002-12.384 37.365-12.432 13.123-4.332 26.246-4.332 39.358 0 19.7 1.101 38.055 8.304 55.052 21.609 5.33 5.061 10.649 10.122 15.979 15.184 72.214-0.455 128.95-0.754 143.7-0.646l418.05-491.96-0.63-15.603-979.39 510.67c20.609 0.131 123.06-0.515 235.25-1.257 0.865-0.73 1.729-1.448 2.605-2.154h-0.011z" fill="#6B02D1"/>
<path d="m315.16 591.46c9.237-11.284 20.127-19.085 32.67-23.416 11.547-8.232 24.002-12.384 37.365-12.432 13.123-4.332 26.246-4.332 39.358 0 19.7 1.101 38.055 8.304 55.052 21.609 4.794 4.559 9.588 9.105 14.381 13.664l574.91-498.41-16.85-6.9517-848.07 510.22c17.73 0.132 56.781 2.728 100.06 5.815 3.513-3.613 7.224-6.988 11.131-10.098z" fill="#A84EFF"/>
<path d="m424.55 555.62c19.7 1.101 38.055 8.304 55.052 21.609 8.854 8.411 17.698 16.823 26.552 25.234 55.556 2.023 106.8 3.829 125.06 3.937l420.36-520.43-4.24 1.1127-656.82 467.01c11.349-2.74 22.688-2.237 34.038 1.52z" fill="#7F00FA"/>
<path d="m501.22 597.76c11.229 0.072 22.459 0.144 33.688 0.204 7.464-0.335 51.922 4.498 96.686 9.368 13.068-12.97 28.041-21.92 44.917-26.85 17.983-3.122 34.98-10.888 52.327-17.17 7.366-2.668 14.787-4.941 22.361-6.437 6.512-1.292 13.046-2.489 19.591-3.625l286.55-453.44-14.65-10.876-562.52 488.84c7.016 6.665 14.031 13.33 21.047 19.994z" fill="#A84EFF"/>
<path d="m645.54 595.54c9.489-6.773 19.81-11.798 30.973-15.065 17.983-3.122 34.98-10.888 52.327-17.17 7.366-2.668 14.787-4.941 22.361-6.437 15.618-3.087 31.378-5.815 47.106-7.837 3.119-0.407 6.26-0.634 9.391-0.754 1.236-0.048 2.473-0.06 3.71-0.072l245.94-447.59-19.11-9.572-451.72 504.72c13.068-0.538 34.596-0.491 59.036-0.215h-0.011z" fill="#7F00FA"/>
<path d="m751.2 556.86c15.618-3.087 31.378-5.815 47.106-7.837 3.119-0.407 6.26-0.634 9.391-0.754 25.906-0.969 52.545 5.349 77.872 9.68 13.626 2.333 27.143 5.504 40.649 8.699l117.26-458.72-9.39-14.502-299.02 467.73c5.319-1.735 10.671-3.219 16.111-4.296h0.011z" fill="#A84EFF"/>
<path d="m885.57 557.95c27.81 4.75 55.128 13.042 82.939 17.744l-22.491-3.721c11.7 1.951 23.356 3.985 34.979 6.174l61.337-470.23-11.88-11.882-175.08 456.46c10.19 1.747 20.303 3.745 30.208 5.432l-0.011 0.024z" fill="#7F00FA"/>
<path d="m968.5 575.7-1.992-0.335-0.022 0.132c13.769 2.441 27.493 5.073 41.199 8.064 32.1-1.304 68.37-3.063 92.37-3.194l-56.58-472.44-16.04-9.0937-60.927 476.51c0.668 0.12 1.325 0.24 1.992 0.359z" fill="#A84EFF"/>
<path d="m1087.7 583.77c35.45-0.144 84.32-0.347 119.76-0.144l-147.81-474.88-34.51-7.072 61.65 482.1h0.93-0.02z" fill="#7F00FA"/>
<path d="m1316.7 585.35-274.37-477.42-18.78-3.482 183.92 479.52c36.43 0.264 72.84 0.718 109.23 1.376v0.012z" fill="#A84EFF"/>
<path d="m1385.4 586.83c18.85 0.479 37.68 1.065 56.5 1.735l-414.6-489.58-4.74 8.0881 301.22 480.58c18.99 0.371 42.65-1.305 61.62-0.826z" fill="#7F00FA"/>
<path d="m1492.4 590.58 80.02-5.277-549.71-478.19-0.59 2.345 426.49 486.46c13.73 0.514 30.06-5.947 43.79-5.349v0.012z" fill="#A84EFF"/>
<path d="m1694 590.58-651.72-474.52-20.37-4.487 551.18 479h120.91z" fill="#6B02D1"/>
<path d="m1021.5 113.62 0.45-0.203 671.09 477.16 124.58-7.347" fill="#7F00FA"/>
<path d="m1042.9 108.05-20.74 8.255 1.12 0.587 19.62-8.842z" fill="#E84343"/>
<path d="m1022.1 114.97 790.51 475.6h119.14l-891.23-464.7" fill="#A84EFF"/>
<path d="m1040 125.63 954.54 512.11h16.26l-360.78-223.34-610.02-288.77z" fill="#6B02D1"/>
</g>
</svg>
