<svg width="1920" height="481" viewBox="0 0 1920 481" fill="none" xmlns="http://www.w3.org/2000/svg">
<mask id="mask0_110_8794" style="mask-type:alpha" maskUnits="userSpaceOnUse" x="-304" y="0" width="2398" height="481">
<rect x="-304" width="2398" height="481" fill="#D9D9D9"/>
</mask>
<g mask="url(#mask0_110_8794)">
<path d="M116.148 586.066L1051.57 85.9698L1070.04 81.3632L-304 593.114C-248.083 593.209 60.2421 585.815 116.148 586.066Z" fill="#7F00FA"/>
<path d="M315.157 591.462C324.394 580.179 335.284 572.378 347.827 568.047C359.374 559.815 371.829 555.663 385.192 555.615C392.383 553.234 399.574 552.169 406.765 552.396L1057.34 100.615L1065.74 82.1529L-176.417 593.473C-127.537 593.664 198.267 620.538 286.328 624.594C294.274 611.504 303.884 600.448 315.157 591.462Z" fill="#6B02D1"/>
<path d="M315.157 591.463C324.394 580.179 335.284 572.378 347.827 568.047C359.374 559.815 371.829 555.663 385.192 555.615C398.315 551.283 411.438 551.283 424.55 555.615C444.25 556.716 462.605 563.919 479.602 577.224C486.038 583.338 492.462 589.452 498.898 595.555L1059.65 108.74L1061.28 83.0862L-49.4136 594.083C-18.7683 594.25 159.194 599.419 302.286 603.404C306.313 599.084 310.593 595.1 315.168 591.451L315.157 591.463Z" fill="#A84EFF"/>
<path d="M315.157 591.462C324.394 580.179 335.284 572.378 347.827 568.047C359.374 559.815 371.829 555.663 385.192 555.615C398.315 551.283 411.438 551.283 424.55 555.615C444.25 556.716 462.605 563.919 479.602 577.224C484.932 582.285 490.251 587.346 495.581 592.408C567.795 591.953 624.533 591.654 639.286 591.762L1057.34 99.8015L1056.71 84.1989L77.3159 594.873C97.9249 595.004 200.379 594.358 312.563 593.616C313.428 592.886 314.292 592.168 315.168 591.462H315.157Z" fill="#6B02D1"/>
<path d="M315.157 591.463C324.394 580.179 335.284 572.378 347.827 568.047C359.374 559.815 371.829 555.663 385.192 555.615C398.315 551.283 411.438 551.283 424.55 555.615C444.25 556.716 462.605 563.919 479.602 577.224C484.396 581.783 489.19 586.329 493.983 590.888L1068.89 92.4788L1052.04 85.5271L203.969 595.746C221.699 595.878 260.75 598.474 304.026 601.561C307.539 597.948 311.25 594.573 315.157 591.463Z" fill="#A84EFF"/>
<path d="M424.55 555.615C444.25 556.716 462.605 563.919 479.602 577.224C488.456 585.635 497.3 594.047 506.154 602.458C561.71 604.481 612.953 606.287 631.209 606.395L1051.57 85.9698L1047.33 87.0825L390.512 554.095C401.861 551.355 413.2 551.858 424.55 555.615Z" fill="#7F00FA"/>
<path d="M501.218 597.756C512.447 597.828 523.677 597.9 534.906 597.96C542.37 597.625 586.828 602.458 631.592 607.328C644.66 594.358 659.633 585.408 676.509 580.478C694.492 577.356 711.489 569.59 728.836 563.308C736.202 560.64 743.623 558.367 751.197 556.871C757.709 555.579 764.243 554.382 770.788 553.246L1057.34 99.8015L1042.69 88.9252L480.171 577.762C487.187 584.427 494.202 591.092 501.218 597.756Z" fill="#A84EFF"/>
<path d="M645.536 595.543C655.025 588.77 665.346 583.745 676.509 580.478C694.492 577.356 711.489 569.59 728.836 563.308C736.202 560.64 743.623 558.367 751.197 556.871C766.815 553.784 782.575 551.056 798.303 549.034C801.422 548.627 804.563 548.4 807.694 548.28C808.93 548.232 810.167 548.22 811.404 548.208L1057.34 100.615L1038.23 91.043L586.511 595.758C599.579 595.22 621.107 595.267 645.547 595.543H645.536Z" fill="#7F00FA"/>
<path d="M751.197 556.859C766.815 553.772 782.575 551.044 798.303 549.022C801.422 548.615 804.563 548.388 807.694 548.268C833.6 547.299 860.239 553.617 885.566 557.948C899.192 560.281 912.709 563.452 926.215 566.647L1043.48 107.926L1034.09 93.4241L735.075 561.155C740.394 559.42 745.746 557.936 751.186 556.859H751.197Z" fill="#A84EFF"/>
<path d="M885.566 557.948C913.376 562.698 940.694 570.99 968.505 575.692L946.014 571.971C957.714 573.922 969.37 575.956 980.993 578.145L1042.33 107.914L1030.45 96.0325L855.369 552.492C865.559 554.239 875.672 556.237 885.577 557.924L885.566 557.948Z" fill="#7F00FA"/>
<path d="M968.505 575.704L966.513 575.369L966.491 575.501C980.26 577.942 993.984 580.574 1007.69 583.565C1039.79 582.261 1076.06 580.502 1100.06 580.371L1043.48 107.926L1027.44 98.8323L966.513 575.345C967.181 575.465 967.838 575.585 968.505 575.704Z" fill="#A84EFF"/>
<path d="M1087.7 583.769C1123.15 583.625 1172.02 583.422 1207.46 583.625L1059.65 108.74L1025.14 101.668L1086.79 583.769C1087.09 583.769 1087.4 583.769 1087.72 583.769H1087.7Z" fill="#7F00FA"/>
<path d="M1316.7 585.348L1042.33 107.926L1023.55 104.444L1207.47 583.96C1243.9 584.224 1280.31 584.678 1316.7 585.336V585.348Z" fill="#A84EFF"/>
<path d="M1385.41 586.832C1404.26 587.311 1423.09 587.897 1441.91 588.567L1027.31 98.9879L1022.57 107.076L1323.79 587.658C1342.78 588.029 1366.44 586.353 1385.41 586.832Z" fill="#7F00FA"/>
<path d="M1492.38 590.577L1572.4 585.3L1022.69 107.112L1022.1 109.457L1448.59 595.914C1462.32 596.428 1478.65 589.967 1492.38 590.565V590.577Z" fill="#A84EFF"/>
<path d="M1694.05 590.577L1042.33 116.062L1021.96 111.575L1573.14 590.577H1694.05Z" fill="#6B02D1"/>
<path d="M1021.54 113.621L1021.99 113.418L1693.08 590.577L1817.66 583.23" fill="#7F00FA"/>
<path d="M1042.89 108.046L1022.15 116.301L1023.27 116.888L1042.89 108.046Z" fill="#E84343"/>
<path d="M1022.08 114.973L1812.59 590.577H1931.73L1040.5 125.874" fill="#A84EFF"/>
<path d="M1040.02 125.634L1994.56 637.744H2010.82L1650.04 414.403L1040.02 125.634Z" fill="#6B02D1"/>
</g>
</svg>
