<svg width="12" height="37" viewBox="0 0 12 37" fill="none" xmlns="http://www.w3.org/2000/svg">
<path d="M1.25165 0.614256L6.60685 0.00636378C7.25799 -0.0676125 7.79796 0.514547 7.68044 1.17069L5.49833 13.4475C5.37763 14.1198 5.94937 14.7116 6.61639 14.6054L10.8663 13.93C11.5237 13.8271 12.0923 14.3996 11.9875 15.0654L8.73178 36.1583C8.6365 36.7694 8.02348 37.1457 7.44539 36.9463L6.93402 36.7694C6.53381 36.6311 6.26381 36.2451 6.27017 35.8173L6.43852 22.5112C6.44805 21.8487 5.82549 21.3662 5.19658 21.5399L1.24213 22.6399C0.610048 22.8168 -0.0125139 22.3279 0.000191204 21.6621L0.381349 1.58238C0.390878 1.08384 0.762502 0.668934 1.25483 0.614256H1.25165Z" fill="white"/>
</svg>
