<svg width="1072" height="250" viewBox="0 0 1072 250" fill="none" xmlns="http://www.w3.org/2000/svg">
<path d="M986 125L958 97H990V112.75V128.5L986 125Z" fill="#02BBFF" fill-opacity="0.3"/>
<g filter="url(#filter0_d_473_1068)">
<path d="M432 97H384L440 146H486L432 97Z" fill="#02BBFF"/>
<path d="M506 97H458V100.5L506 146H560L506 97Z" fill="#02BBFF"/>
<path d="M314 97H362L416 146H362L314 97Z" fill="#02BBFF"/>
<path d="M294 97H244L294 146H342L294 97Z" fill="#02BBFF"/>
<path d="M222 97H172L224 146L274 144.25L222 97Z" fill="#02BBFF"/>
<path d="M148 97H104L156 146L202 144.25L148 97Z" fill="#02BBFF"/>
</g>
<g filter="url(#filter1_d_473_1068)">
<path d="M849.895 96H804.105L857.526 145H901.408L849.895 96Z" fill="#02BBFF" fill-opacity="0.5" shape-rendering="crispEdges"/>
<path d="M920.487 96H874.697V99.5L920.487 145H972L920.487 96Z" fill="#02BBFF" fill-opacity="0.5" shape-rendering="crispEdges"/>
<path d="M737.329 96H783.118L834.632 145H783.118L737.329 96Z" fill="#02BBFF" fill-opacity="0.5" shape-rendering="crispEdges"/>
<path d="M718.25 96H670.553L718.25 145H764.039L718.25 96Z" fill="#02BBFF" fill-opacity="0.5" shape-rendering="crispEdges"/>
<path d="M649.566 96H601.868L651.474 145L699.171 143.25L649.566 96Z" fill="#02BBFF" fill-opacity="0.5" shape-rendering="crispEdges"/>
<path d="M578.974 96H537L586.605 145L630.487 143.25L578.974 96Z" fill="#02BBFF" fill-opacity="0.5" shape-rendering="crispEdges"/>
</g>
<g filter="url(#filter2_d_473_1068)">
<path d="M130 144.251L100 116.251V144.251H130Z" fill="#02BBFF"/>
</g>
<defs>
<filter id="filter0_d_473_1068" x="4" y="1" width="656" height="249" filterUnits="userSpaceOnUse" color-interpolation-filters="sRGB">
<feFlood flood-opacity="0" result="BackgroundImageFix"/>
<feColorMatrix in="SourceAlpha" type="matrix" values="0 0 0 0 0 0 0 0 0 0 0 0 0 0 0 0 0 0 127 0" result="hardAlpha"/>
<feOffset dy="4"/>
<feGaussianBlur stdDeviation="50"/>
<feComposite in2="hardAlpha" operator="out"/>
<feColorMatrix type="matrix" values="0 0 0 0 0.00833333 0 0 0 0 0.734985 0 0 0 0 1 0 0 0 1 0"/>
<feBlend mode="normal" in2="BackgroundImageFix" result="effect1_dropShadow_473_1068"/>
<feBlend mode="normal" in="SourceGraphic" in2="effect1_dropShadow_473_1068" result="shape"/>
</filter>
<filter id="filter1_d_473_1068" x="437" y="0" width="635" height="249" filterUnits="userSpaceOnUse" color-interpolation-filters="sRGB">
<feFlood flood-opacity="0" result="BackgroundImageFix"/>
<feColorMatrix in="SourceAlpha" type="matrix" values="0 0 0 0 0 0 0 0 0 0 0 0 0 0 0 0 0 0 127 0" result="hardAlpha"/>
<feOffset dy="4"/>
<feGaussianBlur stdDeviation="50"/>
<feComposite in2="hardAlpha" operator="out"/>
<feColorMatrix type="matrix" values="0 0 0 0 0.00833333 0 0 0 0 0.734985 0 0 0 0 1 0 0 0 1 0"/>
<feBlend mode="normal" in2="BackgroundImageFix" result="effect1_dropShadow_473_1068"/>
<feBlend mode="normal" in="SourceGraphic" in2="effect1_dropShadow_473_1068" result="shape"/>
</filter>
<filter id="filter2_d_473_1068" x="0" y="20.251" width="230" height="228" filterUnits="userSpaceOnUse" color-interpolation-filters="sRGB">
<feFlood flood-opacity="0" result="BackgroundImageFix"/>
<feColorMatrix in="SourceAlpha" type="matrix" values="0 0 0 0 0 0 0 0 0 0 0 0 0 0 0 0 0 0 127 0" result="hardAlpha"/>
<feOffset dy="4"/>
<feGaussianBlur stdDeviation="50"/>
<feComposite in2="hardAlpha" operator="out"/>
<feColorMatrix type="matrix" values="0 0 0 0 0.00833333 0 0 0 0 0.734985 0 0 0 0 1 0 0 0 1 0"/>
<feBlend mode="normal" in2="BackgroundImageFix" result="effect1_dropShadow_473_1068"/>
<feBlend mode="normal" in="SourceGraphic" in2="effect1_dropShadow_473_1068" result="shape"/>
</filter>
</defs>
</svg>
