<svg width="88" height="105" viewBox="0 0 88 105" fill="none" xmlns="http://www.w3.org/2000/svg">
<path d="M33.0285 8.87398C28.1115 8.87398 24.1366 12.8668 24.1366 17.7569C24.1366 12.8668 20.1617 8.87398 15.2626 8.87398C20.1527 8.87398 24.1366 4.89908 24.1366 0C24.1366 4.89908 28.1115 8.87398 33.0285 8.87398Z" fill="#FF0F1E"/>
<path d="M68.5153 98.2058C68.5153 101.597 53.1811 104.352 34.2577 104.352C15.3343 104.352 0 101.597 0 98.2058C0 94.8142 15.3343 92.0596 34.2577 92.0596C53.1811 92.0596 68.5153 94.8142 68.5153 98.2058Z" fill="#000002"/>
<path d="M86.2812 62.1987C86.2812 83.1947 69.2601 100.216 48.273 100.216C27.2859 100.216 10.2646 83.1947 10.2646 62.1987C10.2646 41.2026 27.2859 24.1904 48.273 24.1904C69.2601 24.1904 86.2812 41.2026 86.2812 62.1987Z" fill="#FFE9CF"/>
<path fill-rule="evenodd" clip-rule="evenodd" d="M46.1375 100.709C45.4018 100.539 44.657 100.359 43.8225 100.171C43.9212 99.6504 44.0738 99.13 44.1277 98.6006C44.3699 96.1331 43.6701 95.1013 41.3192 94.3835C40.9962 94.2848 40.5296 94.3028 40.386 94.0874C40.0092 93.549 39.7759 92.912 39.4888 92.3198C40.1169 92.1044 40.8884 91.5481 41.3371 91.7366C42.7548 92.3557 44.1725 93.1183 45.3479 94.1143C45.9043 94.5809 46.1555 95.7294 46.0926 96.5369C45.9491 98.493 46.4067 99.812 48.5961 100.054C48.928 100.09 49.2151 100.476 49.5202 100.7H46.1465L46.1375 100.709Z" fill="#000002"/>
<path fill-rule="evenodd" clip-rule="evenodd" d="M10.7313 66.317C11.4312 66.5862 12.1401 66.8554 13.2168 67.2681C12.3913 68.0128 11.9068 68.4525 11.3056 68.9999C11.0902 68.4884 10.9108 68.0757 10.7313 67.6629V66.317Z" fill="#000002"/>
<path fill-rule="evenodd" clip-rule="evenodd" d="M67.4834 61.0052C68.3448 58.3224 68.8473 58.0622 71.3058 58.6723C73.3695 59.1838 75.4782 59.5158 77.5508 59.9913C78.3584 60.1798 79.0941 60.6822 79.9017 60.8348C80.5298 60.9514 81.3103 60.8976 81.8577 60.6104C82.1897 60.431 82.4947 59.4619 82.3153 59.2107C81.9743 58.7531 81.3013 58.4032 80.7181 58.3045C77.2636 57.7123 73.7912 57.2008 70.0676 56.6266C70.579 55.5857 70.911 54.9038 71.0905 54.527C74.2488 55.0025 77.2278 55.3973 80.1798 55.9177C81.1488 56.0882 82.0551 56.5996 83.0062 56.9227C84.0201 57.2726 85.052 57.5777 86.3709 57.9904C86.3979 58.1968 86.4876 58.771 86.6042 59.5158C84.8725 59.3812 84.2803 60.422 83.4638 61.6154C82.1897 63.4727 80.8976 65.2762 80.3234 67.4476C80.1529 68.1206 80.4131 69.0089 80.754 69.6549C80.8976 69.9241 82.1089 70.0407 82.1986 69.8792C82.5396 69.2601 82.8177 68.4705 82.746 67.7886C82.6293 66.676 82.4588 65.6172 83.5356 64.9353C83.8137 64.7558 84.6931 64.8994 84.72 65.034C84.9354 65.9492 85.0878 66.9003 85.0968 67.8334C85.1147 69.3139 85.1327 70.8124 84.9353 72.2839C84.6841 74.1143 84.2265 75.9268 83.8317 77.8559C81.8129 77.515 80.108 77.6226 78.9416 75.8729C78.5468 75.2807 77.3265 75.191 76.4561 74.9757C75.5229 74.7424 74.5181 74.7424 73.6029 74.4553C71.6468 73.8362 69.7626 72.894 67.7706 72.4903C66.8734 72.3108 65.5454 72.8492 64.8186 73.5042C62.4229 75.6845 60.1976 78.0533 57.9724 80.4131C57.6763 80.7272 57.8109 81.427 57.7481 81.9564C58.4031 81.9564 59.3363 82.2167 59.6773 81.8847C61.6333 79.9555 63.4278 77.8828 65.3031 75.8819C65.8325 75.3256 66.3708 74.6796 67.0438 74.3835C67.4565 74.204 68.1295 74.5809 68.6858 74.7065C68.5513 75.2538 68.605 75.9806 68.264 76.3036C66.2003 78.2597 64.0201 80.0901 61.9563 82.0462C61.6064 82.3782 61.5884 83.069 61.4179 83.5894C62.037 83.5894 62.8984 83.8586 63.2394 83.5536C65.5812 81.4001 67.8244 79.13 70.0855 76.8958C70.3637 76.6267 70.5342 76.0345 70.7944 76.0076C71.5122 75.9358 72.2839 75.9986 72.9568 76.2319C73.1004 76.2857 73.1452 77.5419 72.8491 77.811C69.8971 80.449 66.9092 83.0511 63.8406 85.5455C62.6562 86.5056 61.5615 86.0569 60.2156 85.2135C58.5377 84.1637 56.4112 83.8228 54.5 83.1049C53.9078 82.8896 53.4054 82.4589 52.858 82.1179C53.2977 81.6603 53.6925 81.1309 54.2039 80.7451C54.9846 80.1619 55.9805 79.8119 56.6445 79.13C58.9325 76.7433 61.1218 74.2579 63.356 71.8173C64.9801 70.0407 66.3081 69.7716 68.6499 70.5432C71.0995 71.3507 73.5669 72.0955 76.0524 72.7864C77.2368 73.1184 78.3494 72.8492 78.8968 71.6289C79.0852 71.2072 79.0941 70.4535 78.8339 70.1394C78.6096 69.8613 77.8918 69.9241 77.3983 69.942C76.1062 69.9779 74.7603 70.3099 73.531 70.0766C71.5032 69.6818 69.5293 68.9909 67.5732 68.3C66.0658 67.7796 64.7737 68.1026 63.6521 69.0537C62.6382 69.9241 61.6423 70.8572 60.8258 71.916C58.1609 75.3795 54.9576 78.1969 51.225 80.449C49.8162 81.3014 49.7624 81.6603 51.0096 82.764C51.6287 83.3113 52.3555 83.9214 51.5659 84.702C50.7494 85.5186 49.9599 84.9892 49.251 84.2893C48.4883 83.5356 47.7436 82.5665 46.8015 82.2346C46.1465 82.0102 45.1954 82.8178 44.343 82.9434C43.7239 83.0332 43.0509 82.773 42.3959 82.6653C42.5753 82.1628 42.6292 81.5347 42.9701 81.1758C44.0648 79.9914 44.0558 79.6415 42.6022 78.798C41.3191 78.0443 40.0181 77.3175 38.5466 76.4651C40.8436 75.3525 44.0109 76.4023 45.1504 78.3853C46.5861 80.8618 46.8463 80.9156 49.26 79.3095C49.7266 78.9954 50.3367 78.8339 50.6776 78.4391C51.0545 77.9995 51.207 77.3624 51.4583 76.8151C50.7943 76.6984 50.1393 76.501 49.4843 76.519C49.1703 76.5279 48.8562 76.9497 48.5691 77.2188C47.7615 77.9636 46.7387 78.1072 46.3618 77.0753C46.1286 76.4382 46.64 75.3346 47.1514 74.6975C47.3937 74.3925 48.3897 74.7245 49.0447 74.6886C49.592 74.6527 50.2469 74.6527 50.6417 74.3476C51.539 73.6747 52.3017 72.8222 53.1092 72.0416C53.3245 72.2031 53.54 72.3646 53.7553 72.5172C53.4502 73.1542 53.0465 73.7554 52.867 74.4284C52.7145 75.0026 52.8221 75.6397 52.8131 76.2498C53.4323 76.0524 54.2398 76.0345 54.6346 75.6307C56.8868 73.226 59.0043 70.6957 61.2385 68.2731C63.2394 66.1017 65.5992 65.2583 68.5243 66.3799C70.3009 67.0528 72.1492 67.5553 73.9976 68.0398C77.165 68.8743 79.7043 66.8823 79.5338 63.6342C79.5158 63.2215 78.8518 62.6203 78.3853 62.4947C75.4153 61.7051 72.4184 60.9604 69.4036 60.3502C68.8204 60.2336 68.1115 60.745 67.4655 60.9693L67.5194 61.0142L67.4834 61.0052ZM83.9662 74.0695C82.9792 73.0555 82.2883 72.3377 81.5974 71.6289C81.0501 72.239 79.9375 73.1542 80.0721 73.4055C80.5118 74.2399 81.3552 74.9129 82.1717 75.4602C82.3242 75.5589 83.069 74.7783 83.9662 74.0605V74.0695Z" fill="#000002"/>
<path fill-rule="evenodd" clip-rule="evenodd" d="M77.3176 87.3938C75.4961 89.637 74.3027 89.8882 71.4494 88.1116C69.7895 87.0708 68.7038 87.4746 67.1874 88.2463C64.5135 89.6191 62.3332 91.3239 60.8438 93.9978C59.2825 96.8152 56.7521 98.6905 53.8988 100.09C53.4592 100.306 52.6607 99.9556 52.0954 99.7044C51.3417 99.3724 50.7136 98.7174 49.9419 98.502C48.3807 98.0623 48.1114 96.8421 47.8423 95.559C47.5731 94.2759 47.8962 93.2799 49.0537 92.5262C49.7984 92.0417 50.5072 91.4316 51.0366 90.7317C51.3058 90.3728 51.1533 89.6819 51.1892 89.1435C50.588 89.1794 49.8432 89.0089 49.4215 89.305C48.8023 89.7267 48.4256 90.4984 47.9321 91.0996C47.0528 92.1673 45.958 92.5262 44.8544 91.5841C42.1177 89.2333 39.713 88.9192 37.102 91.943C35.5946 93.6837 33.5219 94.9219 31.53 96.528C31.2788 96.4024 30.7494 96.1332 29.8252 95.6667C31.198 94.3028 32.4093 93.0467 33.6835 91.8623C34.9127 90.7138 36.151 89.5652 37.5058 88.5872C38.125 88.1386 39.0401 88.1206 39.7938 87.8335C40.386 87.6002 40.9244 87.2413 41.4807 86.9362C40.9782 86.4966 40.4399 85.6442 39.9733 85.6891C38.8158 85.7878 37.443 85.9941 36.6086 86.694C33.7014 89.1435 30.9917 91.8264 28.0666 94.5361C27.6628 94.2759 27.1244 93.926 26.4245 93.4863C27.3756 92.4724 28.1742 91.5392 29.0535 90.7048C31.0814 88.7667 33.163 86.8824 35.1998 84.9533C37.111 83.1498 39.4528 82.8267 41.5973 84.2983C42.674 85.034 43.6521 85.3391 44.8724 84.7738C46.1016 84.2086 47.1514 84.5764 48.0756 85.5096C48.587 86.021 49.1343 86.5325 49.7445 86.9004C50.9378 87.6182 51.9876 87.5105 52.6606 86.1018C52.849 85.707 53.0913 85.1238 53.4144 85.043C53.9886 84.8994 54.7334 84.8995 55.2179 85.1776C55.4422 85.3032 55.3704 86.2813 55.173 86.7568C54.6346 88.0668 54.0335 89.3858 53.2977 90.5971C52.5799 91.7815 51.7095 92.8762 50.8123 93.926C49.7714 95.1462 49.7715 95.6846 51.0635 96.6447C53.0914 98.161 54.3385 98.3136 56.0882 96.4293C57.8648 94.5271 59.1389 92.1673 60.736 90.0946C61.382 89.2691 62.2165 88.4796 63.1407 87.995C65.7518 86.6222 68.3628 85.4468 70.3548 82.9973C71.8353 81.1758 73.89 79.8209 75.1372 77.6944C75.4243 77.2099 76.5907 77.0663 77.3354 77.1112C77.6854 77.1291 78.3493 78.1251 78.2327 78.4032C77.9725 79.0403 77.3444 79.5517 76.7881 80.0183C76.51 80.2516 75.9627 80.1619 75.7024 80.3952C75.3166 80.7272 74.8322 81.2386 74.8591 81.6514C74.877 81.9744 75.5499 82.3871 76.0075 82.5486C77.2996 83.0062 78.6365 83.3472 79.9824 83.7509C79.3992 85.375 78.6814 86.0928 77.156 85.2673C76.178 84.7379 75.1462 84.2355 74.0785 83.9753C73.3606 83.7958 72.4813 83.9125 71.7724 84.1817C71.4315 84.3073 71.1353 85.0968 71.1802 85.5455C71.2071 85.8326 71.8891 86.1466 72.3287 86.2633C73.881 86.667 75.4602 86.9901 77.3086 87.4118L77.3176 87.3938ZM45.1684 86.8914C45.1236 86.8016 45.0787 86.7029 45.0338 86.6132C44.3698 86.9542 43.6969 87.2862 43.0329 87.6271C43.661 88.1745 44.2712 88.7397 44.9173 89.2512C45.1147 89.4037 45.5095 89.5473 45.6979 89.4575C46.3619 89.1435 47.3847 88.8474 47.5372 88.336C47.8423 87.3131 46.9092 86.9632 45.9939 86.9004C45.7158 86.8824 45.4376 86.9004 45.1594 86.9004L45.1684 86.8914Z" fill="#000002"/>
<path fill-rule="evenodd" clip-rule="evenodd" d="M21.5703 89.341C21.2832 89.0449 20.9064 88.6411 20.3231 88.031C21.992 86.5505 23.6071 85.1238 25.2222 83.6972C25.599 83.3562 26.1194 83.0781 26.3078 82.6564C26.5322 82.1359 26.4783 81.4989 26.5501 80.9157C25.9131 80.9964 25.0786 80.8349 24.6838 81.1848C22.7727 82.8807 20.9871 84.7021 19.0849 86.5594C18.5465 85.8685 18.1428 85.3482 17.5416 84.5765C18.403 83.8856 19.1836 83.2216 20.0001 82.6025C20.8974 81.9296 21.9651 81.4181 22.674 80.6016C23.0867 80.126 22.961 79.1839 23.0687 78.4482C22.4047 78.6456 21.669 78.7353 21.1037 79.0852C20.6641 79.3544 20.5295 80.1081 20.0898 80.3862C19.6053 80.7003 18.9234 80.7093 18.3312 80.8528C18.2505 80.2606 17.9812 79.6146 18.1337 79.0942C18.2953 78.5558 18.8246 78.0982 19.2553 77.6765C20.341 76.5998 21.4088 75.5051 22.5843 74.5451C22.9791 74.222 23.7776 74.0605 24.2083 74.2489C24.5133 74.3835 24.7018 75.2629 24.6121 75.7474C24.4326 76.6447 23.6161 77.6675 24.8902 78.2239C26.272 78.8161 27.5462 80.4042 29.3227 79.0045C29.7086 78.6994 30.1751 78.3046 30.6148 78.2866C31.0903 78.2777 31.6736 78.5648 32.0056 78.9147C32.176 79.0852 32.0504 79.9197 31.8171 80.0632C27.8063 82.4948 25.8682 87.1606 21.5524 89.341H21.5703Z" fill="#000002"/>
<path fill-rule="evenodd" clip-rule="evenodd" d="M85.7878 55.496C85.4648 55.478 85.0969 55.5498 84.8367 55.4152C82.7371 54.2847 80.5208 53.6297 78.1341 53.5489C77.0932 53.513 76.0435 53.5489 75.0206 53.4054C74.4194 53.3246 73.8452 52.9836 73.262 52.7683C73.4863 52.194 73.558 51.3506 73.9797 51.1173C74.6347 50.7405 75.559 50.579 76.3127 50.6866C77.3445 50.8392 78.3136 51.4583 79.3455 51.6288C79.8659 51.7095 80.4759 51.234 81.0412 51.0096C80.7182 50.4354 80.5118 49.7266 80.0452 49.3407C79.6774 49.0357 78.9596 49.1882 78.4302 49.0357C77.6406 48.8114 76.6805 48.6767 76.1511 48.1474C75.7474 47.7346 75.9089 46.7746 75.8192 46.0567C76.4203 46.0029 77.0933 45.7517 77.6227 45.9311C79.148 46.4515 80.6016 47.1963 82.109 47.7615C83.2665 48.2012 83.4459 48.919 83.1139 50.0137C82.45 52.1582 82.7012 52.3286 84.6752 52.9657C85.3571 53.19 85.7429 54.3206 86.2634 55.0384C86.1108 55.1909 85.9583 55.3434 85.7968 55.496H85.7878Z" fill="#000002"/>
<path fill-rule="evenodd" clip-rule="evenodd" d="M24.6839 92.1493C24.1634 91.6827 23.8046 91.3508 22.8086 90.4535C23.4815 90.1125 24.1545 89.951 24.5762 89.5383C27.5551 86.5952 30.4981 83.5983 33.4232 80.6015C34.168 79.8388 34.9127 79.5607 35.7561 80.2964C36.5188 80.9694 36.2944 81.6962 35.6215 82.3153C32.7054 84.9981 29.7893 87.6809 26.8553 90.3547C26.2003 90.9559 25.4824 91.4943 24.6839 92.1583V92.1493Z" fill="#000002"/>
<path fill-rule="evenodd" clip-rule="evenodd" d="M73.3426 91.3598C72.4184 92.5173 71.5121 92.8851 70.0765 92.3468C69.3766 92.0866 68.1653 92.4813 67.5103 92.9928C66.2811 93.9439 65.1415 95.1014 64.2443 96.3575C62.9702 98.1521 61.1039 98.502 59.1119 99.0493C61.05 96.7434 62.7818 94.4733 64.7288 92.4186C67.7526 89.2153 69.6817 89.0359 73.3605 91.3598H73.3426Z" fill="#000002"/>
<path fill-rule="evenodd" clip-rule="evenodd" d="M57.775 86.0568C59.399 86.0389 60.2335 87.1874 59.6413 88.1475C58.2954 90.3189 56.9136 92.4723 55.4959 94.5988C55.1998 95.0385 54.7422 95.5051 54.2667 95.6486C53.8449 95.7832 53.163 95.6217 52.84 95.3256C52.6516 95.1552 52.7503 94.2579 53.0194 94.0425C55.2267 92.2301 55.9536 89.637 56.9047 87.1426C57.0931 86.658 57.5866 86.2901 57.775 86.0658V86.0568Z" fill="#000002"/>
<path fill-rule="evenodd" clip-rule="evenodd" d="M67.4297 60.9603C67.1156 62.1088 67.7706 62.4498 68.7307 62.6113C71.252 63.033 73.7643 63.4637 76.2677 63.9662C76.5997 64.029 77.1381 64.6122 77.0753 64.8006C76.9048 65.321 76.5638 66.0389 76.1421 66.1734C75.505 66.3619 74.7155 66.2094 74.0335 66.0209C71.0995 65.2044 68.1744 64.3341 64.8365 63.356C65.8056 62.4857 66.64 61.7499 67.4745 61.0052L67.4297 60.9603Z" fill="#000002"/>
<path fill-rule="evenodd" clip-rule="evenodd" d="M35.9445 78.8786C34.6704 78.2146 33.6474 77.7481 32.6963 77.1738C31.2607 76.3124 29.9149 75.7561 28.3895 77.0661C28.0755 77.3353 27.0526 77.2815 26.8013 76.9943C26.4514 76.5816 26.4245 75.81 26.4693 75.2088C26.4783 75.0742 27.3936 74.8768 27.8691 74.9396C30.5968 75.2716 33.3155 75.6126 36.0163 76.0971C36.5098 76.1868 37.2096 76.9854 37.2096 77.452C37.2096 77.9185 36.429 78.3762 35.9534 78.8876L35.9445 78.8786Z" fill="#000002"/>
<path fill-rule="evenodd" clip-rule="evenodd" d="M19.3092 72.5352C19.713 72.8134 20.2962 73.2171 20.8795 73.6209C20.377 74.1234 19.8835 74.6259 19.381 75.1104C18.5376 75.9359 17.6583 76.7344 16.8507 77.5868C16.447 78.0175 16.2495 78.6994 15.7829 79.0135C15.4689 79.2198 14.796 79.0853 14.3922 78.8879C14.15 78.7622 13.9077 78.0624 14.0333 77.8919C15.2446 76.1871 16.5097 74.5092 17.8287 72.8851C18.0172 72.6519 18.5645 72.6967 19.3182 72.5262L19.3092 72.5352Z" fill="#000002"/>
<path fill-rule="evenodd" clip-rule="evenodd" d="M17.3981 70.7046C14.5448 71.1533 14.2757 73.6477 13.0464 75.3166C11.6915 73.3336 11.6646 71.6557 12.9387 70.3726C14.5 68.7935 14.6973 68.8024 17.3981 70.7046Z" fill="#000002"/>
<path fill-rule="evenodd" clip-rule="evenodd" d="M33.9436 97.4701C34.8588 96.3934 35.6484 95.2808 36.6444 94.4014C37.0482 94.0425 37.9095 94.204 38.5646 94.1233C38.4748 94.7334 38.5018 95.3974 38.2595 95.9358C38.0442 96.4203 37.461 96.7164 37.1559 97.183C36.2766 98.5199 35.2716 98.5558 33.9526 97.4701H33.9436Z" fill="#000002"/>
<path fill-rule="evenodd" clip-rule="evenodd" d="M79.2556 40.0989C80.7181 41.8755 80.8169 42.5843 79.453 43.993C79.0852 44.3699 78.2147 44.2712 77.5777 44.3878C77.5238 43.7597 77.2367 43.015 77.479 42.5215C77.9007 41.6422 78.6364 40.9154 79.2556 40.1079V40.0989Z" fill="#000002"/>
<path fill-rule="evenodd" clip-rule="evenodd" d="M38.3852 99.1839C38.8518 98.3225 39.1747 97.5419 39.6772 96.8959C39.9643 96.519 40.6553 96.0525 40.9603 96.1691C41.4269 96.3396 41.9293 96.9407 42.037 97.4342C42.3421 98.816 41.1129 99.8659 39.7041 99.5428C39.3273 99.4531 38.9505 99.3364 38.3852 99.1749V99.1839Z" fill="#000002"/>
<path fill-rule="evenodd" clip-rule="evenodd" d="M74.3745 44.5853C74.5091 42.8625 74.5898 40.9424 74.8769 39.0492C74.9218 38.7351 75.9536 38.2596 76.3395 38.3942C76.7343 38.5287 77.2636 39.5068 77.1111 39.8119C76.2767 41.4897 75.2628 43.0779 74.3745 44.5853Z" fill="#000002"/>
<path fill-rule="evenodd" clip-rule="evenodd" d="M39.417 82.5127C38.6185 81.5706 37.9006 81.0143 37.6404 80.2965C37.5327 80.0094 38.6902 78.8788 38.7799 78.9416C39.6054 79.4441 40.3143 80.126 41.059 80.7541C40.6283 81.2117 40.2066 81.6693 39.417 82.5127Z" fill="#000002"/>
<path fill-rule="evenodd" clip-rule="evenodd" d="M82.6921 79.6684C81.75 80.8528 81.7499 82.737 79.8477 81.8667C79.3811 81.6514 78.8159 80.5926 78.9774 80.2516C79.767 78.6186 81.1129 79.4889 82.6831 79.6684H82.6921Z" fill="#000002"/>
<path fill-rule="evenodd" clip-rule="evenodd" d="M86.1557 64.4507C85.7699 63.8585 85.1507 63.2932 85.0789 62.6651C85.034 62.2434 85.7609 61.732 86.1377 61.2654C86.2633 61.3282 86.389 61.391 86.5146 61.4628V64.2533C86.389 64.3161 86.2723 64.3879 86.1557 64.4507Z" fill="#000002"/>
<path fill-rule="evenodd" clip-rule="evenodd" d="M81.5437 43.4726C82.1628 44.6032 82.5486 45.294 82.9255 45.9849C82.7909 46.1195 82.6652 46.2541 82.5306 46.3887C82.0192 46.0208 81.3821 45.7427 81.0591 45.2402C80.8886 44.98 81.2745 44.3519 81.5437 43.4636V43.4726Z" fill="#000002"/>
<path fill-rule="evenodd" clip-rule="evenodd" d="M15.0742 80.6285C17.0123 80.7183 17.416 81.3105 16.5277 82.9435C16.0163 82.127 15.5677 81.4092 15.0742 80.6285Z" fill="#000002"/>
<path d="M48.273 101.266C26.7296 101.266 9.20593 83.742 9.20593 62.1987C9.20593 40.6553 26.7296 23.1406 48.273 23.1406C69.8164 23.1406 87.3399 40.6642 87.3399 62.1987C87.3399 83.7331 69.8164 101.266 48.273 101.266ZM48.273 25.2492C27.896 25.2492 11.3145 41.8217 11.3145 62.1987C11.3145 82.5756 27.896 99.1571 48.273 99.1571C68.6499 99.1571 85.2314 82.5756 85.2314 62.1987C85.2314 41.8217 68.6499 25.2492 48.273 25.2492Z" fill="#000002"/>
<path d="M38.8965 85.3122C27.2949 85.3122 17.8557 75.873 17.8557 64.2803C17.8557 52.6876 27.2949 43.2394 38.8965 43.2394C50.4982 43.2394 59.9375 52.6786 59.9375 64.2803C59.9375 75.882 50.4982 85.3122 38.8965 85.3122ZM38.8965 45.348C28.4613 45.348 19.9642 53.8451 19.9642 64.2803C19.9642 74.7155 28.4523 83.2126 38.8965 83.2126C49.3407 83.2126 57.8288 74.7245 57.8288 64.2803C57.8288 53.8361 49.3317 45.348 38.8965 45.348ZM38.8965 45.348C28.4613 45.348 19.9642 53.8451 19.9642 64.2803C19.9642 74.7155 28.4523 83.2126 38.8965 83.2126C49.3407 83.2126 57.8288 74.7245 57.8288 64.2803C57.8288 53.8361 49.3317 45.348 38.8965 45.348Z" fill="#7F00FA"/>
<path d="M42.6112 64.2714C42.6112 68.5513 39.1388 72.0327 34.8498 72.0327C30.5609 72.0327 27.0884 68.5603 27.0884 64.2714C27.0884 59.9824 30.5609 56.51 34.8498 56.51C39.1388 56.51 42.6112 59.9824 42.6112 64.2714Z" fill="#000002"/>
<path d="M34.8499 73.0824C29.9867 73.0824 26.0388 69.1255 26.0388 64.2713C26.0388 59.417 29.9957 55.4601 34.8499 55.4601C39.7041 55.4601 43.6611 59.417 43.6611 64.2713C43.6611 69.1255 39.7041 73.0824 34.8499 73.0824ZM34.8499 57.5597C31.1531 57.5597 28.1473 60.5656 28.1473 64.2623C28.1473 67.959 31.1531 70.9738 34.8499 70.9738C38.5466 70.9738 41.5525 67.959 41.5525 64.2623C41.5525 60.5656 38.5466 57.5597 34.8499 57.5597Z" fill="#17042B"/>
<path d="M47.2232 59.6595C47.2232 62.2077 45.1595 64.2714 42.6112 64.2714C40.063 64.2714 37.9993 62.2077 37.9993 59.6595C37.9993 57.1112 40.063 55.0475 42.6112 55.0475C45.1595 55.0475 47.2232 57.1112 47.2232 59.6595Z" fill="white"/>
</svg>

