<svg width="173" height="157" viewBox="0 0 173 157" fill="none" xmlns="http://www.w3.org/2000/svg">
<path d="M53.6199 120.579L17.1988 134.223L0 157H173L132.532 128.389L87.0058 106.415L53.6199 120.579Z" fill="#502984"/>
<path d="M85.5883 10.947H80.4414V134.472H85.5883V10.947Z" fill="#607DB9"/>
<path d="M86.9903 134.473H79.5039V10.0127H86.9903V134.473ZM81.7401 133.149H84.8027V11.3662H81.7401V133.149Z" fill="#371A45"/>
<path d="M88.4324 7.89853C89.1153 5.00643 87.3244 2.10832 84.4323 1.42541C81.5402 0.742506 78.6421 2.53341 77.9592 5.42551C77.2763 8.3176 79.0672 11.2157 81.9593 11.8986C84.8514 12.5815 87.7495 10.7906 88.4324 7.89853Z" fill="white"/>
<path d="M86.5774 6.64603C86.5774 8.51761 85.0333 10.0617 83.1617 10.0617C81.2901 10.0617 79.7461 8.51761 79.7461 6.64603C79.7461 6.17813 79.8397 5.71024 80.0268 5.33592C80.4947 6.3185 81.4773 7.02035 82.6471 7.02035C84.1911 7.02035 85.4544 5.80382 85.548 4.25977C86.2031 4.86803 86.5774 5.71023 86.5774 6.64603Z" fill="#CCCCCC"/>
<path d="M83.1601 13.1005C79.6041 13.1005 76.7031 10.1995 76.7031 6.64349C76.7031 3.08748 79.6041 0.186523 83.1601 0.186523C86.7161 0.186523 89.6171 3.08748 89.6171 6.64349C89.6171 10.1995 86.7161 13.1005 83.1601 13.1005ZM83.1601 2.29206C80.7738 2.29206 78.8554 4.21044 78.8554 6.59671C78.8554 8.98299 80.7738 10.9014 83.1601 10.9014C85.5464 10.9014 87.4647 8.98299 87.4647 6.59671C87.4647 4.21044 85.5464 2.29206 83.1601 2.29206Z" fill="#371A45"/>
<path d="M80.6345 11.0894C80.6345 11.0894 85.3134 9.91967 90.6943 12.1656C97.2448 14.8794 100.801 18.6693 110.58 18.0143C119.283 17.4528 126.535 16.1427 138.607 18.9969C145.064 20.5409 154.702 25.8281 154.702 25.8281L152.878 71.4481C152.878 71.4481 146.889 72.3839 138.747 68.8278C133.086 66.348 126.956 62.792 114.791 65.6461C104.872 67.9856 95.3264 64.3828 90.4603 63.2131C85.5942 62.0434 80.5877 62.7452 80.5877 62.7452C80.5877 62.7452 79.5115 59.7506 80.5877 58.1598C80.5877 58.1598 85.5474 57.0836 89.0566 57.5047C89.0566 57.5047 89.4309 47.3046 89.2906 39.3504C89.197 31.6301 89.1502 17.8739 89.1502 17.8739C89.1502 17.8739 87.2786 15.7216 80.5877 16.4702C80.6345 16.5638 79.6519 13.0546 80.6345 11.0894Z" fill="#FF0099"/>
<path d="M150.864 72.6614C148.338 72.6614 143.799 72.2403 138.325 69.8072C137.857 69.5733 137.342 69.3861 136.827 69.1522C131.68 66.8127 125.785 64.1457 115.023 66.7191C106.414 68.7311 98.2726 66.4852 92.845 64.9879C91.8156 64.7072 90.9734 64.4732 90.178 64.2861C85.5926 63.2099 80.7265 63.8182 80.6797 63.865C80.165 63.9117 79.6971 63.631 79.5099 63.1631C79.3696 62.7888 78.2934 59.6071 79.6035 57.6419C79.7439 57.408 79.9778 57.2676 80.2586 57.174C80.4457 57.1272 84.4697 56.285 87.8853 56.4254C87.9789 53.5712 88.166 45.7574 88.0724 39.4408C87.9789 32.6562 87.9321 21.0056 87.9321 18.4322C87.277 18.0111 85.2183 17.0753 80.5861 17.59C80.0714 17.6368 79.6035 17.3092 79.4164 16.8414C79.3228 16.4202 78.3402 12.8642 79.5099 10.6183C79.6503 10.3376 79.8843 10.1504 80.2118 10.0569C80.3989 10.0101 85.2651 8.84032 90.9266 11.1798C92.6111 11.8816 94.1083 12.6771 95.5588 13.3789C99.7231 15.5312 103.326 17.4028 110.344 16.9349C111.701 16.8413 113.011 16.7478 114.275 16.6542C121.48 16.0927 128.312 15.5312 138.652 17.9643C145.156 19.5084 154.607 24.702 155.028 24.8892C155.403 25.0763 155.59 25.4506 155.59 25.8717L153.765 71.4917C153.765 72.0064 153.391 72.4275 152.876 72.521C152.97 72.521 152.174 72.6614 150.864 72.6614ZM123.258 63.5374C129.622 63.5374 134.02 65.5026 137.716 67.187C138.231 67.421 138.699 67.6081 139.167 67.8421C145.109 70.4623 149.928 70.5559 151.8 70.4623L153.531 26.4332C151.379 25.2635 143.612 21.2864 138.278 20.023C128.218 17.6368 121.574 18.1983 114.555 18.7597C113.245 18.8533 111.935 18.9937 110.578 19.0405C102.998 19.5551 98.9277 17.4496 94.6698 15.2505C93.2661 14.5487 91.8156 13.8 90.178 13.0982C86.2009 11.4605 82.5981 11.7881 81.3348 11.9752C81.054 12.9578 81.1944 14.3615 81.3815 15.3441C87.6981 14.8294 89.7101 16.9349 89.8973 17.2157C90.0844 17.4028 90.1312 17.6368 90.1312 17.9175C90.1312 18.0579 90.178 31.7672 90.2716 39.394C90.3651 47.2546 90.0376 57.4548 90.0376 57.5951C90.0376 57.8759 89.8973 58.1566 89.6633 58.3438C89.4294 58.5309 89.1486 58.6245 88.8679 58.5777C86.2009 58.2502 82.5513 58.8585 81.2412 59.0924C81.0072 59.7943 81.1476 60.7768 81.2879 61.5723C83.0192 61.4319 86.8559 61.2447 90.6459 62.1337C91.4413 62.3209 92.3303 62.5548 93.3597 62.8356C98.5533 64.2861 106.414 66.4384 114.462 64.52C117.831 63.865 120.732 63.5374 123.258 63.5374Z" fill="#371A45"/>
<path d="M118.205 58.9542C116.989 58.9542 116.1 58.0184 116.006 56.7083C115.913 55.211 115.866 53.7138 115.772 52.2165L115.726 51.2339H115.679C114.696 51.2339 114.135 50.6256 113.714 50.1578C113.48 49.8302 113.246 49.5495 113.012 49.222C112.778 49.3623 112.591 49.5495 112.357 49.6899C111.982 49.9706 111.515 50.111 111.047 50.111C110.626 50.111 110.251 50.0174 109.877 49.7834C109.035 49.2688 108.614 48.2862 108.894 47.3504C109.035 46.8825 109.315 46.4614 109.69 46.0871C109.877 45.8999 110.064 45.7595 110.251 45.6192C110.111 45.4788 110.017 45.2916 109.924 45.1513L109.877 45.0577C109.877 45.0109 109.83 45.0109 109.83 44.9641C109.128 44.2155 108.848 43.3733 109.035 42.531L104.028 40.8934C103.186 40.6127 102.625 40.0512 102.437 39.3026C102.25 38.6007 102.437 37.8053 102.999 37.1502C104.309 35.5594 106.087 33.5942 108.426 32.1437C110.532 30.8336 112.591 30.1786 114.696 30.1786C114.837 30.1786 115.024 30.1786 115.164 30.1786C116.1 30.2254 116.942 30.4125 117.691 30.6933L118.018 30.3657C118.72 29.7107 119.422 29.0088 120.217 28.4006C122.791 26.295 125.879 25.1253 129.575 24.8446C130.184 24.7978 130.792 24.751 131.447 24.751C133.365 24.751 135.331 24.9849 137.296 25.4996C137.576 25.5932 137.857 25.6868 138.091 25.7804C138.185 25.8271 138.278 25.8739 138.372 25.8739C138.559 25.9207 138.746 26.0611 138.887 26.2483C138.933 26.3418 139.12 26.5758 139.167 26.6226C139.261 26.7629 139.354 26.9501 139.401 27.0905C139.635 28.3538 139.495 29.5235 139.354 30.6933V30.8804C138.98 34.1089 137.998 37.0566 136.407 39.6301C135.143 41.6888 133.506 43.3265 131.587 44.5898C131.166 44.8705 130.745 45.1513 130.277 45.3852C129.996 45.5256 129.763 45.7127 129.482 45.8531C129.763 48.4733 128.967 50.8596 127.049 53.1991C125.739 54.7899 124.054 56.1468 121.902 57.3166C121.153 57.7377 120.311 58.1588 119.422 58.5799C118.954 58.8606 118.58 58.9542 118.205 58.9542ZM120.311 53.1055C121.294 52.4972 122.089 51.889 122.791 51.2339C123.773 50.2513 124.429 49.3155 124.756 48.2862L120.171 50.0642C120.217 51.0468 120.264 52.0761 120.311 53.1055ZM121.481 37.6649C121.995 37.6649 122.463 37.8521 122.884 38.1796C123.446 38.6007 123.727 39.2558 123.727 39.9576C123.727 40.6595 123.352 41.3145 122.791 41.7356C121.528 42.6714 120.311 43.654 119.048 44.5898C118.252 45.1981 117.504 45.8063 116.708 46.3678C121.06 45.0109 124.335 43.7008 127.236 42.0631C128.686 41.2677 129.763 40.4723 130.698 39.5833C131.821 38.5071 132.71 37.197 133.506 35.5126C133.319 35.2786 133.131 34.9979 132.944 34.764L132.57 34.2961C131.353 32.7052 130.137 31.0676 128.874 29.4767C127.844 29.6171 126.815 29.8978 125.832 30.2721C124.335 30.8336 122.931 31.8162 121.34 33.3603C119.843 34.8107 118.486 36.3548 117.316 37.9924C116.287 39.4429 115.258 40.987 114.275 42.4375L114.088 42.6714L116.053 41.1274C117.41 40.098 118.72 39.0686 120.077 38.0392C120.451 37.8521 120.966 37.6649 121.481 37.6649ZM111.281 38.6007C112.263 37.2906 113.199 35.9805 114.135 34.7172C113.807 34.764 113.527 34.8108 113.199 34.8575C111.327 35.3722 109.83 36.4484 108.52 37.7117L111.281 38.6007ZM134.722 30.6465C134.769 30.3189 134.816 29.9914 134.816 29.6639L133.88 29.5703L134.722 30.6465Z" fill="white"/>
<path d="M138.138 30.8331C138.278 29.7101 138.419 28.5404 138.185 27.4174C138.091 27.2771 137.998 27.1835 137.904 27.0431C137.576 26.9027 137.249 26.7624 136.921 26.6688C134.535 26.0605 132.055 25.7798 129.575 26.0137C126.347 26.2945 123.352 27.2771 120.826 29.3358C119.89 30.0844 119.048 30.9266 118.206 31.7221C117.972 31.956 117.784 32.0496 117.457 31.9092C116.708 31.5817 115.866 31.3945 115.024 31.3478C112.778 31.2542 110.766 31.956 108.894 33.1258C106.882 34.3891 105.245 36.1203 103.701 37.9451C103.046 38.7405 103.326 39.5827 104.262 39.9103C104.87 40.0974 105.479 40.2846 106.087 40.5185C107.537 40.9864 108.988 41.4543 110.438 41.9222C110.438 41.969 110.438 41.969 110.438 42.0158C110.438 42.0626 110.392 42.0626 110.392 42.1094C109.783 42.9048 109.924 43.6067 110.579 44.2617C110.626 44.3553 110.719 44.4489 110.766 44.4957C111.094 44.9168 111.421 45.3847 111.795 45.8526C111.327 46.2269 110.86 46.5544 110.438 46.9287C110.204 47.1159 110.017 47.3966 109.971 47.6773C109.83 48.1452 110.064 48.5663 110.485 48.8003C110.906 49.0342 111.327 49.0342 111.749 48.7535C112.263 48.3792 112.731 48.0049 113.246 47.6306C113.714 48.2856 114.182 48.8471 114.65 49.4553C115.164 50.1104 115.539 50.2508 116.334 50.0168C116.474 49.97 116.615 49.9233 116.802 49.8765C116.802 50.0636 116.849 50.204 116.849 50.2976C116.942 52.4031 117.036 54.5086 117.176 56.5674C117.223 57.55 118.018 58.0179 118.907 57.5968C119.703 57.2224 120.545 56.8013 121.34 56.3802C123.165 55.3976 124.85 54.1811 126.16 52.5435C127.844 50.4847 128.733 48.2388 128.312 45.525C128.312 45.4314 128.359 45.2443 128.452 45.1975C129.248 44.6828 130.09 44.1681 130.932 43.6534C132.757 42.4369 134.254 40.8928 135.424 39.0213C136.921 36.5882 137.81 33.7808 138.138 30.8331ZM111.702 39.9103C110.017 39.3488 108.286 38.7873 106.508 38.2258C108.38 36.2607 110.298 34.5295 112.965 33.8276C114.088 33.5001 115.398 33.5469 116.194 33.8744C114.696 35.8396 113.199 37.8515 111.702 39.9103ZM125.832 48.5663C125.411 49.9232 124.569 51.0462 123.586 52.0288C122.323 53.2453 120.873 54.1343 119.328 54.9765C119.235 53.0582 119.141 51.1398 119.048 49.315C121.434 48.3792 123.727 47.4902 126.066 46.6012C126.113 47.2095 126.019 47.8645 125.832 48.5663ZM134.582 35.6524C133.833 37.4772 132.804 39.1148 131.4 40.4717C130.277 41.5011 129.061 42.3433 127.751 43.092C124.195 45.1039 120.358 46.5076 116.428 47.6773C116.24 47.7241 116.1 47.7241 116.006 47.537C115.726 47.1627 115.445 46.7883 115.117 46.414C115.117 46.414 115.071 46.3672 115.071 46.2737C115.164 46.1801 115.258 46.1333 115.398 46.0397C117.644 44.3085 119.89 42.6241 122.089 40.8928C122.744 40.4249 122.744 39.5827 122.183 39.0681C121.762 38.7405 121.2 38.7405 120.732 39.1148C119.375 40.1442 118.065 41.1736 116.708 42.203C115.726 42.9516 114.696 43.747 113.667 44.5424C113.293 44.0745 112.965 43.6534 112.638 43.1855C112.591 43.092 112.638 42.9048 112.731 42.8112C113.901 41.0332 115.117 39.2552 116.334 37.524C117.55 35.7928 118.954 34.2019 120.498 32.7047C121.949 31.301 123.493 30.0844 125.364 29.3826C126.581 28.9147 127.797 28.5872 129.108 28.4468C129.201 28.4468 129.388 28.5404 129.482 28.634C130.792 30.3184 132.102 32.0028 133.365 33.734C133.74 34.2487 134.161 34.7634 134.535 35.2313C134.629 35.3249 134.676 35.4652 134.582 35.6524ZM135.377 33.2661C134.067 31.5817 132.804 29.9441 131.541 28.2596C131.541 28.2129 131.541 28.1661 131.541 28.1193C132.991 28.3064 134.488 28.4936 135.986 28.634C135.986 30.2716 135.752 31.7689 135.377 33.2661Z" fill="#371A45"/>
<path d="M134.537 35.1866C134.116 34.6719 133.742 34.1573 133.367 33.6894C132.057 32.0049 130.794 30.3205 129.484 28.5893C129.39 28.4957 129.25 28.3553 129.109 28.4021C127.799 28.5425 126.583 28.87 125.366 29.3379C123.495 30.0865 121.904 31.3031 120.5 32.66C118.956 34.1105 117.552 35.7481 116.336 37.4793C115.119 39.2105 113.903 41.0353 112.733 42.7665C112.639 42.8601 112.593 43.0473 112.639 43.1409C112.967 43.6088 113.295 44.0299 113.669 44.4978C114.698 43.7023 115.681 42.9537 116.71 42.1583C118.067 41.1289 119.377 40.0995 120.734 39.0702C121.202 38.6958 121.763 38.6958 122.185 39.0234C122.793 39.4913 122.746 40.3335 122.091 40.8482C119.845 42.5794 117.599 44.2638 115.4 45.995C115.306 46.0886 115.166 46.1354 115.073 46.229C115.119 46.2758 115.119 46.3226 115.119 46.3694C115.4 46.7437 115.728 47.118 116.008 47.4923C116.149 47.6795 116.242 47.6795 116.429 47.6327C120.36 46.4629 124.15 45.0592 127.753 43.0473C129.063 42.2987 130.326 41.4564 131.402 40.4271C132.853 39.0702 133.835 37.4325 134.584 35.6077C134.677 35.4674 134.631 35.327 134.537 35.1866ZM130.607 37.76C128.875 39.0702 126.489 38.7426 125.179 37.0582C123.869 35.3738 124.197 32.9407 125.928 31.6774C127.612 30.4141 129.998 30.7416 131.309 32.426C132.572 34.0637 132.291 36.4967 130.607 37.76Z" fill="white"/>
<path d="M135.376 33.2677C134.066 31.5833 132.802 29.9456 131.539 28.2612C131.539 28.2144 131.539 28.1676 131.539 28.1208C132.99 28.308 134.487 28.4952 135.984 28.6355C135.984 30.2732 135.75 31.7704 135.376 33.2677Z" fill="#E84343"/>
<path d="M116.146 33.829C114.649 35.841 113.199 37.8529 111.701 39.9117C110.017 39.3502 108.286 38.7887 106.508 38.2272C108.379 36.2621 110.298 34.5309 112.965 33.829C114.041 33.5015 115.351 33.5483 116.146 33.829Z" fill="#E84343"/>
<path d="M123.585 52.0282C122.322 53.2447 120.872 54.1337 119.328 54.9759C119.234 53.0576 119.14 51.1392 119.047 49.3144C121.433 48.3786 123.726 47.4896 126.065 46.6006C126.159 47.2556 126.065 47.9107 125.831 48.6125C125.41 49.9226 124.568 50.9988 123.585 52.0282Z" fill="#E84343"/>
<path d="M131.307 32.3767C129.997 30.6923 127.611 30.3648 125.927 31.6281C124.242 32.9382 123.915 35.3245 125.178 37.0089C126.441 38.6933 128.874 39.0209 130.606 37.7108C132.29 36.4942 132.571 34.0612 131.307 32.3767ZM129.436 36.3538C128.594 37.0089 127.283 36.8217 126.628 35.9795C125.927 35.0905 126.114 33.7804 127.049 33.0786C127.892 32.4235 129.202 32.6107 129.857 33.4997C130.559 34.3887 130.372 35.652 129.436 36.3538Z" fill="#371A45"/>
<path d="M129.435 36.3585C128.593 37.0135 127.283 36.8264 126.628 35.9841C125.926 35.0951 126.113 33.785 127.049 33.0832C127.938 32.4281 129.201 32.6153 129.856 33.5043C130.558 34.3933 130.371 35.6566 129.435 36.3585Z" fill="#495685"/>
<path d="M65.4727 135.643C65.4727 135.643 69.9645 131.853 75.4857 130.87C79.7435 130.122 82.6912 131.947 82.6912 131.947C82.6912 131.947 85.8729 129.139 91.9088 130.262C96.6814 131.151 101.594 135.971 101.594 135.971C101.594 135.971 95.9795 138.591 83.5335 138.591C71.0874 138.638 65.4727 135.643 65.4727 135.643Z" fill="#FF0099"/>
<path d="M65.1468 135.225C65.7083 134.616 66.3166 134.102 66.9716 133.634C67.5799 133.119 68.2818 132.698 68.9368 132.277C70.2937 131.435 71.791 130.733 73.3818 130.265C74.1773 130.031 74.9727 129.844 75.8149 129.704C76.6571 129.563 77.4993 129.516 78.3415 129.61C79.1837 129.657 80.026 129.797 80.8682 130.031C81.2893 130.171 81.6636 130.312 82.0847 130.452C82.2719 130.546 82.5058 130.639 82.693 130.733L82.9737 130.873C83.0673 130.92 83.1609 130.967 83.3012 131.06L82.0379 131.154C82.1783 131.014 82.2718 130.967 82.3654 130.873C82.459 130.78 82.5526 130.733 82.693 130.639C82.8801 130.499 83.1141 130.359 83.348 130.265C83.7691 130.031 84.237 129.844 84.6581 129.657C85.5471 129.282 86.5297 129.095 87.4655 128.955C87.9334 128.861 88.4013 128.861 88.916 128.861C89.3839 128.861 89.8518 128.861 90.3197 128.908L91.0215 128.955L91.7234 129.048C92.1913 129.095 92.6591 129.236 93.127 129.329C94.0628 129.61 94.9519 129.937 95.7473 130.405C96.5895 130.826 97.3849 131.294 98.0868 131.856C98.8354 132.371 99.5372 132.932 100.192 133.587C100.847 134.195 101.456 134.85 102.017 135.599C102.204 135.833 102.157 136.161 101.877 136.348C101.69 136.488 101.456 136.488 101.268 136.348C99.818 135.412 98.4143 134.429 96.9638 133.587C95.5133 132.698 94.0161 131.996 92.5188 131.575C92.1445 131.482 91.7702 131.388 91.349 131.341L90.7408 131.248L90.1325 131.201C89.7114 131.154 89.3371 131.154 88.916 131.154C88.5417 131.201 88.1206 131.201 87.7462 131.248C86.9508 131.341 86.2022 131.482 85.4536 131.762C85.0792 131.903 84.7049 132.043 84.3774 132.23C84.1902 132.324 84.0499 132.417 83.8627 132.511C83.7691 132.558 83.7223 132.604 83.6288 132.651L83.4416 132.792L83.2544 132.932C82.9269 133.166 82.5058 133.119 82.1783 132.932L81.9911 132.838L81.7572 132.745C81.6168 132.698 81.4296 132.605 81.2893 132.558C80.9617 132.464 80.6342 132.324 80.3067 132.277C79.6516 132.09 78.9498 131.996 78.2479 131.949C76.8443 131.856 75.4406 132.09 74.0369 132.417C72.6332 132.792 71.2295 133.353 69.8726 133.961C68.5157 134.57 67.1588 135.318 65.8955 136.114H65.8487C65.6147 136.254 65.2872 136.207 65.1001 135.927C64.9597 135.693 64.9597 135.412 65.1468 135.225Z" fill="#371A45"/>
<path d="M78.3407 135.642C78.8554 134.846 79.4636 134.051 80.0719 133.302C80.3526 132.928 80.6802 132.554 81.0077 132.179C81.3352 131.805 81.6628 131.478 82.0371 131.103C82.4582 130.682 83.1132 130.682 83.5343 131.103C83.9554 131.524 83.9554 132.179 83.5343 132.6C83.4875 132.647 83.4407 132.694 83.394 132.741C83.0664 132.975 82.6453 133.256 82.3178 133.536C81.9435 133.817 81.616 134.098 81.2416 134.425C80.5398 135.034 79.8847 135.642 79.2297 136.297C79.0425 136.531 78.6682 136.531 78.481 136.297C78.2471 136.156 78.2003 135.876 78.3407 135.642Z" fill="#371A45"/>
</svg>
