<svg width="143" height="129" viewBox="0 0 143 129" fill="none" xmlns="http://www.w3.org/2000/svg">
<path d="M44.4908 98.8955L14.5729 110.104L0.445068 128.813H142.555L109.313 105.311L71.9155 87.2607L44.4908 98.8955Z" fill="#502984"/>
<path d="M70.7503 8.83984H66.5225V110.308H70.7503V8.83984Z" fill="#607DB9"/>
<path d="M71.9035 110.31H65.7539V8.07227H71.9035V110.31ZM67.5908 109.222H70.1066V9.18407H67.5908V109.222Z" fill="#371A45"/>
<path d="M73.0874 6.33534C73.6483 3.95965 72.1772 1.57901 69.8015 1.01804C67.4258 0.457073 65.0452 1.9282 64.4842 4.30389C63.9233 6.67959 65.3944 9.06022 67.7701 9.62119C70.1458 10.1822 72.5264 8.71103 73.0874 6.33534Z" fill="white"/>
<path d="M71.5629 5.30588C71.5629 6.84328 70.2946 8.11165 68.7572 8.11165C67.2198 8.11165 65.9514 6.84328 65.9514 5.30588C65.9514 4.92153 66.0283 4.53719 66.182 4.2297C66.5664 5.03684 67.3735 5.61337 68.3344 5.61337C69.6028 5.61337 70.6405 4.61406 70.7174 3.3457C71.2555 3.84536 71.5629 4.53718 71.5629 5.30588Z" fill="#CCCCCC"/>
<path d="M68.7572 10.6081C65.8361 10.6081 63.4531 8.2251 63.4531 5.30404C63.4531 2.38297 65.8361 0 68.7572 0C71.6782 0 74.0612 2.38297 74.0612 5.30404C74.0612 8.2251 71.6782 10.6081 68.7572 10.6081ZM68.7572 1.72958C66.797 1.72958 65.2211 3.30542 65.2211 5.26561C65.2211 7.2258 66.797 8.80163 68.7572 8.80163C70.7173 8.80163 72.2932 7.2258 72.2932 5.26561C72.2932 3.30542 70.7173 1.72958 68.7572 1.72958Z" fill="#371A45"/>
<path d="M66.6818 8.95618C66.6818 8.95618 70.5253 7.99531 74.9454 9.84019C80.3263 12.0694 83.2473 15.1827 91.2803 14.6446C98.4292 14.1834 104.387 13.1072 114.303 15.4517C119.607 16.7201 127.525 21.0632 127.525 21.0632L126.026 58.5374C126.026 58.5374 121.106 59.3061 114.418 56.3851C109.768 54.348 104.733 51.4269 94.7394 53.7715C86.5912 55.6932 78.7504 52.7337 74.7532 51.7729C70.7559 50.812 66.6434 51.3885 66.6434 51.3885C66.6434 51.3885 65.7594 48.9286 66.6434 47.6219C66.6434 47.6219 70.7175 46.7379 73.6001 47.0838C73.6001 47.0838 73.9076 38.7049 73.7923 32.171C73.7154 25.8292 73.677 14.5293 73.677 14.5293C73.677 14.5293 72.1396 12.7612 66.6434 13.3762C66.6818 13.4531 65.8747 10.5704 66.6818 8.95618Z" fill="#FFCE0B"/>
<path d="M124.373 59.534C122.297 59.534 118.569 59.1881 114.072 57.1895C113.688 56.9973 113.265 56.8436 112.842 56.6514C108.614 54.7296 103.772 52.5388 94.9315 54.6528C87.8594 56.3055 81.1717 54.4606 76.7133 53.2307C75.8677 53.0001 75.1758 52.8079 74.5225 52.6541C70.7558 51.7701 66.7586 52.2698 66.7201 52.3082C66.2974 52.3467 65.913 52.1161 65.7593 51.7317C65.644 51.4242 64.76 48.8106 65.8361 47.1964C65.9514 47.0042 66.1436 46.8889 66.3742 46.812C66.528 46.7736 69.8334 46.0818 72.6391 46.1971C72.716 43.8525 72.8697 37.4339 72.7929 32.2451C72.716 26.672 72.6776 17.1017 72.6776 14.9878C72.1395 14.6419 70.4483 13.8732 66.6433 14.296C66.2205 14.3344 65.8361 14.0653 65.6824 13.681C65.6055 13.3351 64.7984 10.414 65.7593 8.56912C65.8746 8.33851 66.0667 8.18478 66.3358 8.10791C66.4895 8.06947 70.4868 7.10859 75.1374 9.03034C76.5211 9.60687 77.751 10.2603 78.9425 10.8368C82.3632 12.6048 85.3227 14.1422 91.088 13.7579C92.2026 13.681 93.2788 13.6041 94.3165 13.5273C100.236 13.066 105.847 12.6048 114.341 14.6034C119.684 15.8718 127.448 20.1381 127.793 20.2918C128.101 20.4456 128.255 20.753 128.255 21.099L126.756 58.5731C126.756 58.9959 126.448 59.3419 126.025 59.4187C126.102 59.4187 125.449 59.534 124.373 59.534ZM101.696 52.0392C106.923 52.0392 110.536 53.6535 113.572 55.0371C113.995 55.2293 114.38 55.383 114.764 55.5752C119.645 57.7276 123.604 57.8045 125.141 57.7276L126.564 21.5602C124.796 20.5993 118.415 17.3323 114.034 16.2946C105.77 14.3344 100.312 14.7956 94.5471 15.2568C93.471 15.3337 92.3948 15.449 91.2802 15.4874C85.0537 15.9102 81.7098 14.1806 78.2122 12.3742C77.0592 11.7977 75.8677 11.1827 74.5225 10.6062C71.2555 9.26096 68.296 9.53001 67.2582 9.68375C67.0276 10.4909 67.1429 11.6439 67.2967 12.4511C72.4854 12.0283 74.1381 13.7579 74.2918 13.9885C74.4456 14.1422 74.484 14.3344 74.484 14.565C74.484 14.6803 74.5225 25.9418 74.5993 32.2067C74.6762 38.6638 74.4071 47.0426 74.4071 47.1579C74.4071 47.3885 74.2918 47.6191 74.0997 47.7729C73.9075 47.9266 73.6769 48.0035 73.4463 47.9651C71.2555 47.696 68.2575 48.1957 67.1814 48.3879C66.9892 48.9644 67.1045 49.7715 67.2198 50.4249C68.6419 50.3096 71.7936 50.1559 74.9068 50.8861C75.5602 51.0399 76.2905 51.232 77.136 51.4627C81.4023 52.6541 87.8594 54.4222 94.4703 52.8463C97.2376 52.3082 99.6206 52.0392 101.696 52.0392Z" fill="#371A45"/>
<path d="M97.5447 48.2738C96.5454 48.2738 95.8151 47.5051 95.7382 46.4289C95.6614 45.199 95.6229 43.969 95.5461 42.7391L95.5076 41.932H95.4692C94.6621 41.932 94.2008 41.4323 93.8549 41.048C93.6627 40.7789 93.4706 40.5483 93.2784 40.2793C93.0862 40.3946 92.9325 40.5483 92.7403 40.6636C92.4328 40.8942 92.0485 41.0095 91.6641 41.0095C91.3182 41.0095 91.0107 40.9327 90.7033 40.7405C90.0114 40.3177 89.6655 39.5106 89.8961 38.7419C90.0114 38.3575 90.242 38.0116 90.5495 37.7041C90.7033 37.5504 90.857 37.4351 91.0107 37.3198C90.8954 37.2045 90.8186 37.0507 90.7417 36.9354L90.7033 36.8586C90.7033 36.8201 90.6648 36.8201 90.6648 36.7817C90.0883 36.1667 89.8577 35.4749 90.0114 34.7831L85.8989 33.4378C85.207 33.2072 84.7458 32.746 84.5921 32.131C84.4383 31.5545 84.5921 30.9011 85.0533 30.363C86.1295 29.0562 87.59 27.442 89.5118 26.2505C91.2413 25.1743 92.9325 24.6362 94.6621 24.6362C94.7774 24.6362 94.9311 24.6362 95.0464 24.6362C95.8151 24.6746 96.5069 24.8284 97.1219 25.059L97.3909 24.7899C97.9675 24.2519 98.544 23.6753 99.1974 23.1757C101.311 21.4461 103.848 20.4852 106.884 20.2546C107.384 20.2162 107.884 20.1777 108.422 20.1777C109.998 20.1777 111.612 20.3699 113.226 20.7927C113.457 20.8696 113.687 20.9464 113.88 21.0233C113.956 21.0617 114.033 21.1002 114.11 21.1002C114.264 21.1386 114.418 21.2539 114.533 21.4077C114.571 21.4845 114.725 21.6767 114.764 21.7151C114.84 21.8304 114.917 21.9842 114.956 22.0995C115.148 23.1372 115.033 24.0981 114.917 25.059V25.2127C114.61 27.8648 113.803 30.2862 112.496 32.4001C111.458 34.0912 110.113 35.4365 108.537 36.4742C108.191 36.7048 107.845 36.9354 107.461 37.1276C107.23 37.2429 107.038 37.3966 106.808 37.512C107.038 39.6643 106.385 41.6245 104.809 43.5463C103.733 44.853 102.349 45.9677 100.581 46.9285C99.9661 47.2745 99.2743 47.6204 98.544 47.9663C98.1596 48.1969 97.8522 48.2738 97.5447 48.2738ZM99.2743 43.4694C100.081 42.9697 100.735 42.4701 101.311 41.932C102.118 41.1248 102.657 40.3561 102.926 39.5106L99.159 40.9711C99.1974 41.7782 99.2358 42.6238 99.2743 43.4694ZM100.235 30.7858C100.658 30.7858 101.042 30.9396 101.388 31.2086C101.849 31.5545 102.08 32.0926 102.08 32.6691C102.08 33.2457 101.773 33.7837 101.311 34.1297C100.274 34.8984 99.2743 35.7055 98.2365 36.4742C97.5831 36.9739 96.9682 37.4735 96.3148 37.9347C99.8892 36.8201 102.58 35.7439 104.963 34.3987C106.154 33.7453 107.038 33.0919 107.807 32.3617C108.729 31.4776 109.46 30.4015 110.113 29.0178C109.959 28.8256 109.805 28.595 109.652 28.4028L109.344 28.0185C108.345 26.7117 107.346 25.3665 106.308 24.0597C105.462 24.175 104.617 24.4056 103.81 24.7131C102.58 25.1743 101.427 25.9814 100.12 27.2498C98.8899 28.4413 97.7753 29.7096 96.8144 31.0549C95.9689 32.2463 95.1233 33.5147 94.3161 34.7062L94.1624 34.8984L95.7767 33.63C96.8913 32.7844 97.9675 31.9389 99.0821 31.0933C99.3896 30.9396 99.8124 30.7858 100.235 30.7858ZM91.8563 31.5545C92.6634 30.4783 93.4321 29.4021 94.2008 28.3644C93.9318 28.4028 93.7012 28.4413 93.4321 28.4797C91.8947 28.9025 90.6648 29.7865 89.5886 30.8243L91.8563 31.5545ZM111.112 25.0206C111.151 24.7515 111.189 24.4825 111.189 24.2134L110.42 24.1365L111.112 25.0206Z" fill="white"/>
<path d="M113.918 25.1737C114.033 24.2513 114.149 23.2904 113.957 22.368C113.88 22.2526 113.803 22.1758 113.726 22.0605C113.457 21.9452 113.188 21.8299 112.919 21.753C110.959 21.2533 108.922 21.0227 106.885 21.2149C104.232 21.4455 101.773 22.2526 99.6972 23.9438C98.9284 24.5587 98.2366 25.2506 97.5448 25.904C97.3526 26.0961 97.1989 26.173 96.9298 26.0577C96.3149 25.7887 95.623 25.6349 94.9312 25.5965C93.0863 25.5196 91.4336 26.0961 89.8962 27.057C88.2435 28.0948 86.8983 29.5169 85.6299 31.0158C85.0918 31.6692 85.3224 32.3611 86.0912 32.6301C86.5908 32.7839 87.0904 32.9376 87.5901 33.1298C88.7816 33.5141 89.9731 33.8985 91.1646 34.2828C91.1646 34.3213 91.1646 34.3213 91.1646 34.3597C91.1646 34.3981 91.1261 34.3981 91.1261 34.4366C90.6265 35.09 90.7418 35.6665 91.2799 36.2046C91.3183 36.2814 91.3952 36.3583 91.4336 36.3968C91.7027 36.7427 91.9717 37.127 92.2792 37.5114C91.8948 37.8188 91.5105 38.0879 91.1646 38.3954C90.9724 38.5491 90.8186 38.7797 90.7802 39.0103C90.6649 39.3947 90.8571 39.7406 91.203 39.9328C91.5489 40.1249 91.8948 40.1249 92.2408 39.8943C92.6635 39.5869 93.0479 39.2794 93.4707 38.9719C93.855 39.51 94.2394 39.9712 94.6237 40.4709C95.0465 41.009 95.354 41.1243 96.0074 40.9321C96.1227 40.8937 96.238 40.8552 96.3917 40.8168C96.3917 40.9705 96.4302 41.0858 96.4302 41.1627C96.507 42.8923 96.5839 44.6219 96.6992 46.313C96.7377 47.1201 97.3911 47.5045 98.1213 47.1586C98.7747 46.8511 99.4666 46.5052 100.12 46.1593C101.619 45.3521 103.003 44.3528 104.079 43.0076C105.462 41.3164 106.193 39.4716 105.847 37.2423C105.847 37.1654 105.885 37.0117 105.962 36.9733C106.615 36.5505 107.307 36.1277 107.999 35.7049C109.498 34.7056 110.728 33.4372 111.689 31.8998C112.919 29.9012 113.649 27.5951 113.918 25.1737ZM92.2023 32.6301C90.8186 32.1689 89.3966 31.7077 87.936 31.2464C89.4734 29.6322 91.0493 28.2101 93.2401 27.6336C94.1625 27.3645 95.2387 27.4029 95.8921 27.672C94.6622 29.2863 93.4322 30.939 92.2023 32.6301ZM103.81 39.7406C103.464 40.8552 102.772 41.7777 101.965 42.5848C100.927 43.5841 99.7356 44.3144 98.4672 45.0062C98.3904 43.4304 98.3135 41.8545 98.2366 40.3556C100.197 39.5869 102.08 38.8566 104.002 38.1263C104.04 38.626 103.963 39.1641 103.81 39.7406ZM110.997 29.1325C110.382 30.6315 109.537 31.9767 108.383 33.0913C107.461 33.9369 106.462 34.6287 105.386 35.2437C102.464 36.8964 99.3128 38.0495 96.0843 39.0103C95.9305 39.0488 95.8152 39.0488 95.7383 38.895C95.5077 38.5876 95.2771 38.2801 95.0081 37.9726C95.0081 37.9726 94.9696 37.9342 94.9696 37.8573C95.0465 37.7804 95.1234 37.742 95.2387 37.6651C97.0836 36.243 98.9285 34.8593 100.735 33.4372C101.273 33.0529 101.273 32.3611 100.812 31.9383C100.466 31.6692 100.005 31.6692 99.6203 31.9767C98.5057 32.8223 97.4295 33.6679 96.3149 34.5134C95.5077 35.1284 94.6622 35.7818 93.8166 36.4352C93.5091 36.0508 93.2401 35.7049 92.971 35.3206C92.9326 35.2437 92.971 35.09 93.0479 35.0131C94.0088 33.5526 95.0081 32.092 96.0074 30.6699C97.0067 29.2478 98.1597 27.941 99.4281 26.7111C100.62 25.5581 101.888 24.5587 103.425 23.9822C104.425 23.5979 105.424 23.3288 106.5 23.2135C106.577 23.2135 106.731 23.2904 106.808 23.3673C107.884 24.7509 108.96 26.1346 109.998 27.5567C110.305 27.9795 110.651 28.4023 110.959 28.7866C111.035 28.8635 111.074 28.9788 110.997 29.1325ZM111.65 27.1723C110.574 25.7887 109.537 24.4434 108.499 23.0598C108.499 23.0213 108.499 22.9829 108.499 22.9445C109.69 23.0982 110.92 23.252 112.15 23.3673C112.15 24.7125 111.958 25.9424 111.65 27.1723Z" fill="#371A45"/>
<path d="M110.958 28.7506C110.613 28.3279 110.305 27.9051 109.998 27.5207C108.921 26.1371 107.884 24.7534 106.808 23.3313C106.731 23.2544 106.615 23.1391 106.5 23.1776C105.424 23.2929 104.425 23.5619 103.425 23.9463C101.888 24.5612 100.581 25.5605 99.428 26.6751C98.1596 27.8666 97.0066 29.2119 96.0073 30.634C95.008 32.0561 94.0086 33.555 93.0478 34.9771C92.9709 35.054 92.9325 35.2077 92.9709 35.2846C93.2399 35.669 93.509 36.0149 93.8165 36.3992C94.662 35.7458 95.4692 35.1309 96.3147 34.4775C97.4294 33.6319 98.5055 32.7863 99.6202 31.9408C100.005 31.6333 100.466 31.6333 100.812 31.9023C101.311 32.2867 101.273 32.9785 100.735 33.4013C98.8899 34.8234 97.045 36.207 95.2386 37.6291C95.1617 37.706 95.0464 37.7444 94.9695 37.8213C95.008 37.8598 95.0079 37.8982 95.0079 37.9366C95.2386 38.2441 95.5076 38.5516 95.7382 38.8591C95.8535 39.0128 95.9304 39.0128 96.0841 38.9744C99.3127 38.0135 102.426 36.8604 105.385 35.2077C106.462 34.5928 107.499 33.9009 108.383 33.0554C109.575 31.9408 110.382 30.5955 110.997 29.0966C111.074 28.9813 111.035 28.8659 110.958 28.7506ZM107.73 30.8646C106.308 31.9408 104.348 31.6717 103.271 30.288C102.195 28.9044 102.464 26.9058 103.886 25.868C105.27 24.8303 107.23 25.0993 108.306 26.483C109.344 27.8282 109.114 29.8268 107.73 30.8646Z" fill="white"/>
<path d="M111.65 27.1751C110.574 25.7915 109.537 24.4462 108.499 23.0626C108.499 23.0241 108.499 22.9857 108.499 22.9473C109.69 23.101 110.92 23.2547 112.15 23.37C112.15 24.7153 111.958 25.9452 111.65 27.1751Z" fill="#E84343"/>
<path d="M95.8539 27.6349C94.624 29.2876 93.4325 30.9403 92.2026 32.6315C90.8189 32.1703 89.3968 31.709 87.9363 31.2478C89.4737 29.6335 91.0495 28.2114 93.2403 27.6349C94.1243 27.3659 95.2005 27.4043 95.8539 27.6349Z" fill="#E84343"/>
<path d="M101.965 42.5844C100.927 43.5837 99.7358 44.314 98.4674 45.0059C98.3905 43.43 98.3137 41.8542 98.2368 40.3552C100.197 39.5865 102.08 38.8562 104.002 38.126C104.079 38.6641 104.002 39.2022 103.81 39.7787C103.464 40.8549 102.772 41.7389 101.965 42.5844Z" fill="#E84343"/>
<path d="M108.307 26.4419C107.23 25.0582 105.27 24.7892 103.886 25.827C102.503 26.9031 102.234 28.8633 103.272 30.247C104.309 31.6306 106.308 31.8997 107.73 30.8235C109.114 29.8242 109.344 27.8256 108.307 26.4419ZM106.769 29.7089C106.077 30.247 105.001 30.0932 104.463 29.4014C103.886 28.6711 104.04 27.595 104.809 27.0184C105.501 26.4803 106.577 26.6341 107.115 27.3644C107.692 28.0946 107.538 29.1324 106.769 29.7089Z" fill="#371A45"/>
<path d="M106.769 29.7126C106.077 30.2507 105.001 30.097 104.463 29.4052C103.887 28.6749 104.04 27.5987 104.809 27.0222C105.539 26.4841 106.577 26.6378 107.115 27.3681C107.692 28.0984 107.538 29.1361 106.769 29.7126Z" fill="#495685"/>
<path d="M54.2285 111.27C54.2285 111.27 57.9183 108.156 62.4536 107.349C65.9512 106.734 68.3726 108.233 68.3726 108.233C68.3726 108.233 70.9862 105.927 75.9443 106.85C79.8647 107.58 83.9004 111.539 83.9004 111.539C83.9004 111.539 79.2882 113.691 69.0644 113.691C58.8407 113.73 54.2285 111.27 54.2285 111.27Z" fill="#FFCE0B"/>
<path d="M53.9595 110.926C54.4207 110.427 54.9204 110.004 55.4585 109.62C55.9581 109.197 56.5347 108.851 57.0727 108.505C58.1874 107.813 59.4173 107.237 60.7241 106.852C61.3775 106.66 62.0308 106.506 62.7227 106.391C63.4145 106.276 64.1063 106.237 64.7982 106.314C65.49 106.353 66.1819 106.468 66.8737 106.66C67.2196 106.775 67.5271 106.891 67.873 107.006C68.0267 107.083 68.2189 107.16 68.3726 107.237L68.6033 107.352C68.6801 107.39 68.757 107.429 68.8723 107.506L67.8346 107.583C67.9499 107.467 68.0267 107.429 68.1036 107.352C68.1805 107.275 68.2573 107.237 68.3726 107.16C68.5264 107.044 68.7186 106.929 68.9107 106.852C69.2567 106.66 69.641 106.506 69.9869 106.353C70.7172 106.045 71.5243 105.891 72.293 105.776C72.6774 105.699 73.0617 105.699 73.4845 105.699C73.8688 105.699 74.2532 105.699 74.6375 105.738L75.2141 105.776L75.7906 105.853C76.175 105.891 76.5593 106.007 76.9437 106.084C77.7124 106.314 78.4426 106.583 79.096 106.968C79.7879 107.313 80.4413 107.698 81.0178 108.159C81.6327 108.582 82.2093 109.043 82.7474 109.581C83.2855 110.081 83.7851 110.619 84.2463 111.234C84.4001 111.426 84.3616 111.695 84.131 111.849C83.9773 111.964 83.7851 111.964 83.6314 111.849C82.4399 111.08 81.2868 110.273 80.0953 109.581C78.9038 108.851 77.6739 108.274 76.444 107.928C76.1365 107.852 75.829 107.775 75.4831 107.736L74.9835 107.659L74.4838 107.621C74.1379 107.583 73.8304 107.583 73.4845 107.583C73.177 107.621 72.8311 107.621 72.5236 107.659C71.8702 107.736 71.2553 107.852 70.6403 108.082C70.3328 108.198 70.0254 108.313 69.7563 108.467C69.6026 108.543 69.4873 108.62 69.3335 108.697C69.2566 108.736 69.2182 108.774 69.1413 108.812L68.9876 108.928L68.8339 109.043C68.5648 109.235 68.2189 109.197 67.9499 109.043L67.7961 108.966L67.6039 108.889C67.4886 108.851 67.3349 108.774 67.2196 108.736C66.9505 108.659 66.6815 108.543 66.4125 108.505C65.8744 108.351 65.2978 108.274 64.7213 108.236C63.5683 108.159 62.4152 108.351 61.2622 108.62C60.1091 108.928 58.9561 109.389 57.8414 109.889C56.7268 110.388 55.6122 111.003 54.5745 111.657H54.536C54.3438 111.772 54.0748 111.734 53.9211 111.503C53.8058 111.311 53.8057 111.08 53.9595 110.926Z" fill="#371A45"/>
<path d="M64.7983 111.269C65.221 110.615 65.7207 109.962 66.2204 109.347C66.451 109.04 66.72 108.732 66.9891 108.425C67.2581 108.117 67.5272 107.848 67.8346 107.541C68.1806 107.195 68.7186 107.195 69.0645 107.541C69.4105 107.887 69.4105 108.425 69.0645 108.771C69.0261 108.809 68.9877 108.847 68.9492 108.886C68.6802 109.078 68.3343 109.309 68.0652 109.539C67.7578 109.77 67.4887 110.001 67.1812 110.27C66.6047 110.769 66.0666 111.269 65.5285 111.807C65.3748 111.999 65.0673 111.999 64.9136 111.807C64.7214 111.692 64.683 111.461 64.7983 111.269Z" fill="#371A45"/>
</svg>
