<svg width="1920" height="274" viewBox="0 0 1920 274" fill="none" xmlns="http://www.w3.org/2000/svg">
<g filter="url(#filter0_d_289_878)">
<path d="M1588.49 112.978H1929V173H-34V124.957H-23.5548L-9.27971 123.004L6.73626 124.957H220.863V118.447H256.028L293.631 112.197H342.027L352.124 116.233L371.273 108.682H385.2L394.949 112.197H525.166H580.874L585.052 108.421H609.424L612.557 112.197H743.122L750.782 110.895L761.576 113.759L768.539 112.197H824.943L855.93 114.931L861.501 112.978H914.075L960.382 101L997.289 112.978H1105.92H1205.15L1236.83 109.984H1262.6H1337.8L1361.48 112.978H1404.65L1420.67 104.646L1449.57 112.978H1478.12L1500.75 104.646L1527.9 112.978H1588.49Z" fill="#FF0099"/>
<path d="M1588.49 112.978H1929V173H-34V124.957H-23.5548L-9.27971 123.004L6.73626 124.957H220.863V118.447H256.028L293.631 112.197H342.027L352.124 116.233L371.273 108.682H385.2L394.949 112.197H525.166H580.874L585.052 108.421H609.424L612.557 112.197H743.122L750.782 110.895L761.576 113.759L768.539 112.197H824.943L855.93 114.931L861.501 112.978H914.075L960.382 101L997.289 112.978H1105.92H1205.15L1236.83 109.984H1262.6H1337.8L1361.48 112.978H1404.65L1420.67 104.646L1449.57 112.978H1478.12L1500.75 104.646L1527.9 112.978H1588.49Z" stroke="black"/>
</g>
<defs>
<filter id="filter0_d_289_878" x="-134.5" y="0.479492" width="2164" height="273.021" filterUnits="userSpaceOnUse" color-interpolation-filters="sRGB">
<feFlood flood-opacity="0" result="BackgroundImageFix"/>
<feColorMatrix in="SourceAlpha" type="matrix" values="0 0 0 0 0 0 0 0 0 0 0 0 0 0 0 0 0 0 127 0" result="hardAlpha"/>
<feOffset/>
<feGaussianBlur stdDeviation="50"/>
<feComposite in2="hardAlpha" operator="out"/>
<feColorMatrix type="matrix" values="0 0 0 0 1 0 0 0 0 0 0 0 0 0 0.6 0 0 0 1 0"/>
<feBlend mode="normal" in2="BackgroundImageFix" result="effect1_dropShadow_289_878"/>
<feBlend mode="normal" in="SourceGraphic" in2="effect1_dropShadow_289_878" result="shape"/>
</filter>
</defs>
</svg>
