<?xml version="1.0" encoding="UTF-8"?>
<svg fill="none" viewBox="0 0 1440 146" xmlns="http://www.w3.org/2000/svg">
<g clip-path="url(#b)">
<mask id="a" x="-59" y="-25" width="1502" height="171" style="mask-type:alpha" maskUnits="userSpaceOnUse">
<rect x="-58.625" y="-24.32" width="1501.6" height="170.15" fill="#A84EFF"/>
</mask>
<g mask="url(#a)">
<path d="m203.85 71.82c-141.92-25.943-352.66-49.265-352.66 11.445l1.673 50.359h1622.9v-54.304c0-34.941-175.26 2.2887-262.04 14.98-80.58 17.894-270.49 43.818-385.45 4.3693-114.96-39.448-262.04-29.337-321.21-19.35-52.971 12.692-193.8 12.507-303.26-7.5006z" fill="#17042B"/>
<path d="m201.56 91.659c-108.2-23.462-273.75 0.4078-348.7 10.183v43.991h1819v-24.815c-158.24-36.095-371.36-22.184-458.15-10.716-80.58 16.168-270.48 39.592-385.44 3.948-114.96-35.644-262.04-26.507-321.21-17.484-52.971 11.468-197.35 18.354-305.55-5.1077z" fill="#fff"/>
<path d="m185.31 121.82c-100.11-18.276-332.39-31.707-332.39 24.604h1498.5c0-38.323-99.33-45.003-240.11-24.245-74.56 12.594-243.41 32.383-349.59 3.91-109.49-29.361-250.27-25.017-305.02-17.988-49.011 8.933-171.28 31.996-271.39 13.719z" fill="#fff"/>
</g>
</g>
<defs>
<clipPath id="b">
<rect transform="translate(-22 .85938)" width="1465" height="144.97" fill="#fff"/>
</clipPath>
</defs>
</svg>
