<svg width="131" height="170" viewBox="0 0 131 170" fill="none" xmlns="http://www.w3.org/2000/svg">
<g filter="url(#filter0_d)">
<path d="M97.4552 16.3829C96.6815 15.8552 95.8364 15.4073 94.9274 15.0556C88.9387 12.738 82.254 15.3664 79.3787 20.9497C75.8447 20.8704 72.4797 22.9822 71.1303 26.4691C70.3974 28.3629 70.3781 30.3542 70.9377 32.1492C70.8281 32.3119 70.7235 32.4791 70.6244 32.6507C69.4625 33.1512 68.4358 33.9655 67.6827 35.0345C64.6669 35.3913 61.9435 37.3624 60.7711 40.3918C60.6922 40.5958 60.6217 40.8012 60.5594 41.0074C59.2919 41.388 57.5484 42.2966 56.7568 44.342C56.6313 44.6663 56.5433 44.9876 56.4866 45.3027C56.3164 45.5739 56.1652 45.8708 56.0397 46.195C55.5139 47.5538 55.6247 48.8129 55.9772 49.8621C53.2503 56.229 50.6867 60.1409 48.3347 62.8052C45.7938 65.6836 43.355 67.2852 40.5991 69.078L40.4952 69.1456C37.9545 70.7984 35.0695 72.675 32.2611 75.8007C29.4049 78.9796 26.7812 83.2626 24.3048 89.6617L7.09443 134.133C4.44954 140.968 8.77382 150.435 24.0865 156.361C39.3991 162.287 48.97 158.197 51.6149 151.363L68.8252 106.891C71.3017 100.492 72.2447 95.5584 72.2725 91.2849C72.2999 87.083 71.4298 83.7532 70.6636 80.8207L70.6322 80.7007C69.8013 77.5198 69.0759 74.6937 69.1346 70.8547C69.1889 67.3012 69.9266 62.6826 72.196 56.1388C73.163 55.6002 74.0926 54.7437 74.6184 53.3849C74.7439 53.0606 74.8319 52.7393 74.8886 52.4242C75.0588 52.153 75.21 51.8562 75.3355 51.5319C75.4869 51.1408 75.5837 50.755 75.637 50.3796C76.9855 52.1724 78.8362 53.6249 81.0848 54.4951C86.0222 56.4059 91.4323 54.9549 94.7912 51.2575C101.032 53.2907 107.844 50.1078 110.241 43.913C111.088 41.7255 111.273 39.4448 110.898 37.2928C111.535 36.9276 112.141 36.5056 112.707 36.0301C115.889 36.5384 119.102 34.7797 120.312 31.6539C120.934 30.0466 120.92 28.3532 120.397 26.8472C122.056 22.4944 119.888 17.6137 115.539 15.9304C113.915 15.3022 112.216 15.2094 110.638 15.5624C110.176 15.3121 109.694 15.0888 109.193 14.8949C105.13 13.3226 100.751 14.0262 97.4552 16.3829Z" stroke="#EAF1FC" stroke-width="8" shape-rendering="crispEdges"/>
</g>
<path d="M69.6669 51.4265L61.0197 48.0801C54.5625 64.7655 48.5112 68.7023 42.7807 72.4305C37.6269 75.7835 32.7325 78.9677 28.0354 91.105L10.825 135.577C9.39084 139.283 11.0153 147.013 25.5303 152.63C40.0454 158.247 46.4505 153.624 47.8847 149.919L65.095 105.447C69.7921 93.3096 68.3163 87.6602 66.7623 81.7113C65.0344 75.0967 63.2097 68.1119 69.6669 51.4265Z" fill="#211680"/>
<ellipse cx="40.47" cy="114.026" rx="15.5641" ry="19.869" transform="rotate(21.1563 40.47 114.026)" fill="#090055"/>
<path d="M44.8124 109.108C44.9275 108.91 45.0851 108.85 45.2852 108.927L47.97 109.966C48.2034 110.056 48.2583 110.212 48.1346 110.432L42.3934 121.057C42.2783 121.255 42.1207 121.315 41.9206 121.238L39.2358 120.199C39.0023 120.109 38.9474 119.953 39.0711 119.733L41.2504 115.687L38.3321 114.557L36.1233 118.63C36.0082 118.829 35.8506 118.889 35.6505 118.812L32.9657 117.772C32.7322 117.682 32.6773 117.527 32.801 117.306L38.5423 106.682C38.6574 106.484 38.815 106.423 39.0151 106.501L41.6999 107.54C41.9334 107.63 41.9882 107.785 41.8645 108.006L39.6788 112.068L42.5971 113.198L44.8124 109.108Z" fill="#E85593"/>
<ellipse cx="65.3289" cy="49.7895" rx="5.9607" ry="2.6492" transform="rotate(21.1563 65.3289 49.7895)" fill="#090055"/>
<ellipse cx="66.0462" cy="47.9365" rx="5.9607" ry="2.6492" transform="rotate(21.1563 66.0462 47.9365)" fill="#090055"/>
<path d="M116.651 25.4431C116.439 25.9915 116.13 26.4742 115.752 26.8793C116.677 27.6795 117.048 29.0037 116.582 30.2099C115.988 31.745 114.262 32.5078 112.727 31.9137C112.326 31.7586 111.977 31.5263 111.692 31.2403C110.316 33.2746 108.13 34.5792 105.756 34.88C107.149 37.0674 107.519 39.8651 106.511 42.4689C104.828 46.8183 99.9377 48.9796 95.5883 47.2965C94.782 46.9844 94.0508 46.5621 93.4053 46.0534C91.6805 50.3246 86.8389 52.4324 82.5285 50.7644C79.7894 49.7043 77.9182 47.3723 77.3284 44.7044C76.5195 45.5199 75.2747 45.8266 74.1351 45.3856C73.6816 45.2101 73.2954 44.9358 72.9918 44.5967C72.9501 44.7527 72.8997 44.908 72.8401 45.062C72.2429 46.6052 70.8831 47.6281 69.3579 47.8667C69.3669 48.2868 69.2956 48.7156 69.1346 49.1318C68.8706 49.814 67.2739 49.832 65.5682 49.1719C63.8626 48.5118 62.6939 47.4237 62.958 46.7414C63.2558 45.972 63.8096 45.3771 64.4843 45.0166C64.1128 44.0256 64.0896 42.8997 64.5016 41.8351C65.3927 39.5325 67.9817 38.3882 70.2843 39.2793C70.3082 39.2886 70.332 39.298 70.3556 39.3076C70.3768 39.3162 70.398 39.325 70.4191 39.3339C70.3776 38.8894 70.4359 38.4288 70.608 37.9842C71.0857 36.7497 72.2956 36.0147 73.5494 36.0831C73.6011 35.8217 73.6762 35.5612 73.7756 35.3042C74.1942 34.2225 74.9742 33.3874 75.9241 32.8832C74.653 31.6251 74.1742 29.6867 74.8608 27.9123C75.7849 25.5245 78.4698 24.3379 80.8577 25.2619C81.2864 25.4279 81.6763 25.6505 82.0224 25.918C82.0909 25.1465 82.2675 24.3716 82.561 23.6131C84.2442 19.2638 89.1346 17.1024 93.4839 18.7856C95.2055 19.4519 96.5843 20.6206 97.5175 22.0594C99.612 18.6623 103.893 17.1327 107.749 18.6249C108.639 18.9692 109.437 19.4475 110.129 20.0279C111.279 19.3173 112.737 19.1348 114.095 19.6604C116.398 20.5515 117.542 23.1405 116.651 25.4431Z" fill="#E85593"/>
<defs>
<filter id="filter0_d" x="0.329102" y="8.05121" width="130.626" height="161.137" filterUnits="userSpaceOnUse" color-interpolation-filters="sRGB">
<feFlood flood-opacity="0" result="BackgroundImageFix"/>
<feColorMatrix in="SourceAlpha" type="matrix" values="0 0 0 0 0 0 0 0 0 0 0 0 0 0 0 0 0 0 127 0" result="hardAlpha"/>
<feOffset dx="2" dy="2"/>
<feGaussianBlur stdDeviation="2"/>
<feComposite in2="hardAlpha" operator="out"/>
<feColorMatrix type="matrix" values="0 0 0 0 0 0 0 0 0 0 0 0 0 0 0 0 0 0 0.25 0"/>
<feBlend mode="normal" in2="BackgroundImageFix" result="effect1_dropShadow"/>
<feBlend mode="normal" in="SourceGraphic" in2="effect1_dropShadow" result="shape"/>
</filter>
</defs>
</svg>
