<svg width="647" height="257" viewBox="0 0 647 257" fill="none" xmlns="http://www.w3.org/2000/svg">
<g filter="url(#filter0_d)">
<rect y="87.9574" width="632" height="120" rx="16" transform="rotate(-8 0 87.9574)" fill="#121212"/>
<path d="M75.14 110.439C75.1574 109.413 75.6415 108.833 76.5921 108.7L89.3468 106.907C90.4559 106.751 91.0091 107.239 91.0066 108.37L91.7324 162.395C91.715 163.421 91.231 164.001 90.2803 164.134L77.5257 165.927C76.4166 166.083 75.8633 165.595 75.8659 164.463L75.5618 143.906L61.6981 145.854L61.9452 166.581C61.9277 167.607 61.4437 168.187 60.493 168.32L47.7384 170.113C46.6293 170.269 46.076 169.781 46.0786 168.65L45.3527 114.625C45.3702 113.599 45.8542 113.02 46.8048 112.886L59.5595 111.093C60.6686 110.938 61.2219 111.425 61.2193 112.557L61.5345 133.194L75.3982 131.245L75.14 110.439ZM128.81 158.719C127.754 158.868 127.129 158.444 126.935 157.448C126.329 155.432 125.802 153.406 125.354 151.369L111.728 153.284C111.454 154.399 111.183 155.541 110.917 156.71C110.695 157.818 110.448 158.93 110.174 160.046C109.976 160.935 109.428 161.443 108.53 161.569L95.0621 163.462C93.7417 163.648 93.2602 163.096 93.6177 161.807L110.683 105.04C110.942 104.195 111.493 103.714 112.338 103.595L123.35 102.047C124.354 101.906 125.001 102.3 125.293 103.229L144.093 154.794C144.52 155.919 144.153 156.563 142.991 156.726L128.81 158.719ZM122.471 140.625L118.287 124.652C117.609 127.494 116.935 130.363 116.265 133.257C115.64 136.092 114.988 138.93 114.311 141.772L122.471 140.625ZM165.434 154.299C162.423 154.722 159.546 154.561 156.802 153.816C154.058 153.07 151.561 151.779 149.31 149.941C147.059 148.103 145.171 145.783 143.646 142.981C142.114 140.127 141.081 136.798 140.546 132.995C139.819 127.82 140.011 123.053 141.122 118.696C142.286 114.332 144.09 110.497 146.533 107.191C148.977 103.885 151.94 101.207 155.422 99.1559C158.903 97.1047 162.651 95.797 166.665 95.2329C168.566 94.9657 170.414 94.8945 172.209 95.0192C174.05 95.0837 175.614 95.2947 176.903 95.6521C177.74 95.8577 178.146 96.4469 178.121 97.4198L178.106 108.813C178.119 110.05 177.522 110.403 176.316 109.872C174.093 109 171.503 108.771 168.545 109.187C166.486 109.476 164.647 110.193 163.031 111.335C161.407 112.425 160.042 113.829 158.937 115.546C157.885 117.256 157.141 119.245 156.706 121.515C156.324 123.777 156.314 126.201 156.678 128.789C157.212 132.592 158.552 135.42 160.698 137.273C162.896 139.118 165.474 139.833 168.432 139.417C169.91 139.209 171.337 138.82 172.711 138.25C174.085 137.68 175.335 136.993 176.46 136.188C176.997 135.79 177.438 135.674 177.785 135.841C178.184 136 178.376 136.404 178.359 137.052L178.674 147.914C178.687 148.774 178.444 149.347 177.946 149.632C176.375 150.715 174.543 151.672 172.452 152.505C170.414 153.33 168.074 153.928 165.434 154.299ZM229.018 87.2776C229.652 87.1886 230.1 87.314 230.363 87.6541C230.619 87.9412 230.577 88.405 230.236 89.0454L214.977 117.284L230.884 142.516C231.583 143.656 231.272 144.319 229.951 144.505L213.632 146.798C212.787 146.917 212.146 146.576 211.711 145.776L199.153 120.8L199.557 147.241C199.592 148.26 199.108 148.839 198.104 148.98L184.241 150.929C183.132 151.085 182.578 150.597 182.581 149.466L181.776 95.452C181.74 94.4337 182.224 93.854 183.228 93.713L197.092 91.7646C198.201 91.6087 198.754 92.0965 198.751 93.2278L199.191 118.775L211.813 90.7458C212.139 89.9999 212.725 89.5675 213.57 89.4487L229.018 87.2776ZM273.189 81.0697C274.351 80.9064 274.931 81.3905 274.928 82.5219L274.975 92.0481C274.957 93.0739 274.447 93.6572 273.443 93.7983L261.877 95.4238L261.949 138.473C261.932 139.498 261.421 140.082 260.418 140.223L247.742 142.004C246.58 142.168 246.001 141.684 246.003 140.552L246.033 97.6506L234.704 99.2427C233.542 99.406 232.962 98.922 232.965 97.7906L232.919 88.2643C232.936 87.2386 233.447 86.6552 234.45 86.5142L273.189 81.0697ZM299.791 135.336C296.569 135.788 293.533 135.65 290.684 134.919C287.835 134.188 285.262 132.934 282.965 131.157C280.714 129.319 278.823 126.972 277.29 124.118C275.758 121.263 274.725 117.935 274.191 114.132C273.463 108.956 273.629 104.194 274.687 99.844C275.745 95.4944 277.394 91.7081 279.634 88.485C281.919 85.2016 284.644 82.5566 287.809 80.55C290.974 78.5433 294.3 77.295 297.785 76.8052C300.954 76.3598 303.963 76.5024 306.813 77.2329C309.715 77.9561 312.291 79.2366 314.543 81.0745C316.786 82.8597 318.674 85.1795 320.206 88.034C321.738 90.8886 322.775 94.2436 323.317 98.099C324.045 103.275 323.879 108.038 322.821 112.387C321.763 116.737 320.087 120.527 317.794 123.757C315.555 126.98 312.852 129.595 309.687 131.602C306.522 133.609 303.224 134.853 299.791 135.336ZM299.088 121.135C300.989 120.868 302.511 120.008 303.653 118.555C304.848 117.094 305.764 115.377 306.402 113.402C307.033 111.375 307.407 109.248 307.526 107.024C307.636 104.746 307.562 102.683 307.302 100.835C307.102 99.4085 306.75 98.0576 306.248 96.7818C305.798 95.4986 305.186 94.3997 304.411 93.4853C303.689 92.5635 302.812 91.8789 301.78 91.4316C300.8 90.9768 299.65 90.8422 298.33 91.0278C296.376 91.3024 294.805 92.1964 293.617 93.7097C292.483 95.2157 291.604 97.0088 290.98 99.0891C290.403 101.109 290.058 103.258 289.947 105.536C289.882 107.753 289.972 109.733 290.217 111.476C290.417 112.902 290.765 114.226 291.26 115.449C291.755 116.672 292.364 117.745 293.086 118.667C293.86 119.581 294.737 120.266 295.717 120.72C296.749 121.168 297.873 121.306 299.088 121.135ZM355.555 96.2343C359.303 96.4615 362.246 97.4752 364.384 99.2751C366.514 101.022 367.791 103.401 368.214 106.411C368.622 109.316 368.326 111.997 367.325 114.454C366.324 116.91 364.746 119.098 362.592 121.016C360.483 122.874 357.851 124.456 354.696 125.761C351.532 127.014 347.97 127.918 344.009 128.475L329.116 130.568C327.954 130.731 327.374 130.247 327.377 129.116L327.205 75.0132C327.223 73.9875 327.733 73.4041 328.737 73.2631L344.026 71.1143C350.206 70.2458 355.183 70.5965 358.958 72.1664C362.733 73.7363 364.922 76.6602 365.523 80.9381C365.998 84.3183 365.35 87.3715 363.579 90.0978C361.808 92.8242 359.152 94.8132 355.612 96.0647L355.555 96.2343ZM343.42 93.8196C346.22 93.4262 348.171 92.5594 349.276 91.2194C350.38 89.8793 350.78 88.1266 350.475 85.9612C350.03 82.7923 347.695 81.5048 343.47 82.0986L342.994 82.1654L343.024 93.8752L343.42 93.8196ZM343.514 117.477C346.683 117.031 348.97 116.064 350.377 114.573C351.775 113.03 352.315 111.123 351.996 108.852C351.759 107.162 350.913 105.935 349.459 105.17C348.058 104.397 346.09 104.189 343.554 104.545L343 104.623L343.038 117.544L343.514 117.477ZM403.157 74.1948C403.193 75.2131 402.709 75.7928 401.705 75.9338L386.574 78.0604L386.769 86.9195L398.811 85.2271C399.972 85.0638 400.552 85.5479 400.55 86.6792L400.708 96.432C400.744 97.4503 400.26 98.03 399.256 98.171L386.977 99.8968L387.193 109.48L402.166 107.376C403.275 107.22 403.828 107.708 403.825 108.839L403.973 118.513C404.009 119.531 403.525 120.111 402.521 120.252L372.655 124.449C371.546 124.605 370.992 124.117 370.995 122.986L370.031 68.9944C369.996 67.9761 370.48 67.3964 371.483 67.2554L401.35 63.058C402.459 62.9021 403.012 63.3898 403.01 64.5212L403.157 74.1948ZM447.603 72.0685C448.189 76.2408 447.532 79.9955 445.631 83.3325C443.731 86.6695 440.817 89.3141 436.89 91.2662L451.36 111.449C451.706 111.993 451.773 112.468 451.56 112.875C451.394 113.221 451.02 113.436 450.439 113.517L435.783 115.577C434.832 115.711 434.143 115.403 433.715 114.656L422.86 96.631L422.896 115.853C422.879 116.879 422.368 117.462 421.365 117.603L408.848 119.362C407.686 119.526 407.106 119.042 407.109 117.91L407.085 63.7061C407.11 62.7332 407.624 62.1762 408.627 62.0352L424.868 59.7528C428.036 59.3074 430.937 59.2499 433.568 59.5802C436.2 59.9105 438.506 60.6096 440.487 61.6776C442.461 62.6928 444.057 64.0842 445.275 65.852C446.485 67.5669 447.261 69.639 447.603 72.0685ZM422.86 71.9105L422.906 86.6071L423.144 86.5737C426.365 86.121 428.634 85.0211 429.951 83.2743C431.32 81.52 431.834 79.4281 431.492 76.9986C431.218 75.0445 430.372 73.6284 428.956 72.7502C427.586 71.8118 425.659 71.5171 423.177 71.8659L422.86 71.9105ZM484.827 62.7976C484.81 63.8234 484.326 64.403 483.375 64.5366L469.353 66.5073L469.291 78.7147L481.016 77.0669C482.178 76.9036 482.758 77.3876 482.755 78.519L482.824 88.2037C482.806 89.2295 482.296 89.8128 481.292 89.9539L469.33 91.6351L469.392 109.319C469.374 110.344 468.864 110.928 467.86 111.069L454.709 112.917C453.548 113.08 452.968 112.596 452.97 111.465L452.878 57.351C452.896 56.3253 453.406 55.7419 454.41 55.6009L483.088 51.5704C484.197 51.4146 484.75 51.9023 484.748 53.0337L484.827 62.7976ZM520.473 57.7071C520.509 58.7254 520.025 59.3051 519.021 59.4461L503.89 61.5727L504.085 70.4318L516.126 68.7395C517.288 68.5762 517.868 69.0602 517.865 70.1916L518.024 79.9444C518.06 80.9627 517.576 81.5424 516.572 81.6834L504.293 83.4091L504.509 92.9924L519.482 90.8881C520.591 90.7322 521.144 91.2199 521.141 92.3513L521.289 102.025C521.324 103.043 520.84 103.623 519.837 103.764L489.97 107.961C488.861 108.117 488.308 107.629 488.311 106.498L487.347 52.5068C487.312 51.4885 487.796 50.9088 488.799 50.7678L518.666 46.5703C519.775 46.4144 520.328 46.9022 520.326 48.0335L520.473 57.7071ZM539.109 101.863C536.574 102.22 533.979 102.342 531.324 102.23C528.722 102.111 526.351 101.717 524.21 101.049C523.306 100.745 522.87 100.133 522.902 99.213L522.971 88.7819C522.995 88.1861 523.154 87.7867 523.449 87.5837C523.796 87.3733 524.253 87.3631 524.818 87.5529C526.8 88.2438 528.783 88.7461 530.766 89.0598C532.794 89.3133 534.812 89.2991 536.819 89.017C538.931 88.7201 540.588 88.0563 541.79 87.0258C542.984 85.9423 543.473 84.6348 543.258 83.1032C543.073 81.7829 542.392 80.7744 541.217 80.0778C540.042 79.3812 538.302 78.6834 535.995 77.9842C534.48 77.5509 532.977 77.0082 531.485 76.3561C530.038 75.6438 528.705 74.781 527.485 73.7675C526.319 72.7466 525.311 71.5149 524.462 70.0724C523.613 68.6298 523.051 66.9315 522.776 64.9774C522.338 61.8613 522.613 59.0222 523.599 56.46C524.578 53.845 526.008 51.5704 527.891 49.6362C529.819 47.6418 532.097 46.0292 534.724 44.7981C537.405 43.5597 540.224 42.7327 543.181 42.317C545.294 42.0201 547.376 41.8891 549.427 41.9239C551.471 41.9059 553.372 42.0158 555.129 42.2536C556.071 42.4443 556.53 43.0262 556.505 43.9991L556.518 53.2877C556.515 54.4191 555.937 54.9042 554.783 54.7432C553.283 54.4155 551.67 54.2383 549.942 54.2118C548.261 54.125 546.759 54.1744 545.439 54.36C543.485 54.6346 541.99 55.3025 540.954 56.3636C539.919 57.4248 539.497 58.6419 539.69 60.0151C539.891 61.4411 540.658 62.4912 541.991 63.1655C543.325 63.8398 544.986 64.5488 546.976 65.2925C550.488 66.5224 553.377 68.1091 555.642 70.0527C557.954 71.936 559.362 74.6733 559.866 78.2647C560.275 81.1695 560.072 83.9447 559.259 86.5902C558.492 89.1756 557.208 91.5372 555.408 93.6752C553.6 95.7604 551.319 97.5352 548.562 98.9998C545.798 100.411 542.647 101.366 539.109 101.863ZM599.699 35.1818C600.861 35.0185 601.441 35.5025 601.438 36.6339L601.485 46.1601C601.467 47.1859 600.957 47.7693 599.953 47.9103L588.387 49.5358L588.459 92.5848C588.442 93.6105 587.931 94.1939 586.928 94.3349L574.252 96.1163C573.09 96.2796 572.511 95.7956 572.513 94.6642L572.543 51.7626L561.214 53.3547C560.052 53.518 559.472 53.034 559.475 51.9026L559.429 42.3764C559.446 41.3506 559.957 40.7672 560.96 40.6262L599.699 35.1818Z" fill="#EAF1FC"/>
</g>
<g filter="url(#filter1_d)">
<path fill-rule="evenodd" clip-rule="evenodd" d="M380.505 149.817C369.597 147.721 361.537 150.575 357.284 155.629C354.383 159.043 353.157 161.829 351.861 168.574L380.99 174.171C379.929 175.138 378.553 175.947 376.898 176.667C375.868 177.111 374.79 177.571 373.681 178.044C367.19 180.812 359.613 184.042 354.015 187.465C348.337 190.949 345.824 195.042 344.256 203.202L391.883 212.356L391.883 212.355L405.761 215.022L406.694 210.169C410.482 215.031 415.949 218.363 422.52 219.626C427.15 220.516 431.775 221.404 436.398 222.292C442.049 223.378 447.45 222.801 452.196 220.739C451.946 221.697 451.718 222.72 451.508 223.816C483.22 229.91 514.932 236.005 546.644 242.099L557.702 184.563L531.418 179.513C529.326 184.557 525.687 187.77 521.114 189.056C519.788 181.534 513.405 175.359 501.634 173.097C497.007 172.207 492.381 171.319 487.757 170.431C477.856 168.528 470.302 170.703 465.811 174.9C462.146 168.649 455.961 164.319 447.84 162.758C443.217 161.869 438.592 160.981 433.962 160.092C426.031 158.567 418.627 160.372 412.836 164.948C410.356 159.046 404.271 154.384 394.382 152.483C389.754 151.594 385.129 150.706 380.505 149.817Z" fill="#EAF1FC"/>
<path d="M381.26 145.889C369.387 143.607 359.68 146.576 354.23 153.046C352.587 154.981 351.311 156.872 350.287 159.295C349.292 161.647 348.599 164.352 347.933 167.819C347.733 168.861 347.954 169.939 348.55 170.818C349.145 171.696 350.064 172.302 351.106 172.502L368.606 175.865C362.988 178.286 356.788 181.081 351.929 184.052L351.923 184.056C348.68 186.046 346.127 188.351 344.193 191.475C342.299 194.536 341.157 198.132 340.328 202.447C339.911 204.617 341.331 206.713 343.501 207.13L391.128 216.284C391.156 216.29 391.184 216.295 391.212 216.299L405.006 218.95C406.407 219.22 407.778 218.723 408.685 217.752C412.4 220.62 416.836 222.607 421.765 223.554C424.015 223.986 426.361 224.437 428.706 224.887C431.052 225.338 433.396 225.788 435.643 226.22C439.984 227.054 444.25 227.028 448.275 226.171C448.871 226.989 449.756 227.552 450.753 227.744C476.289 232.651 501.826 237.559 527.363 242.467L545.889 246.027C548.059 246.444 550.155 245.024 550.572 242.854L561.63 185.318C561.831 184.277 561.609 183.198 561.014 182.32C560.418 181.441 559.499 180.836 558.457 180.635L532.173 175.585C530.309 175.227 528.45 176.227 527.723 177.98C526.703 180.439 525.279 182.255 523.563 183.506C520.337 176.35 512.955 171.199 502.389 169.169C500.173 168.743 497.804 168.288 495.436 167.833C493.077 167.38 490.718 166.927 488.512 166.502C479.816 164.831 472.298 165.969 466.741 169.249C462.378 163.91 456.146 160.281 448.595 158.83C446.388 158.405 444.025 157.952 441.661 157.497C439.295 157.043 436.929 156.589 434.717 156.163C427.328 154.743 420.218 155.862 414.178 159.249C410.309 153.947 403.777 150.216 395.137 148.555C392.827 148.111 390.517 147.668 388.208 147.224L388.197 147.222C385.884 146.778 383.571 146.333 381.26 145.889Z" stroke="#EAF1FC" stroke-width="8" stroke-linejoin="round"/>
</g>
<path d="M344.256 203.202L391.883 212.356L394.524 198.617L371.21 194.136L371.242 193.97C378.248 190.309 386.132 188.37 392.851 183.963C396.706 181.423 398.906 177.615 399.882 172.536C401.882 162.128 395.659 152.729 380.505 149.817C369.597 147.721 361.537 150.575 357.285 155.629C354.384 159.043 353.157 161.829 351.861 168.573L367.515 171.582C368.235 167.835 369.317 165.798 371.184 164.171C372.852 162.679 374.912 162.297 377.659 162.825C382.156 163.69 384.039 166.469 383.351 170.05C382.759 173.13 380.479 175.11 376.899 176.666C369.838 179.713 360.57 183.457 354.015 187.464C348.338 190.949 345.824 195.042 344.256 203.202Z" fill="#4E3BFB"/>
<path d="M422.52 219.626C437.924 222.586 451.473 213.189 454.962 195.037C458.434 176.969 449.949 163.164 433.963 160.091C418.559 157.131 405.145 166.727 401.672 184.795C398.183 202.947 407.45 216.729 422.52 219.626ZM424.972 207.318C418.061 205.99 416.773 198.317 418.741 188.076C420.694 177.917 424.799 170.936 431.709 172.264C438.62 173.592 439.845 181.598 437.892 191.756C435.924 201.998 431.883 208.647 424.972 207.318Z" fill="#4E3BFB"/>
<path d="M451.508 223.815L499.135 232.969L501.776 219.23L478.462 214.75L478.494 214.583C485.5 210.922 493.384 208.984 500.103 204.576C503.958 202.036 506.158 198.228 507.134 193.149C509.134 182.741 502.911 173.343 487.757 170.43C476.849 168.334 468.789 171.188 464.537 176.242C461.636 179.656 460.409 182.442 459.113 189.187L474.767 192.195C475.487 188.448 476.569 186.412 478.436 184.785C480.104 183.292 482.164 182.911 484.911 183.439C489.408 184.303 491.291 187.082 490.603 190.663C490.011 193.744 487.731 195.723 484.151 197.28C477.09 200.326 467.822 204.071 461.267 208.078C455.59 211.562 453.076 215.655 451.508 223.815Z" fill="#4E3BFB"/>
<path d="M516.114 236.232L532.767 239.433L543.825 181.897L531.418 179.512C528.201 187.269 521.325 190.696 513.018 189.445L510.826 200.852L522.483 203.093L516.114 236.232Z" fill="#4E3BFB"/>
<path d="M348.882 204.09L396.509 213.244L399.15 199.506L375.835 195.025L375.867 194.858C382.874 191.197 390.758 189.259 397.476 184.851C401.332 182.312 403.531 178.504 404.508 173.424C406.508 163.016 400.285 153.618 385.13 150.705C374.223 148.609 366.163 151.463 361.91 156.517C359.009 159.931 357.783 162.717 356.487 169.462L372.141 172.47C372.861 168.724 373.943 166.687 375.81 165.06C377.478 163.567 379.537 163.186 382.285 163.714C386.781 164.578 388.664 167.358 387.976 170.938C387.384 174.019 385.104 175.998 381.524 177.555C374.463 180.601 365.196 184.346 358.641 188.353C352.963 191.838 350.45 195.931 348.882 204.09Z" fill="#E85593"/>
<path d="M427.146 220.514C442.55 223.475 456.098 214.077 459.587 195.926C463.06 177.857 454.575 164.052 438.588 160.98C423.184 158.019 409.77 167.615 406.298 185.684C402.809 203.835 412.075 217.617 427.146 220.514ZM429.598 208.207C422.687 206.879 421.399 199.206 423.367 188.964C425.319 178.806 429.424 171.824 436.335 173.152C443.246 174.481 444.47 182.487 442.518 192.645C440.55 202.886 436.509 209.535 429.598 208.207Z" fill="#E85593"/>
<path d="M456.134 224.704L503.761 233.858L506.402 220.119L483.087 215.638L483.119 215.472C490.126 211.81 498.01 209.872 504.728 205.465C508.584 202.925 510.783 199.117 511.76 194.038C513.76 183.63 507.537 174.231 492.382 171.319C481.475 169.222 473.415 172.077 469.162 177.13C466.261 180.545 465.035 183.331 463.739 190.075L479.393 193.084C480.113 189.337 481.195 187.3 483.062 185.673C484.73 184.18 486.789 183.799 489.537 184.327C494.033 185.191 495.917 187.971 495.228 191.551C494.636 194.632 492.356 196.611 488.776 198.168C481.715 201.215 472.448 204.959 465.893 208.966C460.215 212.451 457.702 216.544 456.134 224.704Z" fill="#E85593"/>
<path d="M520.739 237.121L537.392 240.321L548.45 182.785L536.044 180.401C532.826 188.158 525.951 191.585 517.644 190.334L515.451 201.741L527.108 203.981L520.739 237.121Z" fill="#E85593"/>
<path d="M353.507 204.979L401.135 214.133L403.775 200.395L380.461 195.914L380.493 195.747C387.5 192.086 395.384 190.148 402.102 185.74C405.957 183.201 408.157 179.393 409.133 174.313C411.134 163.905 404.91 154.507 389.756 151.594C378.848 149.498 370.788 152.352 366.536 157.406C363.635 160.82 362.409 163.606 361.112 170.351L376.766 173.359C377.486 169.613 378.569 167.576 380.435 165.949C382.104 164.456 384.163 164.075 386.91 164.603C391.407 165.467 393.29 168.247 392.602 171.827C392.01 174.908 389.73 176.887 386.15 178.444C379.089 181.49 369.821 185.235 363.266 189.242C357.589 192.727 355.076 196.82 353.507 204.979Z" fill="#211680"/>
<path d="M431.772 221.403C447.176 224.364 460.724 214.966 464.213 196.814C467.685 178.746 459.201 164.941 443.214 161.869C427.81 158.908 414.396 168.504 410.923 186.572C407.435 204.724 416.701 218.506 431.772 221.403ZM434.223 209.096C427.312 207.768 426.024 200.095 427.993 189.853C429.945 179.695 434.05 172.713 440.961 174.041C447.872 175.37 449.096 183.376 447.144 193.534C445.175 203.775 441.134 210.424 434.223 209.096Z" fill="#211680"/>
<path d="M460.759 225.593L508.387 234.747L511.027 221.008L487.713 216.527L487.745 216.36C494.752 212.699 502.636 210.761 509.354 206.354C513.209 203.814 515.409 200.006 516.385 194.927C518.386 184.519 512.162 175.12 497.008 172.208C486.1 170.111 478.04 172.966 473.788 178.019C470.887 181.434 469.661 184.22 468.364 190.964L484.018 193.973C484.738 190.226 485.821 188.189 487.687 186.562C489.356 185.069 491.415 184.688 494.163 185.216C498.659 186.08 500.542 188.86 499.854 192.44C499.262 195.521 496.982 197.5 493.402 199.057C486.341 202.103 477.073 205.848 470.519 209.855C464.841 213.34 462.328 217.433 460.759 225.593Z" fill="#211680"/>
<path d="M525.365 238.01L542.018 241.21L553.076 183.674L540.669 181.29C537.452 189.047 530.577 192.474 522.269 191.223L520.077 202.63L531.734 204.87L525.365 238.01Z" fill="#211680"/>
<path d="M358.134 205.869L405.761 215.022L408.401 201.284L385.087 196.803L385.119 196.636C392.126 192.975 400.01 191.037 406.728 186.63C410.584 184.09 412.783 180.282 413.759 175.203C415.76 164.794 409.537 155.396 394.382 152.483C383.475 150.387 375.415 153.241 371.162 158.295C368.261 161.709 367.035 164.495 365.739 171.24L381.393 174.249C382.113 170.502 383.195 168.465 385.062 166.838C386.73 165.345 388.789 164.964 391.537 165.492C396.033 166.356 397.916 169.136 397.228 172.716C396.636 175.797 394.356 177.776 390.776 179.333C383.715 182.379 374.448 186.124 367.893 190.131C362.215 193.616 359.702 197.709 358.134 205.869Z" fill="#090055"/>
<path d="M436.398 222.292C451.802 225.253 465.35 215.855 468.839 197.704C472.312 179.635 463.827 165.83 447.84 162.758C432.436 159.797 419.022 169.393 415.55 187.462C412.061 205.613 421.327 219.395 436.398 222.292ZM438.85 209.985C431.939 208.657 430.651 200.984 432.619 190.742C434.571 180.584 438.676 173.602 445.587 174.93C452.498 176.259 453.722 184.265 451.77 194.423C449.801 204.664 445.761 211.313 438.85 209.985Z" fill="#090055"/>
<path d="M465.386 226.482L513.013 235.636L515.654 221.897L492.339 217.416L492.371 217.25C499.378 213.588 507.262 211.65 513.98 207.243C517.836 204.703 520.035 200.895 521.012 195.816C523.012 185.408 516.789 176.009 501.634 173.097C490.727 171 482.667 173.855 478.414 178.908C475.513 182.323 474.287 185.109 472.991 191.853L488.645 194.862C489.365 191.115 490.447 189.078 492.314 187.451C493.982 185.959 496.041 185.577 498.789 186.105C503.285 186.969 505.168 189.749 504.48 193.329C503.888 196.41 501.608 198.39 498.028 199.946C490.967 202.993 481.7 206.737 475.145 210.744C469.467 214.229 466.954 218.322 465.386 226.482Z" fill="#090055"/>
<path d="M529.991 238.899L546.644 242.099L557.702 184.563L545.296 182.179C542.078 189.936 535.203 193.363 526.896 192.112L524.703 203.519L536.36 205.759L529.991 238.899Z" fill="#090055"/>
<defs>
<filter id="filter0_d" x="-2" y="-2" width="650.55" height="214.79" filterUnits="userSpaceOnUse" color-interpolation-filters="sRGB">
<feFlood flood-opacity="0" result="BackgroundImageFix"/>
<feColorMatrix in="SourceAlpha" type="matrix" values="0 0 0 0 0 0 0 0 0 0 0 0 0 0 0 0 0 0 127 0" result="hardAlpha"/>
<feOffset dx="2" dy="2"/>
<feGaussianBlur stdDeviation="2"/>
<feColorMatrix type="matrix" values="0 0 0 0 0 0 0 0 0 0 0 0 0 0 0 0 0 0 0.25 0"/>
<feBlend mode="normal" in2="BackgroundImageFix" result="effect1_dropShadow"/>
<feBlend mode="normal" in="SourceGraphic" in2="effect1_dropShadow" result="shape"/>
</filter>
<filter id="filter1_d" x="334.254" y="139.13" width="237.448" height="116.971" filterUnits="userSpaceOnUse" color-interpolation-filters="sRGB">
<feFlood flood-opacity="0" result="BackgroundImageFix"/>
<feColorMatrix in="SourceAlpha" type="matrix" values="0 0 0 0 0 0 0 0 0 0 0 0 0 0 0 0 0 0 127 0" result="hardAlpha"/>
<feOffset dx="2" dy="2"/>
<feGaussianBlur stdDeviation="2"/>
<feColorMatrix type="matrix" values="0 0 0 0 0 0 0 0 0 0 0 0 0 0 0 0 0 0 0.25 0"/>
<feBlend mode="normal" in2="BackgroundImageFix" result="effect1_dropShadow"/>
<feBlend mode="normal" in="SourceGraphic" in2="effect1_dropShadow" result="shape"/>
</filter>
</defs>
</svg>
