<svg width="360" height="157" viewBox="0 0 360 157" fill="none" xmlns="http://www.w3.org/2000/svg">
<g filter="url(#filter0_d)">
<rect x="-4" y="49.9631" width="359" height="76" rx="16" transform="rotate(-8 -4 49.9631)" fill="#121212"/>
<path d="M37.3021 66.5908C37.3121 66.001 37.5904 65.6677 38.137 65.5909L45.4709 64.5601C46.1087 64.4705 46.4268 64.751 46.4253 65.4015L46.8427 96.4657C46.8327 97.0555 46.5544 97.3888 46.0077 97.4657L38.6738 98.4964C38.0361 98.586 37.718 98.3056 37.7194 97.655L37.5446 85.8343L29.5729 86.9547L29.715 98.8729C29.705 99.4627 29.4267 99.796 28.8801 99.8728L21.5461 100.904C20.9084 100.993 20.5903 100.713 20.5918 100.062L20.1744 68.9979C20.1844 68.4081 20.4627 68.0748 21.0093 67.998L28.3433 66.9673C28.981 66.8776 29.2991 67.1581 29.2977 67.8086L29.4789 79.6749L37.4505 78.5546L37.3021 66.5908ZM68.1625 94.352C67.5552 94.4374 67.1958 94.1937 67.0843 93.621C66.7356 92.4622 66.4325 91.297 66.175 90.1255L58.34 91.2266C58.1824 91.8681 58.0269 92.5248 57.8736 93.1967C57.7464 93.8339 57.604 94.4733 57.4464 95.1148C57.3325 95.6263 57.0174 95.9184 56.5011 95.9909L48.7572 97.0792C47.998 97.1859 47.7212 96.8687 47.9267 96.1276L57.7394 63.4862C57.888 63.0008 58.2052 62.724 58.6911 62.6557L65.0229 61.7658C65.5999 61.6847 65.9723 61.9111 66.1403 62.4449L76.95 92.0951C77.1957 92.7418 76.9845 93.1122 76.3164 93.2061L68.1625 94.352ZM64.5171 83.9481L62.1115 74.7635C61.7218 76.3977 61.3342 78.047 60.9488 79.7115C60.5894 81.3414 60.2149 82.9734 59.8252 84.6075L64.5171 83.9481ZM89.2209 91.8105C87.4899 92.0538 85.8355 91.9611 84.2579 91.5325C82.6802 91.1039 81.2442 90.3612 79.9498 89.3044C78.6555 88.2476 77.57 86.9137 76.6932 85.3027C75.8122 83.6613 75.2181 81.7474 74.9108 79.5609C74.4925 76.5848 74.6028 73.8441 75.2417 71.3388C75.9109 68.8293 76.9481 66.6241 78.3533 64.7234C79.7584 62.8227 81.462 61.2826 83.464 60.1031C85.466 58.9237 87.621 58.1718 89.929 57.8474C91.0223 57.6938 92.0849 57.6528 93.1169 57.7246C94.175 57.7617 95.0747 57.883 95.8158 58.0885C96.297 58.2067 96.5304 58.5455 96.5161 59.1049L96.5077 65.6559C96.5148 66.3671 96.1717 66.5702 95.4785 66.265C94.2002 65.7634 92.7108 65.632 91.0102 65.8711C89.8258 66.0375 88.7688 66.4493 87.8393 67.1064C86.9054 67.7331 86.1207 68.5402 85.4853 69.5276C84.8802 70.5107 84.4526 71.6546 84.2025 72.9595C83.9827 74.2601 83.9773 75.6544 84.1865 77.1424C84.4937 79.3289 85.2642 80.9549 86.4978 82.0202C87.7618 83.0813 89.2441 83.4923 90.9447 83.2533C91.795 83.1338 92.6152 82.9102 93.4053 82.5824C94.1953 82.2545 94.914 81.8594 95.5612 81.3968C95.8697 81.1676 96.1235 81.101 96.3228 81.1968C96.5525 81.2884 96.6625 81.5207 96.653 81.8937L96.834 88.1393C96.8416 88.6337 96.702 88.963 96.4154 89.1271C95.5119 89.7496 94.459 90.3002 93.2565 90.7788C92.0845 91.2532 90.7393 91.5971 89.2209 91.8105ZM125.782 53.2732C126.146 53.222 126.404 53.2941 126.555 53.4896C126.703 53.6547 126.678 53.9214 126.482 54.2896L117.708 70.5267L126.855 85.035C127.257 85.6908 127.078 86.072 126.319 86.1787L116.935 87.4975C116.449 87.5658 116.081 87.3698 115.83 86.9095L108.609 72.5487L108.842 87.7524C108.862 88.3379 108.584 88.6712 108.007 88.7523L100.035 89.8726C99.3972 89.9623 99.0791 89.6818 99.0806 89.0313L98.6176 57.9734C98.5973 57.3879 98.8756 57.0546 99.4526 56.9735L107.424 55.8532C108.062 55.7635 108.38 56.044 108.379 56.6945L108.632 71.3843L115.889 55.2674C116.077 54.8385 116.413 54.5898 116.899 54.5216L125.782 53.2732ZM151.18 49.7036C151.849 49.6097 152.182 49.8881 152.18 50.5386L152.207 56.0162C152.197 56.606 151.903 56.9414 151.326 57.0225L144.676 57.9572L144.717 82.7104C144.707 83.3002 144.414 83.6356 143.837 83.7167L136.548 84.741C135.88 84.8349 135.547 84.5566 135.548 83.9061L135.565 59.2376L129.051 60.1531C128.383 60.247 128.05 59.9687 128.051 59.3181L128.025 53.8405C128.035 53.2507 128.328 52.9153 128.905 52.8342L151.18 49.7036ZM166.476 80.9065C164.624 81.1669 162.878 81.087 161.24 80.667C159.601 80.2469 158.122 79.5258 156.802 78.5036C155.507 77.4468 154.42 76.0977 153.539 74.4563C152.658 72.815 152.063 70.901 151.756 68.7145C151.338 65.7384 151.433 62.9999 152.042 60.4989C152.65 57.9978 153.598 55.8207 154.886 53.9674C156.2 52.0795 157.767 50.5586 159.587 49.4048C161.407 48.2509 163.319 47.5332 165.323 47.2515C167.145 46.9954 168.875 47.0774 170.514 47.4975C172.183 47.9133 173.664 48.6496 174.959 49.7064C176.249 50.7328 177.334 52.0667 178.215 53.7081C179.096 55.3495 179.692 57.2786 180.004 59.4955C180.422 62.4716 180.327 65.2101 179.719 67.7111C179.11 70.2122 178.147 72.3915 176.828 74.249C175.54 76.1023 173.987 77.6058 172.167 78.7597C170.347 79.9135 168.45 80.6291 166.476 80.9065ZM166.072 72.7414C167.165 72.5877 168.04 72.0931 168.697 71.2576C169.384 70.4178 169.911 69.4301 170.278 68.2947C170.641 67.1289 170.856 65.9064 170.924 64.6271C170.988 63.3175 170.945 62.1313 170.795 61.0684C170.68 60.2484 170.478 59.4717 170.189 58.7381C169.931 58.0002 169.578 57.3684 169.133 56.8426C168.718 56.3126 168.213 55.9189 167.62 55.6617C167.057 55.4002 166.395 55.3228 165.636 55.4295C164.513 55.5874 163.609 56.1015 162.927 56.9716C162.274 57.8375 161.769 58.8686 161.41 60.0648C161.078 61.2263 160.88 62.4619 160.816 63.7715C160.779 65.0465 160.83 66.185 160.971 67.1872C161.086 68.0071 161.286 68.7687 161.571 69.4719C161.856 70.1752 162.206 70.7918 162.621 71.3218C163.066 71.8476 163.571 72.2413 164.134 72.5028C164.727 72.76 165.373 72.8395 166.072 72.7414ZM198.54 58.4233C200.696 58.5539 202.388 59.1367 203.617 60.1717C204.842 61.1763 205.576 62.5441 205.82 64.2751C206.054 65.9454 205.884 67.4868 205.308 68.8993C204.733 70.3118 203.826 71.5697 202.587 72.6728C201.375 73.7412 199.861 74.6507 198.047 75.4012C196.228 76.1214 194.18 76.6415 191.902 76.9616L183.338 78.1651C182.67 78.259 182.337 77.9807 182.338 77.3302L182.24 46.2211C182.25 45.6313 182.543 45.2959 183.12 45.2148L191.912 43.9792C195.465 43.4799 198.327 43.6815 200.497 44.5842C202.668 45.4869 203.926 47.1681 204.272 49.628C204.545 51.5715 204.173 53.3271 203.154 54.8948C202.136 56.4625 200.609 57.6061 198.573 58.3257L198.54 58.4233ZM191.563 57.0348C193.173 56.8086 194.295 56.3102 194.93 55.5397C195.565 54.7691 195.795 53.7613 195.62 52.5162C195.364 50.6941 194.021 49.9538 191.592 50.2952L191.318 50.3337L191.336 57.0668L191.563 57.0348ZM191.617 70.6377C193.439 70.3816 194.754 69.8251 195.563 68.9683C196.367 68.081 196.678 66.9845 196.494 65.6786C196.358 64.7069 195.871 64.001 195.035 63.5611C194.23 63.1169 193.098 62.9972 191.64 63.2021L191.322 63.2469L191.344 70.6761L191.617 70.6377ZM225.912 45.7505C225.932 46.3361 225.654 46.6694 225.077 46.7505L216.377 47.9732L216.489 53.0672L223.413 52.0941C224.081 52.0002 224.414 52.2785 224.413 52.9291L224.504 58.5369C224.524 59.1225 224.246 59.4558 223.669 59.5369L216.608 60.5292L216.732 66.0395L225.342 64.8296C225.98 64.7399 226.298 65.0204 226.296 65.6709L226.381 71.2332C226.402 71.8188 226.123 72.1521 225.546 72.2332L208.373 74.6467C207.735 74.7363 207.417 74.4559 207.419 73.8054L206.865 42.7603C206.844 42.1748 207.123 41.8415 207.7 41.7604L224.873 39.3469C225.51 39.2572 225.829 39.5377 225.827 40.1882L225.912 45.7505ZM251.468 44.5279C251.805 46.927 251.427 49.0859 250.335 51.0047C249.242 52.9235 247.566 54.4441 245.309 55.5666L253.629 67.1716C253.827 67.4843 253.866 67.7576 253.744 67.9915C253.648 68.1908 253.433 68.3139 253.099 68.3609L244.672 69.5453C244.125 69.6221 243.729 69.4455 243.482 69.0156L237.241 58.6514L237.262 69.7041C237.252 70.2939 236.958 70.6293 236.381 70.7104L229.184 71.7219C228.516 71.8158 228.183 71.5375 228.184 70.887L228.17 39.7196C228.185 39.1601 228.48 38.8399 229.057 38.7588L238.395 37.4464C240.217 37.1903 241.885 37.1572 243.398 37.3471C244.911 37.5371 246.238 37.9391 247.377 38.5532C248.512 39.1369 249.429 39.937 250.13 40.9534C250.826 41.9395 251.272 43.131 251.468 44.5279ZM237.241 44.4371L237.267 52.8876L237.404 52.8684C239.257 52.6081 240.561 51.9757 241.318 50.9712C242.105 49.9625 242.401 48.7597 242.205 47.3627C242.047 46.2391 241.561 45.4248 240.746 44.9199C239.958 44.3803 238.851 44.2109 237.423 44.4114L237.241 44.4371ZM272.872 39.1972C272.862 39.787 272.584 40.1203 272.037 40.1971L263.975 41.3302L263.939 48.3495L270.681 47.402C271.349 47.3081 271.682 47.5864 271.681 48.237L271.72 53.8057C271.71 54.3955 271.417 54.7309 270.84 54.812L263.961 55.7787L263.997 65.9467C263.987 66.5365 263.693 66.872 263.116 66.9531L255.555 68.0158C254.886 68.1097 254.553 67.8314 254.555 67.1808L254.502 36.0654C254.512 35.4756 254.805 35.1401 255.382 35.059L271.872 32.7415C272.51 32.6519 272.828 32.9324 272.826 33.5829L272.872 39.1972ZM293.369 36.2701C293.389 36.8557 293.111 37.189 292.534 37.2701L283.833 38.4928L283.945 43.5868L290.869 42.6137C291.537 42.5198 291.871 42.7981 291.869 43.4487L291.96 49.0565C291.981 49.6421 291.703 49.9754 291.126 50.0565L284.065 51.0488L284.189 56.5591L292.798 55.3492C293.436 55.2595 293.754 55.54 293.753 56.1905L293.838 61.7528C293.858 62.3384 293.58 62.6717 293.003 62.7528L275.83 65.1663C275.192 65.2559 274.874 64.9755 274.875 64.325L274.321 33.2799C274.301 32.6944 274.579 32.3611 275.156 32.28L292.329 29.8665C292.967 29.7768 293.285 30.0573 293.284 30.7078L293.369 36.2701ZM304.084 61.6599C302.626 61.8648 301.134 61.9351 299.608 61.8709C298.112 61.8025 296.748 61.576 295.518 61.1916C294.997 61.0169 294.747 60.6651 294.765 60.136L294.805 54.1381C294.819 53.7955 294.91 53.5659 295.08 53.4492C295.279 53.3282 295.542 53.3223 295.867 53.4314C297.007 53.8287 298.147 54.1175 299.287 54.2979C300.453 54.4437 301.613 54.4355 302.767 54.2733C303.982 54.1026 304.935 53.7209 305.626 53.1283C306.312 52.5054 306.594 51.7536 306.47 50.8729C306.363 50.1137 305.972 49.5338 305.296 49.1333C304.621 48.7327 303.62 48.3315 302.294 47.9295C301.423 47.6803 300.558 47.3682 299.7 46.9933C298.868 46.5837 298.102 46.0876 297.401 45.5048C296.73 44.9178 296.15 44.2096 295.662 43.3801C295.174 42.5507 294.851 41.5741 294.693 40.4505C294.441 38.6588 294.599 37.0263 295.166 35.553C295.729 34.0494 296.551 32.7415 297.634 31.6294C298.742 30.4826 300.052 29.5553 301.563 28.8475C303.104 28.1354 304.725 27.6598 306.426 27.4208C307.64 27.2501 308.838 27.1748 310.017 27.1948C311.193 27.1844 312.285 27.2476 313.295 27.3844C313.837 27.494 314.101 27.8286 314.087 28.388L314.094 33.7289C314.093 34.3795 313.76 34.6585 313.097 34.5659C312.234 34.3774 311.307 34.2756 310.313 34.2603C309.346 34.2104 308.483 34.2388 307.724 34.3455C306.6 34.5034 305.741 34.8875 305.145 35.4976C304.55 36.1078 304.307 36.8076 304.418 37.5972C304.534 38.4171 304.975 39.021 305.741 39.4087C306.508 39.7964 307.464 40.2041 308.608 40.6317C310.627 41.3389 312.288 42.2513 313.591 43.3688C314.92 44.4517 315.73 46.0257 316.02 48.0907C316.255 49.761 316.138 51.3567 315.671 52.8779C315.229 54.3645 314.491 55.7224 313.456 56.9518C312.417 58.1507 311.105 59.1713 309.52 60.0134C307.931 60.8251 306.119 61.374 304.084 61.6599ZM338.924 23.318C339.592 23.2241 339.925 23.5025 339.924 24.153L339.95 29.6306C339.94 30.2204 339.647 30.5559 339.07 30.6369L332.419 31.5716L332.46 56.3248C332.45 56.9146 332.157 57.25 331.58 57.3311L324.292 58.3554C323.623 58.4493 323.29 58.171 323.292 57.5205L323.309 32.852L316.795 33.7675C316.127 33.8614 315.793 33.5831 315.795 32.9325L315.768 27.4549C315.778 26.8651 316.072 26.5297 316.649 26.4486L338.924 23.318Z" fill="#EAF1FC"/>
</g>
<g filter="url(#filter1_d)">
<path fill-rule="evenodd" clip-rule="evenodd" d="M203.219 80.328C195.683 78.8797 190.115 80.8515 187.177 84.3429C185.173 86.7015 184.326 88.6263 183.431 93.2856L203.554 97.1525C202.821 97.8203 201.87 98.3796 200.727 98.8765C200.015 99.1836 199.271 99.501 198.505 99.8278C194.021 101.74 188.786 103.972 184.919 106.336C180.996 108.744 179.26 111.571 178.177 117.208L211.079 123.532L211.079 123.531L220.667 125.374L221.311 122.021C223.928 125.38 227.705 127.682 232.244 128.554C235.443 129.169 238.638 129.782 241.832 130.396C245.736 131.146 249.467 130.748 252.746 129.323C252.573 129.985 252.416 130.691 252.27 131.449C274.178 135.659 296.086 139.869 317.994 144.08L325.633 104.332L307.475 100.843C306.03 104.327 303.516 106.547 300.356 107.436C299.44 102.239 295.031 97.9731 286.899 96.4103C283.702 95.7958 280.507 95.1824 277.312 94.5684C270.473 93.2539 265.254 94.7568 262.152 97.6562C259.62 93.3374 255.347 90.346 249.736 89.2677C246.543 88.654 243.347 88.0405 240.149 87.4258C234.67 86.3727 229.555 87.6194 225.554 90.7808C223.841 86.7034 219.637 83.4828 212.806 82.1699C209.609 81.5554 206.413 80.942 203.219 80.328Z" fill="#EAF1FC"/>
<path d="M182.864 96.2317L194.2 98.4099C190.508 100.012 186.522 101.84 183.354 103.776L183.349 103.779C181.085 105.169 179.291 106.786 177.932 108.982C176.602 111.131 175.806 113.647 175.231 116.642C174.918 118.269 175.983 119.842 177.61 120.154L210.513 126.478C210.533 126.482 210.553 126.486 210.574 126.489L220.1 128.32C221.075 128.507 222.031 128.2 222.707 127.573C225.27 129.51 228.31 130.853 231.678 131.5C233.278 131.808 234.876 132.115 236.474 132.422C238.072 132.729 239.669 133.035 241.266 133.342C244.242 133.914 247.17 133.907 249.94 133.338C250.383 133.885 251.007 134.261 251.704 134.395C269.293 137.775 286.881 141.155 304.47 144.535L317.427 147.026C319.054 147.338 320.627 146.273 320.94 144.646L328.579 104.898C328.729 104.117 328.563 103.308 328.116 102.649C327.67 101.99 326.98 101.536 326.199 101.386L308.041 97.8966C306.643 97.628 305.249 98.3785 304.704 99.6932C304.062 101.241 303.187 102.405 302.139 103.234C299.811 98.3463 294.686 94.8519 287.466 93.4642C285.874 93.1584 284.283 92.8528 282.693 92.5473L282.671 92.543L282.629 92.5349C281.045 92.2307 279.461 91.9266 277.878 91.6223C271.919 90.4768 266.729 91.2242 262.848 93.4461C259.804 89.7977 255.496 87.3198 250.303 86.3217C248.706 86.0147 247.108 85.7079 245.51 85.401C243.912 85.094 242.314 84.787 240.715 84.4798C235.632 83.5027 230.732 84.2469 226.548 86.5359C223.818 82.903 219.291 80.3614 213.372 79.2238C211.773 78.9165 210.175 78.6095 208.577 78.3026C206.979 77.9957 205.382 77.6888 203.785 77.3819C195.525 75.7945 188.722 77.8519 184.887 82.4057C183.74 83.7559 182.844 85.0823 182.125 86.7834C181.429 88.4309 180.946 90.3188 180.484 92.7194C180.334 93.5007 180.501 94.3098 180.947 94.9685C181.393 95.6271 182.083 96.0815 182.864 96.2317Z" stroke="#EAF1FC" stroke-width="6" stroke-linejoin="round"/>
</g>
<path d="M178.177 117.208L211.08 123.532L212.904 114.041L196.798 110.945L196.82 110.83C201.66 108.301 207.107 106.962 211.748 103.917C214.411 102.162 215.931 99.5317 216.605 96.0228C217.987 88.8326 213.688 82.3398 203.219 80.3277C195.683 78.8794 190.115 80.8512 187.178 84.3426C185.173 86.7012 184.326 88.626 183.431 93.2853L194.245 95.3638C194.742 92.7753 195.49 91.3681 196.78 90.2441C197.932 89.213 199.355 88.9496 201.253 89.3145C204.359 89.9115 205.66 91.8316 205.185 94.3051C204.776 96.4334 203.201 97.8008 200.728 98.8763C195.85 100.981 189.447 103.568 184.919 106.336C180.997 108.743 179.26 111.571 178.177 117.208Z" fill="#4E3BFB"/>
<path d="M232.245 128.554C242.886 130.599 252.246 124.107 254.656 111.567C257.055 99.085 251.194 89.5482 240.149 87.4256C229.508 85.3803 220.241 92.0095 217.842 104.492C215.432 117.032 221.833 126.553 232.245 128.554ZM233.938 120.052C229.164 119.134 228.274 113.833 229.634 106.758C230.983 99.7405 233.818 94.9173 238.593 95.8349C243.367 96.7525 244.213 102.283 242.864 109.301C241.504 116.376 238.713 120.969 233.938 120.052Z" fill="#4E3BFB"/>
<path d="M252.27 131.448L285.173 137.772L286.997 128.281L270.891 125.185L270.913 125.07C275.753 122.541 281.2 121.202 285.841 118.157C288.505 116.403 290.024 113.772 290.699 110.263C292.081 103.073 287.781 96.5802 277.312 94.5681C269.777 93.1198 264.209 95.0916 261.271 98.583C259.267 100.942 258.42 102.866 257.524 107.526L268.338 109.604C268.836 107.016 269.584 105.609 270.873 104.485C272.026 103.453 273.448 103.19 275.347 103.555C278.453 104.152 279.754 106.072 279.278 108.545C278.869 110.674 277.294 112.041 274.821 113.117C269.943 115.221 263.541 117.808 259.012 120.576C255.09 122.984 253.354 125.811 252.27 131.448Z" fill="#4E3BFB"/>
<path d="M296.902 140.026L308.407 142.238L316.046 102.49L307.475 100.842C305.252 106.201 300.503 108.569 294.764 107.704L293.249 115.585L301.302 117.133L296.902 140.026Z" fill="#4E3BFB"/>
<path d="M181.372 117.822L214.275 124.145L216.099 114.654L199.993 111.559L200.015 111.444C204.855 108.915 210.302 107.575 214.943 104.531C217.607 102.776 219.126 100.145 219.801 96.6366C221.183 89.4463 216.883 82.9536 206.414 80.9415C198.879 79.4932 193.311 81.465 190.373 84.9564C188.369 87.315 187.522 89.2398 186.626 93.8991L197.441 95.9775C197.938 93.389 198.686 91.9819 199.975 90.8579C201.128 89.8268 202.55 89.5634 204.449 89.9282C207.555 90.5252 208.856 92.4454 208.38 94.9189C207.971 97.0472 206.396 98.4146 203.923 99.49C199.045 101.595 192.643 104.181 188.114 106.95C184.192 109.357 182.456 112.185 181.372 117.822Z" fill="#E85593"/>
<path d="M235.44 129.168C246.082 131.213 255.442 124.721 257.852 112.181C260.251 99.6988 254.389 90.162 243.345 88.0393C232.703 85.9941 223.437 92.6233 221.037 105.106C218.627 117.645 225.029 127.167 235.44 129.168ZM237.134 120.665C232.36 119.748 231.47 114.447 232.83 107.372C234.178 100.354 237.014 95.531 241.788 96.4486C246.563 97.3662 247.408 102.897 246.06 109.915C244.7 116.99 241.908 121.583 237.134 120.665Z" fill="#E85593"/>
<path d="M255.466 132.062L288.369 138.386L290.193 128.895L274.087 125.799L274.109 125.684C278.949 123.155 284.396 121.816 289.037 118.771C291.7 117.017 293.22 114.386 293.894 110.877C295.276 103.687 290.977 97.194 280.508 95.1819C272.972 93.7336 267.404 95.7054 264.467 99.1968C262.462 101.555 261.615 103.48 260.72 108.14L271.534 110.218C272.031 107.629 272.779 106.222 274.069 105.098C275.221 104.067 276.644 103.804 278.542 104.169C281.648 104.766 282.949 106.686 282.474 109.159C282.065 111.288 280.49 112.655 278.017 113.73C273.139 115.835 266.736 118.422 262.208 121.19C258.286 123.597 256.549 126.425 255.466 132.062Z" fill="#E85593"/>
<path d="M300.098 140.64L311.602 142.851L319.241 103.103L310.671 101.456C308.448 106.815 303.698 109.182 297.959 108.318L296.445 116.199L304.498 117.746L300.098 140.64Z" fill="#E85593"/>
<path d="M184.568 118.436L217.471 124.76L219.295 115.268L203.189 112.173L203.211 112.058C208.051 109.529 213.498 108.19 218.139 105.145C220.802 103.39 222.322 100.76 222.996 97.2507C224.378 90.0605 220.079 83.5677 209.61 81.5556C202.074 80.1073 196.506 82.0791 193.569 85.5705C191.564 87.9291 190.717 89.8539 189.822 94.5132L200.636 96.5917C201.134 94.0032 201.881 92.596 203.171 91.472C204.323 90.441 205.746 90.1775 207.644 90.5424C210.75 91.1394 212.051 93.0595 211.576 95.533C211.167 97.6613 209.592 99.0287 207.119 100.104C202.241 102.209 195.838 104.796 191.31 107.564C187.388 109.971 185.651 112.799 184.568 118.436Z" fill="#211680"/>
<path d="M238.636 129.782C249.277 131.827 258.637 125.335 261.047 112.795C263.446 100.313 257.585 90.7761 246.54 88.6535C235.899 86.6082 226.632 93.2374 224.233 105.72C221.823 118.26 228.224 127.781 238.636 129.782ZM240.33 121.28C235.555 120.362 234.665 115.061 236.025 107.986C237.374 100.968 240.21 96.1452 244.984 97.0628C249.758 97.9804 250.604 103.511 249.255 110.529C247.895 117.604 245.104 122.197 240.33 121.28Z" fill="#211680"/>
<path d="M258.661 132.676L291.564 139L293.388 129.509L277.282 126.413L277.304 126.298C282.144 123.769 287.591 122.43 292.232 119.385C294.896 117.631 296.415 115 297.09 111.491C298.472 104.301 294.172 97.8081 283.703 95.796C276.168 94.3477 270.6 96.3196 267.662 99.8109C265.658 102.17 264.811 104.094 263.915 108.754L274.73 110.832C275.227 108.244 275.975 106.836 277.264 105.712C278.417 104.681 279.839 104.418 281.738 104.783C284.844 105.38 286.145 107.3 285.669 109.773C285.26 111.902 283.685 113.269 281.212 114.345C276.334 116.449 269.932 119.036 265.403 121.804C261.481 124.212 259.745 127.039 258.661 132.676Z" fill="#211680"/>
<path d="M303.293 141.254L314.798 143.465L322.437 103.718L313.866 102.07C311.643 107.429 306.894 109.797 301.155 108.932L299.64 116.813L307.693 118.361L303.293 141.254Z" fill="#211680"/>
<path d="M187.764 119.05L220.667 125.374L222.491 115.883L206.385 112.787L206.407 112.672C211.247 110.143 216.694 108.804 221.335 105.759C223.998 104.004 225.518 101.374 226.192 97.8649C227.574 90.6747 223.275 84.1819 212.806 82.1698C205.271 80.7215 199.702 82.6933 196.765 86.1847C194.761 88.5433 193.913 90.4681 193.018 95.1274L203.832 97.2059C204.33 94.6174 205.077 93.2102 206.367 92.0862C207.519 91.0552 208.942 90.7917 210.84 91.1566C213.946 91.7536 215.247 93.6737 214.772 96.1472C214.363 98.2755 212.788 99.6429 210.315 100.718C205.437 102.823 199.034 105.41 194.506 108.178C190.584 110.585 188.847 113.413 187.764 119.05Z" fill="#090055"/>
<path d="M241.832 130.396C252.473 132.441 261.833 125.949 264.243 113.409C266.642 100.927 260.781 91.3903 249.736 89.2677C239.095 87.2224 229.828 93.8516 227.429 106.334C225.019 118.874 231.42 128.395 241.832 130.396ZM243.526 121.894C238.751 120.976 237.861 115.676 239.221 108.6C240.57 101.583 243.406 96.7594 248.18 97.677C252.954 98.5946 253.8 104.125 252.451 111.143C251.091 118.218 248.3 122.811 243.526 121.894Z" fill="#090055"/>
<path d="M261.857 133.29L294.76 139.614L296.584 130.123L280.478 127.028L280.5 126.913C285.341 124.383 290.787 123.044 295.428 120C298.092 118.245 299.611 115.614 300.286 112.105C301.668 104.915 297.368 98.4223 286.899 96.4102C279.364 94.9619 273.796 96.9338 270.858 100.425C268.854 102.784 268.007 104.709 267.111 109.368L277.926 111.446C278.423 108.858 279.171 107.451 280.46 106.327C281.613 105.296 283.035 105.032 284.934 105.397C288.04 105.994 289.341 107.914 288.865 110.388C288.456 112.516 286.881 113.883 284.408 114.959C279.53 117.063 273.128 119.65 268.599 122.418C264.677 124.826 262.941 127.653 261.857 133.29Z" fill="#090055"/>
<path d="M306.489 141.869L317.994 144.08L325.633 104.332L317.062 102.685C314.839 108.043 310.09 110.411 304.351 109.546L302.836 117.427L310.889 118.975L306.489 141.869Z" fill="#090055"/>
<defs>
<filter id="filter0_d" x="-6" y="-2" width="374.083" height="133.224" filterUnits="userSpaceOnUse" color-interpolation-filters="sRGB">
<feFlood flood-opacity="0" result="BackgroundImageFix"/>
<feColorMatrix in="SourceAlpha" type="matrix" values="0 0 0 0 0 0 0 0 0 0 0 0 0 0 0 0 0 0 127 0" result="hardAlpha"/>
<feOffset dx="2" dy="2"/>
<feGaussianBlur stdDeviation="2"/>
<feColorMatrix type="matrix" values="0 0 0 0 0 0 0 0 0 0 0 0 0 0 0 0 0 0 0.25 0"/>
<feBlend mode="normal" in2="BackgroundImageFix" result="effect1_dropShadow"/>
<feBlend mode="normal" in="SourceGraphic" in2="effect1_dropShadow" result="shape"/>
</filter>
<filter id="filter1_d" x="170.176" y="71.8536" width="167.457" height="84.2272" filterUnits="userSpaceOnUse" color-interpolation-filters="sRGB">
<feFlood flood-opacity="0" result="BackgroundImageFix"/>
<feColorMatrix in="SourceAlpha" type="matrix" values="0 0 0 0 0 0 0 0 0 0 0 0 0 0 0 0 0 0 127 0" result="hardAlpha"/>
<feOffset dx="2" dy="2"/>
<feGaussianBlur stdDeviation="2"/>
<feColorMatrix type="matrix" values="0 0 0 0 0 0 0 0 0 0 0 0 0 0 0 0 0 0 0.25 0"/>
<feBlend mode="normal" in2="BackgroundImageFix" result="effect1_dropShadow"/>
<feBlend mode="normal" in="SourceGraphic" in2="effect1_dropShadow" result="shape"/>
</filter>
</defs>
</svg>
