<svg width="196" height="144" viewBox="0 0 196 144" fill="none" xmlns="http://www.w3.org/2000/svg">
<g filter="url(#filter0_d)">
<path d="M18.2555 45.4459C15.235 46.2552 12.8151 48.1848 11.436 50.7631C9.67275 53.6004 9.34344 57.1508 10.6599 60.4707C10.6599 60.4707 10.6599 60.4707 10.6599 60.4707L33.2418 117.419L36.9601 115.944L33.2418 117.419C34.5147 120.629 37.0674 123.019 40.0197 124.294C40.6664 125.46 41.6809 126.415 43.0258 127C45.0038 127.861 47.1841 127.705 49.0795 127.197L135.992 103.909C138.755 103.168 141.476 101.543 143.704 99.6668C145.932 97.7902 147.996 95.3849 149.196 92.7882L170.181 47.35L166.55 45.6728L170.181 47.35C170.968 45.6472 171.473 43.6574 171.087 41.6719C170.809 40.2356 170.095 38.9992 169.053 38.0886C168.427 36.7371 167.338 35.6246 165.838 34.9718C163.861 34.1109 161.68 34.2674 159.785 34.7753L125.774 43.8885L120.141 29.6836C117.834 23.8647 111.214 20.5376 105.168 22.1578L18.2555 45.4459Z" stroke="#EAF1FC" stroke-width="8" shape-rendering="crispEdges"/>
</g>
<path d="M64.8437 72.9249C66.617 69.0853 71.3662 65.0854 75.4514 63.9908L162.364 40.7027C166.449 39.6081 168.323 41.8333 166.55 45.6728L145.564 91.111C143.791 94.9505 139.042 98.9504 134.956 100.045L48.0439 123.333C43.9588 124.428 42.0847 122.203 43.858 118.363L64.8437 72.9249Z" fill="#090055"/>
<path d="M63.2998 70.8611C65.0731 67.0216 69.8223 63.0217 73.9074 61.9271L160.82 38.639C164.905 37.5443 166.779 39.7695 165.006 43.6091L144.02 89.0472C142.247 92.8868 137.498 96.8867 133.412 97.9813L46.5 121.269C42.4149 122.364 40.5407 120.139 42.314 116.299L63.2998 70.8611Z" fill="#211680"/>
<rect width="7.08664" height="4.39934" rx="2" transform="matrix(0.965926 -0.258819 -0.419294 0.907851 148.646 58.2209)" fill="#E85593"/>
<rect width="7.08664" height="4.39934" rx="2" transform="matrix(0.965926 -0.258819 -0.419294 0.907851 148.363 57.8327)" fill="#4E3BFB"/>
<rect width="14.3265" height="4.39934" rx="2" transform="matrix(0.965926 -0.258819 -0.419294 0.907851 138.268 65.9566)" fill="#E85593"/>
<rect width="14.153" height="4.39934" rx="2" transform="matrix(0.965926 -0.258819 -0.419294 0.907851 138.152 65.5234)" fill="#4E3BFB"/>
<rect width="14.4317" height="4.39934" rx="2" transform="matrix(0.965926 -0.258819 -0.419294 0.907851 134.783 71.8453)" fill="#E85593"/>
<rect width="14.0931" height="4.39934" rx="2" transform="matrix(0.965926 -0.258819 -0.419294 0.907851 134.826 71.3696)" fill="#4E3BFB"/>
<rect width="7.08664" height="4.39934" rx="2" transform="matrix(0.965926 -0.258819 -0.419294 0.907851 138.494 75.8061)" fill="#E85593"/>
<rect width="7.08664" height="4.39934" rx="2" transform="matrix(0.965926 -0.258819 -0.419294 0.907851 138.21 75.4179)" fill="#4E3BFB"/>
<rect width="7.08664" height="4.39934" rx="2" transform="matrix(0.965926 -0.258819 -0.419294 0.907851 130.172 78.0359)" fill="#E85593"/>
<rect width="7.08664" height="4.39934" rx="2" transform="matrix(0.965926 -0.258819 -0.419294 0.907851 129.888 77.6476)" fill="#4E3BFB"/>
<rect width="7.08664" height="4.39934" rx="2" transform="matrix(0.965926 -0.258819 -0.419294 0.907851 135.571 81.5441)" fill="#E85593"/>
<rect width="7.08664" height="4.39934" rx="2" transform="matrix(0.965926 -0.258819 -0.419294 0.907851 135.287 81.1558)" fill="#4E3BFB"/>
<rect width="7.08664" height="4.39934" rx="2" transform="matrix(0.965926 -0.258819 -0.419294 0.907851 140.325 60.4507)" fill="#E85593"/>
<rect width="7.08664" height="4.39934" rx="2" transform="matrix(0.965926 -0.258819 -0.419294 0.907851 140.041 60.0625)" fill="#4E3BFB"/>
<rect width="7.08664" height="4.39934" rx="2" transform="matrix(0.965926 -0.258819 -0.419294 0.907851 130.006 68.1705)" fill="#E85593"/>
<rect width="7.08664" height="4.39934" rx="2" transform="matrix(0.965926 -0.258819 -0.419294 0.907851 129.722 67.7823)" fill="#4E3BFB"/>
<rect width="7.08664" height="4.39934" rx="2" transform="matrix(0.965926 -0.258819 -0.419294 0.907851 126.622 74.0322)" fill="#E85593"/>
<rect width="7.08664" height="4.39934" rx="2" transform="matrix(0.965926 -0.258819 -0.419294 0.907851 126.338 73.644)" fill="white"/>
<rect width="7.08664" height="4.39934" rx="2" transform="matrix(0.965926 -0.258819 -0.419294 0.907851 132.003 62.6803)" fill="#E85593"/>
<rect width="7.08664" height="4.39934" rx="2" transform="matrix(0.965926 -0.258819 -0.419294 0.907851 131.72 62.2921)" fill="#4E3BFB"/>
<path d="M15.2544 57.3231C13.6954 53.3917 15.7433 49.3173 19.8285 48.2226L106.741 24.9345C110.826 23.8399 115.402 26.1396 116.96 30.0711L139.542 87.0191C141.101 90.9506 139.053 95.025 134.968 96.1196L48.0557 119.408C43.9706 120.502 39.3952 118.203 37.8362 114.271L15.2544 57.3231Z" fill="#090055"/>
<path d="M14.3779 58.9962C12.819 55.0648 14.8669 50.9904 18.952 49.8958L105.864 26.6076C109.95 25.513 114.525 27.8127 116.084 31.7442L138.666 88.6922C140.225 92.6237 138.177 96.6981 134.092 97.7927L47.1793 121.081C43.0941 122.175 38.5187 119.876 36.9597 115.944L14.3779 58.9962Z" fill="#211680"/>
<path d="M76.4965 68.0049C76.452 67.7968 76.5275 67.6665 76.7231 67.6141L79.3479 66.9108C79.5762 66.8496 79.7166 66.9336 79.7693 67.1627L82.4656 78.08C82.5102 78.2881 82.4346 78.4184 82.239 78.4708L79.6142 79.1741C79.386 79.2353 79.2455 79.1513 79.1928 78.9222L78.1609 74.7686L75.3078 75.5331L76.3356 79.7225C76.3802 79.9306 76.3047 80.0609 76.109 80.1133L73.4842 80.8166C73.256 80.8778 73.1155 80.7938 73.0628 80.5647L70.3665 69.6474C70.322 69.4393 70.3975 69.309 70.5931 69.2566L73.2179 68.5533C73.4462 68.4921 73.5867 68.5761 73.6393 68.8052L74.6774 72.9745L77.5304 72.21L76.4965 68.0049Z" fill="#E85593"/>
<defs>
<filter id="filter0_d" x="0.437988" y="0.0817871" width="194.773" height="143.169" filterUnits="userSpaceOnUse" color-interpolation-filters="sRGB">
<feFlood flood-opacity="0" result="BackgroundImageFix"/>
<feColorMatrix in="SourceAlpha" type="matrix" values="0 0 0 0 0 0 0 0 0 0 0 0 0 0 0 0 0 0 127 0" result="hardAlpha"/>
<feOffset dx="2" dy="2"/>
<feGaussianBlur stdDeviation="2"/>
<feComposite in2="hardAlpha" operator="out"/>
<feColorMatrix type="matrix" values="0 0 0 0 0 0 0 0 0 0 0 0 0 0 0 0 0 0 0.25 0"/>
<feBlend mode="normal" in2="BackgroundImageFix" result="effect1_dropShadow"/>
<feBlend mode="normal" in="SourceGraphic" in2="effect1_dropShadow" result="shape"/>
</filter>
</defs>
</svg>
