<svg width="193" height="175" viewBox="0 0 193 175" fill="none" xmlns="http://www.w3.org/2000/svg">
<g filter="url(#filter0_d)">
<path d="M122.33 51.4467C138.283 46.26 150.212 45.7349 153.312 51.1051C156.413 56.4753 149.994 66.5438 137.526 77.7655C140.574 95.4193 132.576 113.884 116.156 123.364C99.7365 132.844 79.7465 130.538 65.982 119.071C50.0297 124.258 38.1005 124.783 35 119.413C31.8995 114.043 38.3189 103.974 50.7868 92.7524C47.7385 75.0985 55.7365 56.6337 72.1562 47.1538C88.5759 37.6739 108.566 39.9798 122.33 51.4467Z" fill="#4E3BFB"/>
<path d="M156.776 49.1051C154.028 44.3437 148.104 43.2059 142.56 43.3179C137.144 43.4273 130.494 44.7374 123.152 46.992C108.229 35.6951 87.3935 33.7378 70.1562 43.6897C52.9189 53.6417 44.1962 72.6645 46.5184 91.2362C40.8947 96.4675 36.4349 101.572 33.6322 106.207C30.7635 110.952 28.7869 116.651 31.5359 121.413C34.2849 126.174 40.2087 127.312 45.7523 127.2C51.1683 127.091 57.8186 125.781 65.1608 123.526C80.0833 134.823 100.919 136.78 118.156 126.828C135.394 116.876 144.116 97.8534 141.794 79.2817C147.418 74.0504 151.877 68.9461 154.68 64.3105C157.549 59.5656 159.525 53.8665 156.776 49.1051Z" stroke="#EAF1FC" stroke-width="8"/>
</g>
<circle cx="94.1559" cy="85.259" r="44" transform="rotate(-30 94.1559 85.259)" fill="#090055"/>
<ellipse cx="94.1561" cy="85.2589" rx="68.3077" ry="19.0769" transform="rotate(-30 94.1561 85.2589)" fill="#211680"/>
<ellipse cx="94.1565" cy="85.2589" rx="60.6154" ry="15.3846" transform="rotate(-30 94.1565 85.2589)" fill="#E85593"/>
<ellipse cx="94.1562" cy="85.2589" rx="51.0769" ry="11.6923" transform="rotate(-30 94.1562 85.2589)" fill="#4E3BFB"/>
<path d="M132.261 63.259C133.799 65.9237 119.201 80.0369 98.1559 92.1872C77.111 104.337 57.5892 109.924 56.0508 107.259C43.9005 86.2141 51.111 59.3041 72.1559 47.1539C93.2008 35.0036 120.111 42.2141 132.261 63.259Z" fill="#090055"/>
<defs>
<filter id="filter0_d" x="0.0717773" y="0.0717773" width="192.169" height="174.374" filterUnits="userSpaceOnUse" color-interpolation-filters="sRGB">
<feFlood flood-opacity="0" result="BackgroundImageFix"/>
<feColorMatrix in="SourceAlpha" type="matrix" values="0 0 0 0 0 0 0 0 0 0 0 0 0 0 0 0 0 0 127 0" result="hardAlpha"/>
<feOffset dx="2" dy="2"/>
<feGaussianBlur stdDeviation="2"/>
<feComposite in2="hardAlpha" operator="out"/>
<feColorMatrix type="matrix" values="0 0 0 0 0 0 0 0 0 0 0 0 0 0 0 0 0 0 0.25 0"/>
<feBlend mode="normal" in2="BackgroundImageFix" result="effect1_dropShadow"/>
<feBlend mode="normal" in="SourceGraphic" in2="effect1_dropShadow" result="shape"/>
</filter>
</defs>
</svg>
