<svg width="34" height="29" viewBox="0 0 34 29" fill="none" xmlns="http://www.w3.org/2000/svg">
<path d="M6.06508 8.36731L6.05802 20.0037L3.59779 20.0022L3.60343 10.701L3.53525 10.701L0.869466 12.3698L0.870789 10.188L3.75258 8.36591L6.06508 8.36731Z" fill="white"/>
<path fill-rule="evenodd" clip-rule="evenodd" d="M12.0407 1.12251C12.7595 0.40378 13.7343 0 14.7507 0C15.7672 0 16.742 0.40378 17.4607 1.12251C18.1795 1.84125 18.5832 2.81606 18.5832 3.8325C18.5832 4.84894 18.1795 5.82375 17.4607 6.5425C16.9743 7.0289 16.3705 7.3711 15.716 7.5415V9.5603C16.6206 14.2571 19.8778 16.1663 25.7419 15.8798C25.921 15.2685 26.2513 14.7057 26.7099 14.2472C27.4286 13.5284 28.4035 13.1246 29.42 13.1246C30.4365 13.1246 31.4113 13.5284 32.1301 14.2472C32.8489 14.966 33.2527 15.9408 33.2527 16.9573C33.2527 17.9738 32.8489 18.9487 32.1301 19.6674C31.4113 20.3862 30.4365 20.79 29.42 20.79C28.4035 20.79 27.4286 20.3862 26.7099 19.6674C26.1222 19.0798 25.7451 18.3209 25.6271 17.508C19.7893 17.3089 18.1821 16.867 15.716 13.8867V20.5828C15.8864 20.6271 16.054 20.6833 16.2174 20.751C16.6824 20.9436 17.105 21.2259 17.4609 21.5818C17.8168 21.9377 18.0991 22.3602 18.2917 22.8252C18.4843 23.2902 18.5834 23.7886 18.5834 24.2919C18.5834 24.7953 18.4843 25.2936 18.2917 25.7586C18.0991 26.2236 17.8168 26.6462 17.4609 27.0021C17.105 27.358 16.6824 27.6403 16.2174 27.8329C15.7524 28.0255 15.254 28.1246 14.7507 28.1246C13.7342 28.1246 12.7594 27.7208 12.0406 27.0021C11.3218 26.2833 10.918 25.3084 10.918 24.2919C10.918 23.2754 11.3218 22.3006 12.0406 21.5818C12.6215 21.001 13.3696 20.6258 14.1717 20.5032V9.8715V7.621C13.3696 7.4984 12.6216 7.1233 12.0407 6.5425C11.322 5.82375 10.9182 4.84894 10.9182 3.8325C10.9182 2.81606 11.322 1.84125 12.0407 1.12251ZM14.7507 1.875C14.2316 1.875 13.7337 2.08124 13.3666 2.44834C12.9995 2.81544 12.7932 3.31334 12.7932 3.8325C12.7932 4.35166 12.9995 4.84956 13.3666 5.21666C13.7337 5.58376 14.2316 5.79 14.7507 5.79C15.2699 5.79 15.7678 5.58376 16.1349 5.21666C16.502 4.84956 16.7082 4.35166 16.7082 3.8325C16.7082 3.31334 16.502 2.81544 16.1349 2.44834C15.7678 2.08124 15.2699 1.875 14.7507 1.875ZM29.42 14.9996C28.9008 14.9996 28.4028 15.2059 28.0357 15.573C27.6686 15.9402 27.4623 16.4381 27.4623 16.9573C27.4623 17.4765 27.6686 17.9745 28.0357 18.3416C28.4028 18.7087 28.9008 18.915 29.42 18.915C29.9392 18.915 30.4371 18.7087 30.8043 18.3416C31.1714 17.9745 31.3777 17.4765 31.3777 16.9573C31.3777 16.4381 31.1714 15.9402 30.8043 15.573C30.4371 15.2059 29.9392 14.9996 29.42 14.9996ZM14.7507 22.3342C14.2315 22.3342 13.7336 22.5405 13.3664 22.9076C12.9993 23.2748 12.793 23.7727 12.793 24.2919C12.793 24.8111 12.9993 25.3091 13.3664 25.6762C13.7336 26.0434 14.2315 26.2496 14.7507 26.2496C15.0078 26.2496 15.2624 26.199 15.4999 26.1006C15.7374 26.0022 15.9532 25.858 16.135 25.6762C16.3168 25.4944 16.461 25.2786 16.5594 25.0411C16.6578 24.8036 16.7084 24.549 16.7084 24.2919C16.7084 24.0349 16.6578 23.7803 16.5594 23.5428C16.461 23.3052 16.3168 23.0894 16.135 22.9076C15.9532 22.7259 15.7374 22.5817 15.4999 22.4833C15.2624 22.3849 15.0078 22.3342 14.7507 22.3342Z" fill="#EAF1FC"/>
</svg>