<svg width="1280" height="500" viewBox="0 0 1280 500" fill="none" xmlns="http://www.w3.org/2000/svg">
<g clip-path="url(#clip0)">
<rect width="1496" height="104" transform="translate(-32.0828 12) rotate(15)" fill="#E85593"/>
<path d="M-1.22762 44.286C2.12092 45.1833 5.12721 46.4305 7.79125 48.0278C10.4553 49.6251 12.6363 51.4794 14.3344 53.5908C16.0324 55.7023 17.1702 58.0501 17.7477 60.6343C18.339 63.1669 18.2482 65.8757 17.4752 68.7606C16.7298 71.5425 15.461 73.908 13.6687 75.8573C11.9418 77.7688 9.78256 79.2331 7.19098 80.2504C4.66471 81.2299 1.81603 81.7642 -1.35504 81.8531C-4.51232 81.8906 -7.86826 81.4331 -11.4229 80.4806L-11.8865 80.3564L-16.5453 97.7431C-16.7523 98.5158 -17.2422 98.7986 -18.0149 98.5916L-31.847 94.8853C-32.6197 94.6782 -32.9026 94.1883 -32.6955 93.4156L-18.6158 40.8692C-18.4087 40.0965 -17.9188 39.8136 -17.1461 40.0207L-1.22762 44.286ZM-8.66754 68.9612C-6.09174 69.6514 -3.96849 69.5578 -2.29778 68.6803C-0.575559 67.8166 0.554723 66.3802 1.09307 64.3711C1.64521 62.3104 1.38456 60.5013 0.311117 58.9437C-0.697013 57.3485 -2.43746 56.2195 -4.91023 55.557L-5.21933 55.4741L-8.82209 68.9198L-8.66754 68.9612ZM30.711 112.31C27.4654 111.441 24.6275 110.183 22.1971 108.538C19.7806 106.842 17.8677 104.811 16.4585 102.445C15.0494 100.08 14.1697 97.3872 13.8194 94.367C13.5345 91.309 13.8821 87.9512 14.8622 84.2936L23.4964 52.0703C23.7034 51.2976 24.1933 51.0147 24.966 51.2218L38.1799 54.7624C38.9527 54.9695 39.2355 55.4594 39.0284 56.2321L30.0837 89.6145C29.3797 92.2418 29.4218 94.3513 30.2101 95.9429C31.0121 97.4829 32.4177 98.5222 34.4269 99.0605C36.436 99.5988 38.1729 99.4017 39.6375 98.469C41.1159 97.4847 42.2072 95.679 42.9112 93.0516L51.8559 59.6692C52.063 58.8965 52.5529 58.6137 53.3256 58.8207L66.2304 62.2785C67.0031 62.4856 67.286 62.9755 67.0789 63.7482L58.4447 95.9715C57.4647 99.6292 56.061 102.704 54.2338 105.196C52.4719 107.65 50.3894 109.549 47.9864 110.893C45.5833 112.237 42.9113 113.039 39.9702 113.3C37.0429 113.51 33.9565 113.18 30.711 112.31ZM93.136 113.881C93.9087 114.088 94.1916 114.577 93.9845 115.35L90.9822 126.555C90.7752 127.328 90.2853 127.611 89.5125 127.403L58.6029 119.121C57.8302 118.914 57.5473 118.424 57.7544 117.652L71.8341 65.1052C72.0412 64.3325 72.5311 64.0496 73.3038 64.2567L87.1359 67.963C87.9086 68.17 88.1915 68.6599 87.9844 69.4327L77.2175 109.615L93.136 113.881ZM128.513 123.36C129.286 123.567 129.569 124.057 129.362 124.829L126.359 136.034C126.152 136.807 125.662 137.09 124.89 136.883L93.9799 128.601C93.2072 128.393 92.9243 127.904 93.1314 127.131L107.211 74.5845C107.418 73.8117 107.908 73.5289 108.681 73.7359L122.513 77.4422C123.286 77.6493 123.568 78.1392 123.361 78.9119L112.595 119.094L128.513 123.36ZM182.29 150.275C182.465 150.653 182.504 151.023 182.407 151.383C182.255 151.95 181.716 152.109 180.788 151.861L166.183 147.947C165.359 147.727 164.882 147.24 164.753 146.487L159.296 124.816L154.285 143.517C154.078 144.29 153.588 144.572 152.815 144.365L139.756 140.866C138.983 140.659 138.7 140.169 138.907 139.396L152.987 86.8501C153.194 86.0773 153.684 85.7945 154.457 86.0015L170.684 90.3497C174.033 91.2469 176.969 92.4477 179.492 93.952C182.081 95.4187 184.135 97.1286 185.654 99.0818C187.225 101.049 188.243 103.226 188.708 105.615C189.223 108.017 189.122 110.557 188.405 113.236C187.466 116.739 185.75 119.537 183.257 121.63C180.764 123.722 177.684 124.912 174.018 125.2L182.29 150.275ZM165.631 101.171L161.863 115.235L162.172 115.317C164.954 116.063 167.154 115.99 168.774 115.098C170.458 114.169 171.597 112.597 172.191 110.382C172.771 108.219 172.531 106.332 171.471 104.723C170.411 103.114 168.568 101.957 165.94 101.253L165.631 101.171ZM211.222 114.546L208.965 122.969L221.252 126.261C222.025 126.468 222.308 126.958 222.101 127.731L219.388 137.854C219.181 138.627 218.691 138.909 217.918 138.702L205.632 135.41L203.189 144.529L218.257 148.566C219.03 148.773 219.313 149.263 219.106 150.036L216.393 160.159C216.186 160.931 215.696 161.214 214.924 161.007L185.018 152.994C184.246 152.787 183.963 152.297 184.17 151.525L198.25 98.9781C198.457 98.2054 198.947 97.9226 199.719 98.1296L229.624 106.143C230.397 106.35 230.68 106.84 230.473 107.612L227.761 117.735C227.553 118.508 227.064 118.791 226.291 118.584L211.222 114.546ZM265.818 176.549C265.941 176.914 265.975 177.199 265.92 177.405C265.837 177.714 265.588 177.923 265.172 178.033L254.923 181.664C254.624 181.749 254.372 181.764 254.166 181.709C253.857 181.626 253.596 181.363 253.383 180.92L249.13 169.593C246.605 169.745 244.08 169.482 241.556 168.806C238.31 167.936 235.385 166.49 232.78 164.467C230.188 162.392 228.11 159.847 226.543 156.832C225.028 153.831 224.063 150.426 223.649 146.615C223.286 142.818 223.698 138.705 224.885 134.275C226.072 129.844 227.779 126.05 230.005 122.892C232.284 119.748 234.829 117.255 237.641 115.413C240.505 113.586 243.571 112.447 246.839 111.998C250.12 111.496 253.384 111.681 256.629 112.55C259.875 113.42 262.767 114.885 265.307 116.946C267.912 118.969 269.998 121.488 271.565 124.503C273.131 127.518 274.089 130.95 274.438 134.798C274.839 138.66 274.446 142.806 273.259 147.236C272.14 151.409 270.547 154.985 268.479 157.965C266.462 160.958 264.157 163.377 261.565 165.223L265.818 176.549ZM240.572 138.478C240.088 140.281 239.767 142.1 239.607 143.934C239.46 145.717 239.542 147.368 239.853 148.887C240.215 150.419 240.827 151.743 241.688 152.857C242.549 153.971 243.727 154.728 245.221 155.128C246.714 155.529 248.113 155.462 249.416 154.927C250.718 154.393 251.884 153.546 252.912 152.386C253.993 151.24 254.915 149.858 255.68 148.241C256.51 146.586 257.166 144.857 257.649 143.054C258.146 141.199 258.442 139.374 258.537 137.577C258.697 135.742 258.596 134.059 258.234 132.526C257.937 130.956 257.358 129.614 256.497 128.5C255.636 127.385 254.458 126.628 252.964 126.228C251.47 125.828 250.072 125.895 248.769 126.429C247.467 126.963 246.268 127.829 245.174 129.027C244.146 130.187 243.242 131.601 242.464 133.27C241.699 134.887 241.069 136.623 240.572 138.478ZM290.575 181.941C287.33 181.071 284.492 179.814 282.061 178.169C279.645 176.472 277.732 174.441 276.323 172.076C274.914 169.71 274.034 167.018 273.684 163.997C273.399 160.939 273.746 157.582 274.726 153.924L283.361 121.701C283.568 120.928 284.058 120.645 284.83 120.852L298.044 124.393C298.817 124.6 299.1 125.09 298.893 125.863L289.948 159.245C289.244 161.872 289.286 163.982 290.074 165.573C290.876 167.113 292.282 168.153 294.291 168.691C296.3 169.229 298.037 169.032 299.502 168.099C300.98 167.115 302.071 165.309 302.775 162.682L311.72 129.3C311.927 128.527 312.417 128.244 313.19 128.451L326.095 131.909C326.867 132.116 327.15 132.606 326.943 133.379L318.309 165.602C317.329 169.26 315.925 172.334 314.098 174.826C312.336 177.281 310.254 179.18 307.851 180.524C305.448 181.867 302.776 182.67 299.834 182.931C296.907 183.14 293.821 182.81 290.575 181.941ZM344.671 150.304L342.414 158.727L354.701 162.019C355.473 162.226 355.756 162.716 355.549 163.488L352.837 173.611C352.63 174.384 352.14 174.667 351.367 174.46L339.081 171.168L336.637 180.286L351.706 184.324C352.479 184.531 352.761 185.021 352.554 185.793L349.842 195.916C349.635 196.689 349.145 196.972 348.372 196.765L318.467 188.752C317.694 188.545 317.412 188.055 317.619 187.282L331.698 134.736C331.905 133.963 332.395 133.68 333.168 133.887L363.073 141.9C363.846 142.107 364.129 142.597 363.922 143.37L361.209 153.493C361.002 154.265 360.512 154.548 359.74 154.341L344.671 150.304ZM367.236 202.647C364.66 201.957 362.101 200.996 359.561 199.763C357.058 198.595 354.926 197.278 353.165 195.813C352.592 195.273 352.402 194.642 352.595 193.921L355.556 182.871C355.68 182.407 355.897 182.217 356.206 182.299C356.412 182.355 356.579 182.454 356.706 182.599C358.439 184.168 360.278 185.544 362.225 186.728C364.223 187.926 366.252 188.801 368.313 189.353C370.271 189.878 371.913 189.931 373.239 189.514C374.631 189.058 375.52 188.11 375.907 186.667C376.238 185.431 376.044 184.302 375.324 183.281C374.655 182.273 373.452 181.095 371.715 179.746C369.876 178.37 368.218 176.932 366.742 175.432C365.267 173.933 364.065 172.341 363.136 170.656C362.207 168.972 361.591 167.15 361.287 165.192C361.035 163.247 361.213 161.141 361.82 158.874C362.552 156.144 363.742 153.868 365.389 152.045C367.037 150.223 368.975 148.865 371.202 147.971C373.443 147.025 375.871 146.516 378.485 146.444C381.114 146.32 383.767 146.617 386.446 147.335C388.507 147.887 390.526 148.594 392.504 149.455C394.495 150.264 396.24 151.174 397.736 152.182C398.388 152.633 398.618 153.219 398.425 153.94L395.774 163.831C395.623 164.398 395.366 164.633 395.006 164.536C394.903 164.509 394.762 164.416 394.583 164.257C393.241 163.29 391.684 162.404 389.913 161.598C388.206 160.754 386.683 160.153 385.344 159.794C383.541 159.311 382.027 159.292 380.804 159.737C379.632 160.196 378.887 161.018 378.57 162.203C378.349 163.027 378.31 163.79 378.453 164.491C378.662 165.154 379.014 165.8 379.508 166.429C380.002 167.059 380.599 167.716 381.299 168.4C382.064 169.047 382.9 169.74 383.806 170.48C385.553 171.997 387.08 173.511 388.387 175.02C389.708 176.479 390.736 177.997 391.473 179.574C392.261 181.166 392.718 182.862 392.843 184.662C393.033 186.425 392.845 188.362 392.279 190.474C391.589 193.05 390.465 195.289 388.906 197.19C387.413 199.054 385.577 200.55 383.397 201.677C381.232 202.753 378.769 203.391 376.01 203.591C373.303 203.804 370.378 203.489 367.236 202.647ZM441.732 162.977C442.505 163.184 442.788 163.674 442.581 164.446L439.806 174.801C439.599 175.574 439.109 175.857 438.336 175.65L426.745 172.544L415.751 213.576C415.544 214.349 415.054 214.632 414.281 214.425L401.144 210.905C400.372 210.698 400.089 210.208 400.296 209.435L411.29 168.403L399.699 165.297C398.927 165.09 398.644 164.6 398.851 163.827L401.625 153.472C401.832 152.7 402.322 152.417 403.095 152.624L441.732 162.977ZM472.031 171.095C475.379 171.992 478.386 173.24 481.05 174.837C483.714 176.434 485.895 178.289 487.593 180.4C489.291 182.511 490.429 184.859 491.006 187.443C491.597 189.976 491.507 192.685 490.734 195.57C489.988 198.352 488.719 200.717 486.927 202.666C485.2 204.578 483.041 206.042 480.449 207.06C477.923 208.039 475.074 208.573 471.903 208.662C468.746 208.7 465.39 208.242 461.836 207.29L461.372 207.166L456.713 224.552C456.506 225.325 456.016 225.608 455.243 225.401L441.411 221.694C440.639 221.487 440.356 220.998 440.563 220.225L454.643 167.678C454.85 166.906 455.34 166.623 456.112 166.83L472.031 171.095ZM464.591 195.77C467.167 196.461 469.29 196.367 470.961 195.489C472.683 194.626 473.813 193.189 474.351 191.18C474.904 189.12 474.643 187.311 473.569 185.753C472.561 184.158 470.821 183.029 468.348 182.366L468.039 182.283L464.436 195.729L464.591 195.77ZM503.969 239.119C500.724 238.25 497.886 236.992 495.456 235.347C493.039 233.651 491.126 231.62 489.717 229.254C488.308 226.889 487.428 224.196 487.078 221.176C486.793 218.118 487.14 214.76 488.121 211.103L496.755 178.88C496.962 178.107 497.452 177.824 498.224 178.031L511.438 181.572C512.211 181.779 512.494 182.269 512.287 183.041L503.342 216.424C502.638 219.051 502.68 221.16 503.468 222.752C504.271 224.292 505.676 225.331 507.685 225.87C509.694 226.408 511.431 226.211 512.896 225.278C514.374 224.294 515.466 222.488 516.17 219.861L525.114 186.478C525.321 185.706 525.811 185.423 526.584 185.63L539.489 189.088C540.262 189.295 540.544 189.785 540.337 190.557L531.703 222.781C530.723 226.438 529.319 229.513 527.492 232.005C525.73 234.459 523.648 236.358 521.245 237.702C518.842 239.046 516.17 239.849 513.229 240.11C510.301 240.319 507.215 239.989 503.969 239.119ZM566.394 240.69C567.167 240.897 567.45 241.387 567.243 242.159L564.241 253.364C564.034 254.137 563.544 254.42 562.771 254.213L531.861 245.93C531.089 245.723 530.806 245.234 531.013 244.461L545.092 191.914C545.3 191.142 545.789 190.859 546.562 191.066L560.394 194.772C561.167 194.979 561.45 195.469 561.243 196.242L550.476 236.424L566.394 240.69ZM601.771 250.169C602.544 250.376 602.827 250.866 602.62 251.639L599.618 262.843C599.411 263.616 598.921 263.899 598.148 263.692L567.238 255.41C566.466 255.203 566.183 254.713 566.39 253.94L580.47 201.394C580.677 200.621 581.166 200.338 581.939 200.545L595.771 204.251C596.544 204.458 596.827 204.948 596.62 205.721L585.853 245.904L601.771 250.169ZM655.548 277.085C655.723 277.463 655.762 277.832 655.665 278.193C655.514 278.759 654.974 278.918 654.047 278.67L639.442 274.757C638.618 274.536 638.141 274.049 638.011 273.297L632.554 251.626L627.543 270.326C627.336 271.099 626.846 271.382 626.073 271.175L613.014 267.675C612.241 267.468 611.959 266.978 612.166 266.206L626.245 213.659C626.452 212.887 626.942 212.604 627.715 212.811L643.943 217.159C647.291 218.056 650.227 219.257 652.75 220.761C655.339 222.228 657.393 223.938 658.913 225.891C660.484 227.858 661.502 230.036 661.966 232.424C662.482 234.826 662.381 237.366 661.663 240.045C660.724 243.548 659.008 246.346 656.515 248.439C654.022 250.531 650.942 251.722 647.276 252.009L655.548 277.085ZM638.89 227.98L635.121 242.044L635.43 242.127C638.212 242.872 640.413 242.799 642.032 241.908C643.717 240.979 644.856 239.407 645.449 237.191C646.029 235.028 645.789 233.141 644.729 231.532C643.67 229.923 641.826 228.767 639.199 228.063L638.89 227.98ZM684.481 241.355L682.224 249.778L694.51 253.07C695.283 253.278 695.566 253.767 695.359 254.54L692.647 264.663C692.439 265.436 691.95 265.719 691.177 265.512L678.89 262.219L676.447 271.338L691.515 275.375C692.288 275.582 692.571 276.072 692.364 276.845L689.652 286.968C689.445 287.741 688.955 288.024 688.182 287.816L658.277 279.803C657.504 279.596 657.221 279.106 657.428 278.334L671.508 225.787C671.715 225.015 672.205 224.732 672.978 224.939L702.883 232.952C703.656 233.159 703.938 233.649 703.731 234.422L701.019 244.544C700.812 245.317 700.322 245.6 699.549 245.393L684.481 241.355ZM739.077 303.359C739.2 303.723 739.234 304.008 739.179 304.214C739.096 304.523 738.846 304.732 738.431 304.842L728.182 308.473C727.883 308.559 727.63 308.574 727.424 308.518C727.115 308.436 726.854 308.173 726.642 307.729L722.388 296.402C719.863 296.554 717.338 296.291 714.814 295.615C711.569 294.745 708.643 293.299 706.038 291.276C703.447 289.201 701.368 286.656 699.801 283.642C698.287 280.641 697.322 277.235 696.907 273.424C696.544 269.628 696.956 265.514 698.143 261.084C699.33 256.653 701.037 252.859 703.264 249.701C705.542 246.557 708.087 244.064 710.9 242.223C713.764 240.395 716.829 239.256 720.097 238.807C723.379 238.306 726.642 238.49 729.888 239.36C733.133 240.229 736.026 241.694 738.566 243.755C741.171 245.779 743.257 248.298 744.823 251.312C746.389 254.327 747.347 257.759 747.696 261.607C748.097 265.469 747.704 269.615 746.517 274.045C745.399 278.218 743.806 281.794 741.737 284.774C739.721 287.767 737.416 290.187 734.823 292.032L739.077 303.359ZM713.83 265.287C713.347 267.09 713.025 268.909 712.865 270.743C712.719 272.526 712.801 274.177 713.112 275.696C713.474 277.228 714.086 278.552 714.946 279.666C715.807 280.78 716.985 281.537 718.479 281.938C719.973 282.338 721.371 282.271 722.674 281.736C723.977 281.202 725.142 280.355 726.171 279.195C727.251 278.049 728.173 276.667 728.938 275.05C729.768 273.395 730.424 271.666 730.908 269.863C731.404 268.008 731.7 266.183 731.795 264.386C731.956 262.552 731.854 260.868 731.492 259.336C731.195 257.765 730.616 256.423 729.755 255.309C728.894 254.195 727.717 253.437 726.223 253.037C724.729 252.637 723.33 252.704 722.028 253.238C720.725 253.773 719.527 254.639 718.433 255.836C717.404 256.996 716.501 258.411 715.722 260.079C714.958 261.697 714.327 263.432 713.83 265.287ZM763.834 308.75C760.588 307.88 757.75 306.623 755.32 304.978C752.903 303.281 750.99 301.25 749.581 298.885C748.172 296.52 747.292 293.827 746.942 290.807C746.657 287.749 747.005 284.391 747.985 280.733L756.619 248.51C756.826 247.737 757.316 247.454 758.089 247.661L771.303 251.202C772.075 251.409 772.358 251.899 772.151 252.672L763.206 286.054C762.502 288.681 762.544 290.791 763.333 292.382C764.135 293.923 765.54 294.962 767.549 295.5C769.559 296.038 771.295 295.841 772.76 294.909C774.239 293.924 775.33 292.119 776.034 289.491L784.979 256.109C785.186 255.336 785.675 255.053 786.448 255.26L799.353 258.718C800.126 258.925 800.409 259.415 800.202 260.188L791.567 292.411C790.587 296.069 789.184 299.144 787.356 301.636C785.594 304.09 783.512 305.989 781.109 307.333C778.706 308.677 776.034 309.479 773.093 309.74C770.165 309.95 767.079 309.619 763.834 308.75ZM817.929 277.113L815.673 285.536L827.959 288.828C828.732 289.035 829.015 289.525 828.808 290.298L826.095 300.421C825.888 301.193 825.398 301.476 824.626 301.269L812.339 297.977L809.896 307.095L824.964 311.133C825.737 311.34 826.02 311.83 825.813 312.602L823.1 322.725C822.893 323.498 822.403 323.781 821.631 323.574L791.725 315.561C790.953 315.354 790.67 314.864 790.877 314.091L804.957 261.545C805.164 260.772 805.654 260.489 806.426 260.696L836.331 268.709C837.104 268.916 837.387 269.406 837.18 270.179L834.468 280.302C834.261 281.075 833.771 281.358 832.998 281.15L817.929 277.113ZM840.494 329.457C837.918 328.766 835.36 327.805 832.819 326.572C830.316 325.404 828.184 324.088 826.423 322.622C825.85 322.082 825.66 321.451 825.854 320.73L828.815 309.68C828.939 309.216 829.155 309.026 829.465 309.109C829.671 309.164 829.837 309.264 829.964 309.408C831.697 310.977 833.537 312.353 835.483 313.537C837.481 314.735 839.511 315.61 841.571 316.162C843.529 316.687 845.171 316.74 846.498 316.323C847.89 315.868 848.779 314.919 849.165 313.476C849.497 312.24 849.302 311.111 848.582 310.09C847.913 309.083 846.71 307.904 844.974 306.556C843.134 305.179 841.476 303.741 840.001 302.242C838.525 300.742 837.323 299.15 836.394 297.465C835.465 295.781 834.849 293.959 834.545 292.001C834.294 290.056 834.471 287.95 835.079 285.683C835.81 282.953 837 280.677 838.648 278.855C840.296 277.032 842.233 275.674 844.46 274.78C846.701 273.835 849.129 273.326 851.744 273.253C854.372 273.129 857.026 273.426 859.704 274.144C861.765 274.696 863.784 275.403 865.762 276.264C867.754 277.074 869.498 277.983 870.995 278.991C871.647 279.442 871.876 280.028 871.683 280.749L869.033 290.64C868.881 291.207 868.625 291.442 868.264 291.345C868.161 291.318 868.02 291.225 867.842 291.067C866.5 290.1 864.943 289.213 863.171 288.407C861.465 287.563 859.942 286.962 858.602 286.603C856.799 286.12 855.286 286.101 854.062 286.546C852.89 287.005 852.145 287.827 851.828 289.012C851.607 289.836 851.568 290.599 851.712 291.3C851.921 291.963 852.272 292.609 852.766 293.239C853.26 293.868 853.857 294.525 854.557 295.209C855.322 295.856 856.158 296.549 857.064 297.289C858.811 298.806 860.338 300.32 861.645 301.829C862.966 303.288 863.995 304.806 864.732 306.384C865.52 307.975 865.976 309.671 866.101 311.471C866.292 313.234 866.104 315.171 865.538 317.284C864.848 319.859 863.723 322.098 862.165 323.999C860.671 325.863 858.835 327.359 856.656 328.486C854.49 329.563 852.028 330.2 849.269 330.4C846.561 330.613 843.636 330.299 840.494 329.457ZM914.99 289.786C915.763 289.993 916.046 290.483 915.839 291.256L913.064 301.61C912.857 302.383 912.367 302.666 911.595 302.459L900.004 299.353L889.009 340.386C888.802 341.158 888.312 341.441 887.539 341.234L874.403 337.714C873.63 337.507 873.347 337.017 873.554 336.244L884.549 295.212L872.958 292.106C872.185 291.899 871.902 291.409 872.109 290.636L874.884 280.282C875.091 279.509 875.581 279.226 876.353 279.433L914.99 289.786ZM945.289 297.904C948.638 298.802 951.644 300.049 954.308 301.646C956.972 303.243 959.153 305.098 960.851 307.209C962.549 309.321 963.687 311.668 964.264 314.253C964.856 316.785 964.765 319.494 963.992 322.379C963.247 325.161 961.978 327.526 960.185 329.476C958.459 331.387 956.299 332.852 953.708 333.869C951.181 334.848 948.333 335.383 945.162 335.472C942.004 335.509 938.648 335.051 935.094 334.099L934.63 333.975L929.971 351.361C929.764 352.134 929.275 352.417 928.502 352.21L914.67 348.504C913.897 348.297 913.614 347.807 913.821 347.034L927.901 294.488C928.108 293.715 928.598 293.432 929.371 293.639L945.289 297.904ZM937.849 322.58C940.425 323.27 942.548 323.176 944.219 322.299C945.941 321.435 947.071 319.999 947.61 317.989C948.162 315.929 947.901 314.12 946.828 312.562C945.82 310.967 944.079 309.838 941.607 309.175L941.297 309.093L937.695 322.538L937.849 322.58ZM977.228 365.929C973.982 365.059 971.144 363.802 968.714 362.157C966.297 360.46 964.384 358.429 962.975 356.064C961.566 353.698 960.686 351.006 960.336 347.985C960.051 344.927 960.399 341.57 961.379 337.912L970.013 305.689C970.22 304.916 970.71 304.633 971.483 304.84L984.697 308.381C985.469 308.588 985.752 309.078 985.545 309.851L976.6 343.233C975.896 345.86 975.939 347.97 976.727 349.561C977.529 351.101 978.934 352.141 980.944 352.679C982.953 353.217 984.69 353.02 986.154 352.087C987.633 351.103 988.724 349.297 989.428 346.67L998.373 313.288C998.58 312.515 999.07 312.232 999.842 312.439L1012.75 315.897C1013.52 316.104 1013.8 316.594 1013.6 317.367L1004.96 349.59C1003.98 353.248 1002.58 356.322 1000.75 358.814C998.989 361.269 996.906 363.168 994.503 364.512C992.1 365.855 989.428 366.658 986.487 366.919C983.56 367.128 980.473 366.798 977.228 365.929ZM1039.65 367.499C1040.43 367.706 1040.71 368.196 1040.5 368.969L1037.5 380.173C1037.29 380.946 1036.8 381.229 1036.03 381.022L1005.12 372.74C1004.35 372.533 1004.06 372.043 1004.27 371.27L1018.35 318.724C1018.56 317.951 1019.05 317.668 1019.82 317.875L1033.65 321.581C1034.43 321.788 1034.71 322.278 1034.5 323.051L1023.73 363.234L1039.65 367.499ZM1075.03 376.978C1075.8 377.185 1076.09 377.675 1075.88 378.448L1072.88 389.653C1072.67 390.425 1072.18 390.708 1071.41 390.501L1040.5 382.219C1039.72 382.012 1039.44 381.522 1039.65 380.749L1053.73 328.203C1053.93 327.43 1054.42 327.147 1055.2 327.354L1069.03 331.061C1069.8 331.268 1070.09 331.758 1069.88 332.53L1059.11 372.713L1075.03 376.978ZM1128.81 403.894C1128.98 404.272 1129.02 404.641 1128.92 405.002C1128.77 405.569 1128.23 405.728 1127.31 405.479L1112.7 401.566C1111.88 401.345 1111.4 400.858 1111.27 400.106L1105.81 378.435L1100.8 397.135C1100.59 397.908 1100.1 398.191 1099.33 397.984L1086.27 394.485C1085.5 394.277 1085.22 393.788 1085.42 393.015L1099.5 340.468C1099.71 339.696 1100.2 339.413 1100.97 339.62L1117.2 343.968C1120.55 344.865 1123.49 346.066 1126.01 347.57C1128.6 349.037 1130.65 350.747 1132.17 352.7C1133.74 354.667 1134.76 356.845 1135.22 359.233C1135.74 361.635 1135.64 364.175 1134.92 366.854C1133.98 370.357 1132.27 373.155 1129.77 375.248C1127.28 377.341 1124.2 378.531 1120.53 378.818L1128.81 403.894ZM1112.15 354.789L1108.38 368.853L1108.69 368.936C1111.47 369.681 1113.67 369.608 1115.29 368.717C1116.97 367.788 1118.11 366.216 1118.71 364.001C1119.29 361.837 1119.05 359.951 1117.99 358.341C1116.93 356.732 1115.08 355.576 1112.46 354.872L1112.15 354.789ZM1157.74 368.165L1155.48 376.587L1167.77 379.88C1168.54 380.087 1168.82 380.577 1168.62 381.349L1165.9 391.472C1165.7 392.245 1165.21 392.528 1164.44 392.321L1152.15 389.029L1149.71 398.147L1164.77 402.185C1165.55 402.392 1165.83 402.881 1165.62 403.654L1162.91 413.777C1162.7 414.55 1162.21 414.833 1161.44 414.626L1131.54 406.613C1130.76 406.406 1130.48 405.916 1130.69 405.143L1144.77 352.597C1144.97 351.824 1145.46 351.541 1146.24 351.748L1176.14 359.761C1176.91 359.968 1177.2 360.458 1176.99 361.231L1174.28 371.354C1174.07 372.126 1173.58 372.409 1172.81 372.202L1157.74 368.165ZM1212.33 430.168C1212.46 430.532 1212.49 430.817 1212.44 431.023C1212.35 431.332 1212.1 431.542 1211.69 431.651L1201.44 435.282C1201.14 435.368 1200.89 435.383 1200.68 435.328C1200.37 435.245 1200.11 434.982 1199.9 434.538L1195.65 423.211C1193.12 423.363 1190.6 423.101 1188.07 422.424C1184.83 421.555 1181.9 420.108 1179.3 418.085C1176.71 416.01 1174.63 413.466 1173.06 410.451C1171.54 407.45 1170.58 404.044 1170.17 400.234C1169.8 396.437 1170.21 392.323 1171.4 387.893C1172.59 383.463 1174.3 379.668 1176.52 376.51C1178.8 373.366 1181.35 370.873 1184.16 369.032C1187.02 367.204 1190.09 366.066 1193.36 365.616C1196.64 365.115 1199.9 365.299 1203.15 366.169C1206.39 367.038 1209.28 368.504 1211.82 370.565C1214.43 372.588 1216.51 375.107 1218.08 378.122C1219.65 381.136 1220.61 384.568 1220.95 388.416C1221.36 392.278 1220.96 396.424 1219.78 400.855C1218.66 405.027 1217.06 408.604 1215 411.583C1212.98 414.576 1210.67 416.996 1208.08 418.841L1212.33 430.168ZM1187.09 392.096C1186.61 393.899 1186.28 395.718 1186.12 397.552C1185.98 399.335 1186.06 400.986 1186.37 402.505C1186.73 404.038 1187.34 405.361 1188.2 406.475C1189.07 407.589 1190.24 408.346 1191.74 408.747C1193.23 409.147 1194.63 409.08 1195.93 408.546C1197.23 408.011 1198.4 407.164 1199.43 406.004C1200.51 404.858 1201.43 403.476 1202.2 401.859C1203.03 400.204 1203.68 398.475 1204.17 396.672C1204.66 394.818 1204.96 392.992 1205.05 391.195C1205.21 389.361 1205.11 387.677 1204.75 386.145C1204.45 384.574 1203.87 383.232 1203.01 382.118C1202.15 381.004 1200.98 380.247 1199.48 379.846C1197.99 379.446 1196.59 379.513 1195.29 380.047C1193.98 380.582 1192.79 381.448 1191.69 382.645C1190.66 383.805 1189.76 385.22 1188.98 386.889C1188.22 388.506 1187.59 390.242 1187.09 392.096ZM1237.09 435.559C1233.85 434.689 1231.01 433.432 1228.58 431.787C1226.16 430.09 1224.25 428.059 1222.84 425.694C1221.43 423.329 1220.55 420.636 1220.2 417.616C1219.92 414.558 1220.26 411.2 1221.24 407.542L1229.88 375.319C1230.08 374.546 1230.57 374.264 1231.35 374.471L1244.56 378.011C1245.33 378.218 1245.62 378.708 1245.41 379.481L1236.46 412.863C1235.76 415.491 1235.8 417.6 1236.59 419.192C1237.39 420.732 1238.8 421.771 1240.81 422.309C1242.82 422.848 1244.55 422.65 1246.02 421.718C1247.5 420.734 1248.59 418.928 1249.29 416.3L1258.24 382.918C1258.44 382.145 1258.93 381.862 1259.71 382.07L1272.61 385.527C1273.38 385.734 1273.67 386.224 1273.46 386.997L1264.83 419.22C1263.85 422.878 1262.44 425.953 1260.61 428.445C1258.85 430.899 1256.77 432.798 1254.37 434.142C1251.96 435.486 1249.29 436.288 1246.35 436.549C1243.42 436.759 1240.34 436.429 1237.09 435.559ZM1291.19 403.922L1288.93 412.345L1301.22 415.637C1301.99 415.844 1302.27 416.334 1302.07 417.107L1299.35 427.23C1299.15 428.002 1298.66 428.285 1297.88 428.078L1285.6 424.786L1283.15 433.904L1298.22 437.942C1299 438.149 1299.28 438.639 1299.07 439.412L1296.36 449.535C1296.15 450.307 1295.66 450.59 1294.89 450.383L1264.98 442.37C1264.21 442.163 1263.93 441.673 1264.14 440.9L1278.22 388.354C1278.42 387.581 1278.91 387.298 1279.68 387.505L1309.59 395.519C1310.36 395.726 1310.65 396.215 1310.44 396.988L1307.73 407.111C1307.52 407.884 1307.03 408.167 1306.26 407.96L1291.19 403.922ZM1313.75 456.266C1311.18 455.576 1308.62 454.614 1306.08 453.381C1303.57 452.213 1301.44 450.897 1299.68 449.431C1299.11 448.891 1298.92 448.26 1299.11 447.539L1302.07 436.489C1302.2 436.025 1302.41 435.835 1302.72 435.918C1302.93 435.973 1303.1 436.073 1303.22 436.217C1304.96 437.786 1306.8 439.162 1308.74 440.346C1310.74 441.544 1312.77 442.419 1314.83 442.972C1316.79 443.496 1318.43 443.55 1319.76 443.132C1321.15 442.677 1322.04 441.728 1322.42 440.286C1322.76 439.049 1322.56 437.92 1321.84 436.899C1321.17 435.892 1319.97 434.714 1318.23 433.365C1316.39 431.988 1314.73 430.55 1313.26 429.051C1311.78 427.551 1310.58 425.959 1309.65 424.275C1308.72 422.59 1308.11 420.769 1307.8 418.81C1307.55 416.865 1307.73 414.759 1308.34 412.493C1309.07 409.762 1310.26 407.486 1311.91 405.664C1313.55 403.841 1315.49 402.483 1317.72 401.589C1319.96 400.644 1322.39 400.135 1325 400.062C1327.63 399.938 1330.28 400.235 1332.96 400.953C1335.02 401.505 1337.04 402.212 1339.02 403.073C1341.01 403.883 1342.76 404.792 1344.25 405.8C1344.91 406.251 1345.13 406.837 1344.94 407.558L1342.29 417.45C1342.14 418.016 1341.88 418.251 1341.52 418.155C1341.42 418.127 1341.28 418.034 1341.1 417.876C1339.76 416.909 1338.2 416.022 1336.43 415.216C1334.72 414.373 1333.2 413.771 1331.86 413.412C1330.06 412.929 1328.54 412.91 1327.32 413.355C1326.15 413.814 1325.4 414.636 1325.09 415.821C1324.87 416.645 1324.83 417.408 1324.97 418.109C1325.18 418.772 1325.53 419.419 1326.02 420.048C1326.52 420.677 1327.12 421.334 1327.82 422.019C1328.58 422.665 1329.42 423.359 1330.32 424.098C1332.07 425.615 1333.6 427.129 1334.9 428.639C1336.22 430.097 1337.25 431.615 1337.99 433.193C1338.78 434.784 1339.23 436.48 1339.36 438.281C1339.55 440.043 1339.36 441.981 1338.8 444.093C1338.11 446.669 1336.98 448.907 1335.42 450.809C1333.93 452.672 1332.09 454.168 1329.91 455.296C1327.75 456.372 1325.29 457.01 1322.53 457.209C1319.82 457.422 1316.89 457.108 1313.75 456.266ZM1388.25 416.595C1389.02 416.802 1389.3 417.292 1389.1 418.065L1386.32 428.42C1386.12 429.192 1385.63 429.475 1384.85 429.268L1373.26 426.162L1362.27 467.195C1362.06 467.968 1361.57 468.25 1360.8 468.043L1347.66 464.523C1346.89 464.316 1346.61 463.826 1346.81 463.054L1357.81 422.021L1346.22 418.915C1345.44 418.708 1345.16 418.218 1345.37 417.446L1348.14 407.091C1348.35 406.318 1348.84 406.035 1349.61 406.242L1388.25 416.595Z" fill="#090055"/>
<rect width="744" height="104" transform="translate(281.709 43) rotate(9.09678)" fill="#211680"/>
<path d="M350.693 133.849C350.676 133.955 350.663 134.034 350.655 134.086C350.708 134.095 350.725 134.152 350.709 134.257C350.624 134.783 350.24 134.992 349.555 134.882L334.862 132.53C334.072 132.403 333.714 131.941 333.788 131.143L335.687 103.09L324.334 129.467C323.944 130.215 323.381 130.529 322.644 130.411L314.191 129.058C313.401 128.931 312.96 128.483 312.867 127.712L309.487 98.7327L301.717 126.007C301.485 126.78 300.974 127.104 300.184 126.977L287.15 124.89C286.413 124.772 286.134 124.322 286.313 123.541L303.603 71.2165C303.835 70.4434 304.346 70.1201 305.136 70.2466L317.775 72.2703C318.565 72.3968 319.006 72.8455 319.098 73.6165L322.621 106.264L335.516 76.3263C335.906 75.5786 336.47 75.2637 337.207 75.3817L348.819 77.241C349.609 77.3675 350.02 77.8384 350.051 78.6536L350.693 133.849ZM375.511 94.5589L374.133 103.169L386.693 105.18C387.483 105.307 387.814 105.765 387.688 106.555L386.031 116.903C385.904 117.693 385.446 118.025 384.656 117.898L372.096 115.887L370.604 125.209L386.008 127.675C386.797 127.801 387.129 128.26 387.003 129.05L385.346 139.398C385.219 140.188 384.761 140.519 383.971 140.393L353.401 135.498C352.611 135.372 352.279 134.913 352.405 134.123L361.006 80.4076C361.133 79.6177 361.591 79.286 362.381 79.4125L392.951 84.3073C393.741 84.4338 394.073 84.892 393.947 85.682L392.29 96.0301C392.163 96.8201 391.705 97.1518 390.915 97.0253L375.511 94.5589ZM432.918 146.286C433.131 146.644 433.208 147.007 433.149 147.376C433.056 147.955 432.536 148.169 431.588 148.017L416.658 145.627C415.815 145.492 415.291 145.057 415.084 144.321L407.427 123.327L404.367 142.443C404.24 143.233 403.782 143.565 402.992 143.438L389.642 141.301C388.852 141.174 388.52 140.716 388.647 139.926L397.248 86.2105C397.374 85.4206 397.832 85.0888 398.622 85.2153L415.211 87.8714C418.634 88.4195 421.678 89.312 424.343 90.5488C427.068 91.7415 429.287 93.231 431 95.0176C432.765 96.8125 434.001 98.8739 434.709 101.202C435.469 103.538 435.63 106.075 435.191 108.814C434.618 112.395 433.199 115.354 430.934 117.692C428.669 120.03 425.728 121.531 422.111 122.194L432.918 146.286ZM411.298 99.1547L408.996 113.532L409.312 113.582C412.156 114.037 414.337 113.739 415.856 112.686C417.436 111.588 418.407 109.907 418.77 107.643C419.124 105.431 418.691 103.579 417.472 102.088C416.252 100.596 414.3 99.6353 411.614 99.2053L411.298 99.1547ZM454.755 152.375C451.332 151.827 448.221 150.68 445.422 148.936C442.683 147.147 440.376 144.86 438.499 142.075C436.684 139.246 435.396 135.988 434.636 132.301C433.937 128.571 433.937 124.52 434.637 120.149C435.379 115.514 436.778 111.498 438.835 108.101C440.891 104.703 443.381 101.969 446.305 99.8988C449.238 97.7758 452.491 96.3521 456.063 95.6279C459.645 94.851 463.357 94.7703 467.202 95.3859C469.256 95.7147 471.403 96.3016 473.644 97.1466C475.894 97.9389 477.776 98.8344 479.291 99.8331C479.986 100.214 480.266 100.826 480.131 101.669L478.509 111.294C478.323 112.452 477.836 112.968 477.046 112.842C476.73 112.791 476.4 112.657 476.057 112.44C474.614 111.669 472.996 110.978 471.204 110.367C469.472 109.712 467.79 109.253 466.158 108.992C462.103 108.343 458.719 109.232 456.008 111.661C453.349 114.098 451.653 117.607 450.919 122.189C450.186 126.77 450.355 130.605 451.427 133.694C452.56 136.738 454.522 138.483 457.313 138.93C459.577 139.293 461.517 138.82 463.13 137.512C464.797 136.212 465.923 134.07 466.509 131.085L459.715 129.998C458.926 129.871 458.594 129.413 458.72 128.623L460.263 118.986C460.39 118.196 460.848 117.864 461.638 117.991L480.281 120.975C481.07 121.102 481.512 121.551 481.604 122.322C481.699 123.417 481.698 124.605 481.601 125.886C481.556 127.175 481.412 128.583 481.167 130.111C480.56 133.902 479.473 137.32 477.905 140.364C476.399 143.363 474.49 145.839 472.179 147.792C469.92 149.753 467.295 151.142 464.301 151.959C461.36 152.784 458.178 152.923 454.755 152.375ZM502.21 114.845L500.831 123.456L513.391 125.467C514.181 125.593 514.513 126.052 514.386 126.841L512.73 137.19C512.603 137.98 512.145 138.311 511.355 138.185L498.795 136.174L497.302 145.495L512.706 147.961C513.496 148.088 513.828 148.546 513.701 149.336L512.044 159.684C511.918 160.474 511.46 160.806 510.67 160.679L480.099 155.785C479.309 155.658 478.978 155.2 479.104 154.41L487.705 100.694C487.831 99.9043 488.29 99.5725 489.079 99.699L519.65 104.594C520.44 104.72 520.772 105.179 520.645 105.968L518.988 116.317C518.862 117.107 518.404 117.438 517.614 117.312L502.21 114.845ZM587.196 171.717C587.179 171.823 587.166 171.902 587.158 171.954C587.211 171.963 587.229 172.02 587.212 172.125C587.127 172.652 586.743 172.86 586.058 172.75L571.365 170.398C570.576 170.271 570.217 169.809 570.291 169.011L572.19 140.958L560.837 167.335C560.448 168.083 559.884 168.397 559.147 168.279L550.694 166.926C549.904 166.8 549.463 166.351 549.371 165.58L545.99 136.601L538.22 163.875C537.988 164.648 537.477 164.972 536.687 164.845L523.653 162.758C522.916 162.64 522.637 162.191 522.816 161.409L540.106 109.084C540.338 108.311 540.849 107.988 541.639 108.115L554.278 110.138C555.068 110.265 555.509 110.714 555.602 111.485L559.124 144.132L572.02 114.194C572.409 113.447 572.973 113.132 573.71 113.25L585.322 115.109C586.112 115.236 586.523 115.706 586.554 116.522L587.196 171.717ZM612.014 132.427L610.636 141.037L623.196 143.048C623.986 143.175 624.317 143.633 624.191 144.423L622.534 154.771C622.408 155.561 621.949 155.893 621.159 155.766L608.599 153.755L607.107 163.077L622.511 165.543C623.301 165.669 623.632 166.128 623.506 166.918L621.849 177.266C621.722 178.056 621.264 178.387 620.474 178.261L589.904 173.366C589.114 173.24 588.782 172.781 588.909 171.991L597.509 118.276C597.636 117.486 598.094 117.154 598.884 117.281L629.455 122.175C630.244 122.302 630.576 122.76 630.45 123.55L628.793 133.898C628.666 134.688 628.208 135.02 627.418 134.893L612.014 132.427ZM669.421 184.154C669.634 184.512 669.711 184.875 669.652 185.244C669.559 185.823 669.039 186.037 668.091 185.885L653.161 183.495C652.318 183.36 651.794 182.925 651.588 182.189L643.931 161.195L640.87 180.311C640.743 181.101 640.285 181.433 639.495 181.307L626.145 179.169C625.355 179.043 625.024 178.584 625.15 177.794L633.751 124.079C633.877 123.289 634.336 122.957 635.125 123.083L651.714 125.739C655.137 126.288 658.181 127.18 660.846 128.417C663.571 129.61 665.79 131.099 667.503 132.886C669.268 134.681 670.504 136.742 671.212 139.07C671.972 141.406 672.133 143.943 671.694 146.682C671.121 150.263 669.702 153.222 667.437 155.56C665.172 157.898 662.231 159.399 658.614 160.062L669.421 184.154ZM647.801 137.023L645.499 151.4L645.815 151.45C648.659 151.906 650.84 151.607 652.359 150.554C653.939 149.456 654.91 147.775 655.273 145.511C655.627 143.299 655.194 141.447 653.975 139.956C652.755 138.464 650.803 137.503 648.117 137.073L647.801 137.023ZM691.258 190.243C687.835 189.695 684.724 188.548 681.925 186.804C679.186 185.015 676.879 182.728 675.002 179.943C673.187 177.114 671.899 173.856 671.139 170.169C670.44 166.439 670.44 162.388 671.14 158.017C671.882 153.382 673.282 149.367 675.338 145.969C677.394 142.571 679.885 139.837 682.809 137.767C685.741 135.644 688.994 134.22 692.567 133.496C696.148 132.719 699.861 132.638 703.705 133.254C705.759 133.583 707.906 134.17 710.148 135.015C712.397 135.807 714.279 136.702 715.794 137.701C716.489 138.082 716.769 138.694 716.634 139.537L715.012 149.162C714.827 150.32 714.339 150.836 713.549 150.71C713.233 150.659 712.903 150.525 712.56 150.308C711.117 149.537 709.499 148.846 707.707 148.235C705.975 147.58 704.293 147.121 702.661 146.86C698.606 146.211 695.222 147.1 692.511 149.529C689.852 151.966 688.156 155.475 687.423 160.057C686.689 164.638 686.858 168.473 687.93 171.562C689.063 174.606 691.025 176.351 693.816 176.798C696.081 177.161 698.02 176.688 699.634 175.38C701.3 174.08 702.426 171.938 703.012 168.953L696.219 167.866C695.429 167.739 695.097 167.281 695.223 166.491L696.767 156.854C696.893 156.064 697.351 155.732 698.141 155.859L716.784 158.844C717.574 158.97 718.015 159.419 718.108 160.19C718.202 161.285 718.201 162.473 718.104 163.754C718.06 165.043 717.915 166.451 717.671 167.979C717.063 171.77 715.976 175.188 714.408 178.232C712.902 181.231 710.993 183.707 708.682 185.66C706.424 187.621 703.798 189.01 700.804 189.827C697.863 190.652 694.681 190.791 691.258 190.243ZM738.713 152.714L737.334 161.324L749.894 163.335C750.684 163.461 751.016 163.92 750.89 164.71L749.233 175.058C749.106 175.848 748.648 176.179 747.858 176.053L735.298 174.042L733.806 183.363L749.209 185.83C749.999 185.956 750.331 186.414 750.205 187.204L748.548 197.552C748.421 198.342 747.963 198.674 747.173 198.548L716.602 193.653C715.812 193.526 715.481 193.068 715.607 192.278L724.208 138.562C724.334 137.772 724.793 137.441 725.583 137.567L756.153 142.462C756.943 142.588 757.275 143.047 757.148 143.837L755.491 154.185C755.365 154.975 754.907 155.306 754.117 155.18L738.713 152.714ZM823.699 209.585C823.682 209.691 823.67 209.77 823.661 209.822C823.714 209.831 823.732 209.888 823.715 209.993C823.631 210.52 823.246 210.728 822.561 210.618L807.869 208.266C807.079 208.139 806.721 207.677 806.794 206.879L808.694 178.826L797.34 205.203C796.951 205.951 796.387 206.265 795.65 206.147L787.198 204.794C786.408 204.668 785.966 204.219 785.874 203.448L782.493 174.469L774.723 201.743C774.491 202.517 773.98 202.84 773.19 202.713L760.156 200.626C759.419 200.508 759.14 200.059 759.319 199.277L776.609 146.953C776.841 146.179 777.352 145.856 778.142 145.983L790.781 148.006C791.571 148.133 792.012 148.582 792.105 149.353L795.627 182L808.523 152.062C808.913 151.315 809.476 151 810.213 151.118L821.825 152.977C822.615 153.104 823.026 153.574 823.058 154.39L823.699 209.585ZM848.518 170.295L847.139 178.905L859.699 180.916C860.489 181.043 860.821 181.501 860.694 182.291L859.037 192.639C858.911 193.429 858.452 193.761 857.663 193.634L845.103 191.623L843.61 200.945L859.014 203.411C859.804 203.538 860.136 203.996 860.009 204.786L858.352 215.134C858.226 215.924 857.767 216.256 856.977 216.129L826.407 211.234C825.617 211.108 825.285 210.649 825.412 209.86L834.012 156.144C834.139 155.354 834.597 155.022 835.387 155.149L865.958 160.043C866.748 160.17 867.079 160.628 866.953 161.418L865.296 171.766C865.17 172.556 864.711 172.888 863.921 172.761L848.518 170.295ZM905.925 222.022C906.137 222.38 906.214 222.743 906.155 223.112C906.062 223.691 905.542 223.905 904.594 223.753L889.664 221.363C888.822 221.228 888.297 220.793 888.091 220.058L880.434 199.063L877.373 218.179C877.246 218.969 876.788 219.301 875.998 219.175L862.648 217.037C861.858 216.911 861.527 216.452 861.653 215.662L870.254 161.947C870.38 161.157 870.839 160.825 871.629 160.951L888.217 163.608C891.64 164.156 894.684 165.048 897.349 166.285C900.075 167.478 902.294 168.967 904.006 170.754C905.771 172.549 907.007 174.61 907.715 176.938C908.475 179.274 908.636 181.811 908.198 184.55C907.624 188.131 906.205 191.09 903.94 193.428C901.676 195.766 898.735 197.267 895.118 197.93L905.925 222.022ZM884.304 174.891L882.002 189.268L882.318 189.318C885.162 189.774 887.343 189.475 888.862 188.422C890.442 187.324 891.414 185.643 891.776 183.379C892.13 181.167 891.698 179.315 890.478 177.824C889.259 176.332 887.306 175.371 884.62 174.941L884.304 174.891ZM927.762 228.111C924.338 227.563 921.227 226.416 918.428 224.672C915.69 222.883 913.382 220.596 911.505 217.811C909.69 214.982 908.402 211.724 907.642 208.037C906.943 204.307 906.944 200.256 907.644 195.885C908.386 191.251 909.785 187.235 911.841 183.837C913.897 180.439 916.388 177.705 919.312 175.635C922.244 173.512 925.497 172.088 929.07 171.364C932.651 170.587 936.364 170.506 940.208 171.122C942.262 171.451 944.41 172.038 946.651 172.883C948.901 173.675 950.783 174.571 952.297 175.569C952.992 175.951 953.272 176.563 953.137 177.405L951.515 187.03C951.33 188.188 950.842 188.704 950.052 188.578C949.736 188.527 949.407 188.393 949.063 188.176C947.62 187.405 946.003 186.714 944.21 186.103C942.478 185.448 940.796 184.989 939.164 184.728C935.109 184.079 931.726 184.968 929.014 187.397C926.356 189.834 924.659 193.343 923.926 197.925C923.192 202.506 923.361 206.341 924.433 209.43C925.566 212.474 927.528 214.219 930.319 214.666C932.584 215.029 934.523 214.556 936.137 213.248C937.803 211.949 938.929 209.806 939.515 206.821L932.722 205.734C931.932 205.607 931.6 205.149 931.727 204.359L933.27 194.722C933.396 193.932 933.854 193.6 934.644 193.727L953.287 196.712C954.077 196.838 954.518 197.287 954.611 198.058C954.705 199.153 954.704 200.341 954.607 201.622C954.563 202.911 954.418 204.319 954.174 205.847C953.567 209.638 952.479 213.056 950.912 216.1C949.405 219.099 947.496 221.575 945.185 223.528C942.927 225.489 940.301 226.878 937.307 227.695C934.367 228.52 931.185 228.659 927.762 228.111ZM975.216 190.582L973.838 199.192L986.398 201.203C987.188 201.329 987.519 201.788 987.393 202.578L985.736 212.926C985.609 213.716 985.151 214.047 984.361 213.921L971.801 211.91L970.309 221.231L985.713 223.698C986.502 223.824 986.834 224.282 986.708 225.072L985.051 235.42C984.924 236.21 984.466 236.542 983.676 236.416L953.106 231.521C952.316 231.394 951.984 230.936 952.11 230.146L960.711 176.43C960.838 175.64 961.296 175.309 962.086 175.435L992.656 180.33C993.446 180.456 993.778 180.915 993.652 181.705L991.995 192.053C991.868 192.843 991.41 193.174 990.62 193.048L975.216 190.582Z" fill="#EAF1FC"/>
<rect width="906" height="104" transform="translate(196.811 315.071) rotate(-15)" fill="#211680"/>
<path d="M257.039 350.366C261.315 350.048 264.814 350.74 267.533 352.44C270.253 354.141 272.061 356.666 272.958 360.014C273.662 362.642 273.724 365.137 273.142 367.502C272.547 369.814 271.38 371.949 269.641 373.906C267.939 375.798 265.716 377.498 262.973 379.006C260.23 380.514 257.081 381.744 253.527 382.696L238.458 386.734C237.685 386.941 237.196 386.658 236.989 385.885L222.909 333.339C222.702 332.566 222.985 332.076 223.757 331.869L239.135 327.749C242.329 326.893 245.29 326.403 248.017 326.28C250.745 326.156 253.169 326.446 255.29 327.147C257.396 327.798 259.174 328.867 260.622 330.357C262.07 331.846 263.112 333.775 263.747 336.145C264.506 338.978 264.318 341.679 263.184 344.247C262.036 346.763 259.974 348.751 256.997 350.211L257.039 350.366ZM249.561 341.934C248.595 338.328 245.82 337.139 241.235 338.367L240.694 338.512L243.696 349.717L244.082 349.613C248.77 348.357 250.597 345.797 249.561 341.934ZM250.304 372.213C255.816 370.736 258.006 367.886 256.874 363.661C256.35 361.704 255.254 360.396 253.587 359.739C251.971 359.067 249.798 359.097 247.068 359.829L246.45 359.994L249.763 372.358L250.304 372.213ZM321.79 362.418C322.13 362.658 322.349 362.958 322.445 363.319C322.597 363.885 322.209 364.293 321.282 364.541L306.677 368.455C305.853 368.676 305.197 368.493 304.708 367.906L289.147 351.867L294.157 370.567C294.365 371.34 294.082 371.83 293.309 372.037L280.25 375.536C279.477 375.743 278.987 375.46 278.78 374.687L264.7 322.141C264.493 321.368 264.776 320.878 265.549 320.671L281.776 316.323C285.125 315.426 288.268 314.998 291.205 315.039C294.18 315.015 296.814 315.469 299.107 316.4C301.451 317.318 303.421 318.695 305.017 320.531C306.665 322.354 307.848 324.604 308.566 327.283C309.504 330.786 309.417 334.067 308.304 337.126C307.191 340.185 305.119 342.756 302.088 344.838L321.79 362.418ZM282.811 328.221L286.579 342.285L286.888 342.202C289.67 341.457 291.539 340.293 292.496 338.712C293.49 337.065 293.691 335.134 293.097 332.919C292.517 330.755 291.366 329.241 289.644 328.378C287.922 327.514 285.747 327.434 283.12 328.138L282.811 328.221ZM370.35 350.234C370.43 350.323 370.497 350.471 370.552 350.677C370.662 351.089 370.434 351.371 369.868 351.523L355.108 355.478C354.336 355.685 353.743 355.429 353.329 354.712C352.81 353.802 352.29 352.892 351.77 351.983C351.288 351.007 350.78 350.039 350.246 349.078L337.11 352.598C337.128 353.697 337.147 354.797 337.165 355.896C337.221 356.93 337.252 357.971 337.256 359.019C337.206 359.86 336.82 360.378 336.099 360.571L321.958 364.36C321.133 364.581 320.779 364.29 320.895 363.486L324.681 305.904C324.745 305.113 325.164 304.615 325.936 304.408L336.677 301.53C337.399 301.336 338.01 301.559 338.513 302.197L370.35 350.234ZM344.797 338.943C343.317 336.303 341.869 333.681 340.454 331.079C339.091 328.463 337.715 325.905 336.327 323.406C336.324 326.278 336.36 329.194 336.436 332.156C336.563 335.103 336.671 338.083 336.761 341.096L344.797 338.943ZM401.91 284.134C402.682 283.927 403.172 284.209 403.379 284.982L417.459 337.528C417.666 338.301 417.383 338.791 416.611 338.998L406.642 341.669C405.869 341.876 405.194 341.726 404.616 341.218L379.308 319.095L386.472 345.831C386.679 346.604 386.396 347.094 385.624 347.301L373.492 350.552C372.719 350.759 372.229 350.476 372.022 349.703L357.942 297.157C357.735 296.384 358.018 295.894 358.791 295.687L368.759 293.016C369.532 292.809 370.214 292.985 370.806 293.545L396.44 316.575L389.006 288.833C388.799 288.061 389.082 287.571 389.855 287.364L401.91 284.134ZM445.017 332.132C441.823 332.988 438.611 333.158 435.381 332.643C432.151 332.129 429.104 330.957 426.24 329.13C423.376 327.302 420.812 324.842 418.548 321.749C416.335 318.643 414.642 314.9 413.469 310.521C412.282 306.091 411.888 301.944 412.289 298.082C412.741 294.207 413.802 290.748 415.472 287.705C417.141 284.663 419.349 282.083 422.095 279.967C424.892 277.837 428.042 276.303 431.545 275.364C433.503 274.84 435.406 274.523 437.254 274.415C439.154 274.292 440.791 274.323 442.165 274.507C442.956 274.571 443.461 275.015 443.682 275.839L446.56 286.581C446.808 287.508 446.675 288.041 446.16 288.179C445.902 288.248 445.482 288.222 444.897 288.103C443.729 287.864 442.466 287.788 441.109 287.875C439.79 287.898 438.461 288.088 437.121 288.447C435.318 288.93 433.785 289.7 432.522 290.756C431.259 291.812 430.285 293.122 429.6 294.686C428.953 296.185 428.587 297.912 428.503 299.867C428.42 301.822 428.675 303.907 429.268 306.122C429.876 308.389 430.704 310.347 431.754 311.999C432.842 313.585 434.066 314.858 435.428 315.818C436.79 316.778 438.256 317.407 439.826 317.704C441.434 317.936 443.062 317.831 444.711 317.389C446.205 316.989 447.599 316.422 448.893 315.689C450.239 314.941 451.377 314.14 452.307 313.283C452.753 312.887 453.105 312.655 453.363 312.586C453.878 312.448 454.26 312.843 454.508 313.77L457.303 324.202C457.524 325.026 457.341 325.683 456.754 326.171C455.364 327.372 453.656 328.52 451.631 329.615C449.591 330.658 447.387 331.497 445.017 332.132ZM489.774 260.59C490.547 260.383 491.037 260.666 491.244 261.439L505.323 313.985C505.53 314.758 505.248 315.248 504.475 315.455L491.261 318.996C490.488 319.203 489.998 318.92 489.791 318.147L484.387 297.979L470.864 301.602L476.268 321.771C476.475 322.543 476.192 323.033 475.42 323.24L462.206 326.781C461.433 326.988 460.943 326.705 460.736 325.932L446.656 273.386C446.449 272.613 446.732 272.123 447.505 271.916L460.719 268.376C461.492 268.169 461.981 268.451 462.189 269.224L467.613 289.47L481.136 285.847L475.711 265.601C475.504 264.828 475.787 264.338 476.56 264.131L489.774 260.59ZM540.598 274.386C544.875 274.068 548.373 274.76 551.093 276.461C553.812 278.161 555.621 280.686 556.518 284.035C557.222 286.662 557.283 289.158 556.702 291.522C556.107 293.835 554.94 295.97 553.2 297.927C551.499 299.818 549.276 301.518 546.533 303.026C543.79 304.534 540.641 305.764 537.086 306.717L522.018 310.754C521.245 310.961 520.755 310.679 520.548 309.906L506.468 257.359C506.261 256.587 506.544 256.097 507.317 255.89L522.694 251.769C525.888 250.914 528.849 250.424 531.577 250.3C534.305 250.177 536.729 250.466 538.849 251.168C540.956 251.818 542.733 252.888 544.181 254.377C545.63 255.866 546.671 257.796 547.306 260.165C548.065 262.999 547.878 265.699 546.744 268.267C545.596 270.783 543.534 272.771 540.557 274.232L540.598 274.386ZM533.121 265.954C532.155 262.348 529.379 261.159 524.794 262.388L524.253 262.533L527.256 273.737L527.642 273.634C532.33 272.378 534.156 269.818 533.121 265.954ZM533.863 296.234C539.375 294.757 541.566 291.906 540.434 287.682C539.909 285.724 538.813 284.417 537.146 283.759C535.531 283.088 533.358 283.118 530.628 283.849L530.009 284.015L533.322 296.379L533.863 296.234ZM605.349 286.438C605.69 286.678 605.908 286.978 606.005 287.339C606.157 287.906 605.769 288.313 604.842 288.562L590.237 292.475C589.413 292.696 588.756 292.513 588.268 291.926L572.706 275.887L577.717 294.587C577.924 295.36 577.641 295.85 576.869 296.057L563.809 299.556C563.036 299.763 562.547 299.481 562.34 298.708L548.26 246.161C548.053 245.389 548.336 244.899 549.108 244.692L565.336 240.344C568.684 239.446 571.827 239.018 574.765 239.06C577.74 239.035 580.374 239.489 582.666 240.421C585.01 241.339 586.981 242.716 588.577 244.552C590.225 246.374 591.407 248.625 592.125 251.303C593.064 254.807 592.977 258.088 591.864 261.147C590.751 264.205 588.679 266.776 585.648 268.858L605.349 286.438ZM566.37 252.241L570.139 266.305L570.448 266.222C573.23 265.477 575.099 264.313 576.056 262.732C577.05 261.085 577.25 259.154 576.657 256.939C576.077 254.775 574.926 253.262 573.204 252.398C571.482 251.534 569.307 251.454 566.68 252.158L566.37 252.241ZM653.91 274.254C653.989 274.344 654.056 274.491 654.112 274.697C654.222 275.109 653.994 275.391 653.427 275.543L638.668 279.498C637.895 279.705 637.302 279.45 636.889 278.732C636.369 277.823 635.849 276.913 635.33 276.003C634.847 275.028 634.339 274.06 633.806 273.098L620.669 276.618C620.688 277.718 620.706 278.817 620.725 279.916C620.781 280.95 620.811 281.991 620.816 283.039C620.766 283.881 620.38 284.398 619.658 284.592L605.517 288.381C604.693 288.602 604.339 288.31 604.455 287.506L608.24 229.924C608.305 229.134 608.723 228.635 609.496 228.428L620.237 225.55C620.958 225.357 621.57 225.579 622.072 226.218L653.91 274.254ZM628.357 262.963C626.877 260.323 625.429 257.702 624.014 255.099C622.65 252.483 621.275 249.925 619.887 247.426C619.884 250.298 619.92 253.215 619.995 256.176C620.123 259.124 620.231 262.104 620.321 265.117L628.357 262.963ZM685.469 208.154C686.242 207.947 686.732 208.23 686.939 209.003L701.019 261.549C701.226 262.322 700.943 262.812 700.17 263.019L690.202 265.69C689.429 265.897 688.754 265.746 688.176 265.239L662.868 243.115L670.032 269.852C670.239 270.625 669.956 271.114 669.183 271.321L657.051 274.572C656.278 274.779 655.789 274.496 655.582 273.724L641.502 221.177C641.295 220.405 641.578 219.915 642.35 219.708L652.319 217.037C653.091 216.83 653.774 217.006 654.365 217.565L679.999 240.595L672.566 212.854C672.359 212.081 672.642 211.591 673.414 211.384L685.469 208.154ZM728.577 256.152C725.383 257.008 722.171 257.179 718.941 256.664C715.711 256.149 712.664 254.978 709.8 253.15C706.936 251.322 704.372 248.862 702.107 245.769C699.895 242.663 698.202 238.92 697.028 234.541C695.841 230.111 695.448 225.965 695.849 222.103C696.301 218.227 697.362 214.768 699.031 211.726C700.701 208.683 702.908 206.104 705.654 203.988C708.452 201.858 711.602 200.324 715.105 199.385C717.063 198.86 718.966 198.544 720.814 198.435C722.713 198.312 724.35 198.343 725.725 198.527C726.515 198.591 727.021 199.036 727.242 199.86L730.12 210.601C730.368 211.528 730.235 212.061 729.72 212.199C729.462 212.268 729.041 212.243 728.457 212.123C727.289 211.884 726.026 211.808 724.669 211.896C723.35 211.918 722.021 212.109 720.681 212.467C718.878 212.951 717.345 213.72 716.082 214.776C714.819 215.833 713.845 217.143 713.16 218.707C712.512 220.205 712.147 221.932 712.063 223.887C711.98 225.842 712.235 227.927 712.828 230.142C713.435 232.409 714.264 234.368 715.314 236.019C716.401 237.605 717.626 238.878 718.988 239.838C720.349 240.799 721.815 241.427 723.385 241.724C724.994 241.956 726.622 241.851 728.27 241.409C729.764 241.009 731.159 240.442 732.453 239.709C733.799 238.962 734.937 238.16 735.867 237.303C736.313 236.908 736.665 236.676 736.922 236.607C737.437 236.468 737.819 236.863 738.068 237.79L740.863 248.222C741.084 249.047 740.901 249.703 740.314 250.192C738.924 251.392 737.216 252.54 735.19 253.635C733.151 254.678 730.946 255.518 728.577 256.152ZM773.333 184.611C774.106 184.404 774.596 184.687 774.803 185.459L788.883 238.006C789.09 238.778 788.807 239.268 788.034 239.475L774.821 243.016C774.048 243.223 773.558 242.94 773.351 242.168L767.947 221.999L754.424 225.622L759.828 245.791C760.035 246.564 759.752 247.054 758.979 247.261L745.765 250.801C744.993 251.008 744.503 250.726 744.296 249.953L730.216 197.406C730.009 196.634 730.292 196.144 731.065 195.937L744.278 192.396C745.051 192.189 745.541 192.472 745.748 193.245L751.173 213.49L764.696 209.867L759.271 189.621C759.064 188.848 759.347 188.359 760.12 188.151L773.333 184.611ZM824.158 198.407C828.435 198.089 831.933 198.78 834.652 200.481C837.372 202.182 839.18 204.707 840.077 208.055C840.781 210.682 840.843 213.178 840.262 215.543C839.667 217.855 838.499 219.99 836.76 221.947C835.058 223.839 832.836 225.538 830.093 227.046C827.349 228.555 824.2 229.785 820.646 230.737L805.577 234.775C804.805 234.982 804.315 234.699 804.108 233.926L790.028 181.38C789.821 180.607 790.104 180.117 790.876 179.91L806.254 175.79C809.448 174.934 812.409 174.444 815.136 174.321C817.864 174.197 820.288 174.486 822.409 175.188C824.516 175.838 826.293 176.908 827.741 178.397C829.189 179.887 830.231 181.816 830.866 184.186C831.625 187.019 831.437 189.72 830.303 192.288C829.156 194.804 827.093 196.792 824.116 198.252L824.158 198.407ZM816.681 189.975C815.714 186.368 812.939 185.18 808.354 186.408L807.813 186.553L810.815 197.758L811.202 197.654C815.89 196.398 817.716 193.838 816.681 189.975ZM817.423 220.254C822.935 218.777 825.125 215.927 823.993 211.702C823.469 209.745 822.373 208.437 820.706 207.779C819.09 207.108 816.918 207.138 814.187 207.87L813.569 208.035L816.882 220.399L817.423 220.254ZM888.909 210.458C889.249 210.699 889.468 210.999 889.565 211.359C889.716 211.926 889.329 212.334 888.401 212.582L873.797 216.496C872.972 216.716 872.316 216.533 871.827 215.946L856.266 199.908L861.277 218.608C861.484 219.381 861.201 219.871 860.428 220.078L847.369 223.577C846.596 223.784 846.106 223.501 845.899 222.728L831.819 170.182C831.612 169.409 831.895 168.919 832.668 168.712L848.895 164.364C852.244 163.467 855.387 163.039 858.324 163.08C861.299 163.056 863.933 163.51 866.226 164.441C868.57 165.359 870.54 166.736 872.137 168.572C873.784 170.395 874.967 172.645 875.685 175.324C876.624 178.827 876.536 182.108 875.424 185.167C874.311 188.226 872.239 190.796 869.208 192.879L888.909 210.458ZM849.93 176.262L853.698 190.326L854.008 190.243C856.789 189.497 858.659 188.334 859.615 186.752C860.61 185.106 860.81 183.175 860.216 180.959C859.637 178.796 858.486 177.282 856.763 176.418C855.041 175.555 852.866 175.475 850.239 176.179L849.93 176.262ZM937.47 198.275C937.549 198.364 937.616 198.512 937.671 198.718C937.782 199.13 937.553 199.412 936.987 199.564L922.227 203.519C921.455 203.726 920.862 203.47 920.449 202.753C919.929 201.843 919.409 200.933 918.889 200.023C918.407 199.048 917.899 198.08 917.365 197.119L904.229 200.639C904.247 201.738 904.266 202.837 904.284 203.937C904.341 204.971 904.371 206.012 904.376 207.06C904.325 207.901 903.939 208.419 903.218 208.612L889.077 212.401C888.253 212.622 887.898 212.33 888.014 211.526L891.8 153.945C891.864 153.154 892.283 152.656 893.056 152.449L903.797 149.571C904.518 149.377 905.13 149.6 905.632 150.238L937.47 198.275ZM911.917 186.984C910.436 184.344 908.988 181.722 907.573 179.12C906.21 176.504 904.834 173.946 903.447 171.447C903.443 174.319 903.479 177.235 903.555 180.197C903.682 183.144 903.791 186.124 903.88 189.137L911.917 186.984ZM969.029 132.174C969.802 131.967 970.291 132.25 970.499 133.023L984.578 185.569C984.785 186.342 984.503 186.832 983.73 187.039L973.761 189.71C972.989 189.917 972.313 189.767 971.736 189.259L946.427 167.135L953.591 193.872C953.798 194.645 953.516 195.135 952.743 195.342L940.611 198.593C939.838 198.8 939.348 198.517 939.141 197.744L925.061 145.198C924.854 144.425 925.137 143.935 925.91 143.728L935.878 141.057C936.651 140.85 937.333 141.026 937.925 141.585L963.559 164.616L956.126 136.874C955.918 136.101 956.201 135.612 956.974 135.404L969.029 132.174ZM1012.14 180.173C1008.94 181.029 1005.73 181.199 1002.5 180.684C999.27 180.169 996.223 178.998 993.359 177.17C990.495 175.343 987.931 172.883 985.667 169.79C983.454 166.683 981.761 162.941 980.588 158.562C979.401 154.131 979.008 149.985 979.408 146.123C979.861 142.248 980.922 138.788 982.591 135.746C984.26 132.704 986.468 130.124 989.214 128.008C992.011 125.878 995.162 124.344 998.665 123.405C1000.62 122.881 1002.53 122.564 1004.37 122.455C1006.27 122.333 1007.91 122.364 1009.28 122.547C1010.07 122.612 1010.58 123.056 1010.8 123.88L1013.68 134.621C1013.93 135.549 1013.79 136.081 1013.28 136.219C1013.02 136.288 1012.6 136.263 1012.02 136.144C1010.85 135.905 1009.59 135.829 1008.23 135.916C1006.91 135.938 1005.58 136.129 1004.24 136.488C1002.44 136.971 1000.9 137.741 999.642 138.797C998.379 139.853 997.404 141.163 996.719 142.727C996.072 144.226 995.706 145.953 995.623 147.908C995.539 149.862 995.794 151.947 996.388 154.163C996.995 156.429 997.824 158.388 998.873 160.04C999.961 161.625 1001.19 162.899 1002.55 163.859C1003.91 164.819 1005.37 165.448 1006.95 165.745C1008.55 165.977 1010.18 165.872 1011.83 165.43C1013.32 165.03 1014.72 164.463 1016.01 163.729C1017.36 162.982 1018.5 162.18 1019.43 161.324C1019.87 160.928 1020.22 160.696 1020.48 160.627C1021 160.489 1021.38 160.884 1021.63 161.811L1024.42 172.243C1024.64 173.067 1024.46 173.723 1023.87 174.212C1022.48 175.413 1020.78 176.56 1018.75 177.655C1016.71 178.699 1014.51 179.538 1012.14 180.173ZM1056.89 108.631C1057.67 108.424 1058.16 108.707 1058.36 109.48L1072.44 162.026C1072.65 162.799 1072.37 163.289 1071.59 163.496L1058.38 167.037C1057.61 167.244 1057.12 166.961 1056.91 166.188L1051.51 146.019L1037.98 149.643L1043.39 169.811C1043.59 170.584 1043.31 171.074 1042.54 171.281L1029.33 174.822C1028.55 175.029 1028.06 174.746 1027.86 173.973L1013.78 121.427C1013.57 120.654 1013.85 120.164 1014.62 119.957L1027.84 116.417C1028.61 116.21 1029.1 116.492 1029.31 117.265L1034.73 137.511L1048.26 133.887L1042.83 113.642C1042.62 112.869 1042.91 112.379 1043.68 112.172L1056.89 108.631Z" fill="#4E3BFB"/>
</g>
<defs>
<clipPath id="clip0">
<rect width="1280" height="500" fill="white"/>
</clipPath>
</defs>
</svg>
