<svg width="360" height="240" viewBox="0 0 360 240" fill="none" xmlns="http://www.w3.org/2000/svg">
<g clip-path="url(#clip0)">
<rect width="748" height="52" transform="translate(-257.542 -30) rotate(15)" fill="#E85593"/>
<path d="M-242.114 -13.857C-240.44 -13.4084 -238.937 -12.7847 -237.605 -11.9861C-236.272 -11.1875 -235.182 -10.2603 -234.333 -9.20458C-233.484 -8.14886 -232.915 -6.97496 -232.626 -5.68286C-232.331 -4.41653 -232.376 -3.06213 -232.763 -1.61968C-233.135 -0.228751 -233.77 0.954021 -234.666 1.92863C-235.529 2.88439 -236.609 3.61657 -237.905 4.1252C-239.168 4.61496 -240.592 4.88208 -242.178 4.92657C-243.756 4.94529 -245.434 4.71654 -247.212 4.24031L-247.443 4.17819L-249.773 12.8715C-249.876 13.2579 -250.121 13.3993 -250.508 13.2958L-257.424 11.4426C-257.81 11.3391 -257.951 11.0942 -257.848 10.7078L-250.808 -15.5654C-250.704 -15.9518 -250.46 -16.0932 -250.073 -15.9896L-242.114 -13.857ZM-245.834 -1.51938C-244.546 -1.17429 -243.484 -1.22112 -242.649 -1.65986C-241.788 -2.0917 -241.223 -2.80991 -240.954 -3.81447C-240.678 -4.84479 -240.808 -5.74934 -241.345 -6.52813C-241.849 -7.32577 -242.719 -7.89023 -243.955 -8.22152L-244.11 -8.26293L-245.911 -1.54009L-245.834 -1.51938ZM-226.145 20.1551C-227.767 19.7203 -229.186 19.0916 -230.402 18.2691C-231.61 17.4208 -232.566 16.4053 -233.271 15.2226C-233.975 14.04 -234.415 12.6936 -234.59 11.1835C-234.733 9.65452 -234.559 7.97562 -234.069 6.1468L-229.752 -9.96484C-229.648 -10.3512 -229.403 -10.4926 -229.017 -10.3891L-222.41 -8.61878C-222.024 -8.51525 -221.882 -8.2703 -221.986 -7.88393L-226.458 8.80726C-226.81 10.1209 -226.789 11.1756 -226.395 11.9714C-225.994 12.7415 -225.291 13.2611 -224.287 13.5302C-223.282 13.7994 -222.414 13.7008 -221.681 13.2345C-220.942 12.7424 -220.397 11.8395 -220.045 10.5258L-215.572 -6.16538C-215.469 -6.55175 -215.224 -6.69317 -214.837 -6.58964L-208.385 -4.86073C-207.999 -4.7572 -207.857 -4.51225 -207.961 -4.12588L-212.278 11.9858C-212.768 13.8146 -213.47 15.352 -214.383 16.598C-215.264 17.8251 -216.305 18.7747 -217.507 19.4466C-218.708 20.1185 -220.044 20.5197 -221.515 20.6502C-222.979 20.755 -224.522 20.5899 -226.145 20.1551ZM-194.932 20.9403C-194.546 21.0438 -194.404 21.2887 -194.508 21.6751L-196.009 27.2775C-196.113 27.6638 -196.357 27.8053 -196.744 27.7017L-212.199 23.5606C-212.585 23.4571 -212.726 23.2122 -212.623 22.8258L-205.583 -3.4474C-205.48 -3.83377 -205.235 -3.97519 -204.848 -3.87166L-197.932 -2.01852C-197.546 -1.91499 -197.404 -1.67004 -197.508 -1.28367L-202.891 18.8076L-194.932 20.9403ZM-177.244 25.6799C-176.857 25.7834 -176.716 26.0284 -176.819 26.4147L-178.321 32.0171C-178.424 32.4035 -178.669 32.5449 -179.055 32.4414L-194.51 28.3003C-194.897 28.1967 -195.038 27.9518 -194.934 27.5654L-187.895 1.29223C-187.791 0.905857 -187.546 0.764436 -187.16 0.867963L-180.244 2.72111C-179.857 2.82464 -179.716 3.06958 -179.819 3.45595L-185.203 23.5472L-177.244 25.6799ZM-150.355 39.1377C-150.268 39.3267 -150.248 39.5114 -150.297 39.6917C-150.373 39.9751 -150.642 40.0546 -151.106 39.9304L-158.408 37.9737C-158.821 37.8633 -159.059 37.6199 -159.124 37.2437L-161.852 26.4082L-164.358 35.7584C-164.461 36.1448 -164.706 36.2862 -165.093 36.1827L-171.622 34.4331C-172.009 34.3295 -172.15 34.0846 -172.047 33.6982L-165.007 7.42503C-164.903 7.03866 -164.658 6.89723 -164.272 7.00076L-156.158 9.17484C-154.484 9.62346 -153.016 10.2239 -151.754 10.976C-150.46 11.7093 -149.433 12.5643 -148.673 13.5409C-147.887 14.5244 -147.379 15.6132 -147.146 16.8073C-146.888 18.0083 -146.939 19.2785 -147.298 20.6179C-147.767 22.3695 -148.625 23.7684 -149.872 24.8148C-151.118 25.8611 -152.658 26.4562 -154.491 26.6L-150.355 39.1377ZM-158.684 14.5853L-160.569 21.6173L-160.414 21.6587C-159.023 22.0314 -157.923 21.9949 -157.113 21.5492C-156.271 21.0847 -155.702 20.2987 -155.405 19.1911C-155.115 18.1093 -155.235 17.1661 -155.765 16.3615C-156.294 15.557 -157.216 14.9787 -158.53 14.6267L-158.684 14.5853ZM-135.889 21.2731L-137.017 25.4845L-130.874 27.1306C-130.488 27.2342 -130.346 27.4791 -130.45 27.8655L-131.806 32.9269C-131.91 33.3133 -132.155 33.4547 -132.541 33.3512L-138.684 31.7051L-139.906 36.2643L-132.372 38.2831C-131.985 38.3866 -131.844 38.6315 -131.947 39.0179L-133.304 44.0794C-133.407 44.4657 -133.652 44.6072 -134.038 44.5036L-148.991 40.4971C-149.377 40.3936 -149.519 40.1486 -149.415 39.7623L-142.375 13.4891C-142.272 13.1027 -142.027 12.9613 -141.64 13.0648L-126.688 17.0713C-126.302 17.1749 -126.16 17.4198 -126.264 17.8062L-127.62 22.8676C-127.723 23.254 -127.968 23.3954 -128.355 23.2919L-135.889 21.2731ZM-108.591 52.2747C-108.529 52.4568 -108.512 52.5994 -108.54 52.7025C-108.581 52.857 -108.706 52.9616 -108.914 53.0164L-114.038 54.8319C-114.188 54.8747 -114.314 54.8822 -114.417 54.8546C-114.572 54.8132 -114.702 54.6817 -114.808 54.4599L-116.935 48.7965C-118.198 48.8723 -119.46 48.7411 -120.722 48.4029C-122.345 47.9681 -123.808 47.2449 -125.11 46.2333C-126.406 45.196 -127.445 43.9236 -128.229 42.4162C-128.986 40.9157 -129.468 39.2128 -129.676 37.3076C-129.857 35.4092 -129.651 33.3525 -129.058 31.1373C-128.464 28.9221 -127.611 27.025 -126.497 25.446C-125.358 23.8739 -124.086 22.6275 -122.68 21.7067C-121.248 20.7929 -119.715 20.2236 -118.081 19.9988C-116.44 19.7482 -114.808 19.8404 -113.185 20.2752C-111.563 20.71 -110.116 21.4426 -108.847 22.4731C-107.544 23.4847 -106.501 24.7442 -105.718 26.2516C-104.935 27.759 -104.456 29.4748 -104.281 31.3988C-104.081 33.3298 -104.277 35.4029 -104.871 37.6181C-105.43 39.7045 -106.227 41.4926 -107.261 42.9824C-108.269 44.479 -109.421 45.6887 -110.718 46.6113L-108.591 52.2747ZM-121.214 33.2389C-121.456 34.1404 -121.617 35.0498 -121.697 35.967C-121.77 36.8584 -121.729 37.6838 -121.574 38.4433C-121.392 39.2096 -121.087 39.8713 -120.656 40.4284C-120.226 40.9854 -119.637 41.364 -118.89 41.5642C-118.143 41.7643 -117.444 41.7308 -116.792 41.4636C-116.141 41.1964 -115.558 40.7729 -115.044 40.1929C-114.504 39.6198 -114.043 38.9289 -113.66 38.1203C-113.245 37.2929 -112.917 36.4284 -112.676 35.5269C-112.427 34.5996 -112.279 33.6868 -112.232 32.7884C-112.152 31.8712 -112.202 31.0295 -112.383 30.2632C-112.532 29.478 -112.821 28.8068 -113.252 28.2498C-113.682 27.6927 -114.271 27.3141 -115.018 27.1139C-115.765 26.9138 -116.464 26.9473 -117.115 27.2145C-117.767 27.4817 -118.366 27.9147 -118.913 28.5135C-119.427 29.0935 -119.879 29.8007 -120.268 30.6351C-120.65 31.4437 -120.966 32.3116 -121.214 33.2389ZM-96.2125 54.9703C-97.8353 54.5355 -99.2543 53.9068 -100.469 53.0843C-101.678 52.236 -102.634 51.2205 -103.339 50.0378C-104.043 48.8552 -104.483 47.5088 -104.658 45.9987C-104.801 44.4697 -104.627 42.7908 -104.137 40.962L-99.8198 24.8504C-99.7163 24.464 -99.4714 24.3226 -99.085 24.4261L-92.4781 26.1964C-92.0917 26.3 -91.9503 26.5449 -92.0538 26.9313L-96.5262 43.6225C-96.8782 44.9361 -96.8571 45.9909 -96.463 46.7866C-96.0619 47.5567 -95.3592 48.0763 -94.3546 48.3455C-93.35 48.6146 -92.4816 48.516 -91.7493 48.0497C-91.01 47.5576 -90.4644 46.6547 -90.1124 45.341L-85.64 28.6498C-85.5365 28.2635 -85.2916 28.122 -84.9052 28.2256L-78.4528 29.9545C-78.0664 30.058 -77.925 30.303 -78.0285 30.6893L-82.3457 46.801C-82.8357 48.6298 -83.5375 50.1672 -84.4511 51.4132C-85.3321 52.6403 -86.3733 53.5899 -87.5748 54.2618C-88.7763 54.9337 -90.1124 55.3349 -91.5829 55.4654C-93.0466 55.5702 -94.5898 55.4051 -96.2125 54.9703ZM-69.1646 39.1518L-70.293 43.3633L-64.1498 45.0094C-63.7634 45.1129 -63.622 45.3578 -63.7255 45.7442L-65.0817 50.8057C-65.1852 51.192 -65.4302 51.3335 -65.8165 51.2299L-71.9598 49.5838L-73.1815 54.143L-65.6472 56.1618C-65.2609 56.2653 -65.1194 56.5103 -65.223 56.8966L-66.5792 61.9581C-66.6827 62.3445 -66.9277 62.4859 -67.314 62.3824L-82.2666 58.3758C-82.6529 58.2723 -82.7944 58.0274 -82.6908 57.641L-75.651 31.3678C-75.5474 30.9814 -75.3025 30.84 -74.9161 30.9435L-59.9636 34.9501C-59.5772 35.0536 -59.4358 35.2985 -59.5393 35.6849L-60.8955 40.7464C-60.999 41.1327 -61.244 41.2742 -61.6304 41.1706L-69.1646 39.1518ZM-57.8824 65.3237C-59.1703 64.9786 -60.4494 64.4978 -61.7198 63.8813C-62.9714 63.2975 -64.0373 62.6392 -64.9176 61.9064C-65.2042 61.6363 -65.2991 61.321 -65.2025 60.9604L-63.7221 55.4353C-63.6599 55.2035 -63.5516 55.1083 -63.3971 55.1497C-63.294 55.1773 -63.2108 55.2272 -63.1473 55.2994C-62.2808 56.0838 -61.3609 56.772 -60.3876 57.364C-59.3886 57.963 -58.3739 58.4005 -57.3436 58.6766C-56.3648 58.9389 -55.5438 58.9656 -54.8805 58.7569C-54.1845 58.5292 -53.7399 58.0548 -53.5466 57.3336C-53.381 56.7154 -53.4782 56.151 -53.8384 55.6404C-54.1727 55.1367 -54.7741 54.5476 -55.6425 53.8732C-56.5623 53.185 -57.3912 52.466 -58.1289 51.7162C-58.8666 50.9664 -59.4677 50.1703 -59.9323 49.3281C-60.3968 48.4858 -60.7049 47.5751 -60.8566 46.5958C-60.9825 45.6234 -60.8937 44.5705 -60.59 43.4371C-60.2242 42.072 -59.6293 40.9338 -58.8054 40.0227C-57.9815 39.1115 -57.0128 38.4324 -55.8991 37.9854C-54.7786 37.5127 -53.5647 37.2582 -52.2574 37.222C-50.9433 37.16 -49.6165 37.3084 -48.2771 37.6673C-47.2468 37.9434 -46.2371 38.2968 -45.2482 38.7274C-44.2524 39.1322 -43.3804 39.5868 -42.632 40.091C-42.3059 40.3164 -42.1912 40.6094 -42.2878 40.97L-43.613 45.9156C-43.6889 46.1989 -43.817 46.3164 -43.9973 46.2681C-44.0488 46.2543 -44.1192 46.2078 -44.2084 46.1287C-44.8795 45.6452 -45.6579 45.202 -46.5438 44.7989C-47.397 44.3771 -48.1585 44.0764 -48.8282 43.897C-49.7297 43.6554 -50.4864 43.6459 -51.0982 43.8685C-51.6842 44.098 -52.0566 44.5089 -52.2153 45.1013C-52.3258 45.5135 -52.3451 45.8948 -52.2734 46.2453C-52.169 46.577 -51.9933 46.9001 -51.7463 47.2147C-51.4994 47.5294 -51.2009 47.8578 -50.8509 48.2001C-50.4682 48.5235 -50.0503 48.8701 -49.5973 49.24C-48.7239 49.9985 -47.9604 50.7553 -47.3068 51.5101C-46.6463 52.2393 -46.1319 52.9983 -45.7636 53.7872C-45.3694 54.5829 -45.1411 55.4309 -45.0786 56.3311C-44.9835 57.2124 -45.0774 58.1811 -45.3604 59.2372C-45.7055 60.5251 -46.2677 61.6444 -47.047 62.5951C-47.7936 63.527 -48.7117 64.2748 -49.8015 64.8386C-50.8843 65.3767 -52.1155 65.6956 -53.4949 65.7953C-54.8486 65.9019 -56.3111 65.7447 -57.8824 65.3237ZM-20.6341 45.4884C-20.2477 45.5919 -20.1063 45.8368 -20.2098 46.2232L-21.5971 51.4006C-21.7006 51.7869 -21.9456 51.9284 -22.3319 51.8248L-28.1275 50.2719L-33.6248 70.7882C-33.7283 71.1746 -33.9733 71.316 -34.3597 71.2125L-40.928 69.4525C-41.3143 69.349 -41.4558 69.104 -41.3522 68.7176L-35.8549 48.2014L-41.6505 46.6485C-42.0368 46.5449 -42.1783 46.3 -42.0747 45.9136L-40.6875 40.7362C-40.5839 40.3499 -40.339 40.2085 -39.9526 40.312L-20.6341 45.4884ZM-5.48475 49.5476C-3.81048 49.9962 -2.30734 50.6199 -0.975317 51.4185C0.356703 52.2171 1.44722 53.1443 2.29625 54.2C3.14527 55.2557 3.71416 56.4296 4.00291 57.7217C4.29857 58.9881 4.25315 60.3425 3.86664 61.7849C3.49394 63.1758 2.85954 64.3586 1.96342 65.3332C1.09996 66.289 0.0203391 67.0212 -1.27545 67.5298C-2.53859 68.0196 -3.96293 68.2867 -5.54846 68.3312C-7.1271 68.3499 -8.80507 68.1211 -10.5824 67.6449L-10.8142 67.5828L-13.1436 76.2761C-13.2471 76.6625 -13.492 76.8039 -13.8784 76.7004L-20.7944 74.8472C-21.1808 74.7437 -21.3222 74.4988 -21.2187 74.1124L-14.1788 47.8392C-14.0753 47.4528 -13.8304 47.3114 -13.444 47.415L-5.48475 49.5476ZM-9.20471 61.8852C-7.91681 62.2303 -6.85519 62.1835 -6.01983 61.7447C-5.15872 61.3129 -4.59358 60.5947 -4.32441 59.5901C-4.04834 58.5598 -4.17866 57.6553 -4.71538 56.8765C-5.21945 56.0788 -6.08967 55.5144 -7.32606 55.1831L-7.48061 55.1417L-9.28199 61.8645L-9.20471 61.8852ZM10.4845 83.5597C8.86178 83.1249 7.44281 82.4962 6.22763 81.6737C5.01934 80.8254 4.06291 79.8099 3.35833 78.6272C2.65375 77.4446 2.2139 76.0982 2.03878 74.5881C1.89632 73.0591 2.0701 71.3802 2.56013 69.5514L6.87724 53.4398C6.98076 53.0534 7.22571 52.912 7.61208 53.0155L14.219 54.7858C14.6054 54.8893 14.7468 55.1343 14.6433 55.5207L10.1709 72.2119C9.81889 73.5255 9.83996 74.5802 10.2341 75.376C10.6351 76.1461 11.3379 76.6657 12.3425 76.9348C13.347 77.204 14.2155 77.1054 14.9478 76.6391C15.687 76.147 16.2326 75.2441 16.5846 73.9304L21.057 57.2392C21.1606 56.8529 21.4055 56.7114 21.7919 56.815L28.2443 58.5439C28.6306 58.6474 28.772 58.8923 28.6685 59.2787L24.3514 75.3904C23.8614 77.2192 23.1596 78.7566 22.2459 80.0026C21.365 81.2297 20.3238 82.1792 19.1222 82.8512C17.9207 83.5231 16.5847 83.9243 15.1141 84.0548C13.6505 84.1596 12.1073 83.9945 10.4845 83.5597ZM41.6971 84.3449C42.0834 84.4484 42.2248 84.6933 42.1213 85.0797L40.6202 90.6821C40.5166 91.0684 40.2717 91.2099 39.8853 91.1063L24.4305 86.9652C24.0441 86.8617 23.9027 86.6168 24.0062 86.2304L31.0461 59.9572C31.1496 59.5708 31.3946 59.4294 31.781 59.5329L38.697 61.3861C39.0834 61.4896 39.2248 61.7346 39.1213 62.1209L33.7378 82.2122L41.6971 84.3449ZM59.3856 89.0845C59.7719 89.188 59.9134 89.433 59.8098 89.8193L58.3087 95.4217C58.2052 95.8081 57.9602 95.9495 57.5738 95.846L42.119 91.7049C41.7327 91.6013 41.5912 91.3564 41.6948 90.97L48.7346 64.6968C48.8382 64.3105 49.0831 64.169 49.4695 64.2726L56.3855 66.1257C56.7719 66.2292 56.9133 66.4742 56.8098 66.8606L51.4263 86.9518L59.3856 89.0845ZM86.2739 102.542C86.3613 102.731 86.3809 102.916 86.3325 103.096C86.2566 103.38 85.9868 103.459 85.5232 103.335L78.2208 101.378C77.8087 101.268 77.5702 101.025 77.5054 100.648L74.7768 89.8128L72.2714 99.163C72.1679 99.5494 71.923 99.6908 71.5366 99.5873L65.0069 97.8377C64.6206 97.7341 64.4791 97.4892 64.5827 97.1028L71.6225 70.8296C71.7261 70.4433 71.971 70.3018 72.3574 70.4054L80.4712 72.5794C82.1454 73.0281 83.6134 73.6285 84.8751 74.3806C86.1694 75.1139 87.1964 75.9689 87.9562 76.9455C88.7418 77.929 89.2506 79.0178 89.4828 80.2119C89.7408 81.4129 89.6903 82.6831 89.3314 84.0225C88.8621 85.7741 88.0041 87.173 86.7575 88.2194C85.5108 89.2657 83.971 89.8608 82.138 90.0046L86.2739 102.542ZM77.9448 77.9899L76.0606 85.0219L76.2151 85.0633C77.606 85.436 78.7063 85.3995 79.5159 84.9538C80.3581 84.4893 80.9277 83.7033 81.2244 82.5957C81.5143 81.5139 81.3943 80.5707 80.8645 79.7661C80.3347 78.9616 79.413 78.3833 78.0993 78.0313L77.9448 77.9899ZM100.74 84.6777L99.6118 88.8891L105.755 90.5352C106.141 90.6388 106.283 90.8837 106.179 91.2701L104.823 96.3315C104.72 96.7179 104.475 96.8593 104.088 96.7558L97.945 95.1097L96.7234 99.6689L104.258 101.688C104.644 101.791 104.785 102.036 104.682 102.423L103.326 107.484C103.222 107.87 102.977 108.012 102.591 107.908L87.6383 103.902C87.2519 103.798 87.1105 103.553 87.214 103.167L94.2539 76.8937C94.3574 76.5073 94.6024 76.3659 94.9887 76.4694L109.941 80.4759C110.328 80.5795 110.469 80.8244 110.366 81.2108L109.009 86.2722C108.906 86.6586 108.661 86.8 108.274 86.6965L100.74 84.6777ZM128.038 115.679C128.1 115.861 128.117 116.004 128.089 116.107C128.048 116.262 127.923 116.366 127.715 116.421L122.591 118.237C122.441 118.279 122.315 118.287 122.212 118.259C122.057 118.218 121.927 118.086 121.821 117.865L119.694 112.201C118.431 112.277 117.169 112.146 115.907 111.808C114.284 111.373 112.821 110.65 111.519 109.638C110.223 108.601 109.184 107.328 108.401 105.821C107.643 104.32 107.161 102.617 106.953 100.712C106.772 98.8138 106.978 96.7571 107.572 94.5419C108.165 92.3267 109.019 90.4296 110.132 88.8506C111.271 87.2785 112.543 86.0321 113.95 85.1113C115.382 84.1975 116.915 83.6282 118.548 83.4034C120.189 83.1528 121.821 83.245 123.444 83.6798C125.066 84.1146 126.513 84.8472 127.783 85.8777C129.085 86.8893 130.128 88.1488 130.911 89.6562C131.695 91.1636 132.173 92.8793 132.348 94.8034C132.548 96.7344 132.352 98.8075 131.758 101.023C131.199 103.109 130.403 104.897 129.369 106.387C128.36 107.884 127.208 109.093 125.912 110.016L128.038 115.679ZM115.415 96.6435C115.173 97.545 115.012 98.4544 114.932 99.3716C114.859 100.263 114.9 101.088 115.056 101.848C115.237 102.614 115.543 103.276 115.973 103.833C116.404 104.39 116.992 104.769 117.739 104.969C118.486 105.169 119.185 105.135 119.837 104.868C120.488 104.601 121.071 104.177 121.585 103.597C122.125 103.024 122.587 102.334 122.969 101.525C123.384 100.697 123.712 99.833 123.954 98.9315C124.202 98.0042 124.35 97.0914 124.398 96.193C124.478 95.2758 124.427 94.4341 124.246 93.6678C124.097 92.8826 123.808 92.2114 123.377 91.6544C122.947 91.0973 122.358 90.7187 121.611 90.5185C120.864 90.3184 120.165 90.3519 119.514 90.6191C118.862 90.8863 118.263 91.3193 117.716 91.9181C117.202 92.4981 116.75 93.2053 116.361 94.0397C115.979 94.8483 115.663 95.7162 115.415 96.6435ZM140.417 118.375C138.794 117.94 137.375 117.311 136.16 116.489C134.951 115.641 133.995 114.625 133.29 113.442C132.586 112.26 132.146 110.913 131.971 109.403C131.828 107.874 132.002 106.195 132.492 104.367L136.809 88.255C136.913 87.8686 137.158 87.7272 137.544 87.8307L144.151 89.601C144.537 89.7046 144.679 89.9495 144.575 90.3359L140.103 107.027C139.751 108.341 139.772 109.395 140.166 110.191C140.567 110.961 141.27 111.481 142.275 111.75C143.279 112.019 144.148 111.921 144.88 111.454C145.619 110.962 146.165 110.059 146.517 108.746L150.989 92.0544C151.093 91.6681 151.338 91.5266 151.724 91.6302L158.176 93.3591C158.563 93.4626 158.704 93.7076 158.601 94.0939L154.284 110.206C153.794 112.034 153.092 113.572 152.178 114.818C151.297 116.045 150.256 116.994 149.054 117.666C147.853 118.338 146.517 118.74 145.046 118.87C143.583 118.975 142.039 118.81 140.417 118.375ZM167.465 102.556L166.336 106.768L172.479 108.414C172.866 108.517 173.007 108.762 172.904 109.149L171.547 114.21C171.444 114.597 171.199 114.738 170.813 114.635L164.669 112.988L163.448 117.548L170.982 119.566C171.368 119.67 171.51 119.915 171.406 120.301L170.05 125.363C169.946 125.749 169.702 125.89 169.315 125.787L154.363 121.78C153.976 121.677 153.835 121.432 153.938 121.046L160.978 94.7724C161.082 94.386 161.327 94.2446 161.713 94.3481L176.666 98.3547C177.052 98.4582 177.193 98.7031 177.09 99.0895L175.734 104.151C175.63 104.537 175.385 104.679 174.999 104.575L167.465 102.556ZM178.747 128.728C177.459 128.383 176.18 127.902 174.909 127.286C173.658 126.702 172.592 126.044 171.712 125.311C171.425 125.041 171.33 124.726 171.427 124.365L172.907 118.84C172.969 118.608 173.078 118.513 173.232 118.554C173.335 118.582 173.418 118.632 173.482 118.704C174.348 119.488 175.268 120.177 176.242 120.769C177.241 121.368 178.255 121.805 179.286 122.081C180.264 122.343 181.085 122.37 181.749 122.161C182.445 121.934 182.889 121.459 183.083 120.738C183.248 120.12 183.151 119.556 182.791 119.045C182.456 118.541 181.855 117.952 180.987 117.278C180.067 116.59 179.238 115.871 178.5 115.121C177.763 114.371 177.161 113.575 176.697 112.733C176.232 111.89 175.924 110.98 175.773 110C175.647 109.028 175.736 107.975 176.039 106.842C176.405 105.477 177 104.338 177.824 103.427C178.648 102.516 179.616 101.837 180.73 101.39C181.851 100.917 183.064 100.663 184.372 100.627C185.686 100.565 187.013 100.713 188.352 101.072C189.382 101.348 190.392 101.701 191.381 102.132C192.377 102.537 193.249 102.991 193.997 103.496C194.323 103.721 194.438 104.014 194.341 104.375L193.016 109.32C192.94 109.603 192.812 109.721 192.632 109.673C192.58 109.659 192.51 109.612 192.421 109.533C191.75 109.05 190.971 108.607 190.085 108.204C189.232 107.782 188.471 107.481 187.801 107.302C186.899 107.06 186.143 107.051 185.531 107.273C184.945 107.503 184.573 107.914 184.414 108.506C184.303 108.918 184.284 109.299 184.356 109.65C184.46 109.982 184.636 110.305 184.883 110.619C185.13 110.934 185.428 111.262 185.778 111.605C186.161 111.928 186.579 112.275 187.032 112.645C187.905 113.403 188.669 114.16 189.322 114.915C189.983 115.644 190.497 116.403 190.866 117.192C191.26 117.988 191.488 118.836 191.551 119.736C191.646 120.617 191.552 121.586 191.269 122.642C190.924 123.93 190.362 125.049 189.582 126C188.836 126.932 187.917 127.679 186.828 128.243C185.745 128.781 184.514 129.1 183.134 129.2C181.781 129.306 180.318 129.149 178.747 128.728ZM215.995 108.893C216.381 108.996 216.523 109.241 216.419 109.628L215.032 114.805C214.929 115.192 214.684 115.333 214.297 115.229L208.502 113.677L203.004 134.193C202.901 134.579 202.656 134.721 202.27 134.617L195.701 132.857C195.315 132.754 195.173 132.509 195.277 132.122L200.774 111.606L194.979 110.053C194.592 109.95 194.451 109.705 194.554 109.318L195.942 104.141C196.045 103.754 196.29 103.613 196.677 103.717L215.995 108.893ZM231.144 112.952C232.819 113.401 234.322 114.024 235.654 114.823C236.986 115.622 238.076 116.549 238.925 117.605C239.774 118.66 240.343 119.834 240.632 121.126C240.928 122.393 240.882 123.747 240.496 125.19C240.123 126.58 239.489 127.763 238.593 128.738C237.729 129.694 236.65 130.426 235.354 130.934C234.091 131.424 232.666 131.691 231.081 131.736C229.502 131.754 227.824 131.526 226.047 131.05L225.815 130.987L223.486 139.681C223.382 140.067 223.137 140.209 222.751 140.105L215.835 138.252C215.448 138.148 215.307 137.903 215.41 137.517L222.45 111.244C222.554 110.857 222.799 110.716 223.185 110.82L231.144 112.952ZM227.424 125.29C228.712 125.635 229.774 125.588 230.609 125.149C231.47 124.717 232.036 123.999 232.305 122.995C232.581 121.964 232.451 121.06 231.914 120.281C231.41 119.483 230.54 118.919 229.303 118.588L229.149 118.546L227.347 125.269L227.424 125.29ZM247.114 146.964C245.491 146.529 244.072 145.901 242.857 145.078C241.649 144.23 240.692 143.215 239.988 142.032C239.283 140.849 238.843 139.503 238.668 137.993C238.526 136.464 238.699 134.785 239.189 132.956L243.506 116.844C243.61 116.458 243.855 116.317 244.241 116.42L250.848 118.19C251.235 118.294 251.376 118.539 251.272 118.925L246.8 135.616C246.448 136.93 246.469 137.985 246.863 138.781C247.264 139.551 247.967 140.07 248.972 140.339C249.976 140.609 250.845 140.51 251.577 140.044C252.316 139.552 252.862 138.649 253.214 137.335L257.686 120.644C257.79 120.257 258.035 120.116 258.421 120.22L264.873 121.948C265.26 122.052 265.401 122.297 265.298 122.683L260.981 138.795C260.491 140.624 259.789 142.161 258.875 143.407C257.994 144.634 256.953 145.584 255.751 146.256C254.55 146.928 253.214 147.329 251.743 147.459C250.28 147.564 248.736 147.399 247.114 146.964ZM278.326 147.749C278.713 147.853 278.854 148.098 278.751 148.484L277.249 154.087C277.146 154.473 276.901 154.614 276.515 154.511L261.06 150.37C260.673 150.266 260.532 150.021 260.635 149.635L267.675 123.362C267.779 122.975 268.024 122.834 268.41 122.938L275.326 124.791C275.713 124.894 275.854 125.139 275.75 125.526L270.367 145.617L278.326 147.749ZM296.015 152.489C296.401 152.593 296.543 152.838 296.439 153.224L294.938 158.826C294.834 159.213 294.589 159.354 294.203 159.251L278.748 155.109C278.362 155.006 278.22 154.761 278.324 154.375L285.364 128.101C285.467 127.715 285.712 127.574 286.099 127.677L293.015 129.53C293.401 129.634 293.542 129.879 293.439 130.265L288.056 150.356L296.015 152.489ZM322.903 165.947C322.991 166.136 323.01 166.321 322.962 166.501C322.886 166.784 322.616 166.864 322.152 166.74L314.85 164.783C314.438 164.672 314.199 164.429 314.135 164.053L311.406 153.217L308.901 162.568C308.797 162.954 308.552 163.095 308.166 162.992L301.636 161.242C301.25 161.139 301.108 160.894 301.212 160.507L308.252 134.234C308.355 133.848 308.6 133.706 308.987 133.81L317.1 135.984C318.775 136.433 320.243 137.033 321.504 137.785C322.799 138.519 323.826 139.373 324.585 140.35C325.371 141.334 325.88 142.422 326.112 143.616C326.37 144.818 326.319 146.088 325.961 147.427C325.491 149.179 324.633 150.578 323.387 151.624C322.14 152.67 320.6 153.265 318.767 153.409L322.903 165.947ZM314.574 141.395L312.69 148.426L312.844 148.468C314.235 148.841 315.335 148.804 316.145 148.358C316.987 147.894 317.557 147.108 317.854 146C318.144 144.918 318.024 143.975 317.494 143.171C316.964 142.366 316.042 141.788 314.728 141.436L314.574 141.395ZM337.369 148.082L336.241 152.294L342.384 153.94C342.771 154.043 342.912 154.288 342.809 154.675L341.452 159.736C341.349 160.122 341.104 160.264 340.717 160.16L334.574 158.514L333.353 163.073L340.887 165.092C341.273 165.196 341.415 165.441 341.311 165.827L339.955 170.889C339.851 171.275 339.606 171.416 339.22 171.313L324.267 167.306C323.881 167.203 323.74 166.958 323.843 166.571L330.883 140.298C330.987 139.912 331.232 139.77 331.618 139.874L346.57 143.881C346.957 143.984 347.098 144.229 346.995 144.615L345.639 149.677C345.535 150.063 345.29 150.205 344.904 150.101L337.369 148.082ZM364.667 179.084C364.729 179.266 364.746 179.409 364.718 179.512C364.677 179.666 364.552 179.771 364.344 179.826L359.22 181.641C359.07 181.684 358.944 181.691 358.841 181.664C358.687 181.622 358.556 181.491 358.45 181.269L356.323 175.606C355.061 175.682 353.798 175.55 352.536 175.212C350.913 174.777 349.451 174.054 348.148 173.043C346.852 172.005 345.813 170.733 345.03 169.225C344.272 167.725 343.79 166.022 343.583 164.117C343.401 162.218 343.607 160.162 344.201 157.946C344.794 155.731 345.648 153.834 346.761 152.255C347.9 150.683 349.173 149.437 350.579 148.516C352.011 147.602 353.544 147.033 355.178 146.808C356.818 146.557 358.45 146.65 360.073 147.084C361.696 147.519 363.142 148.252 364.412 149.282C365.714 150.294 366.757 151.553 367.541 153.061C368.324 154.568 368.803 156.284 368.977 158.208C369.178 160.139 368.981 162.212 368.388 164.427C367.828 166.514 367.032 168.302 365.998 169.792C364.989 171.288 363.837 172.498 362.541 173.42L364.667 179.084ZM352.044 160.048C351.802 160.95 351.642 161.859 351.562 162.776C351.488 163.668 351.529 164.493 351.685 165.252C351.866 166.019 352.172 166.68 352.602 167.238C353.033 167.795 353.622 168.173 354.369 168.373C355.115 168.574 355.815 168.54 356.466 168.273C357.117 168.006 357.7 167.582 358.214 167.002C358.755 166.429 359.216 165.738 359.598 164.93C360.013 164.102 360.341 163.238 360.583 162.336C360.831 161.409 360.979 160.496 361.027 159.598C361.107 158.68 361.056 157.839 360.875 157.072C360.727 156.287 360.437 155.616 360.007 155.059C359.576 154.502 358.987 154.123 358.24 153.923C357.493 153.723 356.794 153.757 356.143 154.024C355.492 154.291 354.892 154.724 354.345 155.323C353.831 155.903 353.379 156.61 352.99 157.444C352.608 158.253 352.293 159.121 352.044 160.048ZM377.046 181.78C375.423 181.345 374.004 180.716 372.789 179.893C371.581 179.045 370.624 178.03 369.92 176.847C369.215 175.664 368.775 174.318 368.6 172.808C368.458 171.279 368.631 169.6 369.121 167.771L373.439 151.66C373.542 151.273 373.787 151.132 374.173 151.235L380.78 153.006C381.167 153.109 381.308 153.354 381.205 153.74L376.732 170.432C376.38 171.745 376.401 172.8 376.795 173.596C377.196 174.366 377.899 174.885 378.904 175.155C379.908 175.424 380.777 175.325 381.509 174.859C382.248 174.367 382.794 173.464 383.146 172.15L387.618 155.459C387.722 155.073 387.967 154.931 388.353 155.035L394.806 156.764C395.192 156.867 395.333 157.112 395.23 157.499L390.913 173.61C390.423 175.439 389.721 176.976 388.807 178.222C387.926 179.45 386.885 180.399 385.684 181.071C384.482 181.743 383.146 182.144 381.675 182.275C380.212 182.379 378.669 182.214 377.046 181.78ZM404.094 165.961L402.965 170.172L409.109 171.819C409.495 171.922 409.636 172.167 409.533 172.553L408.177 177.615C408.073 178.001 407.828 178.143 407.442 178.039L401.299 176.393L400.077 180.952L407.611 182.971C407.998 183.075 408.139 183.319 408.035 183.706L406.679 188.767C406.576 189.154 406.331 189.295 405.944 189.192L390.992 185.185C390.605 185.082 390.464 184.837 390.568 184.45L397.607 158.177C397.711 157.791 397.956 157.649 398.342 157.753L413.295 161.759C413.681 161.863 413.823 162.108 413.719 162.494L412.363 167.556C412.259 167.942 412.014 168.083 411.628 167.98L404.094 165.961ZM415.376 192.133C414.088 191.788 412.809 191.307 411.539 190.691C410.287 190.107 409.221 189.448 408.341 188.716C408.054 188.446 407.959 188.13 408.056 187.77L409.536 182.245C409.598 182.013 409.707 181.917 409.861 181.959C409.964 181.987 410.048 182.036 410.111 182.109C410.978 182.893 411.897 183.581 412.871 184.173C413.87 184.772 414.884 185.21 415.915 185.486C416.894 185.748 417.715 185.775 418.378 185.566C419.074 185.338 419.518 184.864 419.712 184.143C419.877 183.525 419.78 182.96 419.42 182.45C419.086 181.946 418.484 181.357 417.616 180.682C416.696 179.994 415.867 179.275 415.129 178.525C414.392 177.776 413.791 176.98 413.326 176.137C412.862 175.295 412.554 174.384 412.402 173.405C412.276 172.433 412.365 171.38 412.668 170.246C413.034 168.881 413.629 167.743 414.453 166.832C415.277 165.921 416.246 165.242 417.359 164.795C418.48 164.322 419.694 164.067 421.001 164.031C422.315 163.969 423.642 164.118 424.981 164.477C426.012 164.753 427.021 165.106 428.01 165.537C429.006 165.941 429.878 166.396 430.626 166.9C430.952 167.126 431.067 167.419 430.971 167.779L429.645 172.725C429.569 173.008 429.441 173.126 429.261 173.077C429.21 173.063 429.139 173.017 429.05 172.938C428.379 172.454 427.6 172.011 426.715 171.608C425.861 171.186 425.1 170.886 424.43 170.706C423.529 170.465 422.772 170.455 422.16 170.678C421.574 170.907 421.202 171.318 421.043 171.911C420.933 172.323 420.913 172.704 420.985 173.055C421.089 173.386 421.265 173.709 421.512 174.024C421.759 174.339 422.057 174.667 422.408 175.009C422.79 175.333 423.208 175.679 423.661 176.049C424.535 176.808 425.298 177.564 425.952 178.319C426.612 179.048 427.126 179.807 427.495 180.596C427.889 181.392 428.117 182.24 428.18 183.14C428.275 184.022 428.181 184.99 427.898 186.046C427.553 187.334 426.991 188.454 426.211 189.404C425.465 190.336 424.547 191.084 423.457 191.648C422.374 192.186 421.143 192.505 419.763 192.604C418.41 192.711 416.947 192.554 415.376 192.133ZM452.624 172.298C453.011 172.401 453.152 172.646 453.049 173.032L451.661 178.21C451.558 178.596 451.313 178.738 450.926 178.634L445.131 177.081L439.634 197.597C439.53 197.984 439.285 198.125 438.899 198.022L432.33 196.262C431.944 196.158 431.803 195.913 431.906 195.527L437.403 175.011L431.608 173.458C431.222 173.354 431.08 173.109 431.184 172.723L432.571 167.545C432.674 167.159 432.919 167.018 433.306 167.121L452.624 172.298Z" fill="#090055"/>
<rect width="372" height="52" transform="translate(63.2214 28) rotate(9.09678)" fill="#211680"/>
<path d="M97.7135 73.4246C97.7051 73.4773 97.6987 73.5167 97.6945 73.5431C97.7209 73.5473 97.7298 73.5757 97.7214 73.6284C97.6792 73.8917 97.487 73.996 97.1447 73.9412L89.7982 72.7649C89.4033 72.7016 89.2242 72.4704 89.2612 72.0712L90.2107 58.0449L84.5342 71.2333C84.3393 71.6072 84.0575 71.7647 83.6889 71.7056L79.4627 71.029C79.0677 70.9657 78.8471 70.7413 78.8008 70.3558L77.1104 55.8663L73.2254 69.5036C73.1095 69.8902 72.8541 70.0518 72.4591 69.9886L65.9421 68.9451C65.5735 68.8861 65.4339 68.6612 65.5235 68.2704L74.1686 42.1082C74.2845 41.7217 74.5399 41.56 74.9349 41.6233L81.2544 42.6351C81.6494 42.6983 81.87 42.9227 81.9163 43.3082L83.6776 59.632L90.1253 44.6631C90.3202 44.2892 90.602 44.1318 90.9706 44.1908L96.7767 45.1205C97.1716 45.1837 97.377 45.4192 97.3928 45.8268L97.7135 73.4246ZM110.123 53.7794L109.433 58.0846L115.713 59.0901C116.108 59.1534 116.274 59.3825 116.211 59.7774L115.383 64.9515C115.319 65.3465 115.09 65.5124 114.695 65.4491L108.415 64.4436L107.669 69.1042L115.371 70.3374C115.766 70.4007 115.932 70.6298 115.868 71.0247L115.04 76.1988C114.977 76.5938 114.748 76.7597 114.353 76.6964L99.0674 74.249C98.6724 74.1858 98.5065 73.9567 98.5698 73.5617L102.87 46.7038C102.933 46.3088 103.163 46.143 103.557 46.2062L118.843 48.6536C119.238 48.7169 119.404 48.946 119.34 49.3409L118.512 54.515C118.449 54.91 118.22 55.0759 117.825 55.0126L110.123 53.7794ZM138.826 79.6428C138.933 79.8219 138.971 80.0036 138.941 80.1879C138.895 80.4775 138.635 80.5844 138.161 80.5085L130.696 79.3133C130.275 79.2458 130.013 79.0283 129.909 78.6607L126.081 68.1634L124.55 77.7216C124.487 78.1166 124.258 78.2825 123.863 78.2192L117.188 77.1504C116.793 77.0872 116.627 76.8581 116.691 76.4631L120.991 49.6052C121.054 49.2103 121.283 49.0444 121.678 49.1076L129.973 50.4357C131.684 50.7097 133.206 51.156 134.538 51.7744C135.901 52.3707 137.011 53.1155 137.867 54.0088C138.75 54.9062 139.368 55.9369 139.721 57.1008C140.102 58.269 140.182 59.5376 139.963 60.9069C139.676 62.6974 138.966 64.1772 137.834 65.3462C136.702 66.5152 135.231 67.2654 133.423 67.597L138.826 79.6428ZM128.016 56.0773L126.865 63.2658L127.023 63.291C128.445 63.5187 129.536 63.3693 130.295 62.8427C131.085 62.2941 131.571 61.4536 131.752 60.3214C131.929 59.2154 131.713 58.2896 131.103 57.5438C130.493 56.798 129.517 56.3176 128.174 56.1026L128.016 56.0773ZM149.745 82.6874C148.033 82.4133 146.478 81.8402 145.078 80.9679C143.709 80.0735 142.555 78.9301 141.617 77.5375C140.709 76.1229 140.065 74.4939 139.685 72.6507C139.336 70.7853 139.336 68.7598 139.686 66.5743C140.057 64.2572 140.756 62.2492 141.784 60.5504C142.813 58.8516 144.058 57.4846 145.52 56.4494C146.986 55.3879 148.612 54.676 150.399 54.3139C152.189 53.9255 154.046 53.8851 155.968 54.1929C156.995 54.3573 158.069 54.6508 159.189 55.0733C160.314 55.4694 161.255 55.9172 162.012 56.4165C162.36 56.6072 162.5 56.9132 162.433 57.3345L161.622 62.1468C161.529 62.7261 161.285 62.9841 160.89 62.9208C160.732 62.8956 160.567 62.8287 160.396 62.7201C159.674 62.3346 158.865 61.989 157.969 61.6835C157.103 61.3558 156.262 61.1266 155.446 60.9959C153.418 60.6713 151.727 61.1161 150.371 62.3304C149.042 63.5488 148.194 65.3035 147.827 67.5943C147.46 69.8851 147.545 71.8026 148.081 73.3468C148.647 74.8688 149.628 75.7416 151.024 75.965C152.156 76.1463 153.125 75.9099 153.932 75.256C154.765 74.6062 155.329 73.5351 155.622 72.0426L152.225 71.4988C151.83 71.4355 151.664 71.2064 151.727 70.8114L152.499 65.9928C152.562 65.5978 152.791 65.432 153.186 65.4952L162.507 66.9877C162.902 67.051 163.123 67.2753 163.169 67.6608C163.217 68.2085 163.216 68.8026 163.167 69.443C163.145 70.0876 163.073 70.7917 162.951 71.5553C162.647 73.4511 162.104 75.16 161.32 76.6819C160.567 78.1816 159.612 79.4197 158.457 80.3959C157.327 81.3764 156.014 82.0709 154.518 82.4794C153.047 82.8921 151.456 82.9614 149.745 82.6874ZM173.472 63.9227L172.783 68.2279L179.063 69.2334C179.458 69.2966 179.624 69.5257 179.56 69.9207L178.732 75.0948C178.669 75.4898 178.44 75.6556 178.045 75.5924L171.765 74.5869L171.018 79.2475L178.72 80.4807C179.115 80.5439 179.281 80.7731 179.218 81.168L178.389 86.3421C178.326 86.7371 178.097 86.9029 177.702 86.8397L162.417 84.3923C162.022 84.329 161.856 84.0999 161.919 83.705L166.22 56.8471C166.283 56.4521 166.512 56.2862 166.907 56.3495L182.192 58.7969C182.587 58.8601 182.753 59.0892 182.69 59.4842L181.861 64.6583C181.798 65.0533 181.569 65.2191 181.174 65.1559L173.472 63.9227ZM215.965 92.3586C215.957 92.4113 215.95 92.4508 215.946 92.4771C215.972 92.4813 215.981 92.5098 215.973 92.5624C215.931 92.8257 215.739 92.93 215.396 92.8752L208.05 91.6989C207.655 91.6357 207.476 91.4044 207.513 91.0053L208.462 76.979L202.786 90.1674C202.591 90.5413 202.309 90.6987 201.94 90.6397L197.714 89.963C197.319 89.8997 197.099 89.6754 197.052 89.2899L195.362 74.8004L191.477 88.4377C191.361 88.8242 191.106 88.9859 190.711 88.9226L184.194 87.8791C183.825 87.8201 183.686 87.5952 183.775 87.2045L192.42 61.0422C192.536 60.6557 192.791 60.494 193.186 60.5573L199.506 61.5691C199.901 61.6324 200.122 61.8567 200.168 62.2422L201.929 78.566L208.377 63.5972C208.572 63.2233 208.854 63.0658 209.222 63.1249L215.028 64.0545C215.423 64.1177 215.629 64.3532 215.644 64.7608L215.965 92.3586ZM228.374 72.7135L227.685 77.0186L233.965 78.0242C234.36 78.0874 234.526 78.3165 234.463 78.7115L233.634 83.8856C233.571 84.2805 233.342 84.4464 232.947 84.3832L226.667 83.3776L225.921 88.0383L233.622 89.2715C234.017 89.3347 234.183 89.5638 234.12 89.9588L233.292 95.1329C233.228 95.5278 232.999 95.6937 232.604 95.6305L217.319 93.183C216.924 93.1198 216.758 92.8907 216.821 92.4957L221.122 65.6378C221.185 65.2428 221.414 65.077 221.809 65.1402L237.094 67.5877C237.489 67.6509 237.655 67.88 237.592 68.275L236.764 73.4491C236.7 73.844 236.471 74.0099 236.076 73.9467L228.374 72.7135ZM257.078 98.5768C257.184 98.7559 257.223 98.9376 257.193 99.1219C257.147 99.4116 256.887 99.5185 256.413 99.4426L248.948 98.2473C248.526 98.1798 248.264 97.9623 248.161 97.5947L244.332 87.0974L242.802 96.6556C242.739 97.0506 242.51 97.2165 242.115 97.1532L235.44 96.0845C235.045 96.0212 234.879 95.7921 234.942 95.3971L239.243 68.5392C239.306 68.1443 239.535 67.9784 239.93 68.0417L248.224 69.3697C249.936 69.6438 251.458 70.09 252.79 70.7084C254.153 71.3047 255.262 72.0495 256.119 72.9428C257.001 73.8403 257.619 74.871 257.973 76.0349C258.353 77.203 258.434 78.4717 258.214 79.8409C257.928 81.6314 257.218 83.1112 256.086 84.2802C254.953 85.4492 253.483 86.1995 251.674 86.531L257.078 98.5768ZM246.268 75.0113L245.117 82.1998L245.275 82.2251C246.696 82.4527 247.787 82.3033 248.547 81.7767C249.337 81.2281 249.822 80.3876 250.004 79.2554C250.181 78.1495 249.964 77.2236 249.355 76.4778C248.745 75.7321 247.768 75.2517 246.426 75.0366L246.268 75.0113ZM267.996 101.621C266.285 101.347 264.729 100.774 263.329 99.9019C261.96 99.0075 260.807 97.8641 259.868 96.4715C258.96 95.0569 258.317 93.4279 257.937 91.5847C257.587 89.7193 257.587 87.6939 257.937 85.5084C258.308 83.1912 259.008 81.1832 260.036 79.4844C261.064 77.7856 262.309 76.4186 263.771 75.3834C265.238 74.3219 266.864 73.6101 268.65 73.2479C270.441 72.8595 272.297 72.8191 274.22 73.1269C275.247 73.2913 276.32 73.5848 277.441 74.0073C278.566 74.4034 279.507 74.8512 280.264 75.3505C280.612 75.5412 280.752 75.8472 280.684 76.2685L279.873 81.0808C279.78 81.6601 279.537 81.9181 279.142 81.8549C278.984 81.8296 278.819 81.7627 278.647 81.6542C277.926 81.2686 277.117 80.923 276.22 80.6175C275.355 80.2898 274.514 80.0606 273.697 79.9299C271.67 79.6053 269.978 80.0501 268.623 81.2644C267.293 82.4829 266.445 84.2375 266.078 86.5283C265.712 88.8192 265.796 90.7366 266.332 92.2808C266.899 93.8028 267.88 94.6756 269.275 94.899C270.407 95.0803 271.377 94.844 272.184 94.19C273.017 93.5402 273.58 92.4691 273.873 90.9766L270.476 90.4328C270.081 90.3695 269.916 90.1404 269.979 89.7455L270.75 84.9268C270.814 84.5319 271.043 84.366 271.438 84.4292L280.759 85.9217C281.154 85.985 281.375 86.2093 281.421 86.5948C281.468 87.1426 281.468 87.7366 281.419 88.377C281.397 89.0216 281.325 89.7257 281.202 90.4893C280.899 92.3851 280.355 94.094 279.571 95.6159C278.818 97.1157 277.864 98.3537 276.708 99.3299C275.579 100.31 274.266 101.005 272.769 101.413C271.299 101.826 269.708 101.895 267.996 101.621ZM291.724 82.8567L291.034 87.1619L297.314 88.1674C297.709 88.2307 297.875 88.4598 297.812 88.8547L296.983 94.0288C296.92 94.4238 296.691 94.5897 296.296 94.5264L290.016 93.5209L289.27 98.1815L296.972 99.4147C297.367 99.478 297.533 99.7071 297.469 100.102L296.641 105.276C296.578 105.671 296.349 105.837 295.954 105.774L280.668 103.326C280.273 103.263 280.107 103.034 280.171 102.639L284.471 75.7811C284.534 75.3861 284.763 75.2203 285.158 75.2835L300.444 77.7309C300.839 77.7942 301.005 78.0233 300.941 78.4182L300.113 83.5923C300.05 83.9873 299.82 84.1532 299.426 84.0899L291.724 82.8567ZM334.217 111.293C334.208 111.345 334.202 111.385 334.198 111.411C334.224 111.415 334.233 111.444 334.225 111.496C334.182 111.76 333.99 111.864 333.648 111.809L326.301 110.633C325.906 110.57 325.727 110.338 325.764 109.939L326.714 95.913L321.037 109.101C320.842 109.475 320.561 109.633 320.192 109.574L315.966 108.897C315.571 108.834 315.35 108.609 315.304 108.224L313.614 93.7344L309.729 107.372C309.613 107.758 309.357 107.92 308.962 107.857L302.445 106.813C302.077 106.754 301.937 106.529 302.027 106.138L310.672 79.9762C310.788 79.5897 311.043 79.4281 311.438 79.4913L317.758 80.5032C318.153 80.5664 318.373 80.7908 318.419 81.1763L320.181 97.5001L326.628 82.5312C326.823 82.1573 327.105 81.9999 327.474 82.0589L333.28 82.9885C333.675 83.0518 333.88 83.2872 333.896 83.6948L334.217 111.293ZM346.626 91.6475L345.937 95.9526L352.217 96.9582C352.612 97.0214 352.777 97.2505 352.714 97.6455L351.886 102.82C351.822 103.215 351.593 103.38 351.198 103.317L344.918 102.312L344.172 106.972L351.874 108.205C352.269 108.269 352.435 108.498 352.372 108.893L351.543 114.067C351.48 114.462 351.251 114.628 350.856 114.564L335.571 112.117C335.176 112.054 335.01 111.825 335.073 111.43L339.373 84.5718C339.437 84.1769 339.666 84.011 340.061 84.0742L355.346 86.5217C355.741 86.5849 355.907 86.814 355.844 87.209L355.015 92.3831C354.952 92.7781 354.723 92.9439 354.328 92.8807L346.626 91.6475ZM375.329 117.511C375.436 117.69 375.474 117.872 375.445 118.056C375.398 118.346 375.138 118.452 374.664 118.377L367.199 117.181C366.778 117.114 366.516 116.896 366.413 116.529L362.584 106.031L361.054 115.59C360.99 115.985 360.761 116.151 360.366 116.087L353.691 115.018C353.296 114.955 353.13 114.726 353.194 114.331L357.494 87.4733C357.557 87.0783 357.786 86.9124 358.181 86.9757L366.476 88.3037C368.187 88.5778 369.709 89.024 371.042 89.6424C372.404 90.2387 373.514 90.9835 374.37 91.8768C375.253 92.7743 375.871 93.805 376.225 94.9689C376.605 96.137 376.685 97.4057 376.466 98.7749C376.179 100.565 375.47 102.045 374.337 103.214C373.205 104.383 371.734 105.133 369.926 105.465L375.329 117.511ZM364.519 93.9454L363.368 101.134L363.526 101.159C364.948 101.387 366.039 101.237 366.798 100.711C367.588 100.162 368.074 99.3217 368.255 98.1894C368.432 97.0835 368.216 96.1576 367.606 95.4119C366.996 94.6661 366.02 94.1857 364.677 93.9707L364.519 93.9454ZM386.248 120.555C384.536 120.281 382.981 119.708 381.581 118.836C380.212 117.942 379.058 116.798 378.12 115.406C377.212 113.991 376.568 112.362 376.188 110.519C375.839 108.653 375.839 106.628 376.189 104.442C376.56 102.125 377.259 100.117 378.288 98.4184C379.316 96.7196 380.561 95.3526 382.023 94.3174C383.489 93.2559 385.116 92.5441 386.902 92.182C388.693 91.7935 390.549 91.7532 392.471 92.0609C393.498 92.2254 394.572 92.5188 395.693 92.9413C396.817 93.3375 397.758 93.7852 398.516 94.2846C398.863 94.4752 399.003 94.7812 398.936 95.2025L398.125 100.015C398.032 100.594 397.788 100.852 397.393 100.789C397.235 100.764 397.07 100.697 396.899 100.588C396.177 100.203 395.368 99.8571 394.472 99.5515C393.606 99.2238 392.765 98.9947 391.949 98.864C389.922 98.5393 388.23 98.9841 386.874 100.198C385.545 101.417 384.697 103.172 384.33 105.462C383.963 107.753 384.048 109.671 384.584 111.215C385.15 112.737 386.131 113.61 387.527 113.833C388.659 114.014 389.629 113.778 390.435 113.124C391.269 112.474 391.832 111.403 392.125 109.911L388.728 109.367C388.333 109.304 388.167 109.074 388.23 108.679L389.002 103.861C389.065 103.466 389.294 103.3 389.689 103.363L399.011 104.856C399.406 104.919 399.626 105.143 399.672 105.529C399.72 106.077 399.719 106.671 399.671 107.311C399.648 107.956 399.576 108.66 399.454 109.423C399.15 111.319 398.607 113.028 397.823 114.55C397.07 116.05 396.115 117.288 394.96 118.264C393.83 119.244 392.518 119.939 391.021 120.347C389.55 120.76 387.959 120.829 386.248 120.555ZM409.975 101.791L409.286 106.096L415.566 107.101C415.961 107.165 416.127 107.394 416.063 107.789L415.235 112.963C415.172 113.358 414.943 113.524 414.548 113.46L408.268 112.455L407.521 117.116L415.223 118.349C415.618 118.412 415.784 118.641 415.721 119.036L414.892 124.21C414.829 124.605 414.6 124.771 414.205 124.708L398.92 122.26C398.525 122.197 398.359 121.968 398.422 121.573L402.723 94.7151C402.786 94.3201 403.015 94.1543 403.41 94.2175L418.695 96.6649C419.09 96.7282 419.256 96.9573 419.193 97.3523L418.364 102.526C418.301 102.921 418.072 103.087 417.677 103.024L409.975 101.791Z" fill="#EAF1FC"/>
<rect width="453" height="52" transform="translate(-46 152.245) rotate(-15)" fill="#211680"/>
<path d="M-15.8864 169.892C-13.748 169.733 -11.9989 170.079 -10.6392 170.93C-9.27942 171.78 -8.37523 173.042 -7.92661 174.717C-7.57461 176.03 -7.54392 177.278 -7.83452 178.46C-8.13202 179.617 -8.71564 180.684 -9.58537 181.663C-10.4362 182.608 -11.5475 183.458 -12.9191 184.212C-14.2906 184.966 -15.8651 185.581 -17.6424 186.058L-25.1766 188.076C-25.563 188.18 -25.8079 188.039 -25.9114 187.652L-32.9513 161.379C-33.0549 160.993 -32.9134 160.748 -32.5271 160.644L-24.8383 158.584C-23.2413 158.156 -21.7609 157.911 -20.3971 157.849C-19.0332 157.788 -17.8212 157.932 -16.7609 158.283C-15.7076 158.608 -14.8188 159.143 -14.0948 159.888C-13.3707 160.632 -12.8499 161.597 -12.5324 162.782C-12.1528 164.199 -12.2466 165.549 -12.8136 166.833C-13.3875 168.091 -14.4187 169.085 -15.9071 169.815L-15.8864 169.892ZM-19.625 165.676C-20.1081 163.873 -21.4959 163.279 -23.7884 163.893L-24.0589 163.966L-22.5577 169.568L-22.3645 169.516C-20.0205 168.888 -19.1074 167.608 -19.625 165.676ZM-19.2539 180.816C-16.4978 180.078 -15.4027 178.652 -15.9687 176.54C-16.2309 175.561 -16.7788 174.908 -17.6123 174.579C-18.4201 174.243 -19.5065 174.258 -20.8717 174.624L-21.1808 174.707L-19.5244 180.889L-19.2539 180.816ZM16.4892 175.918C16.6594 176.038 16.7686 176.188 16.8169 176.369C16.8929 176.652 16.699 176.856 16.2354 176.98L8.93295 178.937C8.52083 179.047 8.19263 178.956 7.94835 178.662L0.167644 170.643L2.67301 179.993C2.77654 180.379 2.63512 180.624 2.24875 180.728L-4.28091 182.477C-4.66728 182.581 -4.91223 182.44 -5.01576 182.053L-12.0556 155.78C-12.1592 155.394 -12.0177 155.149 -11.6314 155.045L-3.51759 152.871C-1.84332 152.422 -0.271836 152.208 1.19687 152.229C2.68443 152.217 4.00135 152.444 5.14765 152.91C6.31971 153.369 7.30481 154.057 8.10294 154.975C8.92683 155.886 9.51823 157.012 9.87713 158.351C10.3465 160.103 10.3029 161.743 9.74646 163.273C9.19002 164.802 8.15403 166.087 6.6385 167.128L16.4892 175.918ZM-3.0003 158.82L-1.1161 165.852L-0.961551 165.81C0.429383 165.438 1.364 164.856 1.84231 164.065C2.33947 163.242 2.43966 162.276 2.14288 161.169C1.85301 160.087 1.27751 159.33 0.416401 158.898C-0.44471 158.466 -1.53209 158.426 -2.84575 158.778L-3.0003 158.82ZM40.7695 169.826C40.8091 169.871 40.8427 169.945 40.8703 170.048C40.9255 170.254 40.8114 170.395 40.5281 170.471L33.1484 172.448C32.762 172.552 32.4656 172.424 32.259 172.065C31.9991 171.611 31.7392 171.156 31.4792 170.701C31.2382 170.213 30.9842 169.729 30.7174 169.248L24.1491 171.008C24.1583 171.558 24.1676 172.108 24.1768 172.657C24.2049 173.174 24.2202 173.695 24.2225 174.219C24.1973 174.64 24.0043 174.898 23.6437 174.995L16.5731 176.89C16.161 177 15.9839 176.854 16.0418 176.452L17.9347 147.661C17.9668 147.266 18.1761 147.017 18.5625 146.913L23.933 145.474C24.2936 145.378 24.5995 145.489 24.8507 145.808L40.7695 169.826ZM27.993 164.181C27.2528 162.861 26.5289 161.55 25.8213 160.249C25.1395 158.941 24.4518 157.662 23.758 156.412C23.7563 157.848 23.7744 159.307 23.8122 160.787C23.8758 162.261 23.93 163.751 23.9747 165.258L27.993 164.181ZM56.5491 136.776C56.9355 136.673 57.1804 136.814 57.284 137.201L64.3238 163.474C64.4274 163.86 64.2859 164.105 63.8996 164.209L58.9154 165.544C58.529 165.648 58.1914 165.572 57.9025 165.319L45.2483 154.257L48.8304 167.625C48.9339 168.012 48.7925 168.256 48.4061 168.36L42.3401 169.985C41.9537 170.089 41.7088 169.947 41.6053 169.561L34.5654 143.288C34.4618 142.902 34.6033 142.657 34.9896 142.553L39.9738 141.218C40.3602 141.114 40.7013 141.202 40.9971 141.482L53.8141 152.997L50.0975 139.126C49.9939 138.74 50.1354 138.495 50.5217 138.391L56.5491 136.776ZM78.1028 160.776C76.5058 161.203 74.8998 161.289 73.2848 161.031C71.6698 160.774 70.1463 160.188 68.7144 159.274C67.2824 158.36 66.0003 157.13 64.8682 155.584C63.7618 154.031 62.9153 152.159 62.3286 149.97C61.7351 147.755 61.5385 145.682 61.7389 143.751C61.965 141.813 62.4954 140.083 63.3302 138.562C64.1649 137.041 65.2687 135.751 66.6417 134.693C68.0404 133.628 69.6155 132.861 71.367 132.392C72.3458 132.129 73.2973 131.971 74.2214 131.917C75.1712 131.855 75.9897 131.871 76.6769 131.963C77.0721 131.995 77.3248 132.217 77.4353 132.629L78.8743 138C78.9985 138.463 78.9319 138.73 78.6743 138.799C78.5455 138.833 78.335 138.821 78.043 138.761C77.4588 138.641 76.8275 138.603 76.149 138.647C75.4894 138.658 74.8247 138.754 74.155 138.933C73.2535 139.175 72.487 139.559 71.8555 140.087C71.224 140.616 70.7369 141.271 70.3943 142.053C70.0706 142.802 69.8878 143.665 69.846 144.643C69.8042 145.62 69.9317 146.663 70.2285 147.77C70.5322 148.904 70.9465 149.883 71.4714 150.709C72.0152 151.502 72.6274 152.138 73.3082 152.618C73.989 153.099 74.722 153.413 75.5072 153.561C76.3113 153.677 77.1254 153.625 77.9497 153.404C78.6967 153.204 79.3937 152.92 80.0409 152.554C80.7138 152.18 81.2828 151.779 81.7478 151.351C81.9708 151.153 82.1468 151.037 82.2756 151.003C82.5331 150.933 82.724 151.131 82.8483 151.594L84.2459 156.81C84.3563 157.223 84.2648 157.551 83.9714 157.795C83.2764 158.395 82.4225 158.969 81.4097 159.517C80.39 160.038 79.2877 160.458 78.1028 160.776ZM100.481 125.005C100.868 124.901 101.113 125.043 101.216 125.429L108.256 151.702C108.359 152.088 108.218 152.333 107.832 152.437L101.225 154.207C100.838 154.311 100.593 154.169 100.49 153.783L97.7878 143.699L91.0264 145.51L93.7284 155.595C93.832 155.981 93.6905 156.226 93.3042 156.33L86.6972 158.1C86.3109 158.203 86.0659 158.062 85.9624 157.676L78.9225 131.402C78.819 131.016 78.9604 130.771 79.3468 130.668L85.9537 128.897C86.3401 128.794 86.585 128.935 86.6885 129.322L89.401 139.444L96.1624 137.633L93.45 127.51C93.3465 127.123 93.4879 126.879 93.8743 126.775L100.481 125.005ZM125.893 131.903C128.032 131.744 129.781 132.089 131.141 132.94C132.5 133.79 133.405 135.053 133.853 136.727C134.205 138.04 134.236 139.288 133.945 140.471C133.648 141.627 133.064 142.694 132.194 143.673C131.344 144.619 130.232 145.468 128.861 146.222C127.489 146.977 125.915 147.592 124.137 148.068L116.603 150.087C116.217 150.19 115.972 150.049 115.868 149.662L108.828 123.389C108.725 123.003 108.866 122.758 109.253 122.654L116.942 120.594C118.539 120.166 120.019 119.921 121.383 119.86C122.747 119.798 123.959 119.942 125.019 120.293C126.072 120.618 126.961 121.153 127.685 121.898C128.409 122.643 128.93 123.607 129.247 124.792C129.627 126.209 129.533 127.559 128.966 128.843C128.392 130.101 127.361 131.095 125.873 131.825L125.893 131.903ZM122.155 127.687C121.672 125.883 120.284 125.289 117.991 125.903L117.721 125.976L119.222 131.578L119.415 131.526C121.759 130.898 122.672 129.618 122.155 127.687ZM122.526 142.826C125.282 142.088 126.377 140.663 125.811 138.55C125.549 137.572 125.001 136.918 124.167 136.589C123.36 136.253 122.273 136.268 120.908 136.634L120.599 136.717L122.255 142.899L122.526 142.826ZM158.269 137.928C158.439 138.049 158.548 138.199 158.597 138.379C158.673 138.662 158.479 138.866 158.015 138.99L150.713 140.947C150.301 141.057 149.972 140.966 149.728 140.673L141.947 132.653L144.453 142.003C144.556 142.39 144.415 142.635 144.029 142.738L137.499 144.488C137.113 144.591 136.868 144.45 136.764 144.063L129.724 117.79C129.621 117.404 129.762 117.159 130.148 117.055L138.262 114.881C139.936 114.433 141.508 114.219 142.977 114.239C144.464 114.227 145.781 114.454 146.927 114.92C148.1 115.379 149.085 116.067 149.883 116.985C150.707 117.897 151.298 119.022 151.657 120.361C152.126 122.113 152.083 123.753 151.526 125.283C150.97 126.812 149.934 128.097 148.418 129.139L158.269 137.928ZM138.779 120.83L140.664 127.862L140.818 127.821C142.209 127.448 143.144 126.866 143.622 126.075C144.119 125.252 144.219 124.287 143.923 123.179C143.633 122.097 143.057 121.34 142.196 120.908C141.335 120.477 140.248 120.437 138.934 120.789L138.779 120.83ZM182.549 131.837C182.589 131.881 182.622 131.955 182.65 132.058C182.705 132.264 182.591 132.405 182.308 132.481L174.928 134.459C174.542 134.562 174.245 134.434 174.039 134.076C173.779 133.621 173.519 133.166 173.259 132.711C173.018 132.223 172.764 131.739 172.497 131.259L165.929 133.019C165.938 133.568 165.947 134.118 165.957 134.668C165.985 135.185 166 135.705 166.002 136.229C165.977 136.65 165.784 136.909 165.424 137.005L158.353 138.9C157.941 139.01 157.764 138.864 157.822 138.462L159.714 109.672C159.747 109.276 159.956 109.027 160.342 108.924L165.713 107.485C166.073 107.388 166.379 107.499 166.63 107.818L182.549 131.837ZM169.773 126.191C169.033 124.871 168.309 123.56 167.601 122.259C166.919 120.951 166.232 119.672 165.538 118.423C165.536 119.859 165.554 121.317 165.592 122.798C165.656 124.271 165.71 125.761 165.755 127.268L169.773 126.191ZM198.329 98.7865C198.715 98.6829 198.96 98.8244 199.064 99.2107L206.104 125.484C206.207 125.87 206.066 126.115 205.679 126.219L200.695 127.554C200.309 127.658 199.971 127.583 199.682 127.329L187.028 116.267L190.61 129.635C190.714 130.022 190.572 130.267 190.186 130.37L184.12 131.996C183.734 132.099 183.489 131.958 183.385 131.571L176.345 105.298C176.242 104.912 176.383 104.667 176.769 104.563L181.754 103.228C182.14 103.124 182.481 103.212 182.777 103.492L195.594 115.007L191.877 101.136C191.774 100.75 191.915 100.505 192.302 100.402L198.329 98.7865ZM219.883 122.786C218.286 123.214 216.68 123.299 215.065 123.041C213.45 122.784 211.926 122.198 210.494 121.284C209.062 120.371 207.78 119.141 206.648 117.594C205.542 116.041 204.695 114.17 204.108 111.98C203.515 109.765 203.318 107.692 203.519 105.761C203.745 103.823 204.275 102.093 205.11 100.572C205.945 99.051 207.049 97.7614 208.421 96.7033C209.82 95.6384 211.395 94.8712 213.147 94.4019C214.126 94.1396 215.077 93.9813 216.001 93.927C216.951 93.8657 217.77 93.8811 218.457 93.973C218.852 94.0052 219.105 94.2273 219.215 94.6394L220.654 100.01C220.778 100.474 220.712 100.74 220.454 100.809C220.325 100.843 220.115 100.831 219.823 100.771C219.239 100.652 218.607 100.614 217.929 100.657C217.269 100.668 216.605 100.764 215.935 100.943C215.033 101.185 214.267 101.57 213.635 102.098C213.004 102.626 212.517 103.281 212.174 104.063C211.85 104.812 211.668 105.676 211.626 106.653C211.584 107.63 211.712 108.673 212.008 109.781C212.312 110.914 212.726 111.893 213.251 112.719C213.795 113.512 214.407 114.149 215.088 114.629C215.769 115.109 216.502 115.423 217.287 115.572C218.091 115.688 218.905 115.635 219.729 115.414C220.476 115.214 221.174 114.931 221.821 114.564C222.494 114.19 223.063 113.789 223.528 113.361C223.751 113.163 223.927 113.047 224.055 113.013C224.313 112.944 224.504 113.141 224.628 113.605L226.026 118.821C226.136 119.233 226.045 119.561 225.751 119.805C225.056 120.406 224.202 120.979 223.189 121.527C222.17 122.049 221.067 122.468 219.883 122.786ZM242.261 87.0149C242.647 86.9114 242.892 87.0528 242.996 87.4392L250.036 113.712C250.139 114.099 249.998 114.344 249.611 114.447L243.005 116.218C242.618 116.321 242.373 116.18 242.27 115.793L239.568 105.709L232.806 107.521L235.508 117.605C235.612 117.991 235.47 118.236 235.084 118.34L228.477 120.11C228.091 120.214 227.846 120.072 227.742 119.686L220.702 93.4127C220.599 93.0263 220.74 92.7814 221.127 92.6779L227.733 90.9075C228.12 90.804 228.365 90.9454 228.468 91.3318L231.181 101.455L237.942 99.643L235.23 89.5201C235.126 89.1337 235.268 88.8887 235.654 88.7852L242.261 87.0149ZM267.673 93.9128C269.812 93.7539 271.561 94.0997 272.92 94.95C274.28 95.8004 275.184 97.0627 275.633 98.737C275.985 100.051 276.016 101.299 275.725 102.481C275.428 103.637 274.844 104.705 273.974 105.683C273.123 106.629 272.012 107.479 270.641 108.233C269.269 108.987 267.695 109.602 265.917 110.078L258.383 112.097C257.997 112.2 257.752 112.059 257.648 111.673L250.608 85.3994C250.505 85.0131 250.646 84.7681 251.033 84.6646L258.721 82.6044C260.318 82.1765 261.799 81.9316 263.163 81.8699C264.526 81.8081 265.738 81.9527 266.799 82.3035C267.852 82.6287 268.741 83.1635 269.465 83.9082C270.189 84.6528 270.71 85.6176 271.027 86.8024C271.407 88.2191 271.313 89.5694 270.746 90.8532C270.172 92.1113 269.141 93.1054 267.652 93.8355L267.673 93.9128ZM263.935 89.6967C263.451 87.8937 262.064 87.2993 259.771 87.9135L259.501 87.986L261.002 93.5884L261.195 93.5366C263.539 92.9086 264.452 91.6286 263.935 89.6967ZM264.306 104.837C267.062 104.098 268.157 102.673 267.591 100.561C267.329 99.5818 266.781 98.928 265.947 98.5992C265.14 98.2635 264.053 98.2785 262.688 98.6443L262.379 98.7271L264.035 104.909L264.306 104.837ZM300.049 99.9387C300.219 100.059 300.328 100.209 300.377 100.389C300.452 100.673 300.259 100.876 299.795 101.001L292.493 102.957C292.08 103.068 291.752 102.976 291.508 102.683L283.727 94.6633L286.233 104.013C286.336 104.4 286.195 104.645 285.808 104.748L279.279 106.498C278.892 106.601 278.647 106.46 278.544 106.074L271.504 79.8004C271.4 79.4141 271.542 79.1691 271.928 79.0656L280.042 76.8915C281.716 76.4429 283.288 76.2289 284.756 76.2494C286.244 76.2374 287.561 76.4642 288.707 76.9301C289.879 77.3891 290.864 78.0775 291.663 78.9956C292.486 79.9067 293.078 81.032 293.437 82.3714C293.906 84.123 293.862 85.7635 293.306 87.2929C292.75 88.8224 291.714 90.1077 290.198 91.1487L300.049 99.9387ZM280.559 82.8403L282.443 89.8723L282.598 89.8309C283.989 89.4582 284.924 88.8764 285.402 88.0857C285.899 87.2623 285.999 86.2968 285.702 85.1892C285.413 84.1074 284.837 83.3505 283.976 82.9187C283.115 82.4868 282.028 82.4469 280.714 82.7989L280.559 82.8403ZM324.329 93.8469C324.369 93.8915 324.402 93.9653 324.43 94.0684C324.485 94.2744 324.371 94.4154 324.088 94.4914L316.708 96.4687C316.322 96.5723 316.025 96.4446 315.819 96.0859C315.559 95.631 315.299 95.1761 315.039 94.7212C314.798 94.2336 314.544 93.7495 314.277 93.2689L307.709 95.0289C307.718 95.5785 307.727 96.1282 307.736 96.6779C307.765 97.1949 307.78 97.7153 307.782 98.2393C307.757 98.6601 307.564 98.9189 307.203 99.0155L300.133 100.91C299.721 101.02 299.543 100.875 299.601 100.473L301.494 71.6817C301.526 71.2866 301.736 71.0373 302.122 70.9338L307.493 69.4947C307.853 69.3981 308.159 69.5094 308.41 69.8286L324.329 93.8469ZM311.553 88.2013C310.812 86.8813 310.088 85.5706 309.381 84.2694C308.699 82.9613 308.011 81.6824 307.318 80.4327C307.316 81.8688 307.334 83.3271 307.372 84.8078C307.435 86.2815 307.49 87.7716 307.534 89.278L311.553 88.2013ZM340.109 60.7967C340.495 60.6932 340.74 60.8346 340.844 61.221L347.883 87.4941C347.987 87.8805 347.846 88.1255 347.459 88.229L342.475 89.5645C342.089 89.668 341.751 89.5928 341.462 89.339L328.808 78.2772L332.39 91.6456C332.494 92.032 332.352 92.2769 331.966 92.3804L325.9 94.0058C325.513 94.1094 325.268 93.9679 325.165 93.5816L318.125 67.3084C318.021 66.922 318.163 66.6771 318.549 66.5735L323.533 65.238C323.92 65.1345 324.261 65.2226 324.557 65.5022L337.374 77.0173L333.657 63.1466C333.554 62.7602 333.695 62.5152 334.081 62.4117L340.109 60.7967ZM361.662 84.7959C360.065 85.2238 358.459 85.3091 356.844 85.0516C355.229 84.7942 353.706 84.2085 352.274 83.2947C350.842 82.3808 349.56 81.1508 348.428 79.6044C347.321 78.0512 346.475 76.1798 345.888 73.9904C345.295 71.7752 345.098 69.7021 345.298 67.7711C345.525 65.8332 346.055 64.1037 346.89 62.5825C347.724 61.0613 348.828 59.7716 350.201 58.7136C351.6 57.6486 353.175 56.8815 354.927 56.4121C355.905 56.1499 356.857 55.9915 357.781 55.9372C358.731 55.8759 359.549 55.8913 360.237 55.9832C360.632 56.0154 360.884 56.2375 360.995 56.6496L362.434 62.0202C362.558 62.4838 362.491 62.7502 362.234 62.8192C362.105 62.8537 361.895 62.8411 361.603 62.7813C361.018 62.6617 360.387 62.6239 359.709 62.6676C359.049 62.6787 358.384 62.774 357.715 62.9534C356.813 63.195 356.047 63.5798 355.415 64.1079C354.784 64.636 354.297 65.2911 353.954 66.0731C353.63 66.8224 353.447 67.6858 353.406 68.6632C353.364 69.6407 353.491 70.6832 353.788 71.7908C354.092 72.9242 354.506 73.9036 355.031 74.7293C355.575 75.5222 356.187 76.1588 356.868 76.6389C357.549 77.1191 358.282 77.4334 359.067 77.5819C359.871 77.6978 360.685 77.6452 361.509 77.4244C362.256 77.2242 362.953 76.9408 363.6 76.5742C364.273 76.2006 364.842 75.7997 365.307 75.3714C365.53 75.1736 365.706 75.0575 365.835 75.0229C366.093 74.9539 366.284 75.1512 366.408 75.6149L367.805 80.8309C367.916 81.243 367.824 81.5712 367.531 81.8155C366.836 82.4158 365.982 82.9897 364.969 83.5372C363.95 84.0589 362.847 84.4785 361.662 84.7959ZM384.041 49.0251C384.427 48.9216 384.672 49.063 384.776 49.4494L391.816 75.7226C391.919 76.1089 391.778 76.3539 391.391 76.4574L384.784 78.2277C384.398 78.3313 384.153 78.1898 384.05 77.8035L381.347 67.7192L374.586 69.5309L377.288 79.6152C377.392 80.0016 377.25 80.2465 376.864 80.35L370.257 82.1204C369.87 82.2239 369.626 82.0825 369.522 81.6961L362.482 55.4229C362.379 55.0365 362.52 54.7916 362.906 54.6881L369.513 52.9178C369.9 52.8142 370.145 52.9556 370.248 53.342L372.961 63.4649L379.722 61.6532L377.01 51.5303C376.906 51.1439 377.048 50.899 377.434 50.7954L384.041 49.0251Z" fill="#4E3BFB"/>
</g>
<defs>
<clipPath id="clip0">
<rect width="360" height="240" fill="white"/>
</clipPath>
</defs>
</svg>
