
<svg width="360" height="177" viewBox="0 0 360 177" fill="none" xmlns="http://www.w3.org/2000/svg">
<g filter="url(#filter0_d)">
<rect x="-6" y="49.9631" width="359" height="76" rx="16" transform="rotate(-8 -6 49.9631)" fill="#121212"/>
<path d="M35.3021 66.5908C35.3121 66.001 35.5904 65.6677 36.137 65.5909L43.471 64.5601C44.1087 64.4705 44.4268 64.751 44.4253 65.4015L44.8427 96.4657C44.8327 97.0555 44.5544 97.3888 44.0078 97.4657L36.6738 98.4964C36.0361 98.586 35.718 98.3056 35.7194 97.655L35.5446 85.8343L27.573 86.9547L27.715 98.8729C27.705 99.4627 27.4267 99.796 26.8801 99.8728L19.5462 100.904C18.9084 100.993 18.5903 100.713 18.5918 100.062L18.1744 68.9979C18.1844 68.4081 18.4627 68.0748 19.0094 67.998L26.3433 66.9673C26.981 66.8776 27.2991 67.1581 27.2977 67.8086L27.4789 79.6749L35.4506 78.5546L35.3021 66.5908ZM66.1626 94.352C65.5552 94.4374 65.1958 94.1937 65.0843 93.621C64.7357 92.4622 64.4326 91.297 64.175 90.1255L56.34 91.2266C56.1824 91.8681 56.027 92.5248 55.8736 93.1967C55.7464 93.8339 55.604 94.4733 55.4464 95.1148C55.3325 95.6263 55.0174 95.9184 54.5012 95.9909L46.7573 97.0792C45.9981 97.1859 45.7212 96.8687 45.9267 96.1276L55.7394 63.4862C55.888 63.0008 56.2052 62.724 56.6911 62.6557L63.0229 61.7658C63.5999 61.6847 63.9723 61.9111 64.1403 62.4449L74.95 92.0951C75.1957 92.7418 74.9845 93.1122 74.3164 93.2061L66.1626 94.352ZM62.5171 83.9481L60.1115 74.7635C59.7218 76.3977 59.3342 78.047 58.9488 79.7115C58.5895 81.3414 58.2149 82.9734 57.8252 84.6075L62.5171 83.9481ZM87.2209 91.8105C85.4899 92.0538 83.8355 91.9611 82.2579 91.5325C80.6802 91.1039 79.2442 90.3612 77.9499 89.3044C76.6555 88.2476 75.57 86.9137 74.6932 85.3027C73.8122 83.6613 73.2181 81.7474 72.9108 79.5609C72.4925 76.5848 72.6028 73.8441 73.2417 71.3388C73.911 68.8293 74.9482 66.6241 76.3533 64.7234C77.7584 62.8227 79.462 61.2826 81.464 60.1031C83.466 58.9237 85.621 58.1718 87.929 57.8474C89.0223 57.6938 90.0849 57.6528 91.1169 57.7246C92.1751 57.7617 93.0747 57.883 93.8158 58.0885C94.297 58.2067 94.5304 58.5455 94.5161 59.1049L94.5078 65.6559C94.5148 66.3671 94.1717 66.5702 93.4785 66.265C92.2003 65.7634 90.7108 65.632 89.0102 65.8711C87.8258 66.0375 86.7689 66.4493 85.8393 67.1064C84.9054 67.7331 84.1208 68.5402 83.4853 69.5276C82.8803 70.5107 82.4526 71.6546 82.2025 72.9595C81.9827 74.2601 81.9773 75.6544 82.1865 77.1424C82.4938 79.3289 83.2642 80.9549 84.4978 82.0202C85.7618 83.0813 87.2441 83.4923 88.9447 83.2533C89.795 83.1338 90.6152 82.9102 91.4053 82.5824C92.1953 82.2545 92.914 81.8594 93.5613 81.3968C93.8697 81.1676 94.1236 81.101 94.3228 81.1968C94.5525 81.2884 94.6626 81.5207 94.653 81.8937L94.834 88.1393C94.8416 88.6337 94.702 88.963 94.4154 89.1271C93.5119 89.7496 92.459 90.3002 91.2566 90.7788C90.0845 91.2532 88.7393 91.5971 87.2209 91.8105ZM123.782 53.2732C124.146 53.222 124.404 53.2941 124.556 53.4896C124.703 53.6547 124.678 53.9214 124.482 54.2896L115.709 70.5267L124.855 85.035C125.257 85.6908 125.078 86.072 124.319 86.1787L114.935 87.4975C114.449 87.5658 114.081 87.3698 113.83 86.9095L106.609 72.5487L106.842 87.7524C106.862 88.3379 106.584 88.6712 106.007 88.7523L98.0349 89.8726C97.3972 89.9623 97.0791 89.6818 97.0806 89.0313L96.6176 57.9734C96.5973 57.3879 96.8756 57.0546 97.4526 56.9735L105.424 55.8532C106.062 55.7635 106.38 56.044 106.379 56.6945L106.632 71.3843L113.889 55.2674C114.077 54.8385 114.413 54.5898 114.899 54.5216L123.782 53.2732ZM149.18 49.7036C149.849 49.6097 150.182 49.8881 150.18 50.5386L150.207 56.0162C150.197 56.606 149.903 56.9414 149.326 57.0225L142.676 57.9572L142.717 82.7104C142.707 83.3002 142.414 83.6356 141.837 83.7167L134.548 84.741C133.88 84.8349 133.547 84.5566 133.548 83.9061L133.565 59.2376L127.051 60.1531C126.383 60.247 126.05 59.9687 126.051 59.3181L126.025 53.8405C126.035 53.2507 126.328 52.9153 126.905 52.8342L149.18 49.7036ZM164.476 80.9065C162.624 81.1669 160.878 81.087 159.24 80.667C157.601 80.2469 156.122 79.5258 154.802 78.5036C153.507 77.4468 152.42 76.0977 151.539 74.4563C150.658 72.815 150.063 70.901 149.756 68.7145C149.338 65.7384 149.433 62.9999 150.042 60.4989C150.65 57.9978 151.598 55.8207 152.886 53.9674C154.2 52.0795 155.767 50.5586 157.587 49.4048C159.407 48.2509 161.319 47.5332 163.323 47.2515C165.145 46.9954 166.875 47.0774 168.514 47.4975C170.183 47.9133 171.664 48.6496 172.959 49.7064C174.249 50.7328 175.334 52.0667 176.215 53.7081C177.096 55.3495 177.692 57.2786 178.004 59.4955C178.422 62.4716 178.327 65.2101 177.719 67.7111C177.11 70.2122 176.147 72.3915 174.828 74.249C173.54 76.1023 171.987 77.6058 170.167 78.7597C168.347 79.9135 166.45 80.6291 164.476 80.9065ZM164.072 72.7414C165.165 72.5877 166.04 72.0931 166.697 71.2576C167.384 70.4178 167.911 69.4301 168.278 68.2947C168.641 67.1289 168.856 65.9064 168.924 64.6271C168.988 63.3175 168.945 62.1313 168.795 61.0684C168.68 60.2484 168.478 59.4717 168.189 58.7381C167.931 58.0002 167.579 57.3684 167.133 56.8426C166.718 56.3126 166.214 55.9189 165.62 55.6617C165.057 55.4002 164.396 55.3228 163.636 55.4295C162.513 55.5874 161.609 56.1015 160.927 56.9716C160.274 57.8375 159.769 58.8686 159.41 60.0648C159.078 61.2263 158.88 62.4619 158.816 63.7715C158.779 65.0465 158.83 66.185 158.971 67.1872C159.086 68.0071 159.286 68.7687 159.571 69.4719C159.856 70.1752 160.206 70.7918 160.621 71.3218C161.066 71.8476 161.571 72.2413 162.134 72.5028C162.727 72.76 163.373 72.8395 164.072 72.7414ZM196.54 58.4233C198.696 58.5539 200.388 59.1367 201.617 60.1717C202.842 61.1763 203.576 62.5441 203.82 64.2751C204.054 65.9454 203.884 67.4868 203.308 68.8993C202.733 70.3118 201.826 71.5697 200.587 72.6728C199.375 73.7412 197.861 74.6507 196.047 75.4012C194.228 76.1214 192.18 76.6415 189.902 76.9616L181.338 78.1651C180.67 78.259 180.337 77.9807 180.338 77.3302L180.24 46.2211C180.25 45.6313 180.543 45.2959 181.12 45.2148L189.912 43.9792C193.465 43.4799 196.327 43.6815 198.497 44.5842C200.668 45.4869 201.926 47.1681 202.272 49.628C202.545 51.5715 202.173 53.3271 201.154 54.8948C200.136 56.4625 198.609 57.6061 196.573 58.3257L196.54 58.4233ZM189.563 57.0348C191.173 56.8086 192.295 56.3102 192.93 55.5397C193.565 54.7691 193.795 53.7613 193.62 52.5162C193.364 50.6941 192.021 49.9538 189.592 50.2952L189.318 50.3337L189.336 57.0668L189.563 57.0348ZM189.617 70.6377C191.439 70.3816 192.754 69.8251 193.563 68.9683C194.367 68.081 194.678 66.9845 194.494 65.6786C194.358 64.7069 193.871 64.001 193.035 63.5611C192.23 63.1169 191.098 62.9972 189.64 63.2021L189.322 63.2469L189.344 70.6761L189.617 70.6377ZM223.912 45.7505C223.932 46.3361 223.654 46.6694 223.077 46.7505L214.377 47.9732L214.489 53.0672L221.413 52.0941C222.081 52.0002 222.414 52.2785 222.413 52.9291L222.504 58.5369C222.524 59.1225 222.246 59.4558 221.669 59.5369L214.608 60.5292L214.732 66.0395L223.342 64.8296C223.98 64.7399 224.298 65.0204 224.296 65.6709L224.381 71.2332C224.402 71.8188 224.123 72.1521 223.546 72.2332L206.373 74.6467C205.735 74.7363 205.417 74.4559 205.419 73.8054L204.865 42.7603C204.844 42.1748 205.123 41.8415 205.7 41.7604L222.873 39.3469C223.51 39.2572 223.829 39.5377 223.827 40.1882L223.912 45.7505ZM249.468 44.5279C249.805 46.927 249.427 49.0859 248.335 51.0047C247.242 52.9235 245.566 54.4441 243.309 55.5666L251.629 67.1716C251.827 67.4843 251.866 67.7576 251.744 67.9915C251.648 68.1908 251.433 68.3139 251.099 68.3609L242.672 69.5453C242.125 69.6221 241.729 69.4455 241.482 69.0156L235.241 58.6514L235.262 69.7041C235.252 70.2939 234.958 70.6293 234.381 70.7104L227.184 71.7219C226.516 71.8158 226.183 71.5375 226.184 70.887L226.17 39.7196C226.185 39.1601 226.48 38.8399 227.057 38.7588L236.395 37.4464C238.217 37.1903 239.885 37.1572 241.398 37.3471C242.911 37.5371 244.238 37.9391 245.377 38.5532C246.512 39.1369 247.429 39.937 248.13 40.9534C248.826 41.9395 249.272 43.131 249.468 44.5279ZM235.241 44.4371L235.267 52.8876L235.404 52.8684C237.257 52.6081 238.561 51.9757 239.318 50.9712C240.105 49.9625 240.401 48.7597 240.205 47.3627C240.047 46.2391 239.561 45.4248 238.746 44.9199C237.958 44.3803 236.851 44.2109 235.423 44.4114L235.241 44.4371ZM270.872 39.1972C270.862 39.787 270.584 40.1203 270.037 40.1971L261.975 41.3302L261.939 48.3495L268.681 47.402C269.349 47.3081 269.682 47.5864 269.681 48.237L269.72 53.8057C269.71 54.3955 269.417 54.7309 268.84 54.812L261.961 55.7787L261.997 65.9467C261.987 66.5365 261.693 66.872 261.116 66.9531L253.555 68.0158C252.886 68.1097 252.553 67.8314 252.555 67.1808L252.502 36.0654C252.512 35.4756 252.805 35.1401 253.382 35.059L269.872 32.7415C270.51 32.6519 270.828 32.9324 270.826 33.5829L270.872 39.1972ZM291.369 36.2701C291.389 36.8557 291.111 37.189 290.534 37.2701L281.833 38.4928L281.945 43.5868L288.869 42.6137C289.537 42.5198 289.871 42.7981 289.869 43.4487L289.961 49.0565C289.981 49.6421 289.703 49.9754 289.126 50.0565L282.065 51.0488L282.189 56.5591L290.798 55.3492C291.436 55.2595 291.754 55.54 291.753 56.1905L291.838 61.7528C291.858 62.3384 291.58 62.6717 291.003 62.7528L273.83 65.1663C273.192 65.2559 272.874 64.9755 272.875 64.325L272.321 33.2799C272.301 32.6944 272.579 32.3611 273.156 32.28L290.329 29.8665C290.967 29.7768 291.285 30.0573 291.284 30.7078L291.369 36.2701ZM302.084 61.6599C300.626 61.8648 299.134 61.9351 297.608 61.8709C296.112 61.8025 294.748 61.576 293.518 61.1916C292.998 61.0169 292.747 60.6651 292.765 60.136L292.805 54.1381C292.819 53.7955 292.91 53.5659 293.08 53.4492C293.28 53.3282 293.542 53.3223 293.867 53.4314C295.007 53.8287 296.147 54.1175 297.287 54.2979C298.453 54.4437 299.613 54.4355 300.767 54.2733C301.982 54.1026 302.935 53.7209 303.626 53.1283C304.312 52.5054 304.594 51.7536 304.47 50.8729C304.363 50.1137 303.972 49.5338 303.297 49.1333C302.621 48.7327 301.62 48.3315 300.294 47.9295C299.423 47.6803 298.558 47.3682 297.7 46.9933C296.868 46.5837 296.102 46.0876 295.401 45.5048C294.73 44.9178 294.15 44.2096 293.662 43.3801C293.174 42.5507 292.851 41.5741 292.693 40.4505C292.441 38.6588 292.599 37.0263 293.166 35.553C293.729 34.0494 294.551 32.7415 295.634 31.6294C296.742 30.4826 298.052 29.5553 299.563 28.8475C301.104 28.1354 302.725 27.6598 304.426 27.4208C305.64 27.2501 306.838 27.1748 308.017 27.1948C309.193 27.1844 310.285 27.2476 311.295 27.3844C311.837 27.494 312.101 27.8286 312.087 28.388L312.094 33.7289C312.093 34.3795 311.76 34.6585 311.097 34.5659C310.234 34.3774 309.307 34.2756 308.313 34.2603C307.346 34.2104 306.483 34.2388 305.724 34.3455C304.6 34.5034 303.741 34.8875 303.145 35.4976C302.55 36.1078 302.307 36.8076 302.418 37.5972C302.534 38.4171 302.975 39.021 303.741 39.4087C304.508 39.7964 305.464 40.2041 306.608 40.6317C308.627 41.3389 310.288 42.2513 311.591 43.3688C312.92 44.4517 313.73 46.0257 314.02 48.0907C314.255 49.761 314.138 51.3567 313.671 52.8779C313.229 54.3645 312.491 55.7224 311.456 56.9518C310.417 58.1507 309.105 59.1713 307.52 60.0134C305.931 60.8251 304.119 61.374 302.084 61.6599ZM336.924 23.318C337.592 23.2241 337.925 23.5025 337.924 24.153L337.95 29.6306C337.94 30.2204 337.647 30.5559 337.07 30.6369L330.419 31.5716L330.46 56.3248C330.45 56.9146 330.157 57.25 329.58 57.3311L322.292 58.3554C321.623 58.4493 321.29 58.171 321.292 57.5205L321.309 32.852L314.795 33.7675C314.127 33.8614 313.793 33.5831 313.795 32.9325L313.768 27.4549C313.778 26.8651 314.072 26.5297 314.649 26.4486L336.924 23.318Z" fill="#EAF1FC"/>
</g>
<g filter="url(#filter1_d)">
<path fill-rule="evenodd" clip-rule="evenodd" d="M279 97.0082C279 115.732 294.232 131 312.993 131C331.77 131 347 115.732 347 97.0082C347 78.2867 331.77 63 312.993 63C294.232 63 279 78.2867 279 97.0082Z" fill="#4E3BFB"/>
<path d="M276 97.0082C276 117.386 292.573 134 312.993 134C333.428 134 350 117.387 350 97.0082C350 76.6332 333.43 60 312.993 60C292.571 60 276 76.6339 276 97.0082Z" stroke="#EAF1FC" stroke-width="6"/>
</g>
<path d="M309.245 110.07C302.007 107.994 297.867 100.448 299.93 93.2527C301.994 86.0541 309.504 81.8508 316.742 83.9263C323.981 86.0018 328.138 93.5506 326.074 100.749C324.011 107.944 316.484 112.145 309.245 110.07Z" fill="#090055"/>
<path fill-rule="evenodd" clip-rule="evenodd" d="M280.32 87.6375C275.159 105.633 285.592 124.507 303.625 129.677C321.673 134.852 340.52 124.375 345.68 106.379C350.84 88.3846 340.415 69.4943 322.367 64.3193C304.334 59.1486 285.48 69.6434 280.32 87.6375ZM308.31 113.337C300.954 111.24 293.124 108.814 286.229 106.059C284.237 105.268 283.274 104.464 283.662 102.253C284.391 98.2101 285.523 94.1587 286.701 90.05C287.88 85.9403 289.067 81.9029 290.592 78.0872C291.434 76.0075 292.676 75.8375 294.786 76.2185C302.097 77.5226 310.019 79.6276 317.368 81.7487C324.74 83.8488 332.557 86.2566 339.449 89.0252C341.451 89.823 342.416 90.6257 342.015 92.832C341.3 96.8797 340.168 100.933 338.99 105.043C337.812 109.152 336.624 113.187 335.085 116.998C334.256 119.082 333.012 119.253 330.892 118.866C323.584 117.548 315.676 115.461 308.31 113.337Z" fill="#090055"/>
<path d="M309.245 110.07C302.007 107.994 297.867 100.448 299.93 93.2527C301.994 86.0541 309.504 81.8508 316.742 83.9263C323.981 86.0018 328.138 93.5506 326.074 100.749C324.011 107.944 316.484 112.145 309.245 110.07Z" stroke="#EAF1FC"/>
<path fill-rule="evenodd" clip-rule="evenodd" d="M280.32 87.6375C275.159 105.633 285.592 124.507 303.625 129.677C321.673 134.852 340.52 124.375 345.68 106.379C350.84 88.3846 340.415 69.4943 322.367 64.3193C304.334 59.1486 285.48 69.6434 280.32 87.6375ZM308.31 113.337C300.954 111.24 293.124 108.814 286.229 106.059C284.237 105.268 283.274 104.464 283.662 102.253C284.391 98.2101 285.523 94.1587 286.701 90.05C287.88 85.9403 289.067 81.9029 290.592 78.0872C291.434 76.0075 292.676 75.8375 294.786 76.2185C302.097 77.5226 310.019 79.6276 317.368 81.7487C324.74 83.8488 332.557 86.2566 339.449 89.0252C341.451 89.823 342.416 90.6257 342.015 92.832C341.3 96.8797 340.168 100.933 338.99 105.043C337.812 109.152 336.624 113.187 335.085 116.998C334.256 119.082 333.012 119.253 330.892 118.866C323.584 117.548 315.676 115.461 308.31 113.337Z" stroke="#EAF1FC"/>
<g filter="url(#filter2_d)">
<path fill-rule="evenodd" clip-rule="evenodd" d="M138.219 100.328C130.683 98.8797 125.115 100.851 122.177 104.343C120.173 106.701 119.326 108.626 118.431 113.286L138.554 117.153C137.821 117.82 136.87 118.38 135.727 118.877C135.015 119.184 134.271 119.501 133.505 119.828C129.021 121.74 123.786 123.972 119.919 126.336C115.996 128.744 114.26 131.571 113.177 137.208L146.079 143.532L146.079 143.531L155.667 145.374L156.311 142.021C158.928 145.38 162.705 147.682 167.244 148.554C170.443 149.169 173.638 149.782 176.832 150.396C180.736 151.146 184.467 150.748 187.746 149.323C187.573 149.985 187.416 150.691 187.27 151.449C209.178 155.659 231.086 159.869 252.994 164.08L260.633 124.332L242.475 120.843C241.03 124.327 238.516 126.547 235.356 127.436C234.44 122.239 230.031 117.973 221.899 116.41C218.702 115.796 215.507 115.182 212.312 114.568C205.473 113.254 200.254 114.757 197.152 117.656C194.62 113.337 190.347 110.346 184.736 109.268C181.543 108.654 178.347 108.04 175.149 107.426C169.67 106.373 164.555 107.619 160.554 110.781C158.841 106.703 154.637 103.483 147.806 102.17C144.609 101.555 141.413 100.942 138.219 100.328Z" fill="#EAF1FC"/>
<path d="M138.785 97.3819C130.525 95.7945 123.722 97.8519 119.887 102.406C118.74 103.756 117.844 105.082 117.125 106.783C116.429 108.431 115.946 110.319 115.484 112.719C115.334 113.501 115.501 114.31 115.947 114.968C116.393 115.627 117.083 116.082 117.864 116.232L129.2 118.41C125.508 120.012 121.522 121.84 118.354 123.776L118.349 123.779C116.085 125.169 114.291 126.786 112.932 128.982C111.602 131.131 110.806 133.647 110.231 136.642C109.918 138.269 110.983 139.842 112.61 140.154L145.513 146.478C145.533 146.482 145.553 146.486 145.573 146.489L155.1 148.32C156.075 148.507 157.031 148.2 157.707 147.573C160.27 149.51 163.31 150.853 166.678 151.5C168.249 151.802 169.869 152.113 171.489 152.424C173.098 152.734 174.707 153.043 176.266 153.342C179.242 153.914 182.17 153.907 184.94 153.338C185.383 153.885 186.007 154.261 186.704 154.395C203.867 157.693 221.029 160.991 238.192 164.29L252.427 167.026C254.054 167.338 255.627 166.273 255.94 164.646L263.579 124.898C263.729 124.117 263.563 123.308 263.116 122.649C262.67 121.99 261.98 121.536 261.199 121.386L243.041 117.897C241.643 117.628 240.249 118.379 239.704 119.693C239.062 121.241 238.187 122.405 237.139 123.234C234.811 118.346 229.686 114.852 222.466 113.464C220.905 113.164 219.282 112.853 217.66 112.541C216.045 112.231 214.431 111.921 212.878 111.622C206.919 110.477 201.729 111.224 197.848 113.446C194.804 109.798 190.496 107.32 185.303 106.322C183.607 105.996 182.061 105.699 180.514 105.402C178.965 105.104 177.416 104.807 175.715 104.48C170.632 103.503 165.732 104.247 161.548 106.536C158.818 102.903 154.291 100.361 148.372 99.2238C146.774 98.9166 145.176 98.6097 143.579 98.3029L143.577 98.3026L143.574 98.3019C141.977 97.9952 140.381 97.6886 138.785 97.3819Z" stroke="#EAF1FC" stroke-width="6" stroke-linejoin="round"/>
</g>
<path d="M113.177 137.208L146.08 143.532L147.904 134.041L131.798 130.945L131.82 130.83C136.66 128.301 142.107 126.962 146.748 123.917C149.411 122.162 150.931 119.532 151.605 116.023C152.987 108.833 148.688 102.34 138.219 100.328C130.683 98.8794 125.115 100.851 122.178 104.343C120.173 106.701 119.326 108.626 118.431 113.285L129.245 115.364C129.742 112.775 130.49 111.368 131.78 110.244C132.932 109.213 134.355 108.95 136.253 109.314C139.359 109.911 140.66 111.832 140.185 114.305C139.776 116.433 138.201 117.801 135.728 118.876C130.85 120.981 124.447 123.568 119.919 126.336C115.997 128.743 114.26 131.571 113.177 137.208Z" fill="#4E3BFB"/>
<path d="M167.245 148.554C177.886 150.599 187.246 144.107 189.656 131.567C192.055 119.085 186.194 109.548 175.149 107.426C164.508 105.38 155.241 112.01 152.842 124.492C150.432 137.032 156.833 146.553 167.245 148.554ZM168.938 140.052C164.164 139.134 163.274 133.833 164.634 126.758C165.983 119.74 168.818 114.917 173.593 115.835C178.367 116.752 179.213 122.283 177.864 129.301C176.504 136.376 173.713 140.969 168.938 140.052Z" fill="#4E3BFB"/>
<path d="M187.27 151.448L220.173 157.772L221.997 148.281L205.891 145.185L205.913 145.07C210.753 142.541 216.2 141.202 220.841 138.157C223.505 136.403 225.024 133.772 225.699 130.263C227.081 123.073 222.781 116.58 212.312 114.568C204.777 113.12 199.209 115.092 196.271 118.583C194.267 120.942 193.42 122.866 192.524 127.526L203.338 129.604C203.836 127.016 204.584 125.609 205.873 124.485C207.026 123.453 208.448 123.19 210.347 123.555C213.453 124.152 214.754 126.072 214.278 128.545C213.869 130.674 212.294 132.041 209.821 133.117C204.943 135.221 198.541 137.808 194.012 140.576C190.09 142.984 188.354 145.811 187.27 151.448Z" fill="#4E3BFB"/>
<path d="M231.902 160.026L243.407 162.238L251.046 122.49L242.475 120.842C240.252 126.201 235.503 128.569 229.764 127.704L228.249 135.585L236.302 137.133L231.902 160.026Z" fill="#4E3BFB"/>
<path d="M116.372 137.822L149.275 144.145L151.099 134.654L134.993 131.559L135.015 131.444C139.855 128.915 145.302 127.575 149.943 124.531C152.607 122.776 154.126 120.145 154.801 116.637C156.183 109.446 151.883 102.954 141.414 100.941C133.879 99.4932 128.311 101.465 125.373 104.956C123.369 107.315 122.522 109.24 121.626 113.899L132.441 115.978C132.938 113.389 133.686 111.982 134.975 110.858C136.128 109.827 137.55 109.563 139.449 109.928C142.555 110.525 143.856 112.445 143.38 114.919C142.971 117.047 141.396 118.415 138.923 119.49C134.045 121.595 127.643 124.181 123.114 126.95C119.192 129.357 117.456 132.185 116.372 137.822Z" fill="#E85593"/>
<path d="M170.44 149.168C181.082 151.213 190.442 144.721 192.852 132.181C195.251 119.699 189.389 110.162 178.345 108.039C167.703 105.994 158.437 112.623 156.037 125.106C153.627 137.645 160.029 147.167 170.44 149.168ZM172.134 140.665C167.36 139.748 166.47 134.447 167.83 127.372C169.178 120.354 172.014 115.531 176.788 116.449C181.563 117.366 182.408 122.897 181.06 129.915C179.7 136.99 176.908 141.583 172.134 140.665Z" fill="#E85593"/>
<path d="M190.466 152.062L223.369 158.386L225.193 148.895L209.087 145.799L209.109 145.684C213.949 143.155 219.396 141.816 224.037 138.771C226.7 137.017 228.22 134.386 228.894 130.877C230.276 123.687 225.977 117.194 215.508 115.182C207.972 113.734 202.404 115.705 199.467 119.197C197.462 121.555 196.615 123.48 195.72 128.14L206.534 130.218C207.031 127.629 207.779 126.222 209.069 125.098C210.221 124.067 211.644 123.804 213.542 124.169C216.648 124.766 217.949 126.686 217.474 129.159C217.065 131.288 215.49 132.655 213.017 133.73C208.139 135.835 201.736 138.422 197.208 141.19C193.286 143.597 191.549 146.425 190.466 152.062Z" fill="#E85593"/>
<path d="M235.098 160.64L246.602 162.851L254.241 123.103L245.671 121.456C243.448 126.815 238.698 129.182 232.959 128.318L231.445 136.199L239.498 137.746L235.098 160.64Z" fill="#E85593"/>
<path d="M119.568 138.436L152.471 144.76L154.295 135.268L138.189 132.173L138.211 132.058C143.051 129.529 148.498 128.19 153.139 125.145C155.802 123.39 157.322 120.76 157.996 117.251C159.378 110.06 155.079 103.568 144.61 101.556C137.074 100.107 131.506 102.079 128.569 105.571C126.564 107.929 125.717 109.854 124.822 114.513L135.636 116.592C136.134 114.003 136.881 112.596 138.171 111.472C139.323 110.441 140.746 110.178 142.644 110.542C145.75 111.139 147.051 113.06 146.576 115.533C146.167 117.661 144.592 119.029 142.119 120.104C137.241 122.209 130.838 124.796 126.31 127.564C122.388 129.971 120.651 132.799 119.568 138.436Z" fill="#211680"/>
<path d="M173.636 149.782C184.277 151.827 193.637 145.335 196.047 132.795C198.446 120.313 192.585 110.776 181.54 108.653C170.899 106.608 161.632 113.237 159.233 125.72C156.823 138.26 163.224 147.781 173.636 149.782ZM175.33 141.28C170.555 140.362 169.665 135.061 171.025 127.986C172.374 120.968 175.21 116.145 179.984 117.063C184.758 117.98 185.604 123.511 184.255 130.529C182.895 137.604 180.104 142.197 175.33 141.28Z" fill="#211680"/>
<path d="M193.661 152.676L226.564 159L228.388 149.509L212.282 146.413L212.304 146.298C217.144 143.769 222.591 142.43 227.232 139.385C229.896 137.631 231.415 135 232.09 131.491C233.472 124.301 229.172 117.808 218.703 115.796C211.168 114.348 205.6 116.32 202.662 119.811C200.658 122.17 199.811 124.094 198.915 128.754L209.729 130.832C210.227 128.244 210.975 126.836 212.264 125.712C213.417 124.681 214.839 124.418 216.738 124.783C219.844 125.38 221.145 127.3 220.669 129.773C220.26 131.902 218.685 133.269 216.212 134.345C211.334 136.449 204.932 139.036 200.403 141.804C196.481 144.212 194.745 147.039 193.661 152.676Z" fill="#211680"/>
<path d="M238.293 161.254L249.798 163.465L257.437 123.718L248.866 122.07C246.643 127.429 241.894 129.797 236.155 128.932L234.64 136.813L242.693 138.361L238.293 161.254Z" fill="#211680"/>
<path d="M122.764 139.05L155.667 145.374L157.491 135.883L141.385 132.787L141.407 132.672C146.247 130.143 151.694 128.804 156.335 125.759C158.998 124.004 160.518 121.374 161.192 117.865C162.574 110.675 158.275 104.182 147.806 102.17C140.271 100.722 134.702 102.693 131.765 106.185C129.761 108.543 128.913 110.468 128.018 115.127L138.832 117.206C139.33 114.617 140.077 113.21 141.367 112.086C142.519 111.055 143.942 110.792 145.84 111.157C148.946 111.754 150.247 113.674 149.772 116.147C149.363 118.276 147.788 119.643 145.315 120.718C140.437 122.823 134.034 125.41 129.506 128.178C125.584 130.585 123.847 133.413 122.764 139.05Z" fill="#090055"/>
<path d="M176.832 150.396C187.473 152.441 196.833 145.949 199.243 133.409C201.642 120.927 195.781 111.39 184.737 109.268C174.095 107.222 164.828 113.852 162.429 126.334C160.019 138.874 166.42 148.395 176.832 150.396ZM178.526 141.894C173.751 140.976 172.861 135.676 174.221 128.6C175.57 121.583 178.406 116.759 183.18 117.677C187.954 118.595 188.8 124.125 187.451 131.143C186.091 138.218 183.3 142.811 178.526 141.894Z" fill="#090055"/>
<path d="M196.857 153.291L229.76 159.614L231.584 150.123L215.478 147.028L215.5 146.913C220.341 144.383 225.787 143.044 230.428 140C233.092 138.245 234.611 135.614 235.286 132.105C236.668 124.915 232.368 118.422 221.899 116.41C214.364 114.962 208.796 116.934 205.858 120.425C203.854 122.784 203.007 124.709 202.111 129.368L212.926 131.446C213.423 128.858 214.171 127.451 215.46 126.327C216.613 125.296 218.035 125.032 219.934 125.397C223.04 125.994 224.341 127.914 223.865 130.388C223.456 132.516 221.881 133.883 219.408 134.959C214.53 137.063 208.128 139.65 203.599 142.418C199.677 144.826 197.941 147.653 196.857 153.291Z" fill="#090055"/>
<path d="M241.489 161.869L252.994 164.08L260.633 124.332L252.062 122.685C249.839 128.043 245.09 130.411 239.351 129.546L237.836 137.427L245.889 138.975L241.489 161.869Z" fill="#090055"/>
<defs>
<filter id="filter0_d" x="-8" y="-2" width="374.083" height="133.224" filterUnits="userSpaceOnUse" color-interpolation-filters="sRGB">
<feFlood flood-opacity="0" result="BackgroundImageFix"/>
<feColorMatrix in="SourceAlpha" type="matrix" values="0 0 0 0 0 0 0 0 0 0 0 0 0 0 0 0 0 0 127 0" result="hardAlpha"/>
<feOffset dx="2" dy="2"/>
<feGaussianBlur stdDeviation="2"/>
<feColorMatrix type="matrix" values="0 0 0 0 0 0 0 0 0 0 0 0 0 0 0 0 0 0 0.25 0"/>
<feBlend mode="normal" in2="BackgroundImageFix" result="effect1_dropShadow"/>
<feBlend mode="normal" in="SourceGraphic" in2="effect1_dropShadow" result="shape"/>
</filter>
<filter id="filter1_d" x="271" y="55" width="88" height="88" filterUnits="userSpaceOnUse" color-interpolation-filters="sRGB">
<feFlood flood-opacity="0" result="BackgroundImageFix"/>
<feColorMatrix in="SourceAlpha" type="matrix" values="0 0 0 0 0 0 0 0 0 0 0 0 0 0 0 0 0 0 127 0" result="hardAlpha"/>
<feOffset dx="2" dy="2"/>
<feGaussianBlur stdDeviation="2"/>
<feColorMatrix type="matrix" values="0 0 0 0 0 0 0 0 0 0 0 0 0 0 0 0 0 0 0.25 0"/>
<feBlend mode="normal" in2="BackgroundImageFix" result="effect1_dropShadow"/>
<feBlend mode="normal" in="SourceGraphic" in2="effect1_dropShadow" result="shape"/>
</filter>
<filter id="filter2_d" x="105.176" y="91.8536" width="167.457" height="84.2272" filterUnits="userSpaceOnUse" color-interpolation-filters="sRGB">
<feFlood flood-opacity="0" result="BackgroundImageFix"/>
<feColorMatrix in="SourceAlpha" type="matrix" values="0 0 0 0 0 0 0 0 0 0 0 0 0 0 0 0 0 0 127 0" result="hardAlpha"/>
<feOffset dx="2" dy="2"/>
<feGaussianBlur stdDeviation="2"/>
<feColorMatrix type="matrix" values="0 0 0 0 0 0 0 0 0 0 0 0 0 0 0 0 0 0 0.25 0"/>
<feBlend mode="normal" in2="BackgroundImageFix" result="effect1_dropShadow"/>
<feBlend mode="normal" in="SourceGraphic" in2="effect1_dropShadow" result="shape"/>
</filter>
</defs>
</svg>
