<svg width="133" height="178" viewBox="0 0 133 178" fill="none" xmlns="http://www.w3.org/2000/svg">
<g filter="url(#filter0_d)">
<path d="M112.717 51.5084C116.711 31.0373 105.464 17.1291 86.5147 12.0516C67.565 6.97403 50.1594 14.1951 44.0943 33.121L41.4665 40.844C33.4875 45.9394 26.6786 55.4544 23.4916 67.3486C20.97 76.7594 21.1567 86.0142 23.5053 93.6302L11.3572 129.332C8.29368 138.911 13.3757 146.71 21.058 148.769C29.2388 150.961 36.4095 146.455 40.8232 139.209L51.5109 123.309C53.1751 120.788 54.8735 119.01 57.6555 119.756C60.4375 120.501 61.0171 122.889 61.198 125.904L62.0426 144.894C62.1182 153.838 65.5977 160.703 74.3797 163.056C82.062 165.115 90.3629 160.901 92.499 151.074L100.053 113.872C105.794 108.457 110.493 100.618 112.982 91.3275C116.09 79.7303 115.084 68.3702 110.988 60.0217L112.717 51.5084Z" fill="#090055"/>
<path d="M116.637 52.3044L116.64 52.2894L116.643 52.2744C118.818 41.1275 116.886 31.3927 111.494 23.7097C106.146 16.0886 97.6912 10.9052 87.55 8.18788C77.3376 5.45149 67.251 5.95506 58.7628 9.96892C50.2244 14.0066 43.6465 21.4406 40.2963 31.8655L38.1164 38.2721C29.7055 44.1349 22.8754 54.1933 19.6279 66.3133C17.0655 75.8763 17.0827 85.4026 19.3123 93.5356L7.57038 128.044L7.55851 128.079L7.54729 128.114C3.79376 139.85 10.1159 149.978 20.0227 152.632C30.4859 155.436 39.2158 149.483 44.1911 141.368L54.8306 125.54L54.8398 125.526L54.849 125.513C55.2193 124.952 55.5342 124.52 55.8188 124.189C56.1038 123.856 56.3007 123.692 56.4125 123.616C56.4313 123.603 56.4464 123.593 56.4581 123.587C56.49 123.59 56.5427 123.599 56.6202 123.619C56.6968 123.64 56.7465 123.659 56.7758 123.671C56.7824 123.683 56.7905 123.698 56.8001 123.718C56.8588 123.84 56.947 124.081 57.0275 124.511C57.1066 124.935 57.1632 125.457 57.2034 126.114L58.0434 145.002C58.0943 149.916 59.0768 154.646 61.5649 158.584C64.1241 162.633 68.0666 165.506 73.3444 166.92C83.2512 169.574 93.7904 163.964 96.4077 151.924L96.4135 151.897L96.419 151.87L103.728 115.877C109.622 109.966 114.315 101.81 116.846 92.3628C120.015 80.5356 119.247 68.7117 115.171 59.5262L116.637 52.3044ZM56.4877 123.571C56.4892 123.57 56.4883 123.571 56.4849 123.572C56.4862 123.572 56.4871 123.571 56.4877 123.571ZM56.4276 123.584C56.4223 123.585 56.4195 123.585 56.4197 123.585C56.4198 123.584 56.4224 123.584 56.4276 123.584ZM56.8107 123.689C56.8113 123.69 56.8089 123.688 56.804 123.685C56.808 123.687 56.8102 123.689 56.8107 123.689ZM56.7594 123.645C56.7582 123.643 56.7575 123.642 56.7573 123.642C56.7571 123.642 56.7578 123.643 56.7594 123.645Z" stroke="#EAF1FC" stroke-width="8"/>
</g>
<ellipse cx="86.9189" cy="84.3439" rx="26.9824" ry="38.2051" transform="rotate(15 86.9189 84.3439)" fill="#211680"/>
<ellipse cx="49.5546" cy="74.3321" rx="26.9824" ry="38.2051" transform="rotate(15 49.5546 74.3321)" fill="#211680"/>
<path d="M86.5144 12.0516C105.464 17.1291 116.711 31.0373 112.717 51.5084L92.4987 151.074C90.3626 160.901 82.0618 165.115 74.3795 163.056C65.5975 160.703 62.118 153.838 62.0423 144.894L61.1978 125.904C61.0168 122.889 60.4372 120.501 57.6552 119.756C54.8732 119.01 53.1748 120.788 51.5106 123.309L40.8229 139.209C36.4093 146.455 29.2385 150.961 21.0577 148.769C13.3754 146.71 8.29343 138.911 11.3569 129.332L44.0941 33.1209C50.1592 14.1951 67.5648 6.97402 86.5144 12.0516Z" fill="#090055"/>
<path d="M41.427 41.0065L44.0944 33.121C50.1594 14.1951 67.5651 6.97405 86.5147 12.0516C105.464 17.1291 116.712 31.0373 112.717 51.5084L110.897 60.3624C101.639 63.2418 88.2183 63.4324 74.0998 59.6493C59.589 55.7612 47.894 48.3553 41.427 41.0065Z" fill="#211680"/>
<path d="M85.0465 16.6023C98.2431 19.8972 108.642 29.0354 107.364 43.1002C106.085 57.1651 90.3698 57.6263 75.176 53.5551C59.9822 49.484 46.7188 40.7931 52.528 28.407C58.3372 16.021 71.8498 13.3074 85.0465 16.6023Z" fill="#E85593"/>
<path d="M42.2919 69.983C43.6924 66.3802 47.5806 64.4094 51.3143 65.4098L89.6764 75.6889C93.3886 76.6836 95.768 80.3001 95.2121 84.1028L92.9678 99.4567C92.3121 103.943 87.8896 106.852 83.5103 105.679L41.7756 94.4962C37.4189 93.3288 35.0408 88.6371 36.6749 84.4332L42.2919 69.983Z" fill="#4E3BFB"/>
<path d="M43.0336 67.2153C44.4341 63.6124 48.3223 61.6416 52.056 62.6421L90.4181 72.9212C94.1303 73.9158 96.5097 77.5323 95.9538 81.3351L93.7095 96.6889C93.0538 101.175 88.6313 104.085 84.252 102.911L42.5173 91.7285C38.1606 90.5611 35.7825 85.8693 37.4166 81.6654L43.0336 67.2153Z" fill="#211680"/>
<path d="M46.8143 70.8804C47.7872 68.203 50.6458 66.7139 53.3975 67.4512L66.2736 70.9014C69.0253 71.6387 70.7564 74.3575 70.2602 77.1627C69.6993 80.3344 66.5419 82.3447 63.4308 81.5111L50.5546 78.0609C47.4435 77.2273 45.7143 73.9076 46.8143 70.8804Z" fill="#4E3BFB"/>
<circle cx="86.0914" cy="81.8973" r="5.49199" transform="rotate(15 86.0914 81.8973)" fill="#4E3BFB"/>
<path d="M44.3962 133.892L40.8227 139.209C36.4091 146.455 29.2383 150.961 21.0575 148.769C13.3752 146.71 8.29325 138.911 11.3567 129.332L15.1047 118.317C20.207 118.67 25.7591 120.227 31.1334 123.048C36.6586 125.949 41.1909 129.763 44.3962 133.892Z" fill="#211680"/>
<path d="M94.8037 139.72L92.4981 151.074C90.362 160.901 82.0612 165.115 74.3789 163.056C65.5969 160.703 62.1174 153.838 62.0417 144.894L61.75 138.334C66.5285 136.442 72.2448 135.454 78.3472 135.699C84.5047 135.947 90.1694 137.415 94.8037 139.72Z" fill="#211680"/>
<path d="M44.5232 82.5877C44.7452 81.9696 45.404 81.625 46.0383 81.795L47.2808 82.1279C47.9944 82.3191 48.3921 83.0793 48.1424 83.7746L47.0547 86.8016C46.8327 87.4196 46.1739 87.7642 45.5396 87.5943L44.2971 87.2613C43.5835 87.0701 43.1858 86.3099 43.4356 85.6147L44.5232 82.5877Z" fill="#090055"/>
<path d="M44.1853 82.0027C44.4074 81.3847 45.0661 81.0401 45.7004 81.21L46.9429 81.543C47.6565 81.7342 48.0543 82.4944 47.8045 83.1896L46.7168 86.2166C46.4948 86.8346 45.836 87.1793 45.2017 87.0093L43.9592 86.6764C43.2456 86.4852 42.8479 85.725 43.0977 85.0297L44.1853 82.0027Z" fill="#4E3BFB"/>
<path d="M50.0588 84.0709C50.2809 83.4529 50.9396 83.1083 51.574 83.2782L52.8165 83.6112C53.53 83.8024 53.9278 84.5626 53.678 85.2578L52.5904 88.2848C52.3683 88.9029 51.7096 89.2475 51.0752 89.0775L49.8327 88.7446C49.1192 88.5534 48.7214 87.7932 48.9712 87.0979L50.0588 84.0709Z" fill="#090055"/>
<path d="M49.7209 83.486C49.943 82.868 50.6017 82.5233 51.2361 82.6933L52.4786 83.0262C53.1922 83.2174 53.5899 83.9777 53.3401 84.6729L52.2525 87.6999C52.0304 88.3179 51.3717 88.6626 50.7373 88.4926L49.4948 88.1597C48.7813 87.9685 48.3835 87.2082 48.6333 86.513L49.7209 83.486Z" fill="#4E3BFB"/>
<path d="M55.594 85.5541C55.816 84.9361 56.4748 84.5914 57.1091 84.7614L58.3516 85.0943C59.0652 85.2855 59.4629 86.0458 59.2132 86.741L58.1255 89.768C57.9035 90.386 57.2447 90.7307 56.6104 90.5607L55.3679 90.2278C54.6543 90.0366 54.2566 89.2763 54.5064 88.5811L55.594 85.5541Z" fill="#090055"/>
<path d="M55.2566 84.9693C55.4786 84.3512 56.1374 84.0066 56.7717 84.1766L58.0142 84.5095C58.7278 84.7007 59.1255 85.4609 58.8757 86.1562L57.7881 89.1831C57.5661 89.8012 56.9073 90.1458 56.273 89.9759L55.0305 89.6429C54.3169 89.4517 53.9192 88.6915 54.169 87.9963L55.2566 84.9693Z" fill="#4E3BFB"/>
<ellipse cx="96.7844" cy="30.7215" rx="5.73077" ry="2.86538" transform="rotate(45 96.7844 30.7215)" fill="#211680"/>
<defs>
<filter id="filter0_d" x="0.452148" y="0.474701" width="128.35" height="177.094" filterUnits="userSpaceOnUse" color-interpolation-filters="sRGB">
<feFlood flood-opacity="0" result="BackgroundImageFix"/>
<feColorMatrix in="SourceAlpha" type="matrix" values="0 0 0 0 0 0 0 0 0 0 0 0 0 0 0 0 0 0 127 0" result="hardAlpha"/>
<feOffset dx="2" dy="2"/>
<feGaussianBlur stdDeviation="2"/>
<feComposite in2="hardAlpha" operator="out"/>
<feColorMatrix type="matrix" values="0 0 0 0 0 0 0 0 0 0 0 0 0 0 0 0 0 0 0.25 0"/>
<feBlend mode="normal" in2="BackgroundImageFix" result="effect1_dropShadow"/>
<feBlend mode="normal" in="SourceGraphic" in2="effect1_dropShadow" result="shape"/>
</filter>
</defs>
</svg>
