<svg width="48" height="36" viewBox="0 0 48 36" fill="none" xmlns="http://www.w3.org/2000/svg">
<g clip-path="url(#clip0)">
<path d="M7.56921 24.6666C7.34121 24.6666 7.22721 24.5946 7.22721 24.4506C7.22721 24.3786 7.26921 24.2826 7.35321 24.1626L10.8812 19.3926C11.4692 18.6006 11.8952 17.9646 12.1592 17.4846C12.4232 17.0046 12.5552 16.5186 12.5552 16.0266C12.5552 15.4266 12.3332 14.9466 11.8892 14.5866C11.4452 14.2146 10.8392 14.0286 10.0712 14.0286C9.36321 14.0286 8.70921 14.1786 8.10921 14.4786C7.92921 14.5746 7.81521 14.6226 7.76721 14.6226C7.68321 14.6226 7.64121 14.5566 7.64121 14.4246V12.6426C7.64121 12.4746 7.71921 12.3546 7.87521 12.2826C8.77521 11.8986 9.80121 11.7066 10.9532 11.7066C11.8532 11.7066 12.6392 11.8566 13.3112 12.1566C13.9952 12.4566 14.5232 12.8826 14.8952 13.4346C15.2792 13.9866 15.4712 14.6406 15.4712 15.3966C15.4712 16.1166 15.3092 16.8126 14.9852 17.4846C14.6732 18.1566 14.2052 18.9006 13.5812 19.7166L11.5112 22.3806H15.6692C15.8492 22.3806 15.9392 22.4646 15.9392 22.6326V24.3966C15.9392 24.5766 15.8492 24.6666 15.6692 24.6666H7.56921Z" fill="#EAF1FC"/>
<path fill-rule="evenodd" clip-rule="evenodd" d="M20.0394 4.87251C20.7582 4.15378 21.733 3.75 22.7494 3.75C23.7659 3.75 24.7407 4.15378 25.4594 4.87251C26.1782 5.59125 26.5819 6.56606 26.5819 7.5825C26.5819 8.59894 26.1782 9.57375 25.4594 10.2925C24.973 10.7789 24.3692 11.1211 23.7147 11.2915V13.3103C24.6193 18.0071 27.8765 19.9163 33.7406 19.6298C33.9197 19.0185 34.25 18.4557 34.7086 17.9972C35.4273 17.2784 36.4022 16.8746 37.4187 16.8746C38.4352 16.8746 39.41 17.2784 40.1288 17.9972C40.8476 18.716 41.2514 19.6908 41.2514 20.7073C41.2514 21.7238 40.8476 22.6987 40.1288 23.4174C39.41 24.1362 38.4352 24.54 37.4187 24.54C36.4022 24.54 35.4273 24.1362 34.7086 23.4174C34.1209 22.8298 33.7438 22.0709 33.6258 21.258C27.788 21.0589 26.1808 20.617 23.7147 17.6367V24.3328C23.8851 24.3771 24.0527 24.4333 24.2161 24.501C24.6811 24.6936 25.1037 24.9759 25.4596 25.3318C25.8155 25.6877 26.0978 26.1102 26.2904 26.5752C26.483 27.0402 26.5821 27.5386 26.5821 28.0419C26.5821 28.5453 26.483 29.0436 26.2904 29.5086C26.0978 29.9736 25.8155 30.3962 25.4596 30.7521C25.1037 31.108 24.6811 31.3903 24.2161 31.5829C23.7511 31.7755 23.2527 31.8746 22.7494 31.8746C21.7329 31.8746 20.7581 31.4708 20.0393 30.7521C19.3205 30.0333 18.9167 29.0584 18.9167 28.0419C18.9167 27.0254 19.3205 26.0506 20.0393 25.3318C20.6202 24.751 21.3683 24.3758 22.1704 24.2532V13.6215V11.371C21.3683 11.2484 20.6203 10.8733 20.0394 10.2925C19.3207 9.57375 18.9169 8.59894 18.9169 7.5825C18.9169 6.56606 19.3207 5.59125 20.0394 4.87251ZM22.7494 5.625C22.2303 5.625 21.7324 5.83124 21.3653 6.19834C20.9982 6.56544 20.7919 7.06334 20.7919 7.5825C20.7919 8.10166 20.9982 8.59956 21.3653 8.96666C21.7324 9.33376 22.2303 9.54 22.7494 9.54C23.2686 9.54 23.7665 9.33376 24.1336 8.96666C24.5007 8.59956 24.7069 8.10166 24.7069 7.5825C24.7069 7.06334 24.5007 6.56544 24.1336 6.19834C23.7665 5.83124 23.2686 5.625 22.7494 5.625ZM37.4187 18.7496C36.8995 18.7496 36.4015 18.9559 36.0344 19.323C35.6673 19.6902 35.461 20.1881 35.461 20.7073C35.461 21.2265 35.6673 21.7245 36.0344 22.0916C36.4015 22.4587 36.8995 22.665 37.4187 22.665C37.9379 22.665 38.4358 22.4587 38.803 22.0916C39.1701 21.7245 39.3764 21.2265 39.3764 20.7073C39.3764 20.1881 39.1701 19.6902 38.803 19.323C38.4358 18.9559 37.9379 18.7496 37.4187 18.7496ZM22.7494 26.0842C22.2302 26.0842 21.7323 26.2905 21.3651 26.6576C20.998 27.0248 20.7917 27.5227 20.7917 28.0419C20.7917 28.5611 20.998 29.0591 21.3651 29.4262C21.7323 29.7934 22.2302 29.9996 22.7494 29.9996C23.0065 29.9996 23.2611 29.949 23.4986 29.8506C23.7361 29.7522 23.9519 29.608 24.1337 29.4262C24.3155 29.2444 24.4597 29.0286 24.5581 28.7911C24.6565 28.5536 24.7071 28.299 24.7071 28.0419C24.7071 27.7849 24.6565 27.5303 24.5581 27.2928C24.4597 27.0552 24.3155 26.8394 24.1337 26.6576C23.9519 26.4759 23.7361 26.3317 23.4986 26.2333C23.2611 26.1349 23.0065 26.0842 22.7494 26.0842Z" fill="#EAF1FC"/>
</g>
<defs>
<clipPath id="clip0">
<rect width="48" height="36" fill="white"/>
</clipPath>
</defs>
</svg>
