<svg width="249" height="260" viewBox="0 0 249 260" fill="none" xmlns="http://www.w3.org/2000/svg">
<g filter="url(#filter0_d)">
<path d="M170.454 196.285C170.069 196.485 169.757 196.574 169.643 196.607L169.635 196.609C169.288 196.708 168.977 196.752 168.763 196.776C168.322 196.824 167.873 196.825 167.468 196.806C166.638 196.766 165.642 196.626 164.58 196.36C162.492 195.835 159.762 194.721 157.524 192.484C156.703 191.663 155.966 190.794 155.33 189.904C154.077 189.561 152.778 189.165 151.44 188.721C151.561 189.395 151.511 190.108 151.261 190.795C150.543 192.771 148.417 193.853 146.396 193.272L147.502 189.428C146.396 193.272 146.396 193.272 146.396 193.272L146.395 193.271L146.391 193.27L146.379 193.267L146.333 193.254L146.155 193.202C146 193.157 145.773 193.091 145.483 193.006C144.902 192.836 144.068 192.591 143.049 192.286C141.011 191.677 138.228 190.83 135.253 189.883C129.466 188.039 122.441 185.656 119.055 183.861C116.891 182.714 114.421 181.181 112.517 179.105C110.537 176.945 109.037 174.032 109.323 170.391C109.406 169.319 109.586 168.329 109.825 167.426C98.9709 160.28 88.4966 152.132 80.2733 143.909C66.5128 130.149 56.7344 114.814 51.7868 101.336C49.316 94.6045 47.989 88.1697 48.0855 82.5294C48.1816 76.9091 49.7123 71.6804 53.4084 67.9843L56.1899 70.7658L53.4084 67.9843C57.1045 64.2882 62.3332 62.7575 67.9535 62.6614C73.5938 62.5649 80.0286 63.8919 86.7597 66.3627C100.238 71.3103 115.573 81.0887 129.333 94.8492C139.461 104.977 149.489 118.534 157.678 132.04C160.584 131.685 164.198 131.398 167.212 131.651C174.859 132.295 179.455 137.529 182.077 143.401C183.092 145.674 184.022 148.991 184.839 152.437C185.674 155.96 186.453 159.892 187.118 163.547C187.785 167.207 188.343 170.623 188.734 173.121C188.93 174.371 189.084 175.394 189.19 176.105C189.243 176.461 189.284 176.739 189.311 176.93L189.343 177.148L189.351 177.205L189.353 177.22L189.353 177.224L189.354 177.225C189.354 177.225 189.354 177.226 185.393 177.788L189.354 177.226C189.639 179.234 188.376 181.138 186.414 181.656C184.79 182.084 183.114 181.45 182.163 180.148C182.276 180.784 182.342 181.379 182.367 181.907C182.386 182.312 182.385 182.761 182.337 183.202C182.314 183.416 182.269 183.727 182.17 184.074L182.168 184.081C182.153 184.132 182.128 184.223 182.086 184.342C182.197 184.874 182.275 185.376 182.324 185.832C182.385 186.398 182.412 186.969 182.384 187.495C182.371 187.749 182.341 188.09 182.261 188.459C182.221 188.643 182.151 188.915 182.025 189.223C181.972 189.352 181.882 189.557 181.737 189.799C181.747 189.843 181.755 189.886 181.764 189.93C181.865 190.439 181.941 190.967 181.962 191.464C181.972 191.7 181.975 192.046 181.925 192.431C181.901 192.621 181.85 192.924 181.734 193.273C181.637 193.562 181.379 194.247 180.74 194.887C180.74 194.887 180.74 194.887 180.739 194.887L177.911 192.059C177.885 192.085 177.821 192.103 177.724 192.111L170.454 196.285ZM170.454 196.285C170.832 196.358 171.193 196.413 171.529 196.454C172.13 196.526 172.729 196.558 173.275 196.535C173.537 196.524 173.885 196.497 174.259 196.419C174.445 196.381 174.721 196.313 175.033 196.19C175.165 196.137 175.388 196.042 175.651 195.885L170.454 196.285ZM178.045 171.963C177.608 171.526 177.156 171.111 176.695 170.724C176.902 170.643 177.106 170.545 177.303 170.427C177.334 170.409 177.365 170.39 177.395 170.371C177.794 171.085 178.171 171.788 178.524 172.467C178.37 172.297 178.211 172.129 178.045 171.963ZM173.625 192.436L173.624 192.434L173.625 192.436Z" stroke="#EAF1FC" stroke-width="8" stroke-linecap="round" stroke-linejoin="round" shape-rendering="crispEdges"/>
</g>
<path d="M149.978 134.849C145.274 134.497 138.645 135.822 138.645 135.822C141.311 140.738 147.963 147.315 151.652 150.425C158.799 144.683 175.256 166.991 175.256 166.991C175.256 166.991 166.257 147.8 161.65 141.999C158.536 138.079 154.683 135.201 149.978 134.849Z" fill="#E85593"/>
<path d="M113.31 170.703C113.664 166.188 116.242 163.61 116.242 163.61C121.155 165.179 125.499 167.996 128.888 170.814C119.082 176.822 147.502 189.428 147.502 189.428C147.502 189.428 126.932 183.511 120.929 180.327C116.872 178.176 112.956 175.219 113.31 170.703Z" fill="#E85593"/>
<path fill-rule="evenodd" clip-rule="evenodd" d="M178.269 183.09C178.597 182.762 178.351 177.926 175.217 174.792C172.083 171.658 168.367 170.291 166.919 171.74C166.041 172.617 166.197 174.327 167.153 176.235C167.075 176.291 167.003 176.352 166.935 176.42C166.347 177.008 166.223 177.969 166.493 179.114C166.031 179.131 165.654 179.267 165.387 179.534C165.119 179.801 164.983 180.179 164.967 180.64C163.822 180.371 162.86 180.495 162.272 181.083C162.112 181.243 161.987 181.43 161.894 181.641C159.947 180.641 158.193 180.465 157.301 181.357C155.852 182.806 157.219 186.521 160.353 189.656C163.487 192.79 168.324 193.036 168.651 192.708C168.738 192.621 168.785 192.22 168.748 191.619C171.152 192.615 173.403 192.653 173.623 192.433C173.722 192.334 173.769 191.821 173.698 191.066C175.892 192.025 177.735 192.235 177.911 192.059C178.088 191.882 177.878 190.04 176.919 187.846C177.673 187.916 178.187 187.87 178.286 187.77C178.497 187.559 178.47 185.486 177.593 183.2C177.963 183.198 178.204 183.155 178.269 183.09Z" fill="#090055"/>
<path fill-rule="evenodd" clip-rule="evenodd" d="M175.455 182.572C175.701 182.326 175.384 178.573 172.873 176.062C170.362 173.551 167.448 172.395 166.363 173.48C165.706 174.137 165.872 175.465 166.663 176.969C166.604 177.01 166.55 177.056 166.499 177.106C166.059 177.547 165.988 178.288 166.227 179.182C165.87 179.183 165.581 179.279 165.381 179.479C165.181 179.679 165.085 179.968 165.084 180.325C164.19 180.086 163.448 180.157 163.008 180.597C162.889 180.717 162.796 180.859 162.73 181.02C161.195 180.194 159.832 180.012 159.163 180.68C158.079 181.764 159.235 184.679 161.746 187.19C164.256 189.7 168.01 190.017 168.255 189.772C168.32 189.707 168.346 189.397 168.302 188.93C170.191 189.765 171.935 189.854 172.1 189.689C172.174 189.615 172.197 189.218 172.123 188.632C173.848 189.432 175.281 189.643 175.413 189.511C175.545 189.379 175.334 187.946 174.534 186.221C175.12 186.295 175.517 186.273 175.591 186.198C175.749 186.04 175.674 184.433 174.934 182.639C175.221 182.647 175.407 182.62 175.455 182.572Z" fill="#211680"/>
<path fill-rule="evenodd" clip-rule="evenodd" d="M172.112 181.1C172.306 180.909 172.052 177.923 170.058 175.885C168.064 173.848 165.749 172.878 164.889 173.72C164.368 174.23 164.5 175.288 165.129 176.496C165.082 176.528 165.039 176.563 164.999 176.602C164.65 176.944 164.594 177.532 164.784 178.246C164.5 178.24 164.271 178.311 164.112 178.466C163.954 178.622 163.878 178.849 163.878 179.133C163.168 178.928 162.579 178.971 162.23 179.313C162.135 179.406 162.062 179.517 162.009 179.643C160.79 178.961 159.708 178.792 159.178 179.31C158.317 180.152 159.237 182.487 161.231 184.525C163.226 186.562 166.205 186.88 166.4 186.69C166.452 186.639 166.472 186.394 166.437 186.022C167.936 186.719 169.321 186.82 169.452 186.692C169.511 186.634 169.529 186.32 169.47 185.853C170.839 186.519 171.977 186.711 172.082 186.609C172.187 186.506 172.018 185.365 171.382 183.981C171.847 184.05 172.162 184.039 172.221 183.981C172.346 183.859 172.286 182.582 171.698 181.144C171.925 181.155 172.073 181.137 172.112 181.1Z" fill="#E85593"/>
<path d="M126.504 97.6776C147.044 118.218 167.566 153.731 172.047 173.246C173.418 179.214 169.203 183.779 169.203 183.779C169.203 183.779 164.638 187.994 158.67 186.623C139.155 182.142 103.642 161.621 83.1015 141.081C56.279 114.258 45.3859 81.6635 56.2366 70.8128C67.0874 59.962 99.682 70.8552 126.504 97.6776Z" fill="#4E3BFB"/>
<path d="M132.477 176.118C115.273 167.191 96.1607 154.14 83.1017 141.081C56.2792 114.258 45.3861 81.6635 56.2368 70.8127C67.0876 59.962 99.6822 70.8551 126.505 97.6776C140.051 111.224 153.589 131.283 162.523 148.97C163.723 158.278 162.028 165.984 157.015 170.996C151.558 176.453 142.909 177.979 132.477 176.118Z" fill="#090055"/>
<path d="M94.5597 151.343C90.4163 147.973 86.5482 144.527 83.1017 141.08C56.2792 114.258 45.3861 81.6634 56.2368 70.8127C67.0876 59.9619 99.6822 70.8551 126.505 97.6775C130.464 101.637 134.423 106.153 138.266 111.003C143.682 126.545 142.915 140.504 134.719 148.7C126.092 157.327 111.081 157.723 94.5597 151.343Z" fill="#211680"/>
<path d="M64.8741 118.477C51.9634 98.1424 48.3361 78.7136 56.2368 70.8128C64.2217 62.8279 83.9814 66.6179 104.551 79.8655C104.994 90.2787 101.517 100.448 93.9915 107.973C86.2231 115.741 75.6374 119.196 64.8741 118.477Z" fill="#090055"/>
<path d="M166.877 135.637C161.236 135.163 152.578 136.878 152.578 136.878C153.936 143.322 159.542 151.951 162.861 156.033C173.877 148.537 185.393 177.788 185.393 177.788C185.393 177.788 181.822 152.64 178.424 145.032C176.129 139.891 172.518 136.112 166.877 135.637Z" fill="#E85593"/>
<path d="M120.819 123.627C123.851 129.383 120.444 137.436 113.208 141.613C105.972 145.791 97.6485 144.511 94.616 138.755C91.5836 132.998 94.9909 124.946 102.227 120.768C109.462 116.591 117.786 117.87 120.819 123.627Z" fill="#4E3BFB"/>
<path d="M122.5 126.54C125.533 132.296 122.125 140.349 114.89 144.526C107.654 148.704 99.3302 147.424 96.2977 141.668C93.2652 135.911 96.6725 127.858 103.908 123.681C111.144 119.503 119.468 120.783 122.5 126.54Z" fill="#090055"/>
<path d="M118.861 128.641C121.025 132.753 118.544 138.533 113.318 141.55C108.092 144.567 102.101 143.679 99.9371 139.567C97.7728 135.454 100.255 129.674 105.48 126.657C110.706 123.64 116.697 124.528 118.861 128.641Z" fill="#E85593"/>
<defs>
<filter id="filter0_d" x="42.0806" y="56.6565" width="157.314" height="150.161" filterUnits="userSpaceOnUse" color-interpolation-filters="sRGB">
<feFlood flood-opacity="0" result="BackgroundImageFix"/>
<feColorMatrix in="SourceAlpha" type="matrix" values="0 0 0 0 0 0 0 0 0 0 0 0 0 0 0 0 0 0 127 0" result="hardAlpha"/>
<feOffset dx="2" dy="2"/>
<feGaussianBlur stdDeviation="2"/>
<feComposite in2="hardAlpha" operator="out"/>
<feColorMatrix type="matrix" values="0 0 0 0 0 0 0 0 0 0 0 0 0 0 0 0 0 0 0.25 0"/>
<feBlend mode="normal" in2="BackgroundImageFix" result="effect1_dropShadow"/>
<feBlend mode="normal" in="SourceGraphic" in2="effect1_dropShadow" result="shape"/>
</filter>
</defs>
</svg>
