<svg width="48" height="36" viewBox="0 0 48 36" fill="none" xmlns="http://www.w3.org/2000/svg">
<path fill-rule="evenodd" clip-rule="evenodd" d="M27.2164 4.875H30.4864L39.6412 10.125L37.026 17.3438L33.102 16.0312V31.125H14.7904V16.0312L10.8664 17.3438L8.25 10.125L17.406 4.875H20.676C20.676 6.68475 22.143 8.15625 23.946 8.15625C25.7486 8.15625 27.2164 6.68475 27.2164 4.875ZM33.5029 14.7975L36.2156 15.7028L38.0179 10.7408L30.1301 6.228H28.3279C27.7661 8.11913 26.0171 9.498 23.9456 9.498C21.8749 9.498 20.1251 8.11913 19.563 6.228H17.7611L9.87375 10.7408L11.676 15.7028L14.3884 14.7975L16.1078 14.223V29.772H31.7835V14.223L33.5029 14.7975Z" fill="#EAF1FC"/>
<path fill-rule="evenodd" clip-rule="evenodd" d="M17.3561 4.6875H20.8635V4.875C20.8635 6.58178 22.2471 7.96875 23.946 7.96875C25.6445 7.96875 27.0289 6.58174 27.0289 4.875V4.6875H30.5363L39.8712 10.0407L37.14 17.5796L33.2895 16.2917V31.3125H14.6029V16.2917L10.7524 17.5796L8.02002 10.0407L17.3561 4.6875ZM17.4559 5.0625L8.47998 10.2093L10.9803 17.1079L14.9779 15.7708V30.9375H32.9145V15.7708L36.912 17.1079L39.4113 10.2093L30.4364 5.0625H27.3989C27.3015 6.88841 25.79 8.34375 23.946 8.34375C22.1016 8.34375 20.5909 6.88837 20.4935 5.0625H17.4559ZM17.7113 6.0405H19.7029L19.7427 6.17458C20.2819 7.98848 21.9602 9.3105 23.9456 9.3105C25.9317 9.3105 27.6093 7.9885 28.1481 6.17461L28.188 6.0405H30.18L38.248 10.6564L36.3295 15.9384L31.971 14.4833V29.9595H15.9202V14.4833L14.4478 14.9753L11.5621 15.9384L9.64362 10.6564L17.7113 6.0405ZM17.811 6.4155L10.1039 10.8251L11.7899 15.4671L14.329 14.6197L16.2952 13.9627V29.5845H31.596V13.9627L36.1017 15.4671L37.7877 10.8251L30.0803 6.4155H28.4656C27.8395 8.31463 26.0532 9.6855 23.9456 9.6855C21.8388 9.6855 20.0517 8.31463 19.4253 6.4155H17.811Z" fill="#EAF1FC"/>
</svg>
