<svg width="89" height="88" viewBox="0 0 89 88" fill="none" xmlns="http://www.w3.org/2000/svg">
<g filter="url(#filter0_d)">
<path d="M45.4545 10C45.4549 32.3984 38.3992 39.4253 15.9091 39.4253C38.3991 39.4253 45.4549 46.4522 45.4545 68.8506C45.4549 46.4522 52.5105 39.4253 75 39.4253C52.5105 39.4253 45.4549 32.3984 45.4545 10Z" fill="#090055"/>
<path d="M24.7727 44.5747C24.7729 55.7739 21.2451 59.2874 10 59.2874C21.245 59.2874 24.7729 62.8008 24.7727 74C24.7729 62.8008 28.3007 59.2874 39.5455 59.2874C28.3007 59.2874 24.7729 55.7739 24.7727 44.5747Z" fill="#090055"/>
<path d="M24.7727 21.4023C30.3953 21.4023 32.1592 19.6456 32.1591 14.046C32.1592 19.6456 33.9231 21.4023 39.5455 21.4023C33.9231 21.4023 32.1592 23.159 32.1591 28.7586C32.1592 23.159 30.3952 21.4023 24.7727 21.4023Z" fill="#090055"/>
<path d="M49.4545 9.99994C49.4545 7.7908 47.6636 5.99997 45.4545 6C43.2453 6.00003 41.4545 7.79092 41.4545 10.0001C41.4546 12.9112 41.3294 15.4649 41.0832 17.7085C40.6098 17.5112 40.0903 17.4023 39.5455 17.4023C37.2251 17.4023 36.6357 17.0375 36.5676 16.9893C36.5185 16.9199 36.1591 16.334 36.1591 14.0459C36.1591 11.8368 34.3682 10.0459 32.159 10.046C29.9499 10.046 28.1591 11.8369 28.1591 14.046C28.1591 16.3339 27.7998 16.9198 27.7507 16.9893C27.6826 17.0375 27.0931 17.4023 24.7727 17.4023C22.5636 17.4023 20.7727 19.1932 20.7727 21.4023C20.7727 23.6114 22.5636 25.4023 24.7727 25.4023C27.0931 25.4023 27.6826 25.7671 27.7507 25.8153C27.7998 25.8848 28.1591 26.4707 28.1591 28.7586C28.1591 30.9677 29.9499 32.7586 32.159 32.7586C32.396 32.7586 32.6282 32.738 32.8539 32.6985C29.2476 34.4873 23.9251 35.4253 15.9091 35.4253C13.7 35.4253 11.9091 37.2161 11.9091 39.4253C11.9091 41.6344 13.7 43.4253 15.9091 43.4253C17.7046 43.4253 19.3649 43.4723 20.9011 43.5655C20.8173 43.8879 20.7727 44.2261 20.7727 44.5748C20.7728 50.0053 19.8567 52.2248 18.7807 53.2965C17.6996 54.3732 15.4589 55.2874 10 55.2874C7.79086 55.2874 6 57.0782 6 59.2874C6 61.4965 7.79086 63.2874 10 63.2874C15.4589 63.2874 17.6996 64.2015 18.7806 65.2782C19.8567 66.3499 20.7728 68.5695 20.7727 73.9999C20.7727 76.2091 22.5635 78 24.7727 78C26.9818 78 28.7727 76.2092 28.7727 74.0001C28.7728 68.5696 29.6889 66.3499 30.765 65.2782C31.8461 64.2015 34.0867 63.2874 39.5455 63.2874C40.1539 63.2874 40.7307 63.1515 41.247 62.9085C41.3848 64.7031 41.4546 66.6772 41.4545 68.8505C41.4545 71.0597 43.2453 72.8505 45.4545 72.8506C47.6636 72.8506 49.4545 71.0598 49.4545 68.8506C49.4547 57.8206 51.2528 51.9227 54.6165 48.5727C57.9851 45.2178 63.9189 43.4253 75 43.4253C77.2091 43.4253 79 41.6344 79 39.4253C79 37.2161 77.2091 35.4253 75 35.4253C63.9189 35.4253 57.9851 33.6328 54.6165 30.2778C51.2528 26.9278 49.4547 21.03 49.4545 9.99994ZM36.293 48.5727C37.8844 50.1576 39.1253 52.3128 39.9912 55.3119C39.8449 55.2957 39.6961 55.2874 39.5455 55.2874C34.0867 55.2874 31.8461 54.3732 30.765 53.2965C29.6961 52.232 28.7851 50.0349 28.7729 44.6838C32.1795 45.5515 34.5713 46.8581 36.293 48.5727ZM36.5676 25.8152C36.6339 25.7684 37.1941 25.4215 39.3638 25.4031C38.5609 27.4608 37.5334 29.0425 36.2931 30.2778C36.025 30.5448 35.7408 30.8018 35.4389 31.0489C35.8928 30.4001 36.1591 29.6105 36.1591 28.7587C36.1591 26.4706 36.5185 25.8847 36.5676 25.8152Z" stroke="#EAF1FC" stroke-width="8" stroke-linejoin="round"/>
</g>
<defs>
<filter id="filter0_d" x="0" y="0" width="89" height="88" filterUnits="userSpaceOnUse" color-interpolation-filters="sRGB">
<feFlood flood-opacity="0" result="BackgroundImageFix"/>
<feColorMatrix in="SourceAlpha" type="matrix" values="0 0 0 0 0 0 0 0 0 0 0 0 0 0 0 0 0 0 127 0" result="hardAlpha"/>
<feOffset dx="2" dy="2"/>
<feGaussianBlur stdDeviation="2"/>
<feComposite in2="hardAlpha" operator="out"/>
<feColorMatrix type="matrix" values="0 0 0 0 0 0 0 0 0 0 0 0 0 0 0 0 0 0 0.25 0"/>
<feBlend mode="normal" in2="BackgroundImageFix" result="effect1_dropShadow"/>
<feBlend mode="normal" in="SourceGraphic" in2="effect1_dropShadow" result="shape"/>
</filter>
</defs>
</svg>
