<svg width="1504" height="588" viewBox="0 0 1504 588" fill="none" xmlns="http://www.w3.org/2000/svg">
<rect width="1496" height="104" transform="translate(44.9172 56) rotate(15)" fill="#E85593"/>
<path d="M75.7724 88.286C79.1209 89.1833 82.1272 90.4305 84.7913 92.0278C87.4553 93.6251 89.6363 95.4794 91.3344 97.5908C93.0324 99.7023 94.1702 102.05 94.7477 104.634C95.339 107.167 95.2482 109.876 94.4752 112.761C93.7298 115.542 92.461 117.908 90.6687 119.857C88.9418 121.769 86.7826 123.233 84.191 124.25C81.6647 125.23 78.816 125.764 75.645 125.853C72.4877 125.891 69.1317 125.433 65.5771 124.481L65.1135 124.356L60.4547 141.743C60.2477 142.516 59.7578 142.799 58.9851 142.592L45.153 138.885C44.3803 138.678 44.0974 138.188 44.3045 137.416L58.3842 84.8692C58.5913 84.0965 59.0812 83.8136 59.8539 84.0207L75.7724 88.286ZM68.3325 112.961C70.9083 113.651 73.0315 113.558 74.7022 112.68C76.4244 111.817 77.5547 110.38 78.0931 108.371C78.6452 106.31 78.3846 104.501 77.3111 102.944C76.303 101.348 74.5625 100.22 72.0898 99.557L71.7807 99.4741L68.1779 112.92L68.3325 112.961ZM107.711 156.31C104.465 155.441 101.628 154.183 99.1971 152.538C96.7806 150.842 94.8677 148.811 93.4585 146.445C92.0494 144.08 91.1697 141.387 90.8194 138.367C90.5345 135.309 90.8821 131.951 91.8622 128.294L100.496 96.0703C100.703 95.2976 101.193 95.0147 101.966 95.2218L115.18 98.7624C115.953 98.9695 116.235 99.4594 116.028 100.232L107.084 133.615C106.38 136.242 106.422 138.351 107.21 139.943C108.012 141.483 109.418 142.522 111.427 143.06C113.436 143.599 115.173 143.402 116.638 142.469C118.116 141.485 119.207 139.679 119.911 137.052L128.856 103.669C129.063 102.897 129.553 102.614 130.326 102.821L143.23 106.279C144.003 106.486 144.286 106.975 144.079 107.748L135.445 139.972C134.465 143.629 133.061 146.704 131.234 149.196C129.472 151.65 127.389 153.549 124.986 154.893C122.583 156.237 119.911 157.039 116.97 157.3C114.043 157.51 110.956 157.18 107.711 156.31ZM170.136 157.881C170.909 158.088 171.192 158.577 170.985 159.35L167.982 170.555C167.775 171.328 167.285 171.611 166.513 171.403L135.603 163.121C134.83 162.914 134.547 162.424 134.754 161.652L148.834 109.105C149.041 108.332 149.531 108.05 150.304 108.257L164.136 111.963C164.909 112.17 165.191 112.66 164.984 113.433L154.218 153.615L170.136 157.881ZM205.513 167.36C206.286 167.567 206.569 168.057 206.362 168.829L203.359 180.034C203.152 180.807 202.662 181.09 201.89 180.883L170.98 172.601C170.207 172.393 169.924 171.904 170.131 171.131L184.211 118.584C184.418 117.812 184.908 117.529 185.681 117.736L199.513 121.442C200.286 121.649 200.568 122.139 200.361 122.912L189.595 163.094L205.513 167.36ZM259.29 194.275C259.465 194.653 259.504 195.023 259.407 195.383C259.255 195.95 258.716 196.109 257.788 195.861L243.183 191.947C242.359 191.727 241.882 191.24 241.753 190.487L236.296 168.816L231.285 187.517C231.078 188.29 230.588 188.572 229.815 188.365L216.756 184.866C215.983 184.659 215.7 184.169 215.907 183.396L229.987 130.85C230.194 130.077 230.684 129.794 231.457 130.002L247.684 134.35C251.033 135.247 253.969 136.448 256.492 137.952C259.081 139.419 261.135 141.129 262.654 143.082C264.225 145.049 265.243 147.226 265.708 149.615C266.223 152.017 266.122 154.557 265.405 157.236C264.466 160.739 262.75 163.537 260.257 165.63C257.764 167.722 254.684 168.912 251.018 169.2L259.29 194.275ZM242.631 145.171L238.863 159.235L239.172 159.317C241.954 160.063 244.154 159.99 245.774 159.098C247.458 158.169 248.597 156.597 249.191 154.382C249.771 152.219 249.531 150.332 248.471 148.723C247.411 147.114 245.568 145.957 242.94 145.253L242.631 145.171ZM288.222 158.546L285.965 166.969L298.252 170.261C299.025 170.468 299.308 170.958 299.101 171.731L296.388 181.854C296.181 182.627 295.691 182.909 294.918 182.702L282.632 179.41L280.189 188.529L295.257 192.566C296.03 192.773 296.313 193.263 296.106 194.036L293.393 204.159C293.186 204.931 292.696 205.214 291.924 205.007L262.018 196.994C261.246 196.787 260.963 196.297 261.17 195.525L275.25 142.978C275.457 142.205 275.947 141.923 276.719 142.13L306.624 150.143C307.397 150.35 307.68 150.84 307.473 151.612L304.761 161.735C304.553 162.508 304.064 162.791 303.291 162.584L288.222 158.546ZM342.818 220.549C342.941 220.914 342.975 221.199 342.92 221.405C342.837 221.714 342.588 221.923 342.172 222.033L331.923 225.664C331.624 225.749 331.372 225.764 331.166 225.709C330.857 225.626 330.596 225.363 330.383 224.92L326.13 213.593C323.605 213.745 321.08 213.482 318.556 212.806C315.31 211.936 312.385 210.49 309.78 208.467C307.188 206.392 305.11 203.847 303.543 200.832C302.028 197.831 301.063 194.426 300.649 190.615C300.286 186.818 300.698 182.705 301.885 178.275C303.072 173.844 304.779 170.05 307.005 166.892C309.284 163.748 311.829 161.255 314.641 159.413C317.505 157.586 320.571 156.447 323.839 155.998C327.12 155.496 330.384 155.681 333.629 156.55C336.875 157.42 339.767 158.885 342.307 160.946C344.912 162.969 346.998 165.488 348.565 168.503C350.131 171.518 351.089 174.95 351.438 178.798C351.839 182.66 351.446 186.806 350.259 191.236C349.14 195.409 347.547 198.985 345.479 201.965C343.462 204.958 341.157 207.377 338.565 209.223L342.818 220.549ZM317.572 182.478C317.088 184.281 316.767 186.1 316.607 187.934C316.46 189.717 316.542 191.368 316.853 192.887C317.215 194.419 317.827 195.743 318.688 196.857C319.549 197.971 320.727 198.728 322.221 199.128C323.714 199.529 325.113 199.462 326.416 198.927C327.718 198.393 328.884 197.546 329.912 196.386C330.993 195.24 331.915 193.858 332.68 192.241C333.51 190.586 334.166 188.857 334.649 187.054C335.146 185.199 335.442 183.374 335.537 181.577C335.697 179.742 335.596 178.059 335.234 176.526C334.937 174.956 334.358 173.614 333.497 172.5C332.636 171.385 331.458 170.628 329.964 170.228C328.47 169.828 327.072 169.895 325.769 170.429C324.467 170.963 323.268 171.829 322.174 173.027C321.146 174.187 320.242 175.601 319.464 177.27C318.699 178.887 318.069 180.623 317.572 182.478ZM367.575 225.941C364.33 225.071 361.492 223.814 359.061 222.169C356.645 220.472 354.732 218.441 353.323 216.076C351.914 213.71 351.034 211.018 350.684 207.997C350.399 204.939 350.746 201.582 351.726 197.924L360.361 165.701C360.568 164.928 361.058 164.645 361.83 164.852L375.044 168.393C375.817 168.6 376.1 169.09 375.893 169.863L366.948 203.245C366.244 205.872 366.286 207.982 367.074 209.573C367.876 211.113 369.282 212.153 371.291 212.691C373.3 213.229 375.037 213.032 376.502 212.099C377.98 211.115 379.071 209.309 379.775 206.682L388.72 173.3C388.927 172.527 389.417 172.244 390.19 172.451L403.095 175.909C403.867 176.116 404.15 176.606 403.943 177.379L395.309 209.602C394.329 213.26 392.925 216.334 391.098 218.826C389.336 221.281 387.254 223.18 384.851 224.524C382.448 225.867 379.776 226.67 376.834 226.931C373.907 227.14 370.821 226.81 367.575 225.941ZM421.671 194.304L419.414 202.727L431.701 206.019C432.473 206.226 432.756 206.716 432.549 207.488L429.837 217.611C429.63 218.384 429.14 218.667 428.367 218.46L416.081 215.168L413.637 224.286L428.706 228.324C429.479 228.531 429.761 229.021 429.554 229.793L426.842 239.916C426.635 240.689 426.145 240.972 425.372 240.765L395.467 232.752C394.694 232.545 394.412 232.055 394.619 231.282L408.698 178.736C408.905 177.963 409.395 177.68 410.168 177.887L440.073 185.9C440.846 186.107 441.129 186.597 440.922 187.37L438.209 197.493C438.002 198.265 437.512 198.548 436.74 198.341L421.671 194.304ZM444.236 246.647C441.66 245.957 439.101 244.996 436.561 243.763C434.058 242.595 431.926 241.278 430.165 239.813C429.592 239.273 429.402 238.642 429.595 237.921L432.556 226.871C432.68 226.407 432.897 226.217 433.206 226.299C433.412 226.355 433.579 226.454 433.706 226.599C435.439 228.168 437.278 229.544 439.225 230.728C441.223 231.926 443.252 232.801 445.313 233.353C447.271 233.878 448.913 233.931 450.239 233.514C451.631 233.058 452.52 232.11 452.907 230.667C453.238 229.431 453.044 228.302 452.324 227.281C451.655 226.273 450.452 225.095 448.715 223.746C446.876 222.37 445.218 220.932 443.742 219.432C442.267 217.933 441.065 216.341 440.136 214.656C439.207 212.972 438.591 211.15 438.287 209.192C438.035 207.247 438.213 205.141 438.82 202.874C439.552 200.144 440.742 197.868 442.389 196.045C444.037 194.223 445.975 192.865 448.202 191.971C450.443 191.025 452.871 190.516 455.485 190.444C458.114 190.32 460.767 190.617 463.446 191.335C465.507 191.887 467.526 192.594 469.504 193.455C471.495 194.264 473.24 195.174 474.736 196.182C475.388 196.633 475.618 197.219 475.425 197.94L472.774 207.831C472.623 208.398 472.366 208.633 472.006 208.536C471.903 208.509 471.762 208.416 471.583 208.257C470.241 207.29 468.684 206.404 466.913 205.598C465.206 204.754 463.683 204.153 462.344 203.794C460.541 203.311 459.027 203.292 457.804 203.737C456.632 204.196 455.887 205.018 455.57 206.203C455.349 207.027 455.31 207.79 455.453 208.491C455.662 209.154 456.014 209.8 456.508 210.429C457.002 211.059 457.599 211.716 458.299 212.4C459.064 213.047 459.9 213.74 460.806 214.48C462.553 215.997 464.08 217.511 465.387 219.02C466.708 220.479 467.736 221.997 468.473 223.574C469.261 225.166 469.718 226.862 469.843 228.662C470.033 230.425 469.845 232.362 469.279 234.474C468.589 237.05 467.465 239.289 465.906 241.19C464.413 243.054 462.577 244.55 460.397 245.677C458.232 246.753 455.769 247.391 453.01 247.591C450.303 247.804 447.378 247.489 444.236 246.647ZM518.732 206.977C519.505 207.184 519.788 207.674 519.581 208.446L516.806 218.801C516.599 219.574 516.109 219.857 515.336 219.65L503.745 216.544L492.751 257.576C492.544 258.349 492.054 258.632 491.281 258.425L478.144 254.905C477.372 254.698 477.089 254.208 477.296 253.435L488.29 212.403L476.699 209.297C475.927 209.09 475.644 208.6 475.851 207.827L478.625 197.472C478.832 196.7 479.322 196.417 480.095 196.624L518.732 206.977ZM549.031 215.095C552.379 215.992 555.386 217.24 558.05 218.837C560.714 220.434 562.895 222.289 564.593 224.4C566.291 226.511 567.429 228.859 568.006 231.443C568.597 233.976 568.507 236.685 567.734 239.57C566.988 242.352 565.719 244.717 563.927 246.666C562.2 248.578 560.041 250.042 557.449 251.06C554.923 252.039 552.074 252.573 548.903 252.662C545.746 252.7 542.39 252.242 538.836 251.29L538.372 251.166L533.713 268.552C533.506 269.325 533.016 269.608 532.243 269.401L518.411 265.694C517.639 265.487 517.356 264.998 517.563 264.225L531.643 211.678C531.85 210.906 532.34 210.623 533.112 210.83L549.031 215.095ZM541.591 239.77C544.167 240.461 546.29 240.367 547.961 239.489C549.683 238.626 550.813 237.189 551.351 235.18C551.904 233.12 551.643 231.311 550.569 229.753C549.561 228.158 547.821 227.029 545.348 226.366L545.039 226.283L541.436 239.729L541.591 239.77ZM580.969 283.119C577.724 282.25 574.886 280.992 572.456 279.347C570.039 277.651 568.126 275.62 566.717 273.254C565.308 270.889 564.428 268.196 564.078 265.176C563.793 262.118 564.14 258.76 565.121 255.103L573.755 222.88C573.962 222.107 574.452 221.824 575.224 222.031L588.438 225.572C589.211 225.779 589.494 226.269 589.287 227.041L580.342 260.424C579.638 263.051 579.68 265.16 580.468 266.752C581.271 268.292 582.676 269.331 584.685 269.87C586.694 270.408 588.431 270.211 589.896 269.278C591.374 268.294 592.466 266.488 593.17 263.861L602.114 230.478C602.321 229.706 602.811 229.423 603.584 229.63L616.489 233.088C617.262 233.295 617.544 233.785 617.337 234.557L608.703 266.781C607.723 270.438 606.319 273.513 604.492 276.005C602.73 278.459 600.648 280.358 598.245 281.702C595.842 283.046 593.17 283.849 590.229 284.11C587.301 284.319 584.215 283.989 580.969 283.119ZM643.394 284.69C644.167 284.897 644.45 285.387 644.243 286.159L641.241 297.364C641.034 298.137 640.544 298.42 639.771 298.213L608.861 289.93C608.089 289.723 607.806 289.234 608.013 288.461L622.092 235.914C622.3 235.142 622.789 234.859 623.562 235.066L637.394 238.772C638.167 238.979 638.45 239.469 638.243 240.242L627.476 280.424L643.394 284.69ZM678.771 294.169C679.544 294.376 679.827 294.866 679.62 295.639L676.618 306.843C676.411 307.616 675.921 307.899 675.148 307.692L644.238 299.41C643.466 299.203 643.183 298.713 643.39 297.94L657.47 245.394C657.677 244.621 658.166 244.338 658.939 244.545L672.771 248.251C673.544 248.458 673.827 248.948 673.62 249.721L662.853 289.904L678.771 294.169ZM732.548 321.085C732.723 321.463 732.762 321.832 732.665 322.193C732.514 322.759 731.974 322.918 731.047 322.67L716.442 318.757C715.618 318.536 715.141 318.049 715.011 317.297L709.554 295.626L704.543 314.326C704.336 315.099 703.846 315.382 703.073 315.175L690.014 311.675C689.241 311.468 688.959 310.978 689.166 310.206L703.245 257.659C703.452 256.887 703.942 256.604 704.715 256.811L720.943 261.159C724.291 262.056 727.227 263.257 729.75 264.761C732.339 266.228 734.393 267.938 735.913 269.891C737.484 271.858 738.502 274.036 738.966 276.424C739.482 278.826 739.381 281.366 738.663 284.045C737.724 287.548 736.008 290.346 733.515 292.439C731.022 294.531 727.942 295.722 724.276 296.009L732.548 321.085ZM715.89 271.98L712.121 286.044L712.43 286.127C715.212 286.872 717.413 286.799 719.032 285.908C720.717 284.979 721.856 283.407 722.449 281.191C723.029 279.028 722.789 277.141 721.729 275.532C720.67 273.923 718.826 272.767 716.199 272.063L715.89 271.98ZM761.481 285.355L759.224 293.778L771.51 297.07C772.283 297.278 772.566 297.767 772.359 298.54L769.647 308.663C769.439 309.436 768.95 309.719 768.177 309.512L755.89 306.219L753.447 315.338L768.515 319.375C769.288 319.582 769.571 320.072 769.364 320.845L766.652 330.968C766.445 331.741 765.955 332.024 765.182 331.816L735.277 323.803C734.504 323.596 734.221 323.106 734.428 322.334L748.508 269.787C748.715 269.015 749.205 268.732 749.978 268.939L779.883 276.952C780.656 277.159 780.938 277.649 780.731 278.422L778.019 288.544C777.812 289.317 777.322 289.6 776.549 289.393L761.481 285.355ZM816.077 347.359C816.2 347.723 816.234 348.008 816.179 348.214C816.096 348.523 815.846 348.732 815.431 348.842L805.182 352.473C804.883 352.559 804.63 352.574 804.424 352.518C804.115 352.436 803.854 352.173 803.642 351.729L799.388 340.402C796.863 340.554 794.338 340.291 791.814 339.615C788.569 338.745 785.643 337.299 783.038 335.276C780.447 333.201 778.368 330.656 776.801 327.642C775.287 324.641 774.322 321.235 773.907 317.424C773.544 313.628 773.956 309.514 775.143 305.084C776.33 300.653 778.037 296.859 780.264 293.701C782.542 290.557 785.087 288.064 787.9 286.223C790.764 284.395 793.829 283.256 797.097 282.807C800.379 282.306 803.642 282.49 806.888 283.36C810.133 284.229 813.026 285.694 815.566 287.755C818.171 289.779 820.257 292.298 821.823 295.312C823.389 298.327 824.347 301.759 824.696 305.607C825.097 309.469 824.704 313.615 823.517 318.045C822.399 322.218 820.806 325.794 818.737 328.774C816.721 331.767 814.416 334.187 811.823 336.032L816.077 347.359ZM790.83 309.287C790.347 311.09 790.025 312.909 789.865 314.743C789.719 316.526 789.801 318.177 790.112 319.696C790.474 321.228 791.086 322.552 791.946 323.666C792.807 324.78 793.985 325.537 795.479 325.938C796.973 326.338 798.371 326.271 799.674 325.736C800.977 325.202 802.142 324.355 803.171 323.195C804.251 322.049 805.173 320.667 805.938 319.05C806.768 317.395 807.424 315.666 807.908 313.863C808.404 312.008 808.7 310.183 808.795 308.386C808.956 306.552 808.854 304.868 808.492 303.336C808.195 301.765 807.616 300.423 806.755 299.309C805.894 298.195 804.717 297.437 803.223 297.037C801.729 296.637 800.33 296.704 799.028 297.238C797.725 297.773 796.527 298.639 795.433 299.836C794.404 300.996 793.501 302.411 792.722 304.079C791.958 305.697 791.327 307.432 790.83 309.287ZM840.834 352.75C837.588 351.88 834.75 350.623 832.32 348.978C829.903 347.281 827.99 345.25 826.581 342.885C825.172 340.52 824.292 337.827 823.942 334.807C823.657 331.749 824.005 328.391 824.985 324.733L833.619 292.51C833.826 291.737 834.316 291.454 835.089 291.661L848.303 295.202C849.075 295.409 849.358 295.899 849.151 296.672L840.206 330.054C839.502 332.681 839.544 334.791 840.333 336.382C841.135 337.923 842.54 338.962 844.549 339.5C846.559 340.038 848.295 339.841 849.76 338.909C851.239 337.924 852.33 336.119 853.034 333.491L861.979 300.109C862.186 299.336 862.675 299.053 863.448 299.26L876.353 302.718C877.126 302.925 877.409 303.415 877.202 304.188L868.567 336.411C867.587 340.069 866.184 343.144 864.356 345.636C862.594 348.09 860.512 349.989 858.109 351.333C855.706 352.677 853.034 353.479 850.093 353.74C847.165 353.95 844.079 353.619 840.834 352.75ZM894.929 321.113L892.673 329.536L904.959 332.828C905.732 333.035 906.015 333.525 905.808 334.298L903.095 344.421C902.888 345.193 902.398 345.476 901.626 345.269L889.339 341.977L886.896 351.095L901.964 355.133C902.737 355.34 903.02 355.83 902.813 356.602L900.1 366.725C899.893 367.498 899.403 367.781 898.631 367.574L868.725 359.561C867.953 359.354 867.67 358.864 867.877 358.091L881.957 305.545C882.164 304.772 882.654 304.489 883.426 304.696L913.331 312.709C914.104 312.916 914.387 313.406 914.18 314.179L911.468 324.302C911.261 325.075 910.771 325.358 909.998 325.15L894.929 321.113ZM917.494 373.457C914.918 372.766 912.36 371.805 909.819 370.572C907.316 369.404 905.184 368.088 903.423 366.622C902.85 366.082 902.66 365.451 902.854 364.73L905.815 353.68C905.939 353.216 906.155 353.026 906.465 353.109C906.671 353.164 906.837 353.264 906.964 353.408C908.697 354.977 910.537 356.353 912.483 357.537C914.481 358.735 916.511 359.61 918.571 360.162C920.529 360.687 922.171 360.74 923.498 360.323C924.89 359.868 925.779 358.919 926.165 357.476C926.497 356.24 926.302 355.111 925.582 354.09C924.913 353.083 923.71 351.904 921.974 350.556C920.134 349.179 918.476 347.741 917.001 346.242C915.525 344.742 914.323 343.15 913.394 341.465C912.465 339.781 911.849 337.959 911.545 336.001C911.294 334.056 911.471 331.95 912.079 329.683C912.81 326.953 914 324.677 915.648 322.855C917.296 321.032 919.233 319.674 921.46 318.78C923.701 317.835 926.129 317.326 928.744 317.253C931.372 317.129 934.026 317.426 936.704 318.144C938.765 318.696 940.784 319.403 942.762 320.264C944.754 321.074 946.498 321.983 947.995 322.991C948.647 323.442 948.876 324.028 948.683 324.749L946.033 334.64C945.881 335.207 945.625 335.442 945.264 335.345C945.161 335.318 945.02 335.225 944.842 335.067C943.5 334.1 941.943 333.213 940.171 332.407C938.465 331.563 936.942 330.962 935.602 330.603C933.799 330.12 932.286 330.101 931.062 330.546C929.89 331.005 929.145 331.827 928.828 333.012C928.607 333.836 928.568 334.599 928.712 335.3C928.921 335.963 929.272 336.609 929.766 337.239C930.26 337.868 930.857 338.525 931.557 339.209C932.322 339.856 933.158 340.549 934.064 341.289C935.811 342.806 937.338 344.32 938.645 345.829C939.966 347.288 940.995 348.806 941.732 350.384C942.52 351.975 942.976 353.671 943.101 355.471C943.292 357.234 943.104 359.171 942.538 361.284C941.848 363.859 940.723 366.098 939.165 367.999C937.671 369.863 935.835 371.359 933.656 372.486C931.49 373.563 929.028 374.2 926.269 374.4C923.561 374.613 920.636 374.299 917.494 373.457ZM991.99 333.786C992.763 333.993 993.046 334.483 992.839 335.256L990.064 345.61C989.857 346.383 989.367 346.666 988.595 346.459L977.004 343.353L966.009 384.386C965.802 385.158 965.312 385.441 964.539 385.234L951.403 381.714C950.63 381.507 950.347 381.017 950.554 380.244L961.549 339.212L949.958 336.106C949.185 335.899 948.902 335.409 949.109 334.636L951.884 324.282C952.091 323.509 952.581 323.226 953.353 323.433L991.99 333.786ZM1022.29 341.904C1025.64 342.802 1028.64 344.049 1031.31 345.646C1033.97 347.243 1036.15 349.098 1037.85 351.209C1039.55 353.321 1040.69 355.668 1041.26 358.253C1041.86 360.785 1041.76 363.494 1040.99 366.379C1040.25 369.161 1038.98 371.526 1037.19 373.476C1035.46 375.387 1033.3 376.852 1030.71 377.869C1028.18 378.848 1025.33 379.383 1022.16 379.472C1019 379.509 1015.65 379.051 1012.09 378.099L1011.63 377.975L1006.97 395.361C1006.76 396.134 1006.27 396.417 1005.5 396.21L991.67 392.504C990.897 392.297 990.614 391.807 990.821 391.034L1004.9 338.488C1005.11 337.715 1005.6 337.432 1006.37 337.639L1022.29 341.904ZM1014.85 366.58C1017.43 367.27 1019.55 367.176 1021.22 366.299C1022.94 365.435 1024.07 363.999 1024.61 361.989C1025.16 359.929 1024.9 358.12 1023.83 356.562C1022.82 354.967 1021.08 353.838 1018.61 353.175L1018.3 353.093L1014.69 366.538L1014.85 366.58ZM1054.23 409.929C1050.98 409.059 1048.14 407.802 1045.71 406.157C1043.3 404.46 1041.38 402.429 1039.98 400.064C1038.57 397.698 1037.69 395.006 1037.34 391.985C1037.05 388.927 1037.4 385.57 1038.38 381.912L1047.01 349.689C1047.22 348.916 1047.71 348.633 1048.48 348.84L1061.7 352.381C1062.47 352.588 1062.75 353.078 1062.55 353.851L1053.6 387.233C1052.9 389.86 1052.94 391.97 1053.73 393.561C1054.53 395.101 1055.93 396.141 1057.94 396.679C1059.95 397.217 1061.69 397.02 1063.15 396.087C1064.63 395.103 1065.72 393.297 1066.43 390.67L1075.37 357.288C1075.58 356.515 1076.07 356.232 1076.84 356.439L1089.75 359.897C1090.52 360.104 1090.8 360.594 1090.6 361.367L1081.96 393.59C1080.98 397.248 1079.58 400.322 1077.75 402.814C1075.99 405.269 1073.91 407.168 1071.5 408.512C1069.1 409.855 1066.43 410.658 1063.49 410.919C1060.56 411.128 1057.47 410.798 1054.23 409.929ZM1116.65 411.499C1117.43 411.706 1117.71 412.196 1117.5 412.969L1114.5 424.173C1114.29 424.946 1113.8 425.229 1113.03 425.022L1082.12 416.74C1081.35 416.533 1081.06 416.043 1081.27 415.27L1095.35 362.724C1095.56 361.951 1096.05 361.668 1096.82 361.875L1110.65 365.581C1111.43 365.788 1111.71 366.278 1111.5 367.051L1100.73 407.234L1116.65 411.499ZM1152.03 420.978C1152.8 421.185 1153.09 421.675 1152.88 422.448L1149.88 433.653C1149.67 434.425 1149.18 434.708 1148.41 434.501L1117.5 426.219C1116.72 426.012 1116.44 425.522 1116.65 424.749L1130.73 372.203C1130.93 371.43 1131.42 371.147 1132.2 371.354L1146.03 375.061C1146.8 375.268 1147.09 375.758 1146.88 376.53L1136.11 416.713L1152.03 420.978ZM1205.81 447.894C1205.98 448.272 1206.02 448.641 1205.92 449.002C1205.77 449.569 1205.23 449.728 1204.31 449.479L1189.7 445.566C1188.88 445.345 1188.4 444.858 1188.27 444.106L1182.81 422.435L1177.8 441.135C1177.59 441.908 1177.1 442.191 1176.33 441.984L1163.27 438.485C1162.5 438.277 1162.22 437.788 1162.42 437.015L1176.5 384.468C1176.71 383.696 1177.2 383.413 1177.97 383.62L1194.2 387.968C1197.55 388.865 1200.49 390.066 1203.01 391.57C1205.6 393.037 1207.65 394.747 1209.17 396.7C1210.74 398.667 1211.76 400.845 1212.22 403.233C1212.74 405.635 1212.64 408.175 1211.92 410.854C1210.98 414.357 1209.27 417.155 1206.77 419.248C1204.28 421.341 1201.2 422.531 1197.53 422.818L1205.81 447.894ZM1189.15 398.789L1185.38 412.853L1185.69 412.936C1188.47 413.681 1190.67 413.608 1192.29 412.717C1193.97 411.788 1195.11 410.216 1195.71 408.001C1196.29 405.837 1196.05 403.951 1194.99 402.341C1193.93 400.732 1192.08 399.576 1189.46 398.872L1189.15 398.789ZM1234.74 412.165L1232.48 420.587L1244.77 423.88C1245.54 424.087 1245.82 424.577 1245.62 425.349L1242.9 435.472C1242.7 436.245 1242.21 436.528 1241.44 436.321L1229.15 433.029L1226.71 442.147L1241.77 446.185C1242.55 446.392 1242.83 446.881 1242.62 447.654L1239.91 457.777C1239.7 458.55 1239.21 458.833 1238.44 458.626L1208.54 450.613C1207.76 450.406 1207.48 449.916 1207.69 449.143L1221.77 396.597C1221.97 395.824 1222.46 395.541 1223.24 395.748L1253.14 403.761C1253.91 403.968 1254.2 404.458 1253.99 405.231L1251.28 415.354C1251.07 416.126 1250.58 416.409 1249.81 416.202L1234.74 412.165ZM1289.33 474.168C1289.46 474.532 1289.49 474.817 1289.44 475.023C1289.35 475.332 1289.1 475.542 1288.69 475.651L1278.44 479.282C1278.14 479.368 1277.89 479.383 1277.68 479.328C1277.37 479.245 1277.11 478.982 1276.9 478.538L1272.65 467.211C1270.12 467.363 1267.6 467.101 1265.07 466.424C1261.83 465.555 1258.9 464.108 1256.3 462.085C1253.71 460.01 1251.63 457.466 1250.06 454.451C1248.54 451.45 1247.58 448.044 1247.17 444.234C1246.8 440.437 1247.21 436.323 1248.4 431.893C1249.59 427.463 1251.3 423.668 1253.52 420.51C1255.8 417.366 1258.35 414.873 1261.16 413.032C1264.02 411.204 1267.09 410.066 1270.36 409.616C1273.64 409.115 1276.9 409.299 1280.15 410.169C1283.39 411.038 1286.28 412.504 1288.82 414.565C1291.43 416.588 1293.51 419.107 1295.08 422.122C1296.65 425.136 1297.61 428.568 1297.95 432.416C1298.36 436.278 1297.96 440.424 1296.78 444.855C1295.66 449.027 1294.06 452.604 1292 455.583C1289.98 458.576 1287.67 460.996 1285.08 462.841L1289.33 474.168ZM1264.09 436.096C1263.61 437.899 1263.28 439.718 1263.12 441.552C1262.98 443.335 1263.06 444.986 1263.37 446.505C1263.73 448.038 1264.34 449.361 1265.2 450.475C1266.07 451.589 1267.24 452.346 1268.74 452.747C1270.23 453.147 1271.63 453.08 1272.93 452.546C1274.23 452.011 1275.4 451.164 1276.43 450.004C1277.51 448.858 1278.43 447.476 1279.2 445.859C1280.03 444.204 1280.68 442.475 1281.17 440.672C1281.66 438.818 1281.96 436.992 1282.05 435.195C1282.21 433.361 1282.11 431.677 1281.75 430.145C1281.45 428.574 1280.87 427.232 1280.01 426.118C1279.15 425.004 1277.98 424.247 1276.48 423.846C1274.99 423.446 1273.59 423.513 1272.29 424.047C1270.98 424.582 1269.79 425.448 1268.69 426.645C1267.66 427.805 1266.76 429.22 1265.98 430.889C1265.22 432.506 1264.59 434.242 1264.09 436.096ZM1314.09 479.559C1310.85 478.689 1308.01 477.432 1305.58 475.787C1303.16 474.09 1301.25 472.059 1299.84 469.694C1298.43 467.329 1297.55 464.636 1297.2 461.616C1296.92 458.558 1297.26 455.2 1298.24 451.542L1306.88 419.319C1307.08 418.546 1307.57 418.264 1308.35 418.471L1321.56 422.011C1322.33 422.218 1322.62 422.708 1322.41 423.481L1313.46 456.863C1312.76 459.491 1312.8 461.6 1313.59 463.192C1314.39 464.732 1315.8 465.771 1317.81 466.309C1319.82 466.848 1321.55 466.65 1323.02 465.718C1324.5 464.734 1325.59 462.928 1326.29 460.3L1335.24 426.918C1335.44 426.145 1335.93 425.862 1336.71 426.07L1349.61 429.527C1350.38 429.734 1350.67 430.224 1350.46 430.997L1341.83 463.22C1340.85 466.878 1339.44 469.953 1337.61 472.445C1335.85 474.899 1333.77 476.798 1331.37 478.142C1328.96 479.486 1326.29 480.288 1323.35 480.549C1320.42 480.759 1317.34 480.429 1314.09 479.559ZM1368.19 447.922L1365.93 456.345L1378.22 459.637C1378.99 459.844 1379.27 460.334 1379.07 461.107L1376.35 471.23C1376.15 472.002 1375.66 472.285 1374.88 472.078L1362.6 468.786L1360.15 477.904L1375.22 481.942C1376 482.149 1376.28 482.639 1376.07 483.412L1373.36 493.535C1373.15 494.307 1372.66 494.59 1371.89 494.383L1341.98 486.37C1341.21 486.163 1340.93 485.673 1341.14 484.9L1355.22 432.354C1355.42 431.581 1355.91 431.298 1356.68 431.505L1386.59 439.519C1387.36 439.726 1387.65 440.215 1387.44 440.988L1384.73 451.111C1384.52 451.884 1384.03 452.167 1383.26 451.96L1368.19 447.922ZM1390.75 500.266C1388.18 499.576 1385.62 498.614 1383.08 497.381C1380.57 496.213 1378.44 494.897 1376.68 493.431C1376.11 492.891 1375.92 492.26 1376.11 491.539L1379.07 480.489C1379.2 480.025 1379.41 479.835 1379.72 479.918C1379.93 479.973 1380.1 480.073 1380.22 480.217C1381.96 481.786 1383.8 483.162 1385.74 484.346C1387.74 485.544 1389.77 486.419 1391.83 486.972C1393.79 487.496 1395.43 487.55 1396.76 487.132C1398.15 486.677 1399.04 485.728 1399.42 484.286C1399.76 483.049 1399.56 481.92 1398.84 480.899C1398.17 479.892 1396.97 478.714 1395.23 477.365C1393.39 475.988 1391.73 474.55 1390.26 473.051C1388.78 471.551 1387.58 469.959 1386.65 468.275C1385.72 466.59 1385.11 464.769 1384.8 462.81C1384.55 460.865 1384.73 458.759 1385.34 456.493C1386.07 453.762 1387.26 451.486 1388.91 449.664C1390.55 447.841 1392.49 446.483 1394.72 445.589C1396.96 444.644 1399.39 444.135 1402 444.062C1404.63 443.938 1407.28 444.235 1409.96 444.953C1412.02 445.505 1414.04 446.212 1416.02 447.073C1418.01 447.883 1419.76 448.792 1421.25 449.8C1421.91 450.251 1422.13 450.837 1421.94 451.558L1419.29 461.45C1419.14 462.016 1418.88 462.251 1418.52 462.155C1418.42 462.127 1418.28 462.034 1418.1 461.876C1416.76 460.909 1415.2 460.022 1413.43 459.216C1411.72 458.373 1410.2 457.771 1408.86 457.412C1407.06 456.929 1405.54 456.91 1404.32 457.355C1403.15 457.814 1402.4 458.636 1402.09 459.821C1401.87 460.645 1401.83 461.408 1401.97 462.109C1402.18 462.772 1402.53 463.419 1403.02 464.048C1403.52 464.677 1404.12 465.334 1404.82 466.019C1405.58 466.665 1406.42 467.359 1407.32 468.098C1409.07 469.615 1410.6 471.129 1411.9 472.639C1413.22 474.097 1414.25 475.615 1414.99 477.193C1415.78 478.784 1416.23 480.48 1416.36 482.281C1416.55 484.043 1416.36 485.981 1415.8 488.093C1415.11 490.669 1413.98 492.907 1412.42 494.809C1410.93 496.672 1409.09 498.168 1406.91 499.296C1404.75 500.372 1402.29 501.01 1399.53 501.209C1396.82 501.422 1393.89 501.108 1390.75 500.266ZM1465.25 460.595C1466.02 460.802 1466.3 461.292 1466.1 462.065L1463.32 472.42C1463.12 473.192 1462.63 473.475 1461.85 473.268L1450.26 470.162L1439.27 511.195C1439.06 511.968 1438.57 512.25 1437.8 512.043L1424.66 508.523C1423.89 508.316 1423.61 507.826 1423.81 507.054L1434.81 466.021L1423.22 462.915C1422.44 462.708 1422.16 462.218 1422.37 461.446L1425.14 451.091C1425.35 450.318 1425.84 450.035 1426.61 450.242L1465.25 460.595Z" fill="#090055"/>
<rect width="744" height="104" transform="translate(358.708 87) rotate(9.09678)" fill="#211680"/>
<path d="M427.693 177.849C427.676 177.955 427.663 178.034 427.655 178.086C427.707 178.095 427.725 178.152 427.708 178.257C427.624 178.783 427.24 178.992 426.555 178.882L411.862 176.53C411.072 176.403 410.714 175.941 410.788 175.143L412.687 147.09L401.334 173.467C400.944 174.215 400.381 174.529 399.643 174.411L391.191 173.058C390.401 172.931 389.96 172.483 389.867 171.712L386.486 142.733L378.716 170.007C378.485 170.78 377.974 171.104 377.184 170.977L364.15 168.89C363.413 168.772 363.133 168.322 363.313 167.541L380.603 115.216C380.835 114.443 381.345 114.12 382.135 114.247L394.774 116.27C395.564 116.397 396.006 116.846 396.098 117.617L399.621 150.264L412.516 120.326C412.906 119.579 413.47 119.264 414.207 119.382L425.819 121.241C426.609 121.368 427.02 121.838 427.051 122.654L427.693 177.849ZM452.511 138.559L451.132 147.169L463.692 149.18C464.482 149.307 464.814 149.765 464.688 150.555L463.031 160.903C462.904 161.693 462.446 162.025 461.656 161.898L449.096 159.887L447.603 169.209L463.007 171.675C463.797 171.801 464.129 172.26 464.002 173.05L462.346 183.398C462.219 184.188 461.761 184.519 460.971 184.393L430.4 179.498C429.61 179.372 429.279 178.913 429.405 178.123L438.006 124.408C438.132 123.618 438.591 123.286 439.381 123.412L469.951 128.307C470.741 128.434 471.073 128.892 470.946 129.682L469.289 140.03C469.163 140.82 468.705 141.152 467.915 141.025L452.511 138.559ZM509.918 190.286C510.131 190.644 510.208 191.007 510.149 191.376C510.056 191.955 509.535 192.169 508.588 192.017L493.658 189.627C492.815 189.492 492.291 189.057 492.084 188.321L484.427 167.327L481.366 186.443C481.24 187.233 480.782 187.565 479.992 187.438L466.642 185.301C465.852 185.174 465.52 184.716 465.647 183.926L474.247 130.211C474.374 129.421 474.832 129.089 475.622 129.215L492.211 131.871C495.634 132.42 498.678 133.312 501.342 134.549C504.068 135.741 506.287 137.231 507.999 139.018C509.765 140.813 511.001 142.874 511.708 145.202C512.469 147.538 512.629 150.075 512.191 152.814C511.618 156.395 510.199 159.354 507.934 161.692C505.669 164.03 502.728 165.531 499.111 166.194L509.918 190.286ZM488.298 143.155L485.996 157.532L486.312 157.582C489.155 158.037 491.337 157.739 492.856 156.686C494.436 155.588 495.407 153.907 495.77 151.643C496.124 149.431 495.691 147.579 494.472 146.088C493.252 144.596 491.299 143.635 488.614 143.205L488.298 143.155ZM531.755 196.375C528.332 195.827 525.221 194.68 522.421 192.936C519.683 191.147 517.376 188.86 515.499 186.075C513.683 183.246 512.396 179.988 511.636 176.301C510.937 172.571 510.937 168.52 511.637 164.149C512.379 159.514 513.778 155.498 515.835 152.101C517.891 148.703 520.381 145.969 523.305 143.899C526.238 141.776 529.49 140.352 533.063 139.628C536.644 138.851 540.357 138.77 544.202 139.386C546.255 139.715 548.403 140.302 550.644 141.147C552.894 141.939 554.776 142.834 556.291 143.833C556.986 144.214 557.266 144.826 557.131 145.669L555.509 155.294C555.323 156.452 554.836 156.968 554.046 156.842C553.73 156.791 553.4 156.657 553.057 156.44C551.614 155.669 549.996 154.978 548.203 154.367C546.472 153.712 544.79 153.253 543.157 152.992C539.102 152.343 535.719 153.232 533.008 155.661C530.349 158.098 528.653 161.607 527.919 166.189C527.186 170.77 527.355 174.605 528.427 177.694C529.56 180.738 531.522 182.483 534.313 182.93C536.577 183.293 538.516 182.82 540.13 181.512C541.797 180.212 542.923 178.07 543.509 175.085L536.715 173.998C535.925 173.871 535.594 173.413 535.72 172.623L537.263 162.986C537.39 162.196 537.848 161.864 538.638 161.991L557.28 164.975C558.07 165.102 558.512 165.551 558.604 166.322C558.699 167.417 558.698 168.605 558.601 169.886C558.556 171.175 558.412 172.583 558.167 174.111C557.56 177.902 556.473 181.32 554.905 184.364C553.399 187.363 551.49 189.839 549.179 191.792C546.92 193.753 544.294 195.142 541.301 195.959C538.36 196.784 535.178 196.923 531.755 196.375ZM579.21 158.845L577.831 167.456L590.391 169.467C591.181 169.593 591.513 170.052 591.386 170.841L589.729 181.19C589.603 181.98 589.145 182.311 588.355 182.185L575.795 180.174L574.302 189.495L589.706 191.961C590.496 192.088 590.828 192.546 590.701 193.336L589.044 203.684C588.918 204.474 588.46 204.806 587.67 204.679L557.099 199.785C556.309 199.658 555.977 199.2 556.104 198.41L564.705 144.694C564.831 143.904 565.289 143.573 566.079 143.699L596.65 148.594C597.44 148.72 597.771 149.179 597.645 149.968L595.988 160.317C595.862 161.107 595.403 161.438 594.613 161.312L579.21 158.845ZM664.196 215.717C664.179 215.823 664.166 215.902 664.158 215.954C664.21 215.963 664.228 216.02 664.211 216.125C664.127 216.652 663.743 216.86 663.058 216.75L648.365 214.398C647.575 214.271 647.217 213.809 647.291 213.011L649.19 184.958L637.837 211.335C637.447 212.083 636.884 212.397 636.146 212.279L627.694 210.926C626.904 210.8 626.463 210.351 626.37 209.58L622.989 180.601L615.22 207.875C614.988 208.648 614.477 208.972 613.687 208.845L600.653 206.758C599.916 206.64 599.637 206.191 599.816 205.409L617.106 153.084C617.338 152.311 617.849 151.988 618.638 152.115L631.277 154.138C632.067 154.265 632.509 154.714 632.601 155.485L636.124 188.132L649.019 158.194C649.409 157.447 649.973 157.132 650.71 157.25L662.322 159.109C663.112 159.236 663.523 159.706 663.554 160.522L664.196 215.717ZM689.014 176.427L687.635 185.037L700.196 187.048C700.985 187.175 701.317 187.633 701.191 188.423L699.534 198.771C699.407 199.561 698.949 199.893 698.159 199.766L685.599 197.755L684.107 207.077L699.51 209.543C700.3 209.669 700.632 210.128 700.506 210.918L698.849 221.266C698.722 222.056 698.264 222.387 697.474 222.261L666.903 217.366C666.114 217.24 665.782 216.781 665.908 215.991L674.509 162.276C674.636 161.486 675.094 161.154 675.884 161.281L706.454 166.175C707.244 166.302 707.576 166.76 707.449 167.55L705.793 177.898C705.666 178.688 705.208 179.02 704.418 178.893L689.014 176.427ZM746.421 228.154C746.634 228.512 746.711 228.875 746.652 229.244C746.559 229.823 746.039 230.037 745.091 229.885L730.161 227.495C729.318 227.36 728.794 226.925 728.587 226.189L720.93 205.195L717.87 224.311C717.743 225.101 717.285 225.433 716.495 225.307L703.145 223.169C702.355 223.043 702.023 222.584 702.15 221.794L710.751 168.079C710.877 167.289 711.335 166.957 712.125 167.083L728.714 169.739C732.137 170.288 735.181 171.18 737.845 172.417C740.571 173.61 742.79 175.099 744.503 176.886C746.268 178.681 747.504 180.742 748.212 183.07C748.972 185.406 749.133 187.943 748.694 190.682C748.121 194.263 746.702 197.222 744.437 199.56C742.172 201.898 739.231 203.399 735.614 204.062L746.421 228.154ZM724.801 181.023L722.499 195.4L722.815 195.45C725.659 195.906 727.84 195.607 729.359 194.554C730.939 193.456 731.91 191.775 732.273 189.511C732.627 187.299 732.194 185.447 730.975 183.956C729.755 182.464 727.803 181.503 725.117 181.073L724.801 181.023ZM768.258 234.243C764.835 233.695 761.724 232.548 758.924 230.804C756.186 229.015 753.879 226.728 752.002 223.943C750.187 221.114 748.899 217.856 748.139 214.169C747.44 210.439 747.44 206.388 748.14 202.017C748.882 197.382 750.281 193.367 752.338 189.969C754.394 186.571 756.884 183.837 759.808 181.767C762.741 179.644 765.994 178.22 769.566 177.496C773.148 176.719 776.86 176.638 780.705 177.254C782.759 177.583 784.906 178.17 787.147 179.015C789.397 179.807 791.279 180.702 792.794 181.701C793.489 182.082 793.769 182.694 793.634 183.537L792.012 193.162C791.826 194.32 791.339 194.836 790.549 194.71C790.233 194.659 789.903 194.525 789.56 194.308C788.117 193.537 786.499 192.846 784.707 192.235C782.975 191.58 781.293 191.121 779.66 190.86C775.605 190.211 772.222 191.1 769.511 193.529C766.852 195.966 765.156 199.475 764.422 204.057C763.689 208.638 763.858 212.473 764.93 215.562C766.063 218.606 768.025 220.351 770.816 220.798C773.08 221.161 775.02 220.688 776.633 219.38C778.3 218.08 779.426 215.938 780.012 212.953L773.218 211.866C772.428 211.739 772.097 211.281 772.223 210.491L773.766 200.854C773.893 200.064 774.351 199.732 775.141 199.859L793.783 202.844C794.573 202.97 795.015 203.419 795.107 204.19C795.202 205.285 795.201 206.473 795.104 207.754C795.059 209.043 794.915 210.451 794.67 211.979C794.063 215.77 792.976 219.188 791.408 222.232C789.902 225.231 787.993 227.707 785.682 229.66C783.423 231.621 780.797 233.01 777.804 233.827C774.863 234.652 771.681 234.791 768.258 234.243ZM815.713 196.714L814.334 205.324L826.894 207.335C827.684 207.461 828.016 207.92 827.889 208.71L826.232 219.058C826.106 219.848 825.648 220.179 824.858 220.053L812.298 218.042L810.805 227.363L826.209 229.83C826.999 229.956 827.331 230.414 827.204 231.204L825.547 241.552C825.421 242.342 824.963 242.674 824.173 242.548L793.602 237.653C792.812 237.526 792.48 237.068 792.607 236.278L801.208 182.562C801.334 181.772 801.792 181.441 802.582 181.567L833.153 186.462C833.943 186.588 834.275 187.047 834.148 187.837L832.491 198.185C832.365 198.975 831.907 199.306 831.117 199.18L815.713 196.714ZM900.699 253.585C900.682 253.691 900.669 253.77 900.661 253.822C900.714 253.831 900.732 253.888 900.715 253.993C900.63 254.52 900.246 254.728 899.561 254.618L884.868 252.266C884.078 252.139 883.72 251.677 883.794 250.879L885.693 222.826L874.34 249.203C873.95 249.951 873.387 250.265 872.65 250.147L864.197 248.794C863.407 248.668 862.966 248.219 862.874 247.448L859.493 218.469L851.723 245.743C851.491 246.517 850.98 246.84 850.19 246.713L837.156 244.626C836.419 244.508 836.14 244.059 836.319 243.277L853.609 190.953C853.841 190.179 854.352 189.856 855.142 189.983L867.781 192.006C868.571 192.133 869.012 192.582 869.104 193.353L872.627 226L885.523 196.062C885.912 195.315 886.476 195 887.213 195.118L898.825 196.977C899.615 197.104 900.026 197.574 900.057 198.39L900.699 253.585ZM925.517 214.295L924.139 222.905L936.699 224.916C937.489 225.043 937.82 225.501 937.694 226.291L936.037 236.639C935.91 237.429 935.452 237.761 934.662 237.634L922.102 235.623L920.61 244.945L936.014 247.411C936.804 247.538 937.135 247.996 937.009 248.786L935.352 259.134C935.225 259.924 934.767 260.256 933.977 260.129L903.407 255.234C902.617 255.108 902.285 254.649 902.411 253.86L911.012 200.144C911.139 199.354 911.597 199.022 912.387 199.149L942.957 204.043C943.747 204.17 944.079 204.628 943.953 205.418L942.296 215.766C942.169 216.556 941.711 216.888 940.921 216.761L925.517 214.295ZM982.924 266.022C983.137 266.38 983.214 266.743 983.155 267.112C983.062 267.691 982.542 267.905 981.594 267.753L966.664 265.363C965.821 265.228 965.297 264.793 965.091 264.058L957.434 243.063L954.373 262.179C954.246 262.969 953.788 263.301 952.998 263.175L939.648 261.037C938.858 260.911 938.526 260.452 938.653 259.662L947.254 205.947C947.38 205.157 947.838 204.825 948.628 204.951L965.217 207.608C968.64 208.156 971.684 209.048 974.349 210.285C977.074 211.478 979.293 212.967 981.006 214.754C982.771 216.549 984.007 218.61 984.715 220.938C985.475 223.274 985.636 225.811 985.197 228.55C984.624 232.131 983.205 235.09 980.94 237.428C978.675 239.766 975.734 241.267 972.117 241.93L982.924 266.022ZM961.304 218.891L959.002 233.268L959.318 233.318C962.162 233.774 964.343 233.475 965.862 232.422C967.442 231.324 968.413 229.643 968.776 227.379C969.13 225.167 968.697 223.315 967.478 221.824C966.258 220.332 964.306 219.371 961.62 218.941L961.304 218.891ZM1004.76 272.111C1001.34 271.563 998.227 270.416 995.428 268.672C992.689 266.883 990.382 264.596 988.505 261.811C986.69 258.982 985.402 255.724 984.642 252.037C983.943 248.307 983.943 244.256 984.643 239.885C985.385 235.251 986.784 231.235 988.841 227.837C990.897 224.439 993.387 221.705 996.312 219.635C999.244 217.512 1002.5 216.088 1006.07 215.364C1009.65 214.587 1013.36 214.506 1017.21 215.122C1019.26 215.451 1021.41 216.038 1023.65 216.883C1025.9 217.675 1027.78 218.571 1029.3 219.569C1029.99 219.951 1030.27 220.563 1030.14 221.405L1028.52 231.03C1028.33 232.188 1027.84 232.704 1027.05 232.578C1026.74 232.527 1026.41 232.393 1026.06 232.176C1024.62 231.405 1023 230.714 1021.21 230.103C1019.48 229.448 1017.8 228.989 1016.16 228.728C1012.11 228.079 1008.73 228.968 1006.01 231.397C1003.36 233.834 1001.66 237.343 1000.93 241.925C1000.19 246.506 1000.36 250.341 1001.43 253.43C1002.57 256.474 1004.53 258.219 1007.32 258.666C1009.58 259.029 1011.52 258.556 1013.14 257.248C1014.8 255.949 1015.93 253.806 1016.52 250.821L1009.72 249.734C1008.93 249.607 1008.6 249.149 1008.73 248.359L1010.27 238.722C1010.4 237.932 1010.85 237.6 1011.64 237.727L1030.29 240.712C1031.08 240.838 1031.52 241.287 1031.61 242.058C1031.71 243.153 1031.7 244.341 1031.61 245.622C1031.56 246.911 1031.42 248.319 1031.17 249.847C1030.57 253.638 1029.48 257.056 1027.91 260.1C1026.4 263.099 1024.5 265.575 1022.18 267.528C1019.93 269.489 1017.3 270.878 1014.31 271.695C1011.37 272.52 1008.18 272.659 1004.76 272.111ZM1052.22 234.582L1050.84 243.192L1063.4 245.203C1064.19 245.329 1064.52 245.788 1064.39 246.578L1062.74 256.926C1062.61 257.716 1062.15 258.047 1061.36 257.921L1048.8 255.91L1047.31 265.231L1062.71 267.698C1063.5 267.824 1063.83 268.282 1063.71 269.072L1062.05 279.42C1061.92 280.21 1061.47 280.542 1060.68 280.416L1030.11 275.521C1029.32 275.394 1028.98 274.936 1029.11 274.146L1037.71 220.43C1037.84 219.64 1038.3 219.309 1039.09 219.435L1069.66 224.33C1070.45 224.456 1070.78 224.915 1070.65 225.705L1068.99 236.053C1068.87 236.843 1068.41 237.174 1067.62 237.048L1052.22 234.582Z" fill="#EAF1FC"/>
<rect width="906" height="104" transform="translate(273.812 359.071) rotate(-15)" fill="#211680"/>
<path d="M334.039 394.366C338.316 394.048 341.814 394.74 344.533 396.44C347.253 398.141 349.061 400.666 349.958 404.014C350.662 406.642 350.724 409.137 350.143 411.502C349.548 413.814 348.38 415.949 346.641 417.906C344.939 419.798 342.717 421.498 339.973 423.006C337.23 424.514 334.081 425.744 330.527 426.696L315.458 430.734C314.686 430.941 314.196 430.658 313.989 429.885L299.909 377.339C299.702 376.566 299.985 376.076 300.757 375.869L316.135 371.749C319.329 370.893 322.29 370.403 325.017 370.28C327.745 370.156 330.169 370.446 332.29 371.147C334.396 371.798 336.174 372.867 337.622 374.357C339.07 375.846 340.112 377.775 340.747 380.145C341.506 382.978 341.318 385.679 340.184 388.247C339.036 390.763 336.974 392.751 333.997 394.211L334.039 394.366ZM326.562 385.934C325.595 382.328 322.82 381.139 318.235 382.367L317.694 382.512L320.696 393.717L321.082 393.613C325.77 392.357 327.597 389.797 326.562 385.934ZM327.304 416.213C332.816 414.736 335.006 411.886 333.874 407.661C333.35 405.704 332.254 404.396 330.587 403.739C328.971 403.067 326.799 403.097 324.068 403.829L323.45 403.994L326.763 416.358L327.304 416.213ZM398.79 406.418C399.13 406.658 399.349 406.958 399.445 407.319C399.597 407.885 399.21 408.293 398.282 408.541L383.677 412.455C382.853 412.676 382.197 412.493 381.708 411.906L366.147 395.867L371.158 414.567C371.365 415.34 371.082 415.83 370.309 416.037L357.25 419.536C356.477 419.743 355.987 419.46 355.78 418.687L341.7 366.141C341.493 365.368 341.776 364.878 342.549 364.671L358.776 360.323C362.125 359.426 365.268 358.998 368.205 359.039C371.18 359.015 373.814 359.469 376.107 360.4C378.451 361.318 380.421 362.695 382.017 364.531C383.665 366.354 384.848 368.604 385.566 371.283C386.504 374.786 386.417 378.067 385.304 381.126C384.192 384.185 382.12 386.756 379.089 388.838L398.79 406.418ZM359.811 372.221L363.579 386.285L363.888 386.202C366.67 385.457 368.54 384.293 369.496 382.712C370.49 381.065 370.691 379.134 370.097 376.919C369.518 374.755 368.367 373.241 366.644 372.378C364.922 371.514 362.747 371.434 360.12 372.138L359.811 372.221ZM447.351 394.234C447.43 394.323 447.497 394.471 447.552 394.677C447.663 395.089 447.434 395.371 446.868 395.523L432.108 399.478C431.336 399.685 430.743 399.429 430.33 398.712C429.81 397.802 429.29 396.892 428.77 395.983C428.288 395.007 427.78 394.039 427.246 393.078L414.11 396.598C414.128 397.697 414.147 398.797 414.165 399.896C414.221 400.93 414.252 401.971 414.257 403.019C414.206 403.86 413.82 404.378 413.099 404.571L398.958 408.36C398.134 408.581 397.779 408.29 397.895 407.486L401.681 349.904C401.745 349.113 402.164 348.615 402.937 348.408L413.678 345.53C414.399 345.336 415.011 345.559 415.513 346.197L447.351 394.234ZM421.798 382.943C420.317 380.303 418.869 377.681 417.454 375.079C416.091 372.463 414.715 369.905 413.328 367.406C413.324 370.278 413.36 373.194 413.436 376.156C413.563 379.103 413.672 382.083 413.761 385.096L421.798 382.943ZM478.91 328.134C479.683 327.927 480.172 328.209 480.379 328.982L494.459 381.528C494.666 382.301 494.383 382.791 493.611 382.998L483.642 385.669C482.87 385.876 482.194 385.726 481.617 385.218L456.308 363.095L463.472 389.831C463.679 390.604 463.397 391.094 462.624 391.301L450.492 394.552C449.719 394.759 449.229 394.476 449.022 393.703L434.942 341.157C434.735 340.384 435.018 339.894 435.791 339.687L445.759 337.016C446.532 336.809 447.214 336.985 447.806 337.545L473.44 360.575L466.006 332.833C465.799 332.061 466.082 331.571 466.855 331.364L478.91 328.134ZM522.017 376.132C518.823 376.988 515.611 377.158 512.381 376.643C509.151 376.129 506.104 374.957 503.24 373.13C500.376 371.302 497.812 368.842 495.548 365.749C493.335 362.643 491.642 358.9 490.469 354.521C489.282 350.091 488.889 345.944 489.289 342.082C489.742 338.207 490.802 334.748 492.472 331.705C494.141 328.663 496.349 326.083 499.095 323.967C501.892 321.837 505.043 320.303 508.546 319.364C510.503 318.84 512.406 318.523 514.254 318.415C516.154 318.292 517.791 318.323 519.165 318.507C519.956 318.571 520.461 319.015 520.682 319.839L523.56 330.581C523.809 331.508 523.675 332.041 523.16 332.179C522.903 332.248 522.482 332.222 521.897 332.103C520.729 331.864 519.466 331.788 518.11 331.875C516.79 331.898 515.461 332.088 514.122 332.447C512.319 332.93 510.786 333.7 509.523 334.756C508.26 335.812 507.285 337.122 506.6 338.686C505.953 340.185 505.587 341.912 505.504 343.867C505.42 345.822 505.675 347.907 506.269 350.122C506.876 352.389 507.705 354.347 508.754 355.999C509.842 357.585 511.066 358.858 512.428 359.818C513.79 360.778 515.256 361.407 516.826 361.704C518.434 361.936 520.062 361.831 521.711 361.389C523.205 360.989 524.599 360.422 525.893 359.689C527.239 358.941 528.377 358.14 529.307 357.283C529.753 356.887 530.105 356.655 530.363 356.586C530.878 356.448 531.26 356.843 531.508 357.77L534.303 368.202C534.524 369.026 534.341 369.683 533.754 370.171C532.364 371.372 530.657 372.52 528.631 373.615C526.591 374.658 524.387 375.497 522.017 376.132ZM566.774 304.59C567.547 304.383 568.037 304.666 568.244 305.439L582.323 357.985C582.531 358.758 582.248 359.248 581.475 359.455L568.261 362.996C567.488 363.203 566.998 362.92 566.791 362.147L561.387 341.979L547.864 345.602L553.268 365.771C553.475 366.543 553.193 367.033 552.42 367.24L539.206 370.781C538.433 370.988 537.943 370.705 537.736 369.932L523.657 317.386C523.45 316.613 523.732 316.123 524.505 315.916L537.719 312.376C538.492 312.169 538.982 312.451 539.189 313.224L544.613 333.47L558.136 329.847L552.712 309.601C552.505 308.828 552.787 308.338 553.56 308.131L566.774 304.59ZM617.598 318.386C621.875 318.068 625.373 318.76 628.093 320.461C630.812 322.161 632.621 324.686 633.518 328.035C634.222 330.662 634.283 333.158 633.702 335.522C633.107 337.835 631.94 339.97 630.2 341.927C628.499 343.818 626.276 345.518 623.533 347.026C620.79 348.534 617.641 349.764 614.086 350.717L599.018 354.754C598.245 354.961 597.755 354.679 597.548 353.906L583.468 301.359C583.261 300.587 583.544 300.097 584.317 299.89L599.695 295.769C602.889 294.914 605.849 294.424 608.577 294.3C611.305 294.177 613.729 294.466 615.849 295.168C617.956 295.818 619.733 296.888 621.182 298.377C622.63 299.866 623.671 301.796 624.306 304.165C625.065 306.999 624.878 309.699 623.744 312.267C622.596 314.783 620.534 316.771 617.557 318.232L617.598 318.386ZM610.121 309.954C609.155 306.348 606.379 305.159 601.794 306.388L601.253 306.533L604.256 317.737L604.642 317.634C609.33 316.378 611.156 313.818 610.121 309.954ZM610.863 340.234C616.376 338.757 618.566 335.906 617.434 331.682C616.909 329.724 615.814 328.417 614.147 327.759C612.531 327.088 610.358 327.118 607.628 327.849L607.01 328.015L610.322 340.379L610.863 340.234ZM682.349 330.438C682.69 330.678 682.908 330.978 683.005 331.339C683.157 331.906 682.769 332.313 681.842 332.562L667.237 336.475C666.413 336.696 665.756 336.513 665.268 335.926L649.706 319.887L654.717 338.587C654.924 339.36 654.641 339.85 653.869 340.057L640.809 343.556C640.037 343.763 639.547 343.481 639.34 342.708L625.26 290.161C625.053 289.389 625.336 288.899 626.108 288.692L642.336 284.344C645.685 283.446 648.827 283.018 651.765 283.06C654.74 283.035 657.374 283.489 659.666 284.421C662.011 285.339 663.981 286.716 665.577 288.552C667.225 290.374 668.408 292.625 669.125 295.303C670.064 298.807 669.977 302.088 668.864 305.147C667.751 308.205 665.679 310.776 662.648 312.858L682.349 330.438ZM643.371 296.241L647.139 310.305L647.448 310.222C650.23 309.477 652.099 308.313 653.056 306.732C654.05 305.085 654.25 303.154 653.657 300.939C653.077 298.775 651.926 297.262 650.204 296.398C648.482 295.534 646.307 295.454 643.68 296.158L643.371 296.241ZM730.91 318.254C730.989 318.344 731.056 318.491 731.112 318.697C731.222 319.109 730.994 319.391 730.427 319.543L715.668 323.498C714.895 323.705 714.302 323.45 713.889 322.732C713.369 321.823 712.849 320.913 712.33 320.003C711.847 319.028 711.34 318.06 710.806 317.098L697.669 320.618C697.688 321.718 697.706 322.817 697.725 323.916C697.781 324.95 697.811 325.991 697.816 327.039C697.766 327.881 697.38 328.398 696.659 328.592L682.517 332.381C681.693 332.602 681.339 332.31 681.455 331.506L685.24 273.924C685.305 273.134 685.723 272.635 686.496 272.428L697.237 269.55C697.958 269.357 698.57 269.579 699.073 270.218L730.91 318.254ZM705.357 306.963C703.877 304.323 702.429 301.702 701.014 299.099C699.65 296.483 698.275 293.925 696.887 291.426C696.884 294.298 696.92 297.215 696.996 300.176C697.123 303.124 697.231 306.104 697.321 309.117L705.357 306.963ZM762.469 252.154C763.242 251.947 763.732 252.23 763.939 253.003L778.019 305.549C778.226 306.322 777.943 306.812 777.17 307.019L767.202 309.69C766.429 309.897 765.754 309.746 765.176 309.239L739.868 287.115L747.032 313.852C747.239 314.625 746.956 315.114 746.183 315.321L734.051 318.572C733.279 318.779 732.789 318.496 732.582 317.724L718.502 265.177C718.295 264.405 718.578 263.915 719.35 263.708L729.319 261.037C730.092 260.83 730.774 261.006 731.365 261.565L756.999 284.595L749.566 256.854C749.359 256.081 749.642 255.591 750.415 255.384L762.469 252.154ZM805.577 300.152C802.383 301.008 799.171 301.179 795.941 300.664C792.711 300.149 789.664 298.978 786.8 297.15C783.936 295.322 781.372 292.862 779.108 289.769C776.895 286.663 775.202 282.92 774.028 278.541C772.841 274.111 772.448 269.965 772.849 266.103C773.301 262.227 774.362 258.768 776.031 255.726C777.701 252.683 779.909 250.104 782.654 247.988C785.452 245.858 788.602 244.324 792.105 243.385C794.063 242.86 795.966 242.544 797.814 242.435C799.714 242.312 801.351 242.343 802.725 242.527C803.515 242.591 804.021 243.036 804.242 243.86L807.12 254.601C807.368 255.528 807.235 256.061 806.72 256.199C806.462 256.268 806.041 256.243 805.457 256.123C804.289 255.884 803.026 255.808 801.669 255.896C800.35 255.918 799.021 256.109 797.681 256.467C795.878 256.951 794.345 257.72 793.082 258.776C791.819 259.833 790.845 261.143 790.16 262.707C789.512 264.205 789.147 265.932 789.063 267.887C788.98 269.842 789.235 271.927 789.828 274.142C790.436 276.409 791.264 278.368 792.314 280.019C793.401 281.605 794.626 282.878 795.988 283.838C797.349 284.799 798.815 285.427 800.386 285.724C801.994 285.956 803.622 285.851 805.271 285.409C806.764 285.009 808.159 284.442 809.453 283.709C810.799 282.962 811.937 282.16 812.867 281.303C813.313 280.908 813.665 280.676 813.922 280.607C814.437 280.468 814.819 280.863 815.068 281.79L817.863 292.222C818.084 293.047 817.901 293.703 817.314 294.192C815.924 295.392 814.216 296.54 812.191 297.635C810.151 298.678 807.946 299.518 805.577 300.152ZM850.334 228.611C851.106 228.404 851.596 228.687 851.803 229.459L865.883 282.006C866.09 282.778 865.807 283.268 865.035 283.475L851.821 287.016C851.048 287.223 850.558 286.94 850.351 286.168L844.947 265.999L831.424 269.622L836.828 289.791C837.035 290.564 836.752 291.054 835.979 291.261L822.766 294.801C821.993 295.008 821.503 294.726 821.296 293.953L807.216 241.406C807.009 240.634 807.292 240.144 808.065 239.937L821.279 236.396C822.051 236.189 822.541 236.472 822.748 237.245L828.173 257.49L841.696 253.867L836.271 233.621C836.064 232.848 836.347 232.359 837.12 232.151L850.334 228.611ZM901.158 242.407C905.435 242.089 908.933 242.78 911.652 244.481C914.372 246.182 916.18 248.707 917.078 252.055C917.782 254.682 917.843 257.178 917.262 259.543C916.667 261.855 915.499 263.99 913.76 265.947C912.058 267.839 909.836 269.538 907.093 271.046C904.349 272.555 901.201 273.785 897.646 274.737L882.578 278.775C881.805 278.982 881.315 278.699 881.108 277.926L867.028 225.38C866.821 224.607 867.104 224.117 867.877 223.91L883.254 219.79C886.448 218.934 889.409 218.444 892.137 218.321C894.864 218.197 897.288 218.486 899.409 219.188C901.516 219.838 903.293 220.908 904.741 222.397C906.189 223.887 907.231 225.816 907.866 228.186C908.625 231.019 908.438 233.72 907.304 236.288C906.156 238.804 904.093 240.792 901.116 242.252L901.158 242.407ZM893.681 233.975C892.714 230.368 889.939 229.18 885.354 230.408L884.813 230.553L887.815 241.758L888.202 241.654C892.89 240.398 894.716 237.838 893.681 233.975ZM894.423 264.254C899.935 262.777 902.125 259.927 900.993 255.702C900.469 253.745 899.373 252.437 897.706 251.779C896.091 251.108 893.918 251.138 891.187 251.87L890.569 252.035L893.882 264.399L894.423 264.254ZM965.909 254.458C966.249 254.699 966.468 254.999 966.565 255.359C966.716 255.926 966.329 256.334 965.401 256.582L950.797 260.496C949.972 260.716 949.316 260.533 948.827 259.946L933.266 243.908L938.277 262.608C938.484 263.381 938.201 263.871 937.428 264.078L924.369 267.577C923.596 267.784 923.106 267.501 922.899 266.728L908.819 214.182C908.612 213.409 908.895 212.919 909.668 212.712L925.896 208.364C929.244 207.467 932.387 207.039 935.324 207.08C938.3 207.056 940.933 207.51 943.226 208.441C945.57 209.359 947.54 210.736 949.137 212.572C950.784 214.395 951.967 216.645 952.685 219.324C953.624 222.827 953.537 226.108 952.424 229.167C951.311 232.226 949.239 234.796 946.208 236.879L965.909 254.458ZM926.93 220.262L930.699 234.326L931.008 234.243C933.79 233.497 935.659 232.334 936.615 230.752C937.61 229.106 937.81 227.175 937.217 224.959C936.637 222.796 935.486 221.282 933.764 220.418C932.041 219.555 929.867 219.475 927.239 220.179L926.93 220.262ZM1014.47 242.275C1014.55 242.364 1014.62 242.512 1014.67 242.718C1014.78 243.13 1014.55 243.412 1013.99 243.564L999.228 247.519C998.455 247.726 997.862 247.47 997.449 246.753C996.929 245.843 996.409 244.933 995.889 244.023C995.407 243.048 994.899 242.08 994.366 241.119L981.229 244.639C981.247 245.738 981.266 246.837 981.284 247.937C981.341 248.971 981.371 250.012 981.376 251.06C981.325 251.901 980.939 252.419 980.218 252.612L966.077 256.401C965.253 256.622 964.899 256.33 965.014 255.526L968.8 197.945C968.864 197.154 969.283 196.656 970.056 196.449L980.797 193.571C981.518 193.377 982.13 193.6 982.632 194.238L1014.47 242.275ZM988.917 230.984C987.436 228.344 985.989 225.722 984.573 223.12C983.21 220.504 981.834 217.946 980.447 215.447C980.443 218.319 980.479 221.235 980.555 224.197C980.682 227.144 980.791 230.124 980.88 233.137L988.917 230.984ZM1046.03 176.174C1046.8 175.967 1047.29 176.25 1047.5 177.023L1061.58 229.569C1061.79 230.342 1061.5 230.832 1060.73 231.039L1050.76 233.71C1049.99 233.917 1049.31 233.767 1048.74 233.259L1023.43 211.135L1030.59 237.872C1030.8 238.645 1030.52 239.135 1029.74 239.342L1017.61 242.593C1016.84 242.8 1016.35 242.517 1016.14 241.744L1002.06 189.198C1001.85 188.425 1002.14 187.935 1002.91 187.728L1012.88 185.057C1013.65 184.85 1014.33 185.026 1014.92 185.585L1040.56 208.616L1033.13 180.874C1032.92 180.101 1033.2 179.612 1033.97 179.404L1046.03 176.174ZM1089.14 224.173C1085.94 225.029 1082.73 225.199 1079.5 224.684C1076.27 224.169 1073.22 222.998 1070.36 221.17C1067.5 219.343 1064.93 216.883 1062.67 213.79C1060.45 210.683 1058.76 206.941 1057.59 202.562C1056.4 198.131 1056.01 193.985 1056.41 190.123C1056.86 186.248 1057.92 182.788 1059.59 179.746C1061.26 176.704 1063.47 174.124 1066.21 172.008C1069.01 169.878 1072.16 168.344 1075.66 167.405C1077.62 166.881 1079.53 166.564 1081.37 166.455C1083.27 166.333 1084.91 166.364 1086.28 166.547C1087.07 166.612 1087.58 167.056 1087.8 167.88L1090.68 178.621C1090.93 179.549 1090.79 180.081 1090.28 180.219C1090.02 180.288 1089.6 180.263 1089.02 180.144C1087.85 179.905 1086.59 179.829 1085.23 179.916C1083.91 179.938 1082.58 180.129 1081.24 180.488C1079.44 180.971 1077.9 181.741 1076.64 182.797C1075.38 183.853 1074.4 185.163 1073.72 186.727C1073.07 188.226 1072.71 189.953 1072.62 191.908C1072.54 193.862 1072.79 195.947 1073.39 198.163C1074 200.429 1074.82 202.388 1075.87 204.04C1076.96 205.625 1078.19 206.899 1079.55 207.859C1080.91 208.819 1082.37 209.448 1083.95 209.745C1085.55 209.977 1087.18 209.872 1088.83 209.43C1090.32 209.03 1091.72 208.463 1093.01 207.729C1094.36 206.982 1095.5 206.18 1096.43 205.324C1096.87 204.928 1097.22 204.696 1097.48 204.627C1098 204.489 1098.38 204.884 1098.63 205.811L1101.42 216.243C1101.64 217.067 1101.46 217.723 1100.87 218.212C1099.48 219.413 1097.78 220.56 1095.75 221.655C1093.71 222.699 1091.51 223.538 1089.14 224.173ZM1133.89 152.631C1134.67 152.424 1135.16 152.707 1135.36 153.48L1149.44 206.026C1149.65 206.799 1149.37 207.289 1148.59 207.496L1135.38 211.037C1134.61 211.244 1134.12 210.961 1133.91 210.188L1128.51 190.019L1114.98 193.643L1120.39 213.811C1120.59 214.584 1120.31 215.074 1119.54 215.281L1106.33 218.822C1105.55 219.029 1105.06 218.746 1104.86 217.973L1090.78 165.427C1090.57 164.654 1090.85 164.164 1091.62 163.957L1104.84 160.417C1105.61 160.21 1106.1 160.492 1106.31 161.265L1111.73 181.511L1125.26 177.887L1119.83 157.642C1119.62 156.869 1119.91 156.379 1120.68 156.172L1133.89 152.631Z" fill="#4E3BFB"/>
</svg>
