<svg width="550" height="240" viewBox="0 0 550 240" fill="none" xmlns="http://www.w3.org/2000/svg">
<g clip-path="url(#clip0)">
<rect width="748" height="52" transform="translate(-162.542 -30) rotate(15)" fill="#E85593"/>
<path d="M-147.114 -13.857C-145.44 -13.4084 -143.937 -12.7847 -142.604 -11.9861C-141.272 -11.1875 -140.182 -10.2603 -139.333 -9.2046C-138.484 -8.14888 -137.915 -6.97497 -137.626 -5.68288C-137.331 -4.41654 -137.376 -3.06215 -137.763 -1.6197C-138.135 -0.228767 -138.77 0.954006 -139.666 1.92862C-140.529 2.88437 -141.609 3.61656 -142.905 4.12518C-144.168 4.61495 -145.592 4.88207 -147.178 4.92655C-148.756 4.94527 -150.434 4.71652 -152.212 4.24029L-152.443 4.17818L-154.773 12.8715C-154.876 13.2579 -155.121 13.3993 -155.508 13.2958L-162.424 11.4426C-162.81 11.3391 -162.951 11.0942 -162.848 10.7078L-155.808 -15.5654C-155.704 -15.9518 -155.46 -16.0932 -155.073 -15.9897L-147.114 -13.857ZM-150.834 -1.5194C-149.546 -1.17431 -148.484 -1.22113 -147.649 -1.65988C-146.788 -2.09172 -146.223 -2.80992 -145.954 -3.81449C-145.678 -4.84481 -145.808 -5.74936 -146.345 -6.52814C-146.849 -7.32578 -147.719 -7.89025 -148.955 -8.22154L-149.11 -8.26295L-150.911 -1.5401L-150.834 -1.5194ZM-131.145 20.1551C-132.767 19.7203 -134.186 19.0916 -135.402 18.2691C-136.61 17.4208 -137.566 16.4053 -138.271 15.2226C-138.975 14.04 -139.415 12.6936 -139.59 11.1835C-139.733 9.6545 -139.559 7.97561 -139.069 6.14679L-134.752 -9.96486C-134.648 -10.3512 -134.403 -10.4926 -134.017 -10.3891L-127.41 -8.6188C-127.024 -8.51527 -126.882 -8.27032 -126.986 -7.88395L-131.458 8.80725C-131.81 10.1209 -131.789 11.1756 -131.395 11.9714C-130.994 12.7415 -130.291 13.2611 -129.287 13.5302C-128.282 13.7994 -127.414 13.7008 -126.681 13.2345C-125.942 12.7424 -125.397 11.8395 -125.045 10.5258L-120.572 -6.16539C-120.469 -6.55176 -120.224 -6.69318 -119.837 -6.58966L-113.385 -4.86074C-112.999 -4.75722 -112.857 -4.51227 -112.961 -4.1259L-117.278 11.9857C-117.768 13.8146 -118.47 15.352 -119.383 16.598C-120.264 17.8251 -121.305 18.7746 -122.507 19.4466C-123.708 20.1185 -125.044 20.5197 -126.515 20.6502C-127.979 20.7549 -129.522 20.5899 -131.145 20.1551ZM-99.9321 20.9402C-99.5458 21.0438 -99.4043 21.2887 -99.5079 21.6751L-101.009 27.2775C-101.113 27.6638 -101.357 27.8053 -101.744 27.7017L-117.199 23.5606C-117.585 23.4571 -117.726 23.2121 -117.623 22.8258L-110.583 -3.44741C-110.48 -3.83378 -110.235 -3.9752 -109.848 -3.87168L-102.932 -2.01853C-102.546 -1.915 -102.404 -1.67005 -102.508 -1.28368L-107.891 18.8076L-99.9321 20.9402ZM-82.2436 25.6799C-81.8572 25.7834 -81.7158 26.0283 -81.8193 26.4147L-83.3205 32.0171C-83.424 32.4035 -83.669 32.5449 -84.0553 32.4413L-99.5102 28.3002C-99.8965 28.1967 -100.038 27.9518 -99.9344 27.5654L-92.8945 1.29221C-92.791 0.905842 -92.5461 0.764421 -92.1597 0.867948L-85.2437 2.72109C-84.8573 2.82462 -84.7159 3.06957 -84.8194 3.45594L-90.2028 23.5472L-82.2436 25.6799ZM-55.3552 39.1377C-55.2679 39.3267 -55.2483 39.5114 -55.2966 39.6917C-55.3726 39.975 -55.6423 40.0546 -56.106 39.9304L-63.4084 37.9737C-63.8205 37.8633 -64.059 37.6199 -64.1238 37.2436L-66.8524 26.4082L-69.3577 35.7584C-69.4613 36.1448 -69.7062 36.2862 -70.0926 36.1827L-76.6222 34.433C-77.0086 34.3295 -77.15 34.0846 -77.0465 33.6982L-70.0066 7.42501C-69.9031 7.03864 -69.6582 6.89722 -69.2718 7.00075L-61.158 9.17483C-59.4837 9.62345 -58.0158 10.2238 -56.7541 10.976C-55.4598 11.7093 -54.4328 12.5643 -53.673 13.5409C-52.8874 14.5244 -52.3786 15.6132 -52.1464 16.8073C-51.8884 18.0083 -51.9389 19.2785 -52.2978 20.6179C-52.7671 22.3695 -53.6251 23.7684 -54.8717 24.8148C-56.1183 25.8611 -57.6582 26.4562 -59.4912 26.6L-55.3552 39.1377ZM-63.6844 14.5853L-65.5686 21.6172L-65.4141 21.6587C-64.0231 22.0313 -62.9229 21.9949 -62.1133 21.5492C-61.271 21.0847 -60.7015 20.2987 -60.4047 19.1911C-60.1149 18.1092 -60.2348 17.1661 -60.7647 16.3615C-61.2945 15.557 -62.2162 14.9787 -63.5299 14.6267L-63.6844 14.5853ZM-40.8889 21.2731L-42.0174 25.4845L-35.8741 27.1306C-35.4877 27.2341 -35.3463 27.4791 -35.4498 27.8655L-36.806 32.9269C-36.9096 33.3133 -37.1545 33.4547 -37.5409 33.3512L-43.6842 31.7051L-44.9058 36.2643L-37.3716 38.283C-36.9852 38.3866 -36.8438 38.6315 -36.9473 39.0179L-38.3035 44.0793C-38.4071 44.4657 -38.652 44.6071 -39.0384 44.5036L-53.9909 40.4971C-54.3773 40.3936 -54.5187 40.1486 -54.4152 39.7622L-47.3753 13.4891C-47.2718 13.1027 -47.0268 12.9613 -46.6404 13.0648L-31.6879 17.0713C-31.3015 17.1748 -31.1601 17.4198 -31.2636 17.8062L-32.6199 22.8676C-32.7234 23.254 -32.9683 23.3954 -33.3547 23.2919L-40.8889 21.2731ZM-13.591 52.2747C-13.5294 52.4568 -13.5124 52.5994 -13.54 52.7024C-13.5814 52.857 -13.7061 52.9616 -13.914 53.0163L-19.0385 54.8319C-19.188 54.8747 -19.3142 54.8822 -19.4173 54.8546C-19.5718 54.8132 -19.7022 54.6816 -19.8085 54.4599L-21.9351 48.7965C-23.1978 48.8723 -24.4602 48.7411 -25.7223 48.4029C-27.345 47.9681 -28.8077 47.2449 -30.1103 46.2333C-31.4059 45.196 -32.4454 43.9236 -33.2286 42.4162C-33.986 40.9157 -34.4684 39.2128 -34.6757 37.3076C-34.8572 35.4092 -34.6512 33.3525 -34.0576 31.1373C-33.4641 28.9221 -32.6107 27.025 -31.4974 25.446C-30.3583 23.8739 -29.0857 22.6275 -27.6795 21.7067C-26.2475 20.7929 -24.7146 20.2236 -23.0807 19.9988C-21.44 19.7482 -19.8082 19.8404 -18.1855 20.2752C-16.5627 20.71 -15.1164 21.4426 -13.8465 22.4731C-12.5439 23.4847 -11.501 24.7442 -10.7178 26.2516C-9.93463 27.759 -9.45571 29.4747 -9.28109 31.3988C-9.0807 33.3298 -9.27729 35.4029 -9.87085 37.6181C-10.4299 39.7045 -11.2265 41.4926 -12.2607 42.9824C-13.269 44.479 -14.4214 45.6887 -15.7177 46.6113L-13.591 52.2747ZM-26.2143 33.2389C-26.4559 34.1404 -26.6167 35.0498 -26.6968 35.967C-26.77 36.8584 -26.7289 37.6838 -26.5735 38.4432C-26.3924 39.2096 -26.0866 39.8713 -25.6561 40.4283C-25.2256 40.9854 -24.6368 41.364 -23.8899 41.5642C-23.1429 41.7643 -22.4437 41.7308 -21.7924 41.4636C-21.141 41.1964 -20.5582 40.7728 -20.0439 40.1929C-19.5038 39.6198 -19.0426 38.9289 -18.6603 38.1203C-18.2454 37.2929 -17.9171 36.4284 -17.6755 35.5268C-17.4271 34.5996 -17.2791 33.6867 -17.2316 32.7884C-17.1515 31.8712 -17.2021 31.0295 -17.3832 30.2631C-17.5317 29.478 -17.8212 28.8068 -18.2517 28.2498C-18.6822 27.6927 -19.2709 27.3141 -20.0179 27.1139C-20.7649 26.9138 -21.4641 26.9473 -22.1154 27.2145C-22.7668 27.4817 -23.3659 27.9147 -23.9129 28.5135C-24.4272 29.0935 -24.8789 29.8007 -25.2682 30.635C-25.6505 31.4436 -25.9658 32.3116 -26.2143 33.2389ZM-1.21253 54.9703C-2.83529 54.5355 -4.25426 53.9068 -5.46944 53.0843C-6.67772 52.236 -7.63415 51.2205 -8.33873 50.0378C-9.04331 48.8552 -9.48317 47.5088 -9.65829 45.9987C-9.80075 44.4697 -9.62696 42.7908 -9.13693 40.962L-4.81983 24.8504C-4.7163 24.464 -4.47135 24.3226 -4.08498 24.4261L2.52195 26.1964C2.90832 26.2999 3.04974 26.5449 2.94621 26.9313L-1.52618 43.6225C-1.87817 44.9361 -1.8571 45.9908 -1.46297 46.7866C-1.06194 47.5567 -0.359145 48.0763 0.645418 48.3454C1.64998 48.6146 2.51842 48.516 3.25074 48.0497C3.98997 47.5576 4.53557 46.6547 4.88757 45.341L9.35996 28.6498C9.46349 28.2634 9.70844 28.122 10.0948 28.2256L16.5472 29.9545C16.9336 30.058 17.075 30.3029 16.9715 30.6893L12.6544 46.801C12.1643 48.6298 11.4625 50.1672 10.5489 51.4132C9.66792 52.6403 8.62669 53.5898 7.42518 54.2618C6.22366 54.9337 4.88763 55.3349 3.41708 55.4654C1.95343 55.5702 0.410224 55.4051 -1.21253 54.9703ZM25.8354 39.1518L24.707 43.3633L30.8503 45.0093C31.2366 45.1129 31.378 45.3578 31.2745 45.7442L29.9183 50.8056C29.8148 51.192 29.5698 51.3334 29.1835 51.2299L23.0402 49.5838L21.8185 54.143L29.3528 56.1618C29.7391 56.2653 29.8806 56.5103 29.777 56.8966L28.4208 61.9581C28.3173 62.3444 28.0723 62.4859 27.686 62.3823L12.7334 58.3758C12.3471 58.2723 12.2056 58.0273 12.3092 57.641L19.3491 31.3678C19.4526 30.9814 19.6975 30.84 20.0839 30.9435L35.0364 34.95C35.4228 35.0536 35.5642 35.2985 35.4607 35.6849L34.1045 40.7463C34.001 41.1327 33.756 41.2741 33.3696 41.1706L25.8354 39.1518ZM37.1176 65.3237C35.8297 64.9786 34.5506 64.4978 33.2802 63.8813C32.0286 63.2975 30.9627 62.6392 30.0824 61.9064C29.7958 61.6363 29.7009 61.321 29.7975 60.9604L31.278 55.4353C31.3401 55.2035 31.4484 55.1083 31.603 55.1497C31.706 55.1773 31.7892 55.2272 31.8527 55.2994C32.7192 56.0838 33.6391 56.772 34.6124 57.364C35.6114 57.963 36.6261 58.4005 37.6564 58.6766C38.6352 58.9389 39.4562 58.9656 40.1195 58.7569C40.8155 58.5292 41.2601 58.0548 41.4534 57.3336C41.619 56.7154 41.5218 56.151 41.1617 55.6404C40.8273 55.1367 40.2259 54.5476 39.3576 53.8732C38.4377 53.185 37.6088 52.466 36.8711 51.7162C36.1334 50.9664 35.5323 50.1703 35.0678 49.3281C34.6033 48.4858 34.2951 47.575 34.1434 46.5957C34.0175 45.6233 34.1064 44.5705 34.41 43.4371C34.7758 42.0719 35.3707 40.9338 36.1946 40.0226C37.0185 39.1115 37.9872 38.4324 39.1009 37.9854C40.2214 37.5127 41.4353 37.2582 42.7426 37.222C44.0567 37.16 45.3835 37.3084 46.7229 37.6673C47.7532 37.9434 48.7629 38.2967 49.7518 38.7274C50.7476 39.1322 51.6197 39.5868 52.368 40.091C52.6941 40.3164 52.8088 40.6094 52.7122 40.97L51.3871 45.9155C51.3111 46.1989 51.183 46.3164 51.0027 46.2681C50.9512 46.2543 50.8808 46.2078 50.7916 46.1287C50.1205 45.6452 49.3421 45.2019 48.4562 44.7989C47.603 44.3771 46.8415 44.0764 46.1718 43.897C45.2703 43.6554 44.5136 43.6459 43.9018 43.8685C43.3158 44.0979 42.9434 44.5089 42.7847 45.1013C42.6742 45.5135 42.6549 45.8948 42.7266 46.2453C42.831 46.5769 43.0067 46.9001 43.2537 47.2147C43.5006 47.5294 43.7991 47.8578 44.1491 48.2001C44.5318 48.5235 44.9497 48.8701 45.4027 49.24C46.2761 49.9985 47.0396 50.7553 47.6932 51.5101C48.3537 52.2393 48.8681 52.9983 49.2364 53.7871C49.6306 54.5829 49.8589 55.4309 49.9214 56.3311C50.0165 57.2124 49.9226 58.1811 49.6396 59.2372C49.2945 60.5251 48.7323 61.6444 47.9531 62.5951C47.2064 63.5269 46.2883 64.2748 45.1985 64.8386C44.1157 65.3767 42.8845 65.6956 41.5051 65.7953C40.1514 65.9019 38.6889 65.7447 37.1176 65.3237ZM74.3659 45.4884C74.7523 45.5919 74.8937 45.8368 74.7902 46.2232L73.4029 51.4006C73.2994 51.7869 73.0544 51.9284 72.6681 51.8248L66.8725 50.2719L61.3752 70.7882C61.2717 71.1745 61.0267 71.316 60.6403 71.2124L54.072 69.4525C53.6857 69.3489 53.5443 69.104 53.6478 68.7176L59.1451 48.2014L53.3495 46.6484C52.9632 46.5449 52.8218 46.3 52.9253 45.9136L54.3125 40.7362C54.4161 40.3499 54.661 40.2084 55.0474 40.312L74.3659 45.4884ZM89.5153 49.5476C91.1895 49.9962 92.6927 50.6199 94.0247 51.4185C95.3567 52.2171 96.4472 53.1443 97.2963 54.2C98.1453 55.2557 98.7142 56.4296 99.0029 57.7217C99.2986 58.9881 99.2532 60.3425 98.8666 61.7849C98.4939 63.1758 97.8595 64.3586 96.9634 65.3332C96.1 66.289 95.0203 67.0212 93.7246 67.5298C92.4614 68.0195 91.0371 68.2867 89.4515 68.3311C87.8729 68.3499 86.1949 68.1211 84.4176 67.6449L84.1858 67.5828L81.8564 76.2761C81.7529 76.6625 81.508 76.8039 81.1216 76.7004L74.2056 74.8472C73.8192 74.7437 73.6778 74.4988 73.7813 74.1124L80.8212 47.8392C80.9247 47.4528 81.1697 47.3114 81.556 47.4149L89.5153 49.5476ZM85.7953 61.8852C87.0832 62.2303 88.1448 62.1835 88.9802 61.7447C89.8413 61.3129 90.4064 60.5947 90.6756 59.5901C90.9517 58.5598 90.8213 57.6552 90.2846 56.8765C89.7806 56.0788 88.9103 55.5144 87.6739 55.1831L87.5194 55.1417L85.718 61.8645L85.7953 61.8852ZM105.485 83.5597C103.862 83.1249 102.443 82.4962 101.228 81.6737C100.019 80.8254 99.0629 79.8099 98.3583 78.6272C97.6538 77.4446 97.2139 76.0982 97.0388 74.5881C96.8963 73.0591 97.0701 71.3802 97.5601 69.5514L101.877 53.4397C101.981 53.0534 102.226 52.912 102.612 53.0155L109.219 54.7858C109.605 54.8893 109.747 55.1343 109.643 55.5206L105.171 72.2118C104.819 73.5255 104.84 74.5802 105.234 75.376C105.635 76.1461 106.338 76.6657 107.342 76.9348C108.347 77.204 109.215 77.1054 109.948 76.6391C110.687 76.147 111.233 75.2441 111.585 73.9304L116.057 57.2392C116.161 56.8528 116.406 56.7114 116.792 56.8149L123.244 58.5439C123.631 58.6474 123.772 58.8923 123.669 59.2787L119.351 75.3903C118.861 77.2192 118.16 78.7566 117.246 80.0026C116.365 81.2297 115.324 82.1792 114.122 82.8512C112.921 83.5231 111.585 83.9243 110.114 84.0548C108.65 84.1595 107.107 83.9945 105.485 83.5597ZM136.697 84.3448C137.083 84.4484 137.225 84.6933 137.121 85.0797L135.62 90.6821C135.517 91.0684 135.272 91.2099 134.885 91.1063L119.431 86.9652C119.044 86.8617 118.903 86.6167 119.006 86.2304L126.046 59.9572C126.15 59.5708 126.395 59.4294 126.781 59.5329L133.697 61.3861C134.083 61.4896 134.225 61.7345 134.121 62.1209L128.738 82.2122L136.697 84.3448ZM154.386 89.0845C154.772 89.188 154.913 89.4329 154.81 89.8193L153.309 95.4217C153.205 95.8081 152.96 95.9495 152.574 95.8459L137.119 91.7048C136.733 91.6013 136.591 91.3564 136.695 90.97L143.735 64.6968C143.838 64.3104 144.083 64.169 144.469 64.2725L151.386 66.1257C151.772 66.2292 151.913 66.4742 151.81 66.8605L146.426 86.9518L154.386 89.0845ZM181.274 102.542C181.361 102.731 181.381 102.916 181.333 103.096C181.257 103.38 180.987 103.459 180.523 103.335L173.221 101.378C172.809 101.268 172.57 101.025 172.505 100.648L169.777 89.8128L167.271 99.163C167.168 99.5494 166.923 99.6908 166.537 99.5873L160.007 97.8376C159.621 97.7341 159.479 97.4892 159.583 97.1028L166.623 70.8296C166.726 70.4432 166.971 70.3018 167.357 70.4053L175.471 72.5794C177.145 73.028 178.613 73.6284 179.875 74.3806C181.169 75.1139 182.196 75.9689 182.956 76.9455C183.742 77.929 184.251 79.0178 184.483 80.2119C184.741 81.4129 184.69 82.6831 184.331 84.0225C183.862 85.7741 183.004 87.173 181.757 88.2194C180.511 89.2657 178.971 89.8608 177.138 90.0046L181.274 102.542ZM172.945 77.9899L171.061 85.0218L171.215 85.0632C172.606 85.4359 173.706 85.3995 174.516 84.9538C175.358 84.4893 175.928 83.7033 176.224 82.5957C176.514 81.5138 176.394 80.5707 175.865 79.7661C175.335 78.9616 174.413 78.3833 173.099 78.0313L172.945 77.9899ZM195.74 84.6777L194.612 88.8891L200.755 90.5352C201.141 90.6387 201.283 90.8837 201.179 91.2701L199.823 96.3315C199.72 96.7179 199.475 96.8593 199.088 96.7558L192.945 95.1097L191.723 99.6689L199.258 101.688C199.644 101.791 199.785 102.036 199.682 102.422L198.326 107.484C198.222 107.87 197.977 108.012 197.591 107.908L182.638 103.902C182.252 103.798 182.11 103.553 182.214 103.167L189.254 76.8937C189.357 76.5073 189.602 76.3659 189.989 76.4694L204.941 80.4759C205.328 80.5794 205.469 80.8244 205.366 81.2108L204.009 86.2722C203.906 86.6586 203.661 86.8 203.274 86.6965L195.74 84.6777ZM223.038 115.679C223.1 115.861 223.117 116.004 223.089 116.107C223.048 116.262 222.923 116.366 222.715 116.421L217.591 118.236C217.441 118.279 217.315 118.287 217.212 118.259C217.057 118.218 216.927 118.086 216.821 117.865L214.694 112.201C213.431 112.277 212.169 112.146 210.907 111.808C209.284 111.373 207.821 110.65 206.519 109.638C205.223 108.601 204.184 107.328 203.401 105.821C202.643 104.32 202.161 102.617 201.954 100.712C201.772 98.8138 201.978 96.7571 202.572 94.5419C203.165 92.3267 204.019 90.4296 205.132 88.8506C206.271 87.2785 207.543 86.0321 208.95 85.1113C210.382 84.1975 211.915 83.6282 213.548 83.4034C215.189 83.1528 216.821 83.245 218.444 83.6798C220.066 84.1146 221.513 84.8472 222.783 85.8777C224.085 86.8893 225.128 88.1488 225.911 89.6562C226.695 91.1636 227.173 92.8793 227.348 94.8034C227.548 96.7344 227.352 98.8075 226.758 101.023C226.199 103.109 225.403 104.897 224.369 106.387C223.36 107.884 222.208 109.093 220.912 110.016L223.038 115.679ZM210.415 96.6435C210.173 97.545 210.012 98.4544 209.932 99.3716C209.859 100.263 209.9 101.088 210.056 101.848C210.237 102.614 210.543 103.276 210.973 103.833C211.404 104.39 211.992 104.769 212.739 104.969C213.486 105.169 214.185 105.135 214.837 104.868C215.488 104.601 216.071 104.177 216.585 103.597C217.125 103.024 217.587 102.334 217.969 101.525C218.384 100.697 218.712 99.833 218.954 98.9314C219.202 98.0042 219.35 97.0913 219.398 96.193C219.478 95.2758 219.427 94.4341 219.246 93.6677C219.097 92.8825 218.808 92.2114 218.377 91.6544C217.947 91.0973 217.358 90.7187 216.611 90.5185C215.864 90.3184 215.165 90.3519 214.514 90.6191C213.862 90.8863 213.263 91.3193 212.716 91.9181C212.202 92.4981 211.75 93.2053 211.361 94.0396C210.979 94.8482 210.663 95.7162 210.415 96.6435ZM235.417 118.375C233.794 117.94 232.375 117.311 231.16 116.489C229.951 115.641 228.995 114.625 228.29 113.442C227.586 112.26 227.146 110.913 226.971 109.403C226.828 107.874 227.002 106.195 227.492 104.367L231.809 88.2549C231.913 87.8686 232.158 87.7272 232.544 87.8307L239.151 89.601C239.538 89.7045 239.679 89.9495 239.575 90.3359L235.103 107.027C234.751 108.341 234.772 109.395 235.166 110.191C235.567 110.961 236.27 111.481 237.275 111.75C238.279 112.019 239.148 111.921 239.88 111.454C240.619 110.962 241.165 110.059 241.517 108.746L245.989 92.0544C246.093 91.668 246.338 91.5266 246.724 91.6301L253.176 93.3591C253.563 93.4626 253.704 93.7075 253.601 94.0939L249.284 110.206C248.794 112.034 248.092 113.572 247.178 114.818C246.297 116.045 245.256 116.994 244.054 117.666C242.853 118.338 241.517 118.739 240.046 118.87C238.583 118.975 237.039 118.81 235.417 118.375ZM262.465 102.556L261.336 106.768L267.479 108.414C267.866 108.517 268.007 108.762 267.904 109.149L266.547 114.21C266.444 114.597 266.199 114.738 265.813 114.635L259.669 112.988L258.448 117.548L265.982 119.566C266.368 119.67 266.51 119.915 266.406 120.301L265.05 125.363C264.946 125.749 264.702 125.89 264.315 125.787L249.363 121.78C248.976 121.677 248.835 121.432 248.938 121.046L255.978 94.7724C256.082 94.386 256.327 94.2446 256.713 94.3481L271.666 98.3546C272.052 98.4582 272.193 98.7031 272.09 99.0895L270.734 104.151C270.63 104.537 270.385 104.679 269.999 104.575L262.465 102.556ZM273.747 128.728C272.459 128.383 271.18 127.902 269.909 127.286C268.658 126.702 267.592 126.044 266.712 125.311C266.425 125.041 266.33 124.726 266.427 124.365L267.907 118.84C267.969 118.608 268.078 118.513 268.232 118.554C268.335 118.582 268.418 118.632 268.482 118.704C269.348 119.488 270.268 120.177 271.242 120.769C272.241 121.368 273.255 121.805 274.286 122.081C275.264 122.343 276.085 122.37 276.749 122.161C277.445 121.934 277.889 121.459 278.083 120.738C278.248 120.12 278.151 119.556 277.791 119.045C277.456 118.541 276.855 117.952 275.987 117.278C275.067 116.59 274.238 115.871 273.5 115.121C272.763 114.371 272.161 113.575 271.697 112.733C271.232 111.89 270.924 110.98 270.773 110C270.647 109.028 270.736 107.975 271.039 106.842C271.405 105.477 272 104.338 272.824 103.427C273.648 102.516 274.616 101.837 275.73 101.39C276.851 100.917 278.064 100.663 279.372 100.627C280.686 100.565 282.013 100.713 283.352 101.072C284.382 101.348 285.392 101.701 286.381 102.132C287.377 102.537 288.249 102.991 288.997 103.496C289.323 103.721 289.438 104.014 289.341 104.375L288.016 109.32C287.94 109.603 287.812 109.721 287.632 109.673C287.58 109.659 287.51 109.612 287.421 109.533C286.75 109.05 285.971 108.607 285.085 108.204C284.232 107.782 283.471 107.481 282.801 107.302C281.899 107.06 281.143 107.05 280.531 107.273C279.945 107.503 279.573 107.913 279.414 108.506C279.303 108.918 279.284 109.299 279.356 109.65C279.46 109.982 279.636 110.305 279.883 110.619C280.13 110.934 280.428 111.262 280.778 111.605C281.161 111.928 281.579 112.275 282.032 112.645C282.905 113.403 283.669 114.16 284.322 114.915C284.983 115.644 285.497 116.403 285.866 117.192C286.26 117.988 286.488 118.836 286.551 119.736C286.646 120.617 286.552 121.586 286.269 122.642C285.924 123.93 285.362 125.049 284.582 126C283.836 126.932 282.917 127.679 281.828 128.243C280.745 128.781 279.514 129.1 278.134 129.2C276.781 129.306 275.318 129.149 273.747 128.728ZM310.995 108.893C311.381 108.996 311.523 109.241 311.419 109.628L310.032 114.805C309.929 115.192 309.684 115.333 309.297 115.229L303.502 113.677L298.004 134.193C297.901 134.579 297.656 134.721 297.27 134.617L290.701 132.857C290.315 132.754 290.173 132.509 290.277 132.122L295.774 111.606L289.979 110.053C289.592 109.95 289.451 109.705 289.554 109.318L290.942 104.141C291.045 103.754 291.29 103.613 291.677 103.717L310.995 108.893ZM326.144 112.952C327.819 113.401 329.322 114.024 330.654 114.823C331.986 115.622 333.076 116.549 333.925 117.605C334.774 118.66 335.343 119.834 335.632 121.126C335.928 122.393 335.882 123.747 335.496 125.189C335.123 126.58 334.489 127.763 333.593 128.738C332.729 129.694 331.65 130.426 330.354 130.934C329.091 131.424 327.666 131.691 326.081 131.736C324.502 131.754 322.824 131.526 321.047 131.049L320.815 130.987L318.486 139.681C318.382 140.067 318.137 140.209 317.751 140.105L310.835 138.252C310.448 138.148 310.307 137.903 310.41 137.517L317.45 111.244C317.554 110.857 317.799 110.716 318.185 110.82L326.144 112.952ZM322.424 125.29C323.712 125.635 324.774 125.588 325.609 125.149C326.47 124.717 327.036 123.999 327.305 122.995C327.581 121.964 327.451 121.06 326.914 120.281C326.41 119.483 325.54 118.919 324.303 118.588L324.149 118.546L322.347 125.269L322.424 125.29ZM342.114 146.964C340.491 146.529 339.072 145.901 337.857 145.078C336.649 144.23 335.692 143.214 334.988 142.032C334.283 140.849 333.843 139.503 333.668 137.993C333.526 136.464 333.699 134.785 334.189 132.956L338.506 116.844C338.61 116.458 338.855 116.317 339.241 116.42L345.848 118.19C346.235 118.294 346.376 118.539 346.272 118.925L341.8 135.616C341.448 136.93 341.469 137.985 341.863 138.781C342.264 139.551 342.967 140.07 343.972 140.339C344.976 140.609 345.845 140.51 346.577 140.044C347.316 139.552 347.862 138.649 348.214 137.335L352.686 120.644C352.79 120.257 353.035 120.116 353.421 120.22L359.873 121.948C360.26 122.052 360.401 122.297 360.298 122.683L355.981 138.795C355.491 140.624 354.789 142.161 353.875 143.407C352.994 144.634 351.953 145.584 350.751 146.256C349.55 146.928 348.214 147.329 346.743 147.459C345.28 147.564 343.736 147.399 342.114 146.964ZM373.326 147.749C373.713 147.853 373.854 148.098 373.751 148.484L372.249 154.087C372.146 154.473 371.901 154.614 371.515 154.511L356.06 150.37C355.673 150.266 355.532 150.021 355.635 149.635L362.675 123.362C362.779 122.975 363.024 122.834 363.41 122.938L370.326 124.791C370.713 124.894 370.854 125.139 370.75 125.526L365.367 145.617L373.326 147.749ZM391.015 152.489C391.401 152.593 391.543 152.838 391.439 153.224L389.938 158.826C389.834 159.213 389.589 159.354 389.203 159.251L373.748 155.109C373.362 155.006 373.22 154.761 373.324 154.375L380.364 128.101C380.467 127.715 380.712 127.574 381.099 127.677L388.015 129.53C388.401 129.634 388.542 129.879 388.439 130.265L383.056 150.356L391.015 152.489ZM417.903 165.947C417.991 166.136 418.01 166.321 417.962 166.501C417.886 166.784 417.616 166.864 417.152 166.74L409.85 164.783C409.438 164.672 409.199 164.429 409.135 164.053L406.406 153.217L403.901 162.568C403.797 162.954 403.552 163.095 403.166 162.992L396.636 161.242C396.25 161.139 396.108 160.894 396.212 160.507L403.252 134.234C403.355 133.848 403.6 133.706 403.987 133.81L412.1 135.984C413.775 136.433 415.243 137.033 416.504 137.785C417.799 138.519 418.826 139.373 419.585 140.35C420.371 141.334 420.88 142.422 421.112 143.616C421.37 144.817 421.319 146.088 420.961 147.427C420.491 149.179 419.633 150.578 418.387 151.624C417.14 152.67 415.6 153.265 413.767 153.409L417.903 165.947ZM409.574 141.394L407.69 148.426L407.844 148.468C409.235 148.841 410.335 148.804 411.145 148.358C411.987 147.894 412.557 147.108 412.854 146C413.144 144.918 413.024 143.975 412.494 143.171C411.964 142.366 411.042 141.788 409.728 141.436L409.574 141.394ZM432.369 148.082L431.241 152.294L437.384 153.94C437.771 154.043 437.912 154.288 437.809 154.675L436.452 159.736C436.349 160.122 436.104 160.264 435.717 160.16L429.574 158.514L428.353 163.073L435.887 165.092C436.273 165.196 436.415 165.441 436.311 165.827L434.955 170.889C434.851 171.275 434.606 171.416 434.22 171.313L419.267 167.306C418.881 167.203 418.74 166.958 418.843 166.571L425.883 140.298C425.987 139.912 426.232 139.77 426.618 139.874L441.57 143.881C441.957 143.984 442.098 144.229 441.995 144.615L440.639 149.677C440.535 150.063 440.29 150.205 439.904 150.101L432.369 148.082ZM459.667 179.084C459.729 179.266 459.746 179.409 459.718 179.512C459.677 179.666 459.552 179.771 459.344 179.826L454.22 181.641C454.07 181.684 453.944 181.691 453.841 181.664C453.687 181.622 453.556 181.491 453.45 181.269L451.323 175.606C450.061 175.682 448.798 175.55 447.536 175.212C445.913 174.777 444.451 174.054 443.148 173.043C441.852 172.005 440.813 170.733 440.03 169.225C439.272 167.725 438.79 166.022 438.583 164.117C438.401 162.218 438.607 160.162 439.201 157.946C439.794 155.731 440.648 153.834 441.761 152.255C442.9 150.683 444.173 149.437 445.579 148.516C447.011 147.602 448.544 147.033 450.178 146.808C451.818 146.557 453.45 146.65 455.073 147.084C456.696 147.519 458.142 148.252 459.412 149.282C460.714 150.294 461.757 151.553 462.541 153.061C463.324 154.568 463.803 156.284 463.977 158.208C464.178 160.139 463.981 162.212 463.388 164.427C462.828 166.514 462.032 168.302 460.998 169.792C459.989 171.288 458.837 172.498 457.541 173.42L459.667 179.084ZM447.044 160.048C446.802 160.95 446.642 161.859 446.562 162.776C446.488 163.668 446.529 164.493 446.685 165.252C446.866 166.019 447.172 166.68 447.602 167.238C448.033 167.795 448.622 168.173 449.369 168.373C450.115 168.574 450.815 168.54 451.466 168.273C452.117 168.006 452.7 167.582 453.214 167.002C453.755 166.429 454.216 165.738 454.598 164.93C455.013 164.102 455.341 163.238 455.583 162.336C455.831 161.409 455.979 160.496 456.027 159.598C456.107 158.68 456.056 157.839 455.875 157.072C455.727 156.287 455.437 155.616 455.007 155.059C454.576 154.502 453.987 154.123 453.24 153.923C452.493 153.723 451.794 153.756 451.143 154.024C450.492 154.291 449.892 154.724 449.345 155.323C448.831 155.903 448.379 156.61 447.99 157.444C447.608 158.253 447.293 159.121 447.044 160.048ZM472.046 181.78C470.423 181.345 469.004 180.716 467.789 179.893C466.581 179.045 465.624 178.03 464.92 176.847C464.215 175.664 463.775 174.318 463.6 172.808C463.458 171.279 463.631 169.6 464.121 167.771L468.439 151.66C468.542 151.273 468.787 151.132 469.173 151.235L475.78 153.006C476.167 153.109 476.308 153.354 476.205 153.74L471.732 170.432C471.38 171.745 471.401 172.8 471.795 173.596C472.196 174.366 472.899 174.885 473.904 175.155C474.908 175.424 475.777 175.325 476.509 174.859C477.248 174.367 477.794 173.464 478.146 172.15L482.618 155.459C482.722 155.073 482.967 154.931 483.353 155.035L489.806 156.764C490.192 156.867 490.333 157.112 490.23 157.499L485.913 173.61C485.423 175.439 484.721 176.976 483.807 178.222C482.926 179.45 481.885 180.399 480.684 181.071C479.482 181.743 478.146 182.144 476.675 182.275C475.212 182.379 473.669 182.214 472.046 181.78ZM499.094 165.961L497.965 170.172L504.109 171.819C504.495 171.922 504.636 172.167 504.533 172.553L503.177 177.615C503.073 178.001 502.828 178.143 502.442 178.039L496.299 176.393L495.077 180.952L502.611 182.971C502.998 183.075 503.139 183.319 503.035 183.706L501.679 188.767C501.576 189.154 501.331 189.295 500.944 189.192L485.992 185.185C485.605 185.081 485.464 184.837 485.568 184.45L492.607 158.177C492.711 157.791 492.956 157.649 493.342 157.753L508.295 161.759C508.681 161.863 508.823 162.108 508.719 162.494L507.363 167.556C507.259 167.942 507.014 168.083 506.628 167.98L499.094 165.961ZM510.376 192.133C509.088 191.788 507.809 191.307 506.539 190.691C505.287 190.107 504.221 189.448 503.341 188.716C503.054 188.446 502.959 188.13 503.056 187.77L504.536 182.245C504.598 182.013 504.707 181.917 504.861 181.959C504.964 181.986 505.048 182.036 505.111 182.109C505.978 182.893 506.897 183.581 507.871 184.173C508.87 184.772 509.884 185.21 510.915 185.486C511.894 185.748 512.715 185.775 513.378 185.566C514.074 185.338 514.518 184.864 514.712 184.143C514.877 183.525 514.78 182.96 514.42 182.45C514.086 181.946 513.484 181.357 512.616 180.682C511.696 179.994 510.867 179.275 510.129 178.525C509.392 177.776 508.791 176.98 508.326 176.137C507.862 175.295 507.554 174.384 507.402 173.405C507.276 172.433 507.365 171.38 507.668 170.246C508.034 168.881 508.629 167.743 509.453 166.832C510.277 165.921 511.246 165.242 512.359 164.795C513.48 164.322 514.694 164.067 516.001 164.031C517.315 163.969 518.642 164.118 519.981 164.477C521.012 164.753 522.021 165.106 523.01 165.537C524.006 165.941 524.878 166.396 525.626 166.9C525.952 167.126 526.067 167.419 525.971 167.779L524.645 172.725C524.57 173.008 524.441 173.126 524.261 173.077C524.21 173.063 524.139 173.017 524.05 172.938C523.379 172.454 522.6 172.011 521.715 171.608C520.861 171.186 520.1 170.886 519.43 170.706C518.529 170.465 517.772 170.455 517.16 170.678C516.574 170.907 516.202 171.318 516.043 171.911C515.933 172.323 515.913 172.704 515.985 173.054C516.089 173.386 516.265 173.709 516.512 174.024C516.759 174.339 517.058 174.667 517.408 175.009C517.79 175.333 518.208 175.679 518.661 176.049C519.535 176.808 520.298 177.564 520.952 178.319C521.612 179.048 522.126 179.807 522.495 180.596C522.889 181.392 523.117 182.24 523.18 183.14C523.275 184.022 523.181 184.99 522.898 186.046C522.553 187.334 521.991 188.454 521.211 189.404C520.465 190.336 519.547 191.084 518.457 191.648C517.374 192.186 516.143 192.505 514.763 192.604C513.41 192.711 511.947 192.554 510.376 192.133ZM547.624 172.298C548.011 172.401 548.152 172.646 548.049 173.032L546.661 178.21C546.558 178.596 546.313 178.738 545.926 178.634L540.131 177.081L534.634 197.597C534.53 197.984 534.285 198.125 533.899 198.022L527.33 196.262C526.944 196.158 526.803 195.913 526.906 195.527L532.403 175.011L526.608 173.458C526.222 173.354 526.08 173.109 526.184 172.723L527.571 167.545C527.674 167.159 527.919 167.018 528.306 167.121L547.624 172.298Z" fill="#090055"/>
<rect width="372" height="52" transform="translate(158.221 28) rotate(9.09678)" fill="#211680"/>
<path d="M192.714 73.4246C192.705 73.4773 192.699 73.5168 192.695 73.5431C192.721 73.5473 192.73 73.5757 192.721 73.6284C192.679 73.8917 192.487 73.996 192.145 73.9412L184.798 72.7649C184.403 72.7016 184.224 72.4704 184.261 72.0712L185.211 58.045L179.534 71.2334C179.339 71.6072 179.058 71.7647 178.689 71.7057L174.463 71.029C174.068 70.9657 173.847 70.7414 173.801 70.3559L172.11 55.8664L168.225 69.5037C168.11 69.8902 167.854 70.0518 167.459 69.9886L160.942 68.9451C160.574 68.8861 160.434 68.6612 160.524 68.2705L169.169 42.1082C169.285 41.7217 169.54 41.56 169.935 41.6233L176.254 42.6351C176.649 42.6984 176.87 42.9227 176.916 43.3082L178.678 59.632L185.125 44.6631C185.32 44.2893 185.602 44.1318 185.971 44.1909L191.777 45.1205C192.172 45.1837 192.377 45.4192 192.393 45.8268L192.714 73.4246ZM205.123 53.7794L204.433 58.0846L210.713 59.0901C211.108 59.1534 211.274 59.3825 211.211 59.7775L210.383 64.9516C210.319 65.3465 210.09 65.5124 209.695 65.4491L203.415 64.4436L202.669 69.1042L210.371 70.3374C210.766 70.4007 210.932 70.6298 210.868 71.0248L210.04 76.1989C209.977 76.5938 209.748 76.7597 209.353 76.6965L194.067 74.249C193.672 74.1858 193.507 73.9567 193.57 73.5617L197.87 46.7038C197.933 46.3088 198.163 46.143 198.558 46.2062L213.843 48.6536C214.238 48.7169 214.404 48.946 214.34 49.341L213.512 54.5151C213.449 54.91 213.22 55.0759 212.825 55.0126L205.123 53.7794ZM233.826 79.6428C233.933 79.8219 233.971 80.0036 233.942 80.1879C233.895 80.4776 233.635 80.5844 233.161 80.5086L225.696 79.3133C225.275 79.2458 225.013 79.0283 224.909 78.6607L221.081 68.1634L219.55 77.7216C219.487 78.1166 219.258 78.2825 218.863 78.2192L212.188 77.1505C211.793 77.0872 211.627 76.8581 211.691 76.4631L215.991 49.6052C216.054 49.2103 216.283 49.0444 216.678 49.1076L224.973 50.4357C226.684 50.7098 228.206 51.156 229.538 51.7744C230.901 52.3707 232.011 53.1155 232.867 54.0088C233.75 54.9063 234.368 55.937 234.721 57.1009C235.102 58.269 235.182 59.5376 234.963 60.9069C234.676 62.6974 233.967 64.1772 232.834 65.3462C231.702 66.5152 230.231 67.2655 228.423 67.597L233.826 79.6428ZM223.016 56.0773L221.865 63.2658L222.023 63.2911C223.445 63.5187 224.536 63.3693 225.295 62.8427C226.085 62.2941 226.571 61.4536 226.752 60.3214C226.929 59.2155 226.713 58.2896 226.103 57.5438C225.493 56.798 224.517 56.3176 223.174 56.1026L223.016 56.0773ZM244.745 82.6874C243.033 82.4133 241.478 81.8402 240.078 80.9679C238.709 80.0735 237.555 78.9301 236.617 77.5375C235.709 76.1229 235.065 74.4939 234.685 72.6507C234.336 70.7853 234.336 68.7599 234.686 66.5744C235.057 64.2572 235.756 62.2492 236.785 60.5504C237.813 58.8516 239.058 57.4846 240.52 56.4494C241.986 55.3879 243.612 54.6761 245.399 54.3139C247.189 53.9255 249.046 53.8851 250.968 54.1929C251.995 54.3573 253.069 54.6508 254.189 55.0733C255.314 55.4694 256.255 55.9172 257.013 56.4165C257.36 56.6072 257.5 56.9132 257.433 57.3345L256.622 62.1468C256.529 62.7261 256.285 62.9841 255.89 62.9209C255.732 62.8956 255.567 62.8287 255.396 62.7202C254.674 62.3346 253.865 61.989 252.969 61.6835C252.103 61.3558 251.262 61.1266 250.446 60.9959C248.418 60.6713 246.727 61.1161 245.371 62.3304C244.042 63.5488 243.194 65.3035 242.827 67.5943C242.46 69.8851 242.545 71.8026 243.081 73.3468C243.647 74.8688 244.628 75.7416 246.024 75.965C247.156 76.1463 248.125 75.91 248.932 75.256C249.766 74.6062 250.329 73.5351 250.622 72.0426L247.225 71.4988C246.83 71.4355 246.664 71.2064 246.727 70.8115L247.499 65.9928C247.562 65.5979 247.791 65.432 248.186 65.4952L257.507 66.9877C257.902 67.051 258.123 67.2753 258.169 67.6608C258.217 68.2085 258.216 68.8026 258.168 69.443C258.145 70.0876 258.073 70.7917 257.951 71.5553C257.647 73.4511 257.104 75.16 256.32 76.6819C255.567 78.1817 254.612 79.4197 253.457 80.3959C252.327 81.3764 251.014 82.0709 249.518 82.4794C248.047 82.8921 246.456 82.9614 244.745 82.6874ZM268.472 63.9227L267.783 68.2279L274.063 69.2334C274.458 69.2967 274.624 69.5258 274.56 69.9207L273.732 75.0948C273.669 75.4898 273.44 75.6557 273.045 75.5924L266.765 74.5869L266.018 79.2475L273.72 80.4807C274.115 80.544 274.281 80.7731 274.218 81.168L273.389 86.3421C273.326 86.7371 273.097 86.903 272.702 86.8397L257.417 84.3923C257.022 84.3291 256.856 84.0999 256.919 83.705L261.22 56.8471C261.283 56.4521 261.512 56.2862 261.907 56.3495L277.192 58.7969C277.587 58.8602 277.753 59.0893 277.69 59.4842L276.861 64.6583C276.798 65.0533 276.569 65.2192 276.174 65.1559L268.472 63.9227ZM310.965 92.3586C310.957 92.4113 310.95 92.4508 310.946 92.4771C310.972 92.4813 310.981 92.5098 310.973 92.5624C310.931 92.8257 310.739 92.93 310.396 92.8752L303.05 91.6989C302.655 91.6357 302.476 91.4045 302.513 91.0053L303.462 76.979L297.786 90.1674C297.591 90.5413 297.309 90.6987 296.94 90.6397L292.714 89.963C292.319 89.8998 292.099 89.6754 292.052 89.2899L290.362 74.8004L286.477 88.4377C286.361 88.8242 286.106 88.9859 285.711 88.9226L279.194 87.8791C278.825 87.8201 278.686 87.5952 278.775 87.2045L287.42 61.0422C287.536 60.6557 287.792 60.494 288.186 60.5573L294.506 61.5691C294.901 61.6324 295.122 61.8568 295.168 62.2423L296.929 78.566L303.377 63.5972C303.572 63.2233 303.854 63.0659 304.222 63.1249L310.028 64.0545C310.423 64.1178 310.629 64.3532 310.644 64.7608L310.965 92.3586ZM323.374 72.7135L322.685 77.0186L328.965 78.0242C329.36 78.0874 329.526 78.3165 329.463 78.7115L328.634 83.8856C328.571 84.2805 328.342 84.4464 327.947 84.3832L321.667 83.3776L320.921 88.0383L328.622 89.2715C329.017 89.3347 329.183 89.5638 329.12 89.9588L328.292 95.1329C328.228 95.5279 327.999 95.6937 327.604 95.6305L312.319 93.183C311.924 93.1198 311.758 92.8907 311.821 92.4957L316.122 65.6378C316.185 65.2429 316.414 65.077 316.809 65.1402L332.094 67.5877C332.489 67.6509 332.655 67.88 332.592 68.275L331.764 73.4491C331.7 73.844 331.471 74.0099 331.076 73.9467L323.374 72.7135ZM352.078 98.5769C352.184 98.7559 352.223 98.9376 352.193 99.1219C352.147 99.4116 351.887 99.5185 351.413 99.4426L343.948 98.2473C343.526 98.1799 343.264 97.9623 343.161 97.5947L339.332 87.0974L337.802 96.6557C337.739 97.0506 337.51 97.2165 337.115 97.1533L330.44 96.0845C330.045 96.0212 329.879 95.7921 329.942 95.3972L334.243 68.5393C334.306 68.1443 334.535 67.9784 334.93 68.0417L343.224 69.3697C344.936 69.6438 346.458 70.09 347.79 70.7084C349.153 71.3047 350.262 72.0495 351.119 72.9428C352.001 73.8403 352.619 74.871 352.973 76.0349C353.353 77.203 353.434 78.4717 353.214 79.8409C352.928 81.6314 352.218 83.1112 351.086 84.2802C349.953 85.4492 348.483 86.1995 346.674 86.5311L352.078 98.5769ZM341.268 75.0114L340.117 82.1998L340.275 82.2251C341.697 82.4528 342.787 82.3033 343.547 81.7768C344.337 81.2281 344.822 80.3876 345.004 79.2554C345.181 78.1495 344.964 77.2236 344.355 76.4779C343.745 75.7321 342.769 75.2517 341.426 75.0366L341.268 75.0114ZM362.996 101.621C361.285 101.347 359.729 100.774 358.329 99.9019C356.96 99.0075 355.807 97.8641 354.868 96.4716C353.961 95.0569 353.317 93.428 352.937 91.5847C352.587 89.7193 352.587 87.6939 352.937 85.5084C353.308 83.1912 354.008 81.1832 355.036 79.4844C356.064 77.7856 357.309 76.4186 358.771 75.3834C360.238 74.3219 361.864 73.6101 363.65 73.248C365.441 72.8595 367.297 72.8192 369.22 73.1269C370.247 73.2914 371.32 73.5848 372.441 74.0073C373.566 74.4035 374.507 74.8512 375.264 75.3505C375.612 75.5412 375.752 75.8472 375.684 76.2685L374.873 81.0808C374.78 81.6601 374.537 81.9181 374.142 81.8549C373.984 81.8296 373.819 81.7627 373.647 81.6542C372.926 81.2686 372.117 80.923 371.221 80.6175C370.355 80.2898 369.514 80.0606 368.697 79.9299C366.67 79.6053 364.978 80.0501 363.623 81.2644C362.293 82.4829 361.445 84.2375 361.078 86.5283C360.712 88.8192 360.796 90.7367 361.332 92.2808C361.899 93.8028 362.88 94.6756 364.275 94.899C365.407 95.0803 366.377 94.844 367.184 94.19C368.017 93.5402 368.58 92.4691 368.873 90.9767L365.476 90.4328C365.081 90.3695 364.916 90.1404 364.979 89.7455L365.75 84.9269C365.814 84.5319 366.043 84.366 366.438 84.4293L375.759 85.9217C376.154 85.985 376.375 86.2094 376.421 86.5949C376.468 87.1426 376.468 87.7366 376.419 88.377C376.397 89.0216 376.325 89.7257 376.202 90.4893C375.899 92.3852 375.355 94.094 374.571 95.6159C373.818 97.1157 372.864 98.3537 371.708 99.3299C370.579 100.31 369.266 101.005 367.769 101.413C366.299 101.826 364.708 101.895 362.996 101.621ZM386.724 82.8567L386.034 87.1619L392.314 88.1674C392.709 88.2307 392.875 88.4598 392.812 88.8548L391.983 94.0288C391.92 94.4238 391.691 94.5897 391.296 94.5264L385.016 93.5209L384.27 98.1815L391.972 99.4147C392.367 99.478 392.533 99.7071 392.469 100.102L391.641 105.276C391.578 105.671 391.349 105.837 390.954 105.774L375.668 103.326C375.273 103.263 375.107 103.034 375.171 102.639L379.471 75.7811C379.534 75.3861 379.763 75.2203 380.158 75.2835L395.444 77.7309C395.839 77.7942 396.005 78.0233 395.941 78.4183L395.113 83.5924C395.05 83.9873 394.821 84.1532 394.426 84.0899L386.724 82.8567ZM429.217 111.293C429.208 111.345 429.202 111.385 429.198 111.411C429.224 111.415 429.233 111.444 429.225 111.496C429.182 111.76 428.99 111.864 428.648 111.809L421.301 110.633C420.906 110.57 420.727 110.338 420.764 109.939L421.714 95.913L416.037 109.101C415.842 109.475 415.561 109.633 415.192 109.574L410.966 108.897C410.571 108.834 410.35 108.609 410.304 108.224L408.614 93.7344L404.729 107.372C404.613 107.758 404.357 107.92 403.962 107.857L397.445 106.813C397.077 106.754 396.937 106.529 397.027 106.139L405.672 79.9763C405.788 79.5897 406.043 79.4281 406.438 79.4913L412.758 80.5032C413.153 80.5664 413.373 80.7908 413.419 81.1763L415.181 97.5001L421.629 82.5312C421.823 82.1573 422.105 81.9999 422.474 82.0589L428.28 82.9885C428.675 83.0518 428.88 83.2872 428.896 83.6948L429.217 111.293ZM441.626 91.6475L440.937 95.9527L447.217 96.9582C447.612 97.0214 447.777 97.2505 447.714 97.6455L446.886 102.82C446.822 103.215 446.593 103.38 446.198 103.317L439.918 102.312L439.172 106.972L446.874 108.205C447.269 108.269 447.435 108.498 447.372 108.893L446.543 114.067C446.48 114.462 446.251 114.628 445.856 114.564L430.571 112.117C430.176 112.054 430.01 111.825 430.073 111.43L434.373 84.5719C434.437 84.1769 434.666 84.011 435.061 84.0743L450.346 86.5217C450.741 86.5849 450.907 86.814 450.844 87.209L450.015 92.3831C449.952 92.7781 449.723 92.9439 449.328 92.8807L441.626 91.6475ZM470.329 117.511C470.436 117.69 470.474 117.872 470.445 118.056C470.398 118.346 470.138 118.452 469.664 118.377L462.199 117.181C461.778 117.114 461.516 116.896 461.413 116.529L457.584 106.031L456.054 115.59C455.99 115.985 455.761 116.151 455.366 116.087L448.691 115.019C448.296 114.955 448.13 114.726 448.194 114.331L452.494 87.4733C452.557 87.0783 452.786 86.9125 453.181 86.9757L461.476 88.3038C463.187 88.5778 464.709 89.024 466.042 89.6425C467.404 90.2388 468.514 90.9835 469.37 91.8768C470.253 92.7743 470.871 93.805 471.225 94.9689C471.605 96.137 471.685 97.4057 471.466 98.7749C471.179 100.565 470.47 102.045 469.337 103.214C468.205 104.383 466.734 105.134 464.926 105.465L470.329 117.511ZM459.519 93.9454L458.368 101.134L458.526 101.159C459.948 101.387 461.039 101.237 461.798 100.711C462.588 100.162 463.074 99.3217 463.255 98.1894C463.432 97.0835 463.216 96.1577 462.606 95.4119C461.996 94.6661 461.02 94.1857 459.677 93.9707L459.519 93.9454ZM481.248 120.555C479.536 120.281 477.981 119.708 476.581 118.836C475.212 117.942 474.058 116.798 473.12 115.406C472.212 113.991 471.568 112.362 471.188 110.519C470.839 108.653 470.839 106.628 471.189 104.442C471.56 102.125 472.259 100.117 473.288 98.4185C474.316 96.7197 475.561 95.3527 477.023 94.3175C478.489 93.2559 480.116 92.5441 481.902 92.182C483.693 91.7935 485.549 91.7532 487.471 92.061C488.498 92.2254 489.572 92.5188 490.693 92.9413C491.817 93.3375 492.758 93.7852 493.516 94.2846C493.863 94.4753 494.003 94.7812 493.936 95.2025L493.125 100.015C493.032 100.594 492.788 100.852 492.393 100.789C492.235 100.764 492.07 100.697 491.899 100.588C491.177 100.203 490.368 99.8571 489.472 99.5515C488.606 99.2238 487.765 98.9947 486.949 98.864C484.922 98.5393 483.23 98.9841 481.874 100.198C480.545 101.417 479.697 103.172 479.33 105.462C478.963 107.753 479.048 109.671 479.584 111.215C480.15 112.737 481.131 113.61 482.527 113.833C483.659 114.014 484.629 113.778 485.435 113.124C486.269 112.474 486.832 111.403 487.125 109.911L483.728 109.367C483.333 109.304 483.167 109.074 483.23 108.679L484.002 103.861C484.065 103.466 484.294 103.3 484.689 103.363L494.011 104.856C494.406 104.919 494.626 105.143 494.672 105.529C494.72 106.077 494.719 106.671 494.671 107.311C494.648 107.956 494.576 108.66 494.454 109.423C494.15 111.319 493.607 113.028 492.823 114.55C492.07 116.05 491.115 117.288 489.96 118.264C488.831 119.244 487.518 119.939 486.021 120.347C484.55 120.76 482.959 120.829 481.248 120.555ZM504.975 101.791L504.286 106.096L510.566 107.101C510.961 107.165 511.127 107.394 511.064 107.789L510.235 112.963C510.172 113.358 509.943 113.524 509.548 113.46L503.268 112.455L502.521 117.116L510.223 118.349C510.618 118.412 510.784 118.641 510.721 119.036L509.893 124.21C509.829 124.605 509.6 124.771 509.205 124.708L493.92 122.26C493.525 122.197 493.359 121.968 493.422 121.573L497.723 94.7151C497.786 94.3202 498.015 94.1543 498.41 94.2175L513.695 96.665C514.09 96.7282 514.256 96.9573 514.193 97.3523L513.364 102.526C513.301 102.921 513.072 103.087 512.677 103.024L504.975 101.791Z" fill="#EAF1FC"/>
<rect width="453" height="52" transform="translate(49 152.245) rotate(-15)" fill="#211680"/>
<path d="M79.1136 169.892C81.252 169.734 83.0011 170.079 84.3608 170.93C85.7206 171.78 86.6248 173.042 87.0734 174.717C87.4254 176.03 87.4561 177.278 87.1655 178.46C86.868 179.617 86.2844 180.684 85.4146 181.663C84.5638 182.608 83.4525 183.458 82.081 184.212C80.7094 184.966 79.1349 185.581 77.3576 186.058L69.8234 188.076C69.437 188.18 69.1921 188.039 69.0886 187.652L62.0487 161.379C61.9452 160.993 62.0866 160.748 62.473 160.644L70.1617 158.584C71.7587 158.156 73.2391 157.911 74.6029 157.849C75.9668 157.788 77.1788 157.932 78.2391 158.283C79.2925 158.608 80.1812 159.143 80.9052 159.888C81.6293 160.632 82.1501 161.597 82.4676 162.782C82.8472 164.199 82.7535 165.549 82.1864 166.833C81.6125 168.091 80.5813 169.085 79.0929 169.815L79.1136 169.892ZM75.375 165.676C74.8919 163.873 73.5041 163.279 71.2116 163.893L70.9412 163.966L72.4423 169.568L72.6355 169.516C74.9795 168.888 75.8926 167.608 75.375 165.676ZM75.7461 180.816C78.5022 180.078 79.5973 178.652 79.0314 176.54C78.7691 175.561 78.2212 174.908 77.3877 174.579C76.58 174.243 75.4935 174.258 74.1283 174.624L73.8192 174.707L75.4757 180.889L75.7461 180.816ZM111.489 175.918C111.659 176.038 111.769 176.189 111.817 176.369C111.893 176.652 111.699 176.856 111.235 176.98L103.933 178.937C103.521 179.047 103.193 178.956 102.948 178.662L95.1677 170.643L97.673 179.993C97.7766 180.379 97.6351 180.624 97.2488 180.728L90.7191 182.477C90.3327 182.581 90.0878 182.44 89.9843 182.053L82.9444 155.78C82.8409 155.394 82.9823 155.149 83.3686 155.045L91.4824 152.871C93.1567 152.422 94.7282 152.208 96.1969 152.229C97.6844 152.217 99.0014 152.444 100.148 152.91C101.32 153.369 102.305 154.057 103.103 154.975C103.927 155.886 104.518 157.012 104.877 158.351C105.346 160.103 105.303 161.743 104.746 163.273C104.19 164.802 103.154 166.087 101.639 167.128L111.489 175.918ZM91.9997 158.82L93.8839 165.852L94.0385 165.81C95.4294 165.438 96.364 164.856 96.8423 164.065C97.3395 163.242 97.4397 162.276 97.1429 161.169C96.853 160.087 96.2775 159.33 95.4164 158.898C94.5553 158.466 93.4679 158.427 92.1543 158.779L91.9997 158.82ZM135.77 169.827C135.809 169.871 135.843 169.945 135.87 170.048C135.926 170.254 135.811 170.395 135.528 170.471L128.148 172.448C127.762 172.552 127.466 172.424 127.259 172.065C126.999 171.611 126.739 171.156 126.479 170.701C126.238 170.213 125.984 169.729 125.717 169.248L119.149 171.008C119.158 171.558 119.168 172.108 119.177 172.657C119.205 173.174 119.22 173.695 119.223 174.219C119.197 174.64 119.004 174.898 118.644 174.995L111.573 176.89C111.161 177 110.984 176.854 111.042 176.452L112.935 147.661C112.967 147.266 113.176 147.017 113.562 146.913L118.933 145.474C119.294 145.378 119.6 145.489 119.851 145.808L135.77 169.827ZM122.993 164.181C122.253 162.861 121.529 161.55 120.821 160.249C120.14 158.941 119.452 157.662 118.758 156.412C118.756 157.848 118.774 159.307 118.812 160.787C118.876 162.261 118.93 163.751 118.975 165.258L122.993 164.181ZM151.549 136.776C151.935 136.673 152.18 136.814 152.284 137.201L159.324 163.474C159.427 163.86 159.286 164.105 158.9 164.209L153.915 165.544C153.529 165.648 153.191 165.572 152.903 165.319L140.248 154.257L143.83 167.625C143.934 168.012 143.793 168.257 143.406 168.36L137.34 169.985C136.954 170.089 136.709 169.948 136.605 169.561L129.565 143.288C129.462 142.902 129.603 142.657 129.99 142.553L134.974 141.218C135.36 141.114 135.701 141.202 135.997 141.482L148.814 152.997L145.097 139.126C144.994 138.74 145.135 138.495 145.522 138.391L151.549 136.776ZM173.103 160.776C171.506 161.203 169.9 161.289 168.285 161.031C166.67 160.774 165.146 160.188 163.714 159.274C162.282 158.36 161 157.13 159.868 155.584C158.762 154.031 157.915 152.159 157.329 149.97C156.735 147.755 156.539 145.682 156.739 143.751C156.965 141.813 157.495 140.083 158.33 138.562C159.165 137.041 160.269 135.751 161.642 134.693C163.04 133.628 164.615 132.861 166.367 132.392C167.346 132.129 168.297 131.971 169.221 131.917C170.171 131.856 170.99 131.871 171.677 131.963C172.072 131.995 172.325 132.217 172.435 132.629L173.874 138C173.999 138.463 173.932 138.73 173.674 138.799C173.546 138.833 173.335 138.821 173.043 138.761C172.459 138.641 171.827 138.603 171.149 138.647C170.489 138.658 169.825 138.754 169.155 138.933C168.254 139.175 167.487 139.559 166.855 140.088C166.224 140.616 165.737 141.271 165.394 142.053C165.071 142.802 164.888 143.665 164.846 144.643C164.804 145.62 164.932 146.663 165.229 147.77C165.532 148.904 165.947 149.883 166.471 150.709C167.015 151.502 167.627 152.138 168.308 152.619C168.989 153.099 169.722 153.413 170.507 153.562C171.311 153.677 172.125 153.625 172.95 153.404C173.697 153.204 174.394 152.92 175.041 152.554C175.714 152.18 176.283 151.779 176.748 151.351C176.971 151.153 177.147 151.037 177.276 151.003C177.533 150.934 177.724 151.131 177.848 151.594L179.246 156.81C179.356 157.223 179.265 157.551 178.971 157.795C178.276 158.395 177.423 158.969 176.41 159.517C175.39 160.038 174.288 160.458 173.103 160.776ZM195.481 125.005C195.868 124.901 196.113 125.043 196.216 125.429L203.256 151.702C203.359 152.089 203.218 152.333 202.832 152.437L196.225 154.207C195.838 154.311 195.593 154.169 195.49 153.783L192.788 143.699L186.026 145.511L188.728 155.595C188.832 155.981 188.691 156.226 188.304 156.33L181.697 158.1C181.311 158.203 181.066 158.062 180.962 157.676L173.923 131.403C173.819 131.016 173.96 130.771 174.347 130.668L180.954 128.897C181.34 128.794 181.585 128.935 181.689 129.322L184.401 139.445L191.162 137.633L188.45 127.51C188.347 127.124 188.488 126.879 188.874 126.775L195.481 125.005ZM220.893 131.903C223.032 131.744 224.781 132.089 226.141 132.94C227.5 133.79 228.405 135.053 228.853 136.727C229.205 138.04 229.236 139.288 228.945 140.471C228.648 141.627 228.064 142.694 227.194 143.673C226.344 144.619 225.232 145.469 223.861 146.223C222.489 146.977 220.915 147.592 219.137 148.068L211.603 150.087C211.217 150.19 210.972 150.049 210.868 149.662L203.828 123.389C203.725 123.003 203.866 122.758 204.253 122.654L211.942 120.594C213.539 120.166 215.019 119.921 216.383 119.86C217.747 119.798 218.959 119.942 220.019 120.293C221.072 120.618 221.961 121.153 222.685 121.898C223.409 122.643 223.93 123.607 224.247 124.792C224.627 126.209 224.533 127.559 223.966 128.843C223.392 130.101 222.361 131.095 220.873 131.825L220.893 131.903ZM217.155 127.687C216.672 125.883 215.284 125.289 212.991 125.903L212.721 125.976L214.222 131.578L214.415 131.526C216.759 130.898 217.672 129.618 217.155 127.687ZM217.526 142.826C220.282 142.088 221.377 140.663 220.811 138.55C220.549 137.572 220.001 136.918 219.167 136.589C218.36 136.253 217.273 136.268 215.908 136.634L215.599 136.717L217.255 142.899L217.526 142.826ZM253.269 137.929C253.439 138.049 253.548 138.199 253.597 138.379C253.673 138.662 253.479 138.866 253.015 138.99L245.713 140.947C245.301 141.057 244.972 140.966 244.728 140.673L236.947 132.653L239.453 142.003C239.556 142.39 239.415 142.635 239.029 142.738L232.499 144.488C232.113 144.591 231.868 144.45 231.764 144.063L224.724 117.79C224.621 117.404 224.762 117.159 225.148 117.055L233.262 114.881C234.936 114.433 236.508 114.219 237.977 114.239C239.464 114.227 240.781 114.454 241.927 114.92C243.1 115.379 244.085 116.067 244.883 116.985C245.707 117.897 246.298 119.022 246.657 120.361C247.126 122.113 247.083 123.753 246.526 125.283C245.97 126.812 244.934 128.097 243.418 129.139L253.269 137.929ZM233.78 120.83L235.664 127.862L235.818 127.821C237.209 127.448 238.144 126.866 238.622 126.076C239.119 125.252 239.219 124.287 238.923 123.179C238.633 122.097 238.057 121.34 237.196 120.909C236.335 120.477 235.248 120.437 233.934 120.789L233.78 120.83ZM277.549 131.837C277.589 131.881 277.622 131.955 277.65 132.058C277.705 132.264 277.591 132.405 277.308 132.481L269.928 134.459C269.542 134.562 269.245 134.434 269.039 134.076C268.779 133.621 268.519 133.166 268.259 132.711C268.018 132.223 267.764 131.739 267.497 131.259L260.929 133.019C260.938 133.568 260.947 134.118 260.957 134.668C260.985 135.185 261 135.705 261.002 136.229C260.977 136.65 260.784 136.909 260.424 137.005L253.353 138.9C252.941 139.01 252.764 138.865 252.822 138.462L254.714 109.672C254.747 109.276 254.956 109.027 255.342 108.924L260.713 107.485C261.073 107.388 261.379 107.499 261.631 107.818L277.549 131.837ZM264.773 126.191C264.033 124.871 263.309 123.56 262.601 122.259C261.919 120.951 261.232 119.672 260.538 118.423C260.536 119.859 260.554 121.317 260.592 122.798C260.656 124.271 260.71 125.761 260.755 127.268L264.773 126.191ZM293.329 98.7865C293.715 98.683 293.96 98.8244 294.064 99.2108L301.104 125.484C301.207 125.87 301.066 126.115 300.679 126.219L295.695 127.554C295.309 127.658 294.971 127.583 294.682 127.329L282.028 116.267L285.61 129.635C285.714 130.022 285.572 130.267 285.186 130.37L279.12 131.996C278.734 132.099 278.489 131.958 278.385 131.571L271.345 105.298C271.242 104.912 271.383 104.667 271.769 104.563L276.754 103.228C277.14 103.124 277.481 103.212 277.777 103.492L290.594 115.007L286.877 101.136C286.774 100.75 286.915 100.505 287.302 100.402L293.329 98.7865ZM314.883 122.786C313.286 123.214 311.68 123.299 310.065 123.041C308.45 122.784 306.926 122.198 305.494 121.285C304.062 120.371 302.78 119.141 301.648 117.594C300.542 116.041 299.695 114.17 299.108 111.98C298.515 109.765 298.318 107.692 298.519 105.761C298.745 103.823 299.275 102.093 300.11 100.572C300.945 99.0511 302.049 97.7614 303.421 96.7034C304.82 95.6384 306.395 94.8713 308.147 94.4019C309.126 94.1397 310.077 93.9814 311.001 93.927C311.951 93.8657 312.77 93.8811 313.457 93.973C313.852 94.0052 314.105 94.2273 314.215 94.6395L315.654 100.01C315.778 100.474 315.712 100.74 315.454 100.809C315.325 100.844 315.115 100.831 314.823 100.771C314.239 100.652 313.607 100.614 312.929 100.657C312.269 100.669 311.605 100.764 310.935 100.943C310.033 101.185 309.267 101.57 308.635 102.098C308.004 102.626 307.517 103.281 307.174 104.063C306.85 104.812 306.668 105.676 306.626 106.653C306.584 107.631 306.712 108.673 307.008 109.781C307.312 110.914 307.726 111.893 308.251 112.719C308.795 113.512 309.407 114.149 310.088 114.629C310.769 115.109 311.502 115.423 312.287 115.572C313.091 115.688 313.905 115.635 314.73 115.414C315.476 115.214 316.174 114.931 316.821 114.564C317.494 114.19 318.063 113.79 318.528 113.361C318.751 113.163 318.927 113.047 319.055 113.013C319.313 112.944 319.504 113.141 319.628 113.605L321.026 118.821C321.136 119.233 321.045 119.561 320.751 119.805C320.056 120.406 319.202 120.98 318.19 121.527C317.17 122.049 316.067 122.468 314.883 122.786ZM337.261 87.0149C337.647 86.9114 337.892 87.0528 337.996 87.4392L345.036 113.712C345.139 114.099 344.998 114.344 344.611 114.447L338.005 116.218C337.618 116.321 337.373 116.18 337.27 115.793L334.568 105.709L327.806 107.521L330.508 117.605C330.612 117.991 330.47 118.236 330.084 118.34L323.477 120.11C323.091 120.214 322.846 120.072 322.742 119.686L315.702 93.4127C315.599 93.0264 315.74 92.7814 316.127 92.6779L322.734 90.9076C323.12 90.804 323.365 90.9455 323.468 91.3318L326.181 101.455L332.942 99.643L330.23 89.5201C330.126 89.1337 330.268 88.8888 330.654 88.7852L337.261 87.0149ZM362.673 93.9128C364.812 93.7539 366.561 94.0997 367.92 94.9501C369.28 95.8005 370.184 97.0628 370.633 98.737C370.985 100.051 371.016 101.299 370.725 102.481C370.428 103.637 369.844 104.705 368.974 105.683C368.123 106.629 367.012 107.479 365.641 108.233C364.269 108.987 362.695 109.602 360.917 110.078L353.383 112.097C352.997 112.2 352.752 112.059 352.648 111.673L345.608 85.3995C345.505 85.0131 345.646 84.7681 346.033 84.6646L353.721 82.6044C355.318 82.1765 356.799 81.9317 358.163 81.8699C359.526 81.8082 360.738 81.9527 361.799 82.3036C362.852 82.6287 363.741 83.1636 364.465 83.9082C365.189 84.6528 365.71 85.6176 366.027 86.8025C366.407 88.2192 366.313 89.5694 365.746 90.8533C365.172 92.1113 364.141 93.1054 362.652 93.8355L362.673 93.9128ZM358.935 89.6968C358.451 87.8937 357.064 87.2993 354.771 87.9136L354.501 87.986L356.002 93.5884L356.195 93.5367C358.539 92.9086 359.452 91.6286 358.935 89.6968ZM359.306 104.837C362.062 104.098 363.157 102.673 362.591 100.561C362.329 99.5818 361.781 98.928 360.947 98.5992C360.14 98.2635 359.053 98.2785 357.688 98.6443L357.379 98.7271L359.035 104.909L359.306 104.837ZM395.049 99.9387C395.219 100.059 395.328 100.209 395.377 100.389C395.452 100.673 395.259 100.876 394.795 101.001L387.493 102.957C387.08 103.068 386.752 102.976 386.508 102.683L378.727 94.6633L381.233 104.013C381.336 104.4 381.195 104.645 380.808 104.748L374.279 106.498C373.892 106.601 373.647 106.46 373.544 106.074L366.504 79.8005C366.4 79.4141 366.542 79.1691 366.928 79.0656L375.042 76.8915C376.716 76.4429 378.288 76.2289 379.756 76.2495C381.244 76.2374 382.561 76.4643 383.707 76.9301C384.879 77.3891 385.864 78.0776 386.663 78.9956C387.486 79.9068 388.078 81.032 388.437 82.3715C388.906 84.123 388.863 85.7635 388.306 87.293C387.75 88.8224 386.714 90.1077 385.198 91.1488L395.049 99.9387ZM375.559 82.8404L377.444 89.8723L377.598 89.8309C378.989 89.4582 379.924 88.8765 380.402 88.0857C380.899 87.2623 380.999 86.2968 380.702 85.1892C380.413 84.1074 379.837 83.3506 378.976 82.9187C378.115 82.4869 377.028 82.447 375.714 82.7989L375.559 82.8404ZM419.329 93.8469C419.369 93.8915 419.402 93.9654 419.43 94.0684C419.485 94.2745 419.371 94.4155 419.088 94.4914L411.708 96.4688C411.322 96.5723 411.025 96.4447 410.819 96.0859C410.559 95.631 410.299 95.1761 410.039 94.7212C409.798 94.2337 409.544 93.7496 409.277 93.2689L402.709 95.0289C402.718 95.5786 402.727 96.1282 402.736 96.6779C402.765 97.1949 402.78 97.7154 402.782 98.2393C402.757 98.6602 402.564 98.9189 402.203 99.0155L395.133 100.91C394.721 101.021 394.544 100.875 394.601 100.473L396.494 71.6818C396.526 71.2866 396.736 71.0373 397.122 70.9338L402.493 69.4948C402.853 69.3981 403.159 69.5094 403.41 69.8286L419.329 93.8469ZM406.553 88.2014C405.812 86.8813 405.089 85.5707 404.381 84.2695C403.699 82.9614 403.011 81.6825 402.318 80.4328C402.316 81.8688 402.334 83.3272 402.372 84.8078C402.435 86.2816 402.49 87.7716 402.534 89.2781L406.553 88.2014ZM435.109 60.7967C435.495 60.6932 435.74 60.8346 435.844 61.221L442.883 87.4942C442.987 87.8805 442.846 88.1255 442.459 88.229L437.475 89.5645C437.089 89.668 436.751 89.5929 436.462 89.339L423.808 78.2772L427.39 91.6456C427.494 92.032 427.352 92.2769 426.966 92.3805L420.9 94.0059C420.513 94.1094 420.268 93.968 420.165 93.5816L413.125 67.3084C413.021 66.922 413.163 66.6771 413.549 66.5736L418.533 65.2381C418.92 65.1345 419.261 65.2226 419.557 65.5022L432.374 77.0173L428.657 63.1466C428.554 62.7602 428.695 62.5153 429.081 62.4117L435.109 60.7967ZM456.662 84.796C455.065 85.2239 453.459 85.3091 451.844 85.0517C450.229 84.7942 448.706 84.2086 447.274 83.2947C445.842 82.3809 444.56 81.1508 443.428 79.6044C442.321 78.0512 441.475 76.1799 440.888 73.9904C440.295 71.7752 440.098 69.7021 440.298 67.7712C440.525 65.8333 441.055 64.1037 441.89 62.5825C442.725 61.0613 443.828 59.7717 445.201 58.7136C446.6 57.6486 448.175 56.8815 449.927 56.4122C450.905 56.1499 451.857 55.9916 452.781 55.9372C453.731 55.876 454.549 55.8913 455.237 55.9832C455.632 56.0154 455.884 56.2375 455.995 56.6497L457.434 62.0202C457.558 62.4839 457.491 62.7502 457.234 62.8192C457.105 62.8537 456.895 62.8411 456.603 62.7813C456.018 62.6618 455.387 62.6239 454.709 62.6676C454.049 62.6787 453.384 62.774 452.715 62.9535C451.813 63.195 451.047 63.5799 450.415 64.108C449.784 64.6361 449.297 65.2911 448.954 66.0731C448.63 66.8224 448.447 67.6858 448.406 68.6633C448.364 69.6407 448.491 70.6832 448.788 71.7908C449.092 72.9242 449.506 73.9037 450.031 74.7293C450.575 75.5222 451.187 76.1588 451.868 76.6389C452.549 77.1191 453.282 77.4334 454.067 77.5819C454.871 77.6978 455.685 77.6453 456.509 77.4244C457.256 77.2243 457.953 76.9409 458.601 76.5742C459.273 76.2006 459.842 75.7997 460.307 75.3714C460.53 75.1736 460.706 75.0575 460.835 75.023C461.093 74.954 461.284 75.1513 461.408 75.6149L462.806 80.8309C462.916 81.243 462.824 81.5712 462.531 81.8155C461.836 82.4158 460.982 82.9897 459.969 83.5372C458.95 84.0589 457.847 84.4785 456.662 84.796ZM479.041 49.0251C479.427 48.9216 479.672 49.063 479.776 49.4494L486.816 75.7226C486.919 76.109 486.778 76.3539 486.391 76.4574L479.784 78.2278C479.398 78.3313 479.153 78.1899 479.05 77.8035L476.347 67.7192L469.586 69.531L472.288 79.6152C472.392 80.0016 472.25 80.2465 471.864 80.3501L465.257 82.1204C464.87 82.2239 464.626 82.0825 464.522 81.6961L457.482 55.4229C457.379 55.0366 457.52 54.7916 457.906 54.6881L464.513 52.9178C464.9 52.8143 465.145 52.9557 465.248 53.342L467.961 63.4649L474.722 61.6532L472.01 51.5303C471.906 51.1439 472.048 50.899 472.434 50.7955L479.041 49.0251Z" fill="#4E3BFB"/>
</g>
<defs>
<clipPath id="clip0">
<rect width="550" height="240" fill="white"/>
</clipPath>
</defs>
</svg>
