<?xml version="1.0" encoding="UTF-8"?>
<svg fill="none" viewBox="0 0 24 24" xmlns="http://www.w3.org/2000/svg">
<path d="m12 0c-6.6298 0-12 5.5053-12 12.302 0 5.4373 3.4402 10.044 8.2063 11.675 0.59669 0.1132 0.81768-0.2644 0.81768-0.5966 0-0.2946-0.00737-1.0648-0.01473-2.0919-3.337 0.7401-4.0442-1.6463-4.0442-1.6463-0.54512-1.4197-1.3333-1.8049-1.3333-1.8049-1.0902-0.7627 0.08103-0.7476 0.08103-0.7476 1.2007 0.0906 1.8416 1.2687 1.8416 1.2687 1.0681 1.8804 2.8066 1.3367 3.4917 1.0195 0.1105-0.7929 0.41989-1.3367 0.75875-1.6463-2.6593-0.3021-5.4586-1.3593-5.4586-6.0716 0-1.3442 0.46409-2.4393 1.2376-3.3002-0.12523-0.31718-0.53775-1.5632 0.1105-3.2548 0 0 1.0092-0.33227 3.3002 1.2612 0.95765-0.27186 1.9816-0.40779 3.0055-0.41534 1.0166 0.00755 2.0479 0.14348 3.0055 0.41534 2.291-1.5934 3.3002-1.2612 3.3002-1.2612 0.6556 1.6916 0.2431 2.9452 0.1179 3.2548 0.7661 0.8609 1.2302 1.956 1.2302 3.3002 0 4.7274-2.8067 5.762-5.4807 6.0716 0.4273 0.3776 0.8177 1.1328 0.8177 2.2807 0 1.6463-0.0147 2.9678-0.0147 3.3756 0 0.3323 0.2136 0.7099 0.825 0.5891 4.7661-1.6312 8.1989-6.2378 8.1989-11.668 0-6.8041-5.3702-12.309-12-12.309z" clip-rule="evenodd" fill="#fff" fill-rule="evenodd"/>
</svg>
