<?xml version="1.0" encoding="UTF-8"?>
<svg fill="none" viewBox="0 0 32 32" xmlns="http://www.w3.org/2000/svg">
<path d="m10.797 22.385-4e-4 0.1056 0.0424 0.0967c0.1227 0.2797 0.3946 0.3835 0.546 0.427l4.591 1.3164 0.1378-0.4806-0.1378 0.4806c0.1907 0.0547 0.3904 0.0688 0.5905 0.0272 0.2095-0.0436 0.4046-0.1308 0.5723-0.2691l12.519-10.32c0.0707-0.0583 0.1517-0.1362 0.2135-0.2359 0.0575-0.0927 0.1168-0.2363 0.0965-0.4088-0.0162-0.2038-0.1317-0.3504-0.2415-0.4364-0.1075-0.0842-0.2296-0.1297-0.3261-0.1573l-4.591-1.3165c-0.209-0.0599-0.4227-0.0621-0.6321-0.0185-0.2002 0.0416-0.3776 0.1342-0.5308 0.2604l-4.4638 3.6797-2.7786-0.7968 3.9335-3.2425c0.0707-0.0583 0.1517-0.1362 0.2135-0.2359 0.0575-0.0927 0.1168-0.2363 0.0965-0.4088-0.0162-0.2038-0.1317-0.3504-0.2415-0.4364-0.1075-0.08413-0.2296-0.12964-0.3261-0.15731l-4.5679-1.3098c-0.209-0.05994-0.4227-0.06213-0.6322-0.01856-0.2001 0.04163-0.3776 0.13421-0.5307 0.26044l-12.519 10.32 0.31804 0.3858-0.31804-0.3858c-0.12154 0.1002-0.32949 0.3038-0.33042 0.6092l-1.6e-4 0.0522 0.01063 0.0511c0.04427 0.2129 0.18891 0.3369 0.28224 0.3977 0.09669 0.063 0.20339 0.1018 0.2953 0.1282l4.5679 1.3098c0.19077 0.0547 0.39041 0.0689 0.59056 0.0272 0.20946-0.0435 0.40452-0.1307 0.57232-0.2691l4.4452-3.6644 2.7787 0.7968-3.915 3.2272c-0.1215 0.1002-0.3295 0.3039-0.3304 0.6092z" stroke="#fff"/>
</svg>
