<svg width="32" height="32" viewBox="0 0 32 32" fill="none" xmlns="http://www.w3.org/2000/svg">
<rect width="32" height="32" rx="4" fill="white"/>
<rect width="32" height="32" rx="4" fill="#121212"/>
<rect x="15" y="15" width="2" height="2" fill="#E85593"/>
<path d="M18.9581 8.42817C19.0034 8.14272 19.1621 8 19.4341 8H23.0835C23.4008 8 23.5368 8.15775 23.4915 8.47324L21.5648 23.5718C21.5195 23.8573 21.3608 24 21.0888 24H17.4394C17.122 24 16.986 23.8423 17.0314 23.5268L17.7567 17.7803H13.79L13.0419 23.5718C12.9966 23.8573 12.8379 24 12.5659 24H8.91651C8.59917 24 8.46317 23.8423 8.5085 23.5268L10.4352 8.42817C10.4805 8.14272 10.6392 8 10.9112 8H14.5606C14.878 8 15.014 8.15775 14.9686 8.47324L14.2433 14.2423H18.21L18.9581 8.42817Z" fill="white"/>
</svg>
