<svg width="1920" height="400" fill="none" xmlns="http://www.w3.org/2000/svg"><path d="M116 505 1052 5l18-5-1374 512 420-7Z" fill="#7F00FA"/><path d="M315 510c9-11 20-19 33-23 11-8 24-12 37-12 7-3 15-4 22-4l650-451 9-19-1242 511c48 1 374 28 462 32 8-13 18-25 29-34Z" fill="#6B02D1"/><path d="M315 510c9-11 20-19 33-23 11-8 24-12 37-12 13-5 26-5 40 0 19 1 38 8 55 21l19 19 561-487 1-26L-49 513l351 9 13-12Z" fill="#A84EFF"/><path d="M315 510c9-11 20-19 33-23 11-8 24-12 37-12 13-5 26-5 40 0 19 1 38 8 55 21l16 15h143l418-492V3L77 514a43982 43982 0 0 0 238-4Z" fill="#6B02D1"/><path d="M315 510c9-11 20-19 33-23 11-8 24-12 37-12 13-5 26-5 40 0 19 1 38 8 55 21l14 14 575-499-17-6-848 510c18 0 57 2 100 6l11-11Z" fill="#A84EFF"/><path d="M425 475c19 1 38 8 55 21l26 25 125 4L1052 5l-5 1-656 467c11-3 22-2 34 2Z" fill="#7F00FA"/><path d="M501 517h34l97 9c13-13 28-22 45-27 17-3 34-10 52-17l22-6 20-4 286-453-14-11-563 489 21 20Z" fill="#A84EFF"/><path d="M646 515c9-7 19-12 31-16 17-3 34-10 52-17l22-6a712 712 0 0 1 57-9h3l246-447-19-10-451 505h59Z" fill="#7F00FA"/><path d="M751 476a712 712 0 0 1 57-9c26-1 52 6 78 10 13 2 27 5 40 9l117-459-9-15-299 468 16-4Z" fill="#A84EFF"/><path d="M886 477c27 5 55 13 83 18l-23-4 35 6 61-470-12-12-175 456 31 6Z" fill="#7F00FA"/><path d="m969 495-2-1-1 1 42 8 92-4-57-472-16-9-60 476 2 1Z" fill="#A84EFF"/><path d="M1088 503h119L1060 28l-35-7 62 482h1Z" fill="#7F00FA"/><path d="M1317 504 1042 27l-18-4 183 480 110 1Z" fill="#A84EFF"/><path d="m1385 506 57 2-415-490-4 8 301 481c19 0 42-2 61-1Z" fill="#7F00FA"/><path d="m1492 510 80-6-549-478-1 2 427 487c13 0 30-6 43-5Z" fill="#A84EFF"/><path d="M1694 510 1042 35l-20-4 551 479h121Z" fill="#6B02D1"/><path d="M1022 33v-1l671 478 125-8" fill="#7F00FA"/><path d="m1043 27-21 8 1 1 20-9Z" fill="#E84343"/><path d="m1022 34 791 476h119L1041 45" fill="#A84EFF"/><path d="m1040 45 955 512h16l-361-224-610-288Z" fill="#6B02D1"/></svg>